G04 #@! TF.GenerationSoftware,KiCad,Pcbnew,(5.1.0)-1*
G04 #@! TF.CreationDate,2019-10-23T13:14:03-05:00*
G04 #@! TF.ProjectId,logiverter,6c6f6769-7665-4727-9465-722e6b696361,rev?*
G04 #@! TF.SameCoordinates,Original*
G04 #@! TF.FileFunction,Other,Fab,Top*
%FSLAX46Y46*%
G04 Gerber Fmt 4.6, Leading zero omitted, Abs format (unit mm)*
G04 Created by KiCad (PCBNEW (5.1.0)-1) date 2019-10-23 13:14:03*
%MOMM*%
%LPD*%
G04 APERTURE LIST*
%ADD10C,0.100000*%
%ADD11C,0.150000*%
G04 APERTURE END LIST*
D10*
X105482000Y-109635000D02*
X105482000Y-99235000D01*
X114482000Y-109635000D02*
X114482000Y-99235000D01*
X114482000Y-109635000D02*
X105482000Y-109635000D01*
X114482000Y-99185000D02*
X105482000Y-99185000D01*
X111782000Y-103635000D02*
G75*
G03X111782000Y-103635000I-1800000J0D01*
G01*
X109982000Y-97155000D02*
X109982000Y-99185000D01*
X114609000Y-159732000D02*
X114609000Y-170132000D01*
X105609000Y-159732000D02*
X105609000Y-170132000D01*
X105609000Y-159732000D02*
X114609000Y-159732000D01*
X105609000Y-170182000D02*
X114609000Y-170182000D01*
X111909000Y-165732000D02*
G75*
G03X111909000Y-165732000I-1800000J0D01*
G01*
X110109000Y-172212000D02*
X110109000Y-170182000D01*
X96520000Y-172212000D02*
X96520000Y-170182000D01*
X98320000Y-165732000D02*
G75*
G03X98320000Y-165732000I-1800000J0D01*
G01*
X92020000Y-170182000D02*
X101020000Y-170182000D01*
X92020000Y-159732000D02*
X101020000Y-159732000D01*
X92020000Y-159732000D02*
X92020000Y-170132000D01*
X101020000Y-159732000D02*
X101020000Y-170132000D01*
X116260000Y-179798000D02*
X116260000Y-190198000D01*
X107260000Y-179798000D02*
X107260000Y-190198000D01*
X107260000Y-179798000D02*
X116260000Y-179798000D01*
X107260000Y-190248000D02*
X116260000Y-190248000D01*
X113560000Y-185798000D02*
G75*
G03X113560000Y-185798000I-1800000J0D01*
G01*
X111760000Y-192278000D02*
X111760000Y-190248000D01*
X110593810Y-178030000D02*
X112926190Y-178030000D01*
X113260000Y-176530000D02*
G75*
G03X113260000Y-176530000I-1500000J0D01*
G01*
X112925476Y-178030555D02*
G75*
G03X110593810Y-178030000I-1165476J1500555D01*
G01*
X114692000Y-141208000D02*
X105192000Y-141208000D01*
X105192000Y-141208000D02*
X105192000Y-152558000D01*
X105192000Y-152558000D02*
X114692000Y-152558000D01*
X114692000Y-152558000D02*
X114692000Y-141208000D01*
X101230000Y-128635000D02*
X91730000Y-128635000D01*
X91730000Y-128635000D02*
X91730000Y-139985000D01*
X91730000Y-139985000D02*
X101230000Y-139985000D01*
X101230000Y-139985000D02*
X101230000Y-128635000D01*
X87768000Y-116062000D02*
X78268000Y-116062000D01*
X78268000Y-116062000D02*
X78268000Y-127412000D01*
X78268000Y-127412000D02*
X87768000Y-127412000D01*
X87768000Y-127412000D02*
X87768000Y-116062000D01*
X85780000Y-179798000D02*
X85780000Y-190198000D01*
X76780000Y-179798000D02*
X76780000Y-190198000D01*
X76780000Y-179798000D02*
X85780000Y-179798000D01*
X76780000Y-190248000D02*
X85780000Y-190248000D01*
X83080000Y-185798000D02*
G75*
G03X83080000Y-185798000I-1800000J0D01*
G01*
X81280000Y-192278000D02*
X81280000Y-190248000D01*
X101600000Y-192278000D02*
X101600000Y-190248000D01*
X103400000Y-185798000D02*
G75*
G03X103400000Y-185798000I-1800000J0D01*
G01*
X97100000Y-190248000D02*
X106100000Y-190248000D01*
X97100000Y-179798000D02*
X106100000Y-179798000D01*
X97100000Y-179798000D02*
X97100000Y-190198000D01*
X106100000Y-179798000D02*
X106100000Y-190198000D01*
X95940000Y-179798000D02*
X95940000Y-190198000D01*
X86940000Y-179798000D02*
X86940000Y-190198000D01*
X86940000Y-179798000D02*
X95940000Y-179798000D01*
X86940000Y-190248000D02*
X95940000Y-190248000D01*
X93240000Y-185798000D02*
G75*
G03X93240000Y-185798000I-1800000J0D01*
G01*
X91440000Y-192278000D02*
X91440000Y-190248000D01*
X83058000Y-172212000D02*
X83058000Y-170182000D01*
X84858000Y-165732000D02*
G75*
G03X84858000Y-165732000I-1800000J0D01*
G01*
X78558000Y-170182000D02*
X87558000Y-170182000D01*
X78558000Y-159732000D02*
X87558000Y-159732000D01*
X78558000Y-159732000D02*
X78558000Y-170132000D01*
X87558000Y-159732000D02*
X87558000Y-170132000D01*
X92020000Y-109635000D02*
X92020000Y-99235000D01*
X101020000Y-109635000D02*
X101020000Y-99235000D01*
X101020000Y-109635000D02*
X92020000Y-109635000D01*
X101020000Y-99185000D02*
X92020000Y-99185000D01*
X98320000Y-103635000D02*
G75*
G03X98320000Y-103635000I-1800000J0D01*
G01*
X96520000Y-97155000D02*
X96520000Y-99185000D01*
X78558000Y-109635000D02*
X78558000Y-99235000D01*
X87558000Y-109635000D02*
X87558000Y-99235000D01*
X87558000Y-109635000D02*
X78558000Y-109635000D01*
X87558000Y-99185000D02*
X78558000Y-99185000D01*
X84858000Y-103635000D02*
G75*
G03X84858000Y-103635000I-1800000J0D01*
G01*
X83058000Y-97155000D02*
X83058000Y-99185000D01*
X105675000Y-196720000D02*
X105675000Y-199520000D01*
X105675000Y-199520000D02*
X103875000Y-199520000D01*
X103875000Y-199520000D02*
X103875000Y-196720000D01*
X103875000Y-196720000D02*
X105675000Y-196720000D01*
X104775000Y-197370000D02*
X104775000Y-197770000D01*
X104775000Y-197770000D02*
X105325000Y-197770000D01*
X104775000Y-197770000D02*
X104225000Y-197770000D01*
X104775000Y-197770000D02*
X105175000Y-198370000D01*
X105175000Y-198370000D02*
X104375000Y-198370000D01*
X104375000Y-198370000D02*
X104775000Y-197770000D01*
X104775000Y-198370000D02*
X104775000Y-198870000D01*
X87365000Y-199520000D02*
X87365000Y-196720000D01*
X87365000Y-196720000D02*
X89165000Y-196720000D01*
X89165000Y-196720000D02*
X89165000Y-199520000D01*
X89165000Y-199520000D02*
X87365000Y-199520000D01*
X88265000Y-198870000D02*
X88265000Y-198470000D01*
X88265000Y-198470000D02*
X87715000Y-198470000D01*
X88265000Y-198470000D02*
X88815000Y-198470000D01*
X88265000Y-198470000D02*
X87865000Y-197870000D01*
X87865000Y-197870000D02*
X88665000Y-197870000D01*
X88665000Y-197870000D02*
X88265000Y-198470000D01*
X88265000Y-197870000D02*
X88265000Y-197370000D01*
X80113810Y-178284000D02*
X82446190Y-178284000D01*
X82780000Y-176784000D02*
G75*
G03X82780000Y-176784000I-1500000J0D01*
G01*
X82445476Y-178284555D02*
G75*
G03X80113810Y-178284000I-1165476J1500555D01*
G01*
X102765476Y-178284555D02*
G75*
G03X100433810Y-178284000I-1165476J1500555D01*
G01*
X103100000Y-176784000D02*
G75*
G03X103100000Y-176784000I-1500000J0D01*
G01*
X100433810Y-178284000D02*
X102766190Y-178284000D01*
X90273810Y-178284000D02*
X92606190Y-178284000D01*
X92940000Y-176784000D02*
G75*
G03X92940000Y-176784000I-1500000J0D01*
G01*
X92605476Y-178284555D02*
G75*
G03X90273810Y-178284000I-1165476J1500555D01*
G01*
X111305000Y-196336044D02*
X110805000Y-196336044D01*
X111055000Y-196086044D02*
X111055000Y-196586044D01*
X108205000Y-195470000D02*
X107205000Y-196470000D01*
X111505000Y-195470000D02*
X112505000Y-196470000D01*
X111505000Y-195470000D02*
X108205000Y-195470000D01*
X107205000Y-196470000D02*
X107205000Y-200770000D01*
X112505000Y-196470000D02*
X112505000Y-200770000D01*
X112505000Y-200770000D02*
X107205000Y-200770000D01*
X112355000Y-198120000D02*
G75*
G03X112355000Y-198120000I-2500000J0D01*
G01*
X81735000Y-199903956D02*
X82235000Y-199903956D01*
X81985000Y-200153956D02*
X81985000Y-199653956D01*
X84835000Y-200770000D02*
X85835000Y-199770000D01*
X81535000Y-200770000D02*
X80535000Y-199770000D01*
X81535000Y-200770000D02*
X84835000Y-200770000D01*
X85835000Y-199770000D02*
X85835000Y-195470000D01*
X80535000Y-199770000D02*
X80535000Y-195470000D01*
X80535000Y-195470000D02*
X85835000Y-195470000D01*
X85685000Y-198120000D02*
G75*
G03X85685000Y-198120000I-2500000J0D01*
G01*
D11*
X108982000Y-102607380D02*
X108982000Y-101607380D01*
X109458190Y-102607380D02*
X109458190Y-101607380D01*
X110029619Y-102607380D01*
X110029619Y-101607380D01*
X110410571Y-101607380D02*
X111029619Y-101607380D01*
X110696285Y-101988333D01*
X110839142Y-101988333D01*
X110934380Y-102035952D01*
X110982000Y-102083571D01*
X111029619Y-102178809D01*
X111029619Y-102416904D01*
X110982000Y-102512142D01*
X110934380Y-102559761D01*
X110839142Y-102607380D01*
X110553428Y-102607380D01*
X110458190Y-102559761D01*
X110410571Y-102512142D01*
X109648666Y-104607380D02*
X109648666Y-105321666D01*
X109601047Y-105464523D01*
X109505809Y-105559761D01*
X109362952Y-105607380D01*
X109267714Y-105607380D01*
X110029619Y-104607380D02*
X110648666Y-104607380D01*
X110315333Y-104988333D01*
X110458190Y-104988333D01*
X110553428Y-105035952D01*
X110601047Y-105083571D01*
X110648666Y-105178809D01*
X110648666Y-105416904D01*
X110601047Y-105512142D01*
X110553428Y-105559761D01*
X110458190Y-105607380D01*
X110172476Y-105607380D01*
X110077238Y-105559761D01*
X110029619Y-105512142D01*
X109775666Y-163664380D02*
X109775666Y-164378666D01*
X109728047Y-164521523D01*
X109632809Y-164616761D01*
X109489952Y-164664380D01*
X109394714Y-164664380D01*
X110680428Y-163664380D02*
X110489952Y-163664380D01*
X110394714Y-163712000D01*
X110347095Y-163759619D01*
X110251857Y-163902476D01*
X110204238Y-164092952D01*
X110204238Y-164473904D01*
X110251857Y-164569142D01*
X110299476Y-164616761D01*
X110394714Y-164664380D01*
X110585190Y-164664380D01*
X110680428Y-164616761D01*
X110728047Y-164569142D01*
X110775666Y-164473904D01*
X110775666Y-164235809D01*
X110728047Y-164140571D01*
X110680428Y-164092952D01*
X110585190Y-164045333D01*
X110394714Y-164045333D01*
X110299476Y-164092952D01*
X110251857Y-164140571D01*
X110204238Y-164235809D01*
X96186666Y-163664380D02*
X96186666Y-164378666D01*
X96139047Y-164521523D01*
X96043809Y-164616761D01*
X95900952Y-164664380D01*
X95805714Y-164664380D01*
X97139047Y-163664380D02*
X96662857Y-163664380D01*
X96615238Y-164140571D01*
X96662857Y-164092952D01*
X96758095Y-164045333D01*
X96996190Y-164045333D01*
X97091428Y-164092952D01*
X97139047Y-164140571D01*
X97186666Y-164235809D01*
X97186666Y-164473904D01*
X97139047Y-164569142D01*
X97091428Y-164616761D01*
X96996190Y-164664380D01*
X96758095Y-164664380D01*
X96662857Y-164616761D01*
X96615238Y-164569142D01*
X110950476Y-183730380D02*
X110950476Y-184444666D01*
X110902857Y-184587523D01*
X110807619Y-184682761D01*
X110664761Y-184730380D01*
X110569523Y-184730380D01*
X111950476Y-184730380D02*
X111379047Y-184730380D01*
X111664761Y-184730380D02*
X111664761Y-183730380D01*
X111569523Y-183873238D01*
X111474285Y-183968476D01*
X111379047Y-184016095D01*
X112902857Y-184730380D02*
X112331428Y-184730380D01*
X112617142Y-184730380D02*
X112617142Y-183730380D01*
X112521904Y-183873238D01*
X112426666Y-183968476D01*
X112331428Y-184016095D01*
X115172380Y-181220476D02*
X115172380Y-181696666D01*
X114172380Y-181696666D01*
X114648571Y-180887142D02*
X114648571Y-180553809D01*
X115172380Y-180410952D02*
X115172380Y-180887142D01*
X114172380Y-180887142D01*
X114172380Y-180410952D01*
X115172380Y-179982380D02*
X114172380Y-179982380D01*
X114172380Y-179744285D01*
X114220000Y-179601428D01*
X114315238Y-179506190D01*
X114410476Y-179458571D01*
X114600952Y-179410952D01*
X114743809Y-179410952D01*
X114934285Y-179458571D01*
X115029523Y-179506190D01*
X115124761Y-179601428D01*
X115172380Y-179744285D01*
X115172380Y-179982380D01*
X115267619Y-179220476D02*
X115267619Y-178458571D01*
X115172380Y-178220476D02*
X114172380Y-178220476D01*
X114172380Y-177982380D01*
X114220000Y-177839523D01*
X114315238Y-177744285D01*
X114410476Y-177696666D01*
X114600952Y-177649047D01*
X114743809Y-177649047D01*
X114934285Y-177696666D01*
X115029523Y-177744285D01*
X115124761Y-177839523D01*
X115172380Y-177982380D01*
X115172380Y-178220476D01*
X114505714Y-176791904D02*
X115172380Y-176791904D01*
X114505714Y-177220476D02*
X115029523Y-177220476D01*
X115124761Y-177172857D01*
X115172380Y-177077619D01*
X115172380Y-176934761D01*
X115124761Y-176839523D01*
X115077142Y-176791904D01*
X115172380Y-175887142D02*
X114648571Y-175887142D01*
X114553333Y-175934761D01*
X114505714Y-176030000D01*
X114505714Y-176220476D01*
X114553333Y-176315714D01*
X115124761Y-175887142D02*
X115172380Y-175982380D01*
X115172380Y-176220476D01*
X115124761Y-176315714D01*
X115029523Y-176363333D01*
X114934285Y-176363333D01*
X114839047Y-176315714D01*
X114791428Y-176220476D01*
X114791428Y-175982380D01*
X114743809Y-175887142D01*
X115172380Y-175268095D02*
X115124761Y-175363333D01*
X115029523Y-175410952D01*
X114172380Y-175410952D01*
X115267619Y-175125238D02*
X115267619Y-174363333D01*
X114267619Y-174172857D02*
X114220000Y-174125238D01*
X114172380Y-174030000D01*
X114172380Y-173791904D01*
X114220000Y-173696666D01*
X114267619Y-173649047D01*
X114362857Y-173601428D01*
X114458095Y-173601428D01*
X114600952Y-173649047D01*
X115172380Y-174220476D01*
X115172380Y-173601428D01*
X114505714Y-173172857D02*
X115505714Y-173172857D01*
X114553333Y-173172857D02*
X114505714Y-173077619D01*
X114505714Y-172887142D01*
X114553333Y-172791904D01*
X114600952Y-172744285D01*
X114696190Y-172696666D01*
X114981904Y-172696666D01*
X115077142Y-172744285D01*
X115124761Y-172791904D01*
X115172380Y-172887142D01*
X115172380Y-173077619D01*
X115124761Y-173172857D01*
X115172380Y-172268095D02*
X114505714Y-172268095D01*
X114172380Y-172268095D02*
X114220000Y-172315714D01*
X114267619Y-172268095D01*
X114220000Y-172220476D01*
X114172380Y-172268095D01*
X114267619Y-172268095D01*
X114505714Y-171791904D02*
X115172380Y-171791904D01*
X114600952Y-171791904D02*
X114553333Y-171744285D01*
X114505714Y-171649047D01*
X114505714Y-171506190D01*
X114553333Y-171410952D01*
X114648571Y-171363333D01*
X115172380Y-171363333D01*
X102220571Y-148115142D02*
X102268190Y-147972285D01*
X102315809Y-147924666D01*
X102411047Y-147877047D01*
X102553904Y-147877047D01*
X102649142Y-147924666D01*
X102696761Y-147972285D01*
X102744380Y-148067523D01*
X102744380Y-148448476D01*
X101744380Y-148448476D01*
X101744380Y-148115142D01*
X101792000Y-148019904D01*
X101839619Y-147972285D01*
X101934857Y-147924666D01*
X102030095Y-147924666D01*
X102125333Y-147972285D01*
X102172952Y-148019904D01*
X102220571Y-148115142D01*
X102220571Y-148448476D01*
X102744380Y-146924666D02*
X102744380Y-147496095D01*
X102744380Y-147210380D02*
X101744380Y-147210380D01*
X101887238Y-147305619D01*
X101982476Y-147400857D01*
X102030095Y-147496095D01*
X101744380Y-146305619D02*
X101744380Y-146210380D01*
X101792000Y-146115142D01*
X101839619Y-146067523D01*
X101934857Y-146019904D01*
X102125333Y-145972285D01*
X102363428Y-145972285D01*
X102553904Y-146019904D01*
X102649142Y-146067523D01*
X102696761Y-146115142D01*
X102744380Y-146210380D01*
X102744380Y-146305619D01*
X102696761Y-146400857D01*
X102649142Y-146448476D01*
X102553904Y-146496095D01*
X102363428Y-146543714D01*
X102125333Y-146543714D01*
X101934857Y-146496095D01*
X101839619Y-146448476D01*
X101792000Y-146400857D01*
X101744380Y-146305619D01*
X101744380Y-145353238D02*
X101744380Y-145258000D01*
X101792000Y-145162761D01*
X101839619Y-145115142D01*
X101934857Y-145067523D01*
X102125333Y-145019904D01*
X102363428Y-145019904D01*
X102553904Y-145067523D01*
X102649142Y-145115142D01*
X102696761Y-145162761D01*
X102744380Y-145258000D01*
X102744380Y-145353238D01*
X102696761Y-145448476D01*
X102649142Y-145496095D01*
X102553904Y-145543714D01*
X102363428Y-145591333D01*
X102125333Y-145591333D01*
X101934857Y-145543714D01*
X101839619Y-145496095D01*
X101792000Y-145448476D01*
X101744380Y-145353238D01*
X102744380Y-144591333D02*
X101744380Y-144591333D01*
X102744380Y-144019904D02*
X102172952Y-144448476D01*
X101744380Y-144019904D02*
X102315809Y-144591333D01*
X109346761Y-142660380D02*
X109013428Y-142184190D01*
X108775333Y-142660380D02*
X108775333Y-141660380D01*
X109156285Y-141660380D01*
X109251523Y-141708000D01*
X109299142Y-141755619D01*
X109346761Y-141850857D01*
X109346761Y-141993714D01*
X109299142Y-142088952D01*
X109251523Y-142136571D01*
X109156285Y-142184190D01*
X108775333Y-142184190D01*
X109632476Y-141660380D02*
X109965809Y-142660380D01*
X110299142Y-141660380D01*
X110537238Y-141660380D02*
X111156285Y-141660380D01*
X110822952Y-142041333D01*
X110965809Y-142041333D01*
X111061047Y-142088952D01*
X111108666Y-142136571D01*
X111156285Y-142231809D01*
X111156285Y-142469904D01*
X111108666Y-142565142D01*
X111061047Y-142612761D01*
X110965809Y-142660380D01*
X110680095Y-142660380D01*
X110584857Y-142612761D01*
X110537238Y-142565142D01*
X88758571Y-135542142D02*
X88806190Y-135399285D01*
X88853809Y-135351666D01*
X88949047Y-135304047D01*
X89091904Y-135304047D01*
X89187142Y-135351666D01*
X89234761Y-135399285D01*
X89282380Y-135494523D01*
X89282380Y-135875476D01*
X88282380Y-135875476D01*
X88282380Y-135542142D01*
X88330000Y-135446904D01*
X88377619Y-135399285D01*
X88472857Y-135351666D01*
X88568095Y-135351666D01*
X88663333Y-135399285D01*
X88710952Y-135446904D01*
X88758571Y-135542142D01*
X88758571Y-135875476D01*
X89282380Y-134351666D02*
X89282380Y-134923095D01*
X89282380Y-134637380D02*
X88282380Y-134637380D01*
X88425238Y-134732619D01*
X88520476Y-134827857D01*
X88568095Y-134923095D01*
X88282380Y-133732619D02*
X88282380Y-133637380D01*
X88330000Y-133542142D01*
X88377619Y-133494523D01*
X88472857Y-133446904D01*
X88663333Y-133399285D01*
X88901428Y-133399285D01*
X89091904Y-133446904D01*
X89187142Y-133494523D01*
X89234761Y-133542142D01*
X89282380Y-133637380D01*
X89282380Y-133732619D01*
X89234761Y-133827857D01*
X89187142Y-133875476D01*
X89091904Y-133923095D01*
X88901428Y-133970714D01*
X88663333Y-133970714D01*
X88472857Y-133923095D01*
X88377619Y-133875476D01*
X88330000Y-133827857D01*
X88282380Y-133732619D01*
X88282380Y-132780238D02*
X88282380Y-132685000D01*
X88330000Y-132589761D01*
X88377619Y-132542142D01*
X88472857Y-132494523D01*
X88663333Y-132446904D01*
X88901428Y-132446904D01*
X89091904Y-132494523D01*
X89187142Y-132542142D01*
X89234761Y-132589761D01*
X89282380Y-132685000D01*
X89282380Y-132780238D01*
X89234761Y-132875476D01*
X89187142Y-132923095D01*
X89091904Y-132970714D01*
X88901428Y-133018333D01*
X88663333Y-133018333D01*
X88472857Y-132970714D01*
X88377619Y-132923095D01*
X88330000Y-132875476D01*
X88282380Y-132780238D01*
X89282380Y-132018333D02*
X88282380Y-132018333D01*
X89282380Y-131446904D02*
X88710952Y-131875476D01*
X88282380Y-131446904D02*
X88853809Y-132018333D01*
X95884761Y-130087380D02*
X95551428Y-129611190D01*
X95313333Y-130087380D02*
X95313333Y-129087380D01*
X95694285Y-129087380D01*
X95789523Y-129135000D01*
X95837142Y-129182619D01*
X95884761Y-129277857D01*
X95884761Y-129420714D01*
X95837142Y-129515952D01*
X95789523Y-129563571D01*
X95694285Y-129611190D01*
X95313333Y-129611190D01*
X96170476Y-129087380D02*
X96503809Y-130087380D01*
X96837142Y-129087380D01*
X97122857Y-129182619D02*
X97170476Y-129135000D01*
X97265714Y-129087380D01*
X97503809Y-129087380D01*
X97599047Y-129135000D01*
X97646666Y-129182619D01*
X97694285Y-129277857D01*
X97694285Y-129373095D01*
X97646666Y-129515952D01*
X97075238Y-130087380D01*
X97694285Y-130087380D01*
X75296571Y-122969142D02*
X75344190Y-122826285D01*
X75391809Y-122778666D01*
X75487047Y-122731047D01*
X75629904Y-122731047D01*
X75725142Y-122778666D01*
X75772761Y-122826285D01*
X75820380Y-122921523D01*
X75820380Y-123302476D01*
X74820380Y-123302476D01*
X74820380Y-122969142D01*
X74868000Y-122873904D01*
X74915619Y-122826285D01*
X75010857Y-122778666D01*
X75106095Y-122778666D01*
X75201333Y-122826285D01*
X75248952Y-122873904D01*
X75296571Y-122969142D01*
X75296571Y-123302476D01*
X75820380Y-121778666D02*
X75820380Y-122350095D01*
X75820380Y-122064380D02*
X74820380Y-122064380D01*
X74963238Y-122159619D01*
X75058476Y-122254857D01*
X75106095Y-122350095D01*
X74820380Y-121159619D02*
X74820380Y-121064380D01*
X74868000Y-120969142D01*
X74915619Y-120921523D01*
X75010857Y-120873904D01*
X75201333Y-120826285D01*
X75439428Y-120826285D01*
X75629904Y-120873904D01*
X75725142Y-120921523D01*
X75772761Y-120969142D01*
X75820380Y-121064380D01*
X75820380Y-121159619D01*
X75772761Y-121254857D01*
X75725142Y-121302476D01*
X75629904Y-121350095D01*
X75439428Y-121397714D01*
X75201333Y-121397714D01*
X75010857Y-121350095D01*
X74915619Y-121302476D01*
X74868000Y-121254857D01*
X74820380Y-121159619D01*
X74820380Y-120207238D02*
X74820380Y-120112000D01*
X74868000Y-120016761D01*
X74915619Y-119969142D01*
X75010857Y-119921523D01*
X75201333Y-119873904D01*
X75439428Y-119873904D01*
X75629904Y-119921523D01*
X75725142Y-119969142D01*
X75772761Y-120016761D01*
X75820380Y-120112000D01*
X75820380Y-120207238D01*
X75772761Y-120302476D01*
X75725142Y-120350095D01*
X75629904Y-120397714D01*
X75439428Y-120445333D01*
X75201333Y-120445333D01*
X75010857Y-120397714D01*
X74915619Y-120350095D01*
X74868000Y-120302476D01*
X74820380Y-120207238D01*
X75820380Y-119445333D02*
X74820380Y-119445333D01*
X75820380Y-118873904D02*
X75248952Y-119302476D01*
X74820380Y-118873904D02*
X75391809Y-119445333D01*
X82422761Y-117514380D02*
X82089428Y-117038190D01*
X81851333Y-117514380D02*
X81851333Y-116514380D01*
X82232285Y-116514380D01*
X82327523Y-116562000D01*
X82375142Y-116609619D01*
X82422761Y-116704857D01*
X82422761Y-116847714D01*
X82375142Y-116942952D01*
X82327523Y-116990571D01*
X82232285Y-117038190D01*
X81851333Y-117038190D01*
X82708476Y-116514380D02*
X83041809Y-117514380D01*
X83375142Y-116514380D01*
X84232285Y-117514380D02*
X83660857Y-117514380D01*
X83946571Y-117514380D02*
X83946571Y-116514380D01*
X83851333Y-116657238D01*
X83756095Y-116752476D01*
X83660857Y-116800095D01*
X80946666Y-183730380D02*
X80946666Y-184444666D01*
X80899047Y-184587523D01*
X80803809Y-184682761D01*
X80660952Y-184730380D01*
X80565714Y-184730380D01*
X81470476Y-184730380D02*
X81660952Y-184730380D01*
X81756190Y-184682761D01*
X81803809Y-184635142D01*
X81899047Y-184492285D01*
X81946666Y-184301809D01*
X81946666Y-183920857D01*
X81899047Y-183825619D01*
X81851428Y-183778000D01*
X81756190Y-183730380D01*
X81565714Y-183730380D01*
X81470476Y-183778000D01*
X81422857Y-183825619D01*
X81375238Y-183920857D01*
X81375238Y-184158952D01*
X81422857Y-184254190D01*
X81470476Y-184301809D01*
X81565714Y-184349428D01*
X81756190Y-184349428D01*
X81851428Y-184301809D01*
X81899047Y-184254190D01*
X81946666Y-184158952D01*
X101266666Y-183730380D02*
X101266666Y-184444666D01*
X101219047Y-184587523D01*
X101123809Y-184682761D01*
X100980952Y-184730380D01*
X100885714Y-184730380D01*
X101885714Y-184158952D02*
X101790476Y-184111333D01*
X101742857Y-184063714D01*
X101695238Y-183968476D01*
X101695238Y-183920857D01*
X101742857Y-183825619D01*
X101790476Y-183778000D01*
X101885714Y-183730380D01*
X102076190Y-183730380D01*
X102171428Y-183778000D01*
X102219047Y-183825619D01*
X102266666Y-183920857D01*
X102266666Y-183968476D01*
X102219047Y-184063714D01*
X102171428Y-184111333D01*
X102076190Y-184158952D01*
X101885714Y-184158952D01*
X101790476Y-184206571D01*
X101742857Y-184254190D01*
X101695238Y-184349428D01*
X101695238Y-184539904D01*
X101742857Y-184635142D01*
X101790476Y-184682761D01*
X101885714Y-184730380D01*
X102076190Y-184730380D01*
X102171428Y-184682761D01*
X102219047Y-184635142D01*
X102266666Y-184539904D01*
X102266666Y-184349428D01*
X102219047Y-184254190D01*
X102171428Y-184206571D01*
X102076190Y-184158952D01*
X91106666Y-183730380D02*
X91106666Y-184444666D01*
X91059047Y-184587523D01*
X90963809Y-184682761D01*
X90820952Y-184730380D01*
X90725714Y-184730380D01*
X91487619Y-183730380D02*
X92154285Y-183730380D01*
X91725714Y-184730380D01*
X82724666Y-163664380D02*
X82724666Y-164378666D01*
X82677047Y-164521523D01*
X82581809Y-164616761D01*
X82438952Y-164664380D01*
X82343714Y-164664380D01*
X83629428Y-163997714D02*
X83629428Y-164664380D01*
X83391333Y-163616761D02*
X83153238Y-164331047D01*
X83772285Y-164331047D01*
X95520000Y-102607380D02*
X95520000Y-101607380D01*
X95996190Y-102607380D02*
X95996190Y-101607380D01*
X96567619Y-102607380D01*
X96567619Y-101607380D01*
X96996190Y-101702619D02*
X97043809Y-101655000D01*
X97139047Y-101607380D01*
X97377142Y-101607380D01*
X97472380Y-101655000D01*
X97520000Y-101702619D01*
X97567619Y-101797857D01*
X97567619Y-101893095D01*
X97520000Y-102035952D01*
X96948571Y-102607380D01*
X97567619Y-102607380D01*
X96186666Y-104607380D02*
X96186666Y-105321666D01*
X96139047Y-105464523D01*
X96043809Y-105559761D01*
X95900952Y-105607380D01*
X95805714Y-105607380D01*
X96615238Y-104702619D02*
X96662857Y-104655000D01*
X96758095Y-104607380D01*
X96996190Y-104607380D01*
X97091428Y-104655000D01*
X97139047Y-104702619D01*
X97186666Y-104797857D01*
X97186666Y-104893095D01*
X97139047Y-105035952D01*
X96567619Y-105607380D01*
X97186666Y-105607380D01*
X82058000Y-102607380D02*
X82058000Y-101607380D01*
X82534190Y-102607380D02*
X82534190Y-101607380D01*
X83105619Y-102607380D01*
X83105619Y-101607380D01*
X84105619Y-102607380D02*
X83534190Y-102607380D01*
X83819904Y-102607380D02*
X83819904Y-101607380D01*
X83724666Y-101750238D01*
X83629428Y-101845476D01*
X83534190Y-101893095D01*
X82724666Y-104607380D02*
X82724666Y-105321666D01*
X82677047Y-105464523D01*
X82581809Y-105559761D01*
X82438952Y-105607380D01*
X82343714Y-105607380D01*
X83724666Y-105607380D02*
X83153238Y-105607380D01*
X83438952Y-105607380D02*
X83438952Y-104607380D01*
X83343714Y-104750238D01*
X83248476Y-104845476D01*
X83153238Y-104893095D01*
X103127380Y-200262857D02*
X103127380Y-200834285D01*
X103127380Y-200548571D02*
X102127380Y-200548571D01*
X102270238Y-200643809D01*
X102365476Y-200739047D01*
X102413095Y-200834285D01*
X103127380Y-199834285D02*
X102127380Y-199834285D01*
X103127380Y-199262857D01*
X102127380Y-199262857D01*
X102127380Y-198310476D02*
X102127380Y-198786666D01*
X102603571Y-198834285D01*
X102555952Y-198786666D01*
X102508333Y-198691428D01*
X102508333Y-198453333D01*
X102555952Y-198358095D01*
X102603571Y-198310476D01*
X102698809Y-198262857D01*
X102936904Y-198262857D01*
X103032142Y-198310476D01*
X103079761Y-198358095D01*
X103127380Y-198453333D01*
X103127380Y-198691428D01*
X103079761Y-198786666D01*
X103032142Y-198834285D01*
X102555952Y-197691428D02*
X102508333Y-197786666D01*
X102460714Y-197834285D01*
X102365476Y-197881904D01*
X102317857Y-197881904D01*
X102222619Y-197834285D01*
X102175000Y-197786666D01*
X102127380Y-197691428D01*
X102127380Y-197500952D01*
X102175000Y-197405714D01*
X102222619Y-197358095D01*
X102317857Y-197310476D01*
X102365476Y-197310476D01*
X102460714Y-197358095D01*
X102508333Y-197405714D01*
X102555952Y-197500952D01*
X102555952Y-197691428D01*
X102603571Y-197786666D01*
X102651190Y-197834285D01*
X102746428Y-197881904D01*
X102936904Y-197881904D01*
X103032142Y-197834285D01*
X103079761Y-197786666D01*
X103127380Y-197691428D01*
X103127380Y-197500952D01*
X103079761Y-197405714D01*
X103032142Y-197358095D01*
X102936904Y-197310476D01*
X102746428Y-197310476D01*
X102651190Y-197358095D01*
X102603571Y-197405714D01*
X102555952Y-197500952D01*
X103127380Y-196358095D02*
X103127380Y-196929523D01*
X103127380Y-196643809D02*
X102127380Y-196643809D01*
X102270238Y-196739047D01*
X102365476Y-196834285D01*
X102413095Y-196929523D01*
X103127380Y-195881904D02*
X103127380Y-195691428D01*
X103079761Y-195596190D01*
X103032142Y-195548571D01*
X102889285Y-195453333D01*
X102698809Y-195405714D01*
X102317857Y-195405714D01*
X102222619Y-195453333D01*
X102175000Y-195500952D01*
X102127380Y-195596190D01*
X102127380Y-195786666D01*
X102175000Y-195881904D01*
X102222619Y-195929523D01*
X102317857Y-195977142D01*
X102555952Y-195977142D01*
X102651190Y-195929523D01*
X102698809Y-195881904D01*
X102746428Y-195786666D01*
X102746428Y-195596190D01*
X102698809Y-195500952D01*
X102651190Y-195453333D01*
X102555952Y-195405714D01*
X107227380Y-199334285D02*
X106227380Y-199334285D01*
X106227380Y-199096190D01*
X106275000Y-198953333D01*
X106370238Y-198858095D01*
X106465476Y-198810476D01*
X106655952Y-198762857D01*
X106798809Y-198762857D01*
X106989285Y-198810476D01*
X107084523Y-198858095D01*
X107179761Y-198953333D01*
X107227380Y-199096190D01*
X107227380Y-199334285D01*
X107227380Y-197810476D02*
X107227380Y-198381904D01*
X107227380Y-198096190D02*
X106227380Y-198096190D01*
X106370238Y-198191428D01*
X106465476Y-198286666D01*
X106513095Y-198381904D01*
X106227380Y-197477142D02*
X106227380Y-196858095D01*
X106608333Y-197191428D01*
X106608333Y-197048571D01*
X106655952Y-196953333D01*
X106703571Y-196905714D01*
X106798809Y-196858095D01*
X107036904Y-196858095D01*
X107132142Y-196905714D01*
X107179761Y-196953333D01*
X107227380Y-197048571D01*
X107227380Y-197334285D01*
X107179761Y-197429523D01*
X107132142Y-197477142D01*
X90817380Y-200262857D02*
X90817380Y-200834285D01*
X90817380Y-200548571D02*
X89817380Y-200548571D01*
X89960238Y-200643809D01*
X90055476Y-200739047D01*
X90103095Y-200834285D01*
X90817380Y-199834285D02*
X89817380Y-199834285D01*
X90817380Y-199262857D01*
X89817380Y-199262857D01*
X89817380Y-198310476D02*
X89817380Y-198786666D01*
X90293571Y-198834285D01*
X90245952Y-198786666D01*
X90198333Y-198691428D01*
X90198333Y-198453333D01*
X90245952Y-198358095D01*
X90293571Y-198310476D01*
X90388809Y-198262857D01*
X90626904Y-198262857D01*
X90722142Y-198310476D01*
X90769761Y-198358095D01*
X90817380Y-198453333D01*
X90817380Y-198691428D01*
X90769761Y-198786666D01*
X90722142Y-198834285D01*
X90245952Y-197691428D02*
X90198333Y-197786666D01*
X90150714Y-197834285D01*
X90055476Y-197881904D01*
X90007857Y-197881904D01*
X89912619Y-197834285D01*
X89865000Y-197786666D01*
X89817380Y-197691428D01*
X89817380Y-197500952D01*
X89865000Y-197405714D01*
X89912619Y-197358095D01*
X90007857Y-197310476D01*
X90055476Y-197310476D01*
X90150714Y-197358095D01*
X90198333Y-197405714D01*
X90245952Y-197500952D01*
X90245952Y-197691428D01*
X90293571Y-197786666D01*
X90341190Y-197834285D01*
X90436428Y-197881904D01*
X90626904Y-197881904D01*
X90722142Y-197834285D01*
X90769761Y-197786666D01*
X90817380Y-197691428D01*
X90817380Y-197500952D01*
X90769761Y-197405714D01*
X90722142Y-197358095D01*
X90626904Y-197310476D01*
X90436428Y-197310476D01*
X90341190Y-197358095D01*
X90293571Y-197405714D01*
X90245952Y-197500952D01*
X90817380Y-196358095D02*
X90817380Y-196929523D01*
X90817380Y-196643809D02*
X89817380Y-196643809D01*
X89960238Y-196739047D01*
X90055476Y-196834285D01*
X90103095Y-196929523D01*
X90817380Y-195881904D02*
X90817380Y-195691428D01*
X90769761Y-195596190D01*
X90722142Y-195548571D01*
X90579285Y-195453333D01*
X90388809Y-195405714D01*
X90007857Y-195405714D01*
X89912619Y-195453333D01*
X89865000Y-195500952D01*
X89817380Y-195596190D01*
X89817380Y-195786666D01*
X89865000Y-195881904D01*
X89912619Y-195929523D01*
X90007857Y-195977142D01*
X90245952Y-195977142D01*
X90341190Y-195929523D01*
X90388809Y-195881904D01*
X90436428Y-195786666D01*
X90436428Y-195596190D01*
X90388809Y-195500952D01*
X90341190Y-195453333D01*
X90245952Y-195405714D01*
X86717380Y-199334285D02*
X85717380Y-199334285D01*
X85717380Y-199096190D01*
X85765000Y-198953333D01*
X85860238Y-198858095D01*
X85955476Y-198810476D01*
X86145952Y-198762857D01*
X86288809Y-198762857D01*
X86479285Y-198810476D01*
X86574523Y-198858095D01*
X86669761Y-198953333D01*
X86717380Y-199096190D01*
X86717380Y-199334285D01*
X86717380Y-197810476D02*
X86717380Y-198381904D01*
X86717380Y-198096190D02*
X85717380Y-198096190D01*
X85860238Y-198191428D01*
X85955476Y-198286666D01*
X86003095Y-198381904D01*
X85812619Y-197429523D02*
X85765000Y-197381904D01*
X85717380Y-197286666D01*
X85717380Y-197048571D01*
X85765000Y-196953333D01*
X85812619Y-196905714D01*
X85907857Y-196858095D01*
X86003095Y-196858095D01*
X86145952Y-196905714D01*
X86717380Y-197477142D01*
X86717380Y-196858095D01*
X84692380Y-181474476D02*
X84692380Y-181950666D01*
X83692380Y-181950666D01*
X84168571Y-181141142D02*
X84168571Y-180807809D01*
X84692380Y-180664952D02*
X84692380Y-181141142D01*
X83692380Y-181141142D01*
X83692380Y-180664952D01*
X84692380Y-180236380D02*
X83692380Y-180236380D01*
X83692380Y-179998285D01*
X83740000Y-179855428D01*
X83835238Y-179760190D01*
X83930476Y-179712571D01*
X84120952Y-179664952D01*
X84263809Y-179664952D01*
X84454285Y-179712571D01*
X84549523Y-179760190D01*
X84644761Y-179855428D01*
X84692380Y-179998285D01*
X84692380Y-180236380D01*
X84787619Y-179474476D02*
X84787619Y-178712571D01*
X84692380Y-178474476D02*
X83692380Y-178474476D01*
X83692380Y-178236380D01*
X83740000Y-178093523D01*
X83835238Y-177998285D01*
X83930476Y-177950666D01*
X84120952Y-177903047D01*
X84263809Y-177903047D01*
X84454285Y-177950666D01*
X84549523Y-177998285D01*
X84644761Y-178093523D01*
X84692380Y-178236380D01*
X84692380Y-178474476D01*
X84025714Y-177045904D02*
X84692380Y-177045904D01*
X84025714Y-177474476D02*
X84549523Y-177474476D01*
X84644761Y-177426857D01*
X84692380Y-177331619D01*
X84692380Y-177188761D01*
X84644761Y-177093523D01*
X84597142Y-177045904D01*
X84692380Y-176141142D02*
X84168571Y-176141142D01*
X84073333Y-176188761D01*
X84025714Y-176284000D01*
X84025714Y-176474476D01*
X84073333Y-176569714D01*
X84644761Y-176141142D02*
X84692380Y-176236380D01*
X84692380Y-176474476D01*
X84644761Y-176569714D01*
X84549523Y-176617333D01*
X84454285Y-176617333D01*
X84359047Y-176569714D01*
X84311428Y-176474476D01*
X84311428Y-176236380D01*
X84263809Y-176141142D01*
X84692380Y-175522095D02*
X84644761Y-175617333D01*
X84549523Y-175664952D01*
X83692380Y-175664952D01*
X84787619Y-175379238D02*
X84787619Y-174617333D01*
X83787619Y-174426857D02*
X83740000Y-174379238D01*
X83692380Y-174284000D01*
X83692380Y-174045904D01*
X83740000Y-173950666D01*
X83787619Y-173903047D01*
X83882857Y-173855428D01*
X83978095Y-173855428D01*
X84120952Y-173903047D01*
X84692380Y-174474476D01*
X84692380Y-173855428D01*
X84025714Y-173426857D02*
X85025714Y-173426857D01*
X84073333Y-173426857D02*
X84025714Y-173331619D01*
X84025714Y-173141142D01*
X84073333Y-173045904D01*
X84120952Y-172998285D01*
X84216190Y-172950666D01*
X84501904Y-172950666D01*
X84597142Y-172998285D01*
X84644761Y-173045904D01*
X84692380Y-173141142D01*
X84692380Y-173331619D01*
X84644761Y-173426857D01*
X84692380Y-172522095D02*
X84025714Y-172522095D01*
X83692380Y-172522095D02*
X83740000Y-172569714D01*
X83787619Y-172522095D01*
X83740000Y-172474476D01*
X83692380Y-172522095D01*
X83787619Y-172522095D01*
X84025714Y-172045904D02*
X84692380Y-172045904D01*
X84120952Y-172045904D02*
X84073333Y-171998285D01*
X84025714Y-171903047D01*
X84025714Y-171760190D01*
X84073333Y-171664952D01*
X84168571Y-171617333D01*
X84692380Y-171617333D01*
X105012380Y-181474476D02*
X105012380Y-181950666D01*
X104012380Y-181950666D01*
X104488571Y-181141142D02*
X104488571Y-180807809D01*
X105012380Y-180664952D02*
X105012380Y-181141142D01*
X104012380Y-181141142D01*
X104012380Y-180664952D01*
X105012380Y-180236380D02*
X104012380Y-180236380D01*
X104012380Y-179998285D01*
X104060000Y-179855428D01*
X104155238Y-179760190D01*
X104250476Y-179712571D01*
X104440952Y-179664952D01*
X104583809Y-179664952D01*
X104774285Y-179712571D01*
X104869523Y-179760190D01*
X104964761Y-179855428D01*
X105012380Y-179998285D01*
X105012380Y-180236380D01*
X105107619Y-179474476D02*
X105107619Y-178712571D01*
X105012380Y-178474476D02*
X104012380Y-178474476D01*
X104012380Y-178236380D01*
X104060000Y-178093523D01*
X104155238Y-177998285D01*
X104250476Y-177950666D01*
X104440952Y-177903047D01*
X104583809Y-177903047D01*
X104774285Y-177950666D01*
X104869523Y-177998285D01*
X104964761Y-178093523D01*
X105012380Y-178236380D01*
X105012380Y-178474476D01*
X104345714Y-177045904D02*
X105012380Y-177045904D01*
X104345714Y-177474476D02*
X104869523Y-177474476D01*
X104964761Y-177426857D01*
X105012380Y-177331619D01*
X105012380Y-177188761D01*
X104964761Y-177093523D01*
X104917142Y-177045904D01*
X105012380Y-176141142D02*
X104488571Y-176141142D01*
X104393333Y-176188761D01*
X104345714Y-176284000D01*
X104345714Y-176474476D01*
X104393333Y-176569714D01*
X104964761Y-176141142D02*
X105012380Y-176236380D01*
X105012380Y-176474476D01*
X104964761Y-176569714D01*
X104869523Y-176617333D01*
X104774285Y-176617333D01*
X104679047Y-176569714D01*
X104631428Y-176474476D01*
X104631428Y-176236380D01*
X104583809Y-176141142D01*
X105012380Y-175522095D02*
X104964761Y-175617333D01*
X104869523Y-175664952D01*
X104012380Y-175664952D01*
X105107619Y-175379238D02*
X105107619Y-174617333D01*
X104107619Y-174426857D02*
X104060000Y-174379238D01*
X104012380Y-174284000D01*
X104012380Y-174045904D01*
X104060000Y-173950666D01*
X104107619Y-173903047D01*
X104202857Y-173855428D01*
X104298095Y-173855428D01*
X104440952Y-173903047D01*
X105012380Y-174474476D01*
X105012380Y-173855428D01*
X104345714Y-173426857D02*
X105345714Y-173426857D01*
X104393333Y-173426857D02*
X104345714Y-173331619D01*
X104345714Y-173141142D01*
X104393333Y-173045904D01*
X104440952Y-172998285D01*
X104536190Y-172950666D01*
X104821904Y-172950666D01*
X104917142Y-172998285D01*
X104964761Y-173045904D01*
X105012380Y-173141142D01*
X105012380Y-173331619D01*
X104964761Y-173426857D01*
X105012380Y-172522095D02*
X104345714Y-172522095D01*
X104012380Y-172522095D02*
X104060000Y-172569714D01*
X104107619Y-172522095D01*
X104060000Y-172474476D01*
X104012380Y-172522095D01*
X104107619Y-172522095D01*
X104345714Y-172045904D02*
X105012380Y-172045904D01*
X104440952Y-172045904D02*
X104393333Y-171998285D01*
X104345714Y-171903047D01*
X104345714Y-171760190D01*
X104393333Y-171664952D01*
X104488571Y-171617333D01*
X105012380Y-171617333D01*
X94852380Y-181474476D02*
X94852380Y-181950666D01*
X93852380Y-181950666D01*
X94328571Y-181141142D02*
X94328571Y-180807809D01*
X94852380Y-180664952D02*
X94852380Y-181141142D01*
X93852380Y-181141142D01*
X93852380Y-180664952D01*
X94852380Y-180236380D02*
X93852380Y-180236380D01*
X93852380Y-179998285D01*
X93900000Y-179855428D01*
X93995238Y-179760190D01*
X94090476Y-179712571D01*
X94280952Y-179664952D01*
X94423809Y-179664952D01*
X94614285Y-179712571D01*
X94709523Y-179760190D01*
X94804761Y-179855428D01*
X94852380Y-179998285D01*
X94852380Y-180236380D01*
X94947619Y-179474476D02*
X94947619Y-178712571D01*
X94852380Y-178474476D02*
X93852380Y-178474476D01*
X93852380Y-178236380D01*
X93900000Y-178093523D01*
X93995238Y-177998285D01*
X94090476Y-177950666D01*
X94280952Y-177903047D01*
X94423809Y-177903047D01*
X94614285Y-177950666D01*
X94709523Y-177998285D01*
X94804761Y-178093523D01*
X94852380Y-178236380D01*
X94852380Y-178474476D01*
X94185714Y-177045904D02*
X94852380Y-177045904D01*
X94185714Y-177474476D02*
X94709523Y-177474476D01*
X94804761Y-177426857D01*
X94852380Y-177331619D01*
X94852380Y-177188761D01*
X94804761Y-177093523D01*
X94757142Y-177045904D01*
X94852380Y-176141142D02*
X94328571Y-176141142D01*
X94233333Y-176188761D01*
X94185714Y-176284000D01*
X94185714Y-176474476D01*
X94233333Y-176569714D01*
X94804761Y-176141142D02*
X94852380Y-176236380D01*
X94852380Y-176474476D01*
X94804761Y-176569714D01*
X94709523Y-176617333D01*
X94614285Y-176617333D01*
X94519047Y-176569714D01*
X94471428Y-176474476D01*
X94471428Y-176236380D01*
X94423809Y-176141142D01*
X94852380Y-175522095D02*
X94804761Y-175617333D01*
X94709523Y-175664952D01*
X93852380Y-175664952D01*
X94947619Y-175379238D02*
X94947619Y-174617333D01*
X93947619Y-174426857D02*
X93900000Y-174379238D01*
X93852380Y-174284000D01*
X93852380Y-174045904D01*
X93900000Y-173950666D01*
X93947619Y-173903047D01*
X94042857Y-173855428D01*
X94138095Y-173855428D01*
X94280952Y-173903047D01*
X94852380Y-174474476D01*
X94852380Y-173855428D01*
X94185714Y-173426857D02*
X95185714Y-173426857D01*
X94233333Y-173426857D02*
X94185714Y-173331619D01*
X94185714Y-173141142D01*
X94233333Y-173045904D01*
X94280952Y-172998285D01*
X94376190Y-172950666D01*
X94661904Y-172950666D01*
X94757142Y-172998285D01*
X94804761Y-173045904D01*
X94852380Y-173141142D01*
X94852380Y-173331619D01*
X94804761Y-173426857D01*
X94852380Y-172522095D02*
X94185714Y-172522095D01*
X93852380Y-172522095D02*
X93900000Y-172569714D01*
X93947619Y-172522095D01*
X93900000Y-172474476D01*
X93852380Y-172522095D01*
X93947619Y-172522095D01*
X94185714Y-172045904D02*
X94852380Y-172045904D01*
X94280952Y-172045904D02*
X94233333Y-171998285D01*
X94185714Y-171903047D01*
X94185714Y-171760190D01*
X94233333Y-171664952D01*
X94328571Y-171617333D01*
X94852380Y-171617333D01*
X106607380Y-199191428D02*
X106607380Y-199762857D01*
X106607380Y-199477142D02*
X105607380Y-199477142D01*
X105750238Y-199572380D01*
X105845476Y-199667619D01*
X105893095Y-199762857D01*
X105607380Y-198572380D02*
X105607380Y-198477142D01*
X105655000Y-198381904D01*
X105702619Y-198334285D01*
X105797857Y-198286666D01*
X105988333Y-198239047D01*
X106226428Y-198239047D01*
X106416904Y-198286666D01*
X106512142Y-198334285D01*
X106559761Y-198381904D01*
X106607380Y-198477142D01*
X106607380Y-198572380D01*
X106559761Y-198667619D01*
X106512142Y-198715238D01*
X106416904Y-198762857D01*
X106226428Y-198810476D01*
X105988333Y-198810476D01*
X105797857Y-198762857D01*
X105702619Y-198715238D01*
X105655000Y-198667619D01*
X105607380Y-198572380D01*
X105940714Y-197381904D02*
X106607380Y-197381904D01*
X105940714Y-197810476D02*
X106464523Y-197810476D01*
X106559761Y-197762857D01*
X106607380Y-197667619D01*
X106607380Y-197524761D01*
X106559761Y-197429523D01*
X106512142Y-197381904D01*
X106083571Y-196572380D02*
X106083571Y-196905714D01*
X106607380Y-196905714D02*
X105607380Y-196905714D01*
X105607380Y-196429523D01*
X110212142Y-198286666D02*
X110259761Y-198334285D01*
X110307380Y-198477142D01*
X110307380Y-198572380D01*
X110259761Y-198715238D01*
X110164523Y-198810476D01*
X110069285Y-198858095D01*
X109878809Y-198905714D01*
X109735952Y-198905714D01*
X109545476Y-198858095D01*
X109450238Y-198810476D01*
X109355000Y-198715238D01*
X109307380Y-198572380D01*
X109307380Y-198477142D01*
X109355000Y-198334285D01*
X109402619Y-198286666D01*
X109307380Y-197381904D02*
X109307380Y-197858095D01*
X109783571Y-197905714D01*
X109735952Y-197858095D01*
X109688333Y-197762857D01*
X109688333Y-197524761D01*
X109735952Y-197429523D01*
X109783571Y-197381904D01*
X109878809Y-197334285D01*
X110116904Y-197334285D01*
X110212142Y-197381904D01*
X110259761Y-197429523D01*
X110307380Y-197524761D01*
X110307380Y-197762857D01*
X110259761Y-197858095D01*
X110212142Y-197905714D01*
X87337380Y-199191428D02*
X87337380Y-199762857D01*
X87337380Y-199477142D02*
X86337380Y-199477142D01*
X86480238Y-199572380D01*
X86575476Y-199667619D01*
X86623095Y-199762857D01*
X86337380Y-198572380D02*
X86337380Y-198477142D01*
X86385000Y-198381904D01*
X86432619Y-198334285D01*
X86527857Y-198286666D01*
X86718333Y-198239047D01*
X86956428Y-198239047D01*
X87146904Y-198286666D01*
X87242142Y-198334285D01*
X87289761Y-198381904D01*
X87337380Y-198477142D01*
X87337380Y-198572380D01*
X87289761Y-198667619D01*
X87242142Y-198715238D01*
X87146904Y-198762857D01*
X86956428Y-198810476D01*
X86718333Y-198810476D01*
X86527857Y-198762857D01*
X86432619Y-198715238D01*
X86385000Y-198667619D01*
X86337380Y-198572380D01*
X86670714Y-197381904D02*
X87337380Y-197381904D01*
X86670714Y-197810476D02*
X87194523Y-197810476D01*
X87289761Y-197762857D01*
X87337380Y-197667619D01*
X87337380Y-197524761D01*
X87289761Y-197429523D01*
X87242142Y-197381904D01*
X86813571Y-196572380D02*
X86813571Y-196905714D01*
X87337380Y-196905714D02*
X86337380Y-196905714D01*
X86337380Y-196429523D01*
X83542142Y-198286666D02*
X83589761Y-198334285D01*
X83637380Y-198477142D01*
X83637380Y-198572380D01*
X83589761Y-198715238D01*
X83494523Y-198810476D01*
X83399285Y-198858095D01*
X83208809Y-198905714D01*
X83065952Y-198905714D01*
X82875476Y-198858095D01*
X82780238Y-198810476D01*
X82685000Y-198715238D01*
X82637380Y-198572380D01*
X82637380Y-198477142D01*
X82685000Y-198334285D01*
X82732619Y-198286666D01*
X82970714Y-197429523D02*
X83637380Y-197429523D01*
X82589761Y-197667619D02*
X83304047Y-197905714D01*
X83304047Y-197286666D01*
M02*
