G04 #@! TF.GenerationSoftware,KiCad,Pcbnew,(5.1.0)-1*
G04 #@! TF.CreationDate,2019-10-23T13:14:03-05:00*
G04 #@! TF.ProjectId,logiverter,6c6f6769-7665-4727-9465-722e6b696361,rev?*
G04 #@! TF.SameCoordinates,Original*
G04 #@! TF.FileFunction,Paste,Bot*
G04 #@! TF.FilePolarity,Positive*
%FSLAX46Y46*%
G04 Gerber Fmt 4.6, Leading zero omitted, Abs format (unit mm)*
G04 Created by KiCad (PCBNEW (5.1.0)-1) date 2019-10-23 13:14:03*
%MOMM*%
%LPD*%
G04 APERTURE LIST*
%ADD10R,1.000000X1.000000*%
%ADD11C,0.100000*%
%ADD12C,1.150000*%
%ADD13R,0.900000X1.200000*%
%ADD14R,0.800000X1.900000*%
%ADD15R,1.500000X0.600000*%
G04 APERTURE END LIST*
D10*
X84816000Y-157988000D03*
X82316000Y-157988000D03*
X97389000Y-157988000D03*
X94889000Y-157988000D03*
X84455000Y-165334000D03*
X84455000Y-162834000D03*
X88519000Y-165334000D03*
X88519000Y-162834000D03*
X86487000Y-165334000D03*
X86487000Y-162834000D03*
X94615000Y-162834000D03*
X94615000Y-165334000D03*
X90551000Y-162834000D03*
X90551000Y-165334000D03*
X92583000Y-162834000D03*
X92583000Y-165334000D03*
D11*
G36*
X105821005Y-105335204D02*
G01*
X105845273Y-105338804D01*
X105869072Y-105344765D01*
X105892171Y-105353030D01*
X105914350Y-105363520D01*
X105935393Y-105376132D01*
X105955099Y-105390747D01*
X105973277Y-105407223D01*
X105989753Y-105425401D01*
X106004368Y-105445107D01*
X106016980Y-105466150D01*
X106027470Y-105488329D01*
X106035735Y-105511428D01*
X106041696Y-105535227D01*
X106045296Y-105559495D01*
X106046500Y-105583999D01*
X106046500Y-106234001D01*
X106045296Y-106258505D01*
X106041696Y-106282773D01*
X106035735Y-106306572D01*
X106027470Y-106329671D01*
X106016980Y-106351850D01*
X106004368Y-106372893D01*
X105989753Y-106392599D01*
X105973277Y-106410777D01*
X105955099Y-106427253D01*
X105935393Y-106441868D01*
X105914350Y-106454480D01*
X105892171Y-106464970D01*
X105869072Y-106473235D01*
X105845273Y-106479196D01*
X105821005Y-106482796D01*
X105796501Y-106484000D01*
X104896499Y-106484000D01*
X104871995Y-106482796D01*
X104847727Y-106479196D01*
X104823928Y-106473235D01*
X104800829Y-106464970D01*
X104778650Y-106454480D01*
X104757607Y-106441868D01*
X104737901Y-106427253D01*
X104719723Y-106410777D01*
X104703247Y-106392599D01*
X104688632Y-106372893D01*
X104676020Y-106351850D01*
X104665530Y-106329671D01*
X104657265Y-106306572D01*
X104651304Y-106282773D01*
X104647704Y-106258505D01*
X104646500Y-106234001D01*
X104646500Y-105583999D01*
X104647704Y-105559495D01*
X104651304Y-105535227D01*
X104657265Y-105511428D01*
X104665530Y-105488329D01*
X104676020Y-105466150D01*
X104688632Y-105445107D01*
X104703247Y-105425401D01*
X104719723Y-105407223D01*
X104737901Y-105390747D01*
X104757607Y-105376132D01*
X104778650Y-105363520D01*
X104800829Y-105353030D01*
X104823928Y-105344765D01*
X104847727Y-105338804D01*
X104871995Y-105335204D01*
X104896499Y-105334000D01*
X105796501Y-105334000D01*
X105821005Y-105335204D01*
X105821005Y-105335204D01*
G37*
D12*
X105346500Y-105909000D03*
D11*
G36*
X105821005Y-107385204D02*
G01*
X105845273Y-107388804D01*
X105869072Y-107394765D01*
X105892171Y-107403030D01*
X105914350Y-107413520D01*
X105935393Y-107426132D01*
X105955099Y-107440747D01*
X105973277Y-107457223D01*
X105989753Y-107475401D01*
X106004368Y-107495107D01*
X106016980Y-107516150D01*
X106027470Y-107538329D01*
X106035735Y-107561428D01*
X106041696Y-107585227D01*
X106045296Y-107609495D01*
X106046500Y-107633999D01*
X106046500Y-108284001D01*
X106045296Y-108308505D01*
X106041696Y-108332773D01*
X106035735Y-108356572D01*
X106027470Y-108379671D01*
X106016980Y-108401850D01*
X106004368Y-108422893D01*
X105989753Y-108442599D01*
X105973277Y-108460777D01*
X105955099Y-108477253D01*
X105935393Y-108491868D01*
X105914350Y-108504480D01*
X105892171Y-108514970D01*
X105869072Y-108523235D01*
X105845273Y-108529196D01*
X105821005Y-108532796D01*
X105796501Y-108534000D01*
X104896499Y-108534000D01*
X104871995Y-108532796D01*
X104847727Y-108529196D01*
X104823928Y-108523235D01*
X104800829Y-108514970D01*
X104778650Y-108504480D01*
X104757607Y-108491868D01*
X104737901Y-108477253D01*
X104719723Y-108460777D01*
X104703247Y-108442599D01*
X104688632Y-108422893D01*
X104676020Y-108401850D01*
X104665530Y-108379671D01*
X104657265Y-108356572D01*
X104651304Y-108332773D01*
X104647704Y-108308505D01*
X104646500Y-108284001D01*
X104646500Y-107633999D01*
X104647704Y-107609495D01*
X104651304Y-107585227D01*
X104657265Y-107561428D01*
X104665530Y-107538329D01*
X104676020Y-107516150D01*
X104688632Y-107495107D01*
X104703247Y-107475401D01*
X104719723Y-107457223D01*
X104737901Y-107440747D01*
X104757607Y-107426132D01*
X104778650Y-107413520D01*
X104800829Y-107403030D01*
X104823928Y-107394765D01*
X104847727Y-107388804D01*
X104871995Y-107385204D01*
X104896499Y-107384000D01*
X105796501Y-107384000D01*
X105821005Y-107385204D01*
X105821005Y-107385204D01*
G37*
D12*
X105346500Y-107959000D03*
D11*
G36*
X110329505Y-104972204D02*
G01*
X110353773Y-104975804D01*
X110377572Y-104981765D01*
X110400671Y-104990030D01*
X110422850Y-105000520D01*
X110443893Y-105013132D01*
X110463599Y-105027747D01*
X110481777Y-105044223D01*
X110498253Y-105062401D01*
X110512868Y-105082107D01*
X110525480Y-105103150D01*
X110535970Y-105125329D01*
X110544235Y-105148428D01*
X110550196Y-105172227D01*
X110553796Y-105196495D01*
X110555000Y-105220999D01*
X110555000Y-105871001D01*
X110553796Y-105895505D01*
X110550196Y-105919773D01*
X110544235Y-105943572D01*
X110535970Y-105966671D01*
X110525480Y-105988850D01*
X110512868Y-106009893D01*
X110498253Y-106029599D01*
X110481777Y-106047777D01*
X110463599Y-106064253D01*
X110443893Y-106078868D01*
X110422850Y-106091480D01*
X110400671Y-106101970D01*
X110377572Y-106110235D01*
X110353773Y-106116196D01*
X110329505Y-106119796D01*
X110305001Y-106121000D01*
X109404999Y-106121000D01*
X109380495Y-106119796D01*
X109356227Y-106116196D01*
X109332428Y-106110235D01*
X109309329Y-106101970D01*
X109287150Y-106091480D01*
X109266107Y-106078868D01*
X109246401Y-106064253D01*
X109228223Y-106047777D01*
X109211747Y-106029599D01*
X109197132Y-106009893D01*
X109184520Y-105988850D01*
X109174030Y-105966671D01*
X109165765Y-105943572D01*
X109159804Y-105919773D01*
X109156204Y-105895505D01*
X109155000Y-105871001D01*
X109155000Y-105220999D01*
X109156204Y-105196495D01*
X109159804Y-105172227D01*
X109165765Y-105148428D01*
X109174030Y-105125329D01*
X109184520Y-105103150D01*
X109197132Y-105082107D01*
X109211747Y-105062401D01*
X109228223Y-105044223D01*
X109246401Y-105027747D01*
X109266107Y-105013132D01*
X109287150Y-105000520D01*
X109309329Y-104990030D01*
X109332428Y-104981765D01*
X109356227Y-104975804D01*
X109380495Y-104972204D01*
X109404999Y-104971000D01*
X110305001Y-104971000D01*
X110329505Y-104972204D01*
X110329505Y-104972204D01*
G37*
D12*
X109855000Y-105546000D03*
D11*
G36*
X110329505Y-102922204D02*
G01*
X110353773Y-102925804D01*
X110377572Y-102931765D01*
X110400671Y-102940030D01*
X110422850Y-102950520D01*
X110443893Y-102963132D01*
X110463599Y-102977747D01*
X110481777Y-102994223D01*
X110498253Y-103012401D01*
X110512868Y-103032107D01*
X110525480Y-103053150D01*
X110535970Y-103075329D01*
X110544235Y-103098428D01*
X110550196Y-103122227D01*
X110553796Y-103146495D01*
X110555000Y-103170999D01*
X110555000Y-103821001D01*
X110553796Y-103845505D01*
X110550196Y-103869773D01*
X110544235Y-103893572D01*
X110535970Y-103916671D01*
X110525480Y-103938850D01*
X110512868Y-103959893D01*
X110498253Y-103979599D01*
X110481777Y-103997777D01*
X110463599Y-104014253D01*
X110443893Y-104028868D01*
X110422850Y-104041480D01*
X110400671Y-104051970D01*
X110377572Y-104060235D01*
X110353773Y-104066196D01*
X110329505Y-104069796D01*
X110305001Y-104071000D01*
X109404999Y-104071000D01*
X109380495Y-104069796D01*
X109356227Y-104066196D01*
X109332428Y-104060235D01*
X109309329Y-104051970D01*
X109287150Y-104041480D01*
X109266107Y-104028868D01*
X109246401Y-104014253D01*
X109228223Y-103997777D01*
X109211747Y-103979599D01*
X109197132Y-103959893D01*
X109184520Y-103938850D01*
X109174030Y-103916671D01*
X109165765Y-103893572D01*
X109159804Y-103869773D01*
X109156204Y-103845505D01*
X109155000Y-103821001D01*
X109155000Y-103170999D01*
X109156204Y-103146495D01*
X109159804Y-103122227D01*
X109165765Y-103098428D01*
X109174030Y-103075329D01*
X109184520Y-103053150D01*
X109197132Y-103032107D01*
X109211747Y-103012401D01*
X109228223Y-102994223D01*
X109246401Y-102977747D01*
X109266107Y-102963132D01*
X109287150Y-102950520D01*
X109309329Y-102940030D01*
X109332428Y-102931765D01*
X109356227Y-102925804D01*
X109380495Y-102922204D01*
X109404999Y-102921000D01*
X110305001Y-102921000D01*
X110329505Y-102922204D01*
X110329505Y-102922204D01*
G37*
D12*
X109855000Y-103496000D03*
D11*
G36*
X110456505Y-142165204D02*
G01*
X110480773Y-142168804D01*
X110504572Y-142174765D01*
X110527671Y-142183030D01*
X110549850Y-142193520D01*
X110570893Y-142206132D01*
X110590599Y-142220747D01*
X110608777Y-142237223D01*
X110625253Y-142255401D01*
X110639868Y-142275107D01*
X110652480Y-142296150D01*
X110662970Y-142318329D01*
X110671235Y-142341428D01*
X110677196Y-142365227D01*
X110680796Y-142389495D01*
X110682000Y-142413999D01*
X110682000Y-143064001D01*
X110680796Y-143088505D01*
X110677196Y-143112773D01*
X110671235Y-143136572D01*
X110662970Y-143159671D01*
X110652480Y-143181850D01*
X110639868Y-143202893D01*
X110625253Y-143222599D01*
X110608777Y-143240777D01*
X110590599Y-143257253D01*
X110570893Y-143271868D01*
X110549850Y-143284480D01*
X110527671Y-143294970D01*
X110504572Y-143303235D01*
X110480773Y-143309196D01*
X110456505Y-143312796D01*
X110432001Y-143314000D01*
X109531999Y-143314000D01*
X109507495Y-143312796D01*
X109483227Y-143309196D01*
X109459428Y-143303235D01*
X109436329Y-143294970D01*
X109414150Y-143284480D01*
X109393107Y-143271868D01*
X109373401Y-143257253D01*
X109355223Y-143240777D01*
X109338747Y-143222599D01*
X109324132Y-143202893D01*
X109311520Y-143181850D01*
X109301030Y-143159671D01*
X109292765Y-143136572D01*
X109286804Y-143112773D01*
X109283204Y-143088505D01*
X109282000Y-143064001D01*
X109282000Y-142413999D01*
X109283204Y-142389495D01*
X109286804Y-142365227D01*
X109292765Y-142341428D01*
X109301030Y-142318329D01*
X109311520Y-142296150D01*
X109324132Y-142275107D01*
X109338747Y-142255401D01*
X109355223Y-142237223D01*
X109373401Y-142220747D01*
X109393107Y-142206132D01*
X109414150Y-142193520D01*
X109436329Y-142183030D01*
X109459428Y-142174765D01*
X109483227Y-142168804D01*
X109507495Y-142165204D01*
X109531999Y-142164000D01*
X110432001Y-142164000D01*
X110456505Y-142165204D01*
X110456505Y-142165204D01*
G37*
D12*
X109982000Y-142739000D03*
D11*
G36*
X110456505Y-144215204D02*
G01*
X110480773Y-144218804D01*
X110504572Y-144224765D01*
X110527671Y-144233030D01*
X110549850Y-144243520D01*
X110570893Y-144256132D01*
X110590599Y-144270747D01*
X110608777Y-144287223D01*
X110625253Y-144305401D01*
X110639868Y-144325107D01*
X110652480Y-144346150D01*
X110662970Y-144368329D01*
X110671235Y-144391428D01*
X110677196Y-144415227D01*
X110680796Y-144439495D01*
X110682000Y-144463999D01*
X110682000Y-145114001D01*
X110680796Y-145138505D01*
X110677196Y-145162773D01*
X110671235Y-145186572D01*
X110662970Y-145209671D01*
X110652480Y-145231850D01*
X110639868Y-145252893D01*
X110625253Y-145272599D01*
X110608777Y-145290777D01*
X110590599Y-145307253D01*
X110570893Y-145321868D01*
X110549850Y-145334480D01*
X110527671Y-145344970D01*
X110504572Y-145353235D01*
X110480773Y-145359196D01*
X110456505Y-145362796D01*
X110432001Y-145364000D01*
X109531999Y-145364000D01*
X109507495Y-145362796D01*
X109483227Y-145359196D01*
X109459428Y-145353235D01*
X109436329Y-145344970D01*
X109414150Y-145334480D01*
X109393107Y-145321868D01*
X109373401Y-145307253D01*
X109355223Y-145290777D01*
X109338747Y-145272599D01*
X109324132Y-145252893D01*
X109311520Y-145231850D01*
X109301030Y-145209671D01*
X109292765Y-145186572D01*
X109286804Y-145162773D01*
X109283204Y-145138505D01*
X109282000Y-145114001D01*
X109282000Y-144463999D01*
X109283204Y-144439495D01*
X109286804Y-144415227D01*
X109292765Y-144391428D01*
X109301030Y-144368329D01*
X109311520Y-144346150D01*
X109324132Y-144325107D01*
X109338747Y-144305401D01*
X109355223Y-144287223D01*
X109373401Y-144270747D01*
X109393107Y-144256132D01*
X109414150Y-144243520D01*
X109436329Y-144233030D01*
X109459428Y-144224765D01*
X109483227Y-144218804D01*
X109507495Y-144215204D01*
X109531999Y-144214000D01*
X110432001Y-144214000D01*
X110456505Y-144215204D01*
X110456505Y-144215204D01*
G37*
D12*
X109982000Y-144789000D03*
D11*
G36*
X108170505Y-102922204D02*
G01*
X108194773Y-102925804D01*
X108218572Y-102931765D01*
X108241671Y-102940030D01*
X108263850Y-102950520D01*
X108284893Y-102963132D01*
X108304599Y-102977747D01*
X108322777Y-102994223D01*
X108339253Y-103012401D01*
X108353868Y-103032107D01*
X108366480Y-103053150D01*
X108376970Y-103075329D01*
X108385235Y-103098428D01*
X108391196Y-103122227D01*
X108394796Y-103146495D01*
X108396000Y-103170999D01*
X108396000Y-103821001D01*
X108394796Y-103845505D01*
X108391196Y-103869773D01*
X108385235Y-103893572D01*
X108376970Y-103916671D01*
X108366480Y-103938850D01*
X108353868Y-103959893D01*
X108339253Y-103979599D01*
X108322777Y-103997777D01*
X108304599Y-104014253D01*
X108284893Y-104028868D01*
X108263850Y-104041480D01*
X108241671Y-104051970D01*
X108218572Y-104060235D01*
X108194773Y-104066196D01*
X108170505Y-104069796D01*
X108146001Y-104071000D01*
X107245999Y-104071000D01*
X107221495Y-104069796D01*
X107197227Y-104066196D01*
X107173428Y-104060235D01*
X107150329Y-104051970D01*
X107128150Y-104041480D01*
X107107107Y-104028868D01*
X107087401Y-104014253D01*
X107069223Y-103997777D01*
X107052747Y-103979599D01*
X107038132Y-103959893D01*
X107025520Y-103938850D01*
X107015030Y-103916671D01*
X107006765Y-103893572D01*
X107000804Y-103869773D01*
X106997204Y-103845505D01*
X106996000Y-103821001D01*
X106996000Y-103170999D01*
X106997204Y-103146495D01*
X107000804Y-103122227D01*
X107006765Y-103098428D01*
X107015030Y-103075329D01*
X107025520Y-103053150D01*
X107038132Y-103032107D01*
X107052747Y-103012401D01*
X107069223Y-102994223D01*
X107087401Y-102977747D01*
X107107107Y-102963132D01*
X107128150Y-102950520D01*
X107150329Y-102940030D01*
X107173428Y-102931765D01*
X107197227Y-102925804D01*
X107221495Y-102922204D01*
X107245999Y-102921000D01*
X108146001Y-102921000D01*
X108170505Y-102922204D01*
X108170505Y-102922204D01*
G37*
D12*
X107696000Y-103496000D03*
D11*
G36*
X108170505Y-104972204D02*
G01*
X108194773Y-104975804D01*
X108218572Y-104981765D01*
X108241671Y-104990030D01*
X108263850Y-105000520D01*
X108284893Y-105013132D01*
X108304599Y-105027747D01*
X108322777Y-105044223D01*
X108339253Y-105062401D01*
X108353868Y-105082107D01*
X108366480Y-105103150D01*
X108376970Y-105125329D01*
X108385235Y-105148428D01*
X108391196Y-105172227D01*
X108394796Y-105196495D01*
X108396000Y-105220999D01*
X108396000Y-105871001D01*
X108394796Y-105895505D01*
X108391196Y-105919773D01*
X108385235Y-105943572D01*
X108376970Y-105966671D01*
X108366480Y-105988850D01*
X108353868Y-106009893D01*
X108339253Y-106029599D01*
X108322777Y-106047777D01*
X108304599Y-106064253D01*
X108284893Y-106078868D01*
X108263850Y-106091480D01*
X108241671Y-106101970D01*
X108218572Y-106110235D01*
X108194773Y-106116196D01*
X108170505Y-106119796D01*
X108146001Y-106121000D01*
X107245999Y-106121000D01*
X107221495Y-106119796D01*
X107197227Y-106116196D01*
X107173428Y-106110235D01*
X107150329Y-106101970D01*
X107128150Y-106091480D01*
X107107107Y-106078868D01*
X107087401Y-106064253D01*
X107069223Y-106047777D01*
X107052747Y-106029599D01*
X107038132Y-106009893D01*
X107025520Y-105988850D01*
X107015030Y-105966671D01*
X107006765Y-105943572D01*
X107000804Y-105919773D01*
X106997204Y-105895505D01*
X106996000Y-105871001D01*
X106996000Y-105220999D01*
X106997204Y-105196495D01*
X107000804Y-105172227D01*
X107006765Y-105148428D01*
X107015030Y-105125329D01*
X107025520Y-105103150D01*
X107038132Y-105082107D01*
X107052747Y-105062401D01*
X107069223Y-105044223D01*
X107087401Y-105027747D01*
X107107107Y-105013132D01*
X107128150Y-105000520D01*
X107150329Y-104990030D01*
X107173428Y-104981765D01*
X107197227Y-104975804D01*
X107221495Y-104972204D01*
X107245999Y-104971000D01*
X108146001Y-104971000D01*
X108170505Y-104972204D01*
X108170505Y-104972204D01*
G37*
D12*
X107696000Y-105546000D03*
D11*
G36*
X113250505Y-142165204D02*
G01*
X113274773Y-142168804D01*
X113298572Y-142174765D01*
X113321671Y-142183030D01*
X113343850Y-142193520D01*
X113364893Y-142206132D01*
X113384599Y-142220747D01*
X113402777Y-142237223D01*
X113419253Y-142255401D01*
X113433868Y-142275107D01*
X113446480Y-142296150D01*
X113456970Y-142318329D01*
X113465235Y-142341428D01*
X113471196Y-142365227D01*
X113474796Y-142389495D01*
X113476000Y-142413999D01*
X113476000Y-143064001D01*
X113474796Y-143088505D01*
X113471196Y-143112773D01*
X113465235Y-143136572D01*
X113456970Y-143159671D01*
X113446480Y-143181850D01*
X113433868Y-143202893D01*
X113419253Y-143222599D01*
X113402777Y-143240777D01*
X113384599Y-143257253D01*
X113364893Y-143271868D01*
X113343850Y-143284480D01*
X113321671Y-143294970D01*
X113298572Y-143303235D01*
X113274773Y-143309196D01*
X113250505Y-143312796D01*
X113226001Y-143314000D01*
X112325999Y-143314000D01*
X112301495Y-143312796D01*
X112277227Y-143309196D01*
X112253428Y-143303235D01*
X112230329Y-143294970D01*
X112208150Y-143284480D01*
X112187107Y-143271868D01*
X112167401Y-143257253D01*
X112149223Y-143240777D01*
X112132747Y-143222599D01*
X112118132Y-143202893D01*
X112105520Y-143181850D01*
X112095030Y-143159671D01*
X112086765Y-143136572D01*
X112080804Y-143112773D01*
X112077204Y-143088505D01*
X112076000Y-143064001D01*
X112076000Y-142413999D01*
X112077204Y-142389495D01*
X112080804Y-142365227D01*
X112086765Y-142341428D01*
X112095030Y-142318329D01*
X112105520Y-142296150D01*
X112118132Y-142275107D01*
X112132747Y-142255401D01*
X112149223Y-142237223D01*
X112167401Y-142220747D01*
X112187107Y-142206132D01*
X112208150Y-142193520D01*
X112230329Y-142183030D01*
X112253428Y-142174765D01*
X112277227Y-142168804D01*
X112301495Y-142165204D01*
X112325999Y-142164000D01*
X113226001Y-142164000D01*
X113250505Y-142165204D01*
X113250505Y-142165204D01*
G37*
D12*
X112776000Y-142739000D03*
D11*
G36*
X113250505Y-144215204D02*
G01*
X113274773Y-144218804D01*
X113298572Y-144224765D01*
X113321671Y-144233030D01*
X113343850Y-144243520D01*
X113364893Y-144256132D01*
X113384599Y-144270747D01*
X113402777Y-144287223D01*
X113419253Y-144305401D01*
X113433868Y-144325107D01*
X113446480Y-144346150D01*
X113456970Y-144368329D01*
X113465235Y-144391428D01*
X113471196Y-144415227D01*
X113474796Y-144439495D01*
X113476000Y-144463999D01*
X113476000Y-145114001D01*
X113474796Y-145138505D01*
X113471196Y-145162773D01*
X113465235Y-145186572D01*
X113456970Y-145209671D01*
X113446480Y-145231850D01*
X113433868Y-145252893D01*
X113419253Y-145272599D01*
X113402777Y-145290777D01*
X113384599Y-145307253D01*
X113364893Y-145321868D01*
X113343850Y-145334480D01*
X113321671Y-145344970D01*
X113298572Y-145353235D01*
X113274773Y-145359196D01*
X113250505Y-145362796D01*
X113226001Y-145364000D01*
X112325999Y-145364000D01*
X112301495Y-145362796D01*
X112277227Y-145359196D01*
X112253428Y-145353235D01*
X112230329Y-145344970D01*
X112208150Y-145334480D01*
X112187107Y-145321868D01*
X112167401Y-145307253D01*
X112149223Y-145290777D01*
X112132747Y-145272599D01*
X112118132Y-145252893D01*
X112105520Y-145231850D01*
X112095030Y-145209671D01*
X112086765Y-145186572D01*
X112080804Y-145162773D01*
X112077204Y-145138505D01*
X112076000Y-145114001D01*
X112076000Y-144463999D01*
X112077204Y-144439495D01*
X112080804Y-144415227D01*
X112086765Y-144391428D01*
X112095030Y-144368329D01*
X112105520Y-144346150D01*
X112118132Y-144325107D01*
X112132747Y-144305401D01*
X112149223Y-144287223D01*
X112167401Y-144270747D01*
X112187107Y-144256132D01*
X112208150Y-144243520D01*
X112230329Y-144233030D01*
X112253428Y-144224765D01*
X112277227Y-144218804D01*
X112301495Y-144215204D01*
X112325999Y-144214000D01*
X113226001Y-144214000D01*
X113250505Y-144215204D01*
X113250505Y-144215204D01*
G37*
D12*
X112776000Y-144789000D03*
D11*
G36*
X115282505Y-177235204D02*
G01*
X115306773Y-177238804D01*
X115330572Y-177244765D01*
X115353671Y-177253030D01*
X115375850Y-177263520D01*
X115396893Y-177276132D01*
X115416599Y-177290747D01*
X115434777Y-177307223D01*
X115451253Y-177325401D01*
X115465868Y-177345107D01*
X115478480Y-177366150D01*
X115488970Y-177388329D01*
X115497235Y-177411428D01*
X115503196Y-177435227D01*
X115506796Y-177459495D01*
X115508000Y-177483999D01*
X115508000Y-178134001D01*
X115506796Y-178158505D01*
X115503196Y-178182773D01*
X115497235Y-178206572D01*
X115488970Y-178229671D01*
X115478480Y-178251850D01*
X115465868Y-178272893D01*
X115451253Y-178292599D01*
X115434777Y-178310777D01*
X115416599Y-178327253D01*
X115396893Y-178341868D01*
X115375850Y-178354480D01*
X115353671Y-178364970D01*
X115330572Y-178373235D01*
X115306773Y-178379196D01*
X115282505Y-178382796D01*
X115258001Y-178384000D01*
X114357999Y-178384000D01*
X114333495Y-178382796D01*
X114309227Y-178379196D01*
X114285428Y-178373235D01*
X114262329Y-178364970D01*
X114240150Y-178354480D01*
X114219107Y-178341868D01*
X114199401Y-178327253D01*
X114181223Y-178310777D01*
X114164747Y-178292599D01*
X114150132Y-178272893D01*
X114137520Y-178251850D01*
X114127030Y-178229671D01*
X114118765Y-178206572D01*
X114112804Y-178182773D01*
X114109204Y-178158505D01*
X114108000Y-178134001D01*
X114108000Y-177483999D01*
X114109204Y-177459495D01*
X114112804Y-177435227D01*
X114118765Y-177411428D01*
X114127030Y-177388329D01*
X114137520Y-177366150D01*
X114150132Y-177345107D01*
X114164747Y-177325401D01*
X114181223Y-177307223D01*
X114199401Y-177290747D01*
X114219107Y-177276132D01*
X114240150Y-177263520D01*
X114262329Y-177253030D01*
X114285428Y-177244765D01*
X114309227Y-177238804D01*
X114333495Y-177235204D01*
X114357999Y-177234000D01*
X115258001Y-177234000D01*
X115282505Y-177235204D01*
X115282505Y-177235204D01*
G37*
D12*
X114808000Y-177809000D03*
D11*
G36*
X115282505Y-175185204D02*
G01*
X115306773Y-175188804D01*
X115330572Y-175194765D01*
X115353671Y-175203030D01*
X115375850Y-175213520D01*
X115396893Y-175226132D01*
X115416599Y-175240747D01*
X115434777Y-175257223D01*
X115451253Y-175275401D01*
X115465868Y-175295107D01*
X115478480Y-175316150D01*
X115488970Y-175338329D01*
X115497235Y-175361428D01*
X115503196Y-175385227D01*
X115506796Y-175409495D01*
X115508000Y-175433999D01*
X115508000Y-176084001D01*
X115506796Y-176108505D01*
X115503196Y-176132773D01*
X115497235Y-176156572D01*
X115488970Y-176179671D01*
X115478480Y-176201850D01*
X115465868Y-176222893D01*
X115451253Y-176242599D01*
X115434777Y-176260777D01*
X115416599Y-176277253D01*
X115396893Y-176291868D01*
X115375850Y-176304480D01*
X115353671Y-176314970D01*
X115330572Y-176323235D01*
X115306773Y-176329196D01*
X115282505Y-176332796D01*
X115258001Y-176334000D01*
X114357999Y-176334000D01*
X114333495Y-176332796D01*
X114309227Y-176329196D01*
X114285428Y-176323235D01*
X114262329Y-176314970D01*
X114240150Y-176304480D01*
X114219107Y-176291868D01*
X114199401Y-176277253D01*
X114181223Y-176260777D01*
X114164747Y-176242599D01*
X114150132Y-176222893D01*
X114137520Y-176201850D01*
X114127030Y-176179671D01*
X114118765Y-176156572D01*
X114112804Y-176132773D01*
X114109204Y-176108505D01*
X114108000Y-176084001D01*
X114108000Y-175433999D01*
X114109204Y-175409495D01*
X114112804Y-175385227D01*
X114118765Y-175361428D01*
X114127030Y-175338329D01*
X114137520Y-175316150D01*
X114150132Y-175295107D01*
X114164747Y-175275401D01*
X114181223Y-175257223D01*
X114199401Y-175240747D01*
X114219107Y-175226132D01*
X114240150Y-175213520D01*
X114262329Y-175203030D01*
X114285428Y-175194765D01*
X114309227Y-175188804D01*
X114333495Y-175185204D01*
X114357999Y-175184000D01*
X115258001Y-175184000D01*
X115282505Y-175185204D01*
X115282505Y-175185204D01*
G37*
D12*
X114808000Y-175759000D03*
D11*
G36*
X97386505Y-138239204D02*
G01*
X97410773Y-138242804D01*
X97434572Y-138248765D01*
X97457671Y-138257030D01*
X97479850Y-138267520D01*
X97500893Y-138280132D01*
X97520599Y-138294747D01*
X97538777Y-138311223D01*
X97555253Y-138329401D01*
X97569868Y-138349107D01*
X97582480Y-138370150D01*
X97592970Y-138392329D01*
X97601235Y-138415428D01*
X97607196Y-138439227D01*
X97610796Y-138463495D01*
X97612000Y-138487999D01*
X97612000Y-139388001D01*
X97610796Y-139412505D01*
X97607196Y-139436773D01*
X97601235Y-139460572D01*
X97592970Y-139483671D01*
X97582480Y-139505850D01*
X97569868Y-139526893D01*
X97555253Y-139546599D01*
X97538777Y-139564777D01*
X97520599Y-139581253D01*
X97500893Y-139595868D01*
X97479850Y-139608480D01*
X97457671Y-139618970D01*
X97434572Y-139627235D01*
X97410773Y-139633196D01*
X97386505Y-139636796D01*
X97362001Y-139638000D01*
X96711999Y-139638000D01*
X96687495Y-139636796D01*
X96663227Y-139633196D01*
X96639428Y-139627235D01*
X96616329Y-139618970D01*
X96594150Y-139608480D01*
X96573107Y-139595868D01*
X96553401Y-139581253D01*
X96535223Y-139564777D01*
X96518747Y-139546599D01*
X96504132Y-139526893D01*
X96491520Y-139505850D01*
X96481030Y-139483671D01*
X96472765Y-139460572D01*
X96466804Y-139436773D01*
X96463204Y-139412505D01*
X96462000Y-139388001D01*
X96462000Y-138487999D01*
X96463204Y-138463495D01*
X96466804Y-138439227D01*
X96472765Y-138415428D01*
X96481030Y-138392329D01*
X96491520Y-138370150D01*
X96504132Y-138349107D01*
X96518747Y-138329401D01*
X96535223Y-138311223D01*
X96553401Y-138294747D01*
X96573107Y-138280132D01*
X96594150Y-138267520D01*
X96616329Y-138257030D01*
X96639428Y-138248765D01*
X96663227Y-138242804D01*
X96687495Y-138239204D01*
X96711999Y-138238000D01*
X97362001Y-138238000D01*
X97386505Y-138239204D01*
X97386505Y-138239204D01*
G37*
D12*
X97037000Y-138938000D03*
D11*
G36*
X95336505Y-138239204D02*
G01*
X95360773Y-138242804D01*
X95384572Y-138248765D01*
X95407671Y-138257030D01*
X95429850Y-138267520D01*
X95450893Y-138280132D01*
X95470599Y-138294747D01*
X95488777Y-138311223D01*
X95505253Y-138329401D01*
X95519868Y-138349107D01*
X95532480Y-138370150D01*
X95542970Y-138392329D01*
X95551235Y-138415428D01*
X95557196Y-138439227D01*
X95560796Y-138463495D01*
X95562000Y-138487999D01*
X95562000Y-139388001D01*
X95560796Y-139412505D01*
X95557196Y-139436773D01*
X95551235Y-139460572D01*
X95542970Y-139483671D01*
X95532480Y-139505850D01*
X95519868Y-139526893D01*
X95505253Y-139546599D01*
X95488777Y-139564777D01*
X95470599Y-139581253D01*
X95450893Y-139595868D01*
X95429850Y-139608480D01*
X95407671Y-139618970D01*
X95384572Y-139627235D01*
X95360773Y-139633196D01*
X95336505Y-139636796D01*
X95312001Y-139638000D01*
X94661999Y-139638000D01*
X94637495Y-139636796D01*
X94613227Y-139633196D01*
X94589428Y-139627235D01*
X94566329Y-139618970D01*
X94544150Y-139608480D01*
X94523107Y-139595868D01*
X94503401Y-139581253D01*
X94485223Y-139564777D01*
X94468747Y-139546599D01*
X94454132Y-139526893D01*
X94441520Y-139505850D01*
X94431030Y-139483671D01*
X94422765Y-139460572D01*
X94416804Y-139436773D01*
X94413204Y-139412505D01*
X94412000Y-139388001D01*
X94412000Y-138487999D01*
X94413204Y-138463495D01*
X94416804Y-138439227D01*
X94422765Y-138415428D01*
X94431030Y-138392329D01*
X94441520Y-138370150D01*
X94454132Y-138349107D01*
X94468747Y-138329401D01*
X94485223Y-138311223D01*
X94503401Y-138294747D01*
X94523107Y-138280132D01*
X94544150Y-138267520D01*
X94566329Y-138257030D01*
X94589428Y-138248765D01*
X94613227Y-138242804D01*
X94637495Y-138239204D01*
X94661999Y-138238000D01*
X95312001Y-138238000D01*
X95336505Y-138239204D01*
X95336505Y-138239204D01*
G37*
D12*
X94987000Y-138938000D03*
D11*
G36*
X109186505Y-177235204D02*
G01*
X109210773Y-177238804D01*
X109234572Y-177244765D01*
X109257671Y-177253030D01*
X109279850Y-177263520D01*
X109300893Y-177276132D01*
X109320599Y-177290747D01*
X109338777Y-177307223D01*
X109355253Y-177325401D01*
X109369868Y-177345107D01*
X109382480Y-177366150D01*
X109392970Y-177388329D01*
X109401235Y-177411428D01*
X109407196Y-177435227D01*
X109410796Y-177459495D01*
X109412000Y-177483999D01*
X109412000Y-178134001D01*
X109410796Y-178158505D01*
X109407196Y-178182773D01*
X109401235Y-178206572D01*
X109392970Y-178229671D01*
X109382480Y-178251850D01*
X109369868Y-178272893D01*
X109355253Y-178292599D01*
X109338777Y-178310777D01*
X109320599Y-178327253D01*
X109300893Y-178341868D01*
X109279850Y-178354480D01*
X109257671Y-178364970D01*
X109234572Y-178373235D01*
X109210773Y-178379196D01*
X109186505Y-178382796D01*
X109162001Y-178384000D01*
X108261999Y-178384000D01*
X108237495Y-178382796D01*
X108213227Y-178379196D01*
X108189428Y-178373235D01*
X108166329Y-178364970D01*
X108144150Y-178354480D01*
X108123107Y-178341868D01*
X108103401Y-178327253D01*
X108085223Y-178310777D01*
X108068747Y-178292599D01*
X108054132Y-178272893D01*
X108041520Y-178251850D01*
X108031030Y-178229671D01*
X108022765Y-178206572D01*
X108016804Y-178182773D01*
X108013204Y-178158505D01*
X108012000Y-178134001D01*
X108012000Y-177483999D01*
X108013204Y-177459495D01*
X108016804Y-177435227D01*
X108022765Y-177411428D01*
X108031030Y-177388329D01*
X108041520Y-177366150D01*
X108054132Y-177345107D01*
X108068747Y-177325401D01*
X108085223Y-177307223D01*
X108103401Y-177290747D01*
X108123107Y-177276132D01*
X108144150Y-177263520D01*
X108166329Y-177253030D01*
X108189428Y-177244765D01*
X108213227Y-177238804D01*
X108237495Y-177235204D01*
X108261999Y-177234000D01*
X109162001Y-177234000D01*
X109186505Y-177235204D01*
X109186505Y-177235204D01*
G37*
D12*
X108712000Y-177809000D03*
D11*
G36*
X109186505Y-175185204D02*
G01*
X109210773Y-175188804D01*
X109234572Y-175194765D01*
X109257671Y-175203030D01*
X109279850Y-175213520D01*
X109300893Y-175226132D01*
X109320599Y-175240747D01*
X109338777Y-175257223D01*
X109355253Y-175275401D01*
X109369868Y-175295107D01*
X109382480Y-175316150D01*
X109392970Y-175338329D01*
X109401235Y-175361428D01*
X109407196Y-175385227D01*
X109410796Y-175409495D01*
X109412000Y-175433999D01*
X109412000Y-176084001D01*
X109410796Y-176108505D01*
X109407196Y-176132773D01*
X109401235Y-176156572D01*
X109392970Y-176179671D01*
X109382480Y-176201850D01*
X109369868Y-176222893D01*
X109355253Y-176242599D01*
X109338777Y-176260777D01*
X109320599Y-176277253D01*
X109300893Y-176291868D01*
X109279850Y-176304480D01*
X109257671Y-176314970D01*
X109234572Y-176323235D01*
X109210773Y-176329196D01*
X109186505Y-176332796D01*
X109162001Y-176334000D01*
X108261999Y-176334000D01*
X108237495Y-176332796D01*
X108213227Y-176329196D01*
X108189428Y-176323235D01*
X108166329Y-176314970D01*
X108144150Y-176304480D01*
X108123107Y-176291868D01*
X108103401Y-176277253D01*
X108085223Y-176260777D01*
X108068747Y-176242599D01*
X108054132Y-176222893D01*
X108041520Y-176201850D01*
X108031030Y-176179671D01*
X108022765Y-176156572D01*
X108016804Y-176132773D01*
X108013204Y-176108505D01*
X108012000Y-176084001D01*
X108012000Y-175433999D01*
X108013204Y-175409495D01*
X108016804Y-175385227D01*
X108022765Y-175361428D01*
X108031030Y-175338329D01*
X108041520Y-175316150D01*
X108054132Y-175295107D01*
X108068747Y-175275401D01*
X108085223Y-175257223D01*
X108103401Y-175240747D01*
X108123107Y-175226132D01*
X108144150Y-175213520D01*
X108166329Y-175203030D01*
X108189428Y-175194765D01*
X108213227Y-175188804D01*
X108237495Y-175185204D01*
X108261999Y-175184000D01*
X109162001Y-175184000D01*
X109186505Y-175185204D01*
X109186505Y-175185204D01*
G37*
D12*
X108712000Y-175759000D03*
D11*
G36*
X97386505Y-136207204D02*
G01*
X97410773Y-136210804D01*
X97434572Y-136216765D01*
X97457671Y-136225030D01*
X97479850Y-136235520D01*
X97500893Y-136248132D01*
X97520599Y-136262747D01*
X97538777Y-136279223D01*
X97555253Y-136297401D01*
X97569868Y-136317107D01*
X97582480Y-136338150D01*
X97592970Y-136360329D01*
X97601235Y-136383428D01*
X97607196Y-136407227D01*
X97610796Y-136431495D01*
X97612000Y-136455999D01*
X97612000Y-137356001D01*
X97610796Y-137380505D01*
X97607196Y-137404773D01*
X97601235Y-137428572D01*
X97592970Y-137451671D01*
X97582480Y-137473850D01*
X97569868Y-137494893D01*
X97555253Y-137514599D01*
X97538777Y-137532777D01*
X97520599Y-137549253D01*
X97500893Y-137563868D01*
X97479850Y-137576480D01*
X97457671Y-137586970D01*
X97434572Y-137595235D01*
X97410773Y-137601196D01*
X97386505Y-137604796D01*
X97362001Y-137606000D01*
X96711999Y-137606000D01*
X96687495Y-137604796D01*
X96663227Y-137601196D01*
X96639428Y-137595235D01*
X96616329Y-137586970D01*
X96594150Y-137576480D01*
X96573107Y-137563868D01*
X96553401Y-137549253D01*
X96535223Y-137532777D01*
X96518747Y-137514599D01*
X96504132Y-137494893D01*
X96491520Y-137473850D01*
X96481030Y-137451671D01*
X96472765Y-137428572D01*
X96466804Y-137404773D01*
X96463204Y-137380505D01*
X96462000Y-137356001D01*
X96462000Y-136455999D01*
X96463204Y-136431495D01*
X96466804Y-136407227D01*
X96472765Y-136383428D01*
X96481030Y-136360329D01*
X96491520Y-136338150D01*
X96504132Y-136317107D01*
X96518747Y-136297401D01*
X96535223Y-136279223D01*
X96553401Y-136262747D01*
X96573107Y-136248132D01*
X96594150Y-136235520D01*
X96616329Y-136225030D01*
X96639428Y-136216765D01*
X96663227Y-136210804D01*
X96687495Y-136207204D01*
X96711999Y-136206000D01*
X97362001Y-136206000D01*
X97386505Y-136207204D01*
X97386505Y-136207204D01*
G37*
D12*
X97037000Y-136906000D03*
D11*
G36*
X95336505Y-136207204D02*
G01*
X95360773Y-136210804D01*
X95384572Y-136216765D01*
X95407671Y-136225030D01*
X95429850Y-136235520D01*
X95450893Y-136248132D01*
X95470599Y-136262747D01*
X95488777Y-136279223D01*
X95505253Y-136297401D01*
X95519868Y-136317107D01*
X95532480Y-136338150D01*
X95542970Y-136360329D01*
X95551235Y-136383428D01*
X95557196Y-136407227D01*
X95560796Y-136431495D01*
X95562000Y-136455999D01*
X95562000Y-137356001D01*
X95560796Y-137380505D01*
X95557196Y-137404773D01*
X95551235Y-137428572D01*
X95542970Y-137451671D01*
X95532480Y-137473850D01*
X95519868Y-137494893D01*
X95505253Y-137514599D01*
X95488777Y-137532777D01*
X95470599Y-137549253D01*
X95450893Y-137563868D01*
X95429850Y-137576480D01*
X95407671Y-137586970D01*
X95384572Y-137595235D01*
X95360773Y-137601196D01*
X95336505Y-137604796D01*
X95312001Y-137606000D01*
X94661999Y-137606000D01*
X94637495Y-137604796D01*
X94613227Y-137601196D01*
X94589428Y-137595235D01*
X94566329Y-137586970D01*
X94544150Y-137576480D01*
X94523107Y-137563868D01*
X94503401Y-137549253D01*
X94485223Y-137532777D01*
X94468747Y-137514599D01*
X94454132Y-137494893D01*
X94441520Y-137473850D01*
X94431030Y-137451671D01*
X94422765Y-137428572D01*
X94416804Y-137404773D01*
X94413204Y-137380505D01*
X94412000Y-137356001D01*
X94412000Y-136455999D01*
X94413204Y-136431495D01*
X94416804Y-136407227D01*
X94422765Y-136383428D01*
X94431030Y-136360329D01*
X94441520Y-136338150D01*
X94454132Y-136317107D01*
X94468747Y-136297401D01*
X94485223Y-136279223D01*
X94503401Y-136262747D01*
X94523107Y-136248132D01*
X94544150Y-136235520D01*
X94566329Y-136225030D01*
X94589428Y-136216765D01*
X94613227Y-136210804D01*
X94637495Y-136207204D01*
X94661999Y-136206000D01*
X95312001Y-136206000D01*
X95336505Y-136207204D01*
X95336505Y-136207204D01*
G37*
D12*
X94987000Y-136906000D03*
D13*
X105028000Y-138938000D03*
X101728000Y-138938000D03*
D14*
X104394000Y-100481000D03*
X103444000Y-103481000D03*
X105344000Y-103481000D03*
D11*
G36*
X97386505Y-144462204D02*
G01*
X97410773Y-144465804D01*
X97434572Y-144471765D01*
X97457671Y-144480030D01*
X97479850Y-144490520D01*
X97500893Y-144503132D01*
X97520599Y-144517747D01*
X97538777Y-144534223D01*
X97555253Y-144552401D01*
X97569868Y-144572107D01*
X97582480Y-144593150D01*
X97592970Y-144615329D01*
X97601235Y-144638428D01*
X97607196Y-144662227D01*
X97610796Y-144686495D01*
X97612000Y-144710999D01*
X97612000Y-145611001D01*
X97610796Y-145635505D01*
X97607196Y-145659773D01*
X97601235Y-145683572D01*
X97592970Y-145706671D01*
X97582480Y-145728850D01*
X97569868Y-145749893D01*
X97555253Y-145769599D01*
X97538777Y-145787777D01*
X97520599Y-145804253D01*
X97500893Y-145818868D01*
X97479850Y-145831480D01*
X97457671Y-145841970D01*
X97434572Y-145850235D01*
X97410773Y-145856196D01*
X97386505Y-145859796D01*
X97362001Y-145861000D01*
X96711999Y-145861000D01*
X96687495Y-145859796D01*
X96663227Y-145856196D01*
X96639428Y-145850235D01*
X96616329Y-145841970D01*
X96594150Y-145831480D01*
X96573107Y-145818868D01*
X96553401Y-145804253D01*
X96535223Y-145787777D01*
X96518747Y-145769599D01*
X96504132Y-145749893D01*
X96491520Y-145728850D01*
X96481030Y-145706671D01*
X96472765Y-145683572D01*
X96466804Y-145659773D01*
X96463204Y-145635505D01*
X96462000Y-145611001D01*
X96462000Y-144710999D01*
X96463204Y-144686495D01*
X96466804Y-144662227D01*
X96472765Y-144638428D01*
X96481030Y-144615329D01*
X96491520Y-144593150D01*
X96504132Y-144572107D01*
X96518747Y-144552401D01*
X96535223Y-144534223D01*
X96553401Y-144517747D01*
X96573107Y-144503132D01*
X96594150Y-144490520D01*
X96616329Y-144480030D01*
X96639428Y-144471765D01*
X96663227Y-144465804D01*
X96687495Y-144462204D01*
X96711999Y-144461000D01*
X97362001Y-144461000D01*
X97386505Y-144462204D01*
X97386505Y-144462204D01*
G37*
D12*
X97037000Y-145161000D03*
D11*
G36*
X95336505Y-144462204D02*
G01*
X95360773Y-144465804D01*
X95384572Y-144471765D01*
X95407671Y-144480030D01*
X95429850Y-144490520D01*
X95450893Y-144503132D01*
X95470599Y-144517747D01*
X95488777Y-144534223D01*
X95505253Y-144552401D01*
X95519868Y-144572107D01*
X95532480Y-144593150D01*
X95542970Y-144615329D01*
X95551235Y-144638428D01*
X95557196Y-144662227D01*
X95560796Y-144686495D01*
X95562000Y-144710999D01*
X95562000Y-145611001D01*
X95560796Y-145635505D01*
X95557196Y-145659773D01*
X95551235Y-145683572D01*
X95542970Y-145706671D01*
X95532480Y-145728850D01*
X95519868Y-145749893D01*
X95505253Y-145769599D01*
X95488777Y-145787777D01*
X95470599Y-145804253D01*
X95450893Y-145818868D01*
X95429850Y-145831480D01*
X95407671Y-145841970D01*
X95384572Y-145850235D01*
X95360773Y-145856196D01*
X95336505Y-145859796D01*
X95312001Y-145861000D01*
X94661999Y-145861000D01*
X94637495Y-145859796D01*
X94613227Y-145856196D01*
X94589428Y-145850235D01*
X94566329Y-145841970D01*
X94544150Y-145831480D01*
X94523107Y-145818868D01*
X94503401Y-145804253D01*
X94485223Y-145787777D01*
X94468747Y-145769599D01*
X94454132Y-145749893D01*
X94441520Y-145728850D01*
X94431030Y-145706671D01*
X94422765Y-145683572D01*
X94416804Y-145659773D01*
X94413204Y-145635505D01*
X94412000Y-145611001D01*
X94412000Y-144710999D01*
X94413204Y-144686495D01*
X94416804Y-144662227D01*
X94422765Y-144638428D01*
X94431030Y-144615329D01*
X94441520Y-144593150D01*
X94454132Y-144572107D01*
X94468747Y-144552401D01*
X94485223Y-144534223D01*
X94503401Y-144517747D01*
X94523107Y-144503132D01*
X94544150Y-144490520D01*
X94566329Y-144480030D01*
X94589428Y-144471765D01*
X94613227Y-144465804D01*
X94637495Y-144462204D01*
X94661999Y-144461000D01*
X95312001Y-144461000D01*
X95336505Y-144462204D01*
X95336505Y-144462204D01*
G37*
D12*
X94987000Y-145161000D03*
D15*
X87089000Y-149733000D03*
X87089000Y-151003000D03*
X87089000Y-152273000D03*
X87089000Y-153543000D03*
X87089000Y-154813000D03*
X87089000Y-156083000D03*
X87089000Y-157353000D03*
X92489000Y-157353000D03*
X92489000Y-156083000D03*
X92489000Y-154813000D03*
X92489000Y-153543000D03*
X92489000Y-152273000D03*
X92489000Y-151003000D03*
X92489000Y-149733000D03*
X86962000Y-138176000D03*
X86962000Y-139446000D03*
X86962000Y-140716000D03*
X86962000Y-141986000D03*
X86962000Y-143256000D03*
X86962000Y-144526000D03*
X86962000Y-145796000D03*
X92362000Y-145796000D03*
X92362000Y-144526000D03*
X92362000Y-143256000D03*
X92362000Y-141986000D03*
X92362000Y-140716000D03*
X92362000Y-139446000D03*
X92362000Y-138176000D03*
D11*
G36*
X88866505Y-177235204D02*
G01*
X88890773Y-177238804D01*
X88914572Y-177244765D01*
X88937671Y-177253030D01*
X88959850Y-177263520D01*
X88980893Y-177276132D01*
X89000599Y-177290747D01*
X89018777Y-177307223D01*
X89035253Y-177325401D01*
X89049868Y-177345107D01*
X89062480Y-177366150D01*
X89072970Y-177388329D01*
X89081235Y-177411428D01*
X89087196Y-177435227D01*
X89090796Y-177459495D01*
X89092000Y-177483999D01*
X89092000Y-178134001D01*
X89090796Y-178158505D01*
X89087196Y-178182773D01*
X89081235Y-178206572D01*
X89072970Y-178229671D01*
X89062480Y-178251850D01*
X89049868Y-178272893D01*
X89035253Y-178292599D01*
X89018777Y-178310777D01*
X89000599Y-178327253D01*
X88980893Y-178341868D01*
X88959850Y-178354480D01*
X88937671Y-178364970D01*
X88914572Y-178373235D01*
X88890773Y-178379196D01*
X88866505Y-178382796D01*
X88842001Y-178384000D01*
X87941999Y-178384000D01*
X87917495Y-178382796D01*
X87893227Y-178379196D01*
X87869428Y-178373235D01*
X87846329Y-178364970D01*
X87824150Y-178354480D01*
X87803107Y-178341868D01*
X87783401Y-178327253D01*
X87765223Y-178310777D01*
X87748747Y-178292599D01*
X87734132Y-178272893D01*
X87721520Y-178251850D01*
X87711030Y-178229671D01*
X87702765Y-178206572D01*
X87696804Y-178182773D01*
X87693204Y-178158505D01*
X87692000Y-178134001D01*
X87692000Y-177483999D01*
X87693204Y-177459495D01*
X87696804Y-177435227D01*
X87702765Y-177411428D01*
X87711030Y-177388329D01*
X87721520Y-177366150D01*
X87734132Y-177345107D01*
X87748747Y-177325401D01*
X87765223Y-177307223D01*
X87783401Y-177290747D01*
X87803107Y-177276132D01*
X87824150Y-177263520D01*
X87846329Y-177253030D01*
X87869428Y-177244765D01*
X87893227Y-177238804D01*
X87917495Y-177235204D01*
X87941999Y-177234000D01*
X88842001Y-177234000D01*
X88866505Y-177235204D01*
X88866505Y-177235204D01*
G37*
D12*
X88392000Y-177809000D03*
D11*
G36*
X88866505Y-175185204D02*
G01*
X88890773Y-175188804D01*
X88914572Y-175194765D01*
X88937671Y-175203030D01*
X88959850Y-175213520D01*
X88980893Y-175226132D01*
X89000599Y-175240747D01*
X89018777Y-175257223D01*
X89035253Y-175275401D01*
X89049868Y-175295107D01*
X89062480Y-175316150D01*
X89072970Y-175338329D01*
X89081235Y-175361428D01*
X89087196Y-175385227D01*
X89090796Y-175409495D01*
X89092000Y-175433999D01*
X89092000Y-176084001D01*
X89090796Y-176108505D01*
X89087196Y-176132773D01*
X89081235Y-176156572D01*
X89072970Y-176179671D01*
X89062480Y-176201850D01*
X89049868Y-176222893D01*
X89035253Y-176242599D01*
X89018777Y-176260777D01*
X89000599Y-176277253D01*
X88980893Y-176291868D01*
X88959850Y-176304480D01*
X88937671Y-176314970D01*
X88914572Y-176323235D01*
X88890773Y-176329196D01*
X88866505Y-176332796D01*
X88842001Y-176334000D01*
X87941999Y-176334000D01*
X87917495Y-176332796D01*
X87893227Y-176329196D01*
X87869428Y-176323235D01*
X87846329Y-176314970D01*
X87824150Y-176304480D01*
X87803107Y-176291868D01*
X87783401Y-176277253D01*
X87765223Y-176260777D01*
X87748747Y-176242599D01*
X87734132Y-176222893D01*
X87721520Y-176201850D01*
X87711030Y-176179671D01*
X87702765Y-176156572D01*
X87696804Y-176132773D01*
X87693204Y-176108505D01*
X87692000Y-176084001D01*
X87692000Y-175433999D01*
X87693204Y-175409495D01*
X87696804Y-175385227D01*
X87702765Y-175361428D01*
X87711030Y-175338329D01*
X87721520Y-175316150D01*
X87734132Y-175295107D01*
X87748747Y-175275401D01*
X87765223Y-175257223D01*
X87783401Y-175240747D01*
X87803107Y-175226132D01*
X87824150Y-175213520D01*
X87846329Y-175203030D01*
X87869428Y-175194765D01*
X87893227Y-175188804D01*
X87917495Y-175185204D01*
X87941999Y-175184000D01*
X88842001Y-175184000D01*
X88866505Y-175185204D01*
X88866505Y-175185204D01*
G37*
D12*
X88392000Y-175759000D03*
D11*
G36*
X78452505Y-177235204D02*
G01*
X78476773Y-177238804D01*
X78500572Y-177244765D01*
X78523671Y-177253030D01*
X78545850Y-177263520D01*
X78566893Y-177276132D01*
X78586599Y-177290747D01*
X78604777Y-177307223D01*
X78621253Y-177325401D01*
X78635868Y-177345107D01*
X78648480Y-177366150D01*
X78658970Y-177388329D01*
X78667235Y-177411428D01*
X78673196Y-177435227D01*
X78676796Y-177459495D01*
X78678000Y-177483999D01*
X78678000Y-178134001D01*
X78676796Y-178158505D01*
X78673196Y-178182773D01*
X78667235Y-178206572D01*
X78658970Y-178229671D01*
X78648480Y-178251850D01*
X78635868Y-178272893D01*
X78621253Y-178292599D01*
X78604777Y-178310777D01*
X78586599Y-178327253D01*
X78566893Y-178341868D01*
X78545850Y-178354480D01*
X78523671Y-178364970D01*
X78500572Y-178373235D01*
X78476773Y-178379196D01*
X78452505Y-178382796D01*
X78428001Y-178384000D01*
X77527999Y-178384000D01*
X77503495Y-178382796D01*
X77479227Y-178379196D01*
X77455428Y-178373235D01*
X77432329Y-178364970D01*
X77410150Y-178354480D01*
X77389107Y-178341868D01*
X77369401Y-178327253D01*
X77351223Y-178310777D01*
X77334747Y-178292599D01*
X77320132Y-178272893D01*
X77307520Y-178251850D01*
X77297030Y-178229671D01*
X77288765Y-178206572D01*
X77282804Y-178182773D01*
X77279204Y-178158505D01*
X77278000Y-178134001D01*
X77278000Y-177483999D01*
X77279204Y-177459495D01*
X77282804Y-177435227D01*
X77288765Y-177411428D01*
X77297030Y-177388329D01*
X77307520Y-177366150D01*
X77320132Y-177345107D01*
X77334747Y-177325401D01*
X77351223Y-177307223D01*
X77369401Y-177290747D01*
X77389107Y-177276132D01*
X77410150Y-177263520D01*
X77432329Y-177253030D01*
X77455428Y-177244765D01*
X77479227Y-177238804D01*
X77503495Y-177235204D01*
X77527999Y-177234000D01*
X78428001Y-177234000D01*
X78452505Y-177235204D01*
X78452505Y-177235204D01*
G37*
D12*
X77978000Y-177809000D03*
D11*
G36*
X78452505Y-175185204D02*
G01*
X78476773Y-175188804D01*
X78500572Y-175194765D01*
X78523671Y-175203030D01*
X78545850Y-175213520D01*
X78566893Y-175226132D01*
X78586599Y-175240747D01*
X78604777Y-175257223D01*
X78621253Y-175275401D01*
X78635868Y-175295107D01*
X78648480Y-175316150D01*
X78658970Y-175338329D01*
X78667235Y-175361428D01*
X78673196Y-175385227D01*
X78676796Y-175409495D01*
X78678000Y-175433999D01*
X78678000Y-176084001D01*
X78676796Y-176108505D01*
X78673196Y-176132773D01*
X78667235Y-176156572D01*
X78658970Y-176179671D01*
X78648480Y-176201850D01*
X78635868Y-176222893D01*
X78621253Y-176242599D01*
X78604777Y-176260777D01*
X78586599Y-176277253D01*
X78566893Y-176291868D01*
X78545850Y-176304480D01*
X78523671Y-176314970D01*
X78500572Y-176323235D01*
X78476773Y-176329196D01*
X78452505Y-176332796D01*
X78428001Y-176334000D01*
X77527999Y-176334000D01*
X77503495Y-176332796D01*
X77479227Y-176329196D01*
X77455428Y-176323235D01*
X77432329Y-176314970D01*
X77410150Y-176304480D01*
X77389107Y-176291868D01*
X77369401Y-176277253D01*
X77351223Y-176260777D01*
X77334747Y-176242599D01*
X77320132Y-176222893D01*
X77307520Y-176201850D01*
X77297030Y-176179671D01*
X77288765Y-176156572D01*
X77282804Y-176132773D01*
X77279204Y-176108505D01*
X77278000Y-176084001D01*
X77278000Y-175433999D01*
X77279204Y-175409495D01*
X77282804Y-175385227D01*
X77288765Y-175361428D01*
X77297030Y-175338329D01*
X77307520Y-175316150D01*
X77320132Y-175295107D01*
X77334747Y-175275401D01*
X77351223Y-175257223D01*
X77369401Y-175240747D01*
X77389107Y-175226132D01*
X77410150Y-175213520D01*
X77432329Y-175203030D01*
X77455428Y-175194765D01*
X77479227Y-175188804D01*
X77503495Y-175185204D01*
X77527999Y-175184000D01*
X78428001Y-175184000D01*
X78452505Y-175185204D01*
X78452505Y-175185204D01*
G37*
D12*
X77978000Y-175759000D03*
D11*
G36*
X99026505Y-175185204D02*
G01*
X99050773Y-175188804D01*
X99074572Y-175194765D01*
X99097671Y-175203030D01*
X99119850Y-175213520D01*
X99140893Y-175226132D01*
X99160599Y-175240747D01*
X99178777Y-175257223D01*
X99195253Y-175275401D01*
X99209868Y-175295107D01*
X99222480Y-175316150D01*
X99232970Y-175338329D01*
X99241235Y-175361428D01*
X99247196Y-175385227D01*
X99250796Y-175409495D01*
X99252000Y-175433999D01*
X99252000Y-176084001D01*
X99250796Y-176108505D01*
X99247196Y-176132773D01*
X99241235Y-176156572D01*
X99232970Y-176179671D01*
X99222480Y-176201850D01*
X99209868Y-176222893D01*
X99195253Y-176242599D01*
X99178777Y-176260777D01*
X99160599Y-176277253D01*
X99140893Y-176291868D01*
X99119850Y-176304480D01*
X99097671Y-176314970D01*
X99074572Y-176323235D01*
X99050773Y-176329196D01*
X99026505Y-176332796D01*
X99002001Y-176334000D01*
X98101999Y-176334000D01*
X98077495Y-176332796D01*
X98053227Y-176329196D01*
X98029428Y-176323235D01*
X98006329Y-176314970D01*
X97984150Y-176304480D01*
X97963107Y-176291868D01*
X97943401Y-176277253D01*
X97925223Y-176260777D01*
X97908747Y-176242599D01*
X97894132Y-176222893D01*
X97881520Y-176201850D01*
X97871030Y-176179671D01*
X97862765Y-176156572D01*
X97856804Y-176132773D01*
X97853204Y-176108505D01*
X97852000Y-176084001D01*
X97852000Y-175433999D01*
X97853204Y-175409495D01*
X97856804Y-175385227D01*
X97862765Y-175361428D01*
X97871030Y-175338329D01*
X97881520Y-175316150D01*
X97894132Y-175295107D01*
X97908747Y-175275401D01*
X97925223Y-175257223D01*
X97943401Y-175240747D01*
X97963107Y-175226132D01*
X97984150Y-175213520D01*
X98006329Y-175203030D01*
X98029428Y-175194765D01*
X98053227Y-175188804D01*
X98077495Y-175185204D01*
X98101999Y-175184000D01*
X99002001Y-175184000D01*
X99026505Y-175185204D01*
X99026505Y-175185204D01*
G37*
D12*
X98552000Y-175759000D03*
D11*
G36*
X99026505Y-177235204D02*
G01*
X99050773Y-177238804D01*
X99074572Y-177244765D01*
X99097671Y-177253030D01*
X99119850Y-177263520D01*
X99140893Y-177276132D01*
X99160599Y-177290747D01*
X99178777Y-177307223D01*
X99195253Y-177325401D01*
X99209868Y-177345107D01*
X99222480Y-177366150D01*
X99232970Y-177388329D01*
X99241235Y-177411428D01*
X99247196Y-177435227D01*
X99250796Y-177459495D01*
X99252000Y-177483999D01*
X99252000Y-178134001D01*
X99250796Y-178158505D01*
X99247196Y-178182773D01*
X99241235Y-178206572D01*
X99232970Y-178229671D01*
X99222480Y-178251850D01*
X99209868Y-178272893D01*
X99195253Y-178292599D01*
X99178777Y-178310777D01*
X99160599Y-178327253D01*
X99140893Y-178341868D01*
X99119850Y-178354480D01*
X99097671Y-178364970D01*
X99074572Y-178373235D01*
X99050773Y-178379196D01*
X99026505Y-178382796D01*
X99002001Y-178384000D01*
X98101999Y-178384000D01*
X98077495Y-178382796D01*
X98053227Y-178379196D01*
X98029428Y-178373235D01*
X98006329Y-178364970D01*
X97984150Y-178354480D01*
X97963107Y-178341868D01*
X97943401Y-178327253D01*
X97925223Y-178310777D01*
X97908747Y-178292599D01*
X97894132Y-178272893D01*
X97881520Y-178251850D01*
X97871030Y-178229671D01*
X97862765Y-178206572D01*
X97856804Y-178182773D01*
X97853204Y-178158505D01*
X97852000Y-178134001D01*
X97852000Y-177483999D01*
X97853204Y-177459495D01*
X97856804Y-177435227D01*
X97862765Y-177411428D01*
X97871030Y-177388329D01*
X97881520Y-177366150D01*
X97894132Y-177345107D01*
X97908747Y-177325401D01*
X97925223Y-177307223D01*
X97943401Y-177290747D01*
X97963107Y-177276132D01*
X97984150Y-177263520D01*
X98006329Y-177253030D01*
X98029428Y-177244765D01*
X98053227Y-177238804D01*
X98077495Y-177235204D01*
X98101999Y-177234000D01*
X99002001Y-177234000D01*
X99026505Y-177235204D01*
X99026505Y-177235204D01*
G37*
D12*
X98552000Y-177809000D03*
D11*
G36*
X84802505Y-177235204D02*
G01*
X84826773Y-177238804D01*
X84850572Y-177244765D01*
X84873671Y-177253030D01*
X84895850Y-177263520D01*
X84916893Y-177276132D01*
X84936599Y-177290747D01*
X84954777Y-177307223D01*
X84971253Y-177325401D01*
X84985868Y-177345107D01*
X84998480Y-177366150D01*
X85008970Y-177388329D01*
X85017235Y-177411428D01*
X85023196Y-177435227D01*
X85026796Y-177459495D01*
X85028000Y-177483999D01*
X85028000Y-178134001D01*
X85026796Y-178158505D01*
X85023196Y-178182773D01*
X85017235Y-178206572D01*
X85008970Y-178229671D01*
X84998480Y-178251850D01*
X84985868Y-178272893D01*
X84971253Y-178292599D01*
X84954777Y-178310777D01*
X84936599Y-178327253D01*
X84916893Y-178341868D01*
X84895850Y-178354480D01*
X84873671Y-178364970D01*
X84850572Y-178373235D01*
X84826773Y-178379196D01*
X84802505Y-178382796D01*
X84778001Y-178384000D01*
X83877999Y-178384000D01*
X83853495Y-178382796D01*
X83829227Y-178379196D01*
X83805428Y-178373235D01*
X83782329Y-178364970D01*
X83760150Y-178354480D01*
X83739107Y-178341868D01*
X83719401Y-178327253D01*
X83701223Y-178310777D01*
X83684747Y-178292599D01*
X83670132Y-178272893D01*
X83657520Y-178251850D01*
X83647030Y-178229671D01*
X83638765Y-178206572D01*
X83632804Y-178182773D01*
X83629204Y-178158505D01*
X83628000Y-178134001D01*
X83628000Y-177483999D01*
X83629204Y-177459495D01*
X83632804Y-177435227D01*
X83638765Y-177411428D01*
X83647030Y-177388329D01*
X83657520Y-177366150D01*
X83670132Y-177345107D01*
X83684747Y-177325401D01*
X83701223Y-177307223D01*
X83719401Y-177290747D01*
X83739107Y-177276132D01*
X83760150Y-177263520D01*
X83782329Y-177253030D01*
X83805428Y-177244765D01*
X83829227Y-177238804D01*
X83853495Y-177235204D01*
X83877999Y-177234000D01*
X84778001Y-177234000D01*
X84802505Y-177235204D01*
X84802505Y-177235204D01*
G37*
D12*
X84328000Y-177809000D03*
D11*
G36*
X84802505Y-175185204D02*
G01*
X84826773Y-175188804D01*
X84850572Y-175194765D01*
X84873671Y-175203030D01*
X84895850Y-175213520D01*
X84916893Y-175226132D01*
X84936599Y-175240747D01*
X84954777Y-175257223D01*
X84971253Y-175275401D01*
X84985868Y-175295107D01*
X84998480Y-175316150D01*
X85008970Y-175338329D01*
X85017235Y-175361428D01*
X85023196Y-175385227D01*
X85026796Y-175409495D01*
X85028000Y-175433999D01*
X85028000Y-176084001D01*
X85026796Y-176108505D01*
X85023196Y-176132773D01*
X85017235Y-176156572D01*
X85008970Y-176179671D01*
X84998480Y-176201850D01*
X84985868Y-176222893D01*
X84971253Y-176242599D01*
X84954777Y-176260777D01*
X84936599Y-176277253D01*
X84916893Y-176291868D01*
X84895850Y-176304480D01*
X84873671Y-176314970D01*
X84850572Y-176323235D01*
X84826773Y-176329196D01*
X84802505Y-176332796D01*
X84778001Y-176334000D01*
X83877999Y-176334000D01*
X83853495Y-176332796D01*
X83829227Y-176329196D01*
X83805428Y-176323235D01*
X83782329Y-176314970D01*
X83760150Y-176304480D01*
X83739107Y-176291868D01*
X83719401Y-176277253D01*
X83701223Y-176260777D01*
X83684747Y-176242599D01*
X83670132Y-176222893D01*
X83657520Y-176201850D01*
X83647030Y-176179671D01*
X83638765Y-176156572D01*
X83632804Y-176132773D01*
X83629204Y-176108505D01*
X83628000Y-176084001D01*
X83628000Y-175433999D01*
X83629204Y-175409495D01*
X83632804Y-175385227D01*
X83638765Y-175361428D01*
X83647030Y-175338329D01*
X83657520Y-175316150D01*
X83670132Y-175295107D01*
X83684747Y-175275401D01*
X83701223Y-175257223D01*
X83719401Y-175240747D01*
X83739107Y-175226132D01*
X83760150Y-175213520D01*
X83782329Y-175203030D01*
X83805428Y-175194765D01*
X83829227Y-175188804D01*
X83853495Y-175185204D01*
X83877999Y-175184000D01*
X84778001Y-175184000D01*
X84802505Y-175185204D01*
X84802505Y-175185204D01*
G37*
D12*
X84328000Y-175759000D03*
D11*
G36*
X105122505Y-175185204D02*
G01*
X105146773Y-175188804D01*
X105170572Y-175194765D01*
X105193671Y-175203030D01*
X105215850Y-175213520D01*
X105236893Y-175226132D01*
X105256599Y-175240747D01*
X105274777Y-175257223D01*
X105291253Y-175275401D01*
X105305868Y-175295107D01*
X105318480Y-175316150D01*
X105328970Y-175338329D01*
X105337235Y-175361428D01*
X105343196Y-175385227D01*
X105346796Y-175409495D01*
X105348000Y-175433999D01*
X105348000Y-176084001D01*
X105346796Y-176108505D01*
X105343196Y-176132773D01*
X105337235Y-176156572D01*
X105328970Y-176179671D01*
X105318480Y-176201850D01*
X105305868Y-176222893D01*
X105291253Y-176242599D01*
X105274777Y-176260777D01*
X105256599Y-176277253D01*
X105236893Y-176291868D01*
X105215850Y-176304480D01*
X105193671Y-176314970D01*
X105170572Y-176323235D01*
X105146773Y-176329196D01*
X105122505Y-176332796D01*
X105098001Y-176334000D01*
X104197999Y-176334000D01*
X104173495Y-176332796D01*
X104149227Y-176329196D01*
X104125428Y-176323235D01*
X104102329Y-176314970D01*
X104080150Y-176304480D01*
X104059107Y-176291868D01*
X104039401Y-176277253D01*
X104021223Y-176260777D01*
X104004747Y-176242599D01*
X103990132Y-176222893D01*
X103977520Y-176201850D01*
X103967030Y-176179671D01*
X103958765Y-176156572D01*
X103952804Y-176132773D01*
X103949204Y-176108505D01*
X103948000Y-176084001D01*
X103948000Y-175433999D01*
X103949204Y-175409495D01*
X103952804Y-175385227D01*
X103958765Y-175361428D01*
X103967030Y-175338329D01*
X103977520Y-175316150D01*
X103990132Y-175295107D01*
X104004747Y-175275401D01*
X104021223Y-175257223D01*
X104039401Y-175240747D01*
X104059107Y-175226132D01*
X104080150Y-175213520D01*
X104102329Y-175203030D01*
X104125428Y-175194765D01*
X104149227Y-175188804D01*
X104173495Y-175185204D01*
X104197999Y-175184000D01*
X105098001Y-175184000D01*
X105122505Y-175185204D01*
X105122505Y-175185204D01*
G37*
D12*
X104648000Y-175759000D03*
D11*
G36*
X105122505Y-177235204D02*
G01*
X105146773Y-177238804D01*
X105170572Y-177244765D01*
X105193671Y-177253030D01*
X105215850Y-177263520D01*
X105236893Y-177276132D01*
X105256599Y-177290747D01*
X105274777Y-177307223D01*
X105291253Y-177325401D01*
X105305868Y-177345107D01*
X105318480Y-177366150D01*
X105328970Y-177388329D01*
X105337235Y-177411428D01*
X105343196Y-177435227D01*
X105346796Y-177459495D01*
X105348000Y-177483999D01*
X105348000Y-178134001D01*
X105346796Y-178158505D01*
X105343196Y-178182773D01*
X105337235Y-178206572D01*
X105328970Y-178229671D01*
X105318480Y-178251850D01*
X105305868Y-178272893D01*
X105291253Y-178292599D01*
X105274777Y-178310777D01*
X105256599Y-178327253D01*
X105236893Y-178341868D01*
X105215850Y-178354480D01*
X105193671Y-178364970D01*
X105170572Y-178373235D01*
X105146773Y-178379196D01*
X105122505Y-178382796D01*
X105098001Y-178384000D01*
X104197999Y-178384000D01*
X104173495Y-178382796D01*
X104149227Y-178379196D01*
X104125428Y-178373235D01*
X104102329Y-178364970D01*
X104080150Y-178354480D01*
X104059107Y-178341868D01*
X104039401Y-178327253D01*
X104021223Y-178310777D01*
X104004747Y-178292599D01*
X103990132Y-178272893D01*
X103977520Y-178251850D01*
X103967030Y-178229671D01*
X103958765Y-178206572D01*
X103952804Y-178182773D01*
X103949204Y-178158505D01*
X103948000Y-178134001D01*
X103948000Y-177483999D01*
X103949204Y-177459495D01*
X103952804Y-177435227D01*
X103958765Y-177411428D01*
X103967030Y-177388329D01*
X103977520Y-177366150D01*
X103990132Y-177345107D01*
X104004747Y-177325401D01*
X104021223Y-177307223D01*
X104039401Y-177290747D01*
X104059107Y-177276132D01*
X104080150Y-177263520D01*
X104102329Y-177253030D01*
X104125428Y-177244765D01*
X104149227Y-177238804D01*
X104173495Y-177235204D01*
X104197999Y-177234000D01*
X105098001Y-177234000D01*
X105122505Y-177235204D01*
X105122505Y-177235204D01*
G37*
D12*
X104648000Y-177809000D03*
D11*
G36*
X84940505Y-155511204D02*
G01*
X84964773Y-155514804D01*
X84988572Y-155520765D01*
X85011671Y-155529030D01*
X85033850Y-155539520D01*
X85054893Y-155552132D01*
X85074599Y-155566747D01*
X85092777Y-155583223D01*
X85109253Y-155601401D01*
X85123868Y-155621107D01*
X85136480Y-155642150D01*
X85146970Y-155664329D01*
X85155235Y-155687428D01*
X85161196Y-155711227D01*
X85164796Y-155735495D01*
X85166000Y-155759999D01*
X85166000Y-156660001D01*
X85164796Y-156684505D01*
X85161196Y-156708773D01*
X85155235Y-156732572D01*
X85146970Y-156755671D01*
X85136480Y-156777850D01*
X85123868Y-156798893D01*
X85109253Y-156818599D01*
X85092777Y-156836777D01*
X85074599Y-156853253D01*
X85054893Y-156867868D01*
X85033850Y-156880480D01*
X85011671Y-156890970D01*
X84988572Y-156899235D01*
X84964773Y-156905196D01*
X84940505Y-156908796D01*
X84916001Y-156910000D01*
X84265999Y-156910000D01*
X84241495Y-156908796D01*
X84217227Y-156905196D01*
X84193428Y-156899235D01*
X84170329Y-156890970D01*
X84148150Y-156880480D01*
X84127107Y-156867868D01*
X84107401Y-156853253D01*
X84089223Y-156836777D01*
X84072747Y-156818599D01*
X84058132Y-156798893D01*
X84045520Y-156777850D01*
X84035030Y-156755671D01*
X84026765Y-156732572D01*
X84020804Y-156708773D01*
X84017204Y-156684505D01*
X84016000Y-156660001D01*
X84016000Y-155759999D01*
X84017204Y-155735495D01*
X84020804Y-155711227D01*
X84026765Y-155687428D01*
X84035030Y-155664329D01*
X84045520Y-155642150D01*
X84058132Y-155621107D01*
X84072747Y-155601401D01*
X84089223Y-155583223D01*
X84107401Y-155566747D01*
X84127107Y-155552132D01*
X84148150Y-155539520D01*
X84170329Y-155529030D01*
X84193428Y-155520765D01*
X84217227Y-155514804D01*
X84241495Y-155511204D01*
X84265999Y-155510000D01*
X84916001Y-155510000D01*
X84940505Y-155511204D01*
X84940505Y-155511204D01*
G37*
D12*
X84591000Y-156210000D03*
D11*
G36*
X82890505Y-155511204D02*
G01*
X82914773Y-155514804D01*
X82938572Y-155520765D01*
X82961671Y-155529030D01*
X82983850Y-155539520D01*
X83004893Y-155552132D01*
X83024599Y-155566747D01*
X83042777Y-155583223D01*
X83059253Y-155601401D01*
X83073868Y-155621107D01*
X83086480Y-155642150D01*
X83096970Y-155664329D01*
X83105235Y-155687428D01*
X83111196Y-155711227D01*
X83114796Y-155735495D01*
X83116000Y-155759999D01*
X83116000Y-156660001D01*
X83114796Y-156684505D01*
X83111196Y-156708773D01*
X83105235Y-156732572D01*
X83096970Y-156755671D01*
X83086480Y-156777850D01*
X83073868Y-156798893D01*
X83059253Y-156818599D01*
X83042777Y-156836777D01*
X83024599Y-156853253D01*
X83004893Y-156867868D01*
X82983850Y-156880480D01*
X82961671Y-156890970D01*
X82938572Y-156899235D01*
X82914773Y-156905196D01*
X82890505Y-156908796D01*
X82866001Y-156910000D01*
X82215999Y-156910000D01*
X82191495Y-156908796D01*
X82167227Y-156905196D01*
X82143428Y-156899235D01*
X82120329Y-156890970D01*
X82098150Y-156880480D01*
X82077107Y-156867868D01*
X82057401Y-156853253D01*
X82039223Y-156836777D01*
X82022747Y-156818599D01*
X82008132Y-156798893D01*
X81995520Y-156777850D01*
X81985030Y-156755671D01*
X81976765Y-156732572D01*
X81970804Y-156708773D01*
X81967204Y-156684505D01*
X81966000Y-156660001D01*
X81966000Y-155759999D01*
X81967204Y-155735495D01*
X81970804Y-155711227D01*
X81976765Y-155687428D01*
X81985030Y-155664329D01*
X81995520Y-155642150D01*
X82008132Y-155621107D01*
X82022747Y-155601401D01*
X82039223Y-155583223D01*
X82057401Y-155566747D01*
X82077107Y-155552132D01*
X82098150Y-155539520D01*
X82120329Y-155529030D01*
X82143428Y-155520765D01*
X82167227Y-155514804D01*
X82191495Y-155511204D01*
X82215999Y-155510000D01*
X82866001Y-155510000D01*
X82890505Y-155511204D01*
X82890505Y-155511204D01*
G37*
D12*
X82541000Y-156210000D03*
D11*
G36*
X95463505Y-155511204D02*
G01*
X95487773Y-155514804D01*
X95511572Y-155520765D01*
X95534671Y-155529030D01*
X95556850Y-155539520D01*
X95577893Y-155552132D01*
X95597599Y-155566747D01*
X95615777Y-155583223D01*
X95632253Y-155601401D01*
X95646868Y-155621107D01*
X95659480Y-155642150D01*
X95669970Y-155664329D01*
X95678235Y-155687428D01*
X95684196Y-155711227D01*
X95687796Y-155735495D01*
X95689000Y-155759999D01*
X95689000Y-156660001D01*
X95687796Y-156684505D01*
X95684196Y-156708773D01*
X95678235Y-156732572D01*
X95669970Y-156755671D01*
X95659480Y-156777850D01*
X95646868Y-156798893D01*
X95632253Y-156818599D01*
X95615777Y-156836777D01*
X95597599Y-156853253D01*
X95577893Y-156867868D01*
X95556850Y-156880480D01*
X95534671Y-156890970D01*
X95511572Y-156899235D01*
X95487773Y-156905196D01*
X95463505Y-156908796D01*
X95439001Y-156910000D01*
X94788999Y-156910000D01*
X94764495Y-156908796D01*
X94740227Y-156905196D01*
X94716428Y-156899235D01*
X94693329Y-156890970D01*
X94671150Y-156880480D01*
X94650107Y-156867868D01*
X94630401Y-156853253D01*
X94612223Y-156836777D01*
X94595747Y-156818599D01*
X94581132Y-156798893D01*
X94568520Y-156777850D01*
X94558030Y-156755671D01*
X94549765Y-156732572D01*
X94543804Y-156708773D01*
X94540204Y-156684505D01*
X94539000Y-156660001D01*
X94539000Y-155759999D01*
X94540204Y-155735495D01*
X94543804Y-155711227D01*
X94549765Y-155687428D01*
X94558030Y-155664329D01*
X94568520Y-155642150D01*
X94581132Y-155621107D01*
X94595747Y-155601401D01*
X94612223Y-155583223D01*
X94630401Y-155566747D01*
X94650107Y-155552132D01*
X94671150Y-155539520D01*
X94693329Y-155529030D01*
X94716428Y-155520765D01*
X94740227Y-155514804D01*
X94764495Y-155511204D01*
X94788999Y-155510000D01*
X95439001Y-155510000D01*
X95463505Y-155511204D01*
X95463505Y-155511204D01*
G37*
D12*
X95114000Y-156210000D03*
D11*
G36*
X97513505Y-155511204D02*
G01*
X97537773Y-155514804D01*
X97561572Y-155520765D01*
X97584671Y-155529030D01*
X97606850Y-155539520D01*
X97627893Y-155552132D01*
X97647599Y-155566747D01*
X97665777Y-155583223D01*
X97682253Y-155601401D01*
X97696868Y-155621107D01*
X97709480Y-155642150D01*
X97719970Y-155664329D01*
X97728235Y-155687428D01*
X97734196Y-155711227D01*
X97737796Y-155735495D01*
X97739000Y-155759999D01*
X97739000Y-156660001D01*
X97737796Y-156684505D01*
X97734196Y-156708773D01*
X97728235Y-156732572D01*
X97719970Y-156755671D01*
X97709480Y-156777850D01*
X97696868Y-156798893D01*
X97682253Y-156818599D01*
X97665777Y-156836777D01*
X97647599Y-156853253D01*
X97627893Y-156867868D01*
X97606850Y-156880480D01*
X97584671Y-156890970D01*
X97561572Y-156899235D01*
X97537773Y-156905196D01*
X97513505Y-156908796D01*
X97489001Y-156910000D01*
X96838999Y-156910000D01*
X96814495Y-156908796D01*
X96790227Y-156905196D01*
X96766428Y-156899235D01*
X96743329Y-156890970D01*
X96721150Y-156880480D01*
X96700107Y-156867868D01*
X96680401Y-156853253D01*
X96662223Y-156836777D01*
X96645747Y-156818599D01*
X96631132Y-156798893D01*
X96618520Y-156777850D01*
X96608030Y-156755671D01*
X96599765Y-156732572D01*
X96593804Y-156708773D01*
X96590204Y-156684505D01*
X96589000Y-156660001D01*
X96589000Y-155759999D01*
X96590204Y-155735495D01*
X96593804Y-155711227D01*
X96599765Y-155687428D01*
X96608030Y-155664329D01*
X96618520Y-155642150D01*
X96631132Y-155621107D01*
X96645747Y-155601401D01*
X96662223Y-155583223D01*
X96680401Y-155566747D01*
X96700107Y-155552132D01*
X96721150Y-155539520D01*
X96743329Y-155529030D01*
X96766428Y-155520765D01*
X96790227Y-155514804D01*
X96814495Y-155511204D01*
X96838999Y-155510000D01*
X97489001Y-155510000D01*
X97513505Y-155511204D01*
X97513505Y-155511204D01*
G37*
D12*
X97164000Y-156210000D03*
D11*
G36*
X84940505Y-153606204D02*
G01*
X84964773Y-153609804D01*
X84988572Y-153615765D01*
X85011671Y-153624030D01*
X85033850Y-153634520D01*
X85054893Y-153647132D01*
X85074599Y-153661747D01*
X85092777Y-153678223D01*
X85109253Y-153696401D01*
X85123868Y-153716107D01*
X85136480Y-153737150D01*
X85146970Y-153759329D01*
X85155235Y-153782428D01*
X85161196Y-153806227D01*
X85164796Y-153830495D01*
X85166000Y-153854999D01*
X85166000Y-154755001D01*
X85164796Y-154779505D01*
X85161196Y-154803773D01*
X85155235Y-154827572D01*
X85146970Y-154850671D01*
X85136480Y-154872850D01*
X85123868Y-154893893D01*
X85109253Y-154913599D01*
X85092777Y-154931777D01*
X85074599Y-154948253D01*
X85054893Y-154962868D01*
X85033850Y-154975480D01*
X85011671Y-154985970D01*
X84988572Y-154994235D01*
X84964773Y-155000196D01*
X84940505Y-155003796D01*
X84916001Y-155005000D01*
X84265999Y-155005000D01*
X84241495Y-155003796D01*
X84217227Y-155000196D01*
X84193428Y-154994235D01*
X84170329Y-154985970D01*
X84148150Y-154975480D01*
X84127107Y-154962868D01*
X84107401Y-154948253D01*
X84089223Y-154931777D01*
X84072747Y-154913599D01*
X84058132Y-154893893D01*
X84045520Y-154872850D01*
X84035030Y-154850671D01*
X84026765Y-154827572D01*
X84020804Y-154803773D01*
X84017204Y-154779505D01*
X84016000Y-154755001D01*
X84016000Y-153854999D01*
X84017204Y-153830495D01*
X84020804Y-153806227D01*
X84026765Y-153782428D01*
X84035030Y-153759329D01*
X84045520Y-153737150D01*
X84058132Y-153716107D01*
X84072747Y-153696401D01*
X84089223Y-153678223D01*
X84107401Y-153661747D01*
X84127107Y-153647132D01*
X84148150Y-153634520D01*
X84170329Y-153624030D01*
X84193428Y-153615765D01*
X84217227Y-153609804D01*
X84241495Y-153606204D01*
X84265999Y-153605000D01*
X84916001Y-153605000D01*
X84940505Y-153606204D01*
X84940505Y-153606204D01*
G37*
D12*
X84591000Y-154305000D03*
D11*
G36*
X82890505Y-153606204D02*
G01*
X82914773Y-153609804D01*
X82938572Y-153615765D01*
X82961671Y-153624030D01*
X82983850Y-153634520D01*
X83004893Y-153647132D01*
X83024599Y-153661747D01*
X83042777Y-153678223D01*
X83059253Y-153696401D01*
X83073868Y-153716107D01*
X83086480Y-153737150D01*
X83096970Y-153759329D01*
X83105235Y-153782428D01*
X83111196Y-153806227D01*
X83114796Y-153830495D01*
X83116000Y-153854999D01*
X83116000Y-154755001D01*
X83114796Y-154779505D01*
X83111196Y-154803773D01*
X83105235Y-154827572D01*
X83096970Y-154850671D01*
X83086480Y-154872850D01*
X83073868Y-154893893D01*
X83059253Y-154913599D01*
X83042777Y-154931777D01*
X83024599Y-154948253D01*
X83004893Y-154962868D01*
X82983850Y-154975480D01*
X82961671Y-154985970D01*
X82938572Y-154994235D01*
X82914773Y-155000196D01*
X82890505Y-155003796D01*
X82866001Y-155005000D01*
X82215999Y-155005000D01*
X82191495Y-155003796D01*
X82167227Y-155000196D01*
X82143428Y-154994235D01*
X82120329Y-154985970D01*
X82098150Y-154975480D01*
X82077107Y-154962868D01*
X82057401Y-154948253D01*
X82039223Y-154931777D01*
X82022747Y-154913599D01*
X82008132Y-154893893D01*
X81995520Y-154872850D01*
X81985030Y-154850671D01*
X81976765Y-154827572D01*
X81970804Y-154803773D01*
X81967204Y-154779505D01*
X81966000Y-154755001D01*
X81966000Y-153854999D01*
X81967204Y-153830495D01*
X81970804Y-153806227D01*
X81976765Y-153782428D01*
X81985030Y-153759329D01*
X81995520Y-153737150D01*
X82008132Y-153716107D01*
X82022747Y-153696401D01*
X82039223Y-153678223D01*
X82057401Y-153661747D01*
X82077107Y-153647132D01*
X82098150Y-153634520D01*
X82120329Y-153624030D01*
X82143428Y-153615765D01*
X82167227Y-153609804D01*
X82191495Y-153606204D01*
X82215999Y-153605000D01*
X82866001Y-153605000D01*
X82890505Y-153606204D01*
X82890505Y-153606204D01*
G37*
D12*
X82541000Y-154305000D03*
D11*
G36*
X95463505Y-153606204D02*
G01*
X95487773Y-153609804D01*
X95511572Y-153615765D01*
X95534671Y-153624030D01*
X95556850Y-153634520D01*
X95577893Y-153647132D01*
X95597599Y-153661747D01*
X95615777Y-153678223D01*
X95632253Y-153696401D01*
X95646868Y-153716107D01*
X95659480Y-153737150D01*
X95669970Y-153759329D01*
X95678235Y-153782428D01*
X95684196Y-153806227D01*
X95687796Y-153830495D01*
X95689000Y-153854999D01*
X95689000Y-154755001D01*
X95687796Y-154779505D01*
X95684196Y-154803773D01*
X95678235Y-154827572D01*
X95669970Y-154850671D01*
X95659480Y-154872850D01*
X95646868Y-154893893D01*
X95632253Y-154913599D01*
X95615777Y-154931777D01*
X95597599Y-154948253D01*
X95577893Y-154962868D01*
X95556850Y-154975480D01*
X95534671Y-154985970D01*
X95511572Y-154994235D01*
X95487773Y-155000196D01*
X95463505Y-155003796D01*
X95439001Y-155005000D01*
X94788999Y-155005000D01*
X94764495Y-155003796D01*
X94740227Y-155000196D01*
X94716428Y-154994235D01*
X94693329Y-154985970D01*
X94671150Y-154975480D01*
X94650107Y-154962868D01*
X94630401Y-154948253D01*
X94612223Y-154931777D01*
X94595747Y-154913599D01*
X94581132Y-154893893D01*
X94568520Y-154872850D01*
X94558030Y-154850671D01*
X94549765Y-154827572D01*
X94543804Y-154803773D01*
X94540204Y-154779505D01*
X94539000Y-154755001D01*
X94539000Y-153854999D01*
X94540204Y-153830495D01*
X94543804Y-153806227D01*
X94549765Y-153782428D01*
X94558030Y-153759329D01*
X94568520Y-153737150D01*
X94581132Y-153716107D01*
X94595747Y-153696401D01*
X94612223Y-153678223D01*
X94630401Y-153661747D01*
X94650107Y-153647132D01*
X94671150Y-153634520D01*
X94693329Y-153624030D01*
X94716428Y-153615765D01*
X94740227Y-153609804D01*
X94764495Y-153606204D01*
X94788999Y-153605000D01*
X95439001Y-153605000D01*
X95463505Y-153606204D01*
X95463505Y-153606204D01*
G37*
D12*
X95114000Y-154305000D03*
D11*
G36*
X97513505Y-153606204D02*
G01*
X97537773Y-153609804D01*
X97561572Y-153615765D01*
X97584671Y-153624030D01*
X97606850Y-153634520D01*
X97627893Y-153647132D01*
X97647599Y-153661747D01*
X97665777Y-153678223D01*
X97682253Y-153696401D01*
X97696868Y-153716107D01*
X97709480Y-153737150D01*
X97719970Y-153759329D01*
X97728235Y-153782428D01*
X97734196Y-153806227D01*
X97737796Y-153830495D01*
X97739000Y-153854999D01*
X97739000Y-154755001D01*
X97737796Y-154779505D01*
X97734196Y-154803773D01*
X97728235Y-154827572D01*
X97719970Y-154850671D01*
X97709480Y-154872850D01*
X97696868Y-154893893D01*
X97682253Y-154913599D01*
X97665777Y-154931777D01*
X97647599Y-154948253D01*
X97627893Y-154962868D01*
X97606850Y-154975480D01*
X97584671Y-154985970D01*
X97561572Y-154994235D01*
X97537773Y-155000196D01*
X97513505Y-155003796D01*
X97489001Y-155005000D01*
X96838999Y-155005000D01*
X96814495Y-155003796D01*
X96790227Y-155000196D01*
X96766428Y-154994235D01*
X96743329Y-154985970D01*
X96721150Y-154975480D01*
X96700107Y-154962868D01*
X96680401Y-154948253D01*
X96662223Y-154931777D01*
X96645747Y-154913599D01*
X96631132Y-154893893D01*
X96618520Y-154872850D01*
X96608030Y-154850671D01*
X96599765Y-154827572D01*
X96593804Y-154803773D01*
X96590204Y-154779505D01*
X96589000Y-154755001D01*
X96589000Y-153854999D01*
X96590204Y-153830495D01*
X96593804Y-153806227D01*
X96599765Y-153782428D01*
X96608030Y-153759329D01*
X96618520Y-153737150D01*
X96631132Y-153716107D01*
X96645747Y-153696401D01*
X96662223Y-153678223D01*
X96680401Y-153661747D01*
X96700107Y-153647132D01*
X96721150Y-153634520D01*
X96743329Y-153624030D01*
X96766428Y-153615765D01*
X96790227Y-153609804D01*
X96814495Y-153606204D01*
X96838999Y-153605000D01*
X97489001Y-153605000D01*
X97513505Y-153606204D01*
X97513505Y-153606204D01*
G37*
D12*
X97164000Y-154305000D03*
D11*
G36*
X94962505Y-177235204D02*
G01*
X94986773Y-177238804D01*
X95010572Y-177244765D01*
X95033671Y-177253030D01*
X95055850Y-177263520D01*
X95076893Y-177276132D01*
X95096599Y-177290747D01*
X95114777Y-177307223D01*
X95131253Y-177325401D01*
X95145868Y-177345107D01*
X95158480Y-177366150D01*
X95168970Y-177388329D01*
X95177235Y-177411428D01*
X95183196Y-177435227D01*
X95186796Y-177459495D01*
X95188000Y-177483999D01*
X95188000Y-178134001D01*
X95186796Y-178158505D01*
X95183196Y-178182773D01*
X95177235Y-178206572D01*
X95168970Y-178229671D01*
X95158480Y-178251850D01*
X95145868Y-178272893D01*
X95131253Y-178292599D01*
X95114777Y-178310777D01*
X95096599Y-178327253D01*
X95076893Y-178341868D01*
X95055850Y-178354480D01*
X95033671Y-178364970D01*
X95010572Y-178373235D01*
X94986773Y-178379196D01*
X94962505Y-178382796D01*
X94938001Y-178384000D01*
X94037999Y-178384000D01*
X94013495Y-178382796D01*
X93989227Y-178379196D01*
X93965428Y-178373235D01*
X93942329Y-178364970D01*
X93920150Y-178354480D01*
X93899107Y-178341868D01*
X93879401Y-178327253D01*
X93861223Y-178310777D01*
X93844747Y-178292599D01*
X93830132Y-178272893D01*
X93817520Y-178251850D01*
X93807030Y-178229671D01*
X93798765Y-178206572D01*
X93792804Y-178182773D01*
X93789204Y-178158505D01*
X93788000Y-178134001D01*
X93788000Y-177483999D01*
X93789204Y-177459495D01*
X93792804Y-177435227D01*
X93798765Y-177411428D01*
X93807030Y-177388329D01*
X93817520Y-177366150D01*
X93830132Y-177345107D01*
X93844747Y-177325401D01*
X93861223Y-177307223D01*
X93879401Y-177290747D01*
X93899107Y-177276132D01*
X93920150Y-177263520D01*
X93942329Y-177253030D01*
X93965428Y-177244765D01*
X93989227Y-177238804D01*
X94013495Y-177235204D01*
X94037999Y-177234000D01*
X94938001Y-177234000D01*
X94962505Y-177235204D01*
X94962505Y-177235204D01*
G37*
D12*
X94488000Y-177809000D03*
D11*
G36*
X94962505Y-175185204D02*
G01*
X94986773Y-175188804D01*
X95010572Y-175194765D01*
X95033671Y-175203030D01*
X95055850Y-175213520D01*
X95076893Y-175226132D01*
X95096599Y-175240747D01*
X95114777Y-175257223D01*
X95131253Y-175275401D01*
X95145868Y-175295107D01*
X95158480Y-175316150D01*
X95168970Y-175338329D01*
X95177235Y-175361428D01*
X95183196Y-175385227D01*
X95186796Y-175409495D01*
X95188000Y-175433999D01*
X95188000Y-176084001D01*
X95186796Y-176108505D01*
X95183196Y-176132773D01*
X95177235Y-176156572D01*
X95168970Y-176179671D01*
X95158480Y-176201850D01*
X95145868Y-176222893D01*
X95131253Y-176242599D01*
X95114777Y-176260777D01*
X95096599Y-176277253D01*
X95076893Y-176291868D01*
X95055850Y-176304480D01*
X95033671Y-176314970D01*
X95010572Y-176323235D01*
X94986773Y-176329196D01*
X94962505Y-176332796D01*
X94938001Y-176334000D01*
X94037999Y-176334000D01*
X94013495Y-176332796D01*
X93989227Y-176329196D01*
X93965428Y-176323235D01*
X93942329Y-176314970D01*
X93920150Y-176304480D01*
X93899107Y-176291868D01*
X93879401Y-176277253D01*
X93861223Y-176260777D01*
X93844747Y-176242599D01*
X93830132Y-176222893D01*
X93817520Y-176201850D01*
X93807030Y-176179671D01*
X93798765Y-176156572D01*
X93792804Y-176132773D01*
X93789204Y-176108505D01*
X93788000Y-176084001D01*
X93788000Y-175433999D01*
X93789204Y-175409495D01*
X93792804Y-175385227D01*
X93798765Y-175361428D01*
X93807030Y-175338329D01*
X93817520Y-175316150D01*
X93830132Y-175295107D01*
X93844747Y-175275401D01*
X93861223Y-175257223D01*
X93879401Y-175240747D01*
X93899107Y-175226132D01*
X93920150Y-175213520D01*
X93942329Y-175203030D01*
X93965428Y-175194765D01*
X93989227Y-175188804D01*
X94013495Y-175185204D01*
X94037999Y-175184000D01*
X94938001Y-175184000D01*
X94962505Y-175185204D01*
X94962505Y-175185204D01*
G37*
D12*
X94488000Y-175759000D03*
D11*
G36*
X84940505Y-149542204D02*
G01*
X84964773Y-149545804D01*
X84988572Y-149551765D01*
X85011671Y-149560030D01*
X85033850Y-149570520D01*
X85054893Y-149583132D01*
X85074599Y-149597747D01*
X85092777Y-149614223D01*
X85109253Y-149632401D01*
X85123868Y-149652107D01*
X85136480Y-149673150D01*
X85146970Y-149695329D01*
X85155235Y-149718428D01*
X85161196Y-149742227D01*
X85164796Y-149766495D01*
X85166000Y-149790999D01*
X85166000Y-150691001D01*
X85164796Y-150715505D01*
X85161196Y-150739773D01*
X85155235Y-150763572D01*
X85146970Y-150786671D01*
X85136480Y-150808850D01*
X85123868Y-150829893D01*
X85109253Y-150849599D01*
X85092777Y-150867777D01*
X85074599Y-150884253D01*
X85054893Y-150898868D01*
X85033850Y-150911480D01*
X85011671Y-150921970D01*
X84988572Y-150930235D01*
X84964773Y-150936196D01*
X84940505Y-150939796D01*
X84916001Y-150941000D01*
X84265999Y-150941000D01*
X84241495Y-150939796D01*
X84217227Y-150936196D01*
X84193428Y-150930235D01*
X84170329Y-150921970D01*
X84148150Y-150911480D01*
X84127107Y-150898868D01*
X84107401Y-150884253D01*
X84089223Y-150867777D01*
X84072747Y-150849599D01*
X84058132Y-150829893D01*
X84045520Y-150808850D01*
X84035030Y-150786671D01*
X84026765Y-150763572D01*
X84020804Y-150739773D01*
X84017204Y-150715505D01*
X84016000Y-150691001D01*
X84016000Y-149790999D01*
X84017204Y-149766495D01*
X84020804Y-149742227D01*
X84026765Y-149718428D01*
X84035030Y-149695329D01*
X84045520Y-149673150D01*
X84058132Y-149652107D01*
X84072747Y-149632401D01*
X84089223Y-149614223D01*
X84107401Y-149597747D01*
X84127107Y-149583132D01*
X84148150Y-149570520D01*
X84170329Y-149560030D01*
X84193428Y-149551765D01*
X84217227Y-149545804D01*
X84241495Y-149542204D01*
X84265999Y-149541000D01*
X84916001Y-149541000D01*
X84940505Y-149542204D01*
X84940505Y-149542204D01*
G37*
D12*
X84591000Y-150241000D03*
D11*
G36*
X82890505Y-149542204D02*
G01*
X82914773Y-149545804D01*
X82938572Y-149551765D01*
X82961671Y-149560030D01*
X82983850Y-149570520D01*
X83004893Y-149583132D01*
X83024599Y-149597747D01*
X83042777Y-149614223D01*
X83059253Y-149632401D01*
X83073868Y-149652107D01*
X83086480Y-149673150D01*
X83096970Y-149695329D01*
X83105235Y-149718428D01*
X83111196Y-149742227D01*
X83114796Y-149766495D01*
X83116000Y-149790999D01*
X83116000Y-150691001D01*
X83114796Y-150715505D01*
X83111196Y-150739773D01*
X83105235Y-150763572D01*
X83096970Y-150786671D01*
X83086480Y-150808850D01*
X83073868Y-150829893D01*
X83059253Y-150849599D01*
X83042777Y-150867777D01*
X83024599Y-150884253D01*
X83004893Y-150898868D01*
X82983850Y-150911480D01*
X82961671Y-150921970D01*
X82938572Y-150930235D01*
X82914773Y-150936196D01*
X82890505Y-150939796D01*
X82866001Y-150941000D01*
X82215999Y-150941000D01*
X82191495Y-150939796D01*
X82167227Y-150936196D01*
X82143428Y-150930235D01*
X82120329Y-150921970D01*
X82098150Y-150911480D01*
X82077107Y-150898868D01*
X82057401Y-150884253D01*
X82039223Y-150867777D01*
X82022747Y-150849599D01*
X82008132Y-150829893D01*
X81995520Y-150808850D01*
X81985030Y-150786671D01*
X81976765Y-150763572D01*
X81970804Y-150739773D01*
X81967204Y-150715505D01*
X81966000Y-150691001D01*
X81966000Y-149790999D01*
X81967204Y-149766495D01*
X81970804Y-149742227D01*
X81976765Y-149718428D01*
X81985030Y-149695329D01*
X81995520Y-149673150D01*
X82008132Y-149652107D01*
X82022747Y-149632401D01*
X82039223Y-149614223D01*
X82057401Y-149597747D01*
X82077107Y-149583132D01*
X82098150Y-149570520D01*
X82120329Y-149560030D01*
X82143428Y-149551765D01*
X82167227Y-149545804D01*
X82191495Y-149542204D01*
X82215999Y-149541000D01*
X82866001Y-149541000D01*
X82890505Y-149542204D01*
X82890505Y-149542204D01*
G37*
D12*
X82541000Y-150241000D03*
D11*
G36*
X91163505Y-147129204D02*
G01*
X91187773Y-147132804D01*
X91211572Y-147138765D01*
X91234671Y-147147030D01*
X91256850Y-147157520D01*
X91277893Y-147170132D01*
X91297599Y-147184747D01*
X91315777Y-147201223D01*
X91332253Y-147219401D01*
X91346868Y-147239107D01*
X91359480Y-147260150D01*
X91369970Y-147282329D01*
X91378235Y-147305428D01*
X91384196Y-147329227D01*
X91387796Y-147353495D01*
X91389000Y-147377999D01*
X91389000Y-148278001D01*
X91387796Y-148302505D01*
X91384196Y-148326773D01*
X91378235Y-148350572D01*
X91369970Y-148373671D01*
X91359480Y-148395850D01*
X91346868Y-148416893D01*
X91332253Y-148436599D01*
X91315777Y-148454777D01*
X91297599Y-148471253D01*
X91277893Y-148485868D01*
X91256850Y-148498480D01*
X91234671Y-148508970D01*
X91211572Y-148517235D01*
X91187773Y-148523196D01*
X91163505Y-148526796D01*
X91139001Y-148528000D01*
X90488999Y-148528000D01*
X90464495Y-148526796D01*
X90440227Y-148523196D01*
X90416428Y-148517235D01*
X90393329Y-148508970D01*
X90371150Y-148498480D01*
X90350107Y-148485868D01*
X90330401Y-148471253D01*
X90312223Y-148454777D01*
X90295747Y-148436599D01*
X90281132Y-148416893D01*
X90268520Y-148395850D01*
X90258030Y-148373671D01*
X90249765Y-148350572D01*
X90243804Y-148326773D01*
X90240204Y-148302505D01*
X90239000Y-148278001D01*
X90239000Y-147377999D01*
X90240204Y-147353495D01*
X90243804Y-147329227D01*
X90249765Y-147305428D01*
X90258030Y-147282329D01*
X90268520Y-147260150D01*
X90281132Y-147239107D01*
X90295747Y-147219401D01*
X90312223Y-147201223D01*
X90330401Y-147184747D01*
X90350107Y-147170132D01*
X90371150Y-147157520D01*
X90393329Y-147147030D01*
X90416428Y-147138765D01*
X90440227Y-147132804D01*
X90464495Y-147129204D01*
X90488999Y-147128000D01*
X91139001Y-147128000D01*
X91163505Y-147129204D01*
X91163505Y-147129204D01*
G37*
D12*
X90814000Y-147828000D03*
D11*
G36*
X89113505Y-147129204D02*
G01*
X89137773Y-147132804D01*
X89161572Y-147138765D01*
X89184671Y-147147030D01*
X89206850Y-147157520D01*
X89227893Y-147170132D01*
X89247599Y-147184747D01*
X89265777Y-147201223D01*
X89282253Y-147219401D01*
X89296868Y-147239107D01*
X89309480Y-147260150D01*
X89319970Y-147282329D01*
X89328235Y-147305428D01*
X89334196Y-147329227D01*
X89337796Y-147353495D01*
X89339000Y-147377999D01*
X89339000Y-148278001D01*
X89337796Y-148302505D01*
X89334196Y-148326773D01*
X89328235Y-148350572D01*
X89319970Y-148373671D01*
X89309480Y-148395850D01*
X89296868Y-148416893D01*
X89282253Y-148436599D01*
X89265777Y-148454777D01*
X89247599Y-148471253D01*
X89227893Y-148485868D01*
X89206850Y-148498480D01*
X89184671Y-148508970D01*
X89161572Y-148517235D01*
X89137773Y-148523196D01*
X89113505Y-148526796D01*
X89089001Y-148528000D01*
X88438999Y-148528000D01*
X88414495Y-148526796D01*
X88390227Y-148523196D01*
X88366428Y-148517235D01*
X88343329Y-148508970D01*
X88321150Y-148498480D01*
X88300107Y-148485868D01*
X88280401Y-148471253D01*
X88262223Y-148454777D01*
X88245747Y-148436599D01*
X88231132Y-148416893D01*
X88218520Y-148395850D01*
X88208030Y-148373671D01*
X88199765Y-148350572D01*
X88193804Y-148326773D01*
X88190204Y-148302505D01*
X88189000Y-148278001D01*
X88189000Y-147377999D01*
X88190204Y-147353495D01*
X88193804Y-147329227D01*
X88199765Y-147305428D01*
X88208030Y-147282329D01*
X88218520Y-147260150D01*
X88231132Y-147239107D01*
X88245747Y-147219401D01*
X88262223Y-147201223D01*
X88280401Y-147184747D01*
X88300107Y-147170132D01*
X88321150Y-147157520D01*
X88343329Y-147147030D01*
X88366428Y-147138765D01*
X88390227Y-147132804D01*
X88414495Y-147129204D01*
X88438999Y-147128000D01*
X89089001Y-147128000D01*
X89113505Y-147129204D01*
X89113505Y-147129204D01*
G37*
D12*
X88764000Y-147828000D03*
D11*
G36*
X82382505Y-144462204D02*
G01*
X82406773Y-144465804D01*
X82430572Y-144471765D01*
X82453671Y-144480030D01*
X82475850Y-144490520D01*
X82496893Y-144503132D01*
X82516599Y-144517747D01*
X82534777Y-144534223D01*
X82551253Y-144552401D01*
X82565868Y-144572107D01*
X82578480Y-144593150D01*
X82588970Y-144615329D01*
X82597235Y-144638428D01*
X82603196Y-144662227D01*
X82606796Y-144686495D01*
X82608000Y-144710999D01*
X82608000Y-145611001D01*
X82606796Y-145635505D01*
X82603196Y-145659773D01*
X82597235Y-145683572D01*
X82588970Y-145706671D01*
X82578480Y-145728850D01*
X82565868Y-145749893D01*
X82551253Y-145769599D01*
X82534777Y-145787777D01*
X82516599Y-145804253D01*
X82496893Y-145818868D01*
X82475850Y-145831480D01*
X82453671Y-145841970D01*
X82430572Y-145850235D01*
X82406773Y-145856196D01*
X82382505Y-145859796D01*
X82358001Y-145861000D01*
X81707999Y-145861000D01*
X81683495Y-145859796D01*
X81659227Y-145856196D01*
X81635428Y-145850235D01*
X81612329Y-145841970D01*
X81590150Y-145831480D01*
X81569107Y-145818868D01*
X81549401Y-145804253D01*
X81531223Y-145787777D01*
X81514747Y-145769599D01*
X81500132Y-145749893D01*
X81487520Y-145728850D01*
X81477030Y-145706671D01*
X81468765Y-145683572D01*
X81462804Y-145659773D01*
X81459204Y-145635505D01*
X81458000Y-145611001D01*
X81458000Y-144710999D01*
X81459204Y-144686495D01*
X81462804Y-144662227D01*
X81468765Y-144638428D01*
X81477030Y-144615329D01*
X81487520Y-144593150D01*
X81500132Y-144572107D01*
X81514747Y-144552401D01*
X81531223Y-144534223D01*
X81549401Y-144517747D01*
X81569107Y-144503132D01*
X81590150Y-144490520D01*
X81612329Y-144480030D01*
X81635428Y-144471765D01*
X81659227Y-144465804D01*
X81683495Y-144462204D01*
X81707999Y-144461000D01*
X82358001Y-144461000D01*
X82382505Y-144462204D01*
X82382505Y-144462204D01*
G37*
D12*
X82033000Y-145161000D03*
D11*
G36*
X84432505Y-144462204D02*
G01*
X84456773Y-144465804D01*
X84480572Y-144471765D01*
X84503671Y-144480030D01*
X84525850Y-144490520D01*
X84546893Y-144503132D01*
X84566599Y-144517747D01*
X84584777Y-144534223D01*
X84601253Y-144552401D01*
X84615868Y-144572107D01*
X84628480Y-144593150D01*
X84638970Y-144615329D01*
X84647235Y-144638428D01*
X84653196Y-144662227D01*
X84656796Y-144686495D01*
X84658000Y-144710999D01*
X84658000Y-145611001D01*
X84656796Y-145635505D01*
X84653196Y-145659773D01*
X84647235Y-145683572D01*
X84638970Y-145706671D01*
X84628480Y-145728850D01*
X84615868Y-145749893D01*
X84601253Y-145769599D01*
X84584777Y-145787777D01*
X84566599Y-145804253D01*
X84546893Y-145818868D01*
X84525850Y-145831480D01*
X84503671Y-145841970D01*
X84480572Y-145850235D01*
X84456773Y-145856196D01*
X84432505Y-145859796D01*
X84408001Y-145861000D01*
X83757999Y-145861000D01*
X83733495Y-145859796D01*
X83709227Y-145856196D01*
X83685428Y-145850235D01*
X83662329Y-145841970D01*
X83640150Y-145831480D01*
X83619107Y-145818868D01*
X83599401Y-145804253D01*
X83581223Y-145787777D01*
X83564747Y-145769599D01*
X83550132Y-145749893D01*
X83537520Y-145728850D01*
X83527030Y-145706671D01*
X83518765Y-145683572D01*
X83512804Y-145659773D01*
X83509204Y-145635505D01*
X83508000Y-145611001D01*
X83508000Y-144710999D01*
X83509204Y-144686495D01*
X83512804Y-144662227D01*
X83518765Y-144638428D01*
X83527030Y-144615329D01*
X83537520Y-144593150D01*
X83550132Y-144572107D01*
X83564747Y-144552401D01*
X83581223Y-144534223D01*
X83599401Y-144517747D01*
X83619107Y-144503132D01*
X83640150Y-144490520D01*
X83662329Y-144480030D01*
X83685428Y-144471765D01*
X83709227Y-144465804D01*
X83733495Y-144462204D01*
X83757999Y-144461000D01*
X84408001Y-144461000D01*
X84432505Y-144462204D01*
X84432505Y-144462204D01*
G37*
D12*
X84083000Y-145161000D03*
D11*
G36*
X84432505Y-138112204D02*
G01*
X84456773Y-138115804D01*
X84480572Y-138121765D01*
X84503671Y-138130030D01*
X84525850Y-138140520D01*
X84546893Y-138153132D01*
X84566599Y-138167747D01*
X84584777Y-138184223D01*
X84601253Y-138202401D01*
X84615868Y-138222107D01*
X84628480Y-138243150D01*
X84638970Y-138265329D01*
X84647235Y-138288428D01*
X84653196Y-138312227D01*
X84656796Y-138336495D01*
X84658000Y-138360999D01*
X84658000Y-139261001D01*
X84656796Y-139285505D01*
X84653196Y-139309773D01*
X84647235Y-139333572D01*
X84638970Y-139356671D01*
X84628480Y-139378850D01*
X84615868Y-139399893D01*
X84601253Y-139419599D01*
X84584777Y-139437777D01*
X84566599Y-139454253D01*
X84546893Y-139468868D01*
X84525850Y-139481480D01*
X84503671Y-139491970D01*
X84480572Y-139500235D01*
X84456773Y-139506196D01*
X84432505Y-139509796D01*
X84408001Y-139511000D01*
X83757999Y-139511000D01*
X83733495Y-139509796D01*
X83709227Y-139506196D01*
X83685428Y-139500235D01*
X83662329Y-139491970D01*
X83640150Y-139481480D01*
X83619107Y-139468868D01*
X83599401Y-139454253D01*
X83581223Y-139437777D01*
X83564747Y-139419599D01*
X83550132Y-139399893D01*
X83537520Y-139378850D01*
X83527030Y-139356671D01*
X83518765Y-139333572D01*
X83512804Y-139309773D01*
X83509204Y-139285505D01*
X83508000Y-139261001D01*
X83508000Y-138360999D01*
X83509204Y-138336495D01*
X83512804Y-138312227D01*
X83518765Y-138288428D01*
X83527030Y-138265329D01*
X83537520Y-138243150D01*
X83550132Y-138222107D01*
X83564747Y-138202401D01*
X83581223Y-138184223D01*
X83599401Y-138167747D01*
X83619107Y-138153132D01*
X83640150Y-138140520D01*
X83662329Y-138130030D01*
X83685428Y-138121765D01*
X83709227Y-138115804D01*
X83733495Y-138112204D01*
X83757999Y-138111000D01*
X84408001Y-138111000D01*
X84432505Y-138112204D01*
X84432505Y-138112204D01*
G37*
D12*
X84083000Y-138811000D03*
D11*
G36*
X82382505Y-138112204D02*
G01*
X82406773Y-138115804D01*
X82430572Y-138121765D01*
X82453671Y-138130030D01*
X82475850Y-138140520D01*
X82496893Y-138153132D01*
X82516599Y-138167747D01*
X82534777Y-138184223D01*
X82551253Y-138202401D01*
X82565868Y-138222107D01*
X82578480Y-138243150D01*
X82588970Y-138265329D01*
X82597235Y-138288428D01*
X82603196Y-138312227D01*
X82606796Y-138336495D01*
X82608000Y-138360999D01*
X82608000Y-139261001D01*
X82606796Y-139285505D01*
X82603196Y-139309773D01*
X82597235Y-139333572D01*
X82588970Y-139356671D01*
X82578480Y-139378850D01*
X82565868Y-139399893D01*
X82551253Y-139419599D01*
X82534777Y-139437777D01*
X82516599Y-139454253D01*
X82496893Y-139468868D01*
X82475850Y-139481480D01*
X82453671Y-139491970D01*
X82430572Y-139500235D01*
X82406773Y-139506196D01*
X82382505Y-139509796D01*
X82358001Y-139511000D01*
X81707999Y-139511000D01*
X81683495Y-139509796D01*
X81659227Y-139506196D01*
X81635428Y-139500235D01*
X81612329Y-139491970D01*
X81590150Y-139481480D01*
X81569107Y-139468868D01*
X81549401Y-139454253D01*
X81531223Y-139437777D01*
X81514747Y-139419599D01*
X81500132Y-139399893D01*
X81487520Y-139378850D01*
X81477030Y-139356671D01*
X81468765Y-139333572D01*
X81462804Y-139309773D01*
X81459204Y-139285505D01*
X81458000Y-139261001D01*
X81458000Y-138360999D01*
X81459204Y-138336495D01*
X81462804Y-138312227D01*
X81468765Y-138288428D01*
X81477030Y-138265329D01*
X81487520Y-138243150D01*
X81500132Y-138222107D01*
X81514747Y-138202401D01*
X81531223Y-138184223D01*
X81549401Y-138167747D01*
X81569107Y-138153132D01*
X81590150Y-138140520D01*
X81612329Y-138130030D01*
X81635428Y-138121765D01*
X81659227Y-138115804D01*
X81683495Y-138112204D01*
X81707999Y-138111000D01*
X82358001Y-138111000D01*
X82382505Y-138112204D01*
X82382505Y-138112204D01*
G37*
D12*
X82033000Y-138811000D03*
D11*
G36*
X95463505Y-149542204D02*
G01*
X95487773Y-149545804D01*
X95511572Y-149551765D01*
X95534671Y-149560030D01*
X95556850Y-149570520D01*
X95577893Y-149583132D01*
X95597599Y-149597747D01*
X95615777Y-149614223D01*
X95632253Y-149632401D01*
X95646868Y-149652107D01*
X95659480Y-149673150D01*
X95669970Y-149695329D01*
X95678235Y-149718428D01*
X95684196Y-149742227D01*
X95687796Y-149766495D01*
X95689000Y-149790999D01*
X95689000Y-150691001D01*
X95687796Y-150715505D01*
X95684196Y-150739773D01*
X95678235Y-150763572D01*
X95669970Y-150786671D01*
X95659480Y-150808850D01*
X95646868Y-150829893D01*
X95632253Y-150849599D01*
X95615777Y-150867777D01*
X95597599Y-150884253D01*
X95577893Y-150898868D01*
X95556850Y-150911480D01*
X95534671Y-150921970D01*
X95511572Y-150930235D01*
X95487773Y-150936196D01*
X95463505Y-150939796D01*
X95439001Y-150941000D01*
X94788999Y-150941000D01*
X94764495Y-150939796D01*
X94740227Y-150936196D01*
X94716428Y-150930235D01*
X94693329Y-150921970D01*
X94671150Y-150911480D01*
X94650107Y-150898868D01*
X94630401Y-150884253D01*
X94612223Y-150867777D01*
X94595747Y-150849599D01*
X94581132Y-150829893D01*
X94568520Y-150808850D01*
X94558030Y-150786671D01*
X94549765Y-150763572D01*
X94543804Y-150739773D01*
X94540204Y-150715505D01*
X94539000Y-150691001D01*
X94539000Y-149790999D01*
X94540204Y-149766495D01*
X94543804Y-149742227D01*
X94549765Y-149718428D01*
X94558030Y-149695329D01*
X94568520Y-149673150D01*
X94581132Y-149652107D01*
X94595747Y-149632401D01*
X94612223Y-149614223D01*
X94630401Y-149597747D01*
X94650107Y-149583132D01*
X94671150Y-149570520D01*
X94693329Y-149560030D01*
X94716428Y-149551765D01*
X94740227Y-149545804D01*
X94764495Y-149542204D01*
X94788999Y-149541000D01*
X95439001Y-149541000D01*
X95463505Y-149542204D01*
X95463505Y-149542204D01*
G37*
D12*
X95114000Y-150241000D03*
D11*
G36*
X97513505Y-149542204D02*
G01*
X97537773Y-149545804D01*
X97561572Y-149551765D01*
X97584671Y-149560030D01*
X97606850Y-149570520D01*
X97627893Y-149583132D01*
X97647599Y-149597747D01*
X97665777Y-149614223D01*
X97682253Y-149632401D01*
X97696868Y-149652107D01*
X97709480Y-149673150D01*
X97719970Y-149695329D01*
X97728235Y-149718428D01*
X97734196Y-149742227D01*
X97737796Y-149766495D01*
X97739000Y-149790999D01*
X97739000Y-150691001D01*
X97737796Y-150715505D01*
X97734196Y-150739773D01*
X97728235Y-150763572D01*
X97719970Y-150786671D01*
X97709480Y-150808850D01*
X97696868Y-150829893D01*
X97682253Y-150849599D01*
X97665777Y-150867777D01*
X97647599Y-150884253D01*
X97627893Y-150898868D01*
X97606850Y-150911480D01*
X97584671Y-150921970D01*
X97561572Y-150930235D01*
X97537773Y-150936196D01*
X97513505Y-150939796D01*
X97489001Y-150941000D01*
X96838999Y-150941000D01*
X96814495Y-150939796D01*
X96790227Y-150936196D01*
X96766428Y-150930235D01*
X96743329Y-150921970D01*
X96721150Y-150911480D01*
X96700107Y-150898868D01*
X96680401Y-150884253D01*
X96662223Y-150867777D01*
X96645747Y-150849599D01*
X96631132Y-150829893D01*
X96618520Y-150808850D01*
X96608030Y-150786671D01*
X96599765Y-150763572D01*
X96593804Y-150739773D01*
X96590204Y-150715505D01*
X96589000Y-150691001D01*
X96589000Y-149790999D01*
X96590204Y-149766495D01*
X96593804Y-149742227D01*
X96599765Y-149718428D01*
X96608030Y-149695329D01*
X96618520Y-149673150D01*
X96631132Y-149652107D01*
X96645747Y-149632401D01*
X96662223Y-149614223D01*
X96680401Y-149597747D01*
X96700107Y-149583132D01*
X96721150Y-149570520D01*
X96743329Y-149560030D01*
X96766428Y-149551765D01*
X96790227Y-149545804D01*
X96814495Y-149542204D01*
X96838999Y-149541000D01*
X97489001Y-149541000D01*
X97513505Y-149542204D01*
X97513505Y-149542204D01*
G37*
D12*
X97164000Y-150241000D03*
D11*
G36*
X107916505Y-142165204D02*
G01*
X107940773Y-142168804D01*
X107964572Y-142174765D01*
X107987671Y-142183030D01*
X108009850Y-142193520D01*
X108030893Y-142206132D01*
X108050599Y-142220747D01*
X108068777Y-142237223D01*
X108085253Y-142255401D01*
X108099868Y-142275107D01*
X108112480Y-142296150D01*
X108122970Y-142318329D01*
X108131235Y-142341428D01*
X108137196Y-142365227D01*
X108140796Y-142389495D01*
X108142000Y-142413999D01*
X108142000Y-143064001D01*
X108140796Y-143088505D01*
X108137196Y-143112773D01*
X108131235Y-143136572D01*
X108122970Y-143159671D01*
X108112480Y-143181850D01*
X108099868Y-143202893D01*
X108085253Y-143222599D01*
X108068777Y-143240777D01*
X108050599Y-143257253D01*
X108030893Y-143271868D01*
X108009850Y-143284480D01*
X107987671Y-143294970D01*
X107964572Y-143303235D01*
X107940773Y-143309196D01*
X107916505Y-143312796D01*
X107892001Y-143314000D01*
X106991999Y-143314000D01*
X106967495Y-143312796D01*
X106943227Y-143309196D01*
X106919428Y-143303235D01*
X106896329Y-143294970D01*
X106874150Y-143284480D01*
X106853107Y-143271868D01*
X106833401Y-143257253D01*
X106815223Y-143240777D01*
X106798747Y-143222599D01*
X106784132Y-143202893D01*
X106771520Y-143181850D01*
X106761030Y-143159671D01*
X106752765Y-143136572D01*
X106746804Y-143112773D01*
X106743204Y-143088505D01*
X106742000Y-143064001D01*
X106742000Y-142413999D01*
X106743204Y-142389495D01*
X106746804Y-142365227D01*
X106752765Y-142341428D01*
X106761030Y-142318329D01*
X106771520Y-142296150D01*
X106784132Y-142275107D01*
X106798747Y-142255401D01*
X106815223Y-142237223D01*
X106833401Y-142220747D01*
X106853107Y-142206132D01*
X106874150Y-142193520D01*
X106896329Y-142183030D01*
X106919428Y-142174765D01*
X106943227Y-142168804D01*
X106967495Y-142165204D01*
X106991999Y-142164000D01*
X107892001Y-142164000D01*
X107916505Y-142165204D01*
X107916505Y-142165204D01*
G37*
D12*
X107442000Y-142739000D03*
D11*
G36*
X107916505Y-144215204D02*
G01*
X107940773Y-144218804D01*
X107964572Y-144224765D01*
X107987671Y-144233030D01*
X108009850Y-144243520D01*
X108030893Y-144256132D01*
X108050599Y-144270747D01*
X108068777Y-144287223D01*
X108085253Y-144305401D01*
X108099868Y-144325107D01*
X108112480Y-144346150D01*
X108122970Y-144368329D01*
X108131235Y-144391428D01*
X108137196Y-144415227D01*
X108140796Y-144439495D01*
X108142000Y-144463999D01*
X108142000Y-145114001D01*
X108140796Y-145138505D01*
X108137196Y-145162773D01*
X108131235Y-145186572D01*
X108122970Y-145209671D01*
X108112480Y-145231850D01*
X108099868Y-145252893D01*
X108085253Y-145272599D01*
X108068777Y-145290777D01*
X108050599Y-145307253D01*
X108030893Y-145321868D01*
X108009850Y-145334480D01*
X107987671Y-145344970D01*
X107964572Y-145353235D01*
X107940773Y-145359196D01*
X107916505Y-145362796D01*
X107892001Y-145364000D01*
X106991999Y-145364000D01*
X106967495Y-145362796D01*
X106943227Y-145359196D01*
X106919428Y-145353235D01*
X106896329Y-145344970D01*
X106874150Y-145334480D01*
X106853107Y-145321868D01*
X106833401Y-145307253D01*
X106815223Y-145290777D01*
X106798747Y-145272599D01*
X106784132Y-145252893D01*
X106771520Y-145231850D01*
X106761030Y-145209671D01*
X106752765Y-145186572D01*
X106746804Y-145162773D01*
X106743204Y-145138505D01*
X106742000Y-145114001D01*
X106742000Y-144463999D01*
X106743204Y-144439495D01*
X106746804Y-144415227D01*
X106752765Y-144391428D01*
X106761030Y-144368329D01*
X106771520Y-144346150D01*
X106784132Y-144325107D01*
X106798747Y-144305401D01*
X106815223Y-144287223D01*
X106833401Y-144270747D01*
X106853107Y-144256132D01*
X106874150Y-144243520D01*
X106896329Y-144233030D01*
X106919428Y-144224765D01*
X106943227Y-144218804D01*
X106967495Y-144215204D01*
X106991999Y-144214000D01*
X107892001Y-144214000D01*
X107916505Y-144215204D01*
X107916505Y-144215204D01*
G37*
D12*
X107442000Y-144789000D03*
D11*
G36*
X94581505Y-132277204D02*
G01*
X94605773Y-132280804D01*
X94629572Y-132286765D01*
X94652671Y-132295030D01*
X94674850Y-132305520D01*
X94695893Y-132318132D01*
X94715599Y-132332747D01*
X94733777Y-132349223D01*
X94750253Y-132367401D01*
X94764868Y-132387107D01*
X94777480Y-132408150D01*
X94787970Y-132430329D01*
X94796235Y-132453428D01*
X94802196Y-132477227D01*
X94805796Y-132501495D01*
X94807000Y-132525999D01*
X94807000Y-133176001D01*
X94805796Y-133200505D01*
X94802196Y-133224773D01*
X94796235Y-133248572D01*
X94787970Y-133271671D01*
X94777480Y-133293850D01*
X94764868Y-133314893D01*
X94750253Y-133334599D01*
X94733777Y-133352777D01*
X94715599Y-133369253D01*
X94695893Y-133383868D01*
X94674850Y-133396480D01*
X94652671Y-133406970D01*
X94629572Y-133415235D01*
X94605773Y-133421196D01*
X94581505Y-133424796D01*
X94557001Y-133426000D01*
X93656999Y-133426000D01*
X93632495Y-133424796D01*
X93608227Y-133421196D01*
X93584428Y-133415235D01*
X93561329Y-133406970D01*
X93539150Y-133396480D01*
X93518107Y-133383868D01*
X93498401Y-133369253D01*
X93480223Y-133352777D01*
X93463747Y-133334599D01*
X93449132Y-133314893D01*
X93436520Y-133293850D01*
X93426030Y-133271671D01*
X93417765Y-133248572D01*
X93411804Y-133224773D01*
X93408204Y-133200505D01*
X93407000Y-133176001D01*
X93407000Y-132525999D01*
X93408204Y-132501495D01*
X93411804Y-132477227D01*
X93417765Y-132453428D01*
X93426030Y-132430329D01*
X93436520Y-132408150D01*
X93449132Y-132387107D01*
X93463747Y-132367401D01*
X93480223Y-132349223D01*
X93498401Y-132332747D01*
X93518107Y-132318132D01*
X93539150Y-132305520D01*
X93561329Y-132295030D01*
X93584428Y-132286765D01*
X93608227Y-132280804D01*
X93632495Y-132277204D01*
X93656999Y-132276000D01*
X94557001Y-132276000D01*
X94581505Y-132277204D01*
X94581505Y-132277204D01*
G37*
D12*
X94107000Y-132851000D03*
D11*
G36*
X94581505Y-130227204D02*
G01*
X94605773Y-130230804D01*
X94629572Y-130236765D01*
X94652671Y-130245030D01*
X94674850Y-130255520D01*
X94695893Y-130268132D01*
X94715599Y-130282747D01*
X94733777Y-130299223D01*
X94750253Y-130317401D01*
X94764868Y-130337107D01*
X94777480Y-130358150D01*
X94787970Y-130380329D01*
X94796235Y-130403428D01*
X94802196Y-130427227D01*
X94805796Y-130451495D01*
X94807000Y-130475999D01*
X94807000Y-131126001D01*
X94805796Y-131150505D01*
X94802196Y-131174773D01*
X94796235Y-131198572D01*
X94787970Y-131221671D01*
X94777480Y-131243850D01*
X94764868Y-131264893D01*
X94750253Y-131284599D01*
X94733777Y-131302777D01*
X94715599Y-131319253D01*
X94695893Y-131333868D01*
X94674850Y-131346480D01*
X94652671Y-131356970D01*
X94629572Y-131365235D01*
X94605773Y-131371196D01*
X94581505Y-131374796D01*
X94557001Y-131376000D01*
X93656999Y-131376000D01*
X93632495Y-131374796D01*
X93608227Y-131371196D01*
X93584428Y-131365235D01*
X93561329Y-131356970D01*
X93539150Y-131346480D01*
X93518107Y-131333868D01*
X93498401Y-131319253D01*
X93480223Y-131302777D01*
X93463747Y-131284599D01*
X93449132Y-131264893D01*
X93436520Y-131243850D01*
X93426030Y-131221671D01*
X93417765Y-131198572D01*
X93411804Y-131174773D01*
X93408204Y-131150505D01*
X93407000Y-131126001D01*
X93407000Y-130475999D01*
X93408204Y-130451495D01*
X93411804Y-130427227D01*
X93417765Y-130403428D01*
X93426030Y-130380329D01*
X93436520Y-130358150D01*
X93449132Y-130337107D01*
X93463747Y-130317401D01*
X93480223Y-130299223D01*
X93498401Y-130282747D01*
X93518107Y-130268132D01*
X93539150Y-130255520D01*
X93561329Y-130245030D01*
X93584428Y-130236765D01*
X93608227Y-130230804D01*
X93632495Y-130227204D01*
X93656999Y-130226000D01*
X94557001Y-130226000D01*
X94581505Y-130227204D01*
X94581505Y-130227204D01*
G37*
D12*
X94107000Y-130801000D03*
D11*
G36*
X81119505Y-117781204D02*
G01*
X81143773Y-117784804D01*
X81167572Y-117790765D01*
X81190671Y-117799030D01*
X81212850Y-117809520D01*
X81233893Y-117822132D01*
X81253599Y-117836747D01*
X81271777Y-117853223D01*
X81288253Y-117871401D01*
X81302868Y-117891107D01*
X81315480Y-117912150D01*
X81325970Y-117934329D01*
X81334235Y-117957428D01*
X81340196Y-117981227D01*
X81343796Y-118005495D01*
X81345000Y-118029999D01*
X81345000Y-118680001D01*
X81343796Y-118704505D01*
X81340196Y-118728773D01*
X81334235Y-118752572D01*
X81325970Y-118775671D01*
X81315480Y-118797850D01*
X81302868Y-118818893D01*
X81288253Y-118838599D01*
X81271777Y-118856777D01*
X81253599Y-118873253D01*
X81233893Y-118887868D01*
X81212850Y-118900480D01*
X81190671Y-118910970D01*
X81167572Y-118919235D01*
X81143773Y-118925196D01*
X81119505Y-118928796D01*
X81095001Y-118930000D01*
X80194999Y-118930000D01*
X80170495Y-118928796D01*
X80146227Y-118925196D01*
X80122428Y-118919235D01*
X80099329Y-118910970D01*
X80077150Y-118900480D01*
X80056107Y-118887868D01*
X80036401Y-118873253D01*
X80018223Y-118856777D01*
X80001747Y-118838599D01*
X79987132Y-118818893D01*
X79974520Y-118797850D01*
X79964030Y-118775671D01*
X79955765Y-118752572D01*
X79949804Y-118728773D01*
X79946204Y-118704505D01*
X79945000Y-118680001D01*
X79945000Y-118029999D01*
X79946204Y-118005495D01*
X79949804Y-117981227D01*
X79955765Y-117957428D01*
X79964030Y-117934329D01*
X79974520Y-117912150D01*
X79987132Y-117891107D01*
X80001747Y-117871401D01*
X80018223Y-117853223D01*
X80036401Y-117836747D01*
X80056107Y-117822132D01*
X80077150Y-117809520D01*
X80099329Y-117799030D01*
X80122428Y-117790765D01*
X80146227Y-117784804D01*
X80170495Y-117781204D01*
X80194999Y-117780000D01*
X81095001Y-117780000D01*
X81119505Y-117781204D01*
X81119505Y-117781204D01*
G37*
D12*
X80645000Y-118355000D03*
D11*
G36*
X81119505Y-119831204D02*
G01*
X81143773Y-119834804D01*
X81167572Y-119840765D01*
X81190671Y-119849030D01*
X81212850Y-119859520D01*
X81233893Y-119872132D01*
X81253599Y-119886747D01*
X81271777Y-119903223D01*
X81288253Y-119921401D01*
X81302868Y-119941107D01*
X81315480Y-119962150D01*
X81325970Y-119984329D01*
X81334235Y-120007428D01*
X81340196Y-120031227D01*
X81343796Y-120055495D01*
X81345000Y-120079999D01*
X81345000Y-120730001D01*
X81343796Y-120754505D01*
X81340196Y-120778773D01*
X81334235Y-120802572D01*
X81325970Y-120825671D01*
X81315480Y-120847850D01*
X81302868Y-120868893D01*
X81288253Y-120888599D01*
X81271777Y-120906777D01*
X81253599Y-120923253D01*
X81233893Y-120937868D01*
X81212850Y-120950480D01*
X81190671Y-120960970D01*
X81167572Y-120969235D01*
X81143773Y-120975196D01*
X81119505Y-120978796D01*
X81095001Y-120980000D01*
X80194999Y-120980000D01*
X80170495Y-120978796D01*
X80146227Y-120975196D01*
X80122428Y-120969235D01*
X80099329Y-120960970D01*
X80077150Y-120950480D01*
X80056107Y-120937868D01*
X80036401Y-120923253D01*
X80018223Y-120906777D01*
X80001747Y-120888599D01*
X79987132Y-120868893D01*
X79974520Y-120847850D01*
X79964030Y-120825671D01*
X79955765Y-120802572D01*
X79949804Y-120778773D01*
X79946204Y-120754505D01*
X79945000Y-120730001D01*
X79945000Y-120079999D01*
X79946204Y-120055495D01*
X79949804Y-120031227D01*
X79955765Y-120007428D01*
X79964030Y-119984329D01*
X79974520Y-119962150D01*
X79987132Y-119941107D01*
X80001747Y-119921401D01*
X80018223Y-119903223D01*
X80036401Y-119886747D01*
X80056107Y-119872132D01*
X80077150Y-119859520D01*
X80099329Y-119849030D01*
X80122428Y-119840765D01*
X80146227Y-119834804D01*
X80170495Y-119831204D01*
X80194999Y-119830000D01*
X81095001Y-119830000D01*
X81119505Y-119831204D01*
X81119505Y-119831204D01*
G37*
D12*
X80645000Y-120405000D03*
D11*
G36*
X99407505Y-130227204D02*
G01*
X99431773Y-130230804D01*
X99455572Y-130236765D01*
X99478671Y-130245030D01*
X99500850Y-130255520D01*
X99521893Y-130268132D01*
X99541599Y-130282747D01*
X99559777Y-130299223D01*
X99576253Y-130317401D01*
X99590868Y-130337107D01*
X99603480Y-130358150D01*
X99613970Y-130380329D01*
X99622235Y-130403428D01*
X99628196Y-130427227D01*
X99631796Y-130451495D01*
X99633000Y-130475999D01*
X99633000Y-131126001D01*
X99631796Y-131150505D01*
X99628196Y-131174773D01*
X99622235Y-131198572D01*
X99613970Y-131221671D01*
X99603480Y-131243850D01*
X99590868Y-131264893D01*
X99576253Y-131284599D01*
X99559777Y-131302777D01*
X99541599Y-131319253D01*
X99521893Y-131333868D01*
X99500850Y-131346480D01*
X99478671Y-131356970D01*
X99455572Y-131365235D01*
X99431773Y-131371196D01*
X99407505Y-131374796D01*
X99383001Y-131376000D01*
X98482999Y-131376000D01*
X98458495Y-131374796D01*
X98434227Y-131371196D01*
X98410428Y-131365235D01*
X98387329Y-131356970D01*
X98365150Y-131346480D01*
X98344107Y-131333868D01*
X98324401Y-131319253D01*
X98306223Y-131302777D01*
X98289747Y-131284599D01*
X98275132Y-131264893D01*
X98262520Y-131243850D01*
X98252030Y-131221671D01*
X98243765Y-131198572D01*
X98237804Y-131174773D01*
X98234204Y-131150505D01*
X98233000Y-131126001D01*
X98233000Y-130475999D01*
X98234204Y-130451495D01*
X98237804Y-130427227D01*
X98243765Y-130403428D01*
X98252030Y-130380329D01*
X98262520Y-130358150D01*
X98275132Y-130337107D01*
X98289747Y-130317401D01*
X98306223Y-130299223D01*
X98324401Y-130282747D01*
X98344107Y-130268132D01*
X98365150Y-130255520D01*
X98387329Y-130245030D01*
X98410428Y-130236765D01*
X98434227Y-130230804D01*
X98458495Y-130227204D01*
X98482999Y-130226000D01*
X99383001Y-130226000D01*
X99407505Y-130227204D01*
X99407505Y-130227204D01*
G37*
D12*
X98933000Y-130801000D03*
D11*
G36*
X99407505Y-132277204D02*
G01*
X99431773Y-132280804D01*
X99455572Y-132286765D01*
X99478671Y-132295030D01*
X99500850Y-132305520D01*
X99521893Y-132318132D01*
X99541599Y-132332747D01*
X99559777Y-132349223D01*
X99576253Y-132367401D01*
X99590868Y-132387107D01*
X99603480Y-132408150D01*
X99613970Y-132430329D01*
X99622235Y-132453428D01*
X99628196Y-132477227D01*
X99631796Y-132501495D01*
X99633000Y-132525999D01*
X99633000Y-133176001D01*
X99631796Y-133200505D01*
X99628196Y-133224773D01*
X99622235Y-133248572D01*
X99613970Y-133271671D01*
X99603480Y-133293850D01*
X99590868Y-133314893D01*
X99576253Y-133334599D01*
X99559777Y-133352777D01*
X99541599Y-133369253D01*
X99521893Y-133383868D01*
X99500850Y-133396480D01*
X99478671Y-133406970D01*
X99455572Y-133415235D01*
X99431773Y-133421196D01*
X99407505Y-133424796D01*
X99383001Y-133426000D01*
X98482999Y-133426000D01*
X98458495Y-133424796D01*
X98434227Y-133421196D01*
X98410428Y-133415235D01*
X98387329Y-133406970D01*
X98365150Y-133396480D01*
X98344107Y-133383868D01*
X98324401Y-133369253D01*
X98306223Y-133352777D01*
X98289747Y-133334599D01*
X98275132Y-133314893D01*
X98262520Y-133293850D01*
X98252030Y-133271671D01*
X98243765Y-133248572D01*
X98237804Y-133224773D01*
X98234204Y-133200505D01*
X98233000Y-133176001D01*
X98233000Y-132525999D01*
X98234204Y-132501495D01*
X98237804Y-132477227D01*
X98243765Y-132453428D01*
X98252030Y-132430329D01*
X98262520Y-132408150D01*
X98275132Y-132387107D01*
X98289747Y-132367401D01*
X98306223Y-132349223D01*
X98324401Y-132332747D01*
X98344107Y-132318132D01*
X98365150Y-132305520D01*
X98387329Y-132295030D01*
X98410428Y-132286765D01*
X98434227Y-132280804D01*
X98458495Y-132277204D01*
X98482999Y-132276000D01*
X99383001Y-132276000D01*
X99407505Y-132277204D01*
X99407505Y-132277204D01*
G37*
D12*
X98933000Y-132851000D03*
D11*
G36*
X96994505Y-130227204D02*
G01*
X97018773Y-130230804D01*
X97042572Y-130236765D01*
X97065671Y-130245030D01*
X97087850Y-130255520D01*
X97108893Y-130268132D01*
X97128599Y-130282747D01*
X97146777Y-130299223D01*
X97163253Y-130317401D01*
X97177868Y-130337107D01*
X97190480Y-130358150D01*
X97200970Y-130380329D01*
X97209235Y-130403428D01*
X97215196Y-130427227D01*
X97218796Y-130451495D01*
X97220000Y-130475999D01*
X97220000Y-131126001D01*
X97218796Y-131150505D01*
X97215196Y-131174773D01*
X97209235Y-131198572D01*
X97200970Y-131221671D01*
X97190480Y-131243850D01*
X97177868Y-131264893D01*
X97163253Y-131284599D01*
X97146777Y-131302777D01*
X97128599Y-131319253D01*
X97108893Y-131333868D01*
X97087850Y-131346480D01*
X97065671Y-131356970D01*
X97042572Y-131365235D01*
X97018773Y-131371196D01*
X96994505Y-131374796D01*
X96970001Y-131376000D01*
X96069999Y-131376000D01*
X96045495Y-131374796D01*
X96021227Y-131371196D01*
X95997428Y-131365235D01*
X95974329Y-131356970D01*
X95952150Y-131346480D01*
X95931107Y-131333868D01*
X95911401Y-131319253D01*
X95893223Y-131302777D01*
X95876747Y-131284599D01*
X95862132Y-131264893D01*
X95849520Y-131243850D01*
X95839030Y-131221671D01*
X95830765Y-131198572D01*
X95824804Y-131174773D01*
X95821204Y-131150505D01*
X95820000Y-131126001D01*
X95820000Y-130475999D01*
X95821204Y-130451495D01*
X95824804Y-130427227D01*
X95830765Y-130403428D01*
X95839030Y-130380329D01*
X95849520Y-130358150D01*
X95862132Y-130337107D01*
X95876747Y-130317401D01*
X95893223Y-130299223D01*
X95911401Y-130282747D01*
X95931107Y-130268132D01*
X95952150Y-130255520D01*
X95974329Y-130245030D01*
X95997428Y-130236765D01*
X96021227Y-130230804D01*
X96045495Y-130227204D01*
X96069999Y-130226000D01*
X96970001Y-130226000D01*
X96994505Y-130227204D01*
X96994505Y-130227204D01*
G37*
D12*
X96520000Y-130801000D03*
D11*
G36*
X96994505Y-132277204D02*
G01*
X97018773Y-132280804D01*
X97042572Y-132286765D01*
X97065671Y-132295030D01*
X97087850Y-132305520D01*
X97108893Y-132318132D01*
X97128599Y-132332747D01*
X97146777Y-132349223D01*
X97163253Y-132367401D01*
X97177868Y-132387107D01*
X97190480Y-132408150D01*
X97200970Y-132430329D01*
X97209235Y-132453428D01*
X97215196Y-132477227D01*
X97218796Y-132501495D01*
X97220000Y-132525999D01*
X97220000Y-133176001D01*
X97218796Y-133200505D01*
X97215196Y-133224773D01*
X97209235Y-133248572D01*
X97200970Y-133271671D01*
X97190480Y-133293850D01*
X97177868Y-133314893D01*
X97163253Y-133334599D01*
X97146777Y-133352777D01*
X97128599Y-133369253D01*
X97108893Y-133383868D01*
X97087850Y-133396480D01*
X97065671Y-133406970D01*
X97042572Y-133415235D01*
X97018773Y-133421196D01*
X96994505Y-133424796D01*
X96970001Y-133426000D01*
X96069999Y-133426000D01*
X96045495Y-133424796D01*
X96021227Y-133421196D01*
X95997428Y-133415235D01*
X95974329Y-133406970D01*
X95952150Y-133396480D01*
X95931107Y-133383868D01*
X95911401Y-133369253D01*
X95893223Y-133352777D01*
X95876747Y-133334599D01*
X95862132Y-133314893D01*
X95849520Y-133293850D01*
X95839030Y-133271671D01*
X95830765Y-133248572D01*
X95824804Y-133224773D01*
X95821204Y-133200505D01*
X95820000Y-133176001D01*
X95820000Y-132525999D01*
X95821204Y-132501495D01*
X95824804Y-132477227D01*
X95830765Y-132453428D01*
X95839030Y-132430329D01*
X95849520Y-132408150D01*
X95862132Y-132387107D01*
X95876747Y-132367401D01*
X95893223Y-132349223D01*
X95911401Y-132332747D01*
X95931107Y-132318132D01*
X95952150Y-132305520D01*
X95974329Y-132295030D01*
X95997428Y-132286765D01*
X96021227Y-132280804D01*
X96045495Y-132277204D01*
X96069999Y-132276000D01*
X96970001Y-132276000D01*
X96994505Y-132277204D01*
X96994505Y-132277204D01*
G37*
D12*
X96520000Y-132851000D03*
D11*
G36*
X86072505Y-117781204D02*
G01*
X86096773Y-117784804D01*
X86120572Y-117790765D01*
X86143671Y-117799030D01*
X86165850Y-117809520D01*
X86186893Y-117822132D01*
X86206599Y-117836747D01*
X86224777Y-117853223D01*
X86241253Y-117871401D01*
X86255868Y-117891107D01*
X86268480Y-117912150D01*
X86278970Y-117934329D01*
X86287235Y-117957428D01*
X86293196Y-117981227D01*
X86296796Y-118005495D01*
X86298000Y-118029999D01*
X86298000Y-118680001D01*
X86296796Y-118704505D01*
X86293196Y-118728773D01*
X86287235Y-118752572D01*
X86278970Y-118775671D01*
X86268480Y-118797850D01*
X86255868Y-118818893D01*
X86241253Y-118838599D01*
X86224777Y-118856777D01*
X86206599Y-118873253D01*
X86186893Y-118887868D01*
X86165850Y-118900480D01*
X86143671Y-118910970D01*
X86120572Y-118919235D01*
X86096773Y-118925196D01*
X86072505Y-118928796D01*
X86048001Y-118930000D01*
X85147999Y-118930000D01*
X85123495Y-118928796D01*
X85099227Y-118925196D01*
X85075428Y-118919235D01*
X85052329Y-118910970D01*
X85030150Y-118900480D01*
X85009107Y-118887868D01*
X84989401Y-118873253D01*
X84971223Y-118856777D01*
X84954747Y-118838599D01*
X84940132Y-118818893D01*
X84927520Y-118797850D01*
X84917030Y-118775671D01*
X84908765Y-118752572D01*
X84902804Y-118728773D01*
X84899204Y-118704505D01*
X84898000Y-118680001D01*
X84898000Y-118029999D01*
X84899204Y-118005495D01*
X84902804Y-117981227D01*
X84908765Y-117957428D01*
X84917030Y-117934329D01*
X84927520Y-117912150D01*
X84940132Y-117891107D01*
X84954747Y-117871401D01*
X84971223Y-117853223D01*
X84989401Y-117836747D01*
X85009107Y-117822132D01*
X85030150Y-117809520D01*
X85052329Y-117799030D01*
X85075428Y-117790765D01*
X85099227Y-117784804D01*
X85123495Y-117781204D01*
X85147999Y-117780000D01*
X86048001Y-117780000D01*
X86072505Y-117781204D01*
X86072505Y-117781204D01*
G37*
D12*
X85598000Y-118355000D03*
D11*
G36*
X86072505Y-119831204D02*
G01*
X86096773Y-119834804D01*
X86120572Y-119840765D01*
X86143671Y-119849030D01*
X86165850Y-119859520D01*
X86186893Y-119872132D01*
X86206599Y-119886747D01*
X86224777Y-119903223D01*
X86241253Y-119921401D01*
X86255868Y-119941107D01*
X86268480Y-119962150D01*
X86278970Y-119984329D01*
X86287235Y-120007428D01*
X86293196Y-120031227D01*
X86296796Y-120055495D01*
X86298000Y-120079999D01*
X86298000Y-120730001D01*
X86296796Y-120754505D01*
X86293196Y-120778773D01*
X86287235Y-120802572D01*
X86278970Y-120825671D01*
X86268480Y-120847850D01*
X86255868Y-120868893D01*
X86241253Y-120888599D01*
X86224777Y-120906777D01*
X86206599Y-120923253D01*
X86186893Y-120937868D01*
X86165850Y-120950480D01*
X86143671Y-120960970D01*
X86120572Y-120969235D01*
X86096773Y-120975196D01*
X86072505Y-120978796D01*
X86048001Y-120980000D01*
X85147999Y-120980000D01*
X85123495Y-120978796D01*
X85099227Y-120975196D01*
X85075428Y-120969235D01*
X85052329Y-120960970D01*
X85030150Y-120950480D01*
X85009107Y-120937868D01*
X84989401Y-120923253D01*
X84971223Y-120906777D01*
X84954747Y-120888599D01*
X84940132Y-120868893D01*
X84927520Y-120847850D01*
X84917030Y-120825671D01*
X84908765Y-120802572D01*
X84902804Y-120778773D01*
X84899204Y-120754505D01*
X84898000Y-120730001D01*
X84898000Y-120079999D01*
X84899204Y-120055495D01*
X84902804Y-120031227D01*
X84908765Y-120007428D01*
X84917030Y-119984329D01*
X84927520Y-119962150D01*
X84940132Y-119941107D01*
X84954747Y-119921401D01*
X84971223Y-119903223D01*
X84989401Y-119886747D01*
X85009107Y-119872132D01*
X85030150Y-119859520D01*
X85052329Y-119849030D01*
X85075428Y-119840765D01*
X85099227Y-119834804D01*
X85123495Y-119831204D01*
X85147999Y-119830000D01*
X86048001Y-119830000D01*
X86072505Y-119831204D01*
X86072505Y-119831204D01*
G37*
D12*
X85598000Y-120405000D03*
D11*
G36*
X83532505Y-117781204D02*
G01*
X83556773Y-117784804D01*
X83580572Y-117790765D01*
X83603671Y-117799030D01*
X83625850Y-117809520D01*
X83646893Y-117822132D01*
X83666599Y-117836747D01*
X83684777Y-117853223D01*
X83701253Y-117871401D01*
X83715868Y-117891107D01*
X83728480Y-117912150D01*
X83738970Y-117934329D01*
X83747235Y-117957428D01*
X83753196Y-117981227D01*
X83756796Y-118005495D01*
X83758000Y-118029999D01*
X83758000Y-118680001D01*
X83756796Y-118704505D01*
X83753196Y-118728773D01*
X83747235Y-118752572D01*
X83738970Y-118775671D01*
X83728480Y-118797850D01*
X83715868Y-118818893D01*
X83701253Y-118838599D01*
X83684777Y-118856777D01*
X83666599Y-118873253D01*
X83646893Y-118887868D01*
X83625850Y-118900480D01*
X83603671Y-118910970D01*
X83580572Y-118919235D01*
X83556773Y-118925196D01*
X83532505Y-118928796D01*
X83508001Y-118930000D01*
X82607999Y-118930000D01*
X82583495Y-118928796D01*
X82559227Y-118925196D01*
X82535428Y-118919235D01*
X82512329Y-118910970D01*
X82490150Y-118900480D01*
X82469107Y-118887868D01*
X82449401Y-118873253D01*
X82431223Y-118856777D01*
X82414747Y-118838599D01*
X82400132Y-118818893D01*
X82387520Y-118797850D01*
X82377030Y-118775671D01*
X82368765Y-118752572D01*
X82362804Y-118728773D01*
X82359204Y-118704505D01*
X82358000Y-118680001D01*
X82358000Y-118029999D01*
X82359204Y-118005495D01*
X82362804Y-117981227D01*
X82368765Y-117957428D01*
X82377030Y-117934329D01*
X82387520Y-117912150D01*
X82400132Y-117891107D01*
X82414747Y-117871401D01*
X82431223Y-117853223D01*
X82449401Y-117836747D01*
X82469107Y-117822132D01*
X82490150Y-117809520D01*
X82512329Y-117799030D01*
X82535428Y-117790765D01*
X82559227Y-117784804D01*
X82583495Y-117781204D01*
X82607999Y-117780000D01*
X83508001Y-117780000D01*
X83532505Y-117781204D01*
X83532505Y-117781204D01*
G37*
D12*
X83058000Y-118355000D03*
D11*
G36*
X83532505Y-119831204D02*
G01*
X83556773Y-119834804D01*
X83580572Y-119840765D01*
X83603671Y-119849030D01*
X83625850Y-119859520D01*
X83646893Y-119872132D01*
X83666599Y-119886747D01*
X83684777Y-119903223D01*
X83701253Y-119921401D01*
X83715868Y-119941107D01*
X83728480Y-119962150D01*
X83738970Y-119984329D01*
X83747235Y-120007428D01*
X83753196Y-120031227D01*
X83756796Y-120055495D01*
X83758000Y-120079999D01*
X83758000Y-120730001D01*
X83756796Y-120754505D01*
X83753196Y-120778773D01*
X83747235Y-120802572D01*
X83738970Y-120825671D01*
X83728480Y-120847850D01*
X83715868Y-120868893D01*
X83701253Y-120888599D01*
X83684777Y-120906777D01*
X83666599Y-120923253D01*
X83646893Y-120937868D01*
X83625850Y-120950480D01*
X83603671Y-120960970D01*
X83580572Y-120969235D01*
X83556773Y-120975196D01*
X83532505Y-120978796D01*
X83508001Y-120980000D01*
X82607999Y-120980000D01*
X82583495Y-120978796D01*
X82559227Y-120975196D01*
X82535428Y-120969235D01*
X82512329Y-120960970D01*
X82490150Y-120950480D01*
X82469107Y-120937868D01*
X82449401Y-120923253D01*
X82431223Y-120906777D01*
X82414747Y-120888599D01*
X82400132Y-120868893D01*
X82387520Y-120847850D01*
X82377030Y-120825671D01*
X82368765Y-120802572D01*
X82362804Y-120778773D01*
X82359204Y-120754505D01*
X82358000Y-120730001D01*
X82358000Y-120079999D01*
X82359204Y-120055495D01*
X82362804Y-120031227D01*
X82368765Y-120007428D01*
X82377030Y-119984329D01*
X82387520Y-119962150D01*
X82400132Y-119941107D01*
X82414747Y-119921401D01*
X82431223Y-119903223D01*
X82449401Y-119886747D01*
X82469107Y-119872132D01*
X82490150Y-119859520D01*
X82512329Y-119849030D01*
X82535428Y-119840765D01*
X82559227Y-119834804D01*
X82583495Y-119831204D01*
X82607999Y-119830000D01*
X83508001Y-119830000D01*
X83532505Y-119831204D01*
X83532505Y-119831204D01*
G37*
D12*
X83058000Y-120405000D03*
D11*
G36*
X92168505Y-167438204D02*
G01*
X92192773Y-167441804D01*
X92216572Y-167447765D01*
X92239671Y-167456030D01*
X92261850Y-167466520D01*
X92282893Y-167479132D01*
X92302599Y-167493747D01*
X92320777Y-167510223D01*
X92337253Y-167528401D01*
X92351868Y-167548107D01*
X92364480Y-167569150D01*
X92374970Y-167591329D01*
X92383235Y-167614428D01*
X92389196Y-167638227D01*
X92392796Y-167662495D01*
X92394000Y-167686999D01*
X92394000Y-168337001D01*
X92392796Y-168361505D01*
X92389196Y-168385773D01*
X92383235Y-168409572D01*
X92374970Y-168432671D01*
X92364480Y-168454850D01*
X92351868Y-168475893D01*
X92337253Y-168495599D01*
X92320777Y-168513777D01*
X92302599Y-168530253D01*
X92282893Y-168544868D01*
X92261850Y-168557480D01*
X92239671Y-168567970D01*
X92216572Y-168576235D01*
X92192773Y-168582196D01*
X92168505Y-168585796D01*
X92144001Y-168587000D01*
X91243999Y-168587000D01*
X91219495Y-168585796D01*
X91195227Y-168582196D01*
X91171428Y-168576235D01*
X91148329Y-168567970D01*
X91126150Y-168557480D01*
X91105107Y-168544868D01*
X91085401Y-168530253D01*
X91067223Y-168513777D01*
X91050747Y-168495599D01*
X91036132Y-168475893D01*
X91023520Y-168454850D01*
X91013030Y-168432671D01*
X91004765Y-168409572D01*
X90998804Y-168385773D01*
X90995204Y-168361505D01*
X90994000Y-168337001D01*
X90994000Y-167686999D01*
X90995204Y-167662495D01*
X90998804Y-167638227D01*
X91004765Y-167614428D01*
X91013030Y-167591329D01*
X91023520Y-167569150D01*
X91036132Y-167548107D01*
X91050747Y-167528401D01*
X91067223Y-167510223D01*
X91085401Y-167493747D01*
X91105107Y-167479132D01*
X91126150Y-167466520D01*
X91148329Y-167456030D01*
X91171428Y-167447765D01*
X91195227Y-167441804D01*
X91219495Y-167438204D01*
X91243999Y-167437000D01*
X92144001Y-167437000D01*
X92168505Y-167438204D01*
X92168505Y-167438204D01*
G37*
D12*
X91694000Y-168012000D03*
D11*
G36*
X92168505Y-169488204D02*
G01*
X92192773Y-169491804D01*
X92216572Y-169497765D01*
X92239671Y-169506030D01*
X92261850Y-169516520D01*
X92282893Y-169529132D01*
X92302599Y-169543747D01*
X92320777Y-169560223D01*
X92337253Y-169578401D01*
X92351868Y-169598107D01*
X92364480Y-169619150D01*
X92374970Y-169641329D01*
X92383235Y-169664428D01*
X92389196Y-169688227D01*
X92392796Y-169712495D01*
X92394000Y-169736999D01*
X92394000Y-170387001D01*
X92392796Y-170411505D01*
X92389196Y-170435773D01*
X92383235Y-170459572D01*
X92374970Y-170482671D01*
X92364480Y-170504850D01*
X92351868Y-170525893D01*
X92337253Y-170545599D01*
X92320777Y-170563777D01*
X92302599Y-170580253D01*
X92282893Y-170594868D01*
X92261850Y-170607480D01*
X92239671Y-170617970D01*
X92216572Y-170626235D01*
X92192773Y-170632196D01*
X92168505Y-170635796D01*
X92144001Y-170637000D01*
X91243999Y-170637000D01*
X91219495Y-170635796D01*
X91195227Y-170632196D01*
X91171428Y-170626235D01*
X91148329Y-170617970D01*
X91126150Y-170607480D01*
X91105107Y-170594868D01*
X91085401Y-170580253D01*
X91067223Y-170563777D01*
X91050747Y-170545599D01*
X91036132Y-170525893D01*
X91023520Y-170504850D01*
X91013030Y-170482671D01*
X91004765Y-170459572D01*
X90998804Y-170435773D01*
X90995204Y-170411505D01*
X90994000Y-170387001D01*
X90994000Y-169736999D01*
X90995204Y-169712495D01*
X90998804Y-169688227D01*
X91004765Y-169664428D01*
X91013030Y-169641329D01*
X91023520Y-169619150D01*
X91036132Y-169598107D01*
X91050747Y-169578401D01*
X91067223Y-169560223D01*
X91085401Y-169543747D01*
X91105107Y-169529132D01*
X91126150Y-169516520D01*
X91148329Y-169506030D01*
X91171428Y-169497765D01*
X91195227Y-169491804D01*
X91219495Y-169488204D01*
X91243999Y-169487000D01*
X92144001Y-169487000D01*
X92168505Y-169488204D01*
X92168505Y-169488204D01*
G37*
D12*
X91694000Y-170062000D03*
D11*
G36*
X90136505Y-167438204D02*
G01*
X90160773Y-167441804D01*
X90184572Y-167447765D01*
X90207671Y-167456030D01*
X90229850Y-167466520D01*
X90250893Y-167479132D01*
X90270599Y-167493747D01*
X90288777Y-167510223D01*
X90305253Y-167528401D01*
X90319868Y-167548107D01*
X90332480Y-167569150D01*
X90342970Y-167591329D01*
X90351235Y-167614428D01*
X90357196Y-167638227D01*
X90360796Y-167662495D01*
X90362000Y-167686999D01*
X90362000Y-168337001D01*
X90360796Y-168361505D01*
X90357196Y-168385773D01*
X90351235Y-168409572D01*
X90342970Y-168432671D01*
X90332480Y-168454850D01*
X90319868Y-168475893D01*
X90305253Y-168495599D01*
X90288777Y-168513777D01*
X90270599Y-168530253D01*
X90250893Y-168544868D01*
X90229850Y-168557480D01*
X90207671Y-168567970D01*
X90184572Y-168576235D01*
X90160773Y-168582196D01*
X90136505Y-168585796D01*
X90112001Y-168587000D01*
X89211999Y-168587000D01*
X89187495Y-168585796D01*
X89163227Y-168582196D01*
X89139428Y-168576235D01*
X89116329Y-168567970D01*
X89094150Y-168557480D01*
X89073107Y-168544868D01*
X89053401Y-168530253D01*
X89035223Y-168513777D01*
X89018747Y-168495599D01*
X89004132Y-168475893D01*
X88991520Y-168454850D01*
X88981030Y-168432671D01*
X88972765Y-168409572D01*
X88966804Y-168385773D01*
X88963204Y-168361505D01*
X88962000Y-168337001D01*
X88962000Y-167686999D01*
X88963204Y-167662495D01*
X88966804Y-167638227D01*
X88972765Y-167614428D01*
X88981030Y-167591329D01*
X88991520Y-167569150D01*
X89004132Y-167548107D01*
X89018747Y-167528401D01*
X89035223Y-167510223D01*
X89053401Y-167493747D01*
X89073107Y-167479132D01*
X89094150Y-167466520D01*
X89116329Y-167456030D01*
X89139428Y-167447765D01*
X89163227Y-167441804D01*
X89187495Y-167438204D01*
X89211999Y-167437000D01*
X90112001Y-167437000D01*
X90136505Y-167438204D01*
X90136505Y-167438204D01*
G37*
D12*
X89662000Y-168012000D03*
D11*
G36*
X90136505Y-169488204D02*
G01*
X90160773Y-169491804D01*
X90184572Y-169497765D01*
X90207671Y-169506030D01*
X90229850Y-169516520D01*
X90250893Y-169529132D01*
X90270599Y-169543747D01*
X90288777Y-169560223D01*
X90305253Y-169578401D01*
X90319868Y-169598107D01*
X90332480Y-169619150D01*
X90342970Y-169641329D01*
X90351235Y-169664428D01*
X90357196Y-169688227D01*
X90360796Y-169712495D01*
X90362000Y-169736999D01*
X90362000Y-170387001D01*
X90360796Y-170411505D01*
X90357196Y-170435773D01*
X90351235Y-170459572D01*
X90342970Y-170482671D01*
X90332480Y-170504850D01*
X90319868Y-170525893D01*
X90305253Y-170545599D01*
X90288777Y-170563777D01*
X90270599Y-170580253D01*
X90250893Y-170594868D01*
X90229850Y-170607480D01*
X90207671Y-170617970D01*
X90184572Y-170626235D01*
X90160773Y-170632196D01*
X90136505Y-170635796D01*
X90112001Y-170637000D01*
X89211999Y-170637000D01*
X89187495Y-170635796D01*
X89163227Y-170632196D01*
X89139428Y-170626235D01*
X89116329Y-170617970D01*
X89094150Y-170607480D01*
X89073107Y-170594868D01*
X89053401Y-170580253D01*
X89035223Y-170563777D01*
X89018747Y-170545599D01*
X89004132Y-170525893D01*
X88991520Y-170504850D01*
X88981030Y-170482671D01*
X88972765Y-170459572D01*
X88966804Y-170435773D01*
X88963204Y-170411505D01*
X88962000Y-170387001D01*
X88962000Y-169736999D01*
X88963204Y-169712495D01*
X88966804Y-169688227D01*
X88972765Y-169664428D01*
X88981030Y-169641329D01*
X88991520Y-169619150D01*
X89004132Y-169598107D01*
X89018747Y-169578401D01*
X89035223Y-169560223D01*
X89053401Y-169543747D01*
X89073107Y-169529132D01*
X89094150Y-169516520D01*
X89116329Y-169506030D01*
X89139428Y-169497765D01*
X89163227Y-169491804D01*
X89187495Y-169488204D01*
X89211999Y-169487000D01*
X90112001Y-169487000D01*
X90136505Y-169488204D01*
X90136505Y-169488204D01*
G37*
D12*
X89662000Y-170062000D03*
D11*
G36*
X88104505Y-169488204D02*
G01*
X88128773Y-169491804D01*
X88152572Y-169497765D01*
X88175671Y-169506030D01*
X88197850Y-169516520D01*
X88218893Y-169529132D01*
X88238599Y-169543747D01*
X88256777Y-169560223D01*
X88273253Y-169578401D01*
X88287868Y-169598107D01*
X88300480Y-169619150D01*
X88310970Y-169641329D01*
X88319235Y-169664428D01*
X88325196Y-169688227D01*
X88328796Y-169712495D01*
X88330000Y-169736999D01*
X88330000Y-170387001D01*
X88328796Y-170411505D01*
X88325196Y-170435773D01*
X88319235Y-170459572D01*
X88310970Y-170482671D01*
X88300480Y-170504850D01*
X88287868Y-170525893D01*
X88273253Y-170545599D01*
X88256777Y-170563777D01*
X88238599Y-170580253D01*
X88218893Y-170594868D01*
X88197850Y-170607480D01*
X88175671Y-170617970D01*
X88152572Y-170626235D01*
X88128773Y-170632196D01*
X88104505Y-170635796D01*
X88080001Y-170637000D01*
X87179999Y-170637000D01*
X87155495Y-170635796D01*
X87131227Y-170632196D01*
X87107428Y-170626235D01*
X87084329Y-170617970D01*
X87062150Y-170607480D01*
X87041107Y-170594868D01*
X87021401Y-170580253D01*
X87003223Y-170563777D01*
X86986747Y-170545599D01*
X86972132Y-170525893D01*
X86959520Y-170504850D01*
X86949030Y-170482671D01*
X86940765Y-170459572D01*
X86934804Y-170435773D01*
X86931204Y-170411505D01*
X86930000Y-170387001D01*
X86930000Y-169736999D01*
X86931204Y-169712495D01*
X86934804Y-169688227D01*
X86940765Y-169664428D01*
X86949030Y-169641329D01*
X86959520Y-169619150D01*
X86972132Y-169598107D01*
X86986747Y-169578401D01*
X87003223Y-169560223D01*
X87021401Y-169543747D01*
X87041107Y-169529132D01*
X87062150Y-169516520D01*
X87084329Y-169506030D01*
X87107428Y-169497765D01*
X87131227Y-169491804D01*
X87155495Y-169488204D01*
X87179999Y-169487000D01*
X88080001Y-169487000D01*
X88104505Y-169488204D01*
X88104505Y-169488204D01*
G37*
D12*
X87630000Y-170062000D03*
D11*
G36*
X88104505Y-167438204D02*
G01*
X88128773Y-167441804D01*
X88152572Y-167447765D01*
X88175671Y-167456030D01*
X88197850Y-167466520D01*
X88218893Y-167479132D01*
X88238599Y-167493747D01*
X88256777Y-167510223D01*
X88273253Y-167528401D01*
X88287868Y-167548107D01*
X88300480Y-167569150D01*
X88310970Y-167591329D01*
X88319235Y-167614428D01*
X88325196Y-167638227D01*
X88328796Y-167662495D01*
X88330000Y-167686999D01*
X88330000Y-168337001D01*
X88328796Y-168361505D01*
X88325196Y-168385773D01*
X88319235Y-168409572D01*
X88310970Y-168432671D01*
X88300480Y-168454850D01*
X88287868Y-168475893D01*
X88273253Y-168495599D01*
X88256777Y-168513777D01*
X88238599Y-168530253D01*
X88218893Y-168544868D01*
X88197850Y-168557480D01*
X88175671Y-168567970D01*
X88152572Y-168576235D01*
X88128773Y-168582196D01*
X88104505Y-168585796D01*
X88080001Y-168587000D01*
X87179999Y-168587000D01*
X87155495Y-168585796D01*
X87131227Y-168582196D01*
X87107428Y-168576235D01*
X87084329Y-168567970D01*
X87062150Y-168557480D01*
X87041107Y-168544868D01*
X87021401Y-168530253D01*
X87003223Y-168513777D01*
X86986747Y-168495599D01*
X86972132Y-168475893D01*
X86959520Y-168454850D01*
X86949030Y-168432671D01*
X86940765Y-168409572D01*
X86934804Y-168385773D01*
X86931204Y-168361505D01*
X86930000Y-168337001D01*
X86930000Y-167686999D01*
X86931204Y-167662495D01*
X86934804Y-167638227D01*
X86940765Y-167614428D01*
X86949030Y-167591329D01*
X86959520Y-167569150D01*
X86972132Y-167548107D01*
X86986747Y-167528401D01*
X87003223Y-167510223D01*
X87021401Y-167493747D01*
X87041107Y-167479132D01*
X87062150Y-167466520D01*
X87084329Y-167456030D01*
X87107428Y-167447765D01*
X87131227Y-167441804D01*
X87155495Y-167438204D01*
X87179999Y-167437000D01*
X88080001Y-167437000D01*
X88104505Y-167438204D01*
X88104505Y-167438204D01*
G37*
D12*
X87630000Y-168012000D03*
D11*
G36*
X97513505Y-151574204D02*
G01*
X97537773Y-151577804D01*
X97561572Y-151583765D01*
X97584671Y-151592030D01*
X97606850Y-151602520D01*
X97627893Y-151615132D01*
X97647599Y-151629747D01*
X97665777Y-151646223D01*
X97682253Y-151664401D01*
X97696868Y-151684107D01*
X97709480Y-151705150D01*
X97719970Y-151727329D01*
X97728235Y-151750428D01*
X97734196Y-151774227D01*
X97737796Y-151798495D01*
X97739000Y-151822999D01*
X97739000Y-152723001D01*
X97737796Y-152747505D01*
X97734196Y-152771773D01*
X97728235Y-152795572D01*
X97719970Y-152818671D01*
X97709480Y-152840850D01*
X97696868Y-152861893D01*
X97682253Y-152881599D01*
X97665777Y-152899777D01*
X97647599Y-152916253D01*
X97627893Y-152930868D01*
X97606850Y-152943480D01*
X97584671Y-152953970D01*
X97561572Y-152962235D01*
X97537773Y-152968196D01*
X97513505Y-152971796D01*
X97489001Y-152973000D01*
X96838999Y-152973000D01*
X96814495Y-152971796D01*
X96790227Y-152968196D01*
X96766428Y-152962235D01*
X96743329Y-152953970D01*
X96721150Y-152943480D01*
X96700107Y-152930868D01*
X96680401Y-152916253D01*
X96662223Y-152899777D01*
X96645747Y-152881599D01*
X96631132Y-152861893D01*
X96618520Y-152840850D01*
X96608030Y-152818671D01*
X96599765Y-152795572D01*
X96593804Y-152771773D01*
X96590204Y-152747505D01*
X96589000Y-152723001D01*
X96589000Y-151822999D01*
X96590204Y-151798495D01*
X96593804Y-151774227D01*
X96599765Y-151750428D01*
X96608030Y-151727329D01*
X96618520Y-151705150D01*
X96631132Y-151684107D01*
X96645747Y-151664401D01*
X96662223Y-151646223D01*
X96680401Y-151629747D01*
X96700107Y-151615132D01*
X96721150Y-151602520D01*
X96743329Y-151592030D01*
X96766428Y-151583765D01*
X96790227Y-151577804D01*
X96814495Y-151574204D01*
X96838999Y-151573000D01*
X97489001Y-151573000D01*
X97513505Y-151574204D01*
X97513505Y-151574204D01*
G37*
D12*
X97164000Y-152273000D03*
D11*
G36*
X95463505Y-151574204D02*
G01*
X95487773Y-151577804D01*
X95511572Y-151583765D01*
X95534671Y-151592030D01*
X95556850Y-151602520D01*
X95577893Y-151615132D01*
X95597599Y-151629747D01*
X95615777Y-151646223D01*
X95632253Y-151664401D01*
X95646868Y-151684107D01*
X95659480Y-151705150D01*
X95669970Y-151727329D01*
X95678235Y-151750428D01*
X95684196Y-151774227D01*
X95687796Y-151798495D01*
X95689000Y-151822999D01*
X95689000Y-152723001D01*
X95687796Y-152747505D01*
X95684196Y-152771773D01*
X95678235Y-152795572D01*
X95669970Y-152818671D01*
X95659480Y-152840850D01*
X95646868Y-152861893D01*
X95632253Y-152881599D01*
X95615777Y-152899777D01*
X95597599Y-152916253D01*
X95577893Y-152930868D01*
X95556850Y-152943480D01*
X95534671Y-152953970D01*
X95511572Y-152962235D01*
X95487773Y-152968196D01*
X95463505Y-152971796D01*
X95439001Y-152973000D01*
X94788999Y-152973000D01*
X94764495Y-152971796D01*
X94740227Y-152968196D01*
X94716428Y-152962235D01*
X94693329Y-152953970D01*
X94671150Y-152943480D01*
X94650107Y-152930868D01*
X94630401Y-152916253D01*
X94612223Y-152899777D01*
X94595747Y-152881599D01*
X94581132Y-152861893D01*
X94568520Y-152840850D01*
X94558030Y-152818671D01*
X94549765Y-152795572D01*
X94543804Y-152771773D01*
X94540204Y-152747505D01*
X94539000Y-152723001D01*
X94539000Y-151822999D01*
X94540204Y-151798495D01*
X94543804Y-151774227D01*
X94549765Y-151750428D01*
X94558030Y-151727329D01*
X94568520Y-151705150D01*
X94581132Y-151684107D01*
X94595747Y-151664401D01*
X94612223Y-151646223D01*
X94630401Y-151629747D01*
X94650107Y-151615132D01*
X94671150Y-151602520D01*
X94693329Y-151592030D01*
X94716428Y-151583765D01*
X94740227Y-151577804D01*
X94764495Y-151574204D01*
X94788999Y-151573000D01*
X95439001Y-151573000D01*
X95463505Y-151574204D01*
X95463505Y-151574204D01*
G37*
D12*
X95114000Y-152273000D03*
D11*
G36*
X97386505Y-141287204D02*
G01*
X97410773Y-141290804D01*
X97434572Y-141296765D01*
X97457671Y-141305030D01*
X97479850Y-141315520D01*
X97500893Y-141328132D01*
X97520599Y-141342747D01*
X97538777Y-141359223D01*
X97555253Y-141377401D01*
X97569868Y-141397107D01*
X97582480Y-141418150D01*
X97592970Y-141440329D01*
X97601235Y-141463428D01*
X97607196Y-141487227D01*
X97610796Y-141511495D01*
X97612000Y-141535999D01*
X97612000Y-142436001D01*
X97610796Y-142460505D01*
X97607196Y-142484773D01*
X97601235Y-142508572D01*
X97592970Y-142531671D01*
X97582480Y-142553850D01*
X97569868Y-142574893D01*
X97555253Y-142594599D01*
X97538777Y-142612777D01*
X97520599Y-142629253D01*
X97500893Y-142643868D01*
X97479850Y-142656480D01*
X97457671Y-142666970D01*
X97434572Y-142675235D01*
X97410773Y-142681196D01*
X97386505Y-142684796D01*
X97362001Y-142686000D01*
X96711999Y-142686000D01*
X96687495Y-142684796D01*
X96663227Y-142681196D01*
X96639428Y-142675235D01*
X96616329Y-142666970D01*
X96594150Y-142656480D01*
X96573107Y-142643868D01*
X96553401Y-142629253D01*
X96535223Y-142612777D01*
X96518747Y-142594599D01*
X96504132Y-142574893D01*
X96491520Y-142553850D01*
X96481030Y-142531671D01*
X96472765Y-142508572D01*
X96466804Y-142484773D01*
X96463204Y-142460505D01*
X96462000Y-142436001D01*
X96462000Y-141535999D01*
X96463204Y-141511495D01*
X96466804Y-141487227D01*
X96472765Y-141463428D01*
X96481030Y-141440329D01*
X96491520Y-141418150D01*
X96504132Y-141397107D01*
X96518747Y-141377401D01*
X96535223Y-141359223D01*
X96553401Y-141342747D01*
X96573107Y-141328132D01*
X96594150Y-141315520D01*
X96616329Y-141305030D01*
X96639428Y-141296765D01*
X96663227Y-141290804D01*
X96687495Y-141287204D01*
X96711999Y-141286000D01*
X97362001Y-141286000D01*
X97386505Y-141287204D01*
X97386505Y-141287204D01*
G37*
D12*
X97037000Y-141986000D03*
D11*
G36*
X95336505Y-141287204D02*
G01*
X95360773Y-141290804D01*
X95384572Y-141296765D01*
X95407671Y-141305030D01*
X95429850Y-141315520D01*
X95450893Y-141328132D01*
X95470599Y-141342747D01*
X95488777Y-141359223D01*
X95505253Y-141377401D01*
X95519868Y-141397107D01*
X95532480Y-141418150D01*
X95542970Y-141440329D01*
X95551235Y-141463428D01*
X95557196Y-141487227D01*
X95560796Y-141511495D01*
X95562000Y-141535999D01*
X95562000Y-142436001D01*
X95560796Y-142460505D01*
X95557196Y-142484773D01*
X95551235Y-142508572D01*
X95542970Y-142531671D01*
X95532480Y-142553850D01*
X95519868Y-142574893D01*
X95505253Y-142594599D01*
X95488777Y-142612777D01*
X95470599Y-142629253D01*
X95450893Y-142643868D01*
X95429850Y-142656480D01*
X95407671Y-142666970D01*
X95384572Y-142675235D01*
X95360773Y-142681196D01*
X95336505Y-142684796D01*
X95312001Y-142686000D01*
X94661999Y-142686000D01*
X94637495Y-142684796D01*
X94613227Y-142681196D01*
X94589428Y-142675235D01*
X94566329Y-142666970D01*
X94544150Y-142656480D01*
X94523107Y-142643868D01*
X94503401Y-142629253D01*
X94485223Y-142612777D01*
X94468747Y-142594599D01*
X94454132Y-142574893D01*
X94441520Y-142553850D01*
X94431030Y-142531671D01*
X94422765Y-142508572D01*
X94416804Y-142484773D01*
X94413204Y-142460505D01*
X94412000Y-142436001D01*
X94412000Y-141535999D01*
X94413204Y-141511495D01*
X94416804Y-141487227D01*
X94422765Y-141463428D01*
X94431030Y-141440329D01*
X94441520Y-141418150D01*
X94454132Y-141397107D01*
X94468747Y-141377401D01*
X94485223Y-141359223D01*
X94503401Y-141342747D01*
X94523107Y-141328132D01*
X94544150Y-141315520D01*
X94566329Y-141305030D01*
X94589428Y-141296765D01*
X94613227Y-141290804D01*
X94637495Y-141287204D01*
X94661999Y-141286000D01*
X95312001Y-141286000D01*
X95336505Y-141287204D01*
X95336505Y-141287204D01*
G37*
D12*
X94987000Y-141986000D03*
D11*
G36*
X82890505Y-151574204D02*
G01*
X82914773Y-151577804D01*
X82938572Y-151583765D01*
X82961671Y-151592030D01*
X82983850Y-151602520D01*
X83004893Y-151615132D01*
X83024599Y-151629747D01*
X83042777Y-151646223D01*
X83059253Y-151664401D01*
X83073868Y-151684107D01*
X83086480Y-151705150D01*
X83096970Y-151727329D01*
X83105235Y-151750428D01*
X83111196Y-151774227D01*
X83114796Y-151798495D01*
X83116000Y-151822999D01*
X83116000Y-152723001D01*
X83114796Y-152747505D01*
X83111196Y-152771773D01*
X83105235Y-152795572D01*
X83096970Y-152818671D01*
X83086480Y-152840850D01*
X83073868Y-152861893D01*
X83059253Y-152881599D01*
X83042777Y-152899777D01*
X83024599Y-152916253D01*
X83004893Y-152930868D01*
X82983850Y-152943480D01*
X82961671Y-152953970D01*
X82938572Y-152962235D01*
X82914773Y-152968196D01*
X82890505Y-152971796D01*
X82866001Y-152973000D01*
X82215999Y-152973000D01*
X82191495Y-152971796D01*
X82167227Y-152968196D01*
X82143428Y-152962235D01*
X82120329Y-152953970D01*
X82098150Y-152943480D01*
X82077107Y-152930868D01*
X82057401Y-152916253D01*
X82039223Y-152899777D01*
X82022747Y-152881599D01*
X82008132Y-152861893D01*
X81995520Y-152840850D01*
X81985030Y-152818671D01*
X81976765Y-152795572D01*
X81970804Y-152771773D01*
X81967204Y-152747505D01*
X81966000Y-152723001D01*
X81966000Y-151822999D01*
X81967204Y-151798495D01*
X81970804Y-151774227D01*
X81976765Y-151750428D01*
X81985030Y-151727329D01*
X81995520Y-151705150D01*
X82008132Y-151684107D01*
X82022747Y-151664401D01*
X82039223Y-151646223D01*
X82057401Y-151629747D01*
X82077107Y-151615132D01*
X82098150Y-151602520D01*
X82120329Y-151592030D01*
X82143428Y-151583765D01*
X82167227Y-151577804D01*
X82191495Y-151574204D01*
X82215999Y-151573000D01*
X82866001Y-151573000D01*
X82890505Y-151574204D01*
X82890505Y-151574204D01*
G37*
D12*
X82541000Y-152273000D03*
D11*
G36*
X84940505Y-151574204D02*
G01*
X84964773Y-151577804D01*
X84988572Y-151583765D01*
X85011671Y-151592030D01*
X85033850Y-151602520D01*
X85054893Y-151615132D01*
X85074599Y-151629747D01*
X85092777Y-151646223D01*
X85109253Y-151664401D01*
X85123868Y-151684107D01*
X85136480Y-151705150D01*
X85146970Y-151727329D01*
X85155235Y-151750428D01*
X85161196Y-151774227D01*
X85164796Y-151798495D01*
X85166000Y-151822999D01*
X85166000Y-152723001D01*
X85164796Y-152747505D01*
X85161196Y-152771773D01*
X85155235Y-152795572D01*
X85146970Y-152818671D01*
X85136480Y-152840850D01*
X85123868Y-152861893D01*
X85109253Y-152881599D01*
X85092777Y-152899777D01*
X85074599Y-152916253D01*
X85054893Y-152930868D01*
X85033850Y-152943480D01*
X85011671Y-152953970D01*
X84988572Y-152962235D01*
X84964773Y-152968196D01*
X84940505Y-152971796D01*
X84916001Y-152973000D01*
X84265999Y-152973000D01*
X84241495Y-152971796D01*
X84217227Y-152968196D01*
X84193428Y-152962235D01*
X84170329Y-152953970D01*
X84148150Y-152943480D01*
X84127107Y-152930868D01*
X84107401Y-152916253D01*
X84089223Y-152899777D01*
X84072747Y-152881599D01*
X84058132Y-152861893D01*
X84045520Y-152840850D01*
X84035030Y-152818671D01*
X84026765Y-152795572D01*
X84020804Y-152771773D01*
X84017204Y-152747505D01*
X84016000Y-152723001D01*
X84016000Y-151822999D01*
X84017204Y-151798495D01*
X84020804Y-151774227D01*
X84026765Y-151750428D01*
X84035030Y-151727329D01*
X84045520Y-151705150D01*
X84058132Y-151684107D01*
X84072747Y-151664401D01*
X84089223Y-151646223D01*
X84107401Y-151629747D01*
X84127107Y-151615132D01*
X84148150Y-151602520D01*
X84170329Y-151592030D01*
X84193428Y-151583765D01*
X84217227Y-151577804D01*
X84241495Y-151574204D01*
X84265999Y-151573000D01*
X84916001Y-151573000D01*
X84940505Y-151574204D01*
X84940505Y-151574204D01*
G37*
D12*
X84591000Y-152273000D03*
D11*
G36*
X82382505Y-141287204D02*
G01*
X82406773Y-141290804D01*
X82430572Y-141296765D01*
X82453671Y-141305030D01*
X82475850Y-141315520D01*
X82496893Y-141328132D01*
X82516599Y-141342747D01*
X82534777Y-141359223D01*
X82551253Y-141377401D01*
X82565868Y-141397107D01*
X82578480Y-141418150D01*
X82588970Y-141440329D01*
X82597235Y-141463428D01*
X82603196Y-141487227D01*
X82606796Y-141511495D01*
X82608000Y-141535999D01*
X82608000Y-142436001D01*
X82606796Y-142460505D01*
X82603196Y-142484773D01*
X82597235Y-142508572D01*
X82588970Y-142531671D01*
X82578480Y-142553850D01*
X82565868Y-142574893D01*
X82551253Y-142594599D01*
X82534777Y-142612777D01*
X82516599Y-142629253D01*
X82496893Y-142643868D01*
X82475850Y-142656480D01*
X82453671Y-142666970D01*
X82430572Y-142675235D01*
X82406773Y-142681196D01*
X82382505Y-142684796D01*
X82358001Y-142686000D01*
X81707999Y-142686000D01*
X81683495Y-142684796D01*
X81659227Y-142681196D01*
X81635428Y-142675235D01*
X81612329Y-142666970D01*
X81590150Y-142656480D01*
X81569107Y-142643868D01*
X81549401Y-142629253D01*
X81531223Y-142612777D01*
X81514747Y-142594599D01*
X81500132Y-142574893D01*
X81487520Y-142553850D01*
X81477030Y-142531671D01*
X81468765Y-142508572D01*
X81462804Y-142484773D01*
X81459204Y-142460505D01*
X81458000Y-142436001D01*
X81458000Y-141535999D01*
X81459204Y-141511495D01*
X81462804Y-141487227D01*
X81468765Y-141463428D01*
X81477030Y-141440329D01*
X81487520Y-141418150D01*
X81500132Y-141397107D01*
X81514747Y-141377401D01*
X81531223Y-141359223D01*
X81549401Y-141342747D01*
X81569107Y-141328132D01*
X81590150Y-141315520D01*
X81612329Y-141305030D01*
X81635428Y-141296765D01*
X81659227Y-141290804D01*
X81683495Y-141287204D01*
X81707999Y-141286000D01*
X82358001Y-141286000D01*
X82382505Y-141287204D01*
X82382505Y-141287204D01*
G37*
D12*
X82033000Y-141986000D03*
D11*
G36*
X84432505Y-141287204D02*
G01*
X84456773Y-141290804D01*
X84480572Y-141296765D01*
X84503671Y-141305030D01*
X84525850Y-141315520D01*
X84546893Y-141328132D01*
X84566599Y-141342747D01*
X84584777Y-141359223D01*
X84601253Y-141377401D01*
X84615868Y-141397107D01*
X84628480Y-141418150D01*
X84638970Y-141440329D01*
X84647235Y-141463428D01*
X84653196Y-141487227D01*
X84656796Y-141511495D01*
X84658000Y-141535999D01*
X84658000Y-142436001D01*
X84656796Y-142460505D01*
X84653196Y-142484773D01*
X84647235Y-142508572D01*
X84638970Y-142531671D01*
X84628480Y-142553850D01*
X84615868Y-142574893D01*
X84601253Y-142594599D01*
X84584777Y-142612777D01*
X84566599Y-142629253D01*
X84546893Y-142643868D01*
X84525850Y-142656480D01*
X84503671Y-142666970D01*
X84480572Y-142675235D01*
X84456773Y-142681196D01*
X84432505Y-142684796D01*
X84408001Y-142686000D01*
X83757999Y-142686000D01*
X83733495Y-142684796D01*
X83709227Y-142681196D01*
X83685428Y-142675235D01*
X83662329Y-142666970D01*
X83640150Y-142656480D01*
X83619107Y-142643868D01*
X83599401Y-142629253D01*
X83581223Y-142612777D01*
X83564747Y-142594599D01*
X83550132Y-142574893D01*
X83537520Y-142553850D01*
X83527030Y-142531671D01*
X83518765Y-142508572D01*
X83512804Y-142484773D01*
X83509204Y-142460505D01*
X83508000Y-142436001D01*
X83508000Y-141535999D01*
X83509204Y-141511495D01*
X83512804Y-141487227D01*
X83518765Y-141463428D01*
X83527030Y-141440329D01*
X83537520Y-141418150D01*
X83550132Y-141397107D01*
X83564747Y-141377401D01*
X83581223Y-141359223D01*
X83599401Y-141342747D01*
X83619107Y-141328132D01*
X83640150Y-141315520D01*
X83662329Y-141305030D01*
X83685428Y-141296765D01*
X83709227Y-141290804D01*
X83733495Y-141287204D01*
X83757999Y-141286000D01*
X84408001Y-141286000D01*
X84432505Y-141287204D01*
X84432505Y-141287204D01*
G37*
D12*
X84083000Y-141986000D03*
D11*
G36*
X95463505Y-147510204D02*
G01*
X95487773Y-147513804D01*
X95511572Y-147519765D01*
X95534671Y-147528030D01*
X95556850Y-147538520D01*
X95577893Y-147551132D01*
X95597599Y-147565747D01*
X95615777Y-147582223D01*
X95632253Y-147600401D01*
X95646868Y-147620107D01*
X95659480Y-147641150D01*
X95669970Y-147663329D01*
X95678235Y-147686428D01*
X95684196Y-147710227D01*
X95687796Y-147734495D01*
X95689000Y-147758999D01*
X95689000Y-148659001D01*
X95687796Y-148683505D01*
X95684196Y-148707773D01*
X95678235Y-148731572D01*
X95669970Y-148754671D01*
X95659480Y-148776850D01*
X95646868Y-148797893D01*
X95632253Y-148817599D01*
X95615777Y-148835777D01*
X95597599Y-148852253D01*
X95577893Y-148866868D01*
X95556850Y-148879480D01*
X95534671Y-148889970D01*
X95511572Y-148898235D01*
X95487773Y-148904196D01*
X95463505Y-148907796D01*
X95439001Y-148909000D01*
X94788999Y-148909000D01*
X94764495Y-148907796D01*
X94740227Y-148904196D01*
X94716428Y-148898235D01*
X94693329Y-148889970D01*
X94671150Y-148879480D01*
X94650107Y-148866868D01*
X94630401Y-148852253D01*
X94612223Y-148835777D01*
X94595747Y-148817599D01*
X94581132Y-148797893D01*
X94568520Y-148776850D01*
X94558030Y-148754671D01*
X94549765Y-148731572D01*
X94543804Y-148707773D01*
X94540204Y-148683505D01*
X94539000Y-148659001D01*
X94539000Y-147758999D01*
X94540204Y-147734495D01*
X94543804Y-147710227D01*
X94549765Y-147686428D01*
X94558030Y-147663329D01*
X94568520Y-147641150D01*
X94581132Y-147620107D01*
X94595747Y-147600401D01*
X94612223Y-147582223D01*
X94630401Y-147565747D01*
X94650107Y-147551132D01*
X94671150Y-147538520D01*
X94693329Y-147528030D01*
X94716428Y-147519765D01*
X94740227Y-147513804D01*
X94764495Y-147510204D01*
X94788999Y-147509000D01*
X95439001Y-147509000D01*
X95463505Y-147510204D01*
X95463505Y-147510204D01*
G37*
D12*
X95114000Y-148209000D03*
D11*
G36*
X97513505Y-147510204D02*
G01*
X97537773Y-147513804D01*
X97561572Y-147519765D01*
X97584671Y-147528030D01*
X97606850Y-147538520D01*
X97627893Y-147551132D01*
X97647599Y-147565747D01*
X97665777Y-147582223D01*
X97682253Y-147600401D01*
X97696868Y-147620107D01*
X97709480Y-147641150D01*
X97719970Y-147663329D01*
X97728235Y-147686428D01*
X97734196Y-147710227D01*
X97737796Y-147734495D01*
X97739000Y-147758999D01*
X97739000Y-148659001D01*
X97737796Y-148683505D01*
X97734196Y-148707773D01*
X97728235Y-148731572D01*
X97719970Y-148754671D01*
X97709480Y-148776850D01*
X97696868Y-148797893D01*
X97682253Y-148817599D01*
X97665777Y-148835777D01*
X97647599Y-148852253D01*
X97627893Y-148866868D01*
X97606850Y-148879480D01*
X97584671Y-148889970D01*
X97561572Y-148898235D01*
X97537773Y-148904196D01*
X97513505Y-148907796D01*
X97489001Y-148909000D01*
X96838999Y-148909000D01*
X96814495Y-148907796D01*
X96790227Y-148904196D01*
X96766428Y-148898235D01*
X96743329Y-148889970D01*
X96721150Y-148879480D01*
X96700107Y-148866868D01*
X96680401Y-148852253D01*
X96662223Y-148835777D01*
X96645747Y-148817599D01*
X96631132Y-148797893D01*
X96618520Y-148776850D01*
X96608030Y-148754671D01*
X96599765Y-148731572D01*
X96593804Y-148707773D01*
X96590204Y-148683505D01*
X96589000Y-148659001D01*
X96589000Y-147758999D01*
X96590204Y-147734495D01*
X96593804Y-147710227D01*
X96599765Y-147686428D01*
X96608030Y-147663329D01*
X96618520Y-147641150D01*
X96631132Y-147620107D01*
X96645747Y-147600401D01*
X96662223Y-147582223D01*
X96680401Y-147565747D01*
X96700107Y-147551132D01*
X96721150Y-147538520D01*
X96743329Y-147528030D01*
X96766428Y-147519765D01*
X96790227Y-147513804D01*
X96814495Y-147510204D01*
X96838999Y-147509000D01*
X97489001Y-147509000D01*
X97513505Y-147510204D01*
X97513505Y-147510204D01*
G37*
D12*
X97164000Y-148209000D03*
M02*
