G04 #@! TF.GenerationSoftware,KiCad,Pcbnew,(5.1.0)-1*
G04 #@! TF.CreationDate,2019-10-23T13:13:15-05:00*
G04 #@! TF.ProjectId,logiverter,6c6f6769-7665-4727-9465-722e6b696361,rev?*
G04 #@! TF.SameCoordinates,Original*
G04 #@! TF.FileFunction,Drawing*
%FSLAX46Y46*%
G04 Gerber Fmt 4.6, Leading zero omitted, Abs format (unit mm)*
G04 Created by KiCad (PCBNEW (5.1.0)-1) date 2019-10-23 13:13:15*
%MOMM*%
%LPD*%
G04 APERTURE LIST*
%ADD10C,0.050000*%
%ADD11C,0.120000*%
G04 APERTURE END LIST*
D10*
X76200000Y-209804000D02*
X116840000Y-209804000D01*
X76200000Y-209804000D02*
X76200000Y-81280000D01*
X116482000Y-147193000D02*
G75*
G03X116482000Y-147193000I-6500000J0D01*
G01*
X103020000Y-134620000D02*
G75*
G03X103020000Y-134620000I-6500000J0D01*
G01*
X89685000Y-120650000D02*
G75*
G03X89685000Y-120650000I-6500000J0D01*
G01*
X116840000Y-209804000D02*
X116840000Y-81280000D01*
X76200000Y-81280000D02*
X116840000Y-81280000D01*
D11*
X111482000Y-103635000D02*
G75*
G03X111482000Y-103635000I-1500000J0D01*
G01*
X110072000Y-105115000D02*
X111462000Y-103725000D01*
X109402000Y-104985000D02*
X111342000Y-103045000D01*
X108912000Y-104645000D02*
X110992000Y-102565000D01*
X108562000Y-104030000D02*
X110382000Y-102215000D01*
X108572000Y-103175000D02*
X109522000Y-102225000D01*
X111609000Y-165732000D02*
G75*
G03X111609000Y-165732000I-1500000J0D01*
G01*
X110019000Y-164252000D02*
X108629000Y-165642000D01*
X110689000Y-164382000D02*
X108749000Y-166322000D01*
X111179000Y-164722000D02*
X109099000Y-166802000D01*
X111529000Y-165337000D02*
X109709000Y-167152000D01*
X111519000Y-166192000D02*
X110569000Y-167142000D01*
X97930000Y-166192000D02*
X96980000Y-167142000D01*
X97940000Y-165337000D02*
X96120000Y-167152000D01*
X97590000Y-164722000D02*
X95510000Y-166802000D01*
X97100000Y-164382000D02*
X95160000Y-166322000D01*
X96430000Y-164252000D02*
X95040000Y-165642000D01*
X98020000Y-165732000D02*
G75*
G03X98020000Y-165732000I-1500000J0D01*
G01*
X113260000Y-185798000D02*
G75*
G03X113260000Y-185798000I-1500000J0D01*
G01*
X111670000Y-184318000D02*
X110280000Y-185708000D01*
X112340000Y-184448000D02*
X110400000Y-186388000D01*
X112830000Y-184788000D02*
X110750000Y-186868000D01*
X113180000Y-185403000D02*
X111360000Y-187218000D01*
X113170000Y-186258000D02*
X112220000Y-187208000D01*
X82780000Y-185798000D02*
G75*
G03X82780000Y-185798000I-1500000J0D01*
G01*
X81190000Y-184318000D02*
X79800000Y-185708000D01*
X81860000Y-184448000D02*
X79920000Y-186388000D01*
X82350000Y-184788000D02*
X80270000Y-186868000D01*
X82700000Y-185403000D02*
X80880000Y-187218000D01*
X82690000Y-186258000D02*
X81740000Y-187208000D01*
X103010000Y-186258000D02*
X102060000Y-187208000D01*
X103020000Y-185403000D02*
X101200000Y-187218000D01*
X102670000Y-184788000D02*
X100590000Y-186868000D01*
X102180000Y-184448000D02*
X100240000Y-186388000D01*
X101510000Y-184318000D02*
X100120000Y-185708000D01*
X103100000Y-185798000D02*
G75*
G03X103100000Y-185798000I-1500000J0D01*
G01*
X92940000Y-185798000D02*
G75*
G03X92940000Y-185798000I-1500000J0D01*
G01*
X91350000Y-184318000D02*
X89960000Y-185708000D01*
X92020000Y-184448000D02*
X90080000Y-186388000D01*
X92510000Y-184788000D02*
X90430000Y-186868000D01*
X92860000Y-185403000D02*
X91040000Y-187218000D01*
X92850000Y-186258000D02*
X91900000Y-187208000D01*
X84468000Y-166192000D02*
X83518000Y-167142000D01*
X84478000Y-165337000D02*
X82658000Y-167152000D01*
X84128000Y-164722000D02*
X82048000Y-166802000D01*
X83638000Y-164382000D02*
X81698000Y-166322000D01*
X82968000Y-164252000D02*
X81578000Y-165642000D01*
X84558000Y-165732000D02*
G75*
G03X84558000Y-165732000I-1500000J0D01*
G01*
X98020000Y-103635000D02*
G75*
G03X98020000Y-103635000I-1500000J0D01*
G01*
X96610000Y-105115000D02*
X98000000Y-103725000D01*
X95940000Y-104985000D02*
X97880000Y-103045000D01*
X95450000Y-104645000D02*
X97530000Y-102565000D01*
X95100000Y-104030000D02*
X96920000Y-102215000D01*
X95110000Y-103175000D02*
X96060000Y-102225000D01*
X84558000Y-103635000D02*
G75*
G03X84558000Y-103635000I-1500000J0D01*
G01*
X83148000Y-105115000D02*
X84538000Y-103725000D01*
X82478000Y-104985000D02*
X84418000Y-103045000D01*
X81988000Y-104645000D02*
X84068000Y-102565000D01*
X81638000Y-104030000D02*
X83458000Y-102215000D01*
X81648000Y-103175000D02*
X82598000Y-102225000D01*
M02*
