G04 #@! TF.GenerationSoftware,KiCad,Pcbnew,(5.1.0)-1*
G04 #@! TF.CreationDate,2019-10-23T13:14:03-05:00*
G04 #@! TF.ProjectId,logiverter,6c6f6769-7665-4727-9465-722e6b696361,rev?*
G04 #@! TF.SameCoordinates,Original*
G04 #@! TF.FileFunction,Other,Comment*
%FSLAX46Y46*%
G04 Gerber Fmt 4.6, Leading zero omitted, Abs format (unit mm)*
G04 Created by KiCad (PCBNEW (5.1.0)-1) date 2019-10-23 13:14:03*
%MOMM*%
%LPD*%
G04 APERTURE LIST*
%ADD10C,0.051000*%
G04 APERTURE END LIST*
D10*
X108743904Y-103815952D02*
X108743904Y-103415952D01*
X108972476Y-103815952D02*
X108801047Y-103587380D01*
X108972476Y-103415952D02*
X108743904Y-103644523D01*
X109143904Y-103606428D02*
X109277238Y-103606428D01*
X109334380Y-103815952D02*
X109143904Y-103815952D01*
X109143904Y-103415952D01*
X109334380Y-103415952D01*
X109505809Y-103606428D02*
X109639142Y-103606428D01*
X109696285Y-103815952D02*
X109505809Y-103815952D01*
X109505809Y-103415952D01*
X109696285Y-103415952D01*
X109867714Y-103815952D02*
X109867714Y-103415952D01*
X110020095Y-103415952D01*
X110058190Y-103435000D01*
X110077238Y-103454047D01*
X110096285Y-103492142D01*
X110096285Y-103549285D01*
X110077238Y-103587380D01*
X110058190Y-103606428D01*
X110020095Y-103625476D01*
X109867714Y-103625476D01*
X110343904Y-103415952D02*
X110420095Y-103415952D01*
X110458190Y-103435000D01*
X110496285Y-103473095D01*
X110515333Y-103549285D01*
X110515333Y-103682619D01*
X110496285Y-103758809D01*
X110458190Y-103796904D01*
X110420095Y-103815952D01*
X110343904Y-103815952D01*
X110305809Y-103796904D01*
X110267714Y-103758809D01*
X110248666Y-103682619D01*
X110248666Y-103549285D01*
X110267714Y-103473095D01*
X110305809Y-103435000D01*
X110343904Y-103415952D01*
X110686761Y-103415952D02*
X110686761Y-103739761D01*
X110705809Y-103777857D01*
X110724857Y-103796904D01*
X110762952Y-103815952D01*
X110839142Y-103815952D01*
X110877238Y-103796904D01*
X110896285Y-103777857D01*
X110915333Y-103739761D01*
X110915333Y-103415952D01*
X111048666Y-103415952D02*
X111277238Y-103415952D01*
X111162952Y-103815952D02*
X111162952Y-103415952D01*
X108870904Y-165912952D02*
X108870904Y-165512952D01*
X109099476Y-165912952D02*
X108928047Y-165684380D01*
X109099476Y-165512952D02*
X108870904Y-165741523D01*
X109270904Y-165703428D02*
X109404238Y-165703428D01*
X109461380Y-165912952D02*
X109270904Y-165912952D01*
X109270904Y-165512952D01*
X109461380Y-165512952D01*
X109632809Y-165703428D02*
X109766142Y-165703428D01*
X109823285Y-165912952D02*
X109632809Y-165912952D01*
X109632809Y-165512952D01*
X109823285Y-165512952D01*
X109994714Y-165912952D02*
X109994714Y-165512952D01*
X110147095Y-165512952D01*
X110185190Y-165532000D01*
X110204238Y-165551047D01*
X110223285Y-165589142D01*
X110223285Y-165646285D01*
X110204238Y-165684380D01*
X110185190Y-165703428D01*
X110147095Y-165722476D01*
X109994714Y-165722476D01*
X110470904Y-165512952D02*
X110547095Y-165512952D01*
X110585190Y-165532000D01*
X110623285Y-165570095D01*
X110642333Y-165646285D01*
X110642333Y-165779619D01*
X110623285Y-165855809D01*
X110585190Y-165893904D01*
X110547095Y-165912952D01*
X110470904Y-165912952D01*
X110432809Y-165893904D01*
X110394714Y-165855809D01*
X110375666Y-165779619D01*
X110375666Y-165646285D01*
X110394714Y-165570095D01*
X110432809Y-165532000D01*
X110470904Y-165512952D01*
X110813761Y-165512952D02*
X110813761Y-165836761D01*
X110832809Y-165874857D01*
X110851857Y-165893904D01*
X110889952Y-165912952D01*
X110966142Y-165912952D01*
X111004238Y-165893904D01*
X111023285Y-165874857D01*
X111042333Y-165836761D01*
X111042333Y-165512952D01*
X111175666Y-165512952D02*
X111404238Y-165512952D01*
X111289952Y-165912952D02*
X111289952Y-165512952D01*
X95281904Y-165912952D02*
X95281904Y-165512952D01*
X95510476Y-165912952D02*
X95339047Y-165684380D01*
X95510476Y-165512952D02*
X95281904Y-165741523D01*
X95681904Y-165703428D02*
X95815238Y-165703428D01*
X95872380Y-165912952D02*
X95681904Y-165912952D01*
X95681904Y-165512952D01*
X95872380Y-165512952D01*
X96043809Y-165703428D02*
X96177142Y-165703428D01*
X96234285Y-165912952D02*
X96043809Y-165912952D01*
X96043809Y-165512952D01*
X96234285Y-165512952D01*
X96405714Y-165912952D02*
X96405714Y-165512952D01*
X96558095Y-165512952D01*
X96596190Y-165532000D01*
X96615238Y-165551047D01*
X96634285Y-165589142D01*
X96634285Y-165646285D01*
X96615238Y-165684380D01*
X96596190Y-165703428D01*
X96558095Y-165722476D01*
X96405714Y-165722476D01*
X96881904Y-165512952D02*
X96958095Y-165512952D01*
X96996190Y-165532000D01*
X97034285Y-165570095D01*
X97053333Y-165646285D01*
X97053333Y-165779619D01*
X97034285Y-165855809D01*
X96996190Y-165893904D01*
X96958095Y-165912952D01*
X96881904Y-165912952D01*
X96843809Y-165893904D01*
X96805714Y-165855809D01*
X96786666Y-165779619D01*
X96786666Y-165646285D01*
X96805714Y-165570095D01*
X96843809Y-165532000D01*
X96881904Y-165512952D01*
X97224761Y-165512952D02*
X97224761Y-165836761D01*
X97243809Y-165874857D01*
X97262857Y-165893904D01*
X97300952Y-165912952D01*
X97377142Y-165912952D01*
X97415238Y-165893904D01*
X97434285Y-165874857D01*
X97453333Y-165836761D01*
X97453333Y-165512952D01*
X97586666Y-165512952D02*
X97815238Y-165512952D01*
X97700952Y-165912952D02*
X97700952Y-165512952D01*
X110521904Y-185978952D02*
X110521904Y-185578952D01*
X110750476Y-185978952D02*
X110579047Y-185750380D01*
X110750476Y-185578952D02*
X110521904Y-185807523D01*
X110921904Y-185769428D02*
X111055238Y-185769428D01*
X111112380Y-185978952D02*
X110921904Y-185978952D01*
X110921904Y-185578952D01*
X111112380Y-185578952D01*
X111283809Y-185769428D02*
X111417142Y-185769428D01*
X111474285Y-185978952D02*
X111283809Y-185978952D01*
X111283809Y-185578952D01*
X111474285Y-185578952D01*
X111645714Y-185978952D02*
X111645714Y-185578952D01*
X111798095Y-185578952D01*
X111836190Y-185598000D01*
X111855238Y-185617047D01*
X111874285Y-185655142D01*
X111874285Y-185712285D01*
X111855238Y-185750380D01*
X111836190Y-185769428D01*
X111798095Y-185788476D01*
X111645714Y-185788476D01*
X112121904Y-185578952D02*
X112198095Y-185578952D01*
X112236190Y-185598000D01*
X112274285Y-185636095D01*
X112293333Y-185712285D01*
X112293333Y-185845619D01*
X112274285Y-185921809D01*
X112236190Y-185959904D01*
X112198095Y-185978952D01*
X112121904Y-185978952D01*
X112083809Y-185959904D01*
X112045714Y-185921809D01*
X112026666Y-185845619D01*
X112026666Y-185712285D01*
X112045714Y-185636095D01*
X112083809Y-185598000D01*
X112121904Y-185578952D01*
X112464761Y-185578952D02*
X112464761Y-185902761D01*
X112483809Y-185940857D01*
X112502857Y-185959904D01*
X112540952Y-185978952D01*
X112617142Y-185978952D01*
X112655238Y-185959904D01*
X112674285Y-185940857D01*
X112693333Y-185902761D01*
X112693333Y-185578952D01*
X112826666Y-185578952D02*
X113055238Y-185578952D01*
X112940952Y-185978952D02*
X112940952Y-185578952D01*
X80041904Y-185978952D02*
X80041904Y-185578952D01*
X80270476Y-185978952D02*
X80099047Y-185750380D01*
X80270476Y-185578952D02*
X80041904Y-185807523D01*
X80441904Y-185769428D02*
X80575238Y-185769428D01*
X80632380Y-185978952D02*
X80441904Y-185978952D01*
X80441904Y-185578952D01*
X80632380Y-185578952D01*
X80803809Y-185769428D02*
X80937142Y-185769428D01*
X80994285Y-185978952D02*
X80803809Y-185978952D01*
X80803809Y-185578952D01*
X80994285Y-185578952D01*
X81165714Y-185978952D02*
X81165714Y-185578952D01*
X81318095Y-185578952D01*
X81356190Y-185598000D01*
X81375238Y-185617047D01*
X81394285Y-185655142D01*
X81394285Y-185712285D01*
X81375238Y-185750380D01*
X81356190Y-185769428D01*
X81318095Y-185788476D01*
X81165714Y-185788476D01*
X81641904Y-185578952D02*
X81718095Y-185578952D01*
X81756190Y-185598000D01*
X81794285Y-185636095D01*
X81813333Y-185712285D01*
X81813333Y-185845619D01*
X81794285Y-185921809D01*
X81756190Y-185959904D01*
X81718095Y-185978952D01*
X81641904Y-185978952D01*
X81603809Y-185959904D01*
X81565714Y-185921809D01*
X81546666Y-185845619D01*
X81546666Y-185712285D01*
X81565714Y-185636095D01*
X81603809Y-185598000D01*
X81641904Y-185578952D01*
X81984761Y-185578952D02*
X81984761Y-185902761D01*
X82003809Y-185940857D01*
X82022857Y-185959904D01*
X82060952Y-185978952D01*
X82137142Y-185978952D01*
X82175238Y-185959904D01*
X82194285Y-185940857D01*
X82213333Y-185902761D01*
X82213333Y-185578952D01*
X82346666Y-185578952D02*
X82575238Y-185578952D01*
X82460952Y-185978952D02*
X82460952Y-185578952D01*
X100361904Y-185978952D02*
X100361904Y-185578952D01*
X100590476Y-185978952D02*
X100419047Y-185750380D01*
X100590476Y-185578952D02*
X100361904Y-185807523D01*
X100761904Y-185769428D02*
X100895238Y-185769428D01*
X100952380Y-185978952D02*
X100761904Y-185978952D01*
X100761904Y-185578952D01*
X100952380Y-185578952D01*
X101123809Y-185769428D02*
X101257142Y-185769428D01*
X101314285Y-185978952D02*
X101123809Y-185978952D01*
X101123809Y-185578952D01*
X101314285Y-185578952D01*
X101485714Y-185978952D02*
X101485714Y-185578952D01*
X101638095Y-185578952D01*
X101676190Y-185598000D01*
X101695238Y-185617047D01*
X101714285Y-185655142D01*
X101714285Y-185712285D01*
X101695238Y-185750380D01*
X101676190Y-185769428D01*
X101638095Y-185788476D01*
X101485714Y-185788476D01*
X101961904Y-185578952D02*
X102038095Y-185578952D01*
X102076190Y-185598000D01*
X102114285Y-185636095D01*
X102133333Y-185712285D01*
X102133333Y-185845619D01*
X102114285Y-185921809D01*
X102076190Y-185959904D01*
X102038095Y-185978952D01*
X101961904Y-185978952D01*
X101923809Y-185959904D01*
X101885714Y-185921809D01*
X101866666Y-185845619D01*
X101866666Y-185712285D01*
X101885714Y-185636095D01*
X101923809Y-185598000D01*
X101961904Y-185578952D01*
X102304761Y-185578952D02*
X102304761Y-185902761D01*
X102323809Y-185940857D01*
X102342857Y-185959904D01*
X102380952Y-185978952D01*
X102457142Y-185978952D01*
X102495238Y-185959904D01*
X102514285Y-185940857D01*
X102533333Y-185902761D01*
X102533333Y-185578952D01*
X102666666Y-185578952D02*
X102895238Y-185578952D01*
X102780952Y-185978952D02*
X102780952Y-185578952D01*
X90201904Y-185978952D02*
X90201904Y-185578952D01*
X90430476Y-185978952D02*
X90259047Y-185750380D01*
X90430476Y-185578952D02*
X90201904Y-185807523D01*
X90601904Y-185769428D02*
X90735238Y-185769428D01*
X90792380Y-185978952D02*
X90601904Y-185978952D01*
X90601904Y-185578952D01*
X90792380Y-185578952D01*
X90963809Y-185769428D02*
X91097142Y-185769428D01*
X91154285Y-185978952D02*
X90963809Y-185978952D01*
X90963809Y-185578952D01*
X91154285Y-185578952D01*
X91325714Y-185978952D02*
X91325714Y-185578952D01*
X91478095Y-185578952D01*
X91516190Y-185598000D01*
X91535238Y-185617047D01*
X91554285Y-185655142D01*
X91554285Y-185712285D01*
X91535238Y-185750380D01*
X91516190Y-185769428D01*
X91478095Y-185788476D01*
X91325714Y-185788476D01*
X91801904Y-185578952D02*
X91878095Y-185578952D01*
X91916190Y-185598000D01*
X91954285Y-185636095D01*
X91973333Y-185712285D01*
X91973333Y-185845619D01*
X91954285Y-185921809D01*
X91916190Y-185959904D01*
X91878095Y-185978952D01*
X91801904Y-185978952D01*
X91763809Y-185959904D01*
X91725714Y-185921809D01*
X91706666Y-185845619D01*
X91706666Y-185712285D01*
X91725714Y-185636095D01*
X91763809Y-185598000D01*
X91801904Y-185578952D01*
X92144761Y-185578952D02*
X92144761Y-185902761D01*
X92163809Y-185940857D01*
X92182857Y-185959904D01*
X92220952Y-185978952D01*
X92297142Y-185978952D01*
X92335238Y-185959904D01*
X92354285Y-185940857D01*
X92373333Y-185902761D01*
X92373333Y-185578952D01*
X92506666Y-185578952D02*
X92735238Y-185578952D01*
X92620952Y-185978952D02*
X92620952Y-185578952D01*
X81819904Y-165912952D02*
X81819904Y-165512952D01*
X82048476Y-165912952D02*
X81877047Y-165684380D01*
X82048476Y-165512952D02*
X81819904Y-165741523D01*
X82219904Y-165703428D02*
X82353238Y-165703428D01*
X82410380Y-165912952D02*
X82219904Y-165912952D01*
X82219904Y-165512952D01*
X82410380Y-165512952D01*
X82581809Y-165703428D02*
X82715142Y-165703428D01*
X82772285Y-165912952D02*
X82581809Y-165912952D01*
X82581809Y-165512952D01*
X82772285Y-165512952D01*
X82943714Y-165912952D02*
X82943714Y-165512952D01*
X83096095Y-165512952D01*
X83134190Y-165532000D01*
X83153238Y-165551047D01*
X83172285Y-165589142D01*
X83172285Y-165646285D01*
X83153238Y-165684380D01*
X83134190Y-165703428D01*
X83096095Y-165722476D01*
X82943714Y-165722476D01*
X83419904Y-165512952D02*
X83496095Y-165512952D01*
X83534190Y-165532000D01*
X83572285Y-165570095D01*
X83591333Y-165646285D01*
X83591333Y-165779619D01*
X83572285Y-165855809D01*
X83534190Y-165893904D01*
X83496095Y-165912952D01*
X83419904Y-165912952D01*
X83381809Y-165893904D01*
X83343714Y-165855809D01*
X83324666Y-165779619D01*
X83324666Y-165646285D01*
X83343714Y-165570095D01*
X83381809Y-165532000D01*
X83419904Y-165512952D01*
X83762761Y-165512952D02*
X83762761Y-165836761D01*
X83781809Y-165874857D01*
X83800857Y-165893904D01*
X83838952Y-165912952D01*
X83915142Y-165912952D01*
X83953238Y-165893904D01*
X83972285Y-165874857D01*
X83991333Y-165836761D01*
X83991333Y-165512952D01*
X84124666Y-165512952D02*
X84353238Y-165512952D01*
X84238952Y-165912952D02*
X84238952Y-165512952D01*
X95281904Y-103815952D02*
X95281904Y-103415952D01*
X95510476Y-103815952D02*
X95339047Y-103587380D01*
X95510476Y-103415952D02*
X95281904Y-103644523D01*
X95681904Y-103606428D02*
X95815238Y-103606428D01*
X95872380Y-103815952D02*
X95681904Y-103815952D01*
X95681904Y-103415952D01*
X95872380Y-103415952D01*
X96043809Y-103606428D02*
X96177142Y-103606428D01*
X96234285Y-103815952D02*
X96043809Y-103815952D01*
X96043809Y-103415952D01*
X96234285Y-103415952D01*
X96405714Y-103815952D02*
X96405714Y-103415952D01*
X96558095Y-103415952D01*
X96596190Y-103435000D01*
X96615238Y-103454047D01*
X96634285Y-103492142D01*
X96634285Y-103549285D01*
X96615238Y-103587380D01*
X96596190Y-103606428D01*
X96558095Y-103625476D01*
X96405714Y-103625476D01*
X96881904Y-103415952D02*
X96958095Y-103415952D01*
X96996190Y-103435000D01*
X97034285Y-103473095D01*
X97053333Y-103549285D01*
X97053333Y-103682619D01*
X97034285Y-103758809D01*
X96996190Y-103796904D01*
X96958095Y-103815952D01*
X96881904Y-103815952D01*
X96843809Y-103796904D01*
X96805714Y-103758809D01*
X96786666Y-103682619D01*
X96786666Y-103549285D01*
X96805714Y-103473095D01*
X96843809Y-103435000D01*
X96881904Y-103415952D01*
X97224761Y-103415952D02*
X97224761Y-103739761D01*
X97243809Y-103777857D01*
X97262857Y-103796904D01*
X97300952Y-103815952D01*
X97377142Y-103815952D01*
X97415238Y-103796904D01*
X97434285Y-103777857D01*
X97453333Y-103739761D01*
X97453333Y-103415952D01*
X97586666Y-103415952D02*
X97815238Y-103415952D01*
X97700952Y-103815952D02*
X97700952Y-103415952D01*
X81819904Y-103815952D02*
X81819904Y-103415952D01*
X82048476Y-103815952D02*
X81877047Y-103587380D01*
X82048476Y-103415952D02*
X81819904Y-103644523D01*
X82219904Y-103606428D02*
X82353238Y-103606428D01*
X82410380Y-103815952D02*
X82219904Y-103815952D01*
X82219904Y-103415952D01*
X82410380Y-103415952D01*
X82581809Y-103606428D02*
X82715142Y-103606428D01*
X82772285Y-103815952D02*
X82581809Y-103815952D01*
X82581809Y-103415952D01*
X82772285Y-103415952D01*
X82943714Y-103815952D02*
X82943714Y-103415952D01*
X83096095Y-103415952D01*
X83134190Y-103435000D01*
X83153238Y-103454047D01*
X83172285Y-103492142D01*
X83172285Y-103549285D01*
X83153238Y-103587380D01*
X83134190Y-103606428D01*
X83096095Y-103625476D01*
X82943714Y-103625476D01*
X83419904Y-103415952D02*
X83496095Y-103415952D01*
X83534190Y-103435000D01*
X83572285Y-103473095D01*
X83591333Y-103549285D01*
X83591333Y-103682619D01*
X83572285Y-103758809D01*
X83534190Y-103796904D01*
X83496095Y-103815952D01*
X83419904Y-103815952D01*
X83381809Y-103796904D01*
X83343714Y-103758809D01*
X83324666Y-103682619D01*
X83324666Y-103549285D01*
X83343714Y-103473095D01*
X83381809Y-103435000D01*
X83419904Y-103415952D01*
X83762761Y-103415952D02*
X83762761Y-103739761D01*
X83781809Y-103777857D01*
X83800857Y-103796904D01*
X83838952Y-103815952D01*
X83915142Y-103815952D01*
X83953238Y-103796904D01*
X83972285Y-103777857D01*
X83991333Y-103739761D01*
X83991333Y-103415952D01*
X84124666Y-103415952D02*
X84353238Y-103415952D01*
X84238952Y-103815952D02*
X84238952Y-103415952D01*
M02*
