G04 #@! TF.GenerationSoftware,KiCad,Pcbnew,(5.1.0)-1*
G04 #@! TF.CreationDate,2019-10-23T13:14:03-05:00*
G04 #@! TF.ProjectId,logiverter,6c6f6769-7665-4727-9465-722e6b696361,rev?*
G04 #@! TF.SameCoordinates,Original*
G04 #@! TF.FileFunction,Paste,Top*
G04 #@! TF.FilePolarity,Positive*
%FSLAX46Y46*%
G04 Gerber Fmt 4.6, Leading zero omitted, Abs format (unit mm)*
G04 Created by KiCad (PCBNEW (5.1.0)-1) date 2019-10-23 13:14:03*
%MOMM*%
%LPD*%
G04 APERTURE LIST*
%ADD10R,1.200000X0.900000*%
%ADD11C,0.100000*%
%ADD12C,1.600000*%
G04 APERTURE END LIST*
D10*
X104775000Y-199770000D03*
X104775000Y-196470000D03*
X88265000Y-196470000D03*
X88265000Y-199770000D03*
D11*
G36*
X110429504Y-198821204D02*
G01*
X110453773Y-198824804D01*
X110477571Y-198830765D01*
X110500671Y-198839030D01*
X110522849Y-198849520D01*
X110543893Y-198862133D01*
X110563598Y-198876747D01*
X110581777Y-198893223D01*
X110598253Y-198911402D01*
X110612867Y-198931107D01*
X110625480Y-198952151D01*
X110635970Y-198974329D01*
X110644235Y-198997429D01*
X110650196Y-199021227D01*
X110653796Y-199045496D01*
X110655000Y-199070000D01*
X110655000Y-201570000D01*
X110653796Y-201594504D01*
X110650196Y-201618773D01*
X110644235Y-201642571D01*
X110635970Y-201665671D01*
X110625480Y-201687849D01*
X110612867Y-201708893D01*
X110598253Y-201728598D01*
X110581777Y-201746777D01*
X110563598Y-201763253D01*
X110543893Y-201777867D01*
X110522849Y-201790480D01*
X110500671Y-201800970D01*
X110477571Y-201809235D01*
X110453773Y-201815196D01*
X110429504Y-201818796D01*
X110405000Y-201820000D01*
X109305000Y-201820000D01*
X109280496Y-201818796D01*
X109256227Y-201815196D01*
X109232429Y-201809235D01*
X109209329Y-201800970D01*
X109187151Y-201790480D01*
X109166107Y-201777867D01*
X109146402Y-201763253D01*
X109128223Y-201746777D01*
X109111747Y-201728598D01*
X109097133Y-201708893D01*
X109084520Y-201687849D01*
X109074030Y-201665671D01*
X109065765Y-201642571D01*
X109059804Y-201618773D01*
X109056204Y-201594504D01*
X109055000Y-201570000D01*
X109055000Y-199070000D01*
X109056204Y-199045496D01*
X109059804Y-199021227D01*
X109065765Y-198997429D01*
X109074030Y-198974329D01*
X109084520Y-198952151D01*
X109097133Y-198931107D01*
X109111747Y-198911402D01*
X109128223Y-198893223D01*
X109146402Y-198876747D01*
X109166107Y-198862133D01*
X109187151Y-198849520D01*
X109209329Y-198839030D01*
X109232429Y-198830765D01*
X109256227Y-198824804D01*
X109280496Y-198821204D01*
X109305000Y-198820000D01*
X110405000Y-198820000D01*
X110429504Y-198821204D01*
X110429504Y-198821204D01*
G37*
D12*
X109855000Y-200320000D03*
D11*
G36*
X110429504Y-194421204D02*
G01*
X110453773Y-194424804D01*
X110477571Y-194430765D01*
X110500671Y-194439030D01*
X110522849Y-194449520D01*
X110543893Y-194462133D01*
X110563598Y-194476747D01*
X110581777Y-194493223D01*
X110598253Y-194511402D01*
X110612867Y-194531107D01*
X110625480Y-194552151D01*
X110635970Y-194574329D01*
X110644235Y-194597429D01*
X110650196Y-194621227D01*
X110653796Y-194645496D01*
X110655000Y-194670000D01*
X110655000Y-197170000D01*
X110653796Y-197194504D01*
X110650196Y-197218773D01*
X110644235Y-197242571D01*
X110635970Y-197265671D01*
X110625480Y-197287849D01*
X110612867Y-197308893D01*
X110598253Y-197328598D01*
X110581777Y-197346777D01*
X110563598Y-197363253D01*
X110543893Y-197377867D01*
X110522849Y-197390480D01*
X110500671Y-197400970D01*
X110477571Y-197409235D01*
X110453773Y-197415196D01*
X110429504Y-197418796D01*
X110405000Y-197420000D01*
X109305000Y-197420000D01*
X109280496Y-197418796D01*
X109256227Y-197415196D01*
X109232429Y-197409235D01*
X109209329Y-197400970D01*
X109187151Y-197390480D01*
X109166107Y-197377867D01*
X109146402Y-197363253D01*
X109128223Y-197346777D01*
X109111747Y-197328598D01*
X109097133Y-197308893D01*
X109084520Y-197287849D01*
X109074030Y-197265671D01*
X109065765Y-197242571D01*
X109059804Y-197218773D01*
X109056204Y-197194504D01*
X109055000Y-197170000D01*
X109055000Y-194670000D01*
X109056204Y-194645496D01*
X109059804Y-194621227D01*
X109065765Y-194597429D01*
X109074030Y-194574329D01*
X109084520Y-194552151D01*
X109097133Y-194531107D01*
X109111747Y-194511402D01*
X109128223Y-194493223D01*
X109146402Y-194476747D01*
X109166107Y-194462133D01*
X109187151Y-194449520D01*
X109209329Y-194439030D01*
X109232429Y-194430765D01*
X109256227Y-194424804D01*
X109280496Y-194421204D01*
X109305000Y-194420000D01*
X110405000Y-194420000D01*
X110429504Y-194421204D01*
X110429504Y-194421204D01*
G37*
D12*
X109855000Y-195920000D03*
D11*
G36*
X83759504Y-194421204D02*
G01*
X83783773Y-194424804D01*
X83807571Y-194430765D01*
X83830671Y-194439030D01*
X83852849Y-194449520D01*
X83873893Y-194462133D01*
X83893598Y-194476747D01*
X83911777Y-194493223D01*
X83928253Y-194511402D01*
X83942867Y-194531107D01*
X83955480Y-194552151D01*
X83965970Y-194574329D01*
X83974235Y-194597429D01*
X83980196Y-194621227D01*
X83983796Y-194645496D01*
X83985000Y-194670000D01*
X83985000Y-197170000D01*
X83983796Y-197194504D01*
X83980196Y-197218773D01*
X83974235Y-197242571D01*
X83965970Y-197265671D01*
X83955480Y-197287849D01*
X83942867Y-197308893D01*
X83928253Y-197328598D01*
X83911777Y-197346777D01*
X83893598Y-197363253D01*
X83873893Y-197377867D01*
X83852849Y-197390480D01*
X83830671Y-197400970D01*
X83807571Y-197409235D01*
X83783773Y-197415196D01*
X83759504Y-197418796D01*
X83735000Y-197420000D01*
X82635000Y-197420000D01*
X82610496Y-197418796D01*
X82586227Y-197415196D01*
X82562429Y-197409235D01*
X82539329Y-197400970D01*
X82517151Y-197390480D01*
X82496107Y-197377867D01*
X82476402Y-197363253D01*
X82458223Y-197346777D01*
X82441747Y-197328598D01*
X82427133Y-197308893D01*
X82414520Y-197287849D01*
X82404030Y-197265671D01*
X82395765Y-197242571D01*
X82389804Y-197218773D01*
X82386204Y-197194504D01*
X82385000Y-197170000D01*
X82385000Y-194670000D01*
X82386204Y-194645496D01*
X82389804Y-194621227D01*
X82395765Y-194597429D01*
X82404030Y-194574329D01*
X82414520Y-194552151D01*
X82427133Y-194531107D01*
X82441747Y-194511402D01*
X82458223Y-194493223D01*
X82476402Y-194476747D01*
X82496107Y-194462133D01*
X82517151Y-194449520D01*
X82539329Y-194439030D01*
X82562429Y-194430765D01*
X82586227Y-194424804D01*
X82610496Y-194421204D01*
X82635000Y-194420000D01*
X83735000Y-194420000D01*
X83759504Y-194421204D01*
X83759504Y-194421204D01*
G37*
D12*
X83185000Y-195920000D03*
D11*
G36*
X83759504Y-198821204D02*
G01*
X83783773Y-198824804D01*
X83807571Y-198830765D01*
X83830671Y-198839030D01*
X83852849Y-198849520D01*
X83873893Y-198862133D01*
X83893598Y-198876747D01*
X83911777Y-198893223D01*
X83928253Y-198911402D01*
X83942867Y-198931107D01*
X83955480Y-198952151D01*
X83965970Y-198974329D01*
X83974235Y-198997429D01*
X83980196Y-199021227D01*
X83983796Y-199045496D01*
X83985000Y-199070000D01*
X83985000Y-201570000D01*
X83983796Y-201594504D01*
X83980196Y-201618773D01*
X83974235Y-201642571D01*
X83965970Y-201665671D01*
X83955480Y-201687849D01*
X83942867Y-201708893D01*
X83928253Y-201728598D01*
X83911777Y-201746777D01*
X83893598Y-201763253D01*
X83873893Y-201777867D01*
X83852849Y-201790480D01*
X83830671Y-201800970D01*
X83807571Y-201809235D01*
X83783773Y-201815196D01*
X83759504Y-201818796D01*
X83735000Y-201820000D01*
X82635000Y-201820000D01*
X82610496Y-201818796D01*
X82586227Y-201815196D01*
X82562429Y-201809235D01*
X82539329Y-201800970D01*
X82517151Y-201790480D01*
X82496107Y-201777867D01*
X82476402Y-201763253D01*
X82458223Y-201746777D01*
X82441747Y-201728598D01*
X82427133Y-201708893D01*
X82414520Y-201687849D01*
X82404030Y-201665671D01*
X82395765Y-201642571D01*
X82389804Y-201618773D01*
X82386204Y-201594504D01*
X82385000Y-201570000D01*
X82385000Y-199070000D01*
X82386204Y-199045496D01*
X82389804Y-199021227D01*
X82395765Y-198997429D01*
X82404030Y-198974329D01*
X82414520Y-198952151D01*
X82427133Y-198931107D01*
X82441747Y-198911402D01*
X82458223Y-198893223D01*
X82476402Y-198876747D01*
X82496107Y-198862133D01*
X82517151Y-198849520D01*
X82539329Y-198839030D01*
X82562429Y-198830765D01*
X82586227Y-198824804D01*
X82610496Y-198821204D01*
X82635000Y-198820000D01*
X83735000Y-198820000D01*
X83759504Y-198821204D01*
X83759504Y-198821204D01*
G37*
D12*
X83185000Y-200320000D03*
M02*
