G04 #@! TF.GenerationSoftware,KiCad,Pcbnew,(5.1.0)-1*
G04 #@! TF.CreationDate,2019-10-23T13:14:03-05:00*
G04 #@! TF.ProjectId,logiverter,6c6f6769-7665-4727-9465-722e6b696361,rev?*
G04 #@! TF.SameCoordinates,Original*
G04 #@! TF.FileFunction,Other,User*
%FSLAX46Y46*%
G04 Gerber Fmt 4.6, Leading zero omitted, Abs format (unit mm)*
G04 Created by KiCad (PCBNEW (5.1.0)-1) date 2019-10-23 13:14:03*
%MOMM*%
%LPD*%
G04 APERTURE LIST*
%ADD10C,0.050000*%
G04 APERTURE END LIST*
D10*
X81566000Y-158938000D02*
X81566000Y-157038000D01*
X81566000Y-157038000D02*
X85566000Y-157038000D01*
X85566000Y-158938000D02*
X85566000Y-157038000D01*
X81566000Y-158938000D02*
X85566000Y-158938000D01*
X94139000Y-158938000D02*
X94139000Y-157038000D01*
X94139000Y-157038000D02*
X98139000Y-157038000D01*
X98139000Y-158938000D02*
X98139000Y-157038000D01*
X94139000Y-158938000D02*
X98139000Y-158938000D01*
X83505000Y-162084000D02*
X85405000Y-162084000D01*
X85405000Y-162084000D02*
X85405000Y-166084000D01*
X83505000Y-166084000D02*
X85405000Y-166084000D01*
X83505000Y-162084000D02*
X83505000Y-166084000D01*
X87569000Y-162084000D02*
X89469000Y-162084000D01*
X89469000Y-162084000D02*
X89469000Y-166084000D01*
X87569000Y-166084000D02*
X89469000Y-166084000D01*
X87569000Y-162084000D02*
X87569000Y-166084000D01*
X85537000Y-162084000D02*
X87437000Y-162084000D01*
X87437000Y-162084000D02*
X87437000Y-166084000D01*
X85537000Y-166084000D02*
X87437000Y-166084000D01*
X85537000Y-162084000D02*
X85537000Y-166084000D01*
X95565000Y-166084000D02*
X93665000Y-166084000D01*
X93665000Y-166084000D02*
X93665000Y-162084000D01*
X95565000Y-162084000D02*
X93665000Y-162084000D01*
X95565000Y-166084000D02*
X95565000Y-162084000D01*
X91501000Y-166084000D02*
X89601000Y-166084000D01*
X89601000Y-166084000D02*
X89601000Y-162084000D01*
X91501000Y-162084000D02*
X89601000Y-162084000D01*
X91501000Y-166084000D02*
X91501000Y-162084000D01*
X93533000Y-166084000D02*
X91633000Y-166084000D01*
X91633000Y-166084000D02*
X91633000Y-162084000D01*
X93533000Y-162084000D02*
X91633000Y-162084000D01*
X93533000Y-166084000D02*
X93533000Y-162084000D01*
X104396500Y-105084000D02*
X104396500Y-108784000D01*
X106296500Y-105084000D02*
X104396500Y-105084000D01*
X106296500Y-108784000D02*
X106296500Y-105084000D01*
X104396500Y-108784000D02*
X106296500Y-108784000D01*
X110805000Y-106371000D02*
X110805000Y-102671000D01*
X108905000Y-106371000D02*
X110805000Y-106371000D01*
X108905000Y-102671000D02*
X108905000Y-106371000D01*
X110805000Y-102671000D02*
X108905000Y-102671000D01*
X109032000Y-141914000D02*
X109032000Y-145614000D01*
X110932000Y-141914000D02*
X109032000Y-141914000D01*
X110932000Y-145614000D02*
X110932000Y-141914000D01*
X109032000Y-145614000D02*
X110932000Y-145614000D01*
X106746000Y-102671000D02*
X106746000Y-106371000D01*
X108646000Y-102671000D02*
X106746000Y-102671000D01*
X108646000Y-106371000D02*
X108646000Y-102671000D01*
X106746000Y-106371000D02*
X108646000Y-106371000D01*
X111826000Y-141914000D02*
X111826000Y-145614000D01*
X113726000Y-141914000D02*
X111826000Y-141914000D01*
X113726000Y-145614000D02*
X113726000Y-141914000D01*
X111826000Y-145614000D02*
X113726000Y-145614000D01*
X115758000Y-178634000D02*
X115758000Y-174934000D01*
X113858000Y-178634000D02*
X115758000Y-178634000D01*
X113858000Y-174934000D02*
X113858000Y-178634000D01*
X115758000Y-174934000D02*
X113858000Y-174934000D01*
X97862000Y-137988000D02*
X94162000Y-137988000D01*
X97862000Y-139888000D02*
X97862000Y-137988000D01*
X94162000Y-139888000D02*
X97862000Y-139888000D01*
X94162000Y-137988000D02*
X94162000Y-139888000D01*
X109662000Y-178634000D02*
X109662000Y-174934000D01*
X107762000Y-178634000D02*
X109662000Y-178634000D01*
X107762000Y-174934000D02*
X107762000Y-178634000D01*
X109662000Y-174934000D02*
X107762000Y-174934000D01*
X97862000Y-135956000D02*
X94162000Y-135956000D01*
X97862000Y-137856000D02*
X97862000Y-135956000D01*
X94162000Y-137856000D02*
X97862000Y-137856000D01*
X94162000Y-135956000D02*
X94162000Y-137856000D01*
X101028000Y-140088000D02*
X101028000Y-137788000D01*
X105728000Y-137788000D02*
X101028000Y-137788000D01*
X105728000Y-140088000D02*
X105728000Y-137788000D01*
X101028000Y-140088000D02*
X105728000Y-140088000D01*
X102644000Y-104681000D02*
X106144000Y-104681000D01*
X102644000Y-99281000D02*
X102644000Y-104681000D01*
X106144000Y-99281000D02*
X102644000Y-99281000D01*
X106144000Y-104681000D02*
X106144000Y-99281000D01*
X97862000Y-144211000D02*
X94162000Y-144211000D01*
X97862000Y-146111000D02*
X97862000Y-144211000D01*
X94162000Y-146111000D02*
X97862000Y-146111000D01*
X94162000Y-144211000D02*
X94162000Y-146111000D01*
X93489000Y-158193000D02*
X86089000Y-158193000D01*
X93489000Y-148893000D02*
X86089000Y-148893000D01*
X86089000Y-148893000D02*
X86089000Y-158193000D01*
X93489000Y-148893000D02*
X93489000Y-158193000D01*
X93362000Y-146636000D02*
X85962000Y-146636000D01*
X93362000Y-137336000D02*
X85962000Y-137336000D01*
X85962000Y-137336000D02*
X85962000Y-146636000D01*
X93362000Y-137336000D02*
X93362000Y-146636000D01*
X89342000Y-178634000D02*
X89342000Y-174934000D01*
X87442000Y-178634000D02*
X89342000Y-178634000D01*
X87442000Y-174934000D02*
X87442000Y-178634000D01*
X89342000Y-174934000D02*
X87442000Y-174934000D01*
X78928000Y-178634000D02*
X78928000Y-174934000D01*
X77028000Y-178634000D02*
X78928000Y-178634000D01*
X77028000Y-174934000D02*
X77028000Y-178634000D01*
X78928000Y-174934000D02*
X77028000Y-174934000D01*
X99502000Y-174934000D02*
X97602000Y-174934000D01*
X97602000Y-174934000D02*
X97602000Y-178634000D01*
X97602000Y-178634000D02*
X99502000Y-178634000D01*
X99502000Y-178634000D02*
X99502000Y-174934000D01*
X85278000Y-178634000D02*
X85278000Y-174934000D01*
X83378000Y-178634000D02*
X85278000Y-178634000D01*
X83378000Y-174934000D02*
X83378000Y-178634000D01*
X85278000Y-174934000D02*
X83378000Y-174934000D01*
X105598000Y-174934000D02*
X103698000Y-174934000D01*
X103698000Y-174934000D02*
X103698000Y-178634000D01*
X103698000Y-178634000D02*
X105598000Y-178634000D01*
X105598000Y-178634000D02*
X105598000Y-174934000D01*
X85416000Y-155260000D02*
X81716000Y-155260000D01*
X85416000Y-157160000D02*
X85416000Y-155260000D01*
X81716000Y-157160000D02*
X85416000Y-157160000D01*
X81716000Y-155260000D02*
X81716000Y-157160000D01*
X94289000Y-157160000D02*
X97989000Y-157160000D01*
X94289000Y-155260000D02*
X94289000Y-157160000D01*
X97989000Y-155260000D02*
X94289000Y-155260000D01*
X97989000Y-157160000D02*
X97989000Y-155260000D01*
X85416000Y-153355000D02*
X81716000Y-153355000D01*
X85416000Y-155255000D02*
X85416000Y-153355000D01*
X81716000Y-155255000D02*
X85416000Y-155255000D01*
X81716000Y-153355000D02*
X81716000Y-155255000D01*
X94289000Y-155255000D02*
X97989000Y-155255000D01*
X94289000Y-153355000D02*
X94289000Y-155255000D01*
X97989000Y-153355000D02*
X94289000Y-153355000D01*
X97989000Y-155255000D02*
X97989000Y-153355000D01*
X95438000Y-178634000D02*
X95438000Y-174934000D01*
X93538000Y-178634000D02*
X95438000Y-178634000D01*
X93538000Y-174934000D02*
X93538000Y-178634000D01*
X95438000Y-174934000D02*
X93538000Y-174934000D01*
X85416000Y-149291000D02*
X81716000Y-149291000D01*
X85416000Y-151191000D02*
X85416000Y-149291000D01*
X81716000Y-151191000D02*
X85416000Y-151191000D01*
X81716000Y-149291000D02*
X81716000Y-151191000D01*
X91639000Y-146878000D02*
X87939000Y-146878000D01*
X91639000Y-148778000D02*
X91639000Y-146878000D01*
X87939000Y-148778000D02*
X91639000Y-148778000D01*
X87939000Y-146878000D02*
X87939000Y-148778000D01*
X81208000Y-146111000D02*
X84908000Y-146111000D01*
X81208000Y-144211000D02*
X81208000Y-146111000D01*
X84908000Y-144211000D02*
X81208000Y-144211000D01*
X84908000Y-146111000D02*
X84908000Y-144211000D01*
X84908000Y-137861000D02*
X81208000Y-137861000D01*
X84908000Y-139761000D02*
X84908000Y-137861000D01*
X81208000Y-139761000D02*
X84908000Y-139761000D01*
X81208000Y-137861000D02*
X81208000Y-139761000D01*
X94289000Y-151191000D02*
X97989000Y-151191000D01*
X94289000Y-149291000D02*
X94289000Y-151191000D01*
X97989000Y-149291000D02*
X94289000Y-149291000D01*
X97989000Y-151191000D02*
X97989000Y-149291000D01*
X106492000Y-141914000D02*
X106492000Y-145614000D01*
X108392000Y-141914000D02*
X106492000Y-141914000D01*
X108392000Y-145614000D02*
X108392000Y-141914000D01*
X106492000Y-145614000D02*
X108392000Y-145614000D01*
X93157000Y-133676000D02*
X95057000Y-133676000D01*
X95057000Y-133676000D02*
X95057000Y-129976000D01*
X95057000Y-129976000D02*
X93157000Y-129976000D01*
X93157000Y-129976000D02*
X93157000Y-133676000D01*
X79695000Y-117530000D02*
X79695000Y-121230000D01*
X81595000Y-117530000D02*
X79695000Y-117530000D01*
X81595000Y-121230000D02*
X81595000Y-117530000D01*
X79695000Y-121230000D02*
X81595000Y-121230000D01*
X97983000Y-129976000D02*
X97983000Y-133676000D01*
X99883000Y-129976000D02*
X97983000Y-129976000D01*
X99883000Y-133676000D02*
X99883000Y-129976000D01*
X97983000Y-133676000D02*
X99883000Y-133676000D01*
X95570000Y-129976000D02*
X95570000Y-133676000D01*
X97470000Y-129976000D02*
X95570000Y-129976000D01*
X97470000Y-133676000D02*
X97470000Y-129976000D01*
X95570000Y-133676000D02*
X97470000Y-133676000D01*
X84648000Y-117530000D02*
X84648000Y-121230000D01*
X86548000Y-117530000D02*
X84648000Y-117530000D01*
X86548000Y-121230000D02*
X86548000Y-117530000D01*
X84648000Y-121230000D02*
X86548000Y-121230000D01*
X82108000Y-117530000D02*
X82108000Y-121230000D01*
X84008000Y-117530000D02*
X82108000Y-117530000D01*
X84008000Y-121230000D02*
X84008000Y-117530000D01*
X82108000Y-121230000D02*
X84008000Y-121230000D01*
X90744000Y-167187000D02*
X90744000Y-170887000D01*
X92644000Y-167187000D02*
X90744000Y-167187000D01*
X92644000Y-170887000D02*
X92644000Y-167187000D01*
X90744000Y-170887000D02*
X92644000Y-170887000D01*
X88712000Y-167187000D02*
X88712000Y-170887000D01*
X90612000Y-167187000D02*
X88712000Y-167187000D01*
X90612000Y-170887000D02*
X90612000Y-167187000D01*
X88712000Y-170887000D02*
X90612000Y-170887000D01*
X88580000Y-170887000D02*
X88580000Y-167187000D01*
X86680000Y-170887000D02*
X88580000Y-170887000D01*
X86680000Y-167187000D02*
X86680000Y-170887000D01*
X88580000Y-167187000D02*
X86680000Y-167187000D01*
X86090000Y-193440000D02*
X86090000Y-202800000D01*
X106950000Y-193440000D02*
X86090000Y-193440000D01*
X106950000Y-202800000D02*
X106950000Y-193440000D01*
X86090000Y-202800000D02*
X106950000Y-202800000D01*
X97989000Y-151323000D02*
X94289000Y-151323000D01*
X97989000Y-153223000D02*
X97989000Y-151323000D01*
X94289000Y-153223000D02*
X97989000Y-153223000D01*
X94289000Y-151323000D02*
X94289000Y-153223000D01*
X97862000Y-141036000D02*
X94162000Y-141036000D01*
X97862000Y-142936000D02*
X97862000Y-141036000D01*
X94162000Y-142936000D02*
X97862000Y-142936000D01*
X94162000Y-141036000D02*
X94162000Y-142936000D01*
X81716000Y-153223000D02*
X85416000Y-153223000D01*
X81716000Y-151323000D02*
X81716000Y-153223000D01*
X85416000Y-151323000D02*
X81716000Y-151323000D01*
X85416000Y-153223000D02*
X85416000Y-151323000D01*
X81208000Y-142936000D02*
X84908000Y-142936000D01*
X81208000Y-141036000D02*
X81208000Y-142936000D01*
X84908000Y-141036000D02*
X81208000Y-141036000D01*
X84908000Y-142936000D02*
X84908000Y-141036000D01*
X94289000Y-149159000D02*
X97989000Y-149159000D01*
X94289000Y-147259000D02*
X94289000Y-149159000D01*
X97989000Y-147259000D02*
X94289000Y-147259000D01*
X97989000Y-149159000D02*
X97989000Y-147259000D01*
M02*
