G04 #@! TF.GenerationSoftware,KiCad,Pcbnew,(5.1.0)-1*
G04 #@! TF.CreationDate,2019-10-23T13:14:03-05:00*
G04 #@! TF.ProjectId,logiverter,6c6f6769-7665-4727-9465-722e6b696361,rev?*
G04 #@! TF.SameCoordinates,Original*
G04 #@! TF.FileFunction,Other,Fab,Bot*
%FSLAX46Y46*%
G04 Gerber Fmt 4.6, Leading zero omitted, Abs format (unit mm)*
G04 Created by KiCad (PCBNEW (5.1.0)-1) date 2019-10-23 13:14:03*
%MOMM*%
%LPD*%
G04 APERTURE LIST*
%ADD10C,0.100000*%
%ADD11C,0.150000*%
%ADD12C,0.080000*%
%ADD13C,0.075000*%
%ADD14C,0.135000*%
G04 APERTURE END LIST*
D10*
X82666000Y-158688000D02*
X84466000Y-158688000D01*
X84466000Y-158688000D02*
X84466000Y-157288000D01*
X84466000Y-157288000D02*
X82666000Y-157288000D01*
X82666000Y-157288000D02*
X82666000Y-158688000D01*
X83266000Y-158338000D02*
X83266000Y-157638000D01*
X83266000Y-157988000D02*
X83066000Y-157988000D01*
X83266000Y-157988000D02*
X83766000Y-158338000D01*
X83766000Y-158338000D02*
X83766000Y-157638000D01*
X83766000Y-157638000D02*
X83266000Y-157988000D01*
X83766000Y-157988000D02*
X84016000Y-157988000D01*
X95239000Y-158688000D02*
X97039000Y-158688000D01*
X97039000Y-158688000D02*
X97039000Y-157288000D01*
X97039000Y-157288000D02*
X95239000Y-157288000D01*
X95239000Y-157288000D02*
X95239000Y-158688000D01*
X95839000Y-158338000D02*
X95839000Y-157638000D01*
X95839000Y-157988000D02*
X95639000Y-157988000D01*
X95839000Y-157988000D02*
X96339000Y-158338000D01*
X96339000Y-158338000D02*
X96339000Y-157638000D01*
X96339000Y-157638000D02*
X95839000Y-157988000D01*
X96339000Y-157988000D02*
X96589000Y-157988000D01*
X83755000Y-163184000D02*
X83755000Y-164984000D01*
X83755000Y-164984000D02*
X85155000Y-164984000D01*
X85155000Y-164984000D02*
X85155000Y-163184000D01*
X85155000Y-163184000D02*
X83755000Y-163184000D01*
X84105000Y-163784000D02*
X84805000Y-163784000D01*
X84455000Y-163784000D02*
X84455000Y-163584000D01*
X84455000Y-163784000D02*
X84105000Y-164284000D01*
X84105000Y-164284000D02*
X84805000Y-164284000D01*
X84805000Y-164284000D02*
X84455000Y-163784000D01*
X84455000Y-164284000D02*
X84455000Y-164534000D01*
X87819000Y-163184000D02*
X87819000Y-164984000D01*
X87819000Y-164984000D02*
X89219000Y-164984000D01*
X89219000Y-164984000D02*
X89219000Y-163184000D01*
X89219000Y-163184000D02*
X87819000Y-163184000D01*
X88169000Y-163784000D02*
X88869000Y-163784000D01*
X88519000Y-163784000D02*
X88519000Y-163584000D01*
X88519000Y-163784000D02*
X88169000Y-164284000D01*
X88169000Y-164284000D02*
X88869000Y-164284000D01*
X88869000Y-164284000D02*
X88519000Y-163784000D01*
X88519000Y-164284000D02*
X88519000Y-164534000D01*
X85787000Y-163184000D02*
X85787000Y-164984000D01*
X85787000Y-164984000D02*
X87187000Y-164984000D01*
X87187000Y-164984000D02*
X87187000Y-163184000D01*
X87187000Y-163184000D02*
X85787000Y-163184000D01*
X86137000Y-163784000D02*
X86837000Y-163784000D01*
X86487000Y-163784000D02*
X86487000Y-163584000D01*
X86487000Y-163784000D02*
X86137000Y-164284000D01*
X86137000Y-164284000D02*
X86837000Y-164284000D01*
X86837000Y-164284000D02*
X86487000Y-163784000D01*
X86487000Y-164284000D02*
X86487000Y-164534000D01*
X95315000Y-164984000D02*
X95315000Y-163184000D01*
X95315000Y-163184000D02*
X93915000Y-163184000D01*
X93915000Y-163184000D02*
X93915000Y-164984000D01*
X93915000Y-164984000D02*
X95315000Y-164984000D01*
X94965000Y-164384000D02*
X94265000Y-164384000D01*
X94615000Y-164384000D02*
X94615000Y-164584000D01*
X94615000Y-164384000D02*
X94965000Y-163884000D01*
X94965000Y-163884000D02*
X94265000Y-163884000D01*
X94265000Y-163884000D02*
X94615000Y-164384000D01*
X94615000Y-163884000D02*
X94615000Y-163634000D01*
X91251000Y-164984000D02*
X91251000Y-163184000D01*
X91251000Y-163184000D02*
X89851000Y-163184000D01*
X89851000Y-163184000D02*
X89851000Y-164984000D01*
X89851000Y-164984000D02*
X91251000Y-164984000D01*
X90901000Y-164384000D02*
X90201000Y-164384000D01*
X90551000Y-164384000D02*
X90551000Y-164584000D01*
X90551000Y-164384000D02*
X90901000Y-163884000D01*
X90901000Y-163884000D02*
X90201000Y-163884000D01*
X90201000Y-163884000D02*
X90551000Y-164384000D01*
X90551000Y-163884000D02*
X90551000Y-163634000D01*
X93283000Y-164984000D02*
X93283000Y-163184000D01*
X93283000Y-163184000D02*
X91883000Y-163184000D01*
X91883000Y-163184000D02*
X91883000Y-164984000D01*
X91883000Y-164984000D02*
X93283000Y-164984000D01*
X92933000Y-164384000D02*
X92233000Y-164384000D01*
X92583000Y-164384000D02*
X92583000Y-164584000D01*
X92583000Y-164384000D02*
X92933000Y-163884000D01*
X92933000Y-163884000D02*
X92233000Y-163884000D01*
X92233000Y-163884000D02*
X92583000Y-164384000D01*
X92583000Y-163884000D02*
X92583000Y-163634000D01*
X104746500Y-105934000D02*
X104746500Y-107934000D01*
X105946500Y-105934000D02*
X104746500Y-105934000D01*
X105946500Y-107934000D02*
X105946500Y-105934000D01*
X104746500Y-107934000D02*
X105946500Y-107934000D01*
X110455000Y-105521000D02*
X110455000Y-103521000D01*
X109255000Y-105521000D02*
X110455000Y-105521000D01*
X109255000Y-103521000D02*
X109255000Y-105521000D01*
X110455000Y-103521000D02*
X109255000Y-103521000D01*
X109382000Y-142764000D02*
X109382000Y-144764000D01*
X110582000Y-142764000D02*
X109382000Y-142764000D01*
X110582000Y-144764000D02*
X110582000Y-142764000D01*
X109382000Y-144764000D02*
X110582000Y-144764000D01*
X107096000Y-103521000D02*
X107096000Y-105521000D01*
X108296000Y-103521000D02*
X107096000Y-103521000D01*
X108296000Y-105521000D02*
X108296000Y-103521000D01*
X107096000Y-105521000D02*
X108296000Y-105521000D01*
X112176000Y-142764000D02*
X112176000Y-144764000D01*
X113376000Y-142764000D02*
X112176000Y-142764000D01*
X113376000Y-144764000D02*
X113376000Y-142764000D01*
X112176000Y-144764000D02*
X113376000Y-144764000D01*
X115408000Y-177784000D02*
X115408000Y-175784000D01*
X114208000Y-177784000D02*
X115408000Y-177784000D01*
X114208000Y-175784000D02*
X114208000Y-177784000D01*
X115408000Y-175784000D02*
X114208000Y-175784000D01*
X97012000Y-138338000D02*
X95012000Y-138338000D01*
X97012000Y-139538000D02*
X97012000Y-138338000D01*
X95012000Y-139538000D02*
X97012000Y-139538000D01*
X95012000Y-138338000D02*
X95012000Y-139538000D01*
X109312000Y-177784000D02*
X109312000Y-175784000D01*
X108112000Y-177784000D02*
X109312000Y-177784000D01*
X108112000Y-175784000D02*
X108112000Y-177784000D01*
X109312000Y-175784000D02*
X108112000Y-175784000D01*
X97012000Y-136306000D02*
X95012000Y-136306000D01*
X97012000Y-137506000D02*
X97012000Y-136306000D01*
X95012000Y-137506000D02*
X97012000Y-137506000D01*
X95012000Y-136306000D02*
X95012000Y-137506000D01*
X101978000Y-139838000D02*
X104778000Y-139838000D01*
X104778000Y-139838000D02*
X104778000Y-138038000D01*
X104778000Y-138038000D02*
X101978000Y-138038000D01*
X101978000Y-138038000D02*
X101978000Y-139838000D01*
X102628000Y-138938000D02*
X103028000Y-138938000D01*
X103028000Y-138938000D02*
X103028000Y-139488000D01*
X103028000Y-138938000D02*
X103028000Y-138388000D01*
X103028000Y-138938000D02*
X103628000Y-139338000D01*
X103628000Y-139338000D02*
X103628000Y-138538000D01*
X103628000Y-138538000D02*
X103028000Y-138938000D01*
X103628000Y-138938000D02*
X104128000Y-138938000D01*
X102874000Y-102681000D02*
X102874000Y-101281000D01*
X105914000Y-101281000D02*
X102874000Y-101281000D01*
X105344000Y-102681000D02*
X105914000Y-102131000D01*
X105914000Y-102131000D02*
X105914000Y-101281000D01*
X105344000Y-102681000D02*
X102894000Y-102681000D01*
X97012000Y-144561000D02*
X95012000Y-144561000D01*
X97012000Y-145761000D02*
X97012000Y-144561000D01*
X95012000Y-145761000D02*
X97012000Y-145761000D01*
X95012000Y-144561000D02*
X95012000Y-145761000D01*
D11*
X91739000Y-150193000D02*
X90739000Y-149193000D01*
X91739000Y-157893000D02*
X91739000Y-150193000D01*
X87839000Y-157893000D02*
X91739000Y-157893000D01*
X87839000Y-149193000D02*
X87839000Y-157893000D01*
X90739000Y-149193000D02*
X87839000Y-149193000D01*
X91612000Y-138636000D02*
X90612000Y-137636000D01*
X91612000Y-146336000D02*
X91612000Y-138636000D01*
X87712000Y-146336000D02*
X91612000Y-146336000D01*
X87712000Y-137636000D02*
X87712000Y-146336000D01*
X90612000Y-137636000D02*
X87712000Y-137636000D01*
D10*
X88992000Y-177784000D02*
X88992000Y-175784000D01*
X87792000Y-177784000D02*
X88992000Y-177784000D01*
X87792000Y-175784000D02*
X87792000Y-177784000D01*
X88992000Y-175784000D02*
X87792000Y-175784000D01*
X78578000Y-177784000D02*
X78578000Y-175784000D01*
X77378000Y-177784000D02*
X78578000Y-177784000D01*
X77378000Y-175784000D02*
X77378000Y-177784000D01*
X78578000Y-175784000D02*
X77378000Y-175784000D01*
X99152000Y-175784000D02*
X97952000Y-175784000D01*
X97952000Y-175784000D02*
X97952000Y-177784000D01*
X97952000Y-177784000D02*
X99152000Y-177784000D01*
X99152000Y-177784000D02*
X99152000Y-175784000D01*
X84928000Y-177784000D02*
X84928000Y-175784000D01*
X83728000Y-177784000D02*
X84928000Y-177784000D01*
X83728000Y-175784000D02*
X83728000Y-177784000D01*
X84928000Y-175784000D02*
X83728000Y-175784000D01*
X105248000Y-175784000D02*
X104048000Y-175784000D01*
X104048000Y-175784000D02*
X104048000Y-177784000D01*
X104048000Y-177784000D02*
X105248000Y-177784000D01*
X105248000Y-177784000D02*
X105248000Y-175784000D01*
X84566000Y-155610000D02*
X82566000Y-155610000D01*
X84566000Y-156810000D02*
X84566000Y-155610000D01*
X82566000Y-156810000D02*
X84566000Y-156810000D01*
X82566000Y-155610000D02*
X82566000Y-156810000D01*
X95139000Y-156810000D02*
X97139000Y-156810000D01*
X95139000Y-155610000D02*
X95139000Y-156810000D01*
X97139000Y-155610000D02*
X95139000Y-155610000D01*
X97139000Y-156810000D02*
X97139000Y-155610000D01*
X84566000Y-153705000D02*
X82566000Y-153705000D01*
X84566000Y-154905000D02*
X84566000Y-153705000D01*
X82566000Y-154905000D02*
X84566000Y-154905000D01*
X82566000Y-153705000D02*
X82566000Y-154905000D01*
X95139000Y-154905000D02*
X97139000Y-154905000D01*
X95139000Y-153705000D02*
X95139000Y-154905000D01*
X97139000Y-153705000D02*
X95139000Y-153705000D01*
X97139000Y-154905000D02*
X97139000Y-153705000D01*
X95088000Y-177784000D02*
X95088000Y-175784000D01*
X93888000Y-177784000D02*
X95088000Y-177784000D01*
X93888000Y-175784000D02*
X93888000Y-177784000D01*
X95088000Y-175784000D02*
X93888000Y-175784000D01*
X84566000Y-149641000D02*
X82566000Y-149641000D01*
X84566000Y-150841000D02*
X84566000Y-149641000D01*
X82566000Y-150841000D02*
X84566000Y-150841000D01*
X82566000Y-149641000D02*
X82566000Y-150841000D01*
X90789000Y-147228000D02*
X88789000Y-147228000D01*
X90789000Y-148428000D02*
X90789000Y-147228000D01*
X88789000Y-148428000D02*
X90789000Y-148428000D01*
X88789000Y-147228000D02*
X88789000Y-148428000D01*
X82058000Y-145761000D02*
X84058000Y-145761000D01*
X82058000Y-144561000D02*
X82058000Y-145761000D01*
X84058000Y-144561000D02*
X82058000Y-144561000D01*
X84058000Y-145761000D02*
X84058000Y-144561000D01*
X84058000Y-138211000D02*
X82058000Y-138211000D01*
X84058000Y-139411000D02*
X84058000Y-138211000D01*
X82058000Y-139411000D02*
X84058000Y-139411000D01*
X82058000Y-138211000D02*
X82058000Y-139411000D01*
X95139000Y-150841000D02*
X97139000Y-150841000D01*
X95139000Y-149641000D02*
X95139000Y-150841000D01*
X97139000Y-149641000D02*
X95139000Y-149641000D01*
X97139000Y-150841000D02*
X97139000Y-149641000D01*
X106842000Y-142764000D02*
X106842000Y-144764000D01*
X108042000Y-142764000D02*
X106842000Y-142764000D01*
X108042000Y-144764000D02*
X108042000Y-142764000D01*
X106842000Y-144764000D02*
X108042000Y-144764000D01*
X93507000Y-132826000D02*
X94707000Y-132826000D01*
X94707000Y-132826000D02*
X94707000Y-130826000D01*
X94707000Y-130826000D02*
X93507000Y-130826000D01*
X93507000Y-130826000D02*
X93507000Y-132826000D01*
X80045000Y-118380000D02*
X80045000Y-120380000D01*
X81245000Y-118380000D02*
X80045000Y-118380000D01*
X81245000Y-120380000D02*
X81245000Y-118380000D01*
X80045000Y-120380000D02*
X81245000Y-120380000D01*
X98333000Y-130826000D02*
X98333000Y-132826000D01*
X99533000Y-130826000D02*
X98333000Y-130826000D01*
X99533000Y-132826000D02*
X99533000Y-130826000D01*
X98333000Y-132826000D02*
X99533000Y-132826000D01*
X95920000Y-130826000D02*
X95920000Y-132826000D01*
X97120000Y-130826000D02*
X95920000Y-130826000D01*
X97120000Y-132826000D02*
X97120000Y-130826000D01*
X95920000Y-132826000D02*
X97120000Y-132826000D01*
X84998000Y-118380000D02*
X84998000Y-120380000D01*
X86198000Y-118380000D02*
X84998000Y-118380000D01*
X86198000Y-120380000D02*
X86198000Y-118380000D01*
X84998000Y-120380000D02*
X86198000Y-120380000D01*
X82458000Y-118380000D02*
X82458000Y-120380000D01*
X83658000Y-118380000D02*
X82458000Y-118380000D01*
X83658000Y-120380000D02*
X83658000Y-118380000D01*
X82458000Y-120380000D02*
X83658000Y-120380000D01*
X91094000Y-168037000D02*
X91094000Y-170037000D01*
X92294000Y-168037000D02*
X91094000Y-168037000D01*
X92294000Y-170037000D02*
X92294000Y-168037000D01*
X91094000Y-170037000D02*
X92294000Y-170037000D01*
X89062000Y-168037000D02*
X89062000Y-170037000D01*
X90262000Y-168037000D02*
X89062000Y-168037000D01*
X90262000Y-170037000D02*
X90262000Y-168037000D01*
X89062000Y-170037000D02*
X90262000Y-170037000D01*
X88230000Y-170037000D02*
X88230000Y-168037000D01*
X87030000Y-170037000D02*
X88230000Y-170037000D01*
X87030000Y-168037000D02*
X87030000Y-170037000D01*
X88230000Y-168037000D02*
X87030000Y-168037000D01*
X106700000Y-193695000D02*
X106140000Y-194245000D01*
X86340000Y-193695000D02*
X86880000Y-194245000D01*
X106700000Y-202545000D02*
X106140000Y-201995000D01*
X86340000Y-202545000D02*
X86880000Y-201995000D01*
X106140000Y-201995000D02*
X106140000Y-194245000D01*
X106700000Y-202545000D02*
X106700000Y-193695000D01*
X86880000Y-201995000D02*
X86880000Y-194245000D01*
X86340000Y-202545000D02*
X86340000Y-193695000D01*
X98770000Y-194245000D02*
X98770000Y-193695000D01*
X94270000Y-194245000D02*
X94270000Y-193695000D01*
X98770000Y-194245000D02*
X106140000Y-194245000D01*
X86880000Y-194245000D02*
X94270000Y-194245000D01*
X86340000Y-193695000D02*
X106700000Y-193695000D01*
X86880000Y-201995000D02*
X106140000Y-201995000D01*
X86340000Y-202545000D02*
X106700000Y-202545000D01*
X97139000Y-151673000D02*
X95139000Y-151673000D01*
X97139000Y-152873000D02*
X97139000Y-151673000D01*
X95139000Y-152873000D02*
X97139000Y-152873000D01*
X95139000Y-151673000D02*
X95139000Y-152873000D01*
X97012000Y-141386000D02*
X95012000Y-141386000D01*
X97012000Y-142586000D02*
X97012000Y-141386000D01*
X95012000Y-142586000D02*
X97012000Y-142586000D01*
X95012000Y-141386000D02*
X95012000Y-142586000D01*
X82566000Y-152873000D02*
X84566000Y-152873000D01*
X82566000Y-151673000D02*
X82566000Y-152873000D01*
X84566000Y-151673000D02*
X82566000Y-151673000D01*
X84566000Y-152873000D02*
X84566000Y-151673000D01*
X82058000Y-142586000D02*
X84058000Y-142586000D01*
X82058000Y-141386000D02*
X82058000Y-142586000D01*
X84058000Y-141386000D02*
X82058000Y-141386000D01*
X84058000Y-142586000D02*
X84058000Y-141386000D01*
X95139000Y-148809000D02*
X97139000Y-148809000D01*
X95139000Y-147609000D02*
X95139000Y-148809000D01*
X97139000Y-147609000D02*
X95139000Y-147609000D01*
X97139000Y-148809000D02*
X97139000Y-147609000D01*
D11*
X86761238Y-156540380D02*
X87332666Y-156540380D01*
X87046952Y-156540380D02*
X87046952Y-155540380D01*
X87142190Y-155683238D01*
X87237428Y-155778476D01*
X87332666Y-155826095D01*
X86332666Y-156540380D02*
X86332666Y-155540380D01*
X85761238Y-156540380D01*
X85761238Y-155540380D01*
X84856476Y-155873714D02*
X84856476Y-156540380D01*
X85094571Y-155492761D02*
X85332666Y-156207047D01*
X84713619Y-156207047D01*
X83808857Y-156540380D02*
X84380285Y-156540380D01*
X84094571Y-156540380D02*
X84094571Y-155540380D01*
X84189809Y-155683238D01*
X84285047Y-155778476D01*
X84380285Y-155826095D01*
X82951714Y-155873714D02*
X82951714Y-156540380D01*
X83189809Y-155492761D02*
X83427904Y-156207047D01*
X82808857Y-156207047D01*
X82285047Y-155968952D02*
X82380285Y-155921333D01*
X82427904Y-155873714D01*
X82475523Y-155778476D01*
X82475523Y-155730857D01*
X82427904Y-155635619D01*
X82380285Y-155588000D01*
X82285047Y-155540380D01*
X82094571Y-155540380D01*
X81999333Y-155588000D01*
X81951714Y-155635619D01*
X81904095Y-155730857D01*
X81904095Y-155778476D01*
X81951714Y-155873714D01*
X81999333Y-155921333D01*
X82094571Y-155968952D01*
X82285047Y-155968952D01*
X82380285Y-156016571D01*
X82427904Y-156064190D01*
X82475523Y-156159428D01*
X82475523Y-156349904D01*
X82427904Y-156445142D01*
X82380285Y-156492761D01*
X82285047Y-156540380D01*
X82094571Y-156540380D01*
X81999333Y-156492761D01*
X81951714Y-156445142D01*
X81904095Y-156349904D01*
X81904095Y-156159428D01*
X81951714Y-156064190D01*
X81999333Y-156016571D01*
X82094571Y-155968952D01*
X81570761Y-155540380D02*
X81332666Y-156540380D01*
X81142190Y-155826095D01*
X80951714Y-156540380D01*
X80713619Y-155540380D01*
X80475523Y-155540380D02*
X79904095Y-155540380D01*
X80189809Y-156540380D02*
X80189809Y-155540380D01*
X84304095Y-160290380D02*
X84304095Y-159290380D01*
X84066000Y-159290380D01*
X83923142Y-159338000D01*
X83827904Y-159433238D01*
X83780285Y-159528476D01*
X83732666Y-159718952D01*
X83732666Y-159861809D01*
X83780285Y-160052285D01*
X83827904Y-160147523D01*
X83923142Y-160242761D01*
X84066000Y-160290380D01*
X84304095Y-160290380D01*
X83256476Y-160290380D02*
X83066000Y-160290380D01*
X82970761Y-160242761D01*
X82923142Y-160195142D01*
X82827904Y-160052285D01*
X82780285Y-159861809D01*
X82780285Y-159480857D01*
X82827904Y-159385619D01*
X82875523Y-159338000D01*
X82970761Y-159290380D01*
X83161238Y-159290380D01*
X83256476Y-159338000D01*
X83304095Y-159385619D01*
X83351714Y-159480857D01*
X83351714Y-159718952D01*
X83304095Y-159814190D01*
X83256476Y-159861809D01*
X83161238Y-159909428D01*
X82970761Y-159909428D01*
X82875523Y-159861809D01*
X82827904Y-159814190D01*
X82780285Y-159718952D01*
X99334238Y-156540380D02*
X99905666Y-156540380D01*
X99619952Y-156540380D02*
X99619952Y-155540380D01*
X99715190Y-155683238D01*
X99810428Y-155778476D01*
X99905666Y-155826095D01*
X98905666Y-156540380D02*
X98905666Y-155540380D01*
X98334238Y-156540380D01*
X98334238Y-155540380D01*
X97429476Y-155873714D02*
X97429476Y-156540380D01*
X97667571Y-155492761D02*
X97905666Y-156207047D01*
X97286619Y-156207047D01*
X96381857Y-156540380D02*
X96953285Y-156540380D01*
X96667571Y-156540380D02*
X96667571Y-155540380D01*
X96762809Y-155683238D01*
X96858047Y-155778476D01*
X96953285Y-155826095D01*
X95524714Y-155873714D02*
X95524714Y-156540380D01*
X95762809Y-155492761D02*
X96000904Y-156207047D01*
X95381857Y-156207047D01*
X94858047Y-155968952D02*
X94953285Y-155921333D01*
X95000904Y-155873714D01*
X95048523Y-155778476D01*
X95048523Y-155730857D01*
X95000904Y-155635619D01*
X94953285Y-155588000D01*
X94858047Y-155540380D01*
X94667571Y-155540380D01*
X94572333Y-155588000D01*
X94524714Y-155635619D01*
X94477095Y-155730857D01*
X94477095Y-155778476D01*
X94524714Y-155873714D01*
X94572333Y-155921333D01*
X94667571Y-155968952D01*
X94858047Y-155968952D01*
X94953285Y-156016571D01*
X95000904Y-156064190D01*
X95048523Y-156159428D01*
X95048523Y-156349904D01*
X95000904Y-156445142D01*
X94953285Y-156492761D01*
X94858047Y-156540380D01*
X94667571Y-156540380D01*
X94572333Y-156492761D01*
X94524714Y-156445142D01*
X94477095Y-156349904D01*
X94477095Y-156159428D01*
X94524714Y-156064190D01*
X94572333Y-156016571D01*
X94667571Y-155968952D01*
X94143761Y-155540380D02*
X93905666Y-156540380D01*
X93715190Y-155826095D01*
X93524714Y-156540380D01*
X93286619Y-155540380D01*
X93048523Y-155540380D02*
X92477095Y-155540380D01*
X92762809Y-156540380D02*
X92762809Y-155540380D01*
X96877095Y-160290380D02*
X96877095Y-159290380D01*
X96639000Y-159290380D01*
X96496142Y-159338000D01*
X96400904Y-159433238D01*
X96353285Y-159528476D01*
X96305666Y-159718952D01*
X96305666Y-159861809D01*
X96353285Y-160052285D01*
X96400904Y-160147523D01*
X96496142Y-160242761D01*
X96639000Y-160290380D01*
X96877095Y-160290380D01*
X95734238Y-159718952D02*
X95829476Y-159671333D01*
X95877095Y-159623714D01*
X95924714Y-159528476D01*
X95924714Y-159480857D01*
X95877095Y-159385619D01*
X95829476Y-159338000D01*
X95734238Y-159290380D01*
X95543761Y-159290380D01*
X95448523Y-159338000D01*
X95400904Y-159385619D01*
X95353285Y-159480857D01*
X95353285Y-159528476D01*
X95400904Y-159623714D01*
X95448523Y-159671333D01*
X95543761Y-159718952D01*
X95734238Y-159718952D01*
X95829476Y-159766571D01*
X95877095Y-159814190D01*
X95924714Y-159909428D01*
X95924714Y-160099904D01*
X95877095Y-160195142D01*
X95829476Y-160242761D01*
X95734238Y-160290380D01*
X95543761Y-160290380D01*
X95448523Y-160242761D01*
X95400904Y-160195142D01*
X95353285Y-160099904D01*
X95353285Y-159909428D01*
X95400904Y-159814190D01*
X95448523Y-159766571D01*
X95543761Y-159718952D01*
X86807380Y-161088761D02*
X86807380Y-160517333D01*
X86807380Y-160803047D02*
X85807380Y-160803047D01*
X85950238Y-160707809D01*
X86045476Y-160612571D01*
X86093095Y-160517333D01*
X86807380Y-161517333D02*
X85807380Y-161517333D01*
X86807380Y-162088761D01*
X85807380Y-162088761D01*
X86140714Y-162993523D02*
X86807380Y-162993523D01*
X85759761Y-162755428D02*
X86474047Y-162517333D01*
X86474047Y-163136380D01*
X86807380Y-164041142D02*
X86807380Y-163469714D01*
X86807380Y-163755428D02*
X85807380Y-163755428D01*
X85950238Y-163660190D01*
X86045476Y-163564952D01*
X86093095Y-163469714D01*
X86140714Y-164898285D02*
X86807380Y-164898285D01*
X85759761Y-164660190D02*
X86474047Y-164422095D01*
X86474047Y-165041142D01*
X86235952Y-165564952D02*
X86188333Y-165469714D01*
X86140714Y-165422095D01*
X86045476Y-165374476D01*
X85997857Y-165374476D01*
X85902619Y-165422095D01*
X85855000Y-165469714D01*
X85807380Y-165564952D01*
X85807380Y-165755428D01*
X85855000Y-165850666D01*
X85902619Y-165898285D01*
X85997857Y-165945904D01*
X86045476Y-165945904D01*
X86140714Y-165898285D01*
X86188333Y-165850666D01*
X86235952Y-165755428D01*
X86235952Y-165564952D01*
X86283571Y-165469714D01*
X86331190Y-165422095D01*
X86426428Y-165374476D01*
X86616904Y-165374476D01*
X86712142Y-165422095D01*
X86759761Y-165469714D01*
X86807380Y-165564952D01*
X86807380Y-165755428D01*
X86759761Y-165850666D01*
X86712142Y-165898285D01*
X86616904Y-165945904D01*
X86426428Y-165945904D01*
X86331190Y-165898285D01*
X86283571Y-165850666D01*
X86235952Y-165755428D01*
X85807380Y-166279238D02*
X86807380Y-166517333D01*
X86093095Y-166707809D01*
X86807380Y-166898285D01*
X85807380Y-167136380D01*
X85807380Y-167374476D02*
X85807380Y-167945904D01*
X86807380Y-167660190D02*
X85807380Y-167660190D01*
X83057380Y-163345904D02*
X82057380Y-163345904D01*
X82057380Y-163584000D01*
X82105000Y-163726857D01*
X82200238Y-163822095D01*
X82295476Y-163869714D01*
X82485952Y-163917333D01*
X82628809Y-163917333D01*
X82819285Y-163869714D01*
X82914523Y-163822095D01*
X83009761Y-163726857D01*
X83057380Y-163584000D01*
X83057380Y-163345904D01*
X82057380Y-164250666D02*
X82057380Y-164917333D01*
X83057380Y-164488761D01*
X90871380Y-161088761D02*
X90871380Y-160517333D01*
X90871380Y-160803047D02*
X89871380Y-160803047D01*
X90014238Y-160707809D01*
X90109476Y-160612571D01*
X90157095Y-160517333D01*
X90871380Y-161517333D02*
X89871380Y-161517333D01*
X90871380Y-162088761D01*
X89871380Y-162088761D01*
X90204714Y-162993523D02*
X90871380Y-162993523D01*
X89823761Y-162755428D02*
X90538047Y-162517333D01*
X90538047Y-163136380D01*
X90871380Y-164041142D02*
X90871380Y-163469714D01*
X90871380Y-163755428D02*
X89871380Y-163755428D01*
X90014238Y-163660190D01*
X90109476Y-163564952D01*
X90157095Y-163469714D01*
X90204714Y-164898285D02*
X90871380Y-164898285D01*
X89823761Y-164660190D02*
X90538047Y-164422095D01*
X90538047Y-165041142D01*
X90299952Y-165564952D02*
X90252333Y-165469714D01*
X90204714Y-165422095D01*
X90109476Y-165374476D01*
X90061857Y-165374476D01*
X89966619Y-165422095D01*
X89919000Y-165469714D01*
X89871380Y-165564952D01*
X89871380Y-165755428D01*
X89919000Y-165850666D01*
X89966619Y-165898285D01*
X90061857Y-165945904D01*
X90109476Y-165945904D01*
X90204714Y-165898285D01*
X90252333Y-165850666D01*
X90299952Y-165755428D01*
X90299952Y-165564952D01*
X90347571Y-165469714D01*
X90395190Y-165422095D01*
X90490428Y-165374476D01*
X90680904Y-165374476D01*
X90776142Y-165422095D01*
X90823761Y-165469714D01*
X90871380Y-165564952D01*
X90871380Y-165755428D01*
X90823761Y-165850666D01*
X90776142Y-165898285D01*
X90680904Y-165945904D01*
X90490428Y-165945904D01*
X90395190Y-165898285D01*
X90347571Y-165850666D01*
X90299952Y-165755428D01*
X89871380Y-166279238D02*
X90871380Y-166517333D01*
X90157095Y-166707809D01*
X90871380Y-166898285D01*
X89871380Y-167136380D01*
X89871380Y-167374476D02*
X89871380Y-167945904D01*
X90871380Y-167660190D02*
X89871380Y-167660190D01*
X87121380Y-163345904D02*
X86121380Y-163345904D01*
X86121380Y-163584000D01*
X86169000Y-163726857D01*
X86264238Y-163822095D01*
X86359476Y-163869714D01*
X86549952Y-163917333D01*
X86692809Y-163917333D01*
X86883285Y-163869714D01*
X86978523Y-163822095D01*
X87073761Y-163726857D01*
X87121380Y-163584000D01*
X87121380Y-163345904D01*
X86121380Y-164774476D02*
X86121380Y-164584000D01*
X86169000Y-164488761D01*
X86216619Y-164441142D01*
X86359476Y-164345904D01*
X86549952Y-164298285D01*
X86930904Y-164298285D01*
X87026142Y-164345904D01*
X87073761Y-164393523D01*
X87121380Y-164488761D01*
X87121380Y-164679238D01*
X87073761Y-164774476D01*
X87026142Y-164822095D01*
X86930904Y-164869714D01*
X86692809Y-164869714D01*
X86597571Y-164822095D01*
X86549952Y-164774476D01*
X86502333Y-164679238D01*
X86502333Y-164488761D01*
X86549952Y-164393523D01*
X86597571Y-164345904D01*
X86692809Y-164298285D01*
X88839380Y-161088761D02*
X88839380Y-160517333D01*
X88839380Y-160803047D02*
X87839380Y-160803047D01*
X87982238Y-160707809D01*
X88077476Y-160612571D01*
X88125095Y-160517333D01*
X88839380Y-161517333D02*
X87839380Y-161517333D01*
X88839380Y-162088761D01*
X87839380Y-162088761D01*
X88172714Y-162993523D02*
X88839380Y-162993523D01*
X87791761Y-162755428D02*
X88506047Y-162517333D01*
X88506047Y-163136380D01*
X88839380Y-164041142D02*
X88839380Y-163469714D01*
X88839380Y-163755428D02*
X87839380Y-163755428D01*
X87982238Y-163660190D01*
X88077476Y-163564952D01*
X88125095Y-163469714D01*
X88172714Y-164898285D02*
X88839380Y-164898285D01*
X87791761Y-164660190D02*
X88506047Y-164422095D01*
X88506047Y-165041142D01*
X88267952Y-165564952D02*
X88220333Y-165469714D01*
X88172714Y-165422095D01*
X88077476Y-165374476D01*
X88029857Y-165374476D01*
X87934619Y-165422095D01*
X87887000Y-165469714D01*
X87839380Y-165564952D01*
X87839380Y-165755428D01*
X87887000Y-165850666D01*
X87934619Y-165898285D01*
X88029857Y-165945904D01*
X88077476Y-165945904D01*
X88172714Y-165898285D01*
X88220333Y-165850666D01*
X88267952Y-165755428D01*
X88267952Y-165564952D01*
X88315571Y-165469714D01*
X88363190Y-165422095D01*
X88458428Y-165374476D01*
X88648904Y-165374476D01*
X88744142Y-165422095D01*
X88791761Y-165469714D01*
X88839380Y-165564952D01*
X88839380Y-165755428D01*
X88791761Y-165850666D01*
X88744142Y-165898285D01*
X88648904Y-165945904D01*
X88458428Y-165945904D01*
X88363190Y-165898285D01*
X88315571Y-165850666D01*
X88267952Y-165755428D01*
X87839380Y-166279238D02*
X88839380Y-166517333D01*
X88125095Y-166707809D01*
X88839380Y-166898285D01*
X87839380Y-167136380D01*
X87839380Y-167374476D02*
X87839380Y-167945904D01*
X88839380Y-167660190D02*
X87839380Y-167660190D01*
X85089380Y-163345904D02*
X84089380Y-163345904D01*
X84089380Y-163584000D01*
X84137000Y-163726857D01*
X84232238Y-163822095D01*
X84327476Y-163869714D01*
X84517952Y-163917333D01*
X84660809Y-163917333D01*
X84851285Y-163869714D01*
X84946523Y-163822095D01*
X85041761Y-163726857D01*
X85089380Y-163584000D01*
X85089380Y-163345904D01*
X84089380Y-164822095D02*
X84089380Y-164345904D01*
X84565571Y-164298285D01*
X84517952Y-164345904D01*
X84470333Y-164441142D01*
X84470333Y-164679238D01*
X84517952Y-164774476D01*
X84565571Y-164822095D01*
X84660809Y-164869714D01*
X84898904Y-164869714D01*
X84994142Y-164822095D01*
X85041761Y-164774476D01*
X85089380Y-164679238D01*
X85089380Y-164441142D01*
X85041761Y-164345904D01*
X84994142Y-164298285D01*
X93167380Y-160888761D02*
X93167380Y-160317333D01*
X93167380Y-160603047D02*
X92167380Y-160603047D01*
X92310238Y-160507809D01*
X92405476Y-160412571D01*
X92453095Y-160317333D01*
X93167380Y-161317333D02*
X92167380Y-161317333D01*
X93167380Y-161888761D01*
X92167380Y-161888761D01*
X92500714Y-162793523D02*
X93167380Y-162793523D01*
X92119761Y-162555428D02*
X92834047Y-162317333D01*
X92834047Y-162936380D01*
X93167380Y-163841142D02*
X93167380Y-163269714D01*
X93167380Y-163555428D02*
X92167380Y-163555428D01*
X92310238Y-163460190D01*
X92405476Y-163364952D01*
X92453095Y-163269714D01*
X92500714Y-164698285D02*
X93167380Y-164698285D01*
X92119761Y-164460190D02*
X92834047Y-164222095D01*
X92834047Y-164841142D01*
X92595952Y-165364952D02*
X92548333Y-165269714D01*
X92500714Y-165222095D01*
X92405476Y-165174476D01*
X92357857Y-165174476D01*
X92262619Y-165222095D01*
X92215000Y-165269714D01*
X92167380Y-165364952D01*
X92167380Y-165555428D01*
X92215000Y-165650666D01*
X92262619Y-165698285D01*
X92357857Y-165745904D01*
X92405476Y-165745904D01*
X92500714Y-165698285D01*
X92548333Y-165650666D01*
X92595952Y-165555428D01*
X92595952Y-165364952D01*
X92643571Y-165269714D01*
X92691190Y-165222095D01*
X92786428Y-165174476D01*
X92976904Y-165174476D01*
X93072142Y-165222095D01*
X93119761Y-165269714D01*
X93167380Y-165364952D01*
X93167380Y-165555428D01*
X93119761Y-165650666D01*
X93072142Y-165698285D01*
X92976904Y-165745904D01*
X92786428Y-165745904D01*
X92691190Y-165698285D01*
X92643571Y-165650666D01*
X92595952Y-165555428D01*
X92167380Y-166079238D02*
X93167380Y-166317333D01*
X92453095Y-166507809D01*
X93167380Y-166698285D01*
X92167380Y-166936380D01*
X92167380Y-167174476D02*
X92167380Y-167745904D01*
X93167380Y-167460190D02*
X92167380Y-167460190D01*
X96917380Y-163345904D02*
X95917380Y-163345904D01*
X95917380Y-163584000D01*
X95965000Y-163726857D01*
X96060238Y-163822095D01*
X96155476Y-163869714D01*
X96345952Y-163917333D01*
X96488809Y-163917333D01*
X96679285Y-163869714D01*
X96774523Y-163822095D01*
X96869761Y-163726857D01*
X96917380Y-163584000D01*
X96917380Y-163345904D01*
X96250714Y-164774476D02*
X96917380Y-164774476D01*
X95869761Y-164536380D02*
X96584047Y-164298285D01*
X96584047Y-164917333D01*
X89103380Y-160888761D02*
X89103380Y-160317333D01*
X89103380Y-160603047D02*
X88103380Y-160603047D01*
X88246238Y-160507809D01*
X88341476Y-160412571D01*
X88389095Y-160317333D01*
X89103380Y-161317333D02*
X88103380Y-161317333D01*
X89103380Y-161888761D01*
X88103380Y-161888761D01*
X88436714Y-162793523D02*
X89103380Y-162793523D01*
X88055761Y-162555428D02*
X88770047Y-162317333D01*
X88770047Y-162936380D01*
X89103380Y-163841142D02*
X89103380Y-163269714D01*
X89103380Y-163555428D02*
X88103380Y-163555428D01*
X88246238Y-163460190D01*
X88341476Y-163364952D01*
X88389095Y-163269714D01*
X88436714Y-164698285D02*
X89103380Y-164698285D01*
X88055761Y-164460190D02*
X88770047Y-164222095D01*
X88770047Y-164841142D01*
X88531952Y-165364952D02*
X88484333Y-165269714D01*
X88436714Y-165222095D01*
X88341476Y-165174476D01*
X88293857Y-165174476D01*
X88198619Y-165222095D01*
X88151000Y-165269714D01*
X88103380Y-165364952D01*
X88103380Y-165555428D01*
X88151000Y-165650666D01*
X88198619Y-165698285D01*
X88293857Y-165745904D01*
X88341476Y-165745904D01*
X88436714Y-165698285D01*
X88484333Y-165650666D01*
X88531952Y-165555428D01*
X88531952Y-165364952D01*
X88579571Y-165269714D01*
X88627190Y-165222095D01*
X88722428Y-165174476D01*
X88912904Y-165174476D01*
X89008142Y-165222095D01*
X89055761Y-165269714D01*
X89103380Y-165364952D01*
X89103380Y-165555428D01*
X89055761Y-165650666D01*
X89008142Y-165698285D01*
X88912904Y-165745904D01*
X88722428Y-165745904D01*
X88627190Y-165698285D01*
X88579571Y-165650666D01*
X88531952Y-165555428D01*
X88103380Y-166079238D02*
X89103380Y-166317333D01*
X88389095Y-166507809D01*
X89103380Y-166698285D01*
X88103380Y-166936380D01*
X88103380Y-167174476D02*
X88103380Y-167745904D01*
X89103380Y-167460190D02*
X88103380Y-167460190D01*
X92853380Y-163345904D02*
X91853380Y-163345904D01*
X91853380Y-163584000D01*
X91901000Y-163726857D01*
X91996238Y-163822095D01*
X92091476Y-163869714D01*
X92281952Y-163917333D01*
X92424809Y-163917333D01*
X92615285Y-163869714D01*
X92710523Y-163822095D01*
X92805761Y-163726857D01*
X92853380Y-163584000D01*
X92853380Y-163345904D01*
X91853380Y-164250666D02*
X91853380Y-164869714D01*
X92234333Y-164536380D01*
X92234333Y-164679238D01*
X92281952Y-164774476D01*
X92329571Y-164822095D01*
X92424809Y-164869714D01*
X92662904Y-164869714D01*
X92758142Y-164822095D01*
X92805761Y-164774476D01*
X92853380Y-164679238D01*
X92853380Y-164393523D01*
X92805761Y-164298285D01*
X92758142Y-164250666D01*
X91135380Y-160888761D02*
X91135380Y-160317333D01*
X91135380Y-160603047D02*
X90135380Y-160603047D01*
X90278238Y-160507809D01*
X90373476Y-160412571D01*
X90421095Y-160317333D01*
X91135380Y-161317333D02*
X90135380Y-161317333D01*
X91135380Y-161888761D01*
X90135380Y-161888761D01*
X90468714Y-162793523D02*
X91135380Y-162793523D01*
X90087761Y-162555428D02*
X90802047Y-162317333D01*
X90802047Y-162936380D01*
X91135380Y-163841142D02*
X91135380Y-163269714D01*
X91135380Y-163555428D02*
X90135380Y-163555428D01*
X90278238Y-163460190D01*
X90373476Y-163364952D01*
X90421095Y-163269714D01*
X90468714Y-164698285D02*
X91135380Y-164698285D01*
X90087761Y-164460190D02*
X90802047Y-164222095D01*
X90802047Y-164841142D01*
X90563952Y-165364952D02*
X90516333Y-165269714D01*
X90468714Y-165222095D01*
X90373476Y-165174476D01*
X90325857Y-165174476D01*
X90230619Y-165222095D01*
X90183000Y-165269714D01*
X90135380Y-165364952D01*
X90135380Y-165555428D01*
X90183000Y-165650666D01*
X90230619Y-165698285D01*
X90325857Y-165745904D01*
X90373476Y-165745904D01*
X90468714Y-165698285D01*
X90516333Y-165650666D01*
X90563952Y-165555428D01*
X90563952Y-165364952D01*
X90611571Y-165269714D01*
X90659190Y-165222095D01*
X90754428Y-165174476D01*
X90944904Y-165174476D01*
X91040142Y-165222095D01*
X91087761Y-165269714D01*
X91135380Y-165364952D01*
X91135380Y-165555428D01*
X91087761Y-165650666D01*
X91040142Y-165698285D01*
X90944904Y-165745904D01*
X90754428Y-165745904D01*
X90659190Y-165698285D01*
X90611571Y-165650666D01*
X90563952Y-165555428D01*
X90135380Y-166079238D02*
X91135380Y-166317333D01*
X90421095Y-166507809D01*
X91135380Y-166698285D01*
X90135380Y-166936380D01*
X90135380Y-167174476D02*
X90135380Y-167745904D01*
X91135380Y-167460190D02*
X90135380Y-167460190D01*
X94885380Y-163345904D02*
X93885380Y-163345904D01*
X93885380Y-163584000D01*
X93933000Y-163726857D01*
X94028238Y-163822095D01*
X94123476Y-163869714D01*
X94313952Y-163917333D01*
X94456809Y-163917333D01*
X94647285Y-163869714D01*
X94742523Y-163822095D01*
X94837761Y-163726857D01*
X94885380Y-163584000D01*
X94885380Y-163345904D01*
X93980619Y-164298285D02*
X93933000Y-164345904D01*
X93885380Y-164441142D01*
X93885380Y-164679238D01*
X93933000Y-164774476D01*
X93980619Y-164822095D01*
X94075857Y-164869714D01*
X94171095Y-164869714D01*
X94313952Y-164822095D01*
X94885380Y-164250666D01*
X94885380Y-164869714D01*
X103148880Y-105291142D02*
X103148880Y-105386380D01*
X103196500Y-105481619D01*
X103244119Y-105529238D01*
X103339357Y-105576857D01*
X103529833Y-105624476D01*
X103767928Y-105624476D01*
X103958404Y-105576857D01*
X104053642Y-105529238D01*
X104101261Y-105481619D01*
X104148880Y-105386380D01*
X104148880Y-105291142D01*
X104101261Y-105195904D01*
X104053642Y-105148285D01*
X103958404Y-105100666D01*
X103767928Y-105053047D01*
X103529833Y-105053047D01*
X103339357Y-105100666D01*
X103244119Y-105148285D01*
X103196500Y-105195904D01*
X103148880Y-105291142D01*
X104053642Y-106053047D02*
X104101261Y-106100666D01*
X104148880Y-106053047D01*
X104101261Y-106005428D01*
X104053642Y-106053047D01*
X104148880Y-106053047D01*
X104148880Y-107053047D02*
X104148880Y-106481619D01*
X104148880Y-106767333D02*
X103148880Y-106767333D01*
X103291738Y-106672095D01*
X103386976Y-106576857D01*
X103434595Y-106481619D01*
X103482214Y-107910190D02*
X104148880Y-107910190D01*
X103482214Y-107481619D02*
X104006023Y-107481619D01*
X104101261Y-107529238D01*
X104148880Y-107624476D01*
X104148880Y-107767333D01*
X104101261Y-107862571D01*
X104053642Y-107910190D01*
X103625071Y-108719714D02*
X103625071Y-108386380D01*
X104148880Y-108386380D02*
X103148880Y-108386380D01*
X103148880Y-108862571D01*
D12*
X105525071Y-106850666D02*
X105548880Y-106826857D01*
X105572690Y-106755428D01*
X105572690Y-106707809D01*
X105548880Y-106636380D01*
X105501261Y-106588761D01*
X105453642Y-106564952D01*
X105358404Y-106541142D01*
X105286976Y-106541142D01*
X105191738Y-106564952D01*
X105144119Y-106588761D01*
X105096500Y-106636380D01*
X105072690Y-106707809D01*
X105072690Y-106755428D01*
X105096500Y-106826857D01*
X105120309Y-106850666D01*
X105286976Y-107136380D02*
X105263166Y-107088761D01*
X105239357Y-107064952D01*
X105191738Y-107041142D01*
X105167928Y-107041142D01*
X105120309Y-107064952D01*
X105096500Y-107088761D01*
X105072690Y-107136380D01*
X105072690Y-107231619D01*
X105096500Y-107279238D01*
X105120309Y-107303047D01*
X105167928Y-107326857D01*
X105191738Y-107326857D01*
X105239357Y-107303047D01*
X105263166Y-107279238D01*
X105286976Y-107231619D01*
X105286976Y-107136380D01*
X105310785Y-107088761D01*
X105334595Y-107064952D01*
X105382214Y-107041142D01*
X105477452Y-107041142D01*
X105525071Y-107064952D01*
X105548880Y-107088761D01*
X105572690Y-107136380D01*
X105572690Y-107231619D01*
X105548880Y-107279238D01*
X105525071Y-107303047D01*
X105477452Y-107326857D01*
X105382214Y-107326857D01*
X105334595Y-107303047D01*
X105310785Y-107279238D01*
X105286976Y-107231619D01*
D11*
X111957380Y-104306714D02*
X111957380Y-103735285D01*
X111957380Y-104021000D02*
X110957380Y-104021000D01*
X111100238Y-103925761D01*
X111195476Y-103830523D01*
X111243095Y-103735285D01*
X111957380Y-104735285D02*
X110957380Y-104735285D01*
X111957380Y-105306714D02*
X111385952Y-104878142D01*
X110957380Y-105306714D02*
X111528809Y-104735285D01*
D12*
X110081190Y-104199571D02*
X109843095Y-104032904D01*
X110081190Y-103913857D02*
X109581190Y-103913857D01*
X109581190Y-104104333D01*
X109605000Y-104151952D01*
X109628809Y-104175761D01*
X109676428Y-104199571D01*
X109747857Y-104199571D01*
X109795476Y-104175761D01*
X109819285Y-104151952D01*
X109843095Y-104104333D01*
X109843095Y-103913857D01*
X109581190Y-104366238D02*
X109581190Y-104675761D01*
X109771666Y-104509095D01*
X109771666Y-104580523D01*
X109795476Y-104628142D01*
X109819285Y-104651952D01*
X109866904Y-104675761D01*
X109985952Y-104675761D01*
X110033571Y-104651952D01*
X110057380Y-104628142D01*
X110081190Y-104580523D01*
X110081190Y-104437666D01*
X110057380Y-104390047D01*
X110033571Y-104366238D01*
X109747857Y-105104333D02*
X110081190Y-105104333D01*
X109557380Y-104985285D02*
X109914523Y-104866238D01*
X109914523Y-105175761D01*
D11*
X108117714Y-142978285D02*
X108784380Y-142978285D01*
X107736761Y-142740190D02*
X108451047Y-142502095D01*
X108451047Y-143121142D01*
X107784380Y-143406857D02*
X107784380Y-144073523D01*
X108784380Y-143644952D01*
X108784380Y-144454476D02*
X107784380Y-144454476D01*
X108784380Y-145025904D02*
X108212952Y-144597333D01*
X107784380Y-145025904D02*
X108355809Y-144454476D01*
D12*
X110208190Y-143680666D02*
X109970095Y-143514000D01*
X110208190Y-143394952D02*
X109708190Y-143394952D01*
X109708190Y-143585428D01*
X109732000Y-143633047D01*
X109755809Y-143656857D01*
X109803428Y-143680666D01*
X109874857Y-143680666D01*
X109922476Y-143656857D01*
X109946285Y-143633047D01*
X109970095Y-143585428D01*
X109970095Y-143394952D01*
X109922476Y-143966380D02*
X109898666Y-143918761D01*
X109874857Y-143894952D01*
X109827238Y-143871142D01*
X109803428Y-143871142D01*
X109755809Y-143894952D01*
X109732000Y-143918761D01*
X109708190Y-143966380D01*
X109708190Y-144061619D01*
X109732000Y-144109238D01*
X109755809Y-144133047D01*
X109803428Y-144156857D01*
X109827238Y-144156857D01*
X109874857Y-144133047D01*
X109898666Y-144109238D01*
X109922476Y-144061619D01*
X109922476Y-143966380D01*
X109946285Y-143918761D01*
X109970095Y-143894952D01*
X110017714Y-143871142D01*
X110112952Y-143871142D01*
X110160571Y-143894952D01*
X110184380Y-143918761D01*
X110208190Y-143966380D01*
X110208190Y-144061619D01*
X110184380Y-144109238D01*
X110160571Y-144133047D01*
X110112952Y-144156857D01*
X110017714Y-144156857D01*
X109970095Y-144133047D01*
X109946285Y-144109238D01*
X109922476Y-144061619D01*
D11*
X105498380Y-102973380D02*
X105498380Y-103592428D01*
X105879333Y-103259095D01*
X105879333Y-103401952D01*
X105926952Y-103497190D01*
X105974571Y-103544809D01*
X106069809Y-103592428D01*
X106307904Y-103592428D01*
X106403142Y-103544809D01*
X106450761Y-103497190D01*
X106498380Y-103401952D01*
X106498380Y-103116238D01*
X106450761Y-103021000D01*
X106403142Y-102973380D01*
X106403142Y-104021000D02*
X106450761Y-104068619D01*
X106498380Y-104021000D01*
X106450761Y-103973380D01*
X106403142Y-104021000D01*
X106498380Y-104021000D01*
X105498380Y-104401952D02*
X105498380Y-105021000D01*
X105879333Y-104687666D01*
X105879333Y-104830523D01*
X105926952Y-104925761D01*
X105974571Y-104973380D01*
X106069809Y-105021000D01*
X106307904Y-105021000D01*
X106403142Y-104973380D01*
X106450761Y-104925761D01*
X106498380Y-104830523D01*
X106498380Y-104544809D01*
X106450761Y-104449571D01*
X106403142Y-104401952D01*
X106498380Y-105449571D02*
X105498380Y-105449571D01*
X106498380Y-106021000D02*
X105926952Y-105592428D01*
X105498380Y-106021000D02*
X106069809Y-105449571D01*
D12*
X107922190Y-104199571D02*
X107684095Y-104032904D01*
X107922190Y-103913857D02*
X107422190Y-103913857D01*
X107422190Y-104104333D01*
X107446000Y-104151952D01*
X107469809Y-104175761D01*
X107517428Y-104199571D01*
X107588857Y-104199571D01*
X107636476Y-104175761D01*
X107660285Y-104151952D01*
X107684095Y-104104333D01*
X107684095Y-103913857D01*
X107469809Y-104390047D02*
X107446000Y-104413857D01*
X107422190Y-104461476D01*
X107422190Y-104580523D01*
X107446000Y-104628142D01*
X107469809Y-104651952D01*
X107517428Y-104675761D01*
X107565047Y-104675761D01*
X107636476Y-104651952D01*
X107922190Y-104366238D01*
X107922190Y-104675761D01*
X107922190Y-104913857D02*
X107922190Y-105009095D01*
X107898380Y-105056714D01*
X107874571Y-105080523D01*
X107803142Y-105128142D01*
X107707904Y-105151952D01*
X107517428Y-105151952D01*
X107469809Y-105128142D01*
X107446000Y-105104333D01*
X107422190Y-105056714D01*
X107422190Y-104961476D01*
X107446000Y-104913857D01*
X107469809Y-104890047D01*
X107517428Y-104866238D01*
X107636476Y-104866238D01*
X107684095Y-104890047D01*
X107707904Y-104913857D01*
X107731714Y-104961476D01*
X107731714Y-105056714D01*
X107707904Y-105104333D01*
X107684095Y-105128142D01*
X107636476Y-105151952D01*
D11*
X110911714Y-142978285D02*
X111578380Y-142978285D01*
X110530761Y-142740190D02*
X111245047Y-142502095D01*
X111245047Y-143121142D01*
X110578380Y-143406857D02*
X110578380Y-144073523D01*
X111578380Y-143644952D01*
X111578380Y-144454476D02*
X110578380Y-144454476D01*
X111578380Y-145025904D02*
X111006952Y-144597333D01*
X110578380Y-145025904D02*
X111149809Y-144454476D01*
D12*
X113002190Y-143680666D02*
X112764095Y-143514000D01*
X113002190Y-143394952D02*
X112502190Y-143394952D01*
X112502190Y-143585428D01*
X112526000Y-143633047D01*
X112549809Y-143656857D01*
X112597428Y-143680666D01*
X112668857Y-143680666D01*
X112716476Y-143656857D01*
X112740285Y-143633047D01*
X112764095Y-143585428D01*
X112764095Y-143394952D01*
X113002190Y-143918761D02*
X113002190Y-144014000D01*
X112978380Y-144061619D01*
X112954571Y-144085428D01*
X112883142Y-144133047D01*
X112787904Y-144156857D01*
X112597428Y-144156857D01*
X112549809Y-144133047D01*
X112526000Y-144109238D01*
X112502190Y-144061619D01*
X112502190Y-143966380D01*
X112526000Y-143918761D01*
X112549809Y-143894952D01*
X112597428Y-143871142D01*
X112716476Y-143871142D01*
X112764095Y-143894952D01*
X112787904Y-143918761D01*
X112811714Y-143966380D01*
X112811714Y-144061619D01*
X112787904Y-144109238D01*
X112764095Y-144133047D01*
X112716476Y-144156857D01*
D11*
X116910380Y-176093523D02*
X116910380Y-175522095D01*
X116910380Y-175807809D02*
X115910380Y-175807809D01*
X116053238Y-175712571D01*
X116148476Y-175617333D01*
X116196095Y-175522095D01*
X115910380Y-176712571D02*
X115910380Y-176807809D01*
X115958000Y-176903047D01*
X116005619Y-176950666D01*
X116100857Y-176998285D01*
X116291333Y-177045904D01*
X116529428Y-177045904D01*
X116719904Y-176998285D01*
X116815142Y-176950666D01*
X116862761Y-176903047D01*
X116910380Y-176807809D01*
X116910380Y-176712571D01*
X116862761Y-176617333D01*
X116815142Y-176569714D01*
X116719904Y-176522095D01*
X116529428Y-176474476D01*
X116291333Y-176474476D01*
X116100857Y-176522095D01*
X116005619Y-176569714D01*
X115958000Y-176617333D01*
X115910380Y-176712571D01*
X116910380Y-177474476D02*
X115910380Y-177474476D01*
X116910380Y-178045904D02*
X116338952Y-177617333D01*
X115910380Y-178045904D02*
X116481809Y-177474476D01*
D12*
X115034190Y-176462571D02*
X114796095Y-176295904D01*
X115034190Y-176176857D02*
X114534190Y-176176857D01*
X114534190Y-176367333D01*
X114558000Y-176414952D01*
X114581809Y-176438761D01*
X114629428Y-176462571D01*
X114700857Y-176462571D01*
X114748476Y-176438761D01*
X114772285Y-176414952D01*
X114796095Y-176367333D01*
X114796095Y-176176857D01*
X114534190Y-176629238D02*
X114534190Y-176938761D01*
X114724666Y-176772095D01*
X114724666Y-176843523D01*
X114748476Y-176891142D01*
X114772285Y-176914952D01*
X114819904Y-176938761D01*
X114938952Y-176938761D01*
X114986571Y-176914952D01*
X115010380Y-176891142D01*
X115034190Y-176843523D01*
X115034190Y-176700666D01*
X115010380Y-176653047D01*
X114986571Y-176629238D01*
X114534190Y-177105428D02*
X114534190Y-177414952D01*
X114724666Y-177248285D01*
X114724666Y-177319714D01*
X114748476Y-177367333D01*
X114772285Y-177391142D01*
X114819904Y-177414952D01*
X114938952Y-177414952D01*
X114986571Y-177391142D01*
X115010380Y-177367333D01*
X115034190Y-177319714D01*
X115034190Y-177176857D01*
X115010380Y-177129238D01*
X114986571Y-177105428D01*
D11*
X96797714Y-137073714D02*
X96797714Y-137740380D01*
X97035809Y-136692761D02*
X97273904Y-137407047D01*
X96654857Y-137407047D01*
X96369142Y-136740380D02*
X95702476Y-136740380D01*
X96131047Y-137740380D01*
X95321523Y-137740380D02*
X95321523Y-136740380D01*
X94750095Y-137740380D02*
X95178666Y-137168952D01*
X94750095Y-136740380D02*
X95321523Y-137311809D01*
D12*
X96333428Y-139164190D02*
X96500095Y-138926095D01*
X96619142Y-139164190D02*
X96619142Y-138664190D01*
X96428666Y-138664190D01*
X96381047Y-138688000D01*
X96357238Y-138711809D01*
X96333428Y-138759428D01*
X96333428Y-138830857D01*
X96357238Y-138878476D01*
X96381047Y-138902285D01*
X96428666Y-138926095D01*
X96619142Y-138926095D01*
X96166761Y-138664190D02*
X95857238Y-138664190D01*
X96023904Y-138854666D01*
X95952476Y-138854666D01*
X95904857Y-138878476D01*
X95881047Y-138902285D01*
X95857238Y-138949904D01*
X95857238Y-139068952D01*
X95881047Y-139116571D01*
X95904857Y-139140380D01*
X95952476Y-139164190D01*
X96095333Y-139164190D01*
X96142952Y-139140380D01*
X96166761Y-139116571D01*
X95666761Y-138711809D02*
X95642952Y-138688000D01*
X95595333Y-138664190D01*
X95476285Y-138664190D01*
X95428666Y-138688000D01*
X95404857Y-138711809D01*
X95381047Y-138759428D01*
X95381047Y-138807047D01*
X95404857Y-138878476D01*
X95690571Y-139164190D01*
X95381047Y-139164190D01*
D11*
X109814380Y-175236380D02*
X109814380Y-175855428D01*
X110195333Y-175522095D01*
X110195333Y-175664952D01*
X110242952Y-175760190D01*
X110290571Y-175807809D01*
X110385809Y-175855428D01*
X110623904Y-175855428D01*
X110719142Y-175807809D01*
X110766761Y-175760190D01*
X110814380Y-175664952D01*
X110814380Y-175379238D01*
X110766761Y-175284000D01*
X110719142Y-175236380D01*
X110719142Y-176284000D02*
X110766761Y-176331619D01*
X110814380Y-176284000D01*
X110766761Y-176236380D01*
X110719142Y-176284000D01*
X110814380Y-176284000D01*
X109814380Y-176664952D02*
X109814380Y-177284000D01*
X110195333Y-176950666D01*
X110195333Y-177093523D01*
X110242952Y-177188761D01*
X110290571Y-177236380D01*
X110385809Y-177284000D01*
X110623904Y-177284000D01*
X110719142Y-177236380D01*
X110766761Y-177188761D01*
X110814380Y-177093523D01*
X110814380Y-176807809D01*
X110766761Y-176712571D01*
X110719142Y-176664952D01*
X110814380Y-177712571D02*
X109814380Y-177712571D01*
X110814380Y-178284000D02*
X110242952Y-177855428D01*
X109814380Y-178284000D02*
X110385809Y-177712571D01*
D12*
X108938190Y-176462571D02*
X108700095Y-176295904D01*
X108938190Y-176176857D02*
X108438190Y-176176857D01*
X108438190Y-176367333D01*
X108462000Y-176414952D01*
X108485809Y-176438761D01*
X108533428Y-176462571D01*
X108604857Y-176462571D01*
X108652476Y-176438761D01*
X108676285Y-176414952D01*
X108700095Y-176367333D01*
X108700095Y-176176857D01*
X108438190Y-176629238D02*
X108438190Y-176938761D01*
X108628666Y-176772095D01*
X108628666Y-176843523D01*
X108652476Y-176891142D01*
X108676285Y-176914952D01*
X108723904Y-176938761D01*
X108842952Y-176938761D01*
X108890571Y-176914952D01*
X108914380Y-176891142D01*
X108938190Y-176843523D01*
X108938190Y-176700666D01*
X108914380Y-176653047D01*
X108890571Y-176629238D01*
X108938190Y-177414952D02*
X108938190Y-177129238D01*
X108938190Y-177272095D02*
X108438190Y-177272095D01*
X108509619Y-177224476D01*
X108557238Y-177176857D01*
X108581047Y-177129238D01*
D11*
X97559619Y-134708380D02*
X96940571Y-134708380D01*
X97273904Y-135089333D01*
X97131047Y-135089333D01*
X97035809Y-135136952D01*
X96988190Y-135184571D01*
X96940571Y-135279809D01*
X96940571Y-135517904D01*
X96988190Y-135613142D01*
X97035809Y-135660761D01*
X97131047Y-135708380D01*
X97416761Y-135708380D01*
X97512000Y-135660761D01*
X97559619Y-135613142D01*
X96512000Y-135613142D02*
X96464380Y-135660761D01*
X96512000Y-135708380D01*
X96559619Y-135660761D01*
X96512000Y-135613142D01*
X96512000Y-135708380D01*
X96131047Y-134708380D02*
X95512000Y-134708380D01*
X95845333Y-135089333D01*
X95702476Y-135089333D01*
X95607238Y-135136952D01*
X95559619Y-135184571D01*
X95512000Y-135279809D01*
X95512000Y-135517904D01*
X95559619Y-135613142D01*
X95607238Y-135660761D01*
X95702476Y-135708380D01*
X95988190Y-135708380D01*
X96083428Y-135660761D01*
X96131047Y-135613142D01*
X95083428Y-135708380D02*
X95083428Y-134708380D01*
X94512000Y-135708380D02*
X94940571Y-135136952D01*
X94512000Y-134708380D02*
X95083428Y-135279809D01*
D12*
X96333428Y-137132190D02*
X96500095Y-136894095D01*
X96619142Y-137132190D02*
X96619142Y-136632190D01*
X96428666Y-136632190D01*
X96381047Y-136656000D01*
X96357238Y-136679809D01*
X96333428Y-136727428D01*
X96333428Y-136798857D01*
X96357238Y-136846476D01*
X96381047Y-136870285D01*
X96428666Y-136894095D01*
X96619142Y-136894095D01*
X96166761Y-136632190D02*
X95857238Y-136632190D01*
X96023904Y-136822666D01*
X95952476Y-136822666D01*
X95904857Y-136846476D01*
X95881047Y-136870285D01*
X95857238Y-136917904D01*
X95857238Y-137036952D01*
X95881047Y-137084571D01*
X95904857Y-137108380D01*
X95952476Y-137132190D01*
X96095333Y-137132190D01*
X96142952Y-137108380D01*
X96166761Y-137084571D01*
X95547714Y-136632190D02*
X95500095Y-136632190D01*
X95452476Y-136656000D01*
X95428666Y-136679809D01*
X95404857Y-136727428D01*
X95381047Y-136822666D01*
X95381047Y-136941714D01*
X95404857Y-137036952D01*
X95428666Y-137084571D01*
X95452476Y-137108380D01*
X95500095Y-137132190D01*
X95547714Y-137132190D01*
X95595333Y-137108380D01*
X95619142Y-137084571D01*
X95642952Y-137036952D01*
X95666761Y-136941714D01*
X95666761Y-136822666D01*
X95642952Y-136727428D01*
X95619142Y-136679809D01*
X95595333Y-136656000D01*
X95547714Y-136632190D01*
D11*
X106949428Y-136766571D02*
X106806571Y-136814190D01*
X106758952Y-136861809D01*
X106711333Y-136957047D01*
X106711333Y-137099904D01*
X106758952Y-137195142D01*
X106806571Y-137242761D01*
X106901809Y-137290380D01*
X107282761Y-137290380D01*
X107282761Y-136290380D01*
X106949428Y-136290380D01*
X106854190Y-136338000D01*
X106806571Y-136385619D01*
X106758952Y-136480857D01*
X106758952Y-136576095D01*
X106806571Y-136671333D01*
X106854190Y-136718952D01*
X106949428Y-136766571D01*
X107282761Y-136766571D01*
X106378000Y-136290380D02*
X105711333Y-136290380D01*
X106378000Y-137290380D01*
X105711333Y-137290380D01*
X105473238Y-136290380D02*
X104901809Y-136290380D01*
X105187523Y-137290380D02*
X105187523Y-136290380D01*
X104092285Y-136290380D02*
X104568476Y-136290380D01*
X104616095Y-136766571D01*
X104568476Y-136718952D01*
X104473238Y-136671333D01*
X104235142Y-136671333D01*
X104139904Y-136718952D01*
X104092285Y-136766571D01*
X104044666Y-136861809D01*
X104044666Y-137099904D01*
X104092285Y-137195142D01*
X104139904Y-137242761D01*
X104235142Y-137290380D01*
X104473238Y-137290380D01*
X104568476Y-137242761D01*
X104616095Y-137195142D01*
X103663714Y-136385619D02*
X103616095Y-136338000D01*
X103520857Y-136290380D01*
X103282761Y-136290380D01*
X103187523Y-136338000D01*
X103139904Y-136385619D01*
X103092285Y-136480857D01*
X103092285Y-136576095D01*
X103139904Y-136718952D01*
X103711333Y-137290380D01*
X103092285Y-137290380D01*
X102330380Y-136766571D02*
X102187523Y-136814190D01*
X102139904Y-136861809D01*
X102092285Y-136957047D01*
X102092285Y-137099904D01*
X102139904Y-137195142D01*
X102187523Y-137242761D01*
X102282761Y-137290380D01*
X102663714Y-137290380D01*
X102663714Y-136290380D01*
X102330380Y-136290380D01*
X102235142Y-136338000D01*
X102187523Y-136385619D01*
X102139904Y-136480857D01*
X102139904Y-136576095D01*
X102187523Y-136671333D01*
X102235142Y-136718952D01*
X102330380Y-136766571D01*
X102663714Y-136766571D01*
X101187523Y-136290380D02*
X101663714Y-136290380D01*
X101711333Y-136766571D01*
X101663714Y-136718952D01*
X101568476Y-136671333D01*
X101330380Y-136671333D01*
X101235142Y-136718952D01*
X101187523Y-136766571D01*
X101139904Y-136861809D01*
X101139904Y-137099904D01*
X101187523Y-137195142D01*
X101235142Y-137242761D01*
X101330380Y-137290380D01*
X101568476Y-137290380D01*
X101663714Y-137242761D01*
X101711333Y-137195142D01*
X100806571Y-136623714D02*
X100568476Y-137290380D01*
X100330380Y-136623714D01*
X99425619Y-137290380D02*
X99997047Y-137290380D01*
X99711333Y-137290380D02*
X99711333Y-136290380D01*
X99806571Y-136433238D01*
X99901809Y-136528476D01*
X99997047Y-136576095D01*
X104592285Y-141390380D02*
X104592285Y-140390380D01*
X104354190Y-140390380D01*
X104211333Y-140438000D01*
X104116095Y-140533238D01*
X104068476Y-140628476D01*
X104020857Y-140818952D01*
X104020857Y-140961809D01*
X104068476Y-141152285D01*
X104116095Y-141247523D01*
X104211333Y-141342761D01*
X104354190Y-141390380D01*
X104592285Y-141390380D01*
X103068476Y-141390380D02*
X103639904Y-141390380D01*
X103354190Y-141390380D02*
X103354190Y-140390380D01*
X103449428Y-140533238D01*
X103544666Y-140628476D01*
X103639904Y-140676095D01*
X102211333Y-140723714D02*
X102211333Y-141390380D01*
X102449428Y-140342761D02*
X102687523Y-141057047D01*
X102068476Y-141057047D01*
X102346380Y-96766714D02*
X102346380Y-96290523D01*
X101346380Y-96290523D01*
X102346380Y-97100047D02*
X101346380Y-97100047D01*
X102060666Y-97433380D01*
X101346380Y-97766714D01*
X102346380Y-97766714D01*
X101679714Y-98671476D02*
X102346380Y-98671476D01*
X101298761Y-98433380D02*
X102013047Y-98195285D01*
X102013047Y-98814333D01*
X101346380Y-99385761D02*
X101346380Y-99481000D01*
X101394000Y-99576238D01*
X101441619Y-99623857D01*
X101536857Y-99671476D01*
X101727333Y-99719095D01*
X101965428Y-99719095D01*
X102155904Y-99671476D01*
X102251142Y-99623857D01*
X102298761Y-99576238D01*
X102346380Y-99481000D01*
X102346380Y-99385761D01*
X102298761Y-99290523D01*
X102251142Y-99242904D01*
X102155904Y-99195285D01*
X101965428Y-99147666D01*
X101727333Y-99147666D01*
X101536857Y-99195285D01*
X101441619Y-99242904D01*
X101394000Y-99290523D01*
X101346380Y-99385761D01*
X101679714Y-100576238D02*
X102346380Y-100576238D01*
X101298761Y-100338142D02*
X102013047Y-100100047D01*
X102013047Y-100719095D01*
X101346380Y-101290523D02*
X101346380Y-101385761D01*
X101394000Y-101481000D01*
X101441619Y-101528619D01*
X101536857Y-101576238D01*
X101727333Y-101623857D01*
X101965428Y-101623857D01*
X102155904Y-101576238D01*
X102251142Y-101528619D01*
X102298761Y-101481000D01*
X102346380Y-101385761D01*
X102346380Y-101290523D01*
X102298761Y-101195285D01*
X102251142Y-101147666D01*
X102155904Y-101100047D01*
X101965428Y-101052428D01*
X101727333Y-101052428D01*
X101536857Y-101100047D01*
X101441619Y-101147666D01*
X101394000Y-101195285D01*
X101346380Y-101290523D01*
X102346380Y-102052428D02*
X101346380Y-102052428D01*
X101346380Y-102290523D01*
X101394000Y-102433380D01*
X101489238Y-102528619D01*
X101584476Y-102576238D01*
X101774952Y-102623857D01*
X101917809Y-102623857D01*
X102108285Y-102576238D01*
X102203523Y-102528619D01*
X102298761Y-102433380D01*
X102346380Y-102290523D01*
X102346380Y-102052428D01*
X101822571Y-103385761D02*
X101870190Y-103528619D01*
X101917809Y-103576238D01*
X102013047Y-103623857D01*
X102155904Y-103623857D01*
X102251142Y-103576238D01*
X102298761Y-103528619D01*
X102346380Y-103433380D01*
X102346380Y-103052428D01*
X101346380Y-103052428D01*
X101346380Y-103385761D01*
X101394000Y-103481000D01*
X101441619Y-103528619D01*
X101536857Y-103576238D01*
X101632095Y-103576238D01*
X101727333Y-103528619D01*
X101774952Y-103481000D01*
X101822571Y-103385761D01*
X101822571Y-103052428D01*
X101346380Y-103957190D02*
X101346380Y-104623857D01*
X102346380Y-103957190D01*
X102346380Y-104623857D01*
X101965428Y-105004809D02*
X101965428Y-105766714D01*
X102346380Y-106766714D02*
X102346380Y-106195285D01*
X102346380Y-106481000D02*
X101346380Y-106481000D01*
X101489238Y-106385761D01*
X101584476Y-106290523D01*
X101632095Y-106195285D01*
X101346380Y-107385761D02*
X101346380Y-107481000D01*
X101394000Y-107576238D01*
X101441619Y-107623857D01*
X101536857Y-107671476D01*
X101727333Y-107719095D01*
X101965428Y-107719095D01*
X102155904Y-107671476D01*
X102251142Y-107623857D01*
X102298761Y-107576238D01*
X102346380Y-107481000D01*
X102346380Y-107385761D01*
X102298761Y-107290523D01*
X102251142Y-107242904D01*
X102155904Y-107195285D01*
X101965428Y-107147666D01*
X101727333Y-107147666D01*
X101536857Y-107195285D01*
X101441619Y-107242904D01*
X101394000Y-107290523D01*
X101346380Y-107385761D01*
D13*
X104774952Y-101707190D02*
X104774952Y-102111952D01*
X104751142Y-102159571D01*
X104727333Y-102183380D01*
X104679714Y-102207190D01*
X104584476Y-102207190D01*
X104536857Y-102183380D01*
X104513047Y-102159571D01*
X104489238Y-102111952D01*
X104489238Y-101707190D01*
X104298761Y-101707190D02*
X103989238Y-101707190D01*
X104155904Y-101897666D01*
X104084476Y-101897666D01*
X104036857Y-101921476D01*
X104013047Y-101945285D01*
X103989238Y-101992904D01*
X103989238Y-102111952D01*
X104013047Y-102159571D01*
X104036857Y-102183380D01*
X104084476Y-102207190D01*
X104227333Y-102207190D01*
X104274952Y-102183380D01*
X104298761Y-102159571D01*
D11*
X97178666Y-143963380D02*
X97750095Y-143963380D01*
X97464380Y-143963380D02*
X97464380Y-142963380D01*
X97559619Y-143106238D01*
X97654857Y-143201476D01*
X97750095Y-143249095D01*
X96559619Y-142963380D02*
X96464380Y-142963380D01*
X96369142Y-143011000D01*
X96321523Y-143058619D01*
X96273904Y-143153857D01*
X96226285Y-143344333D01*
X96226285Y-143582428D01*
X96273904Y-143772904D01*
X96321523Y-143868142D01*
X96369142Y-143915761D01*
X96464380Y-143963380D01*
X96559619Y-143963380D01*
X96654857Y-143915761D01*
X96702476Y-143868142D01*
X96750095Y-143772904D01*
X96797714Y-143582428D01*
X96797714Y-143344333D01*
X96750095Y-143153857D01*
X96702476Y-143058619D01*
X96654857Y-143011000D01*
X96559619Y-142963380D01*
X95607238Y-142963380D02*
X95512000Y-142963380D01*
X95416761Y-143011000D01*
X95369142Y-143058619D01*
X95321523Y-143153857D01*
X95273904Y-143344333D01*
X95273904Y-143582428D01*
X95321523Y-143772904D01*
X95369142Y-143868142D01*
X95416761Y-143915761D01*
X95512000Y-143963380D01*
X95607238Y-143963380D01*
X95702476Y-143915761D01*
X95750095Y-143868142D01*
X95797714Y-143772904D01*
X95845333Y-143582428D01*
X95845333Y-143344333D01*
X95797714Y-143153857D01*
X95750095Y-143058619D01*
X95702476Y-143011000D01*
X95607238Y-142963380D01*
X94845333Y-143963380D02*
X94845333Y-142963380D01*
X94273904Y-143963380D02*
X94702476Y-143391952D01*
X94273904Y-142963380D02*
X94845333Y-143534809D01*
D12*
X96333428Y-145387190D02*
X96500095Y-145149095D01*
X96619142Y-145387190D02*
X96619142Y-144887190D01*
X96428666Y-144887190D01*
X96381047Y-144911000D01*
X96357238Y-144934809D01*
X96333428Y-144982428D01*
X96333428Y-145053857D01*
X96357238Y-145101476D01*
X96381047Y-145125285D01*
X96428666Y-145149095D01*
X96619142Y-145149095D01*
X95857238Y-145387190D02*
X96142952Y-145387190D01*
X96000095Y-145387190D02*
X96000095Y-144887190D01*
X96047714Y-144958619D01*
X96095333Y-145006238D01*
X96142952Y-145030047D01*
X95428666Y-144887190D02*
X95523904Y-144887190D01*
X95571523Y-144911000D01*
X95595333Y-144934809D01*
X95642952Y-145006238D01*
X95666761Y-145101476D01*
X95666761Y-145291952D01*
X95642952Y-145339571D01*
X95619142Y-145363380D01*
X95571523Y-145387190D01*
X95476285Y-145387190D01*
X95428666Y-145363380D01*
X95404857Y-145339571D01*
X95381047Y-145291952D01*
X95381047Y-145172904D01*
X95404857Y-145125285D01*
X95428666Y-145101476D01*
X95476285Y-145077666D01*
X95571523Y-145077666D01*
X95619142Y-145101476D01*
X95642952Y-145125285D01*
X95666761Y-145172904D01*
D11*
X91908047Y-158370380D02*
X91336619Y-158370380D01*
X91622333Y-159370380D02*
X91622333Y-158370380D01*
X90527095Y-159370380D02*
X91003285Y-159370380D01*
X91003285Y-158370380D01*
X90003285Y-158370380D02*
X89908047Y-158370380D01*
X89812809Y-158418000D01*
X89765190Y-158465619D01*
X89717571Y-158560857D01*
X89669952Y-158751333D01*
X89669952Y-158989428D01*
X89717571Y-159179904D01*
X89765190Y-159275142D01*
X89812809Y-159322761D01*
X89908047Y-159370380D01*
X90003285Y-159370380D01*
X90098523Y-159322761D01*
X90146142Y-159275142D01*
X90193761Y-159179904D01*
X90241380Y-158989428D01*
X90241380Y-158751333D01*
X90193761Y-158560857D01*
X90146142Y-158465619D01*
X90098523Y-158418000D01*
X90003285Y-158370380D01*
X89336619Y-158370380D02*
X88669952Y-158370380D01*
X89098523Y-159370380D01*
X87860428Y-158703714D02*
X87860428Y-159370380D01*
X88098523Y-158322761D02*
X88336619Y-159037047D01*
X87717571Y-159037047D01*
D14*
X90474714Y-153050142D02*
X90474714Y-153778714D01*
X90431857Y-153864428D01*
X90389000Y-153907285D01*
X90303285Y-153950142D01*
X90131857Y-153950142D01*
X90046142Y-153907285D01*
X90003285Y-153864428D01*
X89960428Y-153778714D01*
X89960428Y-153050142D01*
X89574714Y-153135857D02*
X89531857Y-153093000D01*
X89446142Y-153050142D01*
X89231857Y-153050142D01*
X89146142Y-153093000D01*
X89103285Y-153135857D01*
X89060428Y-153221571D01*
X89060428Y-153307285D01*
X89103285Y-153435857D01*
X89617571Y-153950142D01*
X89060428Y-153950142D01*
D11*
X91781047Y-146813380D02*
X91209619Y-146813380D01*
X91495333Y-147813380D02*
X91495333Y-146813380D01*
X90400095Y-147813380D02*
X90876285Y-147813380D01*
X90876285Y-146813380D01*
X89876285Y-146813380D02*
X89781047Y-146813380D01*
X89685809Y-146861000D01*
X89638190Y-146908619D01*
X89590571Y-147003857D01*
X89542952Y-147194333D01*
X89542952Y-147432428D01*
X89590571Y-147622904D01*
X89638190Y-147718142D01*
X89685809Y-147765761D01*
X89781047Y-147813380D01*
X89876285Y-147813380D01*
X89971523Y-147765761D01*
X90019142Y-147718142D01*
X90066761Y-147622904D01*
X90114380Y-147432428D01*
X90114380Y-147194333D01*
X90066761Y-147003857D01*
X90019142Y-146908619D01*
X89971523Y-146861000D01*
X89876285Y-146813380D01*
X89209619Y-146813380D02*
X88542952Y-146813380D01*
X88971523Y-147813380D01*
X87733428Y-147146714D02*
X87733428Y-147813380D01*
X87971523Y-146765761D02*
X88209619Y-147480047D01*
X87590571Y-147480047D01*
D14*
X90347714Y-141493142D02*
X90347714Y-142221714D01*
X90304857Y-142307428D01*
X90262000Y-142350285D01*
X90176285Y-142393142D01*
X90004857Y-142393142D01*
X89919142Y-142350285D01*
X89876285Y-142307428D01*
X89833428Y-142221714D01*
X89833428Y-141493142D01*
X88933428Y-142393142D02*
X89447714Y-142393142D01*
X89190571Y-142393142D02*
X89190571Y-141493142D01*
X89276285Y-141621714D01*
X89362000Y-141707428D01*
X89447714Y-141750285D01*
D11*
X90494380Y-176117333D02*
X90494380Y-175545904D01*
X90494380Y-175831619D02*
X89494380Y-175831619D01*
X89637238Y-175736380D01*
X89732476Y-175641142D01*
X89780095Y-175545904D01*
X89922952Y-176688761D02*
X89875333Y-176593523D01*
X89827714Y-176545904D01*
X89732476Y-176498285D01*
X89684857Y-176498285D01*
X89589619Y-176545904D01*
X89542000Y-176593523D01*
X89494380Y-176688761D01*
X89494380Y-176879238D01*
X89542000Y-176974476D01*
X89589619Y-177022095D01*
X89684857Y-177069714D01*
X89732476Y-177069714D01*
X89827714Y-177022095D01*
X89875333Y-176974476D01*
X89922952Y-176879238D01*
X89922952Y-176688761D01*
X89970571Y-176593523D01*
X90018190Y-176545904D01*
X90113428Y-176498285D01*
X90303904Y-176498285D01*
X90399142Y-176545904D01*
X90446761Y-176593523D01*
X90494380Y-176688761D01*
X90494380Y-176879238D01*
X90446761Y-176974476D01*
X90399142Y-177022095D01*
X90303904Y-177069714D01*
X90113428Y-177069714D01*
X90018190Y-177022095D01*
X89970571Y-176974476D01*
X89922952Y-176879238D01*
X89494380Y-177688761D02*
X89494380Y-177784000D01*
X89542000Y-177879238D01*
X89589619Y-177926857D01*
X89684857Y-177974476D01*
X89875333Y-178022095D01*
X90113428Y-178022095D01*
X90303904Y-177974476D01*
X90399142Y-177926857D01*
X90446761Y-177879238D01*
X90494380Y-177784000D01*
X90494380Y-177688761D01*
X90446761Y-177593523D01*
X90399142Y-177545904D01*
X90303904Y-177498285D01*
X90113428Y-177450666D01*
X89875333Y-177450666D01*
X89684857Y-177498285D01*
X89589619Y-177545904D01*
X89542000Y-177593523D01*
X89494380Y-177688761D01*
D12*
X88618190Y-176462571D02*
X88380095Y-176295904D01*
X88618190Y-176176857D02*
X88118190Y-176176857D01*
X88118190Y-176367333D01*
X88142000Y-176414952D01*
X88165809Y-176438761D01*
X88213428Y-176462571D01*
X88284857Y-176462571D01*
X88332476Y-176438761D01*
X88356285Y-176414952D01*
X88380095Y-176367333D01*
X88380095Y-176176857D01*
X88165809Y-176653047D02*
X88142000Y-176676857D01*
X88118190Y-176724476D01*
X88118190Y-176843523D01*
X88142000Y-176891142D01*
X88165809Y-176914952D01*
X88213428Y-176938761D01*
X88261047Y-176938761D01*
X88332476Y-176914952D01*
X88618190Y-176629238D01*
X88618190Y-176938761D01*
X88332476Y-177224476D02*
X88308666Y-177176857D01*
X88284857Y-177153047D01*
X88237238Y-177129238D01*
X88213428Y-177129238D01*
X88165809Y-177153047D01*
X88142000Y-177176857D01*
X88118190Y-177224476D01*
X88118190Y-177319714D01*
X88142000Y-177367333D01*
X88165809Y-177391142D01*
X88213428Y-177414952D01*
X88237238Y-177414952D01*
X88284857Y-177391142D01*
X88308666Y-177367333D01*
X88332476Y-177319714D01*
X88332476Y-177224476D01*
X88356285Y-177176857D01*
X88380095Y-177153047D01*
X88427714Y-177129238D01*
X88522952Y-177129238D01*
X88570571Y-177153047D01*
X88594380Y-177176857D01*
X88618190Y-177224476D01*
X88618190Y-177319714D01*
X88594380Y-177367333D01*
X88570571Y-177391142D01*
X88522952Y-177414952D01*
X88427714Y-177414952D01*
X88380095Y-177391142D01*
X88356285Y-177367333D01*
X88332476Y-177319714D01*
D11*
X80080380Y-176117333D02*
X80080380Y-175545904D01*
X80080380Y-175831619D02*
X79080380Y-175831619D01*
X79223238Y-175736380D01*
X79318476Y-175641142D01*
X79366095Y-175545904D01*
X79508952Y-176688761D02*
X79461333Y-176593523D01*
X79413714Y-176545904D01*
X79318476Y-176498285D01*
X79270857Y-176498285D01*
X79175619Y-176545904D01*
X79128000Y-176593523D01*
X79080380Y-176688761D01*
X79080380Y-176879238D01*
X79128000Y-176974476D01*
X79175619Y-177022095D01*
X79270857Y-177069714D01*
X79318476Y-177069714D01*
X79413714Y-177022095D01*
X79461333Y-176974476D01*
X79508952Y-176879238D01*
X79508952Y-176688761D01*
X79556571Y-176593523D01*
X79604190Y-176545904D01*
X79699428Y-176498285D01*
X79889904Y-176498285D01*
X79985142Y-176545904D01*
X80032761Y-176593523D01*
X80080380Y-176688761D01*
X80080380Y-176879238D01*
X80032761Y-176974476D01*
X79985142Y-177022095D01*
X79889904Y-177069714D01*
X79699428Y-177069714D01*
X79604190Y-177022095D01*
X79556571Y-176974476D01*
X79508952Y-176879238D01*
X79080380Y-177688761D02*
X79080380Y-177784000D01*
X79128000Y-177879238D01*
X79175619Y-177926857D01*
X79270857Y-177974476D01*
X79461333Y-178022095D01*
X79699428Y-178022095D01*
X79889904Y-177974476D01*
X79985142Y-177926857D01*
X80032761Y-177879238D01*
X80080380Y-177784000D01*
X80080380Y-177688761D01*
X80032761Y-177593523D01*
X79985142Y-177545904D01*
X79889904Y-177498285D01*
X79699428Y-177450666D01*
X79461333Y-177450666D01*
X79270857Y-177498285D01*
X79175619Y-177545904D01*
X79128000Y-177593523D01*
X79080380Y-177688761D01*
D12*
X78204190Y-176462571D02*
X77966095Y-176295904D01*
X78204190Y-176176857D02*
X77704190Y-176176857D01*
X77704190Y-176367333D01*
X77728000Y-176414952D01*
X77751809Y-176438761D01*
X77799428Y-176462571D01*
X77870857Y-176462571D01*
X77918476Y-176438761D01*
X77942285Y-176414952D01*
X77966095Y-176367333D01*
X77966095Y-176176857D01*
X77751809Y-176653047D02*
X77728000Y-176676857D01*
X77704190Y-176724476D01*
X77704190Y-176843523D01*
X77728000Y-176891142D01*
X77751809Y-176914952D01*
X77799428Y-176938761D01*
X77847047Y-176938761D01*
X77918476Y-176914952D01*
X78204190Y-176629238D01*
X78204190Y-176938761D01*
X77704190Y-177105428D02*
X77704190Y-177438761D01*
X78204190Y-177224476D01*
D11*
X100654380Y-176117333D02*
X100654380Y-175545904D01*
X100654380Y-175831619D02*
X99654380Y-175831619D01*
X99797238Y-175736380D01*
X99892476Y-175641142D01*
X99940095Y-175545904D01*
X100082952Y-176688761D02*
X100035333Y-176593523D01*
X99987714Y-176545904D01*
X99892476Y-176498285D01*
X99844857Y-176498285D01*
X99749619Y-176545904D01*
X99702000Y-176593523D01*
X99654380Y-176688761D01*
X99654380Y-176879238D01*
X99702000Y-176974476D01*
X99749619Y-177022095D01*
X99844857Y-177069714D01*
X99892476Y-177069714D01*
X99987714Y-177022095D01*
X100035333Y-176974476D01*
X100082952Y-176879238D01*
X100082952Y-176688761D01*
X100130571Y-176593523D01*
X100178190Y-176545904D01*
X100273428Y-176498285D01*
X100463904Y-176498285D01*
X100559142Y-176545904D01*
X100606761Y-176593523D01*
X100654380Y-176688761D01*
X100654380Y-176879238D01*
X100606761Y-176974476D01*
X100559142Y-177022095D01*
X100463904Y-177069714D01*
X100273428Y-177069714D01*
X100178190Y-177022095D01*
X100130571Y-176974476D01*
X100082952Y-176879238D01*
X99654380Y-177688761D02*
X99654380Y-177784000D01*
X99702000Y-177879238D01*
X99749619Y-177926857D01*
X99844857Y-177974476D01*
X100035333Y-178022095D01*
X100273428Y-178022095D01*
X100463904Y-177974476D01*
X100559142Y-177926857D01*
X100606761Y-177879238D01*
X100654380Y-177784000D01*
X100654380Y-177688761D01*
X100606761Y-177593523D01*
X100559142Y-177545904D01*
X100463904Y-177498285D01*
X100273428Y-177450666D01*
X100035333Y-177450666D01*
X99844857Y-177498285D01*
X99749619Y-177545904D01*
X99702000Y-177593523D01*
X99654380Y-177688761D01*
D12*
X98778190Y-176462571D02*
X98540095Y-176295904D01*
X98778190Y-176176857D02*
X98278190Y-176176857D01*
X98278190Y-176367333D01*
X98302000Y-176414952D01*
X98325809Y-176438761D01*
X98373428Y-176462571D01*
X98444857Y-176462571D01*
X98492476Y-176438761D01*
X98516285Y-176414952D01*
X98540095Y-176367333D01*
X98540095Y-176176857D01*
X98325809Y-176653047D02*
X98302000Y-176676857D01*
X98278190Y-176724476D01*
X98278190Y-176843523D01*
X98302000Y-176891142D01*
X98325809Y-176914952D01*
X98373428Y-176938761D01*
X98421047Y-176938761D01*
X98492476Y-176914952D01*
X98778190Y-176629238D01*
X98778190Y-176938761D01*
X98278190Y-177367333D02*
X98278190Y-177272095D01*
X98302000Y-177224476D01*
X98325809Y-177200666D01*
X98397238Y-177153047D01*
X98492476Y-177129238D01*
X98682952Y-177129238D01*
X98730571Y-177153047D01*
X98754380Y-177176857D01*
X98778190Y-177224476D01*
X98778190Y-177319714D01*
X98754380Y-177367333D01*
X98730571Y-177391142D01*
X98682952Y-177414952D01*
X98563904Y-177414952D01*
X98516285Y-177391142D01*
X98492476Y-177367333D01*
X98468666Y-177319714D01*
X98468666Y-177224476D01*
X98492476Y-177176857D01*
X98516285Y-177153047D01*
X98563904Y-177129238D01*
D11*
X85430380Y-175236380D02*
X85430380Y-175855428D01*
X85811333Y-175522095D01*
X85811333Y-175664952D01*
X85858952Y-175760190D01*
X85906571Y-175807809D01*
X86001809Y-175855428D01*
X86239904Y-175855428D01*
X86335142Y-175807809D01*
X86382761Y-175760190D01*
X86430380Y-175664952D01*
X86430380Y-175379238D01*
X86382761Y-175284000D01*
X86335142Y-175236380D01*
X86335142Y-176284000D02*
X86382761Y-176331619D01*
X86430380Y-176284000D01*
X86382761Y-176236380D01*
X86335142Y-176284000D01*
X86430380Y-176284000D01*
X85430380Y-176664952D02*
X85430380Y-177284000D01*
X85811333Y-176950666D01*
X85811333Y-177093523D01*
X85858952Y-177188761D01*
X85906571Y-177236380D01*
X86001809Y-177284000D01*
X86239904Y-177284000D01*
X86335142Y-177236380D01*
X86382761Y-177188761D01*
X86430380Y-177093523D01*
X86430380Y-176807809D01*
X86382761Y-176712571D01*
X86335142Y-176664952D01*
X86430380Y-177712571D02*
X85430380Y-177712571D01*
X86430380Y-178284000D02*
X85858952Y-177855428D01*
X85430380Y-178284000D02*
X86001809Y-177712571D01*
D12*
X84554190Y-176462571D02*
X84316095Y-176295904D01*
X84554190Y-176176857D02*
X84054190Y-176176857D01*
X84054190Y-176367333D01*
X84078000Y-176414952D01*
X84101809Y-176438761D01*
X84149428Y-176462571D01*
X84220857Y-176462571D01*
X84268476Y-176438761D01*
X84292285Y-176414952D01*
X84316095Y-176367333D01*
X84316095Y-176176857D01*
X84101809Y-176653047D02*
X84078000Y-176676857D01*
X84054190Y-176724476D01*
X84054190Y-176843523D01*
X84078000Y-176891142D01*
X84101809Y-176914952D01*
X84149428Y-176938761D01*
X84197047Y-176938761D01*
X84268476Y-176914952D01*
X84554190Y-176629238D01*
X84554190Y-176938761D01*
X84054190Y-177391142D02*
X84054190Y-177153047D01*
X84292285Y-177129238D01*
X84268476Y-177153047D01*
X84244666Y-177200666D01*
X84244666Y-177319714D01*
X84268476Y-177367333D01*
X84292285Y-177391142D01*
X84339904Y-177414952D01*
X84458952Y-177414952D01*
X84506571Y-177391142D01*
X84530380Y-177367333D01*
X84554190Y-177319714D01*
X84554190Y-177200666D01*
X84530380Y-177153047D01*
X84506571Y-177129238D01*
D11*
X105750380Y-175236380D02*
X105750380Y-175855428D01*
X106131333Y-175522095D01*
X106131333Y-175664952D01*
X106178952Y-175760190D01*
X106226571Y-175807809D01*
X106321809Y-175855428D01*
X106559904Y-175855428D01*
X106655142Y-175807809D01*
X106702761Y-175760190D01*
X106750380Y-175664952D01*
X106750380Y-175379238D01*
X106702761Y-175284000D01*
X106655142Y-175236380D01*
X106655142Y-176284000D02*
X106702761Y-176331619D01*
X106750380Y-176284000D01*
X106702761Y-176236380D01*
X106655142Y-176284000D01*
X106750380Y-176284000D01*
X105750380Y-176664952D02*
X105750380Y-177284000D01*
X106131333Y-176950666D01*
X106131333Y-177093523D01*
X106178952Y-177188761D01*
X106226571Y-177236380D01*
X106321809Y-177284000D01*
X106559904Y-177284000D01*
X106655142Y-177236380D01*
X106702761Y-177188761D01*
X106750380Y-177093523D01*
X106750380Y-176807809D01*
X106702761Y-176712571D01*
X106655142Y-176664952D01*
X106750380Y-177712571D02*
X105750380Y-177712571D01*
X106750380Y-178284000D02*
X106178952Y-177855428D01*
X105750380Y-178284000D02*
X106321809Y-177712571D01*
D12*
X104874190Y-176462571D02*
X104636095Y-176295904D01*
X104874190Y-176176857D02*
X104374190Y-176176857D01*
X104374190Y-176367333D01*
X104398000Y-176414952D01*
X104421809Y-176438761D01*
X104469428Y-176462571D01*
X104540857Y-176462571D01*
X104588476Y-176438761D01*
X104612285Y-176414952D01*
X104636095Y-176367333D01*
X104636095Y-176176857D01*
X104421809Y-176653047D02*
X104398000Y-176676857D01*
X104374190Y-176724476D01*
X104374190Y-176843523D01*
X104398000Y-176891142D01*
X104421809Y-176914952D01*
X104469428Y-176938761D01*
X104517047Y-176938761D01*
X104588476Y-176914952D01*
X104874190Y-176629238D01*
X104874190Y-176938761D01*
X104540857Y-177367333D02*
X104874190Y-177367333D01*
X104350380Y-177248285D02*
X104707523Y-177129238D01*
X104707523Y-177438761D01*
D11*
X85304095Y-154107619D02*
X85256476Y-154060000D01*
X85161238Y-154012380D01*
X84923142Y-154012380D01*
X84827904Y-154060000D01*
X84780285Y-154107619D01*
X84732666Y-154202857D01*
X84732666Y-154298095D01*
X84780285Y-154440952D01*
X85351714Y-155012380D01*
X84732666Y-155012380D01*
X84351714Y-154107619D02*
X84304095Y-154060000D01*
X84208857Y-154012380D01*
X83970761Y-154012380D01*
X83875523Y-154060000D01*
X83827904Y-154107619D01*
X83780285Y-154202857D01*
X83780285Y-154298095D01*
X83827904Y-154440952D01*
X84399333Y-155012380D01*
X83780285Y-155012380D01*
X83161238Y-154012380D02*
X83066000Y-154012380D01*
X82970761Y-154060000D01*
X82923142Y-154107619D01*
X82875523Y-154202857D01*
X82827904Y-154393333D01*
X82827904Y-154631428D01*
X82875523Y-154821904D01*
X82923142Y-154917142D01*
X82970761Y-154964761D01*
X83066000Y-155012380D01*
X83161238Y-155012380D01*
X83256476Y-154964761D01*
X83304095Y-154917142D01*
X83351714Y-154821904D01*
X83399333Y-154631428D01*
X83399333Y-154393333D01*
X83351714Y-154202857D01*
X83304095Y-154107619D01*
X83256476Y-154060000D01*
X83161238Y-154012380D01*
X82399333Y-155012380D02*
X82399333Y-154012380D01*
X81827904Y-155012380D02*
X82256476Y-154440952D01*
X81827904Y-154012380D02*
X82399333Y-154583809D01*
D12*
X83887428Y-156436190D02*
X84054095Y-156198095D01*
X84173142Y-156436190D02*
X84173142Y-155936190D01*
X83982666Y-155936190D01*
X83935047Y-155960000D01*
X83911238Y-155983809D01*
X83887428Y-156031428D01*
X83887428Y-156102857D01*
X83911238Y-156150476D01*
X83935047Y-156174285D01*
X83982666Y-156198095D01*
X84173142Y-156198095D01*
X83696952Y-155983809D02*
X83673142Y-155960000D01*
X83625523Y-155936190D01*
X83506476Y-155936190D01*
X83458857Y-155960000D01*
X83435047Y-155983809D01*
X83411238Y-156031428D01*
X83411238Y-156079047D01*
X83435047Y-156150476D01*
X83720761Y-156436190D01*
X83411238Y-156436190D01*
X83244571Y-155936190D02*
X82935047Y-155936190D01*
X83101714Y-156126666D01*
X83030285Y-156126666D01*
X82982666Y-156150476D01*
X82958857Y-156174285D01*
X82935047Y-156221904D01*
X82935047Y-156340952D01*
X82958857Y-156388571D01*
X82982666Y-156412380D01*
X83030285Y-156436190D01*
X83173142Y-156436190D01*
X83220761Y-156412380D01*
X83244571Y-156388571D01*
D11*
X97877095Y-157407619D02*
X97829476Y-157360000D01*
X97734238Y-157312380D01*
X97496142Y-157312380D01*
X97400904Y-157360000D01*
X97353285Y-157407619D01*
X97305666Y-157502857D01*
X97305666Y-157598095D01*
X97353285Y-157740952D01*
X97924714Y-158312380D01*
X97305666Y-158312380D01*
X96924714Y-157407619D02*
X96877095Y-157360000D01*
X96781857Y-157312380D01*
X96543761Y-157312380D01*
X96448523Y-157360000D01*
X96400904Y-157407619D01*
X96353285Y-157502857D01*
X96353285Y-157598095D01*
X96400904Y-157740952D01*
X96972333Y-158312380D01*
X96353285Y-158312380D01*
X95734238Y-157312380D02*
X95639000Y-157312380D01*
X95543761Y-157360000D01*
X95496142Y-157407619D01*
X95448523Y-157502857D01*
X95400904Y-157693333D01*
X95400904Y-157931428D01*
X95448523Y-158121904D01*
X95496142Y-158217142D01*
X95543761Y-158264761D01*
X95639000Y-158312380D01*
X95734238Y-158312380D01*
X95829476Y-158264761D01*
X95877095Y-158217142D01*
X95924714Y-158121904D01*
X95972333Y-157931428D01*
X95972333Y-157693333D01*
X95924714Y-157502857D01*
X95877095Y-157407619D01*
X95829476Y-157360000D01*
X95734238Y-157312380D01*
X94972333Y-158312380D02*
X94972333Y-157312380D01*
X94400904Y-158312380D02*
X94829476Y-157740952D01*
X94400904Y-157312380D02*
X94972333Y-157883809D01*
D12*
X96460428Y-156436190D02*
X96627095Y-156198095D01*
X96746142Y-156436190D02*
X96746142Y-155936190D01*
X96555666Y-155936190D01*
X96508047Y-155960000D01*
X96484238Y-155983809D01*
X96460428Y-156031428D01*
X96460428Y-156102857D01*
X96484238Y-156150476D01*
X96508047Y-156174285D01*
X96555666Y-156198095D01*
X96746142Y-156198095D01*
X96269952Y-155983809D02*
X96246142Y-155960000D01*
X96198523Y-155936190D01*
X96079476Y-155936190D01*
X96031857Y-155960000D01*
X96008047Y-155983809D01*
X95984238Y-156031428D01*
X95984238Y-156079047D01*
X96008047Y-156150476D01*
X96293761Y-156436190D01*
X95984238Y-156436190D01*
X95793761Y-155983809D02*
X95769952Y-155960000D01*
X95722333Y-155936190D01*
X95603285Y-155936190D01*
X95555666Y-155960000D01*
X95531857Y-155983809D01*
X95508047Y-156031428D01*
X95508047Y-156079047D01*
X95531857Y-156150476D01*
X95817571Y-156436190D01*
X95508047Y-156436190D01*
D11*
X85304095Y-152202619D02*
X85256476Y-152155000D01*
X85161238Y-152107380D01*
X84923142Y-152107380D01*
X84827904Y-152155000D01*
X84780285Y-152202619D01*
X84732666Y-152297857D01*
X84732666Y-152393095D01*
X84780285Y-152535952D01*
X85351714Y-153107380D01*
X84732666Y-153107380D01*
X84351714Y-152202619D02*
X84304095Y-152155000D01*
X84208857Y-152107380D01*
X83970761Y-152107380D01*
X83875523Y-152155000D01*
X83827904Y-152202619D01*
X83780285Y-152297857D01*
X83780285Y-152393095D01*
X83827904Y-152535952D01*
X84399333Y-153107380D01*
X83780285Y-153107380D01*
X83161238Y-152107380D02*
X83066000Y-152107380D01*
X82970761Y-152155000D01*
X82923142Y-152202619D01*
X82875523Y-152297857D01*
X82827904Y-152488333D01*
X82827904Y-152726428D01*
X82875523Y-152916904D01*
X82923142Y-153012142D01*
X82970761Y-153059761D01*
X83066000Y-153107380D01*
X83161238Y-153107380D01*
X83256476Y-153059761D01*
X83304095Y-153012142D01*
X83351714Y-152916904D01*
X83399333Y-152726428D01*
X83399333Y-152488333D01*
X83351714Y-152297857D01*
X83304095Y-152202619D01*
X83256476Y-152155000D01*
X83161238Y-152107380D01*
X82399333Y-153107380D02*
X82399333Y-152107380D01*
X81827904Y-153107380D02*
X82256476Y-152535952D01*
X81827904Y-152107380D02*
X82399333Y-152678809D01*
D12*
X83887428Y-154531190D02*
X84054095Y-154293095D01*
X84173142Y-154531190D02*
X84173142Y-154031190D01*
X83982666Y-154031190D01*
X83935047Y-154055000D01*
X83911238Y-154078809D01*
X83887428Y-154126428D01*
X83887428Y-154197857D01*
X83911238Y-154245476D01*
X83935047Y-154269285D01*
X83982666Y-154293095D01*
X84173142Y-154293095D01*
X83696952Y-154078809D02*
X83673142Y-154055000D01*
X83625523Y-154031190D01*
X83506476Y-154031190D01*
X83458857Y-154055000D01*
X83435047Y-154078809D01*
X83411238Y-154126428D01*
X83411238Y-154174047D01*
X83435047Y-154245476D01*
X83720761Y-154531190D01*
X83411238Y-154531190D01*
X82935047Y-154531190D02*
X83220761Y-154531190D01*
X83077904Y-154531190D02*
X83077904Y-154031190D01*
X83125523Y-154102619D01*
X83173142Y-154150238D01*
X83220761Y-154174047D01*
D11*
X97877095Y-155502619D02*
X97829476Y-155455000D01*
X97734238Y-155407380D01*
X97496142Y-155407380D01*
X97400904Y-155455000D01*
X97353285Y-155502619D01*
X97305666Y-155597857D01*
X97305666Y-155693095D01*
X97353285Y-155835952D01*
X97924714Y-156407380D01*
X97305666Y-156407380D01*
X96924714Y-155502619D02*
X96877095Y-155455000D01*
X96781857Y-155407380D01*
X96543761Y-155407380D01*
X96448523Y-155455000D01*
X96400904Y-155502619D01*
X96353285Y-155597857D01*
X96353285Y-155693095D01*
X96400904Y-155835952D01*
X96972333Y-156407380D01*
X96353285Y-156407380D01*
X95734238Y-155407380D02*
X95639000Y-155407380D01*
X95543761Y-155455000D01*
X95496142Y-155502619D01*
X95448523Y-155597857D01*
X95400904Y-155788333D01*
X95400904Y-156026428D01*
X95448523Y-156216904D01*
X95496142Y-156312142D01*
X95543761Y-156359761D01*
X95639000Y-156407380D01*
X95734238Y-156407380D01*
X95829476Y-156359761D01*
X95877095Y-156312142D01*
X95924714Y-156216904D01*
X95972333Y-156026428D01*
X95972333Y-155788333D01*
X95924714Y-155597857D01*
X95877095Y-155502619D01*
X95829476Y-155455000D01*
X95734238Y-155407380D01*
X94972333Y-156407380D02*
X94972333Y-155407380D01*
X94400904Y-156407380D02*
X94829476Y-155835952D01*
X94400904Y-155407380D02*
X94972333Y-155978809D01*
D12*
X96460428Y-154531190D02*
X96627095Y-154293095D01*
X96746142Y-154531190D02*
X96746142Y-154031190D01*
X96555666Y-154031190D01*
X96508047Y-154055000D01*
X96484238Y-154078809D01*
X96460428Y-154126428D01*
X96460428Y-154197857D01*
X96484238Y-154245476D01*
X96508047Y-154269285D01*
X96555666Y-154293095D01*
X96746142Y-154293095D01*
X96269952Y-154078809D02*
X96246142Y-154055000D01*
X96198523Y-154031190D01*
X96079476Y-154031190D01*
X96031857Y-154055000D01*
X96008047Y-154078809D01*
X95984238Y-154126428D01*
X95984238Y-154174047D01*
X96008047Y-154245476D01*
X96293761Y-154531190D01*
X95984238Y-154531190D01*
X95674714Y-154031190D02*
X95627095Y-154031190D01*
X95579476Y-154055000D01*
X95555666Y-154078809D01*
X95531857Y-154126428D01*
X95508047Y-154221666D01*
X95508047Y-154340714D01*
X95531857Y-154435952D01*
X95555666Y-154483571D01*
X95579476Y-154507380D01*
X95627095Y-154531190D01*
X95674714Y-154531190D01*
X95722333Y-154507380D01*
X95746142Y-154483571D01*
X95769952Y-154435952D01*
X95793761Y-154340714D01*
X95793761Y-154221666D01*
X95769952Y-154126428D01*
X95746142Y-154078809D01*
X95722333Y-154055000D01*
X95674714Y-154031190D01*
D11*
X95590380Y-175236380D02*
X95590380Y-175855428D01*
X95971333Y-175522095D01*
X95971333Y-175664952D01*
X96018952Y-175760190D01*
X96066571Y-175807809D01*
X96161809Y-175855428D01*
X96399904Y-175855428D01*
X96495142Y-175807809D01*
X96542761Y-175760190D01*
X96590380Y-175664952D01*
X96590380Y-175379238D01*
X96542761Y-175284000D01*
X96495142Y-175236380D01*
X96495142Y-176284000D02*
X96542761Y-176331619D01*
X96590380Y-176284000D01*
X96542761Y-176236380D01*
X96495142Y-176284000D01*
X96590380Y-176284000D01*
X95590380Y-176664952D02*
X95590380Y-177284000D01*
X95971333Y-176950666D01*
X95971333Y-177093523D01*
X96018952Y-177188761D01*
X96066571Y-177236380D01*
X96161809Y-177284000D01*
X96399904Y-177284000D01*
X96495142Y-177236380D01*
X96542761Y-177188761D01*
X96590380Y-177093523D01*
X96590380Y-176807809D01*
X96542761Y-176712571D01*
X96495142Y-176664952D01*
X96590380Y-177712571D02*
X95590380Y-177712571D01*
X96590380Y-178284000D02*
X96018952Y-177855428D01*
X95590380Y-178284000D02*
X96161809Y-177712571D01*
D12*
X94714190Y-176462571D02*
X94476095Y-176295904D01*
X94714190Y-176176857D02*
X94214190Y-176176857D01*
X94214190Y-176367333D01*
X94238000Y-176414952D01*
X94261809Y-176438761D01*
X94309428Y-176462571D01*
X94380857Y-176462571D01*
X94428476Y-176438761D01*
X94452285Y-176414952D01*
X94476095Y-176367333D01*
X94476095Y-176176857D01*
X94714190Y-176938761D02*
X94714190Y-176653047D01*
X94714190Y-176795904D02*
X94214190Y-176795904D01*
X94285619Y-176748285D01*
X94333238Y-176700666D01*
X94357047Y-176653047D01*
X94714190Y-177176857D02*
X94714190Y-177272095D01*
X94690380Y-177319714D01*
X94666571Y-177343523D01*
X94595142Y-177391142D01*
X94499904Y-177414952D01*
X94309428Y-177414952D01*
X94261809Y-177391142D01*
X94238000Y-177367333D01*
X94214190Y-177319714D01*
X94214190Y-177224476D01*
X94238000Y-177176857D01*
X94261809Y-177153047D01*
X94309428Y-177129238D01*
X94428476Y-177129238D01*
X94476095Y-177153047D01*
X94499904Y-177176857D01*
X94523714Y-177224476D01*
X94523714Y-177319714D01*
X94499904Y-177367333D01*
X94476095Y-177391142D01*
X94428476Y-177414952D01*
D11*
X84875523Y-148043380D02*
X84256476Y-148043380D01*
X84589809Y-148424333D01*
X84446952Y-148424333D01*
X84351714Y-148471952D01*
X84304095Y-148519571D01*
X84256476Y-148614809D01*
X84256476Y-148852904D01*
X84304095Y-148948142D01*
X84351714Y-148995761D01*
X84446952Y-149043380D01*
X84732666Y-149043380D01*
X84827904Y-148995761D01*
X84875523Y-148948142D01*
X83923142Y-148043380D02*
X83304095Y-148043380D01*
X83637428Y-148424333D01*
X83494571Y-148424333D01*
X83399333Y-148471952D01*
X83351714Y-148519571D01*
X83304095Y-148614809D01*
X83304095Y-148852904D01*
X83351714Y-148948142D01*
X83399333Y-148995761D01*
X83494571Y-149043380D01*
X83780285Y-149043380D01*
X83875523Y-148995761D01*
X83923142Y-148948142D01*
X82875523Y-149043380D02*
X82875523Y-148043380D01*
X82304095Y-149043380D02*
X82732666Y-148471952D01*
X82304095Y-148043380D02*
X82875523Y-148614809D01*
D12*
X83887428Y-150467190D02*
X84054095Y-150229095D01*
X84173142Y-150467190D02*
X84173142Y-149967190D01*
X83982666Y-149967190D01*
X83935047Y-149991000D01*
X83911238Y-150014809D01*
X83887428Y-150062428D01*
X83887428Y-150133857D01*
X83911238Y-150181476D01*
X83935047Y-150205285D01*
X83982666Y-150229095D01*
X84173142Y-150229095D01*
X83411238Y-150467190D02*
X83696952Y-150467190D01*
X83554095Y-150467190D02*
X83554095Y-149967190D01*
X83601714Y-150038619D01*
X83649333Y-150086238D01*
X83696952Y-150110047D01*
X83125523Y-150181476D02*
X83173142Y-150157666D01*
X83196952Y-150133857D01*
X83220761Y-150086238D01*
X83220761Y-150062428D01*
X83196952Y-150014809D01*
X83173142Y-149991000D01*
X83125523Y-149967190D01*
X83030285Y-149967190D01*
X82982666Y-149991000D01*
X82958857Y-150014809D01*
X82935047Y-150062428D01*
X82935047Y-150086238D01*
X82958857Y-150133857D01*
X82982666Y-150157666D01*
X83030285Y-150181476D01*
X83125523Y-150181476D01*
X83173142Y-150205285D01*
X83196952Y-150229095D01*
X83220761Y-150276714D01*
X83220761Y-150371952D01*
X83196952Y-150419571D01*
X83173142Y-150443380D01*
X83125523Y-150467190D01*
X83030285Y-150467190D01*
X82982666Y-150443380D01*
X82958857Y-150419571D01*
X82935047Y-150371952D01*
X82935047Y-150276714D01*
X82958857Y-150229095D01*
X82982666Y-150205285D01*
X83030285Y-150181476D01*
D11*
X91098523Y-145630380D02*
X90479476Y-145630380D01*
X90812809Y-146011333D01*
X90669952Y-146011333D01*
X90574714Y-146058952D01*
X90527095Y-146106571D01*
X90479476Y-146201809D01*
X90479476Y-146439904D01*
X90527095Y-146535142D01*
X90574714Y-146582761D01*
X90669952Y-146630380D01*
X90955666Y-146630380D01*
X91050904Y-146582761D01*
X91098523Y-146535142D01*
X90146142Y-145630380D02*
X89527095Y-145630380D01*
X89860428Y-146011333D01*
X89717571Y-146011333D01*
X89622333Y-146058952D01*
X89574714Y-146106571D01*
X89527095Y-146201809D01*
X89527095Y-146439904D01*
X89574714Y-146535142D01*
X89622333Y-146582761D01*
X89717571Y-146630380D01*
X90003285Y-146630380D01*
X90098523Y-146582761D01*
X90146142Y-146535142D01*
X89098523Y-146630380D02*
X89098523Y-145630380D01*
X88527095Y-146630380D02*
X88955666Y-146058952D01*
X88527095Y-145630380D02*
X89098523Y-146201809D01*
D12*
X90110428Y-148054190D02*
X90277095Y-147816095D01*
X90396142Y-148054190D02*
X90396142Y-147554190D01*
X90205666Y-147554190D01*
X90158047Y-147578000D01*
X90134238Y-147601809D01*
X90110428Y-147649428D01*
X90110428Y-147720857D01*
X90134238Y-147768476D01*
X90158047Y-147792285D01*
X90205666Y-147816095D01*
X90396142Y-147816095D01*
X89634238Y-148054190D02*
X89919952Y-148054190D01*
X89777095Y-148054190D02*
X89777095Y-147554190D01*
X89824714Y-147625619D01*
X89872333Y-147673238D01*
X89919952Y-147697047D01*
X89467571Y-147554190D02*
X89134238Y-147554190D01*
X89348523Y-148054190D01*
D11*
X84224666Y-147263380D02*
X84796095Y-147263380D01*
X84510380Y-147263380D02*
X84510380Y-146263380D01*
X84605619Y-146406238D01*
X84700857Y-146501476D01*
X84796095Y-146549095D01*
X83605619Y-146263380D02*
X83510380Y-146263380D01*
X83415142Y-146311000D01*
X83367523Y-146358619D01*
X83319904Y-146453857D01*
X83272285Y-146644333D01*
X83272285Y-146882428D01*
X83319904Y-147072904D01*
X83367523Y-147168142D01*
X83415142Y-147215761D01*
X83510380Y-147263380D01*
X83605619Y-147263380D01*
X83700857Y-147215761D01*
X83748476Y-147168142D01*
X83796095Y-147072904D01*
X83843714Y-146882428D01*
X83843714Y-146644333D01*
X83796095Y-146453857D01*
X83748476Y-146358619D01*
X83700857Y-146311000D01*
X83605619Y-146263380D01*
X82653238Y-146263380D02*
X82558000Y-146263380D01*
X82462761Y-146311000D01*
X82415142Y-146358619D01*
X82367523Y-146453857D01*
X82319904Y-146644333D01*
X82319904Y-146882428D01*
X82367523Y-147072904D01*
X82415142Y-147168142D01*
X82462761Y-147215761D01*
X82558000Y-147263380D01*
X82653238Y-147263380D01*
X82748476Y-147215761D01*
X82796095Y-147168142D01*
X82843714Y-147072904D01*
X82891333Y-146882428D01*
X82891333Y-146644333D01*
X82843714Y-146453857D01*
X82796095Y-146358619D01*
X82748476Y-146311000D01*
X82653238Y-146263380D01*
X81891333Y-147263380D02*
X81891333Y-146263380D01*
X81319904Y-147263380D02*
X81748476Y-146691952D01*
X81319904Y-146263380D02*
X81891333Y-146834809D01*
D12*
X83379428Y-145387190D02*
X83546095Y-145149095D01*
X83665142Y-145387190D02*
X83665142Y-144887190D01*
X83474666Y-144887190D01*
X83427047Y-144911000D01*
X83403238Y-144934809D01*
X83379428Y-144982428D01*
X83379428Y-145053857D01*
X83403238Y-145101476D01*
X83427047Y-145125285D01*
X83474666Y-145149095D01*
X83665142Y-145149095D01*
X82903238Y-145387190D02*
X83188952Y-145387190D01*
X83046095Y-145387190D02*
X83046095Y-144887190D01*
X83093714Y-144958619D01*
X83141333Y-145006238D01*
X83188952Y-145030047D01*
X82450857Y-144887190D02*
X82688952Y-144887190D01*
X82712761Y-145125285D01*
X82688952Y-145101476D01*
X82641333Y-145077666D01*
X82522285Y-145077666D01*
X82474666Y-145101476D01*
X82450857Y-145125285D01*
X82427047Y-145172904D01*
X82427047Y-145291952D01*
X82450857Y-145339571D01*
X82474666Y-145363380D01*
X82522285Y-145387190D01*
X82641333Y-145387190D01*
X82688952Y-145363380D01*
X82712761Y-145339571D01*
D11*
X84224666Y-137613380D02*
X84796095Y-137613380D01*
X84510380Y-137613380D02*
X84510380Y-136613380D01*
X84605619Y-136756238D01*
X84700857Y-136851476D01*
X84796095Y-136899095D01*
X83605619Y-136613380D02*
X83510380Y-136613380D01*
X83415142Y-136661000D01*
X83367523Y-136708619D01*
X83319904Y-136803857D01*
X83272285Y-136994333D01*
X83272285Y-137232428D01*
X83319904Y-137422904D01*
X83367523Y-137518142D01*
X83415142Y-137565761D01*
X83510380Y-137613380D01*
X83605619Y-137613380D01*
X83700857Y-137565761D01*
X83748476Y-137518142D01*
X83796095Y-137422904D01*
X83843714Y-137232428D01*
X83843714Y-136994333D01*
X83796095Y-136803857D01*
X83748476Y-136708619D01*
X83700857Y-136661000D01*
X83605619Y-136613380D01*
X82653238Y-136613380D02*
X82558000Y-136613380D01*
X82462761Y-136661000D01*
X82415142Y-136708619D01*
X82367523Y-136803857D01*
X82319904Y-136994333D01*
X82319904Y-137232428D01*
X82367523Y-137422904D01*
X82415142Y-137518142D01*
X82462761Y-137565761D01*
X82558000Y-137613380D01*
X82653238Y-137613380D01*
X82748476Y-137565761D01*
X82796095Y-137518142D01*
X82843714Y-137422904D01*
X82891333Y-137232428D01*
X82891333Y-136994333D01*
X82843714Y-136803857D01*
X82796095Y-136708619D01*
X82748476Y-136661000D01*
X82653238Y-136613380D01*
X81891333Y-137613380D02*
X81891333Y-136613380D01*
X81319904Y-137613380D02*
X81748476Y-137041952D01*
X81319904Y-136613380D02*
X81891333Y-137184809D01*
D12*
X83379428Y-139037190D02*
X83546095Y-138799095D01*
X83665142Y-139037190D02*
X83665142Y-138537190D01*
X83474666Y-138537190D01*
X83427047Y-138561000D01*
X83403238Y-138584809D01*
X83379428Y-138632428D01*
X83379428Y-138703857D01*
X83403238Y-138751476D01*
X83427047Y-138775285D01*
X83474666Y-138799095D01*
X83665142Y-138799095D01*
X82903238Y-139037190D02*
X83188952Y-139037190D01*
X83046095Y-139037190D02*
X83046095Y-138537190D01*
X83093714Y-138608619D01*
X83141333Y-138656238D01*
X83188952Y-138680047D01*
X82474666Y-138703857D02*
X82474666Y-139037190D01*
X82593714Y-138513380D02*
X82712761Y-138870523D01*
X82403238Y-138870523D01*
D11*
X97448523Y-151343380D02*
X96829476Y-151343380D01*
X97162809Y-151724333D01*
X97019952Y-151724333D01*
X96924714Y-151771952D01*
X96877095Y-151819571D01*
X96829476Y-151914809D01*
X96829476Y-152152904D01*
X96877095Y-152248142D01*
X96924714Y-152295761D01*
X97019952Y-152343380D01*
X97305666Y-152343380D01*
X97400904Y-152295761D01*
X97448523Y-152248142D01*
X96496142Y-151343380D02*
X95877095Y-151343380D01*
X96210428Y-151724333D01*
X96067571Y-151724333D01*
X95972333Y-151771952D01*
X95924714Y-151819571D01*
X95877095Y-151914809D01*
X95877095Y-152152904D01*
X95924714Y-152248142D01*
X95972333Y-152295761D01*
X96067571Y-152343380D01*
X96353285Y-152343380D01*
X96448523Y-152295761D01*
X96496142Y-152248142D01*
X95448523Y-152343380D02*
X95448523Y-151343380D01*
X94877095Y-152343380D02*
X95305666Y-151771952D01*
X94877095Y-151343380D02*
X95448523Y-151914809D01*
D12*
X96460428Y-150467190D02*
X96627095Y-150229095D01*
X96746142Y-150467190D02*
X96746142Y-149967190D01*
X96555666Y-149967190D01*
X96508047Y-149991000D01*
X96484238Y-150014809D01*
X96460428Y-150062428D01*
X96460428Y-150133857D01*
X96484238Y-150181476D01*
X96508047Y-150205285D01*
X96555666Y-150229095D01*
X96746142Y-150229095D01*
X95984238Y-150467190D02*
X96269952Y-150467190D01*
X96127095Y-150467190D02*
X96127095Y-149967190D01*
X96174714Y-150038619D01*
X96222333Y-150086238D01*
X96269952Y-150110047D01*
X95817571Y-149967190D02*
X95508047Y-149967190D01*
X95674714Y-150157666D01*
X95603285Y-150157666D01*
X95555666Y-150181476D01*
X95531857Y-150205285D01*
X95508047Y-150252904D01*
X95508047Y-150371952D01*
X95531857Y-150419571D01*
X95555666Y-150443380D01*
X95603285Y-150467190D01*
X95746142Y-150467190D01*
X95793761Y-150443380D01*
X95817571Y-150419571D01*
D11*
X106244380Y-142597333D02*
X106244380Y-142025904D01*
X106244380Y-142311619D02*
X105244380Y-142311619D01*
X105387238Y-142216380D01*
X105482476Y-142121142D01*
X105530095Y-142025904D01*
X105244380Y-143216380D02*
X105244380Y-143311619D01*
X105292000Y-143406857D01*
X105339619Y-143454476D01*
X105434857Y-143502095D01*
X105625333Y-143549714D01*
X105863428Y-143549714D01*
X106053904Y-143502095D01*
X106149142Y-143454476D01*
X106196761Y-143406857D01*
X106244380Y-143311619D01*
X106244380Y-143216380D01*
X106196761Y-143121142D01*
X106149142Y-143073523D01*
X106053904Y-143025904D01*
X105863428Y-142978285D01*
X105625333Y-142978285D01*
X105434857Y-143025904D01*
X105339619Y-143073523D01*
X105292000Y-143121142D01*
X105244380Y-143216380D01*
X105244380Y-144168761D02*
X105244380Y-144264000D01*
X105292000Y-144359238D01*
X105339619Y-144406857D01*
X105434857Y-144454476D01*
X105625333Y-144502095D01*
X105863428Y-144502095D01*
X106053904Y-144454476D01*
X106149142Y-144406857D01*
X106196761Y-144359238D01*
X106244380Y-144264000D01*
X106244380Y-144168761D01*
X106196761Y-144073523D01*
X106149142Y-144025904D01*
X106053904Y-143978285D01*
X105863428Y-143930666D01*
X105625333Y-143930666D01*
X105434857Y-143978285D01*
X105339619Y-144025904D01*
X105292000Y-144073523D01*
X105244380Y-144168761D01*
X106244380Y-144930666D02*
X105244380Y-144930666D01*
X106244380Y-145502095D02*
X105672952Y-145073523D01*
X105244380Y-145502095D02*
X105815809Y-144930666D01*
D12*
X107668190Y-143442571D02*
X107430095Y-143275904D01*
X107668190Y-143156857D02*
X107168190Y-143156857D01*
X107168190Y-143347333D01*
X107192000Y-143394952D01*
X107215809Y-143418761D01*
X107263428Y-143442571D01*
X107334857Y-143442571D01*
X107382476Y-143418761D01*
X107406285Y-143394952D01*
X107430095Y-143347333D01*
X107430095Y-143156857D01*
X107668190Y-143918761D02*
X107668190Y-143633047D01*
X107668190Y-143775904D02*
X107168190Y-143775904D01*
X107239619Y-143728285D01*
X107287238Y-143680666D01*
X107311047Y-143633047D01*
X107215809Y-144109238D02*
X107192000Y-144133047D01*
X107168190Y-144180666D01*
X107168190Y-144299714D01*
X107192000Y-144347333D01*
X107215809Y-144371142D01*
X107263428Y-144394952D01*
X107311047Y-144394952D01*
X107382476Y-144371142D01*
X107668190Y-144085428D01*
X107668190Y-144394952D01*
D11*
X92909380Y-130659333D02*
X92909380Y-130087904D01*
X92909380Y-130373619D02*
X91909380Y-130373619D01*
X92052238Y-130278380D01*
X92147476Y-130183142D01*
X92195095Y-130087904D01*
X91909380Y-131278380D02*
X91909380Y-131373619D01*
X91957000Y-131468857D01*
X92004619Y-131516476D01*
X92099857Y-131564095D01*
X92290333Y-131611714D01*
X92528428Y-131611714D01*
X92718904Y-131564095D01*
X92814142Y-131516476D01*
X92861761Y-131468857D01*
X92909380Y-131373619D01*
X92909380Y-131278380D01*
X92861761Y-131183142D01*
X92814142Y-131135523D01*
X92718904Y-131087904D01*
X92528428Y-131040285D01*
X92290333Y-131040285D01*
X92099857Y-131087904D01*
X92004619Y-131135523D01*
X91957000Y-131183142D01*
X91909380Y-131278380D01*
X91909380Y-132230761D02*
X91909380Y-132326000D01*
X91957000Y-132421238D01*
X92004619Y-132468857D01*
X92099857Y-132516476D01*
X92290333Y-132564095D01*
X92528428Y-132564095D01*
X92718904Y-132516476D01*
X92814142Y-132468857D01*
X92861761Y-132421238D01*
X92909380Y-132326000D01*
X92909380Y-132230761D01*
X92861761Y-132135523D01*
X92814142Y-132087904D01*
X92718904Y-132040285D01*
X92528428Y-131992666D01*
X92290333Y-131992666D01*
X92099857Y-132040285D01*
X92004619Y-132087904D01*
X91957000Y-132135523D01*
X91909380Y-132230761D01*
X92909380Y-132992666D02*
X91909380Y-132992666D01*
X92909380Y-133564095D02*
X92337952Y-133135523D01*
X91909380Y-133564095D02*
X92480809Y-132992666D01*
D12*
X94333190Y-131504571D02*
X94095095Y-131337904D01*
X94333190Y-131218857D02*
X93833190Y-131218857D01*
X93833190Y-131409333D01*
X93857000Y-131456952D01*
X93880809Y-131480761D01*
X93928428Y-131504571D01*
X93999857Y-131504571D01*
X94047476Y-131480761D01*
X94071285Y-131456952D01*
X94095095Y-131409333D01*
X94095095Y-131218857D01*
X94333190Y-131980761D02*
X94333190Y-131695047D01*
X94333190Y-131837904D02*
X93833190Y-131837904D01*
X93904619Y-131790285D01*
X93952238Y-131742666D01*
X93976047Y-131695047D01*
X94333190Y-132456952D02*
X94333190Y-132171238D01*
X94333190Y-132314095D02*
X93833190Y-132314095D01*
X93904619Y-132266476D01*
X93952238Y-132218857D01*
X93976047Y-132171238D01*
D11*
X79447380Y-118213333D02*
X79447380Y-117641904D01*
X79447380Y-117927619D02*
X78447380Y-117927619D01*
X78590238Y-117832380D01*
X78685476Y-117737142D01*
X78733095Y-117641904D01*
X78447380Y-118832380D02*
X78447380Y-118927619D01*
X78495000Y-119022857D01*
X78542619Y-119070476D01*
X78637857Y-119118095D01*
X78828333Y-119165714D01*
X79066428Y-119165714D01*
X79256904Y-119118095D01*
X79352142Y-119070476D01*
X79399761Y-119022857D01*
X79447380Y-118927619D01*
X79447380Y-118832380D01*
X79399761Y-118737142D01*
X79352142Y-118689523D01*
X79256904Y-118641904D01*
X79066428Y-118594285D01*
X78828333Y-118594285D01*
X78637857Y-118641904D01*
X78542619Y-118689523D01*
X78495000Y-118737142D01*
X78447380Y-118832380D01*
X78447380Y-119784761D02*
X78447380Y-119880000D01*
X78495000Y-119975238D01*
X78542619Y-120022857D01*
X78637857Y-120070476D01*
X78828333Y-120118095D01*
X79066428Y-120118095D01*
X79256904Y-120070476D01*
X79352142Y-120022857D01*
X79399761Y-119975238D01*
X79447380Y-119880000D01*
X79447380Y-119784761D01*
X79399761Y-119689523D01*
X79352142Y-119641904D01*
X79256904Y-119594285D01*
X79066428Y-119546666D01*
X78828333Y-119546666D01*
X78637857Y-119594285D01*
X78542619Y-119641904D01*
X78495000Y-119689523D01*
X78447380Y-119784761D01*
X79447380Y-120546666D02*
X78447380Y-120546666D01*
X79447380Y-121118095D02*
X78875952Y-120689523D01*
X78447380Y-121118095D02*
X79018809Y-120546666D01*
D12*
X80871190Y-119058571D02*
X80633095Y-118891904D01*
X80871190Y-118772857D02*
X80371190Y-118772857D01*
X80371190Y-118963333D01*
X80395000Y-119010952D01*
X80418809Y-119034761D01*
X80466428Y-119058571D01*
X80537857Y-119058571D01*
X80585476Y-119034761D01*
X80609285Y-119010952D01*
X80633095Y-118963333D01*
X80633095Y-118772857D01*
X80871190Y-119534761D02*
X80871190Y-119249047D01*
X80871190Y-119391904D02*
X80371190Y-119391904D01*
X80442619Y-119344285D01*
X80490238Y-119296666D01*
X80514047Y-119249047D01*
X80371190Y-119844285D02*
X80371190Y-119891904D01*
X80395000Y-119939523D01*
X80418809Y-119963333D01*
X80466428Y-119987142D01*
X80561666Y-120010952D01*
X80680714Y-120010952D01*
X80775952Y-119987142D01*
X80823571Y-119963333D01*
X80847380Y-119939523D01*
X80871190Y-119891904D01*
X80871190Y-119844285D01*
X80847380Y-119796666D01*
X80823571Y-119772857D01*
X80775952Y-119749047D01*
X80680714Y-119725238D01*
X80561666Y-119725238D01*
X80466428Y-119749047D01*
X80418809Y-119772857D01*
X80395000Y-119796666D01*
X80371190Y-119844285D01*
D11*
X97068714Y-131040285D02*
X97735380Y-131040285D01*
X96687761Y-130802190D02*
X97402047Y-130564095D01*
X97402047Y-131183142D01*
X96735380Y-131468857D02*
X96735380Y-132135523D01*
X97735380Y-131706952D01*
X97735380Y-132516476D02*
X96735380Y-132516476D01*
X97735380Y-133087904D02*
X97163952Y-132659333D01*
X96735380Y-133087904D02*
X97306809Y-132516476D01*
D12*
X99159190Y-131742666D02*
X98921095Y-131576000D01*
X99159190Y-131456952D02*
X98659190Y-131456952D01*
X98659190Y-131647428D01*
X98683000Y-131695047D01*
X98706809Y-131718857D01*
X98754428Y-131742666D01*
X98825857Y-131742666D01*
X98873476Y-131718857D01*
X98897285Y-131695047D01*
X98921095Y-131647428D01*
X98921095Y-131456952D01*
X98659190Y-131909333D02*
X98659190Y-132242666D01*
X99159190Y-132028380D01*
D11*
X94655714Y-131040285D02*
X95322380Y-131040285D01*
X94274761Y-130802190D02*
X94989047Y-130564095D01*
X94989047Y-131183142D01*
X94322380Y-131468857D02*
X94322380Y-132135523D01*
X95322380Y-131706952D01*
X95322380Y-132516476D02*
X94322380Y-132516476D01*
X95322380Y-133087904D02*
X94750952Y-132659333D01*
X94322380Y-133087904D02*
X94893809Y-132516476D01*
D12*
X96746190Y-131742666D02*
X96508095Y-131576000D01*
X96746190Y-131456952D02*
X96246190Y-131456952D01*
X96246190Y-131647428D01*
X96270000Y-131695047D01*
X96293809Y-131718857D01*
X96341428Y-131742666D01*
X96412857Y-131742666D01*
X96460476Y-131718857D01*
X96484285Y-131695047D01*
X96508095Y-131647428D01*
X96508095Y-131456952D01*
X96246190Y-132171238D02*
X96246190Y-132076000D01*
X96270000Y-132028380D01*
X96293809Y-132004571D01*
X96365238Y-131956952D01*
X96460476Y-131933142D01*
X96650952Y-131933142D01*
X96698571Y-131956952D01*
X96722380Y-131980761D01*
X96746190Y-132028380D01*
X96746190Y-132123619D01*
X96722380Y-132171238D01*
X96698571Y-132195047D01*
X96650952Y-132218857D01*
X96531904Y-132218857D01*
X96484285Y-132195047D01*
X96460476Y-132171238D01*
X96436666Y-132123619D01*
X96436666Y-132028380D01*
X96460476Y-131980761D01*
X96484285Y-131956952D01*
X96531904Y-131933142D01*
D11*
X83733714Y-118594285D02*
X84400380Y-118594285D01*
X83352761Y-118356190D02*
X84067047Y-118118095D01*
X84067047Y-118737142D01*
X83400380Y-119022857D02*
X83400380Y-119689523D01*
X84400380Y-119260952D01*
X84400380Y-120070476D02*
X83400380Y-120070476D01*
X84400380Y-120641904D02*
X83828952Y-120213333D01*
X83400380Y-120641904D02*
X83971809Y-120070476D01*
D12*
X85824190Y-119296666D02*
X85586095Y-119130000D01*
X85824190Y-119010952D02*
X85324190Y-119010952D01*
X85324190Y-119201428D01*
X85348000Y-119249047D01*
X85371809Y-119272857D01*
X85419428Y-119296666D01*
X85490857Y-119296666D01*
X85538476Y-119272857D01*
X85562285Y-119249047D01*
X85586095Y-119201428D01*
X85586095Y-119010952D01*
X85324190Y-119749047D02*
X85324190Y-119510952D01*
X85562285Y-119487142D01*
X85538476Y-119510952D01*
X85514666Y-119558571D01*
X85514666Y-119677619D01*
X85538476Y-119725238D01*
X85562285Y-119749047D01*
X85609904Y-119772857D01*
X85728952Y-119772857D01*
X85776571Y-119749047D01*
X85800380Y-119725238D01*
X85824190Y-119677619D01*
X85824190Y-119558571D01*
X85800380Y-119510952D01*
X85776571Y-119487142D01*
D11*
X81193714Y-118594285D02*
X81860380Y-118594285D01*
X80812761Y-118356190D02*
X81527047Y-118118095D01*
X81527047Y-118737142D01*
X80860380Y-119022857D02*
X80860380Y-119689523D01*
X81860380Y-119260952D01*
X81860380Y-120070476D02*
X80860380Y-120070476D01*
X81860380Y-120641904D02*
X81288952Y-120213333D01*
X80860380Y-120641904D02*
X81431809Y-120070476D01*
D12*
X83284190Y-119296666D02*
X83046095Y-119130000D01*
X83284190Y-119010952D02*
X82784190Y-119010952D01*
X82784190Y-119201428D01*
X82808000Y-119249047D01*
X82831809Y-119272857D01*
X82879428Y-119296666D01*
X82950857Y-119296666D01*
X82998476Y-119272857D01*
X83022285Y-119249047D01*
X83046095Y-119201428D01*
X83046095Y-119010952D01*
X82950857Y-119725238D02*
X83284190Y-119725238D01*
X82760380Y-119606190D02*
X83117523Y-119487142D01*
X83117523Y-119796666D01*
D11*
X90496380Y-167870333D02*
X90496380Y-167298904D01*
X90496380Y-167584619D02*
X89496380Y-167584619D01*
X89639238Y-167489380D01*
X89734476Y-167394142D01*
X89782095Y-167298904D01*
X89496380Y-168489380D02*
X89496380Y-168584619D01*
X89544000Y-168679857D01*
X89591619Y-168727476D01*
X89686857Y-168775095D01*
X89877333Y-168822714D01*
X90115428Y-168822714D01*
X90305904Y-168775095D01*
X90401142Y-168727476D01*
X90448761Y-168679857D01*
X90496380Y-168584619D01*
X90496380Y-168489380D01*
X90448761Y-168394142D01*
X90401142Y-168346523D01*
X90305904Y-168298904D01*
X90115428Y-168251285D01*
X89877333Y-168251285D01*
X89686857Y-168298904D01*
X89591619Y-168346523D01*
X89544000Y-168394142D01*
X89496380Y-168489380D01*
X89496380Y-169441761D02*
X89496380Y-169537000D01*
X89544000Y-169632238D01*
X89591619Y-169679857D01*
X89686857Y-169727476D01*
X89877333Y-169775095D01*
X90115428Y-169775095D01*
X90305904Y-169727476D01*
X90401142Y-169679857D01*
X90448761Y-169632238D01*
X90496380Y-169537000D01*
X90496380Y-169441761D01*
X90448761Y-169346523D01*
X90401142Y-169298904D01*
X90305904Y-169251285D01*
X90115428Y-169203666D01*
X89877333Y-169203666D01*
X89686857Y-169251285D01*
X89591619Y-169298904D01*
X89544000Y-169346523D01*
X89496380Y-169441761D01*
X90496380Y-170203666D02*
X89496380Y-170203666D01*
X90496380Y-170775095D02*
X89924952Y-170346523D01*
X89496380Y-170775095D02*
X90067809Y-170203666D01*
D12*
X91920190Y-168953666D02*
X91682095Y-168787000D01*
X91920190Y-168667952D02*
X91420190Y-168667952D01*
X91420190Y-168858428D01*
X91444000Y-168906047D01*
X91467809Y-168929857D01*
X91515428Y-168953666D01*
X91586857Y-168953666D01*
X91634476Y-168929857D01*
X91658285Y-168906047D01*
X91682095Y-168858428D01*
X91682095Y-168667952D01*
X91420190Y-169120333D02*
X91420190Y-169429857D01*
X91610666Y-169263190D01*
X91610666Y-169334619D01*
X91634476Y-169382238D01*
X91658285Y-169406047D01*
X91705904Y-169429857D01*
X91824952Y-169429857D01*
X91872571Y-169406047D01*
X91896380Y-169382238D01*
X91920190Y-169334619D01*
X91920190Y-169191761D01*
X91896380Y-169144142D01*
X91872571Y-169120333D01*
D11*
X88464380Y-167870333D02*
X88464380Y-167298904D01*
X88464380Y-167584619D02*
X87464380Y-167584619D01*
X87607238Y-167489380D01*
X87702476Y-167394142D01*
X87750095Y-167298904D01*
X87464380Y-168489380D02*
X87464380Y-168584619D01*
X87512000Y-168679857D01*
X87559619Y-168727476D01*
X87654857Y-168775095D01*
X87845333Y-168822714D01*
X88083428Y-168822714D01*
X88273904Y-168775095D01*
X88369142Y-168727476D01*
X88416761Y-168679857D01*
X88464380Y-168584619D01*
X88464380Y-168489380D01*
X88416761Y-168394142D01*
X88369142Y-168346523D01*
X88273904Y-168298904D01*
X88083428Y-168251285D01*
X87845333Y-168251285D01*
X87654857Y-168298904D01*
X87559619Y-168346523D01*
X87512000Y-168394142D01*
X87464380Y-168489380D01*
X87464380Y-169441761D02*
X87464380Y-169537000D01*
X87512000Y-169632238D01*
X87559619Y-169679857D01*
X87654857Y-169727476D01*
X87845333Y-169775095D01*
X88083428Y-169775095D01*
X88273904Y-169727476D01*
X88369142Y-169679857D01*
X88416761Y-169632238D01*
X88464380Y-169537000D01*
X88464380Y-169441761D01*
X88416761Y-169346523D01*
X88369142Y-169298904D01*
X88273904Y-169251285D01*
X88083428Y-169203666D01*
X87845333Y-169203666D01*
X87654857Y-169251285D01*
X87559619Y-169298904D01*
X87512000Y-169346523D01*
X87464380Y-169441761D01*
X88464380Y-170203666D02*
X87464380Y-170203666D01*
X88464380Y-170775095D02*
X87892952Y-170346523D01*
X87464380Y-170775095D02*
X88035809Y-170203666D01*
D12*
X89888190Y-168953666D02*
X89650095Y-168787000D01*
X89888190Y-168667952D02*
X89388190Y-168667952D01*
X89388190Y-168858428D01*
X89412000Y-168906047D01*
X89435809Y-168929857D01*
X89483428Y-168953666D01*
X89554857Y-168953666D01*
X89602476Y-168929857D01*
X89626285Y-168906047D01*
X89650095Y-168858428D01*
X89650095Y-168667952D01*
X89435809Y-169144142D02*
X89412000Y-169167952D01*
X89388190Y-169215571D01*
X89388190Y-169334619D01*
X89412000Y-169382238D01*
X89435809Y-169406047D01*
X89483428Y-169429857D01*
X89531047Y-169429857D01*
X89602476Y-169406047D01*
X89888190Y-169120333D01*
X89888190Y-169429857D01*
D11*
X89732380Y-167870333D02*
X89732380Y-167298904D01*
X89732380Y-167584619D02*
X88732380Y-167584619D01*
X88875238Y-167489380D01*
X88970476Y-167394142D01*
X89018095Y-167298904D01*
X88732380Y-168489380D02*
X88732380Y-168584619D01*
X88780000Y-168679857D01*
X88827619Y-168727476D01*
X88922857Y-168775095D01*
X89113333Y-168822714D01*
X89351428Y-168822714D01*
X89541904Y-168775095D01*
X89637142Y-168727476D01*
X89684761Y-168679857D01*
X89732380Y-168584619D01*
X89732380Y-168489380D01*
X89684761Y-168394142D01*
X89637142Y-168346523D01*
X89541904Y-168298904D01*
X89351428Y-168251285D01*
X89113333Y-168251285D01*
X88922857Y-168298904D01*
X88827619Y-168346523D01*
X88780000Y-168394142D01*
X88732380Y-168489380D01*
X88732380Y-169441761D02*
X88732380Y-169537000D01*
X88780000Y-169632238D01*
X88827619Y-169679857D01*
X88922857Y-169727476D01*
X89113333Y-169775095D01*
X89351428Y-169775095D01*
X89541904Y-169727476D01*
X89637142Y-169679857D01*
X89684761Y-169632238D01*
X89732380Y-169537000D01*
X89732380Y-169441761D01*
X89684761Y-169346523D01*
X89637142Y-169298904D01*
X89541904Y-169251285D01*
X89351428Y-169203666D01*
X89113333Y-169203666D01*
X88922857Y-169251285D01*
X88827619Y-169298904D01*
X88780000Y-169346523D01*
X88732380Y-169441761D01*
X89732380Y-170203666D02*
X88732380Y-170203666D01*
X89732380Y-170775095D02*
X89160952Y-170346523D01*
X88732380Y-170775095D02*
X89303809Y-170203666D01*
D12*
X87856190Y-168953666D02*
X87618095Y-168787000D01*
X87856190Y-168667952D02*
X87356190Y-168667952D01*
X87356190Y-168858428D01*
X87380000Y-168906047D01*
X87403809Y-168929857D01*
X87451428Y-168953666D01*
X87522857Y-168953666D01*
X87570476Y-168929857D01*
X87594285Y-168906047D01*
X87618095Y-168858428D01*
X87618095Y-168667952D01*
X87856190Y-169429857D02*
X87856190Y-169144142D01*
X87856190Y-169287000D02*
X87356190Y-169287000D01*
X87427619Y-169239380D01*
X87475238Y-169191761D01*
X87499047Y-169144142D01*
D11*
X108656380Y-195262857D02*
X107656380Y-195262857D01*
X107656380Y-195643809D01*
X107704000Y-195739047D01*
X107751619Y-195786666D01*
X107846857Y-195834285D01*
X107989714Y-195834285D01*
X108084952Y-195786666D01*
X108132571Y-195739047D01*
X108180190Y-195643809D01*
X108180190Y-195262857D01*
X107656380Y-196167619D02*
X108656380Y-196405714D01*
X107942095Y-196596190D01*
X108656380Y-196786666D01*
X107656380Y-197024761D01*
X108656380Y-197977142D02*
X108180190Y-197643809D01*
X108656380Y-197405714D02*
X107656380Y-197405714D01*
X107656380Y-197786666D01*
X107704000Y-197881904D01*
X107751619Y-197929523D01*
X107846857Y-197977142D01*
X107989714Y-197977142D01*
X108084952Y-197929523D01*
X108132571Y-197881904D01*
X108180190Y-197786666D01*
X108180190Y-197405714D01*
X108656380Y-198405714D02*
X107656380Y-198405714D01*
X108132571Y-198405714D02*
X108132571Y-198977142D01*
X108656380Y-198977142D02*
X107656380Y-198977142D01*
X108656380Y-199453333D02*
X107656380Y-199453333D01*
X107656380Y-199691428D01*
X107704000Y-199834285D01*
X107799238Y-199929523D01*
X107894476Y-199977142D01*
X108084952Y-200024761D01*
X108227809Y-200024761D01*
X108418285Y-199977142D01*
X108513523Y-199929523D01*
X108608761Y-199834285D01*
X108656380Y-199691428D01*
X108656380Y-199453333D01*
X108656380Y-201024761D02*
X108180190Y-200691428D01*
X108656380Y-200453333D02*
X107656380Y-200453333D01*
X107656380Y-200834285D01*
X107704000Y-200929523D01*
X107751619Y-200977142D01*
X107846857Y-201024761D01*
X107989714Y-201024761D01*
X108084952Y-200977142D01*
X108132571Y-200929523D01*
X108180190Y-200834285D01*
X108180190Y-200453333D01*
X95972380Y-197310476D02*
X96686666Y-197310476D01*
X96829523Y-197262857D01*
X96924761Y-197167619D01*
X96972380Y-197024761D01*
X96972380Y-196929523D01*
X96972380Y-198310476D02*
X96972380Y-197739047D01*
X96972380Y-198024761D02*
X95972380Y-198024761D01*
X96115238Y-197929523D01*
X96210476Y-197834285D01*
X96258095Y-197739047D01*
X95972380Y-198929523D02*
X95972380Y-199024761D01*
X96020000Y-199120000D01*
X96067619Y-199167619D01*
X96162857Y-199215238D01*
X96353333Y-199262857D01*
X96591428Y-199262857D01*
X96781904Y-199215238D01*
X96877142Y-199167619D01*
X96924761Y-199120000D01*
X96972380Y-199024761D01*
X96972380Y-198929523D01*
X96924761Y-198834285D01*
X96877142Y-198786666D01*
X96781904Y-198739047D01*
X96591428Y-198691428D01*
X96353333Y-198691428D01*
X96162857Y-198739047D01*
X96067619Y-198786666D01*
X96020000Y-198834285D01*
X95972380Y-198929523D01*
X97781857Y-150075380D02*
X97686619Y-150075380D01*
X97591380Y-150123000D01*
X97543761Y-150170619D01*
X97496142Y-150265857D01*
X97448523Y-150456333D01*
X97448523Y-150694428D01*
X97496142Y-150884904D01*
X97543761Y-150980142D01*
X97591380Y-151027761D01*
X97686619Y-151075380D01*
X97781857Y-151075380D01*
X97877095Y-151027761D01*
X97924714Y-150980142D01*
X97972333Y-150884904D01*
X98019952Y-150694428D01*
X98019952Y-150456333D01*
X97972333Y-150265857D01*
X97924714Y-150170619D01*
X97877095Y-150123000D01*
X97781857Y-150075380D01*
X97019952Y-150980142D02*
X96972333Y-151027761D01*
X97019952Y-151075380D01*
X97067571Y-151027761D01*
X97019952Y-150980142D01*
X97019952Y-151075380D01*
X96019952Y-151075380D02*
X96591380Y-151075380D01*
X96305666Y-151075380D02*
X96305666Y-150075380D01*
X96400904Y-150218238D01*
X96496142Y-150313476D01*
X96591380Y-150361095D01*
X95162809Y-150408714D02*
X95162809Y-151075380D01*
X95591380Y-150408714D02*
X95591380Y-150932523D01*
X95543761Y-151027761D01*
X95448523Y-151075380D01*
X95305666Y-151075380D01*
X95210428Y-151027761D01*
X95162809Y-150980142D01*
X94353285Y-150551571D02*
X94686619Y-150551571D01*
X94686619Y-151075380D02*
X94686619Y-150075380D01*
X94210428Y-150075380D01*
D12*
X96222333Y-152451571D02*
X96246142Y-152475380D01*
X96317571Y-152499190D01*
X96365190Y-152499190D01*
X96436619Y-152475380D01*
X96484238Y-152427761D01*
X96508047Y-152380142D01*
X96531857Y-152284904D01*
X96531857Y-152213476D01*
X96508047Y-152118238D01*
X96484238Y-152070619D01*
X96436619Y-152023000D01*
X96365190Y-151999190D01*
X96317571Y-151999190D01*
X96246142Y-152023000D01*
X96222333Y-152046809D01*
X96055666Y-151999190D02*
X95722333Y-151999190D01*
X95936619Y-152499190D01*
D11*
X97654857Y-139788380D02*
X97559619Y-139788380D01*
X97464380Y-139836000D01*
X97416761Y-139883619D01*
X97369142Y-139978857D01*
X97321523Y-140169333D01*
X97321523Y-140407428D01*
X97369142Y-140597904D01*
X97416761Y-140693142D01*
X97464380Y-140740761D01*
X97559619Y-140788380D01*
X97654857Y-140788380D01*
X97750095Y-140740761D01*
X97797714Y-140693142D01*
X97845333Y-140597904D01*
X97892952Y-140407428D01*
X97892952Y-140169333D01*
X97845333Y-139978857D01*
X97797714Y-139883619D01*
X97750095Y-139836000D01*
X97654857Y-139788380D01*
X96892952Y-140693142D02*
X96845333Y-140740761D01*
X96892952Y-140788380D01*
X96940571Y-140740761D01*
X96892952Y-140693142D01*
X96892952Y-140788380D01*
X95892952Y-140788380D02*
X96464380Y-140788380D01*
X96178666Y-140788380D02*
X96178666Y-139788380D01*
X96273904Y-139931238D01*
X96369142Y-140026476D01*
X96464380Y-140074095D01*
X95035809Y-140121714D02*
X95035809Y-140788380D01*
X95464380Y-140121714D02*
X95464380Y-140645523D01*
X95416761Y-140740761D01*
X95321523Y-140788380D01*
X95178666Y-140788380D01*
X95083428Y-140740761D01*
X95035809Y-140693142D01*
X94226285Y-140264571D02*
X94559619Y-140264571D01*
X94559619Y-140788380D02*
X94559619Y-139788380D01*
X94083428Y-139788380D01*
D12*
X96095333Y-142164571D02*
X96119142Y-142188380D01*
X96190571Y-142212190D01*
X96238190Y-142212190D01*
X96309619Y-142188380D01*
X96357238Y-142140761D01*
X96381047Y-142093142D01*
X96404857Y-141997904D01*
X96404857Y-141926476D01*
X96381047Y-141831238D01*
X96357238Y-141783619D01*
X96309619Y-141736000D01*
X96238190Y-141712190D01*
X96190571Y-141712190D01*
X96119142Y-141736000D01*
X96095333Y-141759809D01*
X95666761Y-141712190D02*
X95762000Y-141712190D01*
X95809619Y-141736000D01*
X95833428Y-141759809D01*
X95881047Y-141831238D01*
X95904857Y-141926476D01*
X95904857Y-142116952D01*
X95881047Y-142164571D01*
X95857238Y-142188380D01*
X95809619Y-142212190D01*
X95714380Y-142212190D01*
X95666761Y-142188380D01*
X95642952Y-142164571D01*
X95619142Y-142116952D01*
X95619142Y-141997904D01*
X95642952Y-141950285D01*
X95666761Y-141926476D01*
X95714380Y-141902666D01*
X95809619Y-141902666D01*
X95857238Y-141926476D01*
X95881047Y-141950285D01*
X95904857Y-141997904D01*
D11*
X85208857Y-153375380D02*
X85113619Y-153375380D01*
X85018380Y-153423000D01*
X84970761Y-153470619D01*
X84923142Y-153565857D01*
X84875523Y-153756333D01*
X84875523Y-153994428D01*
X84923142Y-154184904D01*
X84970761Y-154280142D01*
X85018380Y-154327761D01*
X85113619Y-154375380D01*
X85208857Y-154375380D01*
X85304095Y-154327761D01*
X85351714Y-154280142D01*
X85399333Y-154184904D01*
X85446952Y-153994428D01*
X85446952Y-153756333D01*
X85399333Y-153565857D01*
X85351714Y-153470619D01*
X85304095Y-153423000D01*
X85208857Y-153375380D01*
X84446952Y-154280142D02*
X84399333Y-154327761D01*
X84446952Y-154375380D01*
X84494571Y-154327761D01*
X84446952Y-154280142D01*
X84446952Y-154375380D01*
X83446952Y-154375380D02*
X84018380Y-154375380D01*
X83732666Y-154375380D02*
X83732666Y-153375380D01*
X83827904Y-153518238D01*
X83923142Y-153613476D01*
X84018380Y-153661095D01*
X82589809Y-153708714D02*
X82589809Y-154375380D01*
X83018380Y-153708714D02*
X83018380Y-154232523D01*
X82970761Y-154327761D01*
X82875523Y-154375380D01*
X82732666Y-154375380D01*
X82637428Y-154327761D01*
X82589809Y-154280142D01*
X81780285Y-153851571D02*
X82113619Y-153851571D01*
X82113619Y-154375380D02*
X82113619Y-153375380D01*
X81637428Y-153375380D01*
D12*
X83649333Y-152451571D02*
X83673142Y-152475380D01*
X83744571Y-152499190D01*
X83792190Y-152499190D01*
X83863619Y-152475380D01*
X83911238Y-152427761D01*
X83935047Y-152380142D01*
X83958857Y-152284904D01*
X83958857Y-152213476D01*
X83935047Y-152118238D01*
X83911238Y-152070619D01*
X83863619Y-152023000D01*
X83792190Y-151999190D01*
X83744571Y-151999190D01*
X83673142Y-152023000D01*
X83649333Y-152046809D01*
X83482666Y-151999190D02*
X83173142Y-151999190D01*
X83339809Y-152189666D01*
X83268380Y-152189666D01*
X83220761Y-152213476D01*
X83196952Y-152237285D01*
X83173142Y-152284904D01*
X83173142Y-152403952D01*
X83196952Y-152451571D01*
X83220761Y-152475380D01*
X83268380Y-152499190D01*
X83411238Y-152499190D01*
X83458857Y-152475380D01*
X83482666Y-152451571D01*
D11*
X84700857Y-143088380D02*
X84605619Y-143088380D01*
X84510380Y-143136000D01*
X84462761Y-143183619D01*
X84415142Y-143278857D01*
X84367523Y-143469333D01*
X84367523Y-143707428D01*
X84415142Y-143897904D01*
X84462761Y-143993142D01*
X84510380Y-144040761D01*
X84605619Y-144088380D01*
X84700857Y-144088380D01*
X84796095Y-144040761D01*
X84843714Y-143993142D01*
X84891333Y-143897904D01*
X84938952Y-143707428D01*
X84938952Y-143469333D01*
X84891333Y-143278857D01*
X84843714Y-143183619D01*
X84796095Y-143136000D01*
X84700857Y-143088380D01*
X83938952Y-143993142D02*
X83891333Y-144040761D01*
X83938952Y-144088380D01*
X83986571Y-144040761D01*
X83938952Y-143993142D01*
X83938952Y-144088380D01*
X82938952Y-144088380D02*
X83510380Y-144088380D01*
X83224666Y-144088380D02*
X83224666Y-143088380D01*
X83319904Y-143231238D01*
X83415142Y-143326476D01*
X83510380Y-143374095D01*
X82081809Y-143421714D02*
X82081809Y-144088380D01*
X82510380Y-143421714D02*
X82510380Y-143945523D01*
X82462761Y-144040761D01*
X82367523Y-144088380D01*
X82224666Y-144088380D01*
X82129428Y-144040761D01*
X82081809Y-143993142D01*
X81272285Y-143564571D02*
X81605619Y-143564571D01*
X81605619Y-144088380D02*
X81605619Y-143088380D01*
X81129428Y-143088380D01*
D12*
X83141333Y-142164571D02*
X83165142Y-142188380D01*
X83236571Y-142212190D01*
X83284190Y-142212190D01*
X83355619Y-142188380D01*
X83403238Y-142140761D01*
X83427047Y-142093142D01*
X83450857Y-141997904D01*
X83450857Y-141926476D01*
X83427047Y-141831238D01*
X83403238Y-141783619D01*
X83355619Y-141736000D01*
X83284190Y-141712190D01*
X83236571Y-141712190D01*
X83165142Y-141736000D01*
X83141333Y-141759809D01*
X82950857Y-141759809D02*
X82927047Y-141736000D01*
X82879428Y-141712190D01*
X82760380Y-141712190D01*
X82712761Y-141736000D01*
X82688952Y-141759809D01*
X82665142Y-141807428D01*
X82665142Y-141855047D01*
X82688952Y-141926476D01*
X82974666Y-142212190D01*
X82665142Y-142212190D01*
D11*
X97210428Y-150311380D02*
X97781857Y-150311380D01*
X97496142Y-150311380D02*
X97496142Y-149311380D01*
X97591380Y-149454238D01*
X97686619Y-149549476D01*
X97781857Y-149597095D01*
X96591380Y-149311380D02*
X96496142Y-149311380D01*
X96400904Y-149359000D01*
X96353285Y-149406619D01*
X96305666Y-149501857D01*
X96258047Y-149692333D01*
X96258047Y-149930428D01*
X96305666Y-150120904D01*
X96353285Y-150216142D01*
X96400904Y-150263761D01*
X96496142Y-150311380D01*
X96591380Y-150311380D01*
X96686619Y-150263761D01*
X96734238Y-150216142D01*
X96781857Y-150120904D01*
X96829476Y-149930428D01*
X96829476Y-149692333D01*
X96781857Y-149501857D01*
X96734238Y-149406619D01*
X96686619Y-149359000D01*
X96591380Y-149311380D01*
X95829476Y-149644714D02*
X95829476Y-150644714D01*
X95829476Y-149692333D02*
X95734238Y-149644714D01*
X95543761Y-149644714D01*
X95448523Y-149692333D01*
X95400904Y-149739952D01*
X95353285Y-149835190D01*
X95353285Y-150120904D01*
X95400904Y-150216142D01*
X95448523Y-150263761D01*
X95543761Y-150311380D01*
X95734238Y-150311380D01*
X95829476Y-150263761D01*
X94591380Y-149787571D02*
X94924714Y-149787571D01*
X94924714Y-150311380D02*
X94924714Y-149311380D01*
X94448523Y-149311380D01*
D12*
X96222333Y-148387571D02*
X96246142Y-148411380D01*
X96317571Y-148435190D01*
X96365190Y-148435190D01*
X96436619Y-148411380D01*
X96484238Y-148363761D01*
X96508047Y-148316142D01*
X96531857Y-148220904D01*
X96531857Y-148149476D01*
X96508047Y-148054238D01*
X96484238Y-148006619D01*
X96436619Y-147959000D01*
X96365190Y-147935190D01*
X96317571Y-147935190D01*
X96246142Y-147959000D01*
X96222333Y-147982809D01*
X95746142Y-148435190D02*
X96031857Y-148435190D01*
X95889000Y-148435190D02*
X95889000Y-147935190D01*
X95936619Y-148006619D01*
X95984238Y-148054238D01*
X96031857Y-148078047D01*
M02*
