G04 #@! TF.GenerationSoftware,KiCad,Pcbnew,(5.0.1)-4*
G04 #@! TF.CreationDate,2019-03-05T01:38:51-06:00*
G04 #@! TF.ProjectId,util_LFO,7574696C5F4C464F2E6B696361645F70,rev?*
G04 #@! TF.SameCoordinates,Original*
G04 #@! TF.FileFunction,Legend,Top*
G04 #@! TF.FilePolarity,Positive*
%FSLAX46Y46*%
G04 Gerber Fmt 4.6, Leading zero omitted, Abs format (unit mm)*
G04 Created by KiCad (PCBNEW (5.0.1)-4) date 3/5/2019 1:38:51*
%MOMM*%
%LPD*%
G01*
G04 APERTURE LIST*
%ADD10C,0.150000*%
%ADD11C,0.120000*%
G04 APERTURE END LIST*
D10*
X90916666Y-76907952D02*
X90821428Y-76860333D01*
X90773809Y-76812714D01*
X90726190Y-76717476D01*
X90726190Y-76669857D01*
X90773809Y-76574619D01*
X90821428Y-76527000D01*
X90916666Y-76479380D01*
X91107142Y-76479380D01*
X91202380Y-76527000D01*
X91250000Y-76574619D01*
X91297619Y-76669857D01*
X91297619Y-76717476D01*
X91250000Y-76812714D01*
X91202380Y-76860333D01*
X91107142Y-76907952D01*
X90916666Y-76907952D01*
X90821428Y-76955571D01*
X90773809Y-77003190D01*
X90726190Y-77098428D01*
X90726190Y-77288904D01*
X90773809Y-77384142D01*
X90821428Y-77431761D01*
X90916666Y-77479380D01*
X91107142Y-77479380D01*
X91202380Y-77431761D01*
X91250000Y-77384142D01*
X91297619Y-77288904D01*
X91297619Y-77098428D01*
X91250000Y-77003190D01*
X91202380Y-76955571D01*
X91107142Y-76907952D01*
X91726190Y-77479380D02*
X91726190Y-76479380D01*
X92297619Y-77479380D02*
X91869047Y-76907952D01*
X92297619Y-76479380D02*
X91726190Y-77050809D01*
X93964285Y-77479380D02*
X93488095Y-77479380D01*
X93488095Y-76479380D01*
X94630952Y-76955571D02*
X94297619Y-76955571D01*
X94297619Y-77479380D02*
X94297619Y-76479380D01*
X94773809Y-76479380D01*
X95345238Y-76479380D02*
X95535714Y-76479380D01*
X95630952Y-76527000D01*
X95726190Y-76622238D01*
X95773809Y-76812714D01*
X95773809Y-77146047D01*
X95726190Y-77336523D01*
X95630952Y-77431761D01*
X95535714Y-77479380D01*
X95345238Y-77479380D01*
X95250000Y-77431761D01*
X95154761Y-77336523D01*
X95107142Y-77146047D01*
X95107142Y-76812714D01*
X95154761Y-76622238D01*
X95250000Y-76527000D01*
X95345238Y-76479380D01*
X96821428Y-76479380D02*
X97154761Y-77479380D01*
X97488095Y-76479380D01*
X97773809Y-76574619D02*
X97821428Y-76527000D01*
X97916666Y-76479380D01*
X98154761Y-76479380D01*
X98250000Y-76527000D01*
X98297619Y-76574619D01*
X98345238Y-76669857D01*
X98345238Y-76765095D01*
X98297619Y-76907952D01*
X97726190Y-77479380D01*
X98345238Y-77479380D01*
X98773809Y-77384142D02*
X98821428Y-77431761D01*
X98773809Y-77479380D01*
X98726190Y-77431761D01*
X98773809Y-77384142D01*
X98773809Y-77479380D01*
X99440476Y-76479380D02*
X99535714Y-76479380D01*
X99630952Y-76527000D01*
X99678571Y-76574619D01*
X99726190Y-76669857D01*
X99773809Y-76860333D01*
X99773809Y-77098428D01*
X99726190Y-77288904D01*
X99678571Y-77384142D01*
X99630952Y-77431761D01*
X99535714Y-77479380D01*
X99440476Y-77479380D01*
X99345238Y-77431761D01*
X99297619Y-77384142D01*
X99250000Y-77288904D01*
X99202380Y-77098428D01*
X99202380Y-76860333D01*
X99250000Y-76669857D01*
X99297619Y-76574619D01*
X99345238Y-76527000D01*
X99440476Y-76479380D01*
X92011904Y-79034142D02*
X91964285Y-79081761D01*
X91821428Y-79129380D01*
X91726190Y-79129380D01*
X91583333Y-79081761D01*
X91488095Y-78986523D01*
X91440476Y-78891285D01*
X91392857Y-78700809D01*
X91392857Y-78557952D01*
X91440476Y-78367476D01*
X91488095Y-78272238D01*
X91583333Y-78177000D01*
X91726190Y-78129380D01*
X91821428Y-78129380D01*
X91964285Y-78177000D01*
X92011904Y-78224619D01*
X92440476Y-79129380D02*
X92440476Y-78462714D01*
X92440476Y-78129380D02*
X92392857Y-78177000D01*
X92440476Y-78224619D01*
X92488095Y-78177000D01*
X92440476Y-78129380D01*
X92440476Y-78224619D01*
X92916666Y-79129380D02*
X92916666Y-78462714D01*
X92916666Y-78653190D02*
X92964285Y-78557952D01*
X93011904Y-78510333D01*
X93107142Y-78462714D01*
X93202380Y-78462714D01*
X93964285Y-79081761D02*
X93869047Y-79129380D01*
X93678571Y-79129380D01*
X93583333Y-79081761D01*
X93535714Y-79034142D01*
X93488095Y-78938904D01*
X93488095Y-78653190D01*
X93535714Y-78557952D01*
X93583333Y-78510333D01*
X93678571Y-78462714D01*
X93869047Y-78462714D01*
X93964285Y-78510333D01*
X94821428Y-78462714D02*
X94821428Y-79129380D01*
X94392857Y-78462714D02*
X94392857Y-78986523D01*
X94440476Y-79081761D01*
X94535714Y-79129380D01*
X94678571Y-79129380D01*
X94773809Y-79081761D01*
X94821428Y-79034142D01*
X95297619Y-79129380D02*
X95297619Y-78462714D01*
X95297619Y-78129380D02*
X95250000Y-78177000D01*
X95297619Y-78224619D01*
X95345238Y-78177000D01*
X95297619Y-78129380D01*
X95297619Y-78224619D01*
X95630952Y-78462714D02*
X96011904Y-78462714D01*
X95773809Y-78129380D02*
X95773809Y-78986523D01*
X95821428Y-79081761D01*
X95916666Y-79129380D01*
X96011904Y-79129380D01*
X97107142Y-79129380D02*
X97107142Y-78129380D01*
X97107142Y-78510333D02*
X97202380Y-78462714D01*
X97392857Y-78462714D01*
X97488095Y-78510333D01*
X97535714Y-78557952D01*
X97583333Y-78653190D01*
X97583333Y-78938904D01*
X97535714Y-79034142D01*
X97488095Y-79081761D01*
X97392857Y-79129380D01*
X97202380Y-79129380D01*
X97107142Y-79081761D01*
X97916666Y-78462714D02*
X98154761Y-79129380D01*
X98392857Y-78462714D02*
X98154761Y-79129380D01*
X98059523Y-79367476D01*
X98011904Y-79415095D01*
X97916666Y-79462714D01*
X90107142Y-79779380D02*
X90678571Y-79779380D01*
X90392857Y-80779380D02*
X90392857Y-79779380D01*
X91011904Y-80779380D02*
X91011904Y-80112714D01*
X91011904Y-79779380D02*
X90964285Y-79827000D01*
X91011904Y-79874619D01*
X91059523Y-79827000D01*
X91011904Y-79779380D01*
X91011904Y-79874619D01*
X91488095Y-80779380D02*
X91488095Y-80112714D01*
X91488095Y-80207952D02*
X91535714Y-80160333D01*
X91630952Y-80112714D01*
X91773809Y-80112714D01*
X91869047Y-80160333D01*
X91916666Y-80255571D01*
X91916666Y-80779380D01*
X91916666Y-80255571D02*
X91964285Y-80160333D01*
X92059523Y-80112714D01*
X92202380Y-80112714D01*
X92297619Y-80160333D01*
X92345238Y-80255571D01*
X92345238Y-80779380D01*
X93583333Y-80779380D02*
X93583333Y-79779380D01*
X93964285Y-79779380D01*
X94059523Y-79827000D01*
X94107142Y-79874619D01*
X94154761Y-79969857D01*
X94154761Y-80112714D01*
X94107142Y-80207952D01*
X94059523Y-80255571D01*
X93964285Y-80303190D01*
X93583333Y-80303190D01*
X95011904Y-80779380D02*
X95011904Y-80255571D01*
X94964285Y-80160333D01*
X94869047Y-80112714D01*
X94678571Y-80112714D01*
X94583333Y-80160333D01*
X95011904Y-80731761D02*
X94916666Y-80779380D01*
X94678571Y-80779380D01*
X94583333Y-80731761D01*
X94535714Y-80636523D01*
X94535714Y-80541285D01*
X94583333Y-80446047D01*
X94678571Y-80398428D01*
X94916666Y-80398428D01*
X95011904Y-80350809D01*
X95488095Y-80779380D02*
X95488095Y-80112714D01*
X95488095Y-80303190D02*
X95535714Y-80207952D01*
X95583333Y-80160333D01*
X95678571Y-80112714D01*
X95773809Y-80112714D01*
X96107142Y-80779380D02*
X96107142Y-79779380D01*
X96202380Y-80398428D02*
X96488095Y-80779380D01*
X96488095Y-80112714D02*
X96107142Y-80493666D01*
X96916666Y-80779380D02*
X96916666Y-79779380D01*
X97345238Y-80779380D02*
X97345238Y-80255571D01*
X97297619Y-80160333D01*
X97202380Y-80112714D01*
X97059523Y-80112714D01*
X96964285Y-80160333D01*
X96916666Y-80207952D01*
X98250000Y-80112714D02*
X98250000Y-80779380D01*
X97821428Y-80112714D02*
X97821428Y-80636523D01*
X97869047Y-80731761D01*
X97964285Y-80779380D01*
X98107142Y-80779380D01*
X98202380Y-80731761D01*
X98250000Y-80684142D01*
X98726190Y-80779380D02*
X98726190Y-80112714D01*
X98726190Y-80303190D02*
X98773809Y-80207952D01*
X98821428Y-80160333D01*
X98916666Y-80112714D01*
X99011904Y-80112714D01*
X99297619Y-80731761D02*
X99392857Y-80779380D01*
X99583333Y-80779380D01*
X99678571Y-80731761D01*
X99726190Y-80636523D01*
X99726190Y-80588904D01*
X99678571Y-80493666D01*
X99583333Y-80446047D01*
X99440476Y-80446047D01*
X99345238Y-80398428D01*
X99297619Y-80303190D01*
X99297619Y-80255571D01*
X99345238Y-80160333D01*
X99440476Y-80112714D01*
X99583333Y-80112714D01*
X99678571Y-80160333D01*
X100011904Y-80112714D02*
X100392857Y-80112714D01*
X100154761Y-79779380D02*
X100154761Y-80636523D01*
X100202380Y-80731761D01*
X100297619Y-80779380D01*
X100392857Y-80779380D01*
X87059523Y-82429380D02*
X87059523Y-81762714D01*
X87059523Y-81857952D02*
X87107142Y-81810333D01*
X87202380Y-81762714D01*
X87345238Y-81762714D01*
X87440476Y-81810333D01*
X87488095Y-81905571D01*
X87488095Y-82429380D01*
X87488095Y-81905571D02*
X87535714Y-81810333D01*
X87630952Y-81762714D01*
X87773809Y-81762714D01*
X87869047Y-81810333D01*
X87916666Y-81905571D01*
X87916666Y-82429380D01*
X88821428Y-82429380D02*
X88821428Y-81905571D01*
X88773809Y-81810333D01*
X88678571Y-81762714D01*
X88488095Y-81762714D01*
X88392857Y-81810333D01*
X88821428Y-82381761D02*
X88726190Y-82429380D01*
X88488095Y-82429380D01*
X88392857Y-82381761D01*
X88345238Y-82286523D01*
X88345238Y-82191285D01*
X88392857Y-82096047D01*
X88488095Y-82048428D01*
X88726190Y-82048428D01*
X88821428Y-82000809D01*
X89726190Y-81762714D02*
X89726190Y-82572238D01*
X89678571Y-82667476D01*
X89630952Y-82715095D01*
X89535714Y-82762714D01*
X89392857Y-82762714D01*
X89297619Y-82715095D01*
X89726190Y-82381761D02*
X89630952Y-82429380D01*
X89440476Y-82429380D01*
X89345238Y-82381761D01*
X89297619Y-82334142D01*
X89250000Y-82238904D01*
X89250000Y-81953190D01*
X89297619Y-81857952D01*
X89345238Y-81810333D01*
X89440476Y-81762714D01*
X89630952Y-81762714D01*
X89726190Y-81810333D01*
X90154761Y-82381761D02*
X90250000Y-82429380D01*
X90440476Y-82429380D01*
X90535714Y-82381761D01*
X90583333Y-82286523D01*
X90583333Y-82238904D01*
X90535714Y-82143666D01*
X90440476Y-82096047D01*
X90297619Y-82096047D01*
X90202380Y-82048428D01*
X90154761Y-81953190D01*
X90154761Y-81905571D01*
X90202380Y-81810333D01*
X90297619Y-81762714D01*
X90440476Y-81762714D01*
X90535714Y-81810333D01*
X91011904Y-82429380D02*
X91011904Y-81762714D01*
X91011904Y-81857952D02*
X91059523Y-81810333D01*
X91154761Y-81762714D01*
X91297619Y-81762714D01*
X91392857Y-81810333D01*
X91440476Y-81905571D01*
X91440476Y-82429380D01*
X91440476Y-81905571D02*
X91488095Y-81810333D01*
X91583333Y-81762714D01*
X91726190Y-81762714D01*
X91821428Y-81810333D01*
X91869047Y-81905571D01*
X91869047Y-82429380D01*
X92488095Y-82429380D02*
X92392857Y-82381761D01*
X92345238Y-82334142D01*
X92297619Y-82238904D01*
X92297619Y-81953190D01*
X92345238Y-81857952D01*
X92392857Y-81810333D01*
X92488095Y-81762714D01*
X92630952Y-81762714D01*
X92726190Y-81810333D01*
X92773809Y-81857952D01*
X92821428Y-81953190D01*
X92821428Y-82238904D01*
X92773809Y-82334142D01*
X92726190Y-82381761D01*
X92630952Y-82429380D01*
X92488095Y-82429380D01*
X93250000Y-82429380D02*
X93250000Y-81429380D01*
X93345238Y-82048428D02*
X93630952Y-82429380D01*
X93630952Y-81762714D02*
X93250000Y-82143666D01*
X94440476Y-82381761D02*
X94345238Y-82429380D01*
X94154761Y-82429380D01*
X94059523Y-82381761D01*
X94011904Y-82286523D01*
X94011904Y-81905571D01*
X94059523Y-81810333D01*
X94154761Y-81762714D01*
X94345238Y-81762714D01*
X94440476Y-81810333D01*
X94488095Y-81905571D01*
X94488095Y-82000809D01*
X94011904Y-82096047D01*
X95535714Y-81953190D02*
X95488095Y-81905571D01*
X95392857Y-81857952D01*
X95297619Y-81857952D01*
X95202380Y-81905571D01*
X95154761Y-81953190D01*
X95107142Y-82048428D01*
X95107142Y-82143666D01*
X95154761Y-82238904D01*
X95202380Y-82286523D01*
X95297619Y-82334142D01*
X95392857Y-82334142D01*
X95488095Y-82286523D01*
X95535714Y-82238904D01*
X95535714Y-81857952D02*
X95535714Y-82238904D01*
X95583333Y-82286523D01*
X95630952Y-82286523D01*
X95726190Y-82238904D01*
X95773809Y-82143666D01*
X95773809Y-81905571D01*
X95678571Y-81762714D01*
X95535714Y-81667476D01*
X95345238Y-81619857D01*
X95154761Y-81667476D01*
X95011904Y-81762714D01*
X94916666Y-81905571D01*
X94869047Y-82096047D01*
X94916666Y-82286523D01*
X95011904Y-82429380D01*
X95154761Y-82524619D01*
X95345238Y-82572238D01*
X95535714Y-82524619D01*
X95678571Y-82429380D01*
X96630952Y-81762714D02*
X96630952Y-82572238D01*
X96583333Y-82667476D01*
X96535714Y-82715095D01*
X96440476Y-82762714D01*
X96297619Y-82762714D01*
X96202380Y-82715095D01*
X96630952Y-82381761D02*
X96535714Y-82429380D01*
X96345238Y-82429380D01*
X96250000Y-82381761D01*
X96202380Y-82334142D01*
X96154761Y-82238904D01*
X96154761Y-81953190D01*
X96202380Y-81857952D01*
X96250000Y-81810333D01*
X96345238Y-81762714D01*
X96535714Y-81762714D01*
X96630952Y-81810333D01*
X97107142Y-82429380D02*
X97107142Y-81762714D01*
X97107142Y-81857952D02*
X97154761Y-81810333D01*
X97250000Y-81762714D01*
X97392857Y-81762714D01*
X97488095Y-81810333D01*
X97535714Y-81905571D01*
X97535714Y-82429380D01*
X97535714Y-81905571D02*
X97583333Y-81810333D01*
X97678571Y-81762714D01*
X97821428Y-81762714D01*
X97916666Y-81810333D01*
X97964285Y-81905571D01*
X97964285Y-82429380D01*
X98869047Y-82429380D02*
X98869047Y-81905571D01*
X98821428Y-81810333D01*
X98726190Y-81762714D01*
X98535714Y-81762714D01*
X98440476Y-81810333D01*
X98869047Y-82381761D02*
X98773809Y-82429380D01*
X98535714Y-82429380D01*
X98440476Y-82381761D01*
X98392857Y-82286523D01*
X98392857Y-82191285D01*
X98440476Y-82096047D01*
X98535714Y-82048428D01*
X98773809Y-82048428D01*
X98869047Y-82000809D01*
X99345238Y-82429380D02*
X99345238Y-81762714D01*
X99345238Y-81429380D02*
X99297619Y-81477000D01*
X99345238Y-81524619D01*
X99392857Y-81477000D01*
X99345238Y-81429380D01*
X99345238Y-81524619D01*
X99964285Y-82429380D02*
X99869047Y-82381761D01*
X99821428Y-82286523D01*
X99821428Y-81429380D01*
X100345238Y-82334142D02*
X100392857Y-82381761D01*
X100345238Y-82429380D01*
X100297619Y-82381761D01*
X100345238Y-82334142D01*
X100345238Y-82429380D01*
X101250000Y-82381761D02*
X101154761Y-82429380D01*
X100964285Y-82429380D01*
X100869047Y-82381761D01*
X100821428Y-82334142D01*
X100773809Y-82238904D01*
X100773809Y-81953190D01*
X100821428Y-81857952D01*
X100869047Y-81810333D01*
X100964285Y-81762714D01*
X101154761Y-81762714D01*
X101250000Y-81810333D01*
X101821428Y-82429380D02*
X101726190Y-82381761D01*
X101678571Y-82334142D01*
X101630952Y-82238904D01*
X101630952Y-81953190D01*
X101678571Y-81857952D01*
X101726190Y-81810333D01*
X101821428Y-81762714D01*
X101964285Y-81762714D01*
X102059523Y-81810333D01*
X102107142Y-81857952D01*
X102154761Y-81953190D01*
X102154761Y-82238904D01*
X102107142Y-82334142D01*
X102059523Y-82381761D01*
X101964285Y-82429380D01*
X101821428Y-82429380D01*
X102583333Y-82429380D02*
X102583333Y-81762714D01*
X102583333Y-81857952D02*
X102630952Y-81810333D01*
X102726190Y-81762714D01*
X102869047Y-81762714D01*
X102964285Y-81810333D01*
X103011904Y-81905571D01*
X103011904Y-82429380D01*
X103011904Y-81905571D02*
X103059523Y-81810333D01*
X103154761Y-81762714D01*
X103297619Y-81762714D01*
X103392857Y-81810333D01*
X103440476Y-81905571D01*
X103440476Y-82429380D01*
X101036571Y-66222571D02*
X100703238Y-66222571D01*
X100703238Y-66746380D02*
X100703238Y-65746380D01*
X101179428Y-65746380D01*
X101560380Y-66746380D02*
X101560380Y-65746380D01*
X102036571Y-66746380D02*
X102036571Y-65746380D01*
X102608000Y-66746380D01*
X102608000Y-65746380D01*
X103084190Y-66222571D02*
X103417523Y-66222571D01*
X103560380Y-66746380D02*
X103084190Y-66746380D01*
X103084190Y-65746380D01*
X103560380Y-65746380D01*
X86828571Y-66651142D02*
X86780952Y-66698761D01*
X86638095Y-66746380D01*
X86542857Y-66746380D01*
X86400000Y-66698761D01*
X86304761Y-66603523D01*
X86257142Y-66508285D01*
X86209523Y-66317809D01*
X86209523Y-66174952D01*
X86257142Y-65984476D01*
X86304761Y-65889238D01*
X86400000Y-65794000D01*
X86542857Y-65746380D01*
X86638095Y-65746380D01*
X86780952Y-65794000D01*
X86828571Y-65841619D01*
X87447619Y-65746380D02*
X87638095Y-65746380D01*
X87733333Y-65794000D01*
X87828571Y-65889238D01*
X87876190Y-66079714D01*
X87876190Y-66413047D01*
X87828571Y-66603523D01*
X87733333Y-66698761D01*
X87638095Y-66746380D01*
X87447619Y-66746380D01*
X87352380Y-66698761D01*
X87257142Y-66603523D01*
X87209523Y-66413047D01*
X87209523Y-66079714D01*
X87257142Y-65889238D01*
X87352380Y-65794000D01*
X87447619Y-65746380D01*
X88257142Y-66460666D02*
X88733333Y-66460666D01*
X88161904Y-66746380D02*
X88495238Y-65746380D01*
X88828571Y-66746380D01*
X89733333Y-66746380D02*
X89400000Y-66270190D01*
X89161904Y-66746380D02*
X89161904Y-65746380D01*
X89542857Y-65746380D01*
X89638095Y-65794000D01*
X89685714Y-65841619D01*
X89733333Y-65936857D01*
X89733333Y-66079714D01*
X89685714Y-66174952D01*
X89638095Y-66222571D01*
X89542857Y-66270190D01*
X89161904Y-66270190D01*
X90114285Y-66698761D02*
X90257142Y-66746380D01*
X90495238Y-66746380D01*
X90590476Y-66698761D01*
X90638095Y-66651142D01*
X90685714Y-66555904D01*
X90685714Y-66460666D01*
X90638095Y-66365428D01*
X90590476Y-66317809D01*
X90495238Y-66270190D01*
X90304761Y-66222571D01*
X90209523Y-66174952D01*
X90161904Y-66127333D01*
X90114285Y-66032095D01*
X90114285Y-65936857D01*
X90161904Y-65841619D01*
X90209523Y-65794000D01*
X90304761Y-65746380D01*
X90542857Y-65746380D01*
X90685714Y-65794000D01*
X91114285Y-66222571D02*
X91447619Y-66222571D01*
X91590476Y-66746380D02*
X91114285Y-66746380D01*
X91114285Y-65746380D01*
X91590476Y-65746380D01*
G04 #@! TO.C,RV11*
X88940000Y-64255000D02*
X89940000Y-64255000D01*
X88940000Y-64255000D02*
X88940000Y-65255000D01*
X88940000Y-64255000D02*
X87940000Y-64255000D01*
X88940000Y-64255000D02*
X88940000Y-63255000D01*
D11*
X84040000Y-59255000D02*
X93840000Y-59255000D01*
X92290000Y-70905000D02*
X93840000Y-70905000D01*
X89781000Y-70905000D02*
X90540000Y-70905000D01*
X87290000Y-70905000D02*
X88049000Y-70905000D01*
X84040000Y-70905000D02*
X85540000Y-70905000D01*
X84040000Y-62855000D02*
X84040000Y-59255000D01*
X84040000Y-70905000D02*
X84040000Y-65755000D01*
X93840000Y-70905000D02*
X93840000Y-65755000D01*
X93840000Y-62855000D02*
X93840000Y-59255000D01*
G04 #@! TO.C,C4*
X88112000Y-89180000D02*
X86912000Y-89180000D01*
X83592000Y-89180000D02*
X84792000Y-89180000D01*
X83592000Y-92635563D02*
X83592000Y-89180000D01*
X88112000Y-92635563D02*
X88112000Y-89180000D01*
X87047563Y-93700000D02*
X86912000Y-93700000D01*
X84656437Y-93700000D02*
X84792000Y-93700000D01*
X84656437Y-93700000D02*
X83592000Y-92635563D01*
X87047563Y-93700000D02*
X88112000Y-92635563D01*
X84292000Y-94440000D02*
X84292000Y-93940000D01*
X84042000Y-94190000D02*
X84542000Y-94190000D01*
G04 #@! TO.C,C5*
X106204000Y-88690000D02*
X105704000Y-88690000D01*
X105954000Y-88440000D02*
X105954000Y-88940000D01*
X103198437Y-89180000D02*
X102134000Y-90244437D01*
X105589563Y-89180000D02*
X106654000Y-90244437D01*
X105589563Y-89180000D02*
X105454000Y-89180000D01*
X103198437Y-89180000D02*
X103334000Y-89180000D01*
X102134000Y-90244437D02*
X102134000Y-93700000D01*
X106654000Y-90244437D02*
X106654000Y-93700000D01*
X106654000Y-93700000D02*
X105454000Y-93700000D01*
X102134000Y-93700000D02*
X103334000Y-93700000D01*
G04 #@! TO.C,J1*
X97100000Y-76656000D02*
X97100000Y-87156000D01*
X106100000Y-76656000D02*
X106100000Y-87156000D01*
X100303737Y-78567423D02*
G75*
G03X101600000Y-84051000I1296263J-2588577D01*
G01*
X102896263Y-78567423D02*
G75*
G02X101600000Y-84051000I-1296263J-2588577D01*
G01*
X106100000Y-87156000D02*
X102600000Y-87156000D01*
X100600000Y-87156000D02*
X97100000Y-87156000D01*
X106100000Y-76656000D02*
X102500000Y-76656000D01*
X100700000Y-76656000D02*
X97100000Y-76656000D01*
X103400000Y-81156000D02*
G75*
G03X103400000Y-81156000I-1800000J0D01*
G01*
X101180000Y-75876000D02*
X101180000Y-76476000D01*
X102020000Y-75876000D02*
X102020000Y-76476000D01*
X100200000Y-73496000D02*
X100200000Y-74596000D01*
X100200000Y-73496000D02*
X101520000Y-73496000D01*
G04 #@! TO.C,J2*
X87500000Y-73496000D02*
X88820000Y-73496000D01*
X87500000Y-73496000D02*
X87500000Y-74596000D01*
X89320000Y-75876000D02*
X89320000Y-76476000D01*
X88480000Y-75876000D02*
X88480000Y-76476000D01*
X90700000Y-81156000D02*
G75*
G03X90700000Y-81156000I-1800000J0D01*
G01*
X88000000Y-76656000D02*
X84400000Y-76656000D01*
X93400000Y-76656000D02*
X89800000Y-76656000D01*
X87900000Y-87156000D02*
X84400000Y-87156000D01*
X93400000Y-87156000D02*
X89900000Y-87156000D01*
X90196263Y-78567423D02*
G75*
G02X88900000Y-84051000I-1296263J-2588577D01*
G01*
X87603737Y-78567423D02*
G75*
G03X88900000Y-84051000I1296263J-2588577D01*
G01*
X93400000Y-76656000D02*
X93400000Y-87156000D01*
X84400000Y-76656000D02*
X84400000Y-87156000D01*
G04 #@! TO.C,RV10*
X107048000Y-62855000D02*
X107048000Y-59255000D01*
X107048000Y-70905000D02*
X107048000Y-65755000D01*
X97248000Y-70905000D02*
X97248000Y-65755000D01*
X97248000Y-62855000D02*
X97248000Y-59255000D01*
X97248000Y-70905000D02*
X98748000Y-70905000D01*
X100498000Y-70905000D02*
X101257000Y-70905000D01*
X102989000Y-70905000D02*
X103748000Y-70905000D01*
X105498000Y-70905000D02*
X107048000Y-70905000D01*
X97248000Y-59255000D02*
X107048000Y-59255000D01*
D10*
X102148000Y-64255000D02*
X102148000Y-63255000D01*
X102148000Y-64255000D02*
X101148000Y-64255000D01*
X102148000Y-64255000D02*
X102148000Y-65255000D01*
X102148000Y-64255000D02*
X103148000Y-64255000D01*
G04 #@! TO.C,RV11*
X87879371Y-70048380D02*
X87546038Y-69572190D01*
X87307942Y-70048380D02*
X87307942Y-69048380D01*
X87688895Y-69048380D01*
X87784133Y-69096000D01*
X87831752Y-69143619D01*
X87879371Y-69238857D01*
X87879371Y-69381714D01*
X87831752Y-69476952D01*
X87784133Y-69524571D01*
X87688895Y-69572190D01*
X87307942Y-69572190D01*
X88165085Y-69048380D02*
X88498419Y-70048380D01*
X88831752Y-69048380D01*
X89688895Y-70048380D02*
X89117466Y-70048380D01*
X89403180Y-70048380D02*
X89403180Y-69048380D01*
X89307942Y-69191238D01*
X89212704Y-69286476D01*
X89117466Y-69334095D01*
X90641276Y-70048380D02*
X90069847Y-70048380D01*
X90355561Y-70048380D02*
X90355561Y-69048380D01*
X90260323Y-69191238D01*
X90165085Y-69286476D01*
X90069847Y-69334095D01*
G04 #@! TO.C,C4*
X83399333Y-88749142D02*
X83351714Y-88796761D01*
X83208857Y-88844380D01*
X83113619Y-88844380D01*
X82970761Y-88796761D01*
X82875523Y-88701523D01*
X82827904Y-88606285D01*
X82780285Y-88415809D01*
X82780285Y-88272952D01*
X82827904Y-88082476D01*
X82875523Y-87987238D01*
X82970761Y-87892000D01*
X83113619Y-87844380D01*
X83208857Y-87844380D01*
X83351714Y-87892000D01*
X83399333Y-87939619D01*
X84256476Y-88177714D02*
X84256476Y-88844380D01*
X84018380Y-87796761D02*
X83780285Y-88511047D01*
X84399333Y-88511047D01*
G04 #@! TO.C,C5*
X107021333Y-89257142D02*
X106973714Y-89304761D01*
X106830857Y-89352380D01*
X106735619Y-89352380D01*
X106592761Y-89304761D01*
X106497523Y-89209523D01*
X106449904Y-89114285D01*
X106402285Y-88923809D01*
X106402285Y-88780952D01*
X106449904Y-88590476D01*
X106497523Y-88495238D01*
X106592761Y-88400000D01*
X106735619Y-88352380D01*
X106830857Y-88352380D01*
X106973714Y-88400000D01*
X107021333Y-88447619D01*
X107926095Y-88352380D02*
X107449904Y-88352380D01*
X107402285Y-88828571D01*
X107449904Y-88780952D01*
X107545142Y-88733333D01*
X107783238Y-88733333D01*
X107878476Y-88780952D01*
X107926095Y-88828571D01*
X107973714Y-88923809D01*
X107973714Y-89161904D01*
X107926095Y-89257142D01*
X107878476Y-89304761D01*
X107783238Y-89352380D01*
X107545142Y-89352380D01*
X107449904Y-89304761D01*
X107402285Y-89257142D01*
G04 #@! TO.C,J1*
X104822666Y-75208380D02*
X104822666Y-75922666D01*
X104775047Y-76065523D01*
X104679809Y-76160761D01*
X104536952Y-76208380D01*
X104441714Y-76208380D01*
X105822666Y-76208380D02*
X105251238Y-76208380D01*
X105536952Y-76208380D02*
X105536952Y-75208380D01*
X105441714Y-75351238D01*
X105346476Y-75446476D01*
X105251238Y-75494095D01*
G04 #@! TO.C,J2*
X84536666Y-75208380D02*
X84536666Y-75922666D01*
X84489047Y-76065523D01*
X84393809Y-76160761D01*
X84250952Y-76208380D01*
X84155714Y-76208380D01*
X84965238Y-75303619D02*
X85012857Y-75256000D01*
X85108095Y-75208380D01*
X85346190Y-75208380D01*
X85441428Y-75256000D01*
X85489047Y-75303619D01*
X85536666Y-75398857D01*
X85536666Y-75494095D01*
X85489047Y-75636952D01*
X84917619Y-76208380D01*
X85536666Y-76208380D01*
G04 #@! TO.C,RV10*
X101087371Y-70099180D02*
X100754038Y-69622990D01*
X100515942Y-70099180D02*
X100515942Y-69099180D01*
X100896895Y-69099180D01*
X100992133Y-69146800D01*
X101039752Y-69194419D01*
X101087371Y-69289657D01*
X101087371Y-69432514D01*
X101039752Y-69527752D01*
X100992133Y-69575371D01*
X100896895Y-69622990D01*
X100515942Y-69622990D01*
X101373085Y-69099180D02*
X101706419Y-70099180D01*
X102039752Y-69099180D01*
X102896895Y-70099180D02*
X102325466Y-70099180D01*
X102611180Y-70099180D02*
X102611180Y-69099180D01*
X102515942Y-69242038D01*
X102420704Y-69337276D01*
X102325466Y-69384895D01*
X103515942Y-69099180D02*
X103611180Y-69099180D01*
X103706419Y-69146800D01*
X103754038Y-69194419D01*
X103801657Y-69289657D01*
X103849276Y-69480133D01*
X103849276Y-69718228D01*
X103801657Y-69908704D01*
X103754038Y-70003942D01*
X103706419Y-70051561D01*
X103611180Y-70099180D01*
X103515942Y-70099180D01*
X103420704Y-70051561D01*
X103373085Y-70003942D01*
X103325466Y-69908704D01*
X103277847Y-69718228D01*
X103277847Y-69480133D01*
X103325466Y-69289657D01*
X103373085Y-69194419D01*
X103420704Y-69146800D01*
X103515942Y-69099180D01*
G04 #@! TD*
M02*
