G04 #@! TF.GenerationSoftware,KiCad,Pcbnew,(5.0.1)-4*
G04 #@! TF.CreationDate,2019-03-05T01:38:52-06:00*
G04 #@! TF.ProjectId,util_LFO,7574696C5F4C464F2E6B696361645F70,rev?*
G04 #@! TF.SameCoordinates,Original*
G04 #@! TF.FileFunction,Other,Comment*
%FSLAX46Y46*%
G04 Gerber Fmt 4.6, Leading zero omitted, Abs format (unit mm)*
G04 Created by KiCad (PCBNEW (5.0.1)-4) date 3/5/2019 1:38:52*
%MOMM*%
%LPD*%
G01*
G04 APERTURE LIST*
%ADD10C,0.051000*%
G04 APERTURE END LIST*
G04 #@! TO.C,J1*
D10*
X100361904Y-81336952D02*
X100361904Y-80936952D01*
X100590476Y-81336952D02*
X100419047Y-81108380D01*
X100590476Y-80936952D02*
X100361904Y-81165523D01*
X100761904Y-81127428D02*
X100895238Y-81127428D01*
X100952380Y-81336952D02*
X100761904Y-81336952D01*
X100761904Y-80936952D01*
X100952380Y-80936952D01*
X101123809Y-81127428D02*
X101257142Y-81127428D01*
X101314285Y-81336952D02*
X101123809Y-81336952D01*
X101123809Y-80936952D01*
X101314285Y-80936952D01*
X101485714Y-81336952D02*
X101485714Y-80936952D01*
X101638095Y-80936952D01*
X101676190Y-80956000D01*
X101695238Y-80975047D01*
X101714285Y-81013142D01*
X101714285Y-81070285D01*
X101695238Y-81108380D01*
X101676190Y-81127428D01*
X101638095Y-81146476D01*
X101485714Y-81146476D01*
X101961904Y-80936952D02*
X102038095Y-80936952D01*
X102076190Y-80956000D01*
X102114285Y-80994095D01*
X102133333Y-81070285D01*
X102133333Y-81203619D01*
X102114285Y-81279809D01*
X102076190Y-81317904D01*
X102038095Y-81336952D01*
X101961904Y-81336952D01*
X101923809Y-81317904D01*
X101885714Y-81279809D01*
X101866666Y-81203619D01*
X101866666Y-81070285D01*
X101885714Y-80994095D01*
X101923809Y-80956000D01*
X101961904Y-80936952D01*
X102304761Y-80936952D02*
X102304761Y-81260761D01*
X102323809Y-81298857D01*
X102342857Y-81317904D01*
X102380952Y-81336952D01*
X102457142Y-81336952D01*
X102495238Y-81317904D01*
X102514285Y-81298857D01*
X102533333Y-81260761D01*
X102533333Y-80936952D01*
X102666666Y-80936952D02*
X102895238Y-80936952D01*
X102780952Y-81336952D02*
X102780952Y-80936952D01*
G04 #@! TO.C,J2*
X87661904Y-81336952D02*
X87661904Y-80936952D01*
X87890476Y-81336952D02*
X87719047Y-81108380D01*
X87890476Y-80936952D02*
X87661904Y-81165523D01*
X88061904Y-81127428D02*
X88195238Y-81127428D01*
X88252380Y-81336952D02*
X88061904Y-81336952D01*
X88061904Y-80936952D01*
X88252380Y-80936952D01*
X88423809Y-81127428D02*
X88557142Y-81127428D01*
X88614285Y-81336952D02*
X88423809Y-81336952D01*
X88423809Y-80936952D01*
X88614285Y-80936952D01*
X88785714Y-81336952D02*
X88785714Y-80936952D01*
X88938095Y-80936952D01*
X88976190Y-80956000D01*
X88995238Y-80975047D01*
X89014285Y-81013142D01*
X89014285Y-81070285D01*
X88995238Y-81108380D01*
X88976190Y-81127428D01*
X88938095Y-81146476D01*
X88785714Y-81146476D01*
X89261904Y-80936952D02*
X89338095Y-80936952D01*
X89376190Y-80956000D01*
X89414285Y-80994095D01*
X89433333Y-81070285D01*
X89433333Y-81203619D01*
X89414285Y-81279809D01*
X89376190Y-81317904D01*
X89338095Y-81336952D01*
X89261904Y-81336952D01*
X89223809Y-81317904D01*
X89185714Y-81279809D01*
X89166666Y-81203619D01*
X89166666Y-81070285D01*
X89185714Y-80994095D01*
X89223809Y-80956000D01*
X89261904Y-80936952D01*
X89604761Y-80936952D02*
X89604761Y-81260761D01*
X89623809Y-81298857D01*
X89642857Y-81317904D01*
X89680952Y-81336952D01*
X89757142Y-81336952D01*
X89795238Y-81317904D01*
X89814285Y-81298857D01*
X89833333Y-81260761D01*
X89833333Y-80936952D01*
X89966666Y-80936952D02*
X90195238Y-80936952D01*
X90080952Y-81336952D02*
X90080952Y-80936952D01*
G04 #@! TD*
M02*
