G04 #@! TF.GenerationSoftware,KiCad,Pcbnew,(5.0.1)-4*
G04 #@! TF.CreationDate,2019-03-05T01:38:52-06:00*
G04 #@! TF.ProjectId,util_LFO,7574696C5F4C464F2E6B696361645F70,rev?*
G04 #@! TF.SameCoordinates,Original*
G04 #@! TF.FileFunction,Other,Fab,Top*
%FSLAX46Y46*%
G04 Gerber Fmt 4.6, Leading zero omitted, Abs format (unit mm)*
G04 Created by KiCad (PCBNEW (5.0.1)-4) date 3/5/2019 1:38:52*
%MOMM*%
%LPD*%
G01*
G04 APERTURE LIST*
%ADD10C,0.100000*%
%ADD11C,0.150000*%
%ADD12C,0.120000*%
G04 APERTURE END LIST*
D10*
G04 #@! TO.C,RV11*
X84190000Y-59405000D02*
X84190000Y-70755000D01*
X93690000Y-59405000D02*
X84190000Y-59405000D01*
X93690000Y-70755000D02*
X93690000Y-59405000D01*
X84190000Y-70755000D02*
X93690000Y-70755000D01*
X92440000Y-64255000D02*
G75*
G03X92440000Y-64255000I-3500000J0D01*
G01*
G04 #@! TO.C,C4*
X87852000Y-91440000D02*
G75*
G03X87852000Y-91440000I-2000000J0D01*
G01*
X83702000Y-89290000D02*
X88002000Y-89290000D01*
X83702000Y-92590000D02*
X83702000Y-89290000D01*
X88002000Y-92590000D02*
X88002000Y-89290000D01*
X84702000Y-93590000D02*
X87002000Y-93590000D01*
X84702000Y-93590000D02*
X83702000Y-92590000D01*
X87002000Y-93590000D02*
X88002000Y-92590000D01*
X84852000Y-93014773D02*
X84852000Y-92614773D01*
X84652000Y-92814773D02*
X85052000Y-92814773D01*
G04 #@! TO.C,C5*
X105594000Y-90065227D02*
X105194000Y-90065227D01*
X105394000Y-89865227D02*
X105394000Y-90265227D01*
X103244000Y-89290000D02*
X102244000Y-90290000D01*
X105544000Y-89290000D02*
X106544000Y-90290000D01*
X105544000Y-89290000D02*
X103244000Y-89290000D01*
X102244000Y-90290000D02*
X102244000Y-93590000D01*
X106544000Y-90290000D02*
X106544000Y-93590000D01*
X106544000Y-93590000D02*
X102244000Y-93590000D01*
X106394000Y-91440000D02*
G75*
G03X106394000Y-91440000I-2000000J0D01*
G01*
G04 #@! TO.C,J1*
X97100000Y-87156000D02*
X97100000Y-76756000D01*
X106100000Y-87156000D02*
X106100000Y-76756000D01*
X106100000Y-87156000D02*
X97100000Y-87156000D01*
X106100000Y-76706000D02*
X97100000Y-76706000D01*
X103400000Y-81156000D02*
G75*
G03X103400000Y-81156000I-1800000J0D01*
G01*
X101600000Y-74676000D02*
X101600000Y-76706000D01*
G04 #@! TO.C,J2*
X88900000Y-74676000D02*
X88900000Y-76706000D01*
X90700000Y-81156000D02*
G75*
G03X90700000Y-81156000I-1800000J0D01*
G01*
X93400000Y-76706000D02*
X84400000Y-76706000D01*
X93400000Y-87156000D02*
X84400000Y-87156000D01*
X93400000Y-87156000D02*
X93400000Y-76756000D01*
X84400000Y-87156000D02*
X84400000Y-76756000D01*
G04 #@! TO.C,RV10*
X105648000Y-64255000D02*
G75*
G03X105648000Y-64255000I-3500000J0D01*
G01*
X97398000Y-70755000D02*
X106898000Y-70755000D01*
X106898000Y-70755000D02*
X106898000Y-59405000D01*
X106898000Y-59405000D02*
X97398000Y-59405000D01*
X97398000Y-59405000D02*
X97398000Y-70755000D01*
G04 #@! TD*
G04 #@! TO.C,RV11*
D11*
X96756666Y-66990714D02*
X96756666Y-66514523D01*
X97042380Y-67085952D02*
X96042380Y-66752619D01*
X97042380Y-66419285D01*
X97042380Y-65562142D02*
X97042380Y-66133571D01*
X97042380Y-65847857D02*
X96042380Y-65847857D01*
X96185238Y-65943095D01*
X96280476Y-66038333D01*
X96328095Y-66133571D01*
X97042380Y-65133571D02*
X96042380Y-65133571D01*
X96756666Y-64800238D01*
X96042380Y-64466904D01*
X97042380Y-64466904D01*
X87868571Y-70207380D02*
X87535238Y-69731190D01*
X87297142Y-70207380D02*
X87297142Y-69207380D01*
X87678095Y-69207380D01*
X87773333Y-69255000D01*
X87820952Y-69302619D01*
X87868571Y-69397857D01*
X87868571Y-69540714D01*
X87820952Y-69635952D01*
X87773333Y-69683571D01*
X87678095Y-69731190D01*
X87297142Y-69731190D01*
X88154285Y-69207380D02*
X88487619Y-70207380D01*
X88820952Y-69207380D01*
X89678095Y-70207380D02*
X89106666Y-70207380D01*
X89392380Y-70207380D02*
X89392380Y-69207380D01*
X89297142Y-69350238D01*
X89201904Y-69445476D01*
X89106666Y-69493095D01*
X90630476Y-70207380D02*
X90059047Y-70207380D01*
X90344761Y-70207380D02*
X90344761Y-69207380D01*
X90249523Y-69350238D01*
X90154285Y-69445476D01*
X90059047Y-69493095D01*
G04 #@! TO.C,C4*
X89504380Y-92511428D02*
X89504380Y-93082857D01*
X89504380Y-92797142D02*
X88504380Y-92797142D01*
X88647238Y-92892380D01*
X88742476Y-92987619D01*
X88790095Y-93082857D01*
X88504380Y-91892380D02*
X88504380Y-91797142D01*
X88552000Y-91701904D01*
X88599619Y-91654285D01*
X88694857Y-91606666D01*
X88885333Y-91559047D01*
X89123428Y-91559047D01*
X89313904Y-91606666D01*
X89409142Y-91654285D01*
X89456761Y-91701904D01*
X89504380Y-91797142D01*
X89504380Y-91892380D01*
X89456761Y-91987619D01*
X89409142Y-92035238D01*
X89313904Y-92082857D01*
X89123428Y-92130476D01*
X88885333Y-92130476D01*
X88694857Y-92082857D01*
X88599619Y-92035238D01*
X88552000Y-91987619D01*
X88504380Y-91892380D01*
X88837714Y-90701904D02*
X89504380Y-90701904D01*
X88837714Y-91130476D02*
X89361523Y-91130476D01*
X89456761Y-91082857D01*
X89504380Y-90987619D01*
X89504380Y-90844761D01*
X89456761Y-90749523D01*
X89409142Y-90701904D01*
X88980571Y-89892380D02*
X88980571Y-90225714D01*
X89504380Y-90225714D02*
X88504380Y-90225714D01*
X88504380Y-89749523D01*
D12*
X86137714Y-91573333D02*
X86175809Y-91611428D01*
X86213904Y-91725714D01*
X86213904Y-91801904D01*
X86175809Y-91916190D01*
X86099619Y-91992380D01*
X86023428Y-92030476D01*
X85871047Y-92068571D01*
X85756761Y-92068571D01*
X85604380Y-92030476D01*
X85528190Y-91992380D01*
X85452000Y-91916190D01*
X85413904Y-91801904D01*
X85413904Y-91725714D01*
X85452000Y-91611428D01*
X85490095Y-91573333D01*
X85680571Y-90887619D02*
X86213904Y-90887619D01*
X85375809Y-91078095D02*
X85947238Y-91268571D01*
X85947238Y-90773333D01*
G04 #@! TO.C,C5*
D11*
X101646380Y-92511428D02*
X101646380Y-93082857D01*
X101646380Y-92797142D02*
X100646380Y-92797142D01*
X100789238Y-92892380D01*
X100884476Y-92987619D01*
X100932095Y-93082857D01*
X100646380Y-91892380D02*
X100646380Y-91797142D01*
X100694000Y-91701904D01*
X100741619Y-91654285D01*
X100836857Y-91606666D01*
X101027333Y-91559047D01*
X101265428Y-91559047D01*
X101455904Y-91606666D01*
X101551142Y-91654285D01*
X101598761Y-91701904D01*
X101646380Y-91797142D01*
X101646380Y-91892380D01*
X101598761Y-91987619D01*
X101551142Y-92035238D01*
X101455904Y-92082857D01*
X101265428Y-92130476D01*
X101027333Y-92130476D01*
X100836857Y-92082857D01*
X100741619Y-92035238D01*
X100694000Y-91987619D01*
X100646380Y-91892380D01*
X100979714Y-90701904D02*
X101646380Y-90701904D01*
X100979714Y-91130476D02*
X101503523Y-91130476D01*
X101598761Y-91082857D01*
X101646380Y-90987619D01*
X101646380Y-90844761D01*
X101598761Y-90749523D01*
X101551142Y-90701904D01*
X101122571Y-89892380D02*
X101122571Y-90225714D01*
X101646380Y-90225714D02*
X100646380Y-90225714D01*
X100646380Y-89749523D01*
D12*
X104679714Y-91573333D02*
X104717809Y-91611428D01*
X104755904Y-91725714D01*
X104755904Y-91801904D01*
X104717809Y-91916190D01*
X104641619Y-91992380D01*
X104565428Y-92030476D01*
X104413047Y-92068571D01*
X104298761Y-92068571D01*
X104146380Y-92030476D01*
X104070190Y-91992380D01*
X103994000Y-91916190D01*
X103955904Y-91801904D01*
X103955904Y-91725714D01*
X103994000Y-91611428D01*
X104032095Y-91573333D01*
X103955904Y-90849523D02*
X103955904Y-91230476D01*
X104336857Y-91268571D01*
X104298761Y-91230476D01*
X104260666Y-91154285D01*
X104260666Y-90963809D01*
X104298761Y-90887619D01*
X104336857Y-90849523D01*
X104413047Y-90811428D01*
X104603523Y-90811428D01*
X104679714Y-90849523D01*
X104717809Y-90887619D01*
X104755904Y-90963809D01*
X104755904Y-91154285D01*
X104717809Y-91230476D01*
X104679714Y-91268571D01*
G04 #@! TO.C,J1*
D11*
X100290476Y-80080761D02*
X100433333Y-80128380D01*
X100671428Y-80128380D01*
X100766666Y-80080761D01*
X100814285Y-80033142D01*
X100861904Y-79937904D01*
X100861904Y-79842666D01*
X100814285Y-79747428D01*
X100766666Y-79699809D01*
X100671428Y-79652190D01*
X100480952Y-79604571D01*
X100385714Y-79556952D01*
X100338095Y-79509333D01*
X100290476Y-79414095D01*
X100290476Y-79318857D01*
X100338095Y-79223619D01*
X100385714Y-79176000D01*
X100480952Y-79128380D01*
X100719047Y-79128380D01*
X100861904Y-79176000D01*
X101957142Y-80223619D02*
X101861904Y-80176000D01*
X101766666Y-80080761D01*
X101623809Y-79937904D01*
X101528571Y-79890285D01*
X101433333Y-79890285D01*
X101480952Y-80128380D02*
X101385714Y-80080761D01*
X101290476Y-79985523D01*
X101242857Y-79795047D01*
X101242857Y-79461714D01*
X101290476Y-79271238D01*
X101385714Y-79176000D01*
X101480952Y-79128380D01*
X101671428Y-79128380D01*
X101766666Y-79176000D01*
X101861904Y-79271238D01*
X101909523Y-79461714D01*
X101909523Y-79795047D01*
X101861904Y-79985523D01*
X101766666Y-80080761D01*
X101671428Y-80128380D01*
X101480952Y-80128380D01*
X102909523Y-80128380D02*
X102576190Y-79652190D01*
X102338095Y-80128380D02*
X102338095Y-79128380D01*
X102719047Y-79128380D01*
X102814285Y-79176000D01*
X102861904Y-79223619D01*
X102909523Y-79318857D01*
X102909523Y-79461714D01*
X102861904Y-79556952D01*
X102814285Y-79604571D01*
X102719047Y-79652190D01*
X102338095Y-79652190D01*
X101266666Y-82128380D02*
X101266666Y-82842666D01*
X101219047Y-82985523D01*
X101123809Y-83080761D01*
X100980952Y-83128380D01*
X100885714Y-83128380D01*
X102266666Y-83128380D02*
X101695238Y-83128380D01*
X101980952Y-83128380D02*
X101980952Y-82128380D01*
X101885714Y-82271238D01*
X101790476Y-82366476D01*
X101695238Y-82414095D01*
G04 #@! TO.C,J2*
X87876190Y-79128380D02*
X88447619Y-79128380D01*
X88161904Y-80128380D02*
X88161904Y-79128380D01*
X89352380Y-80128380D02*
X89019047Y-79652190D01*
X88780952Y-80128380D02*
X88780952Y-79128380D01*
X89161904Y-79128380D01*
X89257142Y-79176000D01*
X89304761Y-79223619D01*
X89352380Y-79318857D01*
X89352380Y-79461714D01*
X89304761Y-79556952D01*
X89257142Y-79604571D01*
X89161904Y-79652190D01*
X88780952Y-79652190D01*
X89780952Y-80128380D02*
X89780952Y-79128380D01*
X88566666Y-82128380D02*
X88566666Y-82842666D01*
X88519047Y-82985523D01*
X88423809Y-83080761D01*
X88280952Y-83128380D01*
X88185714Y-83128380D01*
X88995238Y-82223619D02*
X89042857Y-82176000D01*
X89138095Y-82128380D01*
X89376190Y-82128380D01*
X89471428Y-82176000D01*
X89519047Y-82223619D01*
X89566666Y-82318857D01*
X89566666Y-82414095D01*
X89519047Y-82556952D01*
X88947619Y-83128380D01*
X89566666Y-83128380D01*
G04 #@! TO.C,RV10*
X109964666Y-66990714D02*
X109964666Y-66514523D01*
X110250380Y-67085952D02*
X109250380Y-66752619D01*
X110250380Y-66419285D01*
X110250380Y-65562142D02*
X110250380Y-66133571D01*
X110250380Y-65847857D02*
X109250380Y-65847857D01*
X109393238Y-65943095D01*
X109488476Y-66038333D01*
X109536095Y-66133571D01*
X110250380Y-65133571D02*
X109250380Y-65133571D01*
X109964666Y-64800238D01*
X109250380Y-64466904D01*
X110250380Y-64466904D01*
X101076571Y-70207380D02*
X100743238Y-69731190D01*
X100505142Y-70207380D02*
X100505142Y-69207380D01*
X100886095Y-69207380D01*
X100981333Y-69255000D01*
X101028952Y-69302619D01*
X101076571Y-69397857D01*
X101076571Y-69540714D01*
X101028952Y-69635952D01*
X100981333Y-69683571D01*
X100886095Y-69731190D01*
X100505142Y-69731190D01*
X101362285Y-69207380D02*
X101695619Y-70207380D01*
X102028952Y-69207380D01*
X102886095Y-70207380D02*
X102314666Y-70207380D01*
X102600380Y-70207380D02*
X102600380Y-69207380D01*
X102505142Y-69350238D01*
X102409904Y-69445476D01*
X102314666Y-69493095D01*
X103505142Y-69207380D02*
X103600380Y-69207380D01*
X103695619Y-69255000D01*
X103743238Y-69302619D01*
X103790857Y-69397857D01*
X103838476Y-69588333D01*
X103838476Y-69826428D01*
X103790857Y-70016904D01*
X103743238Y-70112142D01*
X103695619Y-70159761D01*
X103600380Y-70207380D01*
X103505142Y-70207380D01*
X103409904Y-70159761D01*
X103362285Y-70112142D01*
X103314666Y-70016904D01*
X103267047Y-69826428D01*
X103267047Y-69588333D01*
X103314666Y-69397857D01*
X103362285Y-69302619D01*
X103409904Y-69255000D01*
X103505142Y-69207380D01*
G04 #@! TD*
M02*
