G04 #@! TF.GenerationSoftware,KiCad,Pcbnew,(5.0.1)-4*
G04 #@! TF.CreationDate,2019-03-05T01:38:51-06:00*
G04 #@! TF.ProjectId,util_LFO,7574696C5F4C464F2E6B696361645F70,rev?*
G04 #@! TF.SameCoordinates,Original*
G04 #@! TF.FileFunction,Copper,L1,Top,Signal*
G04 #@! TF.FilePolarity,Positive*
%FSLAX46Y46*%
G04 Gerber Fmt 4.6, Leading zero omitted, Abs format (unit mm)*
G04 Created by KiCad (PCBNEW (5.0.1)-4) date 3/5/2019 1:38:51*
%MOMM*%
%LPD*%
G01*
G04 APERTURE LIST*
G04 #@! TA.AperFunction,ComponentPad*
%ADD10C,1.350000*%
G04 #@! TD*
G04 #@! TA.AperFunction,ComponentPad*
%ADD11O,1.300000X2.000000*%
G04 #@! TD*
G04 #@! TA.AperFunction,ComponentPad*
%ADD12C,1.800000*%
G04 #@! TD*
G04 #@! TA.AperFunction,Conductor*
%ADD13C,0.100000*%
G04 #@! TD*
G04 #@! TA.AperFunction,SMDPad,CuDef*
%ADD14C,1.600000*%
G04 #@! TD*
G04 #@! TA.AperFunction,ComponentPad*
%ADD15O,2.400000X1.500000*%
G04 #@! TD*
G04 #@! TA.AperFunction,ComponentPad*
%ADD16R,2.200000X1.500000*%
G04 #@! TD*
G04 #@! TA.AperFunction,ComponentPad*
%ADD17O,2.500000X1.400000*%
G04 #@! TD*
G04 #@! TA.AperFunction,ComponentPad*
%ADD18R,1.727200X1.727200*%
G04 #@! TD*
G04 #@! TA.AperFunction,ComponentPad*
%ADD19O,1.727200X1.727200*%
G04 #@! TD*
G04 #@! TA.AperFunction,ViaPad*
%ADD20C,0.800000*%
G04 #@! TD*
G04 #@! TA.AperFunction,Conductor*
%ADD21C,0.450000*%
G04 #@! TD*
G04 #@! TA.AperFunction,Conductor*
%ADD22C,0.300000*%
G04 #@! TD*
G04 #@! TA.AperFunction,Conductor*
%ADD23C,0.254000*%
G04 #@! TD*
G04 APERTURE END LIST*
D10*
G04 #@! TO.P,J6,1*
G04 #@! TO.N,-12V*
X102108000Y-59880500D03*
G04 #@! TD*
D11*
G04 #@! TO.P,RV11,*
G04 #@! TO.N,GND*
X83790000Y-64255000D03*
D12*
G04 #@! TO.P,RV11,1*
G04 #@! TO.N,Net-(RV10-Pad2)*
X91440000Y-71755000D03*
G04 #@! TO.P,RV11,2*
G04 #@! TO.N,Net-(R4-Pad2)*
X88940000Y-71755000D03*
G04 #@! TO.P,RV11,3*
G04 #@! TO.N,Net-(R3-Pad2)*
X86440000Y-71755000D03*
D11*
G04 #@! TO.P,RV11,*
G04 #@! TO.N,GND*
X94090000Y-64255000D03*
G04 #@! TD*
D13*
G04 #@! TO.N,+12v*
G04 #@! TO.C,C4*
G36*
X86426504Y-91941204D02*
X86450773Y-91944804D01*
X86474571Y-91950765D01*
X86497671Y-91959030D01*
X86519849Y-91969520D01*
X86540893Y-91982133D01*
X86560598Y-91996747D01*
X86578777Y-92013223D01*
X86595253Y-92031402D01*
X86609867Y-92051107D01*
X86622480Y-92072151D01*
X86632970Y-92094329D01*
X86641235Y-92117429D01*
X86647196Y-92141227D01*
X86650796Y-92165496D01*
X86652000Y-92190000D01*
X86652000Y-94290000D01*
X86650796Y-94314504D01*
X86647196Y-94338773D01*
X86641235Y-94362571D01*
X86632970Y-94385671D01*
X86622480Y-94407849D01*
X86609867Y-94428893D01*
X86595253Y-94448598D01*
X86578777Y-94466777D01*
X86560598Y-94483253D01*
X86540893Y-94497867D01*
X86519849Y-94510480D01*
X86497671Y-94520970D01*
X86474571Y-94529235D01*
X86450773Y-94535196D01*
X86426504Y-94538796D01*
X86402000Y-94540000D01*
X85302000Y-94540000D01*
X85277496Y-94538796D01*
X85253227Y-94535196D01*
X85229429Y-94529235D01*
X85206329Y-94520970D01*
X85184151Y-94510480D01*
X85163107Y-94497867D01*
X85143402Y-94483253D01*
X85125223Y-94466777D01*
X85108747Y-94448598D01*
X85094133Y-94428893D01*
X85081520Y-94407849D01*
X85071030Y-94385671D01*
X85062765Y-94362571D01*
X85056804Y-94338773D01*
X85053204Y-94314504D01*
X85052000Y-94290000D01*
X85052000Y-92190000D01*
X85053204Y-92165496D01*
X85056804Y-92141227D01*
X85062765Y-92117429D01*
X85071030Y-92094329D01*
X85081520Y-92072151D01*
X85094133Y-92051107D01*
X85108747Y-92031402D01*
X85125223Y-92013223D01*
X85143402Y-91996747D01*
X85163107Y-91982133D01*
X85184151Y-91969520D01*
X85206329Y-91959030D01*
X85229429Y-91950765D01*
X85253227Y-91944804D01*
X85277496Y-91941204D01*
X85302000Y-91940000D01*
X86402000Y-91940000D01*
X86426504Y-91941204D01*
X86426504Y-91941204D01*
G37*
D14*
G04 #@! TD*
G04 #@! TO.P,C4,1*
G04 #@! TO.N,+12v*
X85852000Y-93240000D03*
D13*
G04 #@! TO.N,GND*
G04 #@! TO.C,C4*
G36*
X86426504Y-88341204D02*
X86450773Y-88344804D01*
X86474571Y-88350765D01*
X86497671Y-88359030D01*
X86519849Y-88369520D01*
X86540893Y-88382133D01*
X86560598Y-88396747D01*
X86578777Y-88413223D01*
X86595253Y-88431402D01*
X86609867Y-88451107D01*
X86622480Y-88472151D01*
X86632970Y-88494329D01*
X86641235Y-88517429D01*
X86647196Y-88541227D01*
X86650796Y-88565496D01*
X86652000Y-88590000D01*
X86652000Y-90690000D01*
X86650796Y-90714504D01*
X86647196Y-90738773D01*
X86641235Y-90762571D01*
X86632970Y-90785671D01*
X86622480Y-90807849D01*
X86609867Y-90828893D01*
X86595253Y-90848598D01*
X86578777Y-90866777D01*
X86560598Y-90883253D01*
X86540893Y-90897867D01*
X86519849Y-90910480D01*
X86497671Y-90920970D01*
X86474571Y-90929235D01*
X86450773Y-90935196D01*
X86426504Y-90938796D01*
X86402000Y-90940000D01*
X85302000Y-90940000D01*
X85277496Y-90938796D01*
X85253227Y-90935196D01*
X85229429Y-90929235D01*
X85206329Y-90920970D01*
X85184151Y-90910480D01*
X85163107Y-90897867D01*
X85143402Y-90883253D01*
X85125223Y-90866777D01*
X85108747Y-90848598D01*
X85094133Y-90828893D01*
X85081520Y-90807849D01*
X85071030Y-90785671D01*
X85062765Y-90762571D01*
X85056804Y-90738773D01*
X85053204Y-90714504D01*
X85052000Y-90690000D01*
X85052000Y-88590000D01*
X85053204Y-88565496D01*
X85056804Y-88541227D01*
X85062765Y-88517429D01*
X85071030Y-88494329D01*
X85081520Y-88472151D01*
X85094133Y-88451107D01*
X85108747Y-88431402D01*
X85125223Y-88413223D01*
X85143402Y-88396747D01*
X85163107Y-88382133D01*
X85184151Y-88369520D01*
X85206329Y-88359030D01*
X85229429Y-88350765D01*
X85253227Y-88344804D01*
X85277496Y-88341204D01*
X85302000Y-88340000D01*
X86402000Y-88340000D01*
X86426504Y-88341204D01*
X86426504Y-88341204D01*
G37*
D14*
G04 #@! TD*
G04 #@! TO.P,C4,2*
G04 #@! TO.N,GND*
X85852000Y-89640000D03*
D13*
G04 #@! TO.N,-12V*
G04 #@! TO.C,C5*
G36*
X104968504Y-91941204D02*
X104992773Y-91944804D01*
X105016571Y-91950765D01*
X105039671Y-91959030D01*
X105061849Y-91969520D01*
X105082893Y-91982133D01*
X105102598Y-91996747D01*
X105120777Y-92013223D01*
X105137253Y-92031402D01*
X105151867Y-92051107D01*
X105164480Y-92072151D01*
X105174970Y-92094329D01*
X105183235Y-92117429D01*
X105189196Y-92141227D01*
X105192796Y-92165496D01*
X105194000Y-92190000D01*
X105194000Y-94290000D01*
X105192796Y-94314504D01*
X105189196Y-94338773D01*
X105183235Y-94362571D01*
X105174970Y-94385671D01*
X105164480Y-94407849D01*
X105151867Y-94428893D01*
X105137253Y-94448598D01*
X105120777Y-94466777D01*
X105102598Y-94483253D01*
X105082893Y-94497867D01*
X105061849Y-94510480D01*
X105039671Y-94520970D01*
X105016571Y-94529235D01*
X104992773Y-94535196D01*
X104968504Y-94538796D01*
X104944000Y-94540000D01*
X103844000Y-94540000D01*
X103819496Y-94538796D01*
X103795227Y-94535196D01*
X103771429Y-94529235D01*
X103748329Y-94520970D01*
X103726151Y-94510480D01*
X103705107Y-94497867D01*
X103685402Y-94483253D01*
X103667223Y-94466777D01*
X103650747Y-94448598D01*
X103636133Y-94428893D01*
X103623520Y-94407849D01*
X103613030Y-94385671D01*
X103604765Y-94362571D01*
X103598804Y-94338773D01*
X103595204Y-94314504D01*
X103594000Y-94290000D01*
X103594000Y-92190000D01*
X103595204Y-92165496D01*
X103598804Y-92141227D01*
X103604765Y-92117429D01*
X103613030Y-92094329D01*
X103623520Y-92072151D01*
X103636133Y-92051107D01*
X103650747Y-92031402D01*
X103667223Y-92013223D01*
X103685402Y-91996747D01*
X103705107Y-91982133D01*
X103726151Y-91969520D01*
X103748329Y-91959030D01*
X103771429Y-91950765D01*
X103795227Y-91944804D01*
X103819496Y-91941204D01*
X103844000Y-91940000D01*
X104944000Y-91940000D01*
X104968504Y-91941204D01*
X104968504Y-91941204D01*
G37*
D14*
G04 #@! TD*
G04 #@! TO.P,C5,2*
G04 #@! TO.N,-12V*
X104394000Y-93240000D03*
D13*
G04 #@! TO.N,GND*
G04 #@! TO.C,C5*
G36*
X104968504Y-88341204D02*
X104992773Y-88344804D01*
X105016571Y-88350765D01*
X105039671Y-88359030D01*
X105061849Y-88369520D01*
X105082893Y-88382133D01*
X105102598Y-88396747D01*
X105120777Y-88413223D01*
X105137253Y-88431402D01*
X105151867Y-88451107D01*
X105164480Y-88472151D01*
X105174970Y-88494329D01*
X105183235Y-88517429D01*
X105189196Y-88541227D01*
X105192796Y-88565496D01*
X105194000Y-88590000D01*
X105194000Y-90690000D01*
X105192796Y-90714504D01*
X105189196Y-90738773D01*
X105183235Y-90762571D01*
X105174970Y-90785671D01*
X105164480Y-90807849D01*
X105151867Y-90828893D01*
X105137253Y-90848598D01*
X105120777Y-90866777D01*
X105102598Y-90883253D01*
X105082893Y-90897867D01*
X105061849Y-90910480D01*
X105039671Y-90920970D01*
X105016571Y-90929235D01*
X104992773Y-90935196D01*
X104968504Y-90938796D01*
X104944000Y-90940000D01*
X103844000Y-90940000D01*
X103819496Y-90938796D01*
X103795227Y-90935196D01*
X103771429Y-90929235D01*
X103748329Y-90920970D01*
X103726151Y-90910480D01*
X103705107Y-90897867D01*
X103685402Y-90883253D01*
X103667223Y-90866777D01*
X103650747Y-90848598D01*
X103636133Y-90828893D01*
X103623520Y-90807849D01*
X103613030Y-90785671D01*
X103604765Y-90762571D01*
X103598804Y-90738773D01*
X103595204Y-90714504D01*
X103594000Y-90690000D01*
X103594000Y-88590000D01*
X103595204Y-88565496D01*
X103598804Y-88541227D01*
X103604765Y-88517429D01*
X103613030Y-88494329D01*
X103623520Y-88472151D01*
X103636133Y-88451107D01*
X103650747Y-88431402D01*
X103667223Y-88413223D01*
X103685402Y-88396747D01*
X103705107Y-88382133D01*
X103726151Y-88369520D01*
X103748329Y-88359030D01*
X103771429Y-88350765D01*
X103795227Y-88344804D01*
X103819496Y-88341204D01*
X103844000Y-88340000D01*
X104944000Y-88340000D01*
X104968504Y-88341204D01*
X104968504Y-88341204D01*
G37*
D14*
G04 #@! TD*
G04 #@! TO.P,C5,1*
G04 #@! TO.N,GND*
X104394000Y-89640000D03*
D15*
G04 #@! TO.P,J1,TN*
G04 #@! TO.N,Net-(J1-PadTN)*
X101600000Y-77776000D03*
D16*
G04 #@! TO.P,J1,S*
G04 #@! TO.N,GND*
X101600000Y-74676000D03*
D17*
G04 #@! TO.P,J1,T*
G04 #@! TO.N,Net-(J1-PadT)*
X101600000Y-86076000D03*
G04 #@! TD*
G04 #@! TO.P,J2,T*
G04 #@! TO.N,Net-(J2-PadT)*
X88900000Y-86076000D03*
D16*
G04 #@! TO.P,J2,S*
G04 #@! TO.N,GND*
X88900000Y-74676000D03*
D15*
G04 #@! TO.P,J2,TN*
G04 #@! TO.N,Net-(J2-PadTN)*
X88900000Y-77776000D03*
G04 #@! TD*
D18*
G04 #@! TO.P,J3,1*
G04 #@! TO.N,-12V*
X100076000Y-92202000D03*
D19*
G04 #@! TO.P,J3,2*
X100076000Y-89662000D03*
G04 #@! TO.P,J3,3*
G04 #@! TO.N,GND*
X97536000Y-92202000D03*
G04 #@! TO.P,J3,4*
X97536000Y-89662000D03*
G04 #@! TO.P,J3,5*
X94996000Y-92202000D03*
G04 #@! TO.P,J3,6*
X94996000Y-89662000D03*
G04 #@! TO.P,J3,7*
X92456000Y-92202000D03*
G04 #@! TO.P,J3,8*
X92456000Y-89662000D03*
G04 #@! TO.P,J3,9*
G04 #@! TO.N,+12v*
X89916000Y-92202000D03*
G04 #@! TO.P,J3,10*
X89916000Y-89662000D03*
G04 #@! TD*
D10*
G04 #@! TO.P,J4,1*
G04 #@! TO.N,+12v*
X88900000Y-59880500D03*
G04 #@! TD*
G04 #@! TO.P,J5,1*
G04 #@! TO.N,GND*
X95504000Y-59880500D03*
G04 #@! TD*
D11*
G04 #@! TO.P,RV10,*
G04 #@! TO.N,GND*
X107298000Y-64255000D03*
D12*
G04 #@! TO.P,RV10,3*
G04 #@! TO.N,Net-(RV10-Pad2)*
X99648000Y-71755000D03*
G04 #@! TO.P,RV10,2*
X102148000Y-71755000D03*
G04 #@! TO.P,RV10,1*
G04 #@! TO.N,Net-(R1-Pad1)*
X104648000Y-71755000D03*
D11*
G04 #@! TO.P,RV10,*
G04 #@! TO.N,GND*
X96998000Y-64255000D03*
G04 #@! TD*
D20*
G04 #@! TO.N,+12v*
X94234000Y-79756000D03*
G04 #@! TD*
D21*
G04 #@! TO.N,+12v*
X94234000Y-85344000D02*
X89916000Y-89662000D01*
X94234000Y-79756000D02*
X94234000Y-85344000D01*
X88878000Y-93240000D02*
X89916000Y-92202000D01*
X85852000Y-93240000D02*
X88878000Y-93240000D01*
X85064999Y-63715501D02*
X88900000Y-59880500D01*
X89916000Y-89662000D02*
X85064999Y-84810999D01*
X85064999Y-84810999D02*
X85064999Y-63715501D01*
G04 #@! TO.N,-12V*
X101114000Y-93240000D02*
X100076000Y-92202000D01*
X104394000Y-93240000D02*
X101114000Y-93240000D01*
X100939599Y-88798401D02*
X100076000Y-89662000D01*
X101144913Y-88798401D02*
X100939599Y-88798401D01*
X106023001Y-83920313D02*
X101144913Y-88798401D01*
X106023001Y-64750095D02*
X106023001Y-83920313D01*
X102108000Y-60835094D02*
X106023001Y-64750095D01*
X102108000Y-59880500D02*
X102108000Y-60835094D01*
D22*
G04 #@! TO.N,Net-(RV10-Pad2)*
X99140000Y-71755000D02*
X101640000Y-71755000D01*
X92712792Y-71755000D02*
X99648000Y-71755000D01*
X91440000Y-71755000D02*
X92712792Y-71755000D01*
G04 #@! TD*
D23*
G04 #@! TO.N,GND*
G36*
X108256001Y-63076030D02*
X108116829Y-62906565D01*
X107672415Y-62669214D01*
X107623471Y-62661901D01*
X107425000Y-62785933D01*
X107425000Y-64128000D01*
X107445000Y-64128000D01*
X107445000Y-64382000D01*
X107425000Y-64382000D01*
X107425000Y-65724067D01*
X107623471Y-65848099D01*
X107672415Y-65840786D01*
X108116829Y-65603435D01*
X108256001Y-65433971D01*
X108256000Y-94794000D01*
X105665840Y-94794000D01*
X105773126Y-94633435D01*
X105841440Y-94290000D01*
X105841440Y-92190000D01*
X105773126Y-91846565D01*
X105578586Y-91555414D01*
X105497843Y-91501463D01*
X105553699Y-91478327D01*
X105732327Y-91299698D01*
X105829000Y-91066309D01*
X105829000Y-89925750D01*
X105670250Y-89767000D01*
X104521000Y-89767000D01*
X104521000Y-89787000D01*
X104267000Y-89787000D01*
X104267000Y-89767000D01*
X103117750Y-89767000D01*
X102959000Y-89925750D01*
X102959000Y-91066309D01*
X103055673Y-91299698D01*
X103234301Y-91478327D01*
X103290157Y-91501463D01*
X103209414Y-91555414D01*
X103014874Y-91846565D01*
X102946560Y-92190000D01*
X102946560Y-92380000D01*
X101587040Y-92380000D01*
X101587040Y-91338400D01*
X101537757Y-91090635D01*
X101397409Y-90880591D01*
X101187365Y-90740243D01*
X101161349Y-90735068D01*
X101487650Y-90246725D01*
X101603959Y-89662000D01*
X101580079Y-89541945D01*
X101764938Y-89418426D01*
X101812918Y-89346619D01*
X102968301Y-88191236D01*
X102959000Y-88213691D01*
X102959000Y-89354250D01*
X103117750Y-89513000D01*
X104267000Y-89513000D01*
X104267000Y-87863750D01*
X104521000Y-87863750D01*
X104521000Y-89513000D01*
X105670250Y-89513000D01*
X105829000Y-89354250D01*
X105829000Y-88213691D01*
X105732327Y-87980302D01*
X105553699Y-87801673D01*
X105320310Y-87705000D01*
X104679750Y-87705000D01*
X104521000Y-87863750D01*
X104267000Y-87863750D01*
X104108250Y-87705000D01*
X103467690Y-87705000D01*
X103445237Y-87714300D01*
X106571222Y-84588316D01*
X106643026Y-84540338D01*
X106833103Y-84255868D01*
X106883001Y-84005014D01*
X106883001Y-84005010D01*
X106899848Y-83920314D01*
X106883001Y-83835618D01*
X106883001Y-65819111D01*
X106923585Y-65840786D01*
X106972529Y-65848099D01*
X107171000Y-65724067D01*
X107171000Y-64382000D01*
X107151000Y-64382000D01*
X107151000Y-64128000D01*
X107171000Y-64128000D01*
X107171000Y-62785933D01*
X106972529Y-62661901D01*
X106923585Y-62669214D01*
X106479171Y-62906565D01*
X106159416Y-63295919D01*
X106072202Y-63583073D01*
X103165124Y-60675995D01*
X103218564Y-60622555D01*
X103418000Y-60141075D01*
X103418000Y-59619925D01*
X103218564Y-59138445D01*
X103210119Y-59130000D01*
X108256001Y-59130000D01*
X108256001Y-63076030D01*
X108256001Y-63076030D01*
G37*
X108256001Y-63076030D02*
X108116829Y-62906565D01*
X107672415Y-62669214D01*
X107623471Y-62661901D01*
X107425000Y-62785933D01*
X107425000Y-64128000D01*
X107445000Y-64128000D01*
X107445000Y-64382000D01*
X107425000Y-64382000D01*
X107425000Y-65724067D01*
X107623471Y-65848099D01*
X107672415Y-65840786D01*
X108116829Y-65603435D01*
X108256001Y-65433971D01*
X108256000Y-94794000D01*
X105665840Y-94794000D01*
X105773126Y-94633435D01*
X105841440Y-94290000D01*
X105841440Y-92190000D01*
X105773126Y-91846565D01*
X105578586Y-91555414D01*
X105497843Y-91501463D01*
X105553699Y-91478327D01*
X105732327Y-91299698D01*
X105829000Y-91066309D01*
X105829000Y-89925750D01*
X105670250Y-89767000D01*
X104521000Y-89767000D01*
X104521000Y-89787000D01*
X104267000Y-89787000D01*
X104267000Y-89767000D01*
X103117750Y-89767000D01*
X102959000Y-89925750D01*
X102959000Y-91066309D01*
X103055673Y-91299698D01*
X103234301Y-91478327D01*
X103290157Y-91501463D01*
X103209414Y-91555414D01*
X103014874Y-91846565D01*
X102946560Y-92190000D01*
X102946560Y-92380000D01*
X101587040Y-92380000D01*
X101587040Y-91338400D01*
X101537757Y-91090635D01*
X101397409Y-90880591D01*
X101187365Y-90740243D01*
X101161349Y-90735068D01*
X101487650Y-90246725D01*
X101603959Y-89662000D01*
X101580079Y-89541945D01*
X101764938Y-89418426D01*
X101812918Y-89346619D01*
X102968301Y-88191236D01*
X102959000Y-88213691D01*
X102959000Y-89354250D01*
X103117750Y-89513000D01*
X104267000Y-89513000D01*
X104267000Y-87863750D01*
X104521000Y-87863750D01*
X104521000Y-89513000D01*
X105670250Y-89513000D01*
X105829000Y-89354250D01*
X105829000Y-88213691D01*
X105732327Y-87980302D01*
X105553699Y-87801673D01*
X105320310Y-87705000D01*
X104679750Y-87705000D01*
X104521000Y-87863750D01*
X104267000Y-87863750D01*
X104108250Y-87705000D01*
X103467690Y-87705000D01*
X103445237Y-87714300D01*
X106571222Y-84588316D01*
X106643026Y-84540338D01*
X106833103Y-84255868D01*
X106883001Y-84005014D01*
X106883001Y-84005010D01*
X106899848Y-83920314D01*
X106883001Y-83835618D01*
X106883001Y-65819111D01*
X106923585Y-65840786D01*
X106972529Y-65848099D01*
X107171000Y-65724067D01*
X107171000Y-64382000D01*
X107151000Y-64382000D01*
X107151000Y-64128000D01*
X107171000Y-64128000D01*
X107171000Y-62785933D01*
X106972529Y-62661901D01*
X106923585Y-62669214D01*
X106479171Y-62906565D01*
X106159416Y-63295919D01*
X106072202Y-63583073D01*
X103165124Y-60675995D01*
X103218564Y-60622555D01*
X103418000Y-60141075D01*
X103418000Y-59619925D01*
X103218564Y-59138445D01*
X103210119Y-59130000D01*
X108256001Y-59130000D01*
X108256001Y-63076030D01*
G36*
X87789436Y-59138445D02*
X87590000Y-59619925D01*
X87590000Y-59974276D01*
X84630872Y-62933405D01*
X84608829Y-62906565D01*
X84164415Y-62669214D01*
X84115471Y-62661901D01*
X83917000Y-62785933D01*
X83917000Y-64128000D01*
X83937000Y-64128000D01*
X83937000Y-64382000D01*
X83917000Y-64382000D01*
X83917000Y-65724067D01*
X84115471Y-65848099D01*
X84164415Y-65840786D01*
X84205000Y-65819111D01*
X84204999Y-84726303D01*
X84188152Y-84810999D01*
X84204999Y-84895695D01*
X84204999Y-84895699D01*
X84254897Y-85146553D01*
X84444974Y-85431024D01*
X84516781Y-85479004D01*
X86742777Y-87705000D01*
X86137750Y-87705000D01*
X85979000Y-87863750D01*
X85979000Y-89513000D01*
X87128250Y-89513000D01*
X87287000Y-89354250D01*
X87287000Y-88249224D01*
X88439761Y-89401985D01*
X88388041Y-89662000D01*
X88504350Y-90246725D01*
X88835570Y-90742430D01*
X89119281Y-90932000D01*
X88835570Y-91121570D01*
X88504350Y-91617275D01*
X88388041Y-92202000D01*
X88423447Y-92380000D01*
X87299440Y-92380000D01*
X87299440Y-92190000D01*
X87231126Y-91846565D01*
X87036586Y-91555414D01*
X86955843Y-91501463D01*
X87011699Y-91478327D01*
X87190327Y-91299698D01*
X87287000Y-91066309D01*
X87287000Y-89925750D01*
X87128250Y-89767000D01*
X85979000Y-89767000D01*
X85979000Y-89787000D01*
X85725000Y-89787000D01*
X85725000Y-89767000D01*
X84575750Y-89767000D01*
X84417000Y-89925750D01*
X84417000Y-91066309D01*
X84513673Y-91299698D01*
X84692301Y-91478327D01*
X84748157Y-91501463D01*
X84667414Y-91555414D01*
X84472874Y-91846565D01*
X84404560Y-92190000D01*
X84404560Y-94290000D01*
X84472874Y-94633435D01*
X84580160Y-94794000D01*
X82498000Y-94794000D01*
X82498000Y-88213691D01*
X84417000Y-88213691D01*
X84417000Y-89354250D01*
X84575750Y-89513000D01*
X85725000Y-89513000D01*
X85725000Y-87863750D01*
X85566250Y-87705000D01*
X84925690Y-87705000D01*
X84692301Y-87801673D01*
X84513673Y-87980302D01*
X84417000Y-88213691D01*
X82498000Y-88213691D01*
X82498000Y-64382000D01*
X82505000Y-64382000D01*
X82505000Y-64732000D01*
X82651416Y-65214081D01*
X82971171Y-65603435D01*
X83415585Y-65840786D01*
X83464529Y-65848099D01*
X83663000Y-65724067D01*
X83663000Y-64382000D01*
X82505000Y-64382000D01*
X82498000Y-64382000D01*
X82498000Y-63778000D01*
X82505000Y-63778000D01*
X82505000Y-64128000D01*
X83663000Y-64128000D01*
X83663000Y-62785933D01*
X83464529Y-62661901D01*
X83415585Y-62669214D01*
X82971171Y-62906565D01*
X82651416Y-63295919D01*
X82505000Y-63778000D01*
X82498000Y-63778000D01*
X82498000Y-59130000D01*
X87797881Y-59130000D01*
X87789436Y-59138445D01*
X87789436Y-59138445D01*
G37*
X87789436Y-59138445D02*
X87590000Y-59619925D01*
X87590000Y-59974276D01*
X84630872Y-62933405D01*
X84608829Y-62906565D01*
X84164415Y-62669214D01*
X84115471Y-62661901D01*
X83917000Y-62785933D01*
X83917000Y-64128000D01*
X83937000Y-64128000D01*
X83937000Y-64382000D01*
X83917000Y-64382000D01*
X83917000Y-65724067D01*
X84115471Y-65848099D01*
X84164415Y-65840786D01*
X84205000Y-65819111D01*
X84204999Y-84726303D01*
X84188152Y-84810999D01*
X84204999Y-84895695D01*
X84204999Y-84895699D01*
X84254897Y-85146553D01*
X84444974Y-85431024D01*
X84516781Y-85479004D01*
X86742777Y-87705000D01*
X86137750Y-87705000D01*
X85979000Y-87863750D01*
X85979000Y-89513000D01*
X87128250Y-89513000D01*
X87287000Y-89354250D01*
X87287000Y-88249224D01*
X88439761Y-89401985D01*
X88388041Y-89662000D01*
X88504350Y-90246725D01*
X88835570Y-90742430D01*
X89119281Y-90932000D01*
X88835570Y-91121570D01*
X88504350Y-91617275D01*
X88388041Y-92202000D01*
X88423447Y-92380000D01*
X87299440Y-92380000D01*
X87299440Y-92190000D01*
X87231126Y-91846565D01*
X87036586Y-91555414D01*
X86955843Y-91501463D01*
X87011699Y-91478327D01*
X87190327Y-91299698D01*
X87287000Y-91066309D01*
X87287000Y-89925750D01*
X87128250Y-89767000D01*
X85979000Y-89767000D01*
X85979000Y-89787000D01*
X85725000Y-89787000D01*
X85725000Y-89767000D01*
X84575750Y-89767000D01*
X84417000Y-89925750D01*
X84417000Y-91066309D01*
X84513673Y-91299698D01*
X84692301Y-91478327D01*
X84748157Y-91501463D01*
X84667414Y-91555414D01*
X84472874Y-91846565D01*
X84404560Y-92190000D01*
X84404560Y-94290000D01*
X84472874Y-94633435D01*
X84580160Y-94794000D01*
X82498000Y-94794000D01*
X82498000Y-88213691D01*
X84417000Y-88213691D01*
X84417000Y-89354250D01*
X84575750Y-89513000D01*
X85725000Y-89513000D01*
X85725000Y-87863750D01*
X85566250Y-87705000D01*
X84925690Y-87705000D01*
X84692301Y-87801673D01*
X84513673Y-87980302D01*
X84417000Y-88213691D01*
X82498000Y-88213691D01*
X82498000Y-64382000D01*
X82505000Y-64382000D01*
X82505000Y-64732000D01*
X82651416Y-65214081D01*
X82971171Y-65603435D01*
X83415585Y-65840786D01*
X83464529Y-65848099D01*
X83663000Y-65724067D01*
X83663000Y-64382000D01*
X82505000Y-64382000D01*
X82498000Y-64382000D01*
X82498000Y-63778000D01*
X82505000Y-63778000D01*
X82505000Y-64128000D01*
X83663000Y-64128000D01*
X83663000Y-62785933D01*
X83464529Y-62661901D01*
X83415585Y-62669214D01*
X82971171Y-62906565D01*
X82651416Y-63295919D01*
X82505000Y-63778000D01*
X82498000Y-63778000D01*
X82498000Y-59130000D01*
X87797881Y-59130000D01*
X87789436Y-59138445D01*
G36*
X98346690Y-72624507D02*
X98778493Y-73056310D01*
X99342670Y-73290000D01*
X99953330Y-73290000D01*
X100517507Y-73056310D01*
X100898000Y-72675817D01*
X101278493Y-73056310D01*
X101842670Y-73290000D01*
X102453330Y-73290000D01*
X103017507Y-73056310D01*
X103398000Y-72675817D01*
X103778493Y-73056310D01*
X104342670Y-73290000D01*
X104953330Y-73290000D01*
X105163001Y-73203151D01*
X105163002Y-83564088D01*
X103313190Y-85413901D01*
X103112481Y-85113519D01*
X102670891Y-84818458D01*
X102281485Y-84741000D01*
X100918515Y-84741000D01*
X100529109Y-84818458D01*
X100087519Y-85113519D01*
X99792458Y-85555109D01*
X99688846Y-86076000D01*
X99792458Y-86596891D01*
X100087519Y-87038481D01*
X100529109Y-87333542D01*
X100918515Y-87411000D01*
X101316091Y-87411000D01*
X100772250Y-87954841D01*
X100604044Y-87988299D01*
X100604042Y-87988300D01*
X100604043Y-87988300D01*
X100391379Y-88130397D01*
X100391378Y-88130398D01*
X100319574Y-88178376D01*
X100317147Y-88182008D01*
X100223598Y-88163400D01*
X99928402Y-88163400D01*
X99491275Y-88250350D01*
X98995570Y-88581570D01*
X98794146Y-88883021D01*
X98742821Y-88773510D01*
X98310947Y-88379312D01*
X97895026Y-88207042D01*
X97663000Y-88328183D01*
X97663000Y-89535000D01*
X97683000Y-89535000D01*
X97683000Y-89789000D01*
X97663000Y-89789000D01*
X97663000Y-92075000D01*
X97683000Y-92075000D01*
X97683000Y-92329000D01*
X97663000Y-92329000D01*
X97663000Y-93535817D01*
X97895026Y-93656958D01*
X98310947Y-93484688D01*
X98596480Y-93224064D01*
X98614243Y-93313365D01*
X98754591Y-93523409D01*
X98964635Y-93663757D01*
X99212400Y-93713040D01*
X100370817Y-93713040D01*
X100445995Y-93788218D01*
X100493975Y-93860025D01*
X100565781Y-93908004D01*
X100778444Y-94050102D01*
X100830272Y-94060411D01*
X101029299Y-94100000D01*
X101029303Y-94100000D01*
X101114000Y-94116847D01*
X101198697Y-94100000D01*
X102946560Y-94100000D01*
X102946560Y-94290000D01*
X103014874Y-94633435D01*
X103122160Y-94794000D01*
X87123840Y-94794000D01*
X87231126Y-94633435D01*
X87299440Y-94290000D01*
X87299440Y-94100000D01*
X88793304Y-94100000D01*
X88878000Y-94116847D01*
X88962696Y-94100000D01*
X88962701Y-94100000D01*
X89213555Y-94050102D01*
X89498025Y-93860025D01*
X89546005Y-93788218D01*
X89655984Y-93678239D01*
X89768402Y-93700600D01*
X90063598Y-93700600D01*
X90500725Y-93613650D01*
X90996430Y-93282430D01*
X91197854Y-92980979D01*
X91249179Y-93090490D01*
X91681053Y-93484688D01*
X92096974Y-93656958D01*
X92329000Y-93535817D01*
X92329000Y-92329000D01*
X92583000Y-92329000D01*
X92583000Y-93535817D01*
X92815026Y-93656958D01*
X93230947Y-93484688D01*
X93662821Y-93090490D01*
X93726000Y-92955687D01*
X93789179Y-93090490D01*
X94221053Y-93484688D01*
X94636974Y-93656958D01*
X94869000Y-93535817D01*
X94869000Y-92329000D01*
X95123000Y-92329000D01*
X95123000Y-93535817D01*
X95355026Y-93656958D01*
X95770947Y-93484688D01*
X96202821Y-93090490D01*
X96266000Y-92955687D01*
X96329179Y-93090490D01*
X96761053Y-93484688D01*
X97176974Y-93656958D01*
X97409000Y-93535817D01*
X97409000Y-92329000D01*
X95123000Y-92329000D01*
X94869000Y-92329000D01*
X92583000Y-92329000D01*
X92329000Y-92329000D01*
X92309000Y-92329000D01*
X92309000Y-92075000D01*
X92329000Y-92075000D01*
X92329000Y-89789000D01*
X92583000Y-89789000D01*
X92583000Y-92075000D01*
X94869000Y-92075000D01*
X94869000Y-89789000D01*
X95123000Y-89789000D01*
X95123000Y-92075000D01*
X97409000Y-92075000D01*
X97409000Y-89789000D01*
X95123000Y-89789000D01*
X94869000Y-89789000D01*
X92583000Y-89789000D01*
X92329000Y-89789000D01*
X92309000Y-89789000D01*
X92309000Y-89535000D01*
X92329000Y-89535000D01*
X92329000Y-89515000D01*
X92583000Y-89515000D01*
X92583000Y-89535000D01*
X94869000Y-89535000D01*
X94869000Y-88328183D01*
X95123000Y-88328183D01*
X95123000Y-89535000D01*
X97409000Y-89535000D01*
X97409000Y-88328183D01*
X97176974Y-88207042D01*
X96761053Y-88379312D01*
X96329179Y-88773510D01*
X96266000Y-88908313D01*
X96202821Y-88773510D01*
X95770947Y-88379312D01*
X95355026Y-88207042D01*
X95123000Y-88328183D01*
X94869000Y-88328183D01*
X94636974Y-88207042D01*
X94221053Y-88379312D01*
X93789179Y-88773510D01*
X93726000Y-88908313D01*
X93662821Y-88773510D01*
X93230947Y-88379312D01*
X92815026Y-88207042D01*
X92583002Y-88328182D01*
X92583002Y-88211221D01*
X94782221Y-86012003D01*
X94854025Y-85964025D01*
X95044102Y-85679555D01*
X95094000Y-85428701D01*
X95094000Y-85428697D01*
X95110847Y-85344001D01*
X95094000Y-85259305D01*
X95094000Y-80359711D01*
X95111431Y-80342280D01*
X95269000Y-79961874D01*
X95269000Y-79550126D01*
X95111431Y-79169720D01*
X94820280Y-78878569D01*
X94439874Y-78721000D01*
X94028126Y-78721000D01*
X93647720Y-78878569D01*
X93356569Y-79169720D01*
X93199000Y-79550126D01*
X93199000Y-79961874D01*
X93356569Y-80342280D01*
X93374000Y-80359711D01*
X93374001Y-84987775D01*
X90176016Y-88185761D01*
X90063598Y-88163400D01*
X89768402Y-88163400D01*
X89655985Y-88185761D01*
X88881224Y-87411000D01*
X89581485Y-87411000D01*
X89970891Y-87333542D01*
X90412481Y-87038481D01*
X90707542Y-86596891D01*
X90811154Y-86076000D01*
X90707542Y-85555109D01*
X90412481Y-85113519D01*
X89970891Y-84818458D01*
X89581485Y-84741000D01*
X88218515Y-84741000D01*
X87829109Y-84818458D01*
X87387519Y-85113519D01*
X87092458Y-85555109D01*
X87081321Y-85611098D01*
X85924999Y-84454776D01*
X85924999Y-77776000D01*
X87037867Y-77776000D01*
X87145359Y-78316400D01*
X87451471Y-78774529D01*
X87909600Y-79080641D01*
X88313593Y-79161000D01*
X89486407Y-79161000D01*
X89890400Y-79080641D01*
X90348529Y-78774529D01*
X90654641Y-78316400D01*
X90762133Y-77776000D01*
X99737867Y-77776000D01*
X99845359Y-78316400D01*
X100151471Y-78774529D01*
X100609600Y-79080641D01*
X101013593Y-79161000D01*
X102186407Y-79161000D01*
X102590400Y-79080641D01*
X103048529Y-78774529D01*
X103354641Y-78316400D01*
X103462133Y-77776000D01*
X103354641Y-77235600D01*
X103048529Y-76777471D01*
X102590400Y-76471359D01*
X102186407Y-76391000D01*
X101013593Y-76391000D01*
X100609600Y-76471359D01*
X100151471Y-76777471D01*
X99845359Y-77235600D01*
X99737867Y-77776000D01*
X90762133Y-77776000D01*
X90654641Y-77235600D01*
X90348529Y-76777471D01*
X89890400Y-76471359D01*
X89486407Y-76391000D01*
X88313593Y-76391000D01*
X87909600Y-76471359D01*
X87451471Y-76777471D01*
X87145359Y-77235600D01*
X87037867Y-77776000D01*
X85924999Y-77776000D01*
X85924999Y-74961750D01*
X87165000Y-74961750D01*
X87165000Y-75552310D01*
X87261673Y-75785699D01*
X87440302Y-75964327D01*
X87673691Y-76061000D01*
X88614250Y-76061000D01*
X88773000Y-75902250D01*
X88773000Y-74803000D01*
X89027000Y-74803000D01*
X89027000Y-75902250D01*
X89185750Y-76061000D01*
X90126309Y-76061000D01*
X90359698Y-75964327D01*
X90538327Y-75785699D01*
X90635000Y-75552310D01*
X90635000Y-74961750D01*
X99865000Y-74961750D01*
X99865000Y-75552310D01*
X99961673Y-75785699D01*
X100140302Y-75964327D01*
X100373691Y-76061000D01*
X101314250Y-76061000D01*
X101473000Y-75902250D01*
X101473000Y-74803000D01*
X101727000Y-74803000D01*
X101727000Y-75902250D01*
X101885750Y-76061000D01*
X102826309Y-76061000D01*
X103059698Y-75964327D01*
X103238327Y-75785699D01*
X103335000Y-75552310D01*
X103335000Y-74961750D01*
X103176250Y-74803000D01*
X101727000Y-74803000D01*
X101473000Y-74803000D01*
X100023750Y-74803000D01*
X99865000Y-74961750D01*
X90635000Y-74961750D01*
X90476250Y-74803000D01*
X89027000Y-74803000D01*
X88773000Y-74803000D01*
X87323750Y-74803000D01*
X87165000Y-74961750D01*
X85924999Y-74961750D01*
X85924999Y-73799690D01*
X87165000Y-73799690D01*
X87165000Y-74390250D01*
X87323750Y-74549000D01*
X88773000Y-74549000D01*
X88773000Y-73449750D01*
X89027000Y-73449750D01*
X89027000Y-74549000D01*
X90476250Y-74549000D01*
X90635000Y-74390250D01*
X90635000Y-73799690D01*
X99865000Y-73799690D01*
X99865000Y-74390250D01*
X100023750Y-74549000D01*
X101473000Y-74549000D01*
X101473000Y-73449750D01*
X101727000Y-73449750D01*
X101727000Y-74549000D01*
X103176250Y-74549000D01*
X103335000Y-74390250D01*
X103335000Y-73799690D01*
X103238327Y-73566301D01*
X103059698Y-73387673D01*
X102826309Y-73291000D01*
X101885750Y-73291000D01*
X101727000Y-73449750D01*
X101473000Y-73449750D01*
X101314250Y-73291000D01*
X100373691Y-73291000D01*
X100140302Y-73387673D01*
X99961673Y-73566301D01*
X99865000Y-73799690D01*
X90635000Y-73799690D01*
X90538327Y-73566301D01*
X90359698Y-73387673D01*
X90126309Y-73291000D01*
X89185750Y-73291000D01*
X89027000Y-73449750D01*
X88773000Y-73449750D01*
X88614250Y-73291000D01*
X87673691Y-73291000D01*
X87440302Y-73387673D01*
X87261673Y-73566301D01*
X87165000Y-73799690D01*
X85924999Y-73799690D01*
X85924999Y-73203151D01*
X86134670Y-73290000D01*
X86745330Y-73290000D01*
X87309507Y-73056310D01*
X87690000Y-72675817D01*
X88070493Y-73056310D01*
X88634670Y-73290000D01*
X89245330Y-73290000D01*
X89809507Y-73056310D01*
X90190000Y-72675817D01*
X90570493Y-73056310D01*
X91134670Y-73290000D01*
X91745330Y-73290000D01*
X92309507Y-73056310D01*
X92741310Y-72624507D01*
X92776314Y-72540000D01*
X98311686Y-72540000D01*
X98346690Y-72624507D01*
X98346690Y-72624507D01*
G37*
X98346690Y-72624507D02*
X98778493Y-73056310D01*
X99342670Y-73290000D01*
X99953330Y-73290000D01*
X100517507Y-73056310D01*
X100898000Y-72675817D01*
X101278493Y-73056310D01*
X101842670Y-73290000D01*
X102453330Y-73290000D01*
X103017507Y-73056310D01*
X103398000Y-72675817D01*
X103778493Y-73056310D01*
X104342670Y-73290000D01*
X104953330Y-73290000D01*
X105163001Y-73203151D01*
X105163002Y-83564088D01*
X103313190Y-85413901D01*
X103112481Y-85113519D01*
X102670891Y-84818458D01*
X102281485Y-84741000D01*
X100918515Y-84741000D01*
X100529109Y-84818458D01*
X100087519Y-85113519D01*
X99792458Y-85555109D01*
X99688846Y-86076000D01*
X99792458Y-86596891D01*
X100087519Y-87038481D01*
X100529109Y-87333542D01*
X100918515Y-87411000D01*
X101316091Y-87411000D01*
X100772250Y-87954841D01*
X100604044Y-87988299D01*
X100604042Y-87988300D01*
X100604043Y-87988300D01*
X100391379Y-88130397D01*
X100391378Y-88130398D01*
X100319574Y-88178376D01*
X100317147Y-88182008D01*
X100223598Y-88163400D01*
X99928402Y-88163400D01*
X99491275Y-88250350D01*
X98995570Y-88581570D01*
X98794146Y-88883021D01*
X98742821Y-88773510D01*
X98310947Y-88379312D01*
X97895026Y-88207042D01*
X97663000Y-88328183D01*
X97663000Y-89535000D01*
X97683000Y-89535000D01*
X97683000Y-89789000D01*
X97663000Y-89789000D01*
X97663000Y-92075000D01*
X97683000Y-92075000D01*
X97683000Y-92329000D01*
X97663000Y-92329000D01*
X97663000Y-93535817D01*
X97895026Y-93656958D01*
X98310947Y-93484688D01*
X98596480Y-93224064D01*
X98614243Y-93313365D01*
X98754591Y-93523409D01*
X98964635Y-93663757D01*
X99212400Y-93713040D01*
X100370817Y-93713040D01*
X100445995Y-93788218D01*
X100493975Y-93860025D01*
X100565781Y-93908004D01*
X100778444Y-94050102D01*
X100830272Y-94060411D01*
X101029299Y-94100000D01*
X101029303Y-94100000D01*
X101114000Y-94116847D01*
X101198697Y-94100000D01*
X102946560Y-94100000D01*
X102946560Y-94290000D01*
X103014874Y-94633435D01*
X103122160Y-94794000D01*
X87123840Y-94794000D01*
X87231126Y-94633435D01*
X87299440Y-94290000D01*
X87299440Y-94100000D01*
X88793304Y-94100000D01*
X88878000Y-94116847D01*
X88962696Y-94100000D01*
X88962701Y-94100000D01*
X89213555Y-94050102D01*
X89498025Y-93860025D01*
X89546005Y-93788218D01*
X89655984Y-93678239D01*
X89768402Y-93700600D01*
X90063598Y-93700600D01*
X90500725Y-93613650D01*
X90996430Y-93282430D01*
X91197854Y-92980979D01*
X91249179Y-93090490D01*
X91681053Y-93484688D01*
X92096974Y-93656958D01*
X92329000Y-93535817D01*
X92329000Y-92329000D01*
X92583000Y-92329000D01*
X92583000Y-93535817D01*
X92815026Y-93656958D01*
X93230947Y-93484688D01*
X93662821Y-93090490D01*
X93726000Y-92955687D01*
X93789179Y-93090490D01*
X94221053Y-93484688D01*
X94636974Y-93656958D01*
X94869000Y-93535817D01*
X94869000Y-92329000D01*
X95123000Y-92329000D01*
X95123000Y-93535817D01*
X95355026Y-93656958D01*
X95770947Y-93484688D01*
X96202821Y-93090490D01*
X96266000Y-92955687D01*
X96329179Y-93090490D01*
X96761053Y-93484688D01*
X97176974Y-93656958D01*
X97409000Y-93535817D01*
X97409000Y-92329000D01*
X95123000Y-92329000D01*
X94869000Y-92329000D01*
X92583000Y-92329000D01*
X92329000Y-92329000D01*
X92309000Y-92329000D01*
X92309000Y-92075000D01*
X92329000Y-92075000D01*
X92329000Y-89789000D01*
X92583000Y-89789000D01*
X92583000Y-92075000D01*
X94869000Y-92075000D01*
X94869000Y-89789000D01*
X95123000Y-89789000D01*
X95123000Y-92075000D01*
X97409000Y-92075000D01*
X97409000Y-89789000D01*
X95123000Y-89789000D01*
X94869000Y-89789000D01*
X92583000Y-89789000D01*
X92329000Y-89789000D01*
X92309000Y-89789000D01*
X92309000Y-89535000D01*
X92329000Y-89535000D01*
X92329000Y-89515000D01*
X92583000Y-89515000D01*
X92583000Y-89535000D01*
X94869000Y-89535000D01*
X94869000Y-88328183D01*
X95123000Y-88328183D01*
X95123000Y-89535000D01*
X97409000Y-89535000D01*
X97409000Y-88328183D01*
X97176974Y-88207042D01*
X96761053Y-88379312D01*
X96329179Y-88773510D01*
X96266000Y-88908313D01*
X96202821Y-88773510D01*
X95770947Y-88379312D01*
X95355026Y-88207042D01*
X95123000Y-88328183D01*
X94869000Y-88328183D01*
X94636974Y-88207042D01*
X94221053Y-88379312D01*
X93789179Y-88773510D01*
X93726000Y-88908313D01*
X93662821Y-88773510D01*
X93230947Y-88379312D01*
X92815026Y-88207042D01*
X92583002Y-88328182D01*
X92583002Y-88211221D01*
X94782221Y-86012003D01*
X94854025Y-85964025D01*
X95044102Y-85679555D01*
X95094000Y-85428701D01*
X95094000Y-85428697D01*
X95110847Y-85344001D01*
X95094000Y-85259305D01*
X95094000Y-80359711D01*
X95111431Y-80342280D01*
X95269000Y-79961874D01*
X95269000Y-79550126D01*
X95111431Y-79169720D01*
X94820280Y-78878569D01*
X94439874Y-78721000D01*
X94028126Y-78721000D01*
X93647720Y-78878569D01*
X93356569Y-79169720D01*
X93199000Y-79550126D01*
X93199000Y-79961874D01*
X93356569Y-80342280D01*
X93374000Y-80359711D01*
X93374001Y-84987775D01*
X90176016Y-88185761D01*
X90063598Y-88163400D01*
X89768402Y-88163400D01*
X89655985Y-88185761D01*
X88881224Y-87411000D01*
X89581485Y-87411000D01*
X89970891Y-87333542D01*
X90412481Y-87038481D01*
X90707542Y-86596891D01*
X90811154Y-86076000D01*
X90707542Y-85555109D01*
X90412481Y-85113519D01*
X89970891Y-84818458D01*
X89581485Y-84741000D01*
X88218515Y-84741000D01*
X87829109Y-84818458D01*
X87387519Y-85113519D01*
X87092458Y-85555109D01*
X87081321Y-85611098D01*
X85924999Y-84454776D01*
X85924999Y-77776000D01*
X87037867Y-77776000D01*
X87145359Y-78316400D01*
X87451471Y-78774529D01*
X87909600Y-79080641D01*
X88313593Y-79161000D01*
X89486407Y-79161000D01*
X89890400Y-79080641D01*
X90348529Y-78774529D01*
X90654641Y-78316400D01*
X90762133Y-77776000D01*
X99737867Y-77776000D01*
X99845359Y-78316400D01*
X100151471Y-78774529D01*
X100609600Y-79080641D01*
X101013593Y-79161000D01*
X102186407Y-79161000D01*
X102590400Y-79080641D01*
X103048529Y-78774529D01*
X103354641Y-78316400D01*
X103462133Y-77776000D01*
X103354641Y-77235600D01*
X103048529Y-76777471D01*
X102590400Y-76471359D01*
X102186407Y-76391000D01*
X101013593Y-76391000D01*
X100609600Y-76471359D01*
X100151471Y-76777471D01*
X99845359Y-77235600D01*
X99737867Y-77776000D01*
X90762133Y-77776000D01*
X90654641Y-77235600D01*
X90348529Y-76777471D01*
X89890400Y-76471359D01*
X89486407Y-76391000D01*
X88313593Y-76391000D01*
X87909600Y-76471359D01*
X87451471Y-76777471D01*
X87145359Y-77235600D01*
X87037867Y-77776000D01*
X85924999Y-77776000D01*
X85924999Y-74961750D01*
X87165000Y-74961750D01*
X87165000Y-75552310D01*
X87261673Y-75785699D01*
X87440302Y-75964327D01*
X87673691Y-76061000D01*
X88614250Y-76061000D01*
X88773000Y-75902250D01*
X88773000Y-74803000D01*
X89027000Y-74803000D01*
X89027000Y-75902250D01*
X89185750Y-76061000D01*
X90126309Y-76061000D01*
X90359698Y-75964327D01*
X90538327Y-75785699D01*
X90635000Y-75552310D01*
X90635000Y-74961750D01*
X99865000Y-74961750D01*
X99865000Y-75552310D01*
X99961673Y-75785699D01*
X100140302Y-75964327D01*
X100373691Y-76061000D01*
X101314250Y-76061000D01*
X101473000Y-75902250D01*
X101473000Y-74803000D01*
X101727000Y-74803000D01*
X101727000Y-75902250D01*
X101885750Y-76061000D01*
X102826309Y-76061000D01*
X103059698Y-75964327D01*
X103238327Y-75785699D01*
X103335000Y-75552310D01*
X103335000Y-74961750D01*
X103176250Y-74803000D01*
X101727000Y-74803000D01*
X101473000Y-74803000D01*
X100023750Y-74803000D01*
X99865000Y-74961750D01*
X90635000Y-74961750D01*
X90476250Y-74803000D01*
X89027000Y-74803000D01*
X88773000Y-74803000D01*
X87323750Y-74803000D01*
X87165000Y-74961750D01*
X85924999Y-74961750D01*
X85924999Y-73799690D01*
X87165000Y-73799690D01*
X87165000Y-74390250D01*
X87323750Y-74549000D01*
X88773000Y-74549000D01*
X88773000Y-73449750D01*
X89027000Y-73449750D01*
X89027000Y-74549000D01*
X90476250Y-74549000D01*
X90635000Y-74390250D01*
X90635000Y-73799690D01*
X99865000Y-73799690D01*
X99865000Y-74390250D01*
X100023750Y-74549000D01*
X101473000Y-74549000D01*
X101473000Y-73449750D01*
X101727000Y-73449750D01*
X101727000Y-74549000D01*
X103176250Y-74549000D01*
X103335000Y-74390250D01*
X103335000Y-73799690D01*
X103238327Y-73566301D01*
X103059698Y-73387673D01*
X102826309Y-73291000D01*
X101885750Y-73291000D01*
X101727000Y-73449750D01*
X101473000Y-73449750D01*
X101314250Y-73291000D01*
X100373691Y-73291000D01*
X100140302Y-73387673D01*
X99961673Y-73566301D01*
X99865000Y-73799690D01*
X90635000Y-73799690D01*
X90538327Y-73566301D01*
X90359698Y-73387673D01*
X90126309Y-73291000D01*
X89185750Y-73291000D01*
X89027000Y-73449750D01*
X88773000Y-73449750D01*
X88614250Y-73291000D01*
X87673691Y-73291000D01*
X87440302Y-73387673D01*
X87261673Y-73566301D01*
X87165000Y-73799690D01*
X85924999Y-73799690D01*
X85924999Y-73203151D01*
X86134670Y-73290000D01*
X86745330Y-73290000D01*
X87309507Y-73056310D01*
X87690000Y-72675817D01*
X88070493Y-73056310D01*
X88634670Y-73290000D01*
X89245330Y-73290000D01*
X89809507Y-73056310D01*
X90190000Y-72675817D01*
X90570493Y-73056310D01*
X91134670Y-73290000D01*
X91745330Y-73290000D01*
X92309507Y-73056310D01*
X92741310Y-72624507D01*
X92776314Y-72540000D01*
X98311686Y-72540000D01*
X98346690Y-72624507D01*
G36*
X94586851Y-59142959D02*
X94353672Y-59201719D01*
X94181478Y-59693600D01*
X94210625Y-60213934D01*
X94353672Y-60559281D01*
X94586853Y-60618042D01*
X95324395Y-59880500D01*
X95310253Y-59866358D01*
X95489858Y-59686753D01*
X95504000Y-59700895D01*
X95518143Y-59686753D01*
X95697748Y-59866358D01*
X95683605Y-59880500D01*
X96421147Y-60618042D01*
X96654328Y-60559281D01*
X96826522Y-60067400D01*
X96797375Y-59547066D01*
X96654328Y-59201719D01*
X96421149Y-59142959D01*
X96434108Y-59130000D01*
X101005881Y-59130000D01*
X100997436Y-59138445D01*
X100798000Y-59619925D01*
X100798000Y-60141075D01*
X100997436Y-60622555D01*
X101236412Y-60861531D01*
X101297899Y-61170649D01*
X101439996Y-61383313D01*
X101439998Y-61383315D01*
X101487976Y-61455119D01*
X101559780Y-61503097D01*
X105163001Y-65106318D01*
X105163001Y-70306849D01*
X104953330Y-70220000D01*
X104342670Y-70220000D01*
X103778493Y-70453690D01*
X103398000Y-70834183D01*
X103017507Y-70453690D01*
X102453330Y-70220000D01*
X101842670Y-70220000D01*
X101278493Y-70453690D01*
X100898000Y-70834183D01*
X100517507Y-70453690D01*
X99953330Y-70220000D01*
X99342670Y-70220000D01*
X98778493Y-70453690D01*
X98346690Y-70885493D01*
X98311686Y-70970000D01*
X92776314Y-70970000D01*
X92741310Y-70885493D01*
X92309507Y-70453690D01*
X91745330Y-70220000D01*
X91134670Y-70220000D01*
X90570493Y-70453690D01*
X90190000Y-70834183D01*
X89809507Y-70453690D01*
X89245330Y-70220000D01*
X88634670Y-70220000D01*
X88070493Y-70453690D01*
X87690000Y-70834183D01*
X87309507Y-70453690D01*
X86745330Y-70220000D01*
X86134670Y-70220000D01*
X85924999Y-70306849D01*
X85924999Y-64382000D01*
X92805000Y-64382000D01*
X92805000Y-64732000D01*
X92951416Y-65214081D01*
X93271171Y-65603435D01*
X93715585Y-65840786D01*
X93764529Y-65848099D01*
X93963000Y-65724067D01*
X93963000Y-64382000D01*
X94217000Y-64382000D01*
X94217000Y-65724067D01*
X94415471Y-65848099D01*
X94464415Y-65840786D01*
X94908829Y-65603435D01*
X95228584Y-65214081D01*
X95375000Y-64732000D01*
X95375000Y-64382000D01*
X95713000Y-64382000D01*
X95713000Y-64732000D01*
X95859416Y-65214081D01*
X96179171Y-65603435D01*
X96623585Y-65840786D01*
X96672529Y-65848099D01*
X96871000Y-65724067D01*
X96871000Y-64382000D01*
X97125000Y-64382000D01*
X97125000Y-65724067D01*
X97323471Y-65848099D01*
X97372415Y-65840786D01*
X97816829Y-65603435D01*
X98136584Y-65214081D01*
X98283000Y-64732000D01*
X98283000Y-64382000D01*
X97125000Y-64382000D01*
X96871000Y-64382000D01*
X95713000Y-64382000D01*
X95375000Y-64382000D01*
X94217000Y-64382000D01*
X93963000Y-64382000D01*
X92805000Y-64382000D01*
X85924999Y-64382000D01*
X85924999Y-64071724D01*
X86218723Y-63778000D01*
X92805000Y-63778000D01*
X92805000Y-64128000D01*
X93963000Y-64128000D01*
X93963000Y-62785933D01*
X94217000Y-62785933D01*
X94217000Y-64128000D01*
X95375000Y-64128000D01*
X95375000Y-63778000D01*
X95713000Y-63778000D01*
X95713000Y-64128000D01*
X96871000Y-64128000D01*
X96871000Y-62785933D01*
X97125000Y-62785933D01*
X97125000Y-64128000D01*
X98283000Y-64128000D01*
X98283000Y-63778000D01*
X98136584Y-63295919D01*
X97816829Y-62906565D01*
X97372415Y-62669214D01*
X97323471Y-62661901D01*
X97125000Y-62785933D01*
X96871000Y-62785933D01*
X96672529Y-62661901D01*
X96623585Y-62669214D01*
X96179171Y-62906565D01*
X95859416Y-63295919D01*
X95713000Y-63778000D01*
X95375000Y-63778000D01*
X95228584Y-63295919D01*
X94908829Y-62906565D01*
X94464415Y-62669214D01*
X94415471Y-62661901D01*
X94217000Y-62785933D01*
X93963000Y-62785933D01*
X93764529Y-62661901D01*
X93715585Y-62669214D01*
X93271171Y-62906565D01*
X92951416Y-63295919D01*
X92805000Y-63778000D01*
X86218723Y-63778000D01*
X88806224Y-61190500D01*
X89160575Y-61190500D01*
X89642055Y-60991064D01*
X89835472Y-60797647D01*
X94766458Y-60797647D01*
X94825219Y-61030828D01*
X95317100Y-61203022D01*
X95837434Y-61173875D01*
X96182781Y-61030828D01*
X96241542Y-60797647D01*
X95504000Y-60060105D01*
X94766458Y-60797647D01*
X89835472Y-60797647D01*
X90010564Y-60622555D01*
X90210000Y-60141075D01*
X90210000Y-59619925D01*
X90010564Y-59138445D01*
X90002119Y-59130000D01*
X94573892Y-59130000D01*
X94586851Y-59142959D01*
X94586851Y-59142959D01*
G37*
X94586851Y-59142959D02*
X94353672Y-59201719D01*
X94181478Y-59693600D01*
X94210625Y-60213934D01*
X94353672Y-60559281D01*
X94586853Y-60618042D01*
X95324395Y-59880500D01*
X95310253Y-59866358D01*
X95489858Y-59686753D01*
X95504000Y-59700895D01*
X95518143Y-59686753D01*
X95697748Y-59866358D01*
X95683605Y-59880500D01*
X96421147Y-60618042D01*
X96654328Y-60559281D01*
X96826522Y-60067400D01*
X96797375Y-59547066D01*
X96654328Y-59201719D01*
X96421149Y-59142959D01*
X96434108Y-59130000D01*
X101005881Y-59130000D01*
X100997436Y-59138445D01*
X100798000Y-59619925D01*
X100798000Y-60141075D01*
X100997436Y-60622555D01*
X101236412Y-60861531D01*
X101297899Y-61170649D01*
X101439996Y-61383313D01*
X101439998Y-61383315D01*
X101487976Y-61455119D01*
X101559780Y-61503097D01*
X105163001Y-65106318D01*
X105163001Y-70306849D01*
X104953330Y-70220000D01*
X104342670Y-70220000D01*
X103778493Y-70453690D01*
X103398000Y-70834183D01*
X103017507Y-70453690D01*
X102453330Y-70220000D01*
X101842670Y-70220000D01*
X101278493Y-70453690D01*
X100898000Y-70834183D01*
X100517507Y-70453690D01*
X99953330Y-70220000D01*
X99342670Y-70220000D01*
X98778493Y-70453690D01*
X98346690Y-70885493D01*
X98311686Y-70970000D01*
X92776314Y-70970000D01*
X92741310Y-70885493D01*
X92309507Y-70453690D01*
X91745330Y-70220000D01*
X91134670Y-70220000D01*
X90570493Y-70453690D01*
X90190000Y-70834183D01*
X89809507Y-70453690D01*
X89245330Y-70220000D01*
X88634670Y-70220000D01*
X88070493Y-70453690D01*
X87690000Y-70834183D01*
X87309507Y-70453690D01*
X86745330Y-70220000D01*
X86134670Y-70220000D01*
X85924999Y-70306849D01*
X85924999Y-64382000D01*
X92805000Y-64382000D01*
X92805000Y-64732000D01*
X92951416Y-65214081D01*
X93271171Y-65603435D01*
X93715585Y-65840786D01*
X93764529Y-65848099D01*
X93963000Y-65724067D01*
X93963000Y-64382000D01*
X94217000Y-64382000D01*
X94217000Y-65724067D01*
X94415471Y-65848099D01*
X94464415Y-65840786D01*
X94908829Y-65603435D01*
X95228584Y-65214081D01*
X95375000Y-64732000D01*
X95375000Y-64382000D01*
X95713000Y-64382000D01*
X95713000Y-64732000D01*
X95859416Y-65214081D01*
X96179171Y-65603435D01*
X96623585Y-65840786D01*
X96672529Y-65848099D01*
X96871000Y-65724067D01*
X96871000Y-64382000D01*
X97125000Y-64382000D01*
X97125000Y-65724067D01*
X97323471Y-65848099D01*
X97372415Y-65840786D01*
X97816829Y-65603435D01*
X98136584Y-65214081D01*
X98283000Y-64732000D01*
X98283000Y-64382000D01*
X97125000Y-64382000D01*
X96871000Y-64382000D01*
X95713000Y-64382000D01*
X95375000Y-64382000D01*
X94217000Y-64382000D01*
X93963000Y-64382000D01*
X92805000Y-64382000D01*
X85924999Y-64382000D01*
X85924999Y-64071724D01*
X86218723Y-63778000D01*
X92805000Y-63778000D01*
X92805000Y-64128000D01*
X93963000Y-64128000D01*
X93963000Y-62785933D01*
X94217000Y-62785933D01*
X94217000Y-64128000D01*
X95375000Y-64128000D01*
X95375000Y-63778000D01*
X95713000Y-63778000D01*
X95713000Y-64128000D01*
X96871000Y-64128000D01*
X96871000Y-62785933D01*
X97125000Y-62785933D01*
X97125000Y-64128000D01*
X98283000Y-64128000D01*
X98283000Y-63778000D01*
X98136584Y-63295919D01*
X97816829Y-62906565D01*
X97372415Y-62669214D01*
X97323471Y-62661901D01*
X97125000Y-62785933D01*
X96871000Y-62785933D01*
X96672529Y-62661901D01*
X96623585Y-62669214D01*
X96179171Y-62906565D01*
X95859416Y-63295919D01*
X95713000Y-63778000D01*
X95375000Y-63778000D01*
X95228584Y-63295919D01*
X94908829Y-62906565D01*
X94464415Y-62669214D01*
X94415471Y-62661901D01*
X94217000Y-62785933D01*
X93963000Y-62785933D01*
X93764529Y-62661901D01*
X93715585Y-62669214D01*
X93271171Y-62906565D01*
X92951416Y-63295919D01*
X92805000Y-63778000D01*
X86218723Y-63778000D01*
X88806224Y-61190500D01*
X89160575Y-61190500D01*
X89642055Y-60991064D01*
X89835472Y-60797647D01*
X94766458Y-60797647D01*
X94825219Y-61030828D01*
X95317100Y-61203022D01*
X95837434Y-61173875D01*
X96182781Y-61030828D01*
X96241542Y-60797647D01*
X95504000Y-60060105D01*
X94766458Y-60797647D01*
X89835472Y-60797647D01*
X90010564Y-60622555D01*
X90210000Y-60141075D01*
X90210000Y-59619925D01*
X90010564Y-59138445D01*
X90002119Y-59130000D01*
X94573892Y-59130000D01*
X94586851Y-59142959D01*
G04 #@! TD*
M02*
