G04 #@! TF.GenerationSoftware,KiCad,Pcbnew,(5.0.1)-4*
G04 #@! TF.CreationDate,2019-03-05T01:38:52-06:00*
G04 #@! TF.ProjectId,util_LFO,7574696C5F4C464F2E6B696361645F70,rev?*
G04 #@! TF.SameCoordinates,Original*
G04 #@! TF.FileFunction,Soldermask,Bot*
G04 #@! TF.FilePolarity,Negative*
%FSLAX46Y46*%
G04 Gerber Fmt 4.6, Leading zero omitted, Abs format (unit mm)*
G04 Created by KiCad (PCBNEW (5.0.1)-4) date 3/5/2019 1:38:52*
%MOMM*%
%LPD*%
G01*
G04 APERTURE LIST*
%ADD10C,0.100000*%
G04 APERTURE END LIST*
D10*
G36*
X100990600Y-93116600D02*
X99161400Y-93116600D01*
X99161400Y-91287400D01*
X100990600Y-91287400D01*
X100990600Y-93116600D01*
X100990600Y-93116600D01*
G37*
G36*
X97715294Y-91300633D02*
X97887694Y-91352931D01*
X97887696Y-91352932D01*
X98046583Y-91437859D01*
X98046585Y-91437860D01*
X98046584Y-91437860D01*
X98185849Y-91552151D01*
X98300140Y-91691416D01*
X98385069Y-91850306D01*
X98437367Y-92022706D01*
X98455025Y-92202000D01*
X98437367Y-92381294D01*
X98385069Y-92553694D01*
X98385068Y-92553696D01*
X98300141Y-92712583D01*
X98185849Y-92851849D01*
X98046583Y-92966141D01*
X97887696Y-93051068D01*
X97887694Y-93051069D01*
X97715294Y-93103367D01*
X97580931Y-93116600D01*
X97491069Y-93116600D01*
X97356706Y-93103367D01*
X97184306Y-93051069D01*
X97184304Y-93051068D01*
X97025417Y-92966141D01*
X96886151Y-92851849D01*
X96771859Y-92712583D01*
X96686932Y-92553696D01*
X96686931Y-92553694D01*
X96634633Y-92381294D01*
X96616975Y-92202000D01*
X96634633Y-92022706D01*
X96686931Y-91850306D01*
X96771860Y-91691416D01*
X96886151Y-91552151D01*
X97025416Y-91437860D01*
X97025415Y-91437860D01*
X97025417Y-91437859D01*
X97184304Y-91352932D01*
X97184306Y-91352931D01*
X97356706Y-91300633D01*
X97491069Y-91287400D01*
X97580931Y-91287400D01*
X97715294Y-91300633D01*
X97715294Y-91300633D01*
G37*
G36*
X95175294Y-91300633D02*
X95347694Y-91352931D01*
X95347696Y-91352932D01*
X95506583Y-91437859D01*
X95506585Y-91437860D01*
X95506584Y-91437860D01*
X95645849Y-91552151D01*
X95760140Y-91691416D01*
X95845069Y-91850306D01*
X95897367Y-92022706D01*
X95915025Y-92202000D01*
X95897367Y-92381294D01*
X95845069Y-92553694D01*
X95845068Y-92553696D01*
X95760141Y-92712583D01*
X95645849Y-92851849D01*
X95506583Y-92966141D01*
X95347696Y-93051068D01*
X95347694Y-93051069D01*
X95175294Y-93103367D01*
X95040931Y-93116600D01*
X94951069Y-93116600D01*
X94816706Y-93103367D01*
X94644306Y-93051069D01*
X94644304Y-93051068D01*
X94485417Y-92966141D01*
X94346151Y-92851849D01*
X94231859Y-92712583D01*
X94146932Y-92553696D01*
X94146931Y-92553694D01*
X94094633Y-92381294D01*
X94076975Y-92202000D01*
X94094633Y-92022706D01*
X94146931Y-91850306D01*
X94231860Y-91691416D01*
X94346151Y-91552151D01*
X94485416Y-91437860D01*
X94485415Y-91437860D01*
X94485417Y-91437859D01*
X94644304Y-91352932D01*
X94644306Y-91352931D01*
X94816706Y-91300633D01*
X94951069Y-91287400D01*
X95040931Y-91287400D01*
X95175294Y-91300633D01*
X95175294Y-91300633D01*
G37*
G36*
X92635294Y-91300633D02*
X92807694Y-91352931D01*
X92807696Y-91352932D01*
X92966583Y-91437859D01*
X92966585Y-91437860D01*
X92966584Y-91437860D01*
X93105849Y-91552151D01*
X93220140Y-91691416D01*
X93305069Y-91850306D01*
X93357367Y-92022706D01*
X93375025Y-92202000D01*
X93357367Y-92381294D01*
X93305069Y-92553694D01*
X93305068Y-92553696D01*
X93220141Y-92712583D01*
X93105849Y-92851849D01*
X92966583Y-92966141D01*
X92807696Y-93051068D01*
X92807694Y-93051069D01*
X92635294Y-93103367D01*
X92500931Y-93116600D01*
X92411069Y-93116600D01*
X92276706Y-93103367D01*
X92104306Y-93051069D01*
X92104304Y-93051068D01*
X91945417Y-92966141D01*
X91806151Y-92851849D01*
X91691859Y-92712583D01*
X91606932Y-92553696D01*
X91606931Y-92553694D01*
X91554633Y-92381294D01*
X91536975Y-92202000D01*
X91554633Y-92022706D01*
X91606931Y-91850306D01*
X91691860Y-91691416D01*
X91806151Y-91552151D01*
X91945416Y-91437860D01*
X91945415Y-91437860D01*
X91945417Y-91437859D01*
X92104304Y-91352932D01*
X92104306Y-91352931D01*
X92276706Y-91300633D01*
X92411069Y-91287400D01*
X92500931Y-91287400D01*
X92635294Y-91300633D01*
X92635294Y-91300633D01*
G37*
G36*
X90095294Y-91300633D02*
X90267694Y-91352931D01*
X90267696Y-91352932D01*
X90426583Y-91437859D01*
X90426585Y-91437860D01*
X90426584Y-91437860D01*
X90565849Y-91552151D01*
X90680140Y-91691416D01*
X90765069Y-91850306D01*
X90817367Y-92022706D01*
X90835025Y-92202000D01*
X90817367Y-92381294D01*
X90765069Y-92553694D01*
X90765068Y-92553696D01*
X90680141Y-92712583D01*
X90565849Y-92851849D01*
X90426583Y-92966141D01*
X90267696Y-93051068D01*
X90267694Y-93051069D01*
X90095294Y-93103367D01*
X89960931Y-93116600D01*
X89871069Y-93116600D01*
X89736706Y-93103367D01*
X89564306Y-93051069D01*
X89564304Y-93051068D01*
X89405417Y-92966141D01*
X89266151Y-92851849D01*
X89151859Y-92712583D01*
X89066932Y-92553696D01*
X89066931Y-92553694D01*
X89014633Y-92381294D01*
X88996975Y-92202000D01*
X89014633Y-92022706D01*
X89066931Y-91850306D01*
X89151860Y-91691416D01*
X89266151Y-91552151D01*
X89405416Y-91437860D01*
X89405415Y-91437860D01*
X89405417Y-91437859D01*
X89564304Y-91352932D01*
X89564306Y-91352931D01*
X89736706Y-91300633D01*
X89871069Y-91287400D01*
X89960931Y-91287400D01*
X90095294Y-91300633D01*
X90095294Y-91300633D01*
G37*
G36*
X95175294Y-88760633D02*
X95347694Y-88812931D01*
X95347696Y-88812932D01*
X95506583Y-88897859D01*
X95506585Y-88897860D01*
X95506584Y-88897860D01*
X95645849Y-89012151D01*
X95760140Y-89151416D01*
X95845069Y-89310306D01*
X95897367Y-89482706D01*
X95915025Y-89662000D01*
X95897367Y-89841294D01*
X95845069Y-90013694D01*
X95845068Y-90013696D01*
X95760141Y-90172583D01*
X95645849Y-90311849D01*
X95506583Y-90426141D01*
X95347696Y-90511068D01*
X95347694Y-90511069D01*
X95175294Y-90563367D01*
X95040931Y-90576600D01*
X94951069Y-90576600D01*
X94816706Y-90563367D01*
X94644306Y-90511069D01*
X94644304Y-90511068D01*
X94485417Y-90426141D01*
X94346151Y-90311849D01*
X94231859Y-90172583D01*
X94146932Y-90013696D01*
X94146931Y-90013694D01*
X94094633Y-89841294D01*
X94076975Y-89662000D01*
X94094633Y-89482706D01*
X94146931Y-89310306D01*
X94231860Y-89151416D01*
X94346151Y-89012151D01*
X94485416Y-88897860D01*
X94485415Y-88897860D01*
X94485417Y-88897859D01*
X94644304Y-88812932D01*
X94644306Y-88812931D01*
X94816706Y-88760633D01*
X94951069Y-88747400D01*
X95040931Y-88747400D01*
X95175294Y-88760633D01*
X95175294Y-88760633D01*
G37*
G36*
X100255294Y-88760633D02*
X100427694Y-88812931D01*
X100427696Y-88812932D01*
X100586583Y-88897859D01*
X100586585Y-88897860D01*
X100586584Y-88897860D01*
X100725849Y-89012151D01*
X100840140Y-89151416D01*
X100925069Y-89310306D01*
X100977367Y-89482706D01*
X100995025Y-89662000D01*
X100977367Y-89841294D01*
X100925069Y-90013694D01*
X100925068Y-90013696D01*
X100840141Y-90172583D01*
X100725849Y-90311849D01*
X100586583Y-90426141D01*
X100427696Y-90511068D01*
X100427694Y-90511069D01*
X100255294Y-90563367D01*
X100120931Y-90576600D01*
X100031069Y-90576600D01*
X99896706Y-90563367D01*
X99724306Y-90511069D01*
X99724304Y-90511068D01*
X99565417Y-90426141D01*
X99426151Y-90311849D01*
X99311859Y-90172583D01*
X99226932Y-90013696D01*
X99226931Y-90013694D01*
X99174633Y-89841294D01*
X99156975Y-89662000D01*
X99174633Y-89482706D01*
X99226931Y-89310306D01*
X99311860Y-89151416D01*
X99426151Y-89012151D01*
X99565416Y-88897860D01*
X99565415Y-88897860D01*
X99565417Y-88897859D01*
X99724304Y-88812932D01*
X99724306Y-88812931D01*
X99896706Y-88760633D01*
X100031069Y-88747400D01*
X100120931Y-88747400D01*
X100255294Y-88760633D01*
X100255294Y-88760633D01*
G37*
G36*
X97715294Y-88760633D02*
X97887694Y-88812931D01*
X97887696Y-88812932D01*
X98046583Y-88897859D01*
X98046585Y-88897860D01*
X98046584Y-88897860D01*
X98185849Y-89012151D01*
X98300140Y-89151416D01*
X98385069Y-89310306D01*
X98437367Y-89482706D01*
X98455025Y-89662000D01*
X98437367Y-89841294D01*
X98385069Y-90013694D01*
X98385068Y-90013696D01*
X98300141Y-90172583D01*
X98185849Y-90311849D01*
X98046583Y-90426141D01*
X97887696Y-90511068D01*
X97887694Y-90511069D01*
X97715294Y-90563367D01*
X97580931Y-90576600D01*
X97491069Y-90576600D01*
X97356706Y-90563367D01*
X97184306Y-90511069D01*
X97184304Y-90511068D01*
X97025417Y-90426141D01*
X96886151Y-90311849D01*
X96771859Y-90172583D01*
X96686932Y-90013696D01*
X96686931Y-90013694D01*
X96634633Y-89841294D01*
X96616975Y-89662000D01*
X96634633Y-89482706D01*
X96686931Y-89310306D01*
X96771860Y-89151416D01*
X96886151Y-89012151D01*
X97025416Y-88897860D01*
X97025415Y-88897860D01*
X97025417Y-88897859D01*
X97184304Y-88812932D01*
X97184306Y-88812931D01*
X97356706Y-88760633D01*
X97491069Y-88747400D01*
X97580931Y-88747400D01*
X97715294Y-88760633D01*
X97715294Y-88760633D01*
G37*
G36*
X92635294Y-88760633D02*
X92807694Y-88812931D01*
X92807696Y-88812932D01*
X92966583Y-88897859D01*
X92966585Y-88897860D01*
X92966584Y-88897860D01*
X93105849Y-89012151D01*
X93220140Y-89151416D01*
X93305069Y-89310306D01*
X93357367Y-89482706D01*
X93375025Y-89662000D01*
X93357367Y-89841294D01*
X93305069Y-90013694D01*
X93305068Y-90013696D01*
X93220141Y-90172583D01*
X93105849Y-90311849D01*
X92966583Y-90426141D01*
X92807696Y-90511068D01*
X92807694Y-90511069D01*
X92635294Y-90563367D01*
X92500931Y-90576600D01*
X92411069Y-90576600D01*
X92276706Y-90563367D01*
X92104306Y-90511069D01*
X92104304Y-90511068D01*
X91945417Y-90426141D01*
X91806151Y-90311849D01*
X91691859Y-90172583D01*
X91606932Y-90013696D01*
X91606931Y-90013694D01*
X91554633Y-89841294D01*
X91536975Y-89662000D01*
X91554633Y-89482706D01*
X91606931Y-89310306D01*
X91691860Y-89151416D01*
X91806151Y-89012151D01*
X91945416Y-88897860D01*
X91945415Y-88897860D01*
X91945417Y-88897859D01*
X92104304Y-88812932D01*
X92104306Y-88812931D01*
X92276706Y-88760633D01*
X92411069Y-88747400D01*
X92500931Y-88747400D01*
X92635294Y-88760633D01*
X92635294Y-88760633D01*
G37*
G36*
X90095294Y-88760633D02*
X90267694Y-88812931D01*
X90267696Y-88812932D01*
X90426583Y-88897859D01*
X90426585Y-88897860D01*
X90426584Y-88897860D01*
X90565849Y-89012151D01*
X90680140Y-89151416D01*
X90765069Y-89310306D01*
X90817367Y-89482706D01*
X90835025Y-89662000D01*
X90817367Y-89841294D01*
X90765069Y-90013694D01*
X90765068Y-90013696D01*
X90680141Y-90172583D01*
X90565849Y-90311849D01*
X90426583Y-90426141D01*
X90267696Y-90511068D01*
X90267694Y-90511069D01*
X90095294Y-90563367D01*
X89960931Y-90576600D01*
X89871069Y-90576600D01*
X89736706Y-90563367D01*
X89564306Y-90511069D01*
X89564304Y-90511068D01*
X89405417Y-90426141D01*
X89266151Y-90311849D01*
X89151859Y-90172583D01*
X89066932Y-90013696D01*
X89066931Y-90013694D01*
X89014633Y-89841294D01*
X88996975Y-89662000D01*
X89014633Y-89482706D01*
X89066931Y-89310306D01*
X89151860Y-89151416D01*
X89266151Y-89012151D01*
X89405416Y-88897860D01*
X89405415Y-88897860D01*
X89405417Y-88897859D01*
X89564304Y-88812932D01*
X89564306Y-88812931D01*
X89736706Y-88760633D01*
X89871069Y-88747400D01*
X89960931Y-88747400D01*
X90095294Y-88760633D01*
X90095294Y-88760633D01*
G37*
G36*
X89523665Y-85328622D02*
X89597222Y-85335867D01*
X89738786Y-85378810D01*
X89869252Y-85448546D01*
X89983606Y-85542394D01*
X90077454Y-85656748D01*
X90147190Y-85787214D01*
X90190133Y-85928778D01*
X90204633Y-86076000D01*
X90190133Y-86223222D01*
X90147190Y-86364786D01*
X90077454Y-86495252D01*
X89983606Y-86609606D01*
X89869252Y-86703454D01*
X89738786Y-86773190D01*
X89597222Y-86816133D01*
X89523665Y-86823378D01*
X89486888Y-86827000D01*
X88313112Y-86827000D01*
X88276335Y-86823378D01*
X88202778Y-86816133D01*
X88061214Y-86773190D01*
X87930748Y-86703454D01*
X87816394Y-86609606D01*
X87722546Y-86495252D01*
X87652810Y-86364786D01*
X87609867Y-86223222D01*
X87595367Y-86076000D01*
X87609867Y-85928778D01*
X87652810Y-85787214D01*
X87722546Y-85656748D01*
X87816394Y-85542394D01*
X87930748Y-85448546D01*
X88061214Y-85378810D01*
X88202778Y-85335867D01*
X88276335Y-85328622D01*
X88313112Y-85325000D01*
X89486888Y-85325000D01*
X89523665Y-85328622D01*
X89523665Y-85328622D01*
G37*
G36*
X102223665Y-85328622D02*
X102297222Y-85335867D01*
X102438786Y-85378810D01*
X102569252Y-85448546D01*
X102683606Y-85542394D01*
X102777454Y-85656748D01*
X102847190Y-85787214D01*
X102890133Y-85928778D01*
X102904633Y-86076000D01*
X102890133Y-86223222D01*
X102847190Y-86364786D01*
X102777454Y-86495252D01*
X102683606Y-86609606D01*
X102569252Y-86703454D01*
X102438786Y-86773190D01*
X102297222Y-86816133D01*
X102223665Y-86823378D01*
X102186888Y-86827000D01*
X101013112Y-86827000D01*
X100976335Y-86823378D01*
X100902778Y-86816133D01*
X100761214Y-86773190D01*
X100630748Y-86703454D01*
X100516394Y-86609606D01*
X100422546Y-86495252D01*
X100352810Y-86364786D01*
X100309867Y-86223222D01*
X100295367Y-86076000D01*
X100309867Y-85928778D01*
X100352810Y-85787214D01*
X100422546Y-85656748D01*
X100516394Y-85542394D01*
X100630748Y-85448546D01*
X100761214Y-85378810D01*
X100902778Y-85335867D01*
X100976335Y-85328622D01*
X101013112Y-85325000D01*
X102186888Y-85325000D01*
X102223665Y-85328622D01*
X102223665Y-85328622D01*
G37*
G36*
X94629562Y-84472981D02*
X94664477Y-84483573D01*
X94696665Y-84500778D01*
X94724873Y-84523927D01*
X94748022Y-84552135D01*
X94765227Y-84584323D01*
X94775819Y-84619238D01*
X94780000Y-84661695D01*
X94780000Y-86127905D01*
X94775819Y-86170362D01*
X94765227Y-86205277D01*
X94748022Y-86237465D01*
X94724873Y-86265673D01*
X94696665Y-86288822D01*
X94664477Y-86306027D01*
X94629562Y-86316619D01*
X94587105Y-86320800D01*
X93445895Y-86320800D01*
X93403438Y-86316619D01*
X93368523Y-86306027D01*
X93336335Y-86288822D01*
X93308127Y-86265673D01*
X93284978Y-86237465D01*
X93267773Y-86205277D01*
X93257181Y-86170362D01*
X93253000Y-86127905D01*
X93253000Y-84661695D01*
X93257181Y-84619238D01*
X93267773Y-84584323D01*
X93284978Y-84552135D01*
X93308127Y-84523927D01*
X93336335Y-84500778D01*
X93368523Y-84483573D01*
X93403438Y-84472981D01*
X93445895Y-84468800D01*
X94587105Y-84468800D01*
X94629562Y-84472981D01*
X94629562Y-84472981D01*
G37*
G36*
X97604562Y-84472981D02*
X97639477Y-84483573D01*
X97671665Y-84500778D01*
X97699873Y-84523927D01*
X97723022Y-84552135D01*
X97740227Y-84584323D01*
X97750819Y-84619238D01*
X97755000Y-84661695D01*
X97755000Y-86127905D01*
X97750819Y-86170362D01*
X97740227Y-86205277D01*
X97723022Y-86237465D01*
X97699873Y-86265673D01*
X97671665Y-86288822D01*
X97639477Y-86306027D01*
X97604562Y-86316619D01*
X97562105Y-86320800D01*
X96420895Y-86320800D01*
X96378438Y-86316619D01*
X96343523Y-86306027D01*
X96311335Y-86288822D01*
X96283127Y-86265673D01*
X96259978Y-86237465D01*
X96242773Y-86205277D01*
X96232181Y-86170362D01*
X96228000Y-86127905D01*
X96228000Y-84661695D01*
X96232181Y-84619238D01*
X96242773Y-84584323D01*
X96259978Y-84552135D01*
X96283127Y-84523927D01*
X96311335Y-84500778D01*
X96343523Y-84483573D01*
X96378438Y-84472981D01*
X96420895Y-84468800D01*
X97562105Y-84468800D01*
X97604562Y-84472981D01*
X97604562Y-84472981D01*
G37*
G36*
X99030000Y-83790000D02*
X97378000Y-83790000D01*
X97378000Y-83088000D01*
X99030000Y-83088000D01*
X99030000Y-83790000D01*
X99030000Y-83790000D01*
G37*
G36*
X93630000Y-83790000D02*
X91978000Y-83790000D01*
X91978000Y-83088000D01*
X93630000Y-83088000D01*
X93630000Y-83790000D01*
X93630000Y-83790000D01*
G37*
G36*
X106185562Y-82262181D02*
X106220477Y-82272773D01*
X106252665Y-82289978D01*
X106280873Y-82313127D01*
X106304022Y-82341335D01*
X106321227Y-82373523D01*
X106331819Y-82408438D01*
X106336000Y-82450895D01*
X106336000Y-83592105D01*
X106331819Y-83634562D01*
X106321227Y-83669477D01*
X106304022Y-83701665D01*
X106280873Y-83729873D01*
X106252665Y-83753022D01*
X106220477Y-83770227D01*
X106185562Y-83780819D01*
X106143105Y-83785000D01*
X104676895Y-83785000D01*
X104634438Y-83780819D01*
X104599523Y-83770227D01*
X104567335Y-83753022D01*
X104539127Y-83729873D01*
X104515978Y-83701665D01*
X104498773Y-83669477D01*
X104488181Y-83634562D01*
X104484000Y-83592105D01*
X104484000Y-82450895D01*
X104488181Y-82408438D01*
X104498773Y-82373523D01*
X104515978Y-82341335D01*
X104539127Y-82313127D01*
X104567335Y-82289978D01*
X104599523Y-82272773D01*
X104634438Y-82262181D01*
X104676895Y-82258000D01*
X106143105Y-82258000D01*
X106185562Y-82262181D01*
X106185562Y-82262181D01*
G37*
G36*
X90945562Y-82262181D02*
X90980477Y-82272773D01*
X91012665Y-82289978D01*
X91040873Y-82313127D01*
X91064022Y-82341335D01*
X91081227Y-82373523D01*
X91091819Y-82408438D01*
X91096000Y-82450895D01*
X91096000Y-83592105D01*
X91091819Y-83634562D01*
X91081227Y-83669477D01*
X91064022Y-83701665D01*
X91040873Y-83729873D01*
X91012665Y-83753022D01*
X90980477Y-83770227D01*
X90945562Y-83780819D01*
X90903105Y-83785000D01*
X89436895Y-83785000D01*
X89394438Y-83780819D01*
X89359523Y-83770227D01*
X89327335Y-83753022D01*
X89299127Y-83729873D01*
X89275978Y-83701665D01*
X89258773Y-83669477D01*
X89248181Y-83634562D01*
X89244000Y-83592105D01*
X89244000Y-82450895D01*
X89248181Y-82408438D01*
X89258773Y-82373523D01*
X89275978Y-82341335D01*
X89299127Y-82313127D01*
X89327335Y-82289978D01*
X89359523Y-82272773D01*
X89394438Y-82262181D01*
X89436895Y-82258000D01*
X90903105Y-82258000D01*
X90945562Y-82262181D01*
X90945562Y-82262181D01*
G37*
G36*
X88405562Y-82262181D02*
X88440477Y-82272773D01*
X88472665Y-82289978D01*
X88500873Y-82313127D01*
X88524022Y-82341335D01*
X88541227Y-82373523D01*
X88551819Y-82408438D01*
X88556000Y-82450895D01*
X88556000Y-83592105D01*
X88551819Y-83634562D01*
X88541227Y-83669477D01*
X88524022Y-83701665D01*
X88500873Y-83729873D01*
X88472665Y-83753022D01*
X88440477Y-83770227D01*
X88405562Y-83780819D01*
X88363105Y-83785000D01*
X86896895Y-83785000D01*
X86854438Y-83780819D01*
X86819523Y-83770227D01*
X86787335Y-83753022D01*
X86759127Y-83729873D01*
X86735978Y-83701665D01*
X86718773Y-83669477D01*
X86708181Y-83634562D01*
X86704000Y-83592105D01*
X86704000Y-82450895D01*
X86708181Y-82408438D01*
X86718773Y-82373523D01*
X86735978Y-82341335D01*
X86759127Y-82313127D01*
X86787335Y-82289978D01*
X86819523Y-82272773D01*
X86854438Y-82262181D01*
X86896895Y-82258000D01*
X88363105Y-82258000D01*
X88405562Y-82262181D01*
X88405562Y-82262181D01*
G37*
G36*
X85865562Y-82262181D02*
X85900477Y-82272773D01*
X85932665Y-82289978D01*
X85960873Y-82313127D01*
X85984022Y-82341335D01*
X86001227Y-82373523D01*
X86011819Y-82408438D01*
X86016000Y-82450895D01*
X86016000Y-83592105D01*
X86011819Y-83634562D01*
X86001227Y-83669477D01*
X85984022Y-83701665D01*
X85960873Y-83729873D01*
X85932665Y-83753022D01*
X85900477Y-83770227D01*
X85865562Y-83780819D01*
X85823105Y-83785000D01*
X84356895Y-83785000D01*
X84314438Y-83780819D01*
X84279523Y-83770227D01*
X84247335Y-83753022D01*
X84219127Y-83729873D01*
X84195978Y-83701665D01*
X84178773Y-83669477D01*
X84168181Y-83634562D01*
X84164000Y-83592105D01*
X84164000Y-82450895D01*
X84168181Y-82408438D01*
X84178773Y-82373523D01*
X84195978Y-82341335D01*
X84219127Y-82313127D01*
X84247335Y-82289978D01*
X84279523Y-82272773D01*
X84314438Y-82262181D01*
X84356895Y-82258000D01*
X85823105Y-82258000D01*
X85865562Y-82262181D01*
X85865562Y-82262181D01*
G37*
G36*
X103899562Y-82262181D02*
X103934477Y-82272773D01*
X103966665Y-82289978D01*
X103994873Y-82313127D01*
X104018022Y-82341335D01*
X104035227Y-82373523D01*
X104045819Y-82408438D01*
X104050000Y-82450895D01*
X104050000Y-83592105D01*
X104045819Y-83634562D01*
X104035227Y-83669477D01*
X104018022Y-83701665D01*
X103994873Y-83729873D01*
X103966665Y-83753022D01*
X103934477Y-83770227D01*
X103899562Y-83780819D01*
X103857105Y-83785000D01*
X102390895Y-83785000D01*
X102348438Y-83780819D01*
X102313523Y-83770227D01*
X102281335Y-83753022D01*
X102253127Y-83729873D01*
X102229978Y-83701665D01*
X102212773Y-83669477D01*
X102202181Y-83634562D01*
X102198000Y-83592105D01*
X102198000Y-82450895D01*
X102202181Y-82408438D01*
X102212773Y-82373523D01*
X102229978Y-82341335D01*
X102253127Y-82313127D01*
X102281335Y-82289978D01*
X102313523Y-82272773D01*
X102348438Y-82262181D01*
X102390895Y-82258000D01*
X103857105Y-82258000D01*
X103899562Y-82262181D01*
X103899562Y-82262181D01*
G37*
G36*
X101613562Y-82262181D02*
X101648477Y-82272773D01*
X101680665Y-82289978D01*
X101708873Y-82313127D01*
X101732022Y-82341335D01*
X101749227Y-82373523D01*
X101759819Y-82408438D01*
X101764000Y-82450895D01*
X101764000Y-83592105D01*
X101759819Y-83634562D01*
X101749227Y-83669477D01*
X101732022Y-83701665D01*
X101708873Y-83729873D01*
X101680665Y-83753022D01*
X101648477Y-83770227D01*
X101613562Y-83780819D01*
X101571105Y-83785000D01*
X100104895Y-83785000D01*
X100062438Y-83780819D01*
X100027523Y-83770227D01*
X99995335Y-83753022D01*
X99967127Y-83729873D01*
X99943978Y-83701665D01*
X99926773Y-83669477D01*
X99916181Y-83634562D01*
X99912000Y-83592105D01*
X99912000Y-82450895D01*
X99916181Y-82408438D01*
X99926773Y-82373523D01*
X99943978Y-82341335D01*
X99967127Y-82313127D01*
X99995335Y-82289978D01*
X100027523Y-82272773D01*
X100062438Y-82262181D01*
X100104895Y-82258000D01*
X101571105Y-82258000D01*
X101613562Y-82262181D01*
X101613562Y-82262181D01*
G37*
G36*
X93630000Y-82520000D02*
X91978000Y-82520000D01*
X91978000Y-81818000D01*
X93630000Y-81818000D01*
X93630000Y-82520000D01*
X93630000Y-82520000D01*
G37*
G36*
X99030000Y-82520000D02*
X97378000Y-82520000D01*
X97378000Y-81818000D01*
X99030000Y-81818000D01*
X99030000Y-82520000D01*
X99030000Y-82520000D01*
G37*
G36*
X99030000Y-81250000D02*
X97378000Y-81250000D01*
X97378000Y-80548000D01*
X99030000Y-80548000D01*
X99030000Y-81250000D01*
X99030000Y-81250000D01*
G37*
G36*
X93630000Y-81250000D02*
X91978000Y-81250000D01*
X91978000Y-80548000D01*
X93630000Y-80548000D01*
X93630000Y-81250000D01*
X93630000Y-81250000D01*
G37*
G36*
X101613562Y-79287181D02*
X101648477Y-79297773D01*
X101680665Y-79314978D01*
X101708873Y-79338127D01*
X101732022Y-79366335D01*
X101749227Y-79398523D01*
X101759819Y-79433438D01*
X101764000Y-79475895D01*
X101764000Y-80617105D01*
X101759819Y-80659562D01*
X101749227Y-80694477D01*
X101732022Y-80726665D01*
X101708873Y-80754873D01*
X101680665Y-80778022D01*
X101648477Y-80795227D01*
X101613562Y-80805819D01*
X101571105Y-80810000D01*
X100104895Y-80810000D01*
X100062438Y-80805819D01*
X100027523Y-80795227D01*
X99995335Y-80778022D01*
X99967127Y-80754873D01*
X99943978Y-80726665D01*
X99926773Y-80694477D01*
X99916181Y-80659562D01*
X99912000Y-80617105D01*
X99912000Y-79475895D01*
X99916181Y-79433438D01*
X99926773Y-79398523D01*
X99943978Y-79366335D01*
X99967127Y-79338127D01*
X99995335Y-79314978D01*
X100027523Y-79297773D01*
X100062438Y-79287181D01*
X100104895Y-79283000D01*
X101571105Y-79283000D01*
X101613562Y-79287181D01*
X101613562Y-79287181D01*
G37*
G36*
X88405562Y-79287181D02*
X88440477Y-79297773D01*
X88472665Y-79314978D01*
X88500873Y-79338127D01*
X88524022Y-79366335D01*
X88541227Y-79398523D01*
X88551819Y-79433438D01*
X88556000Y-79475895D01*
X88556000Y-80617105D01*
X88551819Y-80659562D01*
X88541227Y-80694477D01*
X88524022Y-80726665D01*
X88500873Y-80754873D01*
X88472665Y-80778022D01*
X88440477Y-80795227D01*
X88405562Y-80805819D01*
X88363105Y-80810000D01*
X86896895Y-80810000D01*
X86854438Y-80805819D01*
X86819523Y-80795227D01*
X86787335Y-80778022D01*
X86759127Y-80754873D01*
X86735978Y-80726665D01*
X86718773Y-80694477D01*
X86708181Y-80659562D01*
X86704000Y-80617105D01*
X86704000Y-79475895D01*
X86708181Y-79433438D01*
X86718773Y-79398523D01*
X86735978Y-79366335D01*
X86759127Y-79338127D01*
X86787335Y-79314978D01*
X86819523Y-79297773D01*
X86854438Y-79287181D01*
X86896895Y-79283000D01*
X88363105Y-79283000D01*
X88405562Y-79287181D01*
X88405562Y-79287181D01*
G37*
G36*
X85865562Y-79287181D02*
X85900477Y-79297773D01*
X85932665Y-79314978D01*
X85960873Y-79338127D01*
X85984022Y-79366335D01*
X86001227Y-79398523D01*
X86011819Y-79433438D01*
X86016000Y-79475895D01*
X86016000Y-80617105D01*
X86011819Y-80659562D01*
X86001227Y-80694477D01*
X85984022Y-80726665D01*
X85960873Y-80754873D01*
X85932665Y-80778022D01*
X85900477Y-80795227D01*
X85865562Y-80805819D01*
X85823105Y-80810000D01*
X84356895Y-80810000D01*
X84314438Y-80805819D01*
X84279523Y-80795227D01*
X84247335Y-80778022D01*
X84219127Y-80754873D01*
X84195978Y-80726665D01*
X84178773Y-80694477D01*
X84168181Y-80659562D01*
X84164000Y-80617105D01*
X84164000Y-79475895D01*
X84168181Y-79433438D01*
X84178773Y-79398523D01*
X84195978Y-79366335D01*
X84219127Y-79338127D01*
X84247335Y-79314978D01*
X84279523Y-79297773D01*
X84314438Y-79287181D01*
X84356895Y-79283000D01*
X85823105Y-79283000D01*
X85865562Y-79287181D01*
X85865562Y-79287181D01*
G37*
G36*
X106185562Y-79287181D02*
X106220477Y-79297773D01*
X106252665Y-79314978D01*
X106280873Y-79338127D01*
X106304022Y-79366335D01*
X106321227Y-79398523D01*
X106331819Y-79433438D01*
X106336000Y-79475895D01*
X106336000Y-80617105D01*
X106331819Y-80659562D01*
X106321227Y-80694477D01*
X106304022Y-80726665D01*
X106280873Y-80754873D01*
X106252665Y-80778022D01*
X106220477Y-80795227D01*
X106185562Y-80805819D01*
X106143105Y-80810000D01*
X104676895Y-80810000D01*
X104634438Y-80805819D01*
X104599523Y-80795227D01*
X104567335Y-80778022D01*
X104539127Y-80754873D01*
X104515978Y-80726665D01*
X104498773Y-80694477D01*
X104488181Y-80659562D01*
X104484000Y-80617105D01*
X104484000Y-79475895D01*
X104488181Y-79433438D01*
X104498773Y-79398523D01*
X104515978Y-79366335D01*
X104539127Y-79338127D01*
X104567335Y-79314978D01*
X104599523Y-79297773D01*
X104634438Y-79287181D01*
X104676895Y-79283000D01*
X106143105Y-79283000D01*
X106185562Y-79287181D01*
X106185562Y-79287181D01*
G37*
G36*
X103899562Y-79287181D02*
X103934477Y-79297773D01*
X103966665Y-79314978D01*
X103994873Y-79338127D01*
X104018022Y-79366335D01*
X104035227Y-79398523D01*
X104045819Y-79433438D01*
X104050000Y-79475895D01*
X104050000Y-80617105D01*
X104045819Y-80659562D01*
X104035227Y-80694477D01*
X104018022Y-80726665D01*
X103994873Y-80754873D01*
X103966665Y-80778022D01*
X103934477Y-80795227D01*
X103899562Y-80805819D01*
X103857105Y-80810000D01*
X102390895Y-80810000D01*
X102348438Y-80805819D01*
X102313523Y-80795227D01*
X102281335Y-80778022D01*
X102253127Y-80754873D01*
X102229978Y-80726665D01*
X102212773Y-80694477D01*
X102202181Y-80659562D01*
X102198000Y-80617105D01*
X102198000Y-79475895D01*
X102202181Y-79433438D01*
X102212773Y-79398523D01*
X102229978Y-79366335D01*
X102253127Y-79338127D01*
X102281335Y-79314978D01*
X102313523Y-79297773D01*
X102348438Y-79287181D01*
X102390895Y-79283000D01*
X103857105Y-79283000D01*
X103899562Y-79287181D01*
X103899562Y-79287181D01*
G37*
G36*
X90945562Y-79287181D02*
X90980477Y-79297773D01*
X91012665Y-79314978D01*
X91040873Y-79338127D01*
X91064022Y-79366335D01*
X91081227Y-79398523D01*
X91091819Y-79433438D01*
X91096000Y-79475895D01*
X91096000Y-80617105D01*
X91091819Y-80659562D01*
X91081227Y-80694477D01*
X91064022Y-80726665D01*
X91040873Y-80754873D01*
X91012665Y-80778022D01*
X90980477Y-80795227D01*
X90945562Y-80805819D01*
X90903105Y-80810000D01*
X89436895Y-80810000D01*
X89394438Y-80805819D01*
X89359523Y-80795227D01*
X89327335Y-80778022D01*
X89299127Y-80754873D01*
X89275978Y-80726665D01*
X89258773Y-80694477D01*
X89248181Y-80659562D01*
X89244000Y-80617105D01*
X89244000Y-79475895D01*
X89248181Y-79433438D01*
X89258773Y-79398523D01*
X89275978Y-79366335D01*
X89299127Y-79338127D01*
X89327335Y-79314978D01*
X89359523Y-79297773D01*
X89394438Y-79287181D01*
X89436895Y-79283000D01*
X90903105Y-79283000D01*
X90945562Y-79287181D01*
X90945562Y-79287181D01*
G37*
G36*
X99030000Y-79980000D02*
X97378000Y-79980000D01*
X97378000Y-79278000D01*
X99030000Y-79278000D01*
X99030000Y-79980000D01*
X99030000Y-79980000D01*
G37*
G36*
X93630000Y-79980000D02*
X91978000Y-79980000D01*
X91978000Y-79278000D01*
X93630000Y-79278000D01*
X93630000Y-79980000D01*
X93630000Y-79980000D01*
G37*
G36*
X102207025Y-76986590D02*
X102358012Y-77032392D01*
X102497165Y-77106770D01*
X102619133Y-77206867D01*
X102719230Y-77328835D01*
X102793608Y-77467988D01*
X102839410Y-77618975D01*
X102854875Y-77776000D01*
X102839410Y-77933025D01*
X102793608Y-78084012D01*
X102719230Y-78223165D01*
X102619133Y-78345133D01*
X102497165Y-78445230D01*
X102358012Y-78519608D01*
X102207025Y-78565410D01*
X102089346Y-78577000D01*
X101110654Y-78577000D01*
X100992975Y-78565410D01*
X100841988Y-78519608D01*
X100702835Y-78445230D01*
X100580867Y-78345133D01*
X100480770Y-78223165D01*
X100406392Y-78084012D01*
X100360590Y-77933025D01*
X100345125Y-77776000D01*
X100360590Y-77618975D01*
X100406392Y-77467988D01*
X100480770Y-77328835D01*
X100580867Y-77206867D01*
X100702835Y-77106770D01*
X100841988Y-77032392D01*
X100992975Y-76986590D01*
X101110654Y-76975000D01*
X102089346Y-76975000D01*
X102207025Y-76986590D01*
X102207025Y-76986590D01*
G37*
G36*
X89507025Y-76986590D02*
X89658012Y-77032392D01*
X89797165Y-77106770D01*
X89919133Y-77206867D01*
X90019230Y-77328835D01*
X90093608Y-77467988D01*
X90139410Y-77618975D01*
X90154875Y-77776000D01*
X90139410Y-77933025D01*
X90093608Y-78084012D01*
X90019230Y-78223165D01*
X89919133Y-78345133D01*
X89797165Y-78445230D01*
X89658012Y-78519608D01*
X89507025Y-78565410D01*
X89389346Y-78577000D01*
X88410654Y-78577000D01*
X88292975Y-78565410D01*
X88141988Y-78519608D01*
X88002835Y-78445230D01*
X87880867Y-78345133D01*
X87780770Y-78223165D01*
X87706392Y-78084012D01*
X87660590Y-77933025D01*
X87645125Y-77776000D01*
X87660590Y-77618975D01*
X87706392Y-77467988D01*
X87780770Y-77328835D01*
X87880867Y-77206867D01*
X88002835Y-77106770D01*
X88141988Y-77032392D01*
X88292975Y-76986590D01*
X88410654Y-76975000D01*
X89389346Y-76975000D01*
X89507025Y-76986590D01*
X89507025Y-76986590D01*
G37*
G36*
X97604562Y-75786181D02*
X97639477Y-75796773D01*
X97671665Y-75813978D01*
X97699873Y-75837127D01*
X97723022Y-75865335D01*
X97740227Y-75897523D01*
X97750819Y-75932438D01*
X97755000Y-75974895D01*
X97755000Y-77441105D01*
X97750819Y-77483562D01*
X97740227Y-77518477D01*
X97723022Y-77550665D01*
X97699873Y-77578873D01*
X97671665Y-77602022D01*
X97639477Y-77619227D01*
X97604562Y-77629819D01*
X97562105Y-77634000D01*
X96420895Y-77634000D01*
X96378438Y-77629819D01*
X96343523Y-77619227D01*
X96311335Y-77602022D01*
X96283127Y-77578873D01*
X96259978Y-77550665D01*
X96242773Y-77518477D01*
X96232181Y-77483562D01*
X96228000Y-77441105D01*
X96228000Y-75974895D01*
X96232181Y-75932438D01*
X96242773Y-75897523D01*
X96259978Y-75865335D01*
X96283127Y-75837127D01*
X96311335Y-75813978D01*
X96343523Y-75796773D01*
X96378438Y-75786181D01*
X96420895Y-75782000D01*
X97562105Y-75782000D01*
X97604562Y-75786181D01*
X97604562Y-75786181D01*
G37*
G36*
X94629562Y-75786181D02*
X94664477Y-75796773D01*
X94696665Y-75813978D01*
X94724873Y-75837127D01*
X94748022Y-75865335D01*
X94765227Y-75897523D01*
X94775819Y-75932438D01*
X94780000Y-75974895D01*
X94780000Y-77441105D01*
X94775819Y-77483562D01*
X94765227Y-77518477D01*
X94748022Y-77550665D01*
X94724873Y-77578873D01*
X94696665Y-77602022D01*
X94664477Y-77619227D01*
X94629562Y-77629819D01*
X94587105Y-77634000D01*
X93445895Y-77634000D01*
X93403438Y-77629819D01*
X93368523Y-77619227D01*
X93336335Y-77602022D01*
X93308127Y-77578873D01*
X93284978Y-77550665D01*
X93267773Y-77518477D01*
X93257181Y-77483562D01*
X93253000Y-77441105D01*
X93253000Y-75974895D01*
X93257181Y-75932438D01*
X93267773Y-75897523D01*
X93284978Y-75865335D01*
X93308127Y-75837127D01*
X93336335Y-75813978D01*
X93368523Y-75796773D01*
X93403438Y-75786181D01*
X93445895Y-75782000D01*
X94587105Y-75782000D01*
X94629562Y-75786181D01*
X94629562Y-75786181D01*
G37*
G36*
X90051000Y-75477000D02*
X87749000Y-75477000D01*
X87749000Y-73875000D01*
X90051000Y-73875000D01*
X90051000Y-75477000D01*
X90051000Y-75477000D01*
G37*
G36*
X102751000Y-75477000D02*
X100449000Y-75477000D01*
X100449000Y-73875000D01*
X102751000Y-73875000D01*
X102751000Y-75477000D01*
X102751000Y-75477000D01*
G37*
G36*
X97604562Y-73500181D02*
X97639477Y-73510773D01*
X97671665Y-73527978D01*
X97699873Y-73551127D01*
X97723022Y-73579335D01*
X97740227Y-73611523D01*
X97750819Y-73646438D01*
X97755000Y-73688895D01*
X97755000Y-75155105D01*
X97750819Y-75197562D01*
X97740227Y-75232477D01*
X97723022Y-75264665D01*
X97699873Y-75292873D01*
X97671665Y-75316022D01*
X97639477Y-75333227D01*
X97604562Y-75343819D01*
X97562105Y-75348000D01*
X96420895Y-75348000D01*
X96378438Y-75343819D01*
X96343523Y-75333227D01*
X96311335Y-75316022D01*
X96283127Y-75292873D01*
X96259978Y-75264665D01*
X96242773Y-75232477D01*
X96232181Y-75197562D01*
X96228000Y-75155105D01*
X96228000Y-73688895D01*
X96232181Y-73646438D01*
X96242773Y-73611523D01*
X96259978Y-73579335D01*
X96283127Y-73551127D01*
X96311335Y-73527978D01*
X96343523Y-73510773D01*
X96378438Y-73500181D01*
X96420895Y-73496000D01*
X97562105Y-73496000D01*
X97604562Y-73500181D01*
X97604562Y-73500181D01*
G37*
G36*
X94629562Y-73500181D02*
X94664477Y-73510773D01*
X94696665Y-73527978D01*
X94724873Y-73551127D01*
X94748022Y-73579335D01*
X94765227Y-73611523D01*
X94775819Y-73646438D01*
X94780000Y-73688895D01*
X94780000Y-75155105D01*
X94775819Y-75197562D01*
X94765227Y-75232477D01*
X94748022Y-75264665D01*
X94724873Y-75292873D01*
X94696665Y-75316022D01*
X94664477Y-75333227D01*
X94629562Y-75343819D01*
X94587105Y-75348000D01*
X93445895Y-75348000D01*
X93403438Y-75343819D01*
X93368523Y-75333227D01*
X93336335Y-75316022D01*
X93308127Y-75292873D01*
X93284978Y-75264665D01*
X93267773Y-75232477D01*
X93257181Y-75197562D01*
X93253000Y-75155105D01*
X93253000Y-73688895D01*
X93257181Y-73646438D01*
X93267773Y-73611523D01*
X93284978Y-73579335D01*
X93308127Y-73551127D01*
X93336335Y-73527978D01*
X93368523Y-73510773D01*
X93403438Y-73500181D01*
X93445895Y-73496000D01*
X94587105Y-73496000D01*
X94629562Y-73500181D01*
X94629562Y-73500181D01*
G37*
G36*
X99925396Y-70840546D02*
X100098466Y-70912234D01*
X100254230Y-71016312D01*
X100386688Y-71148770D01*
X100490766Y-71304534D01*
X100562454Y-71477604D01*
X100599000Y-71661333D01*
X100599000Y-71848667D01*
X100562454Y-72032396D01*
X100490766Y-72205466D01*
X100386688Y-72361230D01*
X100254230Y-72493688D01*
X100098466Y-72597766D01*
X99925396Y-72669454D01*
X99741667Y-72706000D01*
X99554333Y-72706000D01*
X99370604Y-72669454D01*
X99197534Y-72597766D01*
X99041770Y-72493688D01*
X98909312Y-72361230D01*
X98805234Y-72205466D01*
X98733546Y-72032396D01*
X98697000Y-71848667D01*
X98697000Y-71661333D01*
X98733546Y-71477604D01*
X98805234Y-71304534D01*
X98909312Y-71148770D01*
X99041770Y-71016312D01*
X99197534Y-70912234D01*
X99370604Y-70840546D01*
X99554333Y-70804000D01*
X99741667Y-70804000D01*
X99925396Y-70840546D01*
X99925396Y-70840546D01*
G37*
G36*
X86717396Y-70840546D02*
X86890466Y-70912234D01*
X87046230Y-71016312D01*
X87178688Y-71148770D01*
X87282766Y-71304534D01*
X87354454Y-71477604D01*
X87391000Y-71661333D01*
X87391000Y-71848667D01*
X87354454Y-72032396D01*
X87282766Y-72205466D01*
X87178688Y-72361230D01*
X87046230Y-72493688D01*
X86890466Y-72597766D01*
X86717396Y-72669454D01*
X86533667Y-72706000D01*
X86346333Y-72706000D01*
X86162604Y-72669454D01*
X85989534Y-72597766D01*
X85833770Y-72493688D01*
X85701312Y-72361230D01*
X85597234Y-72205466D01*
X85525546Y-72032396D01*
X85489000Y-71848667D01*
X85489000Y-71661333D01*
X85525546Y-71477604D01*
X85597234Y-71304534D01*
X85701312Y-71148770D01*
X85833770Y-71016312D01*
X85989534Y-70912234D01*
X86162604Y-70840546D01*
X86346333Y-70804000D01*
X86533667Y-70804000D01*
X86717396Y-70840546D01*
X86717396Y-70840546D01*
G37*
G36*
X91717396Y-70840546D02*
X91890466Y-70912234D01*
X92046230Y-71016312D01*
X92178688Y-71148770D01*
X92282766Y-71304534D01*
X92354454Y-71477604D01*
X92391000Y-71661333D01*
X92391000Y-71848667D01*
X92354454Y-72032396D01*
X92282766Y-72205466D01*
X92178688Y-72361230D01*
X92046230Y-72493688D01*
X91890466Y-72597766D01*
X91717396Y-72669454D01*
X91533667Y-72706000D01*
X91346333Y-72706000D01*
X91162604Y-72669454D01*
X90989534Y-72597766D01*
X90833770Y-72493688D01*
X90701312Y-72361230D01*
X90597234Y-72205466D01*
X90525546Y-72032396D01*
X90489000Y-71848667D01*
X90489000Y-71661333D01*
X90525546Y-71477604D01*
X90597234Y-71304534D01*
X90701312Y-71148770D01*
X90833770Y-71016312D01*
X90989534Y-70912234D01*
X91162604Y-70840546D01*
X91346333Y-70804000D01*
X91533667Y-70804000D01*
X91717396Y-70840546D01*
X91717396Y-70840546D01*
G37*
G36*
X102425396Y-70840546D02*
X102598466Y-70912234D01*
X102754230Y-71016312D01*
X102886688Y-71148770D01*
X102990766Y-71304534D01*
X103062454Y-71477604D01*
X103099000Y-71661333D01*
X103099000Y-71848667D01*
X103062454Y-72032396D01*
X102990766Y-72205466D01*
X102886688Y-72361230D01*
X102754230Y-72493688D01*
X102598466Y-72597766D01*
X102425396Y-72669454D01*
X102241667Y-72706000D01*
X102054333Y-72706000D01*
X101870604Y-72669454D01*
X101697534Y-72597766D01*
X101541770Y-72493688D01*
X101409312Y-72361230D01*
X101305234Y-72205466D01*
X101233546Y-72032396D01*
X101197000Y-71848667D01*
X101197000Y-71661333D01*
X101233546Y-71477604D01*
X101305234Y-71304534D01*
X101409312Y-71148770D01*
X101541770Y-71016312D01*
X101697534Y-70912234D01*
X101870604Y-70840546D01*
X102054333Y-70804000D01*
X102241667Y-70804000D01*
X102425396Y-70840546D01*
X102425396Y-70840546D01*
G37*
G36*
X104925396Y-70840546D02*
X105098466Y-70912234D01*
X105254230Y-71016312D01*
X105386688Y-71148770D01*
X105490766Y-71304534D01*
X105562454Y-71477604D01*
X105599000Y-71661333D01*
X105599000Y-71848667D01*
X105562454Y-72032396D01*
X105490766Y-72205466D01*
X105386688Y-72361230D01*
X105254230Y-72493688D01*
X105098466Y-72597766D01*
X104925396Y-72669454D01*
X104741667Y-72706000D01*
X104554333Y-72706000D01*
X104370604Y-72669454D01*
X104197534Y-72597766D01*
X104041770Y-72493688D01*
X103909312Y-72361230D01*
X103805234Y-72205466D01*
X103733546Y-72032396D01*
X103697000Y-71848667D01*
X103697000Y-71661333D01*
X103733546Y-71477604D01*
X103805234Y-71304534D01*
X103909312Y-71148770D01*
X104041770Y-71016312D01*
X104197534Y-70912234D01*
X104370604Y-70840546D01*
X104554333Y-70804000D01*
X104741667Y-70804000D01*
X104925396Y-70840546D01*
X104925396Y-70840546D01*
G37*
G36*
X89217396Y-70840546D02*
X89390466Y-70912234D01*
X89546230Y-71016312D01*
X89678688Y-71148770D01*
X89782766Y-71304534D01*
X89854454Y-71477604D01*
X89891000Y-71661333D01*
X89891000Y-71848667D01*
X89854454Y-72032396D01*
X89782766Y-72205466D01*
X89678688Y-72361230D01*
X89546230Y-72493688D01*
X89390466Y-72597766D01*
X89217396Y-72669454D01*
X89033667Y-72706000D01*
X88846333Y-72706000D01*
X88662604Y-72669454D01*
X88489534Y-72597766D01*
X88333770Y-72493688D01*
X88201312Y-72361230D01*
X88097234Y-72205466D01*
X88025546Y-72032396D01*
X87989000Y-71848667D01*
X87989000Y-71661333D01*
X88025546Y-71477604D01*
X88097234Y-71304534D01*
X88201312Y-71148770D01*
X88333770Y-71016312D01*
X88489534Y-70912234D01*
X88662604Y-70840546D01*
X88846333Y-70804000D01*
X89033667Y-70804000D01*
X89217396Y-70840546D01*
X89217396Y-70840546D01*
G37*
G36*
X104259362Y-68166181D02*
X104294277Y-68176773D01*
X104326465Y-68193978D01*
X104354673Y-68217127D01*
X104377822Y-68245335D01*
X104395027Y-68277523D01*
X104405619Y-68312438D01*
X104409800Y-68354895D01*
X104409800Y-69821105D01*
X104405619Y-69863562D01*
X104395027Y-69898477D01*
X104377822Y-69930665D01*
X104354673Y-69958873D01*
X104326465Y-69982022D01*
X104294277Y-69999227D01*
X104259362Y-70009819D01*
X104216905Y-70014000D01*
X103075695Y-70014000D01*
X103033238Y-70009819D01*
X102998323Y-69999227D01*
X102966135Y-69982022D01*
X102937927Y-69958873D01*
X102914778Y-69930665D01*
X102897573Y-69898477D01*
X102886981Y-69863562D01*
X102882800Y-69821105D01*
X102882800Y-68354895D01*
X102886981Y-68312438D01*
X102897573Y-68277523D01*
X102914778Y-68245335D01*
X102937927Y-68217127D01*
X102966135Y-68193978D01*
X102998323Y-68176773D01*
X103033238Y-68166181D01*
X103075695Y-68162000D01*
X104216905Y-68162000D01*
X104259362Y-68166181D01*
X104259362Y-68166181D01*
G37*
G36*
X101284362Y-68166181D02*
X101319277Y-68176773D01*
X101351465Y-68193978D01*
X101379673Y-68217127D01*
X101402822Y-68245335D01*
X101420027Y-68277523D01*
X101430619Y-68312438D01*
X101434800Y-68354895D01*
X101434800Y-69821105D01*
X101430619Y-69863562D01*
X101420027Y-69898477D01*
X101402822Y-69930665D01*
X101379673Y-69958873D01*
X101351465Y-69982022D01*
X101319277Y-69999227D01*
X101284362Y-70009819D01*
X101241905Y-70014000D01*
X100100695Y-70014000D01*
X100058238Y-70009819D01*
X100023323Y-69999227D01*
X99991135Y-69982022D01*
X99962927Y-69958873D01*
X99939778Y-69930665D01*
X99922573Y-69898477D01*
X99911981Y-69863562D01*
X99907800Y-69821105D01*
X99907800Y-68354895D01*
X99911981Y-68312438D01*
X99922573Y-68277523D01*
X99939778Y-68245335D01*
X99962927Y-68217127D01*
X99991135Y-68193978D01*
X100023323Y-68176773D01*
X100058238Y-68166181D01*
X100100695Y-68162000D01*
X101241905Y-68162000D01*
X101284362Y-68166181D01*
X101284362Y-68166181D01*
G37*
G36*
X87708062Y-68166181D02*
X87742977Y-68176773D01*
X87775165Y-68193978D01*
X87803373Y-68217127D01*
X87826522Y-68245335D01*
X87843727Y-68277523D01*
X87854319Y-68312438D01*
X87858500Y-68354895D01*
X87858500Y-69821105D01*
X87854319Y-69863562D01*
X87843727Y-69898477D01*
X87826522Y-69930665D01*
X87803373Y-69958873D01*
X87775165Y-69982022D01*
X87742977Y-69999227D01*
X87708062Y-70009819D01*
X87665605Y-70014000D01*
X86524395Y-70014000D01*
X86481938Y-70009819D01*
X86447023Y-69999227D01*
X86414835Y-69982022D01*
X86386627Y-69958873D01*
X86363478Y-69930665D01*
X86346273Y-69898477D01*
X86335681Y-69863562D01*
X86331500Y-69821105D01*
X86331500Y-68354895D01*
X86335681Y-68312438D01*
X86346273Y-68277523D01*
X86363478Y-68245335D01*
X86386627Y-68217127D01*
X86414835Y-68193978D01*
X86447023Y-68176773D01*
X86481938Y-68166181D01*
X86524395Y-68162000D01*
X87665605Y-68162000D01*
X87708062Y-68166181D01*
X87708062Y-68166181D01*
G37*
G36*
X90683062Y-68166181D02*
X90717977Y-68176773D01*
X90750165Y-68193978D01*
X90778373Y-68217127D01*
X90801522Y-68245335D01*
X90818727Y-68277523D01*
X90829319Y-68312438D01*
X90833500Y-68354895D01*
X90833500Y-69821105D01*
X90829319Y-69863562D01*
X90818727Y-69898477D01*
X90801522Y-69930665D01*
X90778373Y-69958873D01*
X90750165Y-69982022D01*
X90717977Y-69999227D01*
X90683062Y-70009819D01*
X90640605Y-70014000D01*
X89499395Y-70014000D01*
X89456938Y-70009819D01*
X89422023Y-69999227D01*
X89389835Y-69982022D01*
X89361627Y-69958873D01*
X89338478Y-69930665D01*
X89321273Y-69898477D01*
X89310681Y-69863562D01*
X89306500Y-69821105D01*
X89306500Y-68354895D01*
X89310681Y-68312438D01*
X89321273Y-68277523D01*
X89338478Y-68245335D01*
X89361627Y-68217127D01*
X89389835Y-68193978D01*
X89422023Y-68176773D01*
X89456938Y-68166181D01*
X89499395Y-68162000D01*
X90640605Y-68162000D01*
X90683062Y-68166181D01*
X90683062Y-68166181D01*
G37*
G36*
X94629562Y-66642181D02*
X94664477Y-66652773D01*
X94696665Y-66669978D01*
X94724873Y-66693127D01*
X94748022Y-66721335D01*
X94765227Y-66753523D01*
X94775819Y-66788438D01*
X94780000Y-66830895D01*
X94780000Y-68297105D01*
X94775819Y-68339562D01*
X94765227Y-68374477D01*
X94748022Y-68406665D01*
X94724873Y-68434873D01*
X94696665Y-68458022D01*
X94664477Y-68475227D01*
X94629562Y-68485819D01*
X94587105Y-68490000D01*
X93445895Y-68490000D01*
X93403438Y-68485819D01*
X93368523Y-68475227D01*
X93336335Y-68458022D01*
X93308127Y-68434873D01*
X93284978Y-68406665D01*
X93267773Y-68374477D01*
X93257181Y-68339562D01*
X93253000Y-68297105D01*
X93253000Y-66830895D01*
X93257181Y-66788438D01*
X93267773Y-66753523D01*
X93284978Y-66721335D01*
X93308127Y-66693127D01*
X93336335Y-66669978D01*
X93368523Y-66652773D01*
X93403438Y-66642181D01*
X93445895Y-66638000D01*
X94587105Y-66638000D01*
X94629562Y-66642181D01*
X94629562Y-66642181D01*
G37*
G36*
X97604562Y-66642181D02*
X97639477Y-66652773D01*
X97671665Y-66669978D01*
X97699873Y-66693127D01*
X97723022Y-66721335D01*
X97740227Y-66753523D01*
X97750819Y-66788438D01*
X97755000Y-66830895D01*
X97755000Y-68297105D01*
X97750819Y-68339562D01*
X97740227Y-68374477D01*
X97723022Y-68406665D01*
X97699873Y-68434873D01*
X97671665Y-68458022D01*
X97639477Y-68475227D01*
X97604562Y-68485819D01*
X97562105Y-68490000D01*
X96420895Y-68490000D01*
X96378438Y-68485819D01*
X96343523Y-68475227D01*
X96311335Y-68458022D01*
X96283127Y-68434873D01*
X96259978Y-68406665D01*
X96242773Y-68374477D01*
X96232181Y-68339562D01*
X96228000Y-68297105D01*
X96228000Y-66830895D01*
X96232181Y-66788438D01*
X96242773Y-66753523D01*
X96259978Y-66721335D01*
X96283127Y-66693127D01*
X96311335Y-66669978D01*
X96343523Y-66652773D01*
X96378438Y-66642181D01*
X96420895Y-66638000D01*
X97562105Y-66638000D01*
X97604562Y-66642181D01*
X97604562Y-66642181D01*
G37*
G36*
X94227421Y-63214143D02*
X94359557Y-63254227D01*
X94359559Y-63254228D01*
X94481339Y-63319320D01*
X94588080Y-63406920D01*
X94675680Y-63513661D01*
X94740772Y-63635441D01*
X94740773Y-63635443D01*
X94780857Y-63767579D01*
X94791000Y-63870568D01*
X94791000Y-64639432D01*
X94780857Y-64742421D01*
X94740773Y-64874556D01*
X94740772Y-64874559D01*
X94675680Y-64996339D01*
X94612691Y-65073090D01*
X94588078Y-65103082D01*
X94495427Y-65179117D01*
X94481338Y-65190680D01*
X94359558Y-65255772D01*
X94359556Y-65255773D01*
X94227420Y-65295857D01*
X94090000Y-65309391D01*
X93952579Y-65295857D01*
X93820443Y-65255773D01*
X93820441Y-65255772D01*
X93698661Y-65190680D01*
X93621910Y-65127691D01*
X93591918Y-65103078D01*
X93504321Y-64996339D01*
X93504320Y-64996337D01*
X93439228Y-64874558D01*
X93439227Y-64874556D01*
X93399143Y-64742420D01*
X93389000Y-64639431D01*
X93389000Y-63870568D01*
X93399143Y-63767581D01*
X93439228Y-63635442D01*
X93458974Y-63598500D01*
X93504321Y-63513661D01*
X93591921Y-63406920D01*
X93698662Y-63319320D01*
X93820442Y-63254228D01*
X93820444Y-63254227D01*
X93952580Y-63214143D01*
X94090000Y-63200609D01*
X94227421Y-63214143D01*
X94227421Y-63214143D01*
G37*
G36*
X83927421Y-63214143D02*
X84059557Y-63254227D01*
X84059559Y-63254228D01*
X84181339Y-63319320D01*
X84288080Y-63406920D01*
X84375680Y-63513661D01*
X84440772Y-63635441D01*
X84440773Y-63635443D01*
X84480857Y-63767579D01*
X84491000Y-63870568D01*
X84491000Y-64639432D01*
X84480857Y-64742421D01*
X84440773Y-64874556D01*
X84440772Y-64874559D01*
X84375680Y-64996339D01*
X84312691Y-65073090D01*
X84288078Y-65103082D01*
X84195427Y-65179117D01*
X84181338Y-65190680D01*
X84059558Y-65255772D01*
X84059556Y-65255773D01*
X83927420Y-65295857D01*
X83790000Y-65309391D01*
X83652579Y-65295857D01*
X83520443Y-65255773D01*
X83520441Y-65255772D01*
X83398661Y-65190680D01*
X83321910Y-65127691D01*
X83291918Y-65103078D01*
X83204321Y-64996339D01*
X83204320Y-64996337D01*
X83139228Y-64874558D01*
X83139227Y-64874556D01*
X83099143Y-64742420D01*
X83089000Y-64639431D01*
X83089000Y-63870568D01*
X83099143Y-63767581D01*
X83139228Y-63635442D01*
X83158974Y-63598500D01*
X83204321Y-63513661D01*
X83291921Y-63406920D01*
X83398662Y-63319320D01*
X83520442Y-63254228D01*
X83520444Y-63254227D01*
X83652580Y-63214143D01*
X83790000Y-63200609D01*
X83927421Y-63214143D01*
X83927421Y-63214143D01*
G37*
G36*
X97135421Y-63214143D02*
X97267557Y-63254227D01*
X97267559Y-63254228D01*
X97389339Y-63319320D01*
X97496080Y-63406920D01*
X97583680Y-63513661D01*
X97648772Y-63635441D01*
X97648773Y-63635443D01*
X97688857Y-63767579D01*
X97699000Y-63870568D01*
X97699000Y-64639432D01*
X97688857Y-64742421D01*
X97648773Y-64874556D01*
X97648772Y-64874559D01*
X97583680Y-64996339D01*
X97520691Y-65073090D01*
X97496078Y-65103082D01*
X97403427Y-65179117D01*
X97389338Y-65190680D01*
X97267558Y-65255772D01*
X97267556Y-65255773D01*
X97135420Y-65295857D01*
X96998000Y-65309391D01*
X96860579Y-65295857D01*
X96728443Y-65255773D01*
X96728441Y-65255772D01*
X96606661Y-65190680D01*
X96529910Y-65127691D01*
X96499918Y-65103078D01*
X96412321Y-64996339D01*
X96412320Y-64996337D01*
X96347228Y-64874558D01*
X96347227Y-64874556D01*
X96307143Y-64742420D01*
X96297000Y-64639431D01*
X96297000Y-63870568D01*
X96307143Y-63767581D01*
X96347228Y-63635442D01*
X96366974Y-63598500D01*
X96412321Y-63513661D01*
X96499921Y-63406920D01*
X96606662Y-63319320D01*
X96728442Y-63254228D01*
X96728444Y-63254227D01*
X96860580Y-63214143D01*
X96998000Y-63200609D01*
X97135421Y-63214143D01*
X97135421Y-63214143D01*
G37*
G36*
X107435421Y-63214143D02*
X107567557Y-63254227D01*
X107567559Y-63254228D01*
X107689339Y-63319320D01*
X107796080Y-63406920D01*
X107883680Y-63513661D01*
X107948772Y-63635441D01*
X107948773Y-63635443D01*
X107988857Y-63767579D01*
X107999000Y-63870568D01*
X107999000Y-64639432D01*
X107988857Y-64742421D01*
X107948773Y-64874556D01*
X107948772Y-64874559D01*
X107883680Y-64996339D01*
X107820691Y-65073090D01*
X107796078Y-65103082D01*
X107703427Y-65179117D01*
X107689338Y-65190680D01*
X107567558Y-65255772D01*
X107567556Y-65255773D01*
X107435420Y-65295857D01*
X107298000Y-65309391D01*
X107160579Y-65295857D01*
X107028443Y-65255773D01*
X107028441Y-65255772D01*
X106906661Y-65190680D01*
X106829910Y-65127691D01*
X106799918Y-65103078D01*
X106712321Y-64996339D01*
X106712320Y-64996337D01*
X106647228Y-64874558D01*
X106647227Y-64874556D01*
X106607143Y-64742420D01*
X106597000Y-64639431D01*
X106597000Y-63870568D01*
X106607143Y-63767581D01*
X106647228Y-63635442D01*
X106666974Y-63598500D01*
X106712321Y-63513661D01*
X106799921Y-63406920D01*
X106906662Y-63319320D01*
X107028442Y-63254228D01*
X107028444Y-63254227D01*
X107160580Y-63214143D01*
X107298000Y-63200609D01*
X107435421Y-63214143D01*
X107435421Y-63214143D01*
G37*
G36*
X102319767Y-59182399D02*
X102451891Y-59237127D01*
X102570799Y-59316579D01*
X102671921Y-59417701D01*
X102751373Y-59536609D01*
X102806101Y-59668733D01*
X102834000Y-59808994D01*
X102834000Y-59952006D01*
X102806101Y-60092267D01*
X102751373Y-60224391D01*
X102671921Y-60343299D01*
X102570799Y-60444421D01*
X102451891Y-60523873D01*
X102319767Y-60578601D01*
X102179506Y-60606500D01*
X102036494Y-60606500D01*
X101896233Y-60578601D01*
X101764109Y-60523873D01*
X101645201Y-60444421D01*
X101544079Y-60343299D01*
X101464627Y-60224391D01*
X101409899Y-60092267D01*
X101382000Y-59952006D01*
X101382000Y-59808994D01*
X101409899Y-59668733D01*
X101464627Y-59536609D01*
X101544079Y-59417701D01*
X101645201Y-59316579D01*
X101764109Y-59237127D01*
X101896233Y-59182399D01*
X102036494Y-59154500D01*
X102179506Y-59154500D01*
X102319767Y-59182399D01*
X102319767Y-59182399D01*
G37*
G36*
X95715767Y-59182399D02*
X95847891Y-59237127D01*
X95966799Y-59316579D01*
X96067921Y-59417701D01*
X96147373Y-59536609D01*
X96202101Y-59668733D01*
X96230000Y-59808994D01*
X96230000Y-59952006D01*
X96202101Y-60092267D01*
X96147373Y-60224391D01*
X96067921Y-60343299D01*
X95966799Y-60444421D01*
X95847891Y-60523873D01*
X95715767Y-60578601D01*
X95575506Y-60606500D01*
X95432494Y-60606500D01*
X95292233Y-60578601D01*
X95160109Y-60523873D01*
X95041201Y-60444421D01*
X94940079Y-60343299D01*
X94860627Y-60224391D01*
X94805899Y-60092267D01*
X94778000Y-59952006D01*
X94778000Y-59808994D01*
X94805899Y-59668733D01*
X94860627Y-59536609D01*
X94940079Y-59417701D01*
X95041201Y-59316579D01*
X95160109Y-59237127D01*
X95292233Y-59182399D01*
X95432494Y-59154500D01*
X95575506Y-59154500D01*
X95715767Y-59182399D01*
X95715767Y-59182399D01*
G37*
G36*
X89111767Y-59182399D02*
X89243891Y-59237127D01*
X89362799Y-59316579D01*
X89463921Y-59417701D01*
X89543373Y-59536609D01*
X89598101Y-59668733D01*
X89626000Y-59808994D01*
X89626000Y-59952006D01*
X89598101Y-60092267D01*
X89543373Y-60224391D01*
X89463921Y-60343299D01*
X89362799Y-60444421D01*
X89243891Y-60523873D01*
X89111767Y-60578601D01*
X88971506Y-60606500D01*
X88828494Y-60606500D01*
X88688233Y-60578601D01*
X88556109Y-60523873D01*
X88437201Y-60444421D01*
X88336079Y-60343299D01*
X88256627Y-60224391D01*
X88201899Y-60092267D01*
X88174000Y-59952006D01*
X88174000Y-59808994D01*
X88201899Y-59668733D01*
X88256627Y-59536609D01*
X88336079Y-59417701D01*
X88437201Y-59316579D01*
X88556109Y-59237127D01*
X88688233Y-59182399D01*
X88828494Y-59154500D01*
X88971506Y-59154500D01*
X89111767Y-59182399D01*
X89111767Y-59182399D01*
G37*
M02*
