G04 #@! TF.GenerationSoftware,KiCad,Pcbnew,(5.0.1)-4*
G04 #@! TF.CreationDate,2019-03-05T01:38:51-06:00*
G04 #@! TF.ProjectId,util_LFO,7574696C5F4C464F2E6B696361645F70,rev?*
G04 #@! TF.SameCoordinates,Original*
G04 #@! TF.FileFunction,Copper,L2,Bot,Signal*
G04 #@! TF.FilePolarity,Positive*
%FSLAX46Y46*%
G04 Gerber Fmt 4.6, Leading zero omitted, Abs format (unit mm)*
G04 Created by KiCad (PCBNEW (5.0.1)-4) date 3/5/2019 1:38:51*
%MOMM*%
%LPD*%
G01*
G04 APERTURE LIST*
G04 #@! TA.AperFunction,ComponentPad*
%ADD10C,1.350000*%
G04 #@! TD*
G04 #@! TA.AperFunction,ComponentPad*
%ADD11O,1.300000X2.000000*%
G04 #@! TD*
G04 #@! TA.AperFunction,ComponentPad*
%ADD12C,1.800000*%
G04 #@! TD*
G04 #@! TA.AperFunction,Conductor*
%ADD13C,0.100000*%
G04 #@! TD*
G04 #@! TA.AperFunction,SMDPad,CuDef*
%ADD14C,1.425000*%
G04 #@! TD*
G04 #@! TA.AperFunction,ComponentPad*
%ADD15O,2.400000X1.500000*%
G04 #@! TD*
G04 #@! TA.AperFunction,ComponentPad*
%ADD16R,2.200000X1.500000*%
G04 #@! TD*
G04 #@! TA.AperFunction,ComponentPad*
%ADD17O,2.500000X1.400000*%
G04 #@! TD*
G04 #@! TA.AperFunction,ComponentPad*
%ADD18R,1.727200X1.727200*%
G04 #@! TD*
G04 #@! TA.AperFunction,ComponentPad*
%ADD19O,1.727200X1.727200*%
G04 #@! TD*
G04 #@! TA.AperFunction,SMDPad,CuDef*
%ADD20R,1.550000X0.600000*%
G04 #@! TD*
G04 #@! TA.AperFunction,ViaPad*
%ADD21C,0.800000*%
G04 #@! TD*
G04 #@! TA.AperFunction,Conductor*
%ADD22C,0.300000*%
G04 #@! TD*
G04 #@! TA.AperFunction,Conductor*
%ADD23C,0.450000*%
G04 #@! TD*
G04 #@! TA.AperFunction,Conductor*
%ADD24C,0.254000*%
G04 #@! TD*
G04 APERTURE END LIST*
D10*
G04 #@! TO.P,J6,1*
G04 #@! TO.N,-12V*
X102108000Y-59880500D03*
G04 #@! TD*
D11*
G04 #@! TO.P,RV11,*
G04 #@! TO.N,GND*
X83790000Y-64255000D03*
D12*
G04 #@! TO.P,RV11,1*
G04 #@! TO.N,Net-(RV10-Pad2)*
X91440000Y-71755000D03*
G04 #@! TO.P,RV11,2*
G04 #@! TO.N,Net-(R4-Pad2)*
X88940000Y-71755000D03*
G04 #@! TO.P,RV11,3*
G04 #@! TO.N,Net-(R3-Pad2)*
X86440000Y-71755000D03*
D11*
G04 #@! TO.P,RV11,*
G04 #@! TO.N,GND*
X94090000Y-64255000D03*
G04 #@! TD*
D13*
G04 #@! TO.N,Net-(C1-Pad1)*
G04 #@! TO.C,C1*
G36*
X90819504Y-82310204D02*
X90843773Y-82313804D01*
X90867571Y-82319765D01*
X90890671Y-82328030D01*
X90912849Y-82338520D01*
X90933893Y-82351133D01*
X90953598Y-82365747D01*
X90971777Y-82382223D01*
X90988253Y-82400402D01*
X91002867Y-82420107D01*
X91015480Y-82441151D01*
X91025970Y-82463329D01*
X91034235Y-82486429D01*
X91040196Y-82510227D01*
X91043796Y-82534496D01*
X91045000Y-82559000D01*
X91045000Y-83484000D01*
X91043796Y-83508504D01*
X91040196Y-83532773D01*
X91034235Y-83556571D01*
X91025970Y-83579671D01*
X91015480Y-83601849D01*
X91002867Y-83622893D01*
X90988253Y-83642598D01*
X90971777Y-83660777D01*
X90953598Y-83677253D01*
X90933893Y-83691867D01*
X90912849Y-83704480D01*
X90890671Y-83714970D01*
X90867571Y-83723235D01*
X90843773Y-83729196D01*
X90819504Y-83732796D01*
X90795000Y-83734000D01*
X89545000Y-83734000D01*
X89520496Y-83732796D01*
X89496227Y-83729196D01*
X89472429Y-83723235D01*
X89449329Y-83714970D01*
X89427151Y-83704480D01*
X89406107Y-83691867D01*
X89386402Y-83677253D01*
X89368223Y-83660777D01*
X89351747Y-83642598D01*
X89337133Y-83622893D01*
X89324520Y-83601849D01*
X89314030Y-83579671D01*
X89305765Y-83556571D01*
X89299804Y-83532773D01*
X89296204Y-83508504D01*
X89295000Y-83484000D01*
X89295000Y-82559000D01*
X89296204Y-82534496D01*
X89299804Y-82510227D01*
X89305765Y-82486429D01*
X89314030Y-82463329D01*
X89324520Y-82441151D01*
X89337133Y-82420107D01*
X89351747Y-82400402D01*
X89368223Y-82382223D01*
X89386402Y-82365747D01*
X89406107Y-82351133D01*
X89427151Y-82338520D01*
X89449329Y-82328030D01*
X89472429Y-82319765D01*
X89496227Y-82313804D01*
X89520496Y-82310204D01*
X89545000Y-82309000D01*
X90795000Y-82309000D01*
X90819504Y-82310204D01*
X90819504Y-82310204D01*
G37*
D14*
G04 #@! TD*
G04 #@! TO.P,C1,1*
G04 #@! TO.N,Net-(C1-Pad1)*
X90170000Y-83021500D03*
D13*
G04 #@! TO.N,Net-(C1-Pad2)*
G04 #@! TO.C,C1*
G36*
X90819504Y-79335204D02*
X90843773Y-79338804D01*
X90867571Y-79344765D01*
X90890671Y-79353030D01*
X90912849Y-79363520D01*
X90933893Y-79376133D01*
X90953598Y-79390747D01*
X90971777Y-79407223D01*
X90988253Y-79425402D01*
X91002867Y-79445107D01*
X91015480Y-79466151D01*
X91025970Y-79488329D01*
X91034235Y-79511429D01*
X91040196Y-79535227D01*
X91043796Y-79559496D01*
X91045000Y-79584000D01*
X91045000Y-80509000D01*
X91043796Y-80533504D01*
X91040196Y-80557773D01*
X91034235Y-80581571D01*
X91025970Y-80604671D01*
X91015480Y-80626849D01*
X91002867Y-80647893D01*
X90988253Y-80667598D01*
X90971777Y-80685777D01*
X90953598Y-80702253D01*
X90933893Y-80716867D01*
X90912849Y-80729480D01*
X90890671Y-80739970D01*
X90867571Y-80748235D01*
X90843773Y-80754196D01*
X90819504Y-80757796D01*
X90795000Y-80759000D01*
X89545000Y-80759000D01*
X89520496Y-80757796D01*
X89496227Y-80754196D01*
X89472429Y-80748235D01*
X89449329Y-80739970D01*
X89427151Y-80729480D01*
X89406107Y-80716867D01*
X89386402Y-80702253D01*
X89368223Y-80685777D01*
X89351747Y-80667598D01*
X89337133Y-80647893D01*
X89324520Y-80626849D01*
X89314030Y-80604671D01*
X89305765Y-80581571D01*
X89299804Y-80557773D01*
X89296204Y-80533504D01*
X89295000Y-80509000D01*
X89295000Y-79584000D01*
X89296204Y-79559496D01*
X89299804Y-79535227D01*
X89305765Y-79511429D01*
X89314030Y-79488329D01*
X89324520Y-79466151D01*
X89337133Y-79445107D01*
X89351747Y-79425402D01*
X89368223Y-79407223D01*
X89386402Y-79390747D01*
X89406107Y-79376133D01*
X89427151Y-79363520D01*
X89449329Y-79353030D01*
X89472429Y-79344765D01*
X89496227Y-79338804D01*
X89520496Y-79335204D01*
X89545000Y-79334000D01*
X90795000Y-79334000D01*
X90819504Y-79335204D01*
X90819504Y-79335204D01*
G37*
D14*
G04 #@! TD*
G04 #@! TO.P,C1,2*
G04 #@! TO.N,Net-(C1-Pad2)*
X90170000Y-80046500D03*
D13*
G04 #@! TO.N,GND*
G04 #@! TO.C,C2*
G36*
X97478504Y-75834204D02*
X97502773Y-75837804D01*
X97526571Y-75843765D01*
X97549671Y-75852030D01*
X97571849Y-75862520D01*
X97592893Y-75875133D01*
X97612598Y-75889747D01*
X97630777Y-75906223D01*
X97647253Y-75924402D01*
X97661867Y-75944107D01*
X97674480Y-75965151D01*
X97684970Y-75987329D01*
X97693235Y-76010429D01*
X97699196Y-76034227D01*
X97702796Y-76058496D01*
X97704000Y-76083000D01*
X97704000Y-77333000D01*
X97702796Y-77357504D01*
X97699196Y-77381773D01*
X97693235Y-77405571D01*
X97684970Y-77428671D01*
X97674480Y-77450849D01*
X97661867Y-77471893D01*
X97647253Y-77491598D01*
X97630777Y-77509777D01*
X97612598Y-77526253D01*
X97592893Y-77540867D01*
X97571849Y-77553480D01*
X97549671Y-77563970D01*
X97526571Y-77572235D01*
X97502773Y-77578196D01*
X97478504Y-77581796D01*
X97454000Y-77583000D01*
X96529000Y-77583000D01*
X96504496Y-77581796D01*
X96480227Y-77578196D01*
X96456429Y-77572235D01*
X96433329Y-77563970D01*
X96411151Y-77553480D01*
X96390107Y-77540867D01*
X96370402Y-77526253D01*
X96352223Y-77509777D01*
X96335747Y-77491598D01*
X96321133Y-77471893D01*
X96308520Y-77450849D01*
X96298030Y-77428671D01*
X96289765Y-77405571D01*
X96283804Y-77381773D01*
X96280204Y-77357504D01*
X96279000Y-77333000D01*
X96279000Y-76083000D01*
X96280204Y-76058496D01*
X96283804Y-76034227D01*
X96289765Y-76010429D01*
X96298030Y-75987329D01*
X96308520Y-75965151D01*
X96321133Y-75944107D01*
X96335747Y-75924402D01*
X96352223Y-75906223D01*
X96370402Y-75889747D01*
X96390107Y-75875133D01*
X96411151Y-75862520D01*
X96433329Y-75852030D01*
X96456429Y-75843765D01*
X96480227Y-75837804D01*
X96504496Y-75834204D01*
X96529000Y-75833000D01*
X97454000Y-75833000D01*
X97478504Y-75834204D01*
X97478504Y-75834204D01*
G37*
D14*
G04 #@! TD*
G04 #@! TO.P,C2,2*
G04 #@! TO.N,GND*
X96991500Y-76708000D03*
D13*
G04 #@! TO.N,+12v*
G04 #@! TO.C,C2*
G36*
X94503504Y-75834204D02*
X94527773Y-75837804D01*
X94551571Y-75843765D01*
X94574671Y-75852030D01*
X94596849Y-75862520D01*
X94617893Y-75875133D01*
X94637598Y-75889747D01*
X94655777Y-75906223D01*
X94672253Y-75924402D01*
X94686867Y-75944107D01*
X94699480Y-75965151D01*
X94709970Y-75987329D01*
X94718235Y-76010429D01*
X94724196Y-76034227D01*
X94727796Y-76058496D01*
X94729000Y-76083000D01*
X94729000Y-77333000D01*
X94727796Y-77357504D01*
X94724196Y-77381773D01*
X94718235Y-77405571D01*
X94709970Y-77428671D01*
X94699480Y-77450849D01*
X94686867Y-77471893D01*
X94672253Y-77491598D01*
X94655777Y-77509777D01*
X94637598Y-77526253D01*
X94617893Y-77540867D01*
X94596849Y-77553480D01*
X94574671Y-77563970D01*
X94551571Y-77572235D01*
X94527773Y-77578196D01*
X94503504Y-77581796D01*
X94479000Y-77583000D01*
X93554000Y-77583000D01*
X93529496Y-77581796D01*
X93505227Y-77578196D01*
X93481429Y-77572235D01*
X93458329Y-77563970D01*
X93436151Y-77553480D01*
X93415107Y-77540867D01*
X93395402Y-77526253D01*
X93377223Y-77509777D01*
X93360747Y-77491598D01*
X93346133Y-77471893D01*
X93333520Y-77450849D01*
X93323030Y-77428671D01*
X93314765Y-77405571D01*
X93308804Y-77381773D01*
X93305204Y-77357504D01*
X93304000Y-77333000D01*
X93304000Y-76083000D01*
X93305204Y-76058496D01*
X93308804Y-76034227D01*
X93314765Y-76010429D01*
X93323030Y-75987329D01*
X93333520Y-75965151D01*
X93346133Y-75944107D01*
X93360747Y-75924402D01*
X93377223Y-75906223D01*
X93395402Y-75889747D01*
X93415107Y-75875133D01*
X93436151Y-75862520D01*
X93458329Y-75852030D01*
X93481429Y-75843765D01*
X93505227Y-75837804D01*
X93529496Y-75834204D01*
X93554000Y-75833000D01*
X94479000Y-75833000D01*
X94503504Y-75834204D01*
X94503504Y-75834204D01*
G37*
D14*
G04 #@! TD*
G04 #@! TO.P,C2,1*
G04 #@! TO.N,+12v*
X94016500Y-76708000D03*
D13*
G04 #@! TO.N,GND*
G04 #@! TO.C,C3*
G36*
X94503504Y-84521004D02*
X94527773Y-84524604D01*
X94551571Y-84530565D01*
X94574671Y-84538830D01*
X94596849Y-84549320D01*
X94617893Y-84561933D01*
X94637598Y-84576547D01*
X94655777Y-84593023D01*
X94672253Y-84611202D01*
X94686867Y-84630907D01*
X94699480Y-84651951D01*
X94709970Y-84674129D01*
X94718235Y-84697229D01*
X94724196Y-84721027D01*
X94727796Y-84745296D01*
X94729000Y-84769800D01*
X94729000Y-86019800D01*
X94727796Y-86044304D01*
X94724196Y-86068573D01*
X94718235Y-86092371D01*
X94709970Y-86115471D01*
X94699480Y-86137649D01*
X94686867Y-86158693D01*
X94672253Y-86178398D01*
X94655777Y-86196577D01*
X94637598Y-86213053D01*
X94617893Y-86227667D01*
X94596849Y-86240280D01*
X94574671Y-86250770D01*
X94551571Y-86259035D01*
X94527773Y-86264996D01*
X94503504Y-86268596D01*
X94479000Y-86269800D01*
X93554000Y-86269800D01*
X93529496Y-86268596D01*
X93505227Y-86264996D01*
X93481429Y-86259035D01*
X93458329Y-86250770D01*
X93436151Y-86240280D01*
X93415107Y-86227667D01*
X93395402Y-86213053D01*
X93377223Y-86196577D01*
X93360747Y-86178398D01*
X93346133Y-86158693D01*
X93333520Y-86137649D01*
X93323030Y-86115471D01*
X93314765Y-86092371D01*
X93308804Y-86068573D01*
X93305204Y-86044304D01*
X93304000Y-86019800D01*
X93304000Y-84769800D01*
X93305204Y-84745296D01*
X93308804Y-84721027D01*
X93314765Y-84697229D01*
X93323030Y-84674129D01*
X93333520Y-84651951D01*
X93346133Y-84630907D01*
X93360747Y-84611202D01*
X93377223Y-84593023D01*
X93395402Y-84576547D01*
X93415107Y-84561933D01*
X93436151Y-84549320D01*
X93458329Y-84538830D01*
X93481429Y-84530565D01*
X93505227Y-84524604D01*
X93529496Y-84521004D01*
X93554000Y-84519800D01*
X94479000Y-84519800D01*
X94503504Y-84521004D01*
X94503504Y-84521004D01*
G37*
D14*
G04 #@! TD*
G04 #@! TO.P,C3,1*
G04 #@! TO.N,GND*
X94016500Y-85394800D03*
D13*
G04 #@! TO.N,-12V*
G04 #@! TO.C,C3*
G36*
X97478504Y-84521004D02*
X97502773Y-84524604D01*
X97526571Y-84530565D01*
X97549671Y-84538830D01*
X97571849Y-84549320D01*
X97592893Y-84561933D01*
X97612598Y-84576547D01*
X97630777Y-84593023D01*
X97647253Y-84611202D01*
X97661867Y-84630907D01*
X97674480Y-84651951D01*
X97684970Y-84674129D01*
X97693235Y-84697229D01*
X97699196Y-84721027D01*
X97702796Y-84745296D01*
X97704000Y-84769800D01*
X97704000Y-86019800D01*
X97702796Y-86044304D01*
X97699196Y-86068573D01*
X97693235Y-86092371D01*
X97684970Y-86115471D01*
X97674480Y-86137649D01*
X97661867Y-86158693D01*
X97647253Y-86178398D01*
X97630777Y-86196577D01*
X97612598Y-86213053D01*
X97592893Y-86227667D01*
X97571849Y-86240280D01*
X97549671Y-86250770D01*
X97526571Y-86259035D01*
X97502773Y-86264996D01*
X97478504Y-86268596D01*
X97454000Y-86269800D01*
X96529000Y-86269800D01*
X96504496Y-86268596D01*
X96480227Y-86264996D01*
X96456429Y-86259035D01*
X96433329Y-86250770D01*
X96411151Y-86240280D01*
X96390107Y-86227667D01*
X96370402Y-86213053D01*
X96352223Y-86196577D01*
X96335747Y-86178398D01*
X96321133Y-86158693D01*
X96308520Y-86137649D01*
X96298030Y-86115471D01*
X96289765Y-86092371D01*
X96283804Y-86068573D01*
X96280204Y-86044304D01*
X96279000Y-86019800D01*
X96279000Y-84769800D01*
X96280204Y-84745296D01*
X96283804Y-84721027D01*
X96289765Y-84697229D01*
X96298030Y-84674129D01*
X96308520Y-84651951D01*
X96321133Y-84630907D01*
X96335747Y-84611202D01*
X96352223Y-84593023D01*
X96370402Y-84576547D01*
X96390107Y-84561933D01*
X96411151Y-84549320D01*
X96433329Y-84538830D01*
X96456429Y-84530565D01*
X96480227Y-84524604D01*
X96504496Y-84521004D01*
X96529000Y-84519800D01*
X97454000Y-84519800D01*
X97478504Y-84521004D01*
X97478504Y-84521004D01*
G37*
D14*
G04 #@! TD*
G04 #@! TO.P,C3,2*
G04 #@! TO.N,-12V*
X96991500Y-85394800D03*
D15*
G04 #@! TO.P,J1,TN*
G04 #@! TO.N,Net-(J1-PadTN)*
X101600000Y-77776000D03*
D16*
G04 #@! TO.P,J1,S*
G04 #@! TO.N,GND*
X101600000Y-74676000D03*
D17*
G04 #@! TO.P,J1,T*
G04 #@! TO.N,Net-(J1-PadT)*
X101600000Y-86076000D03*
G04 #@! TD*
G04 #@! TO.P,J2,T*
G04 #@! TO.N,Net-(J2-PadT)*
X88900000Y-86076000D03*
D16*
G04 #@! TO.P,J2,S*
G04 #@! TO.N,GND*
X88900000Y-74676000D03*
D15*
G04 #@! TO.P,J2,TN*
G04 #@! TO.N,Net-(J2-PadTN)*
X88900000Y-77776000D03*
G04 #@! TD*
D18*
G04 #@! TO.P,J3,1*
G04 #@! TO.N,-12V*
X100076000Y-92202000D03*
D19*
G04 #@! TO.P,J3,2*
X100076000Y-89662000D03*
G04 #@! TO.P,J3,3*
G04 #@! TO.N,GND*
X97536000Y-92202000D03*
G04 #@! TO.P,J3,4*
X97536000Y-89662000D03*
G04 #@! TO.P,J3,5*
X94996000Y-92202000D03*
G04 #@! TO.P,J3,6*
X94996000Y-89662000D03*
G04 #@! TO.P,J3,7*
X92456000Y-92202000D03*
G04 #@! TO.P,J3,8*
X92456000Y-89662000D03*
G04 #@! TO.P,J3,9*
G04 #@! TO.N,+12v*
X89916000Y-92202000D03*
G04 #@! TO.P,J3,10*
X89916000Y-89662000D03*
G04 #@! TD*
D10*
G04 #@! TO.P,J4,1*
G04 #@! TO.N,+12v*
X88900000Y-59880500D03*
G04 #@! TD*
G04 #@! TO.P,J5,1*
G04 #@! TO.N,GND*
X95504000Y-59880500D03*
G04 #@! TD*
D13*
G04 #@! TO.N,Net-(R1-Pad2)*
G04 #@! TO.C,R2*
G36*
X101487504Y-79335204D02*
X101511773Y-79338804D01*
X101535571Y-79344765D01*
X101558671Y-79353030D01*
X101580849Y-79363520D01*
X101601893Y-79376133D01*
X101621598Y-79390747D01*
X101639777Y-79407223D01*
X101656253Y-79425402D01*
X101670867Y-79445107D01*
X101683480Y-79466151D01*
X101693970Y-79488329D01*
X101702235Y-79511429D01*
X101708196Y-79535227D01*
X101711796Y-79559496D01*
X101713000Y-79584000D01*
X101713000Y-80509000D01*
X101711796Y-80533504D01*
X101708196Y-80557773D01*
X101702235Y-80581571D01*
X101693970Y-80604671D01*
X101683480Y-80626849D01*
X101670867Y-80647893D01*
X101656253Y-80667598D01*
X101639777Y-80685777D01*
X101621598Y-80702253D01*
X101601893Y-80716867D01*
X101580849Y-80729480D01*
X101558671Y-80739970D01*
X101535571Y-80748235D01*
X101511773Y-80754196D01*
X101487504Y-80757796D01*
X101463000Y-80759000D01*
X100213000Y-80759000D01*
X100188496Y-80757796D01*
X100164227Y-80754196D01*
X100140429Y-80748235D01*
X100117329Y-80739970D01*
X100095151Y-80729480D01*
X100074107Y-80716867D01*
X100054402Y-80702253D01*
X100036223Y-80685777D01*
X100019747Y-80667598D01*
X100005133Y-80647893D01*
X99992520Y-80626849D01*
X99982030Y-80604671D01*
X99973765Y-80581571D01*
X99967804Y-80557773D01*
X99964204Y-80533504D01*
X99963000Y-80509000D01*
X99963000Y-79584000D01*
X99964204Y-79559496D01*
X99967804Y-79535227D01*
X99973765Y-79511429D01*
X99982030Y-79488329D01*
X99992520Y-79466151D01*
X100005133Y-79445107D01*
X100019747Y-79425402D01*
X100036223Y-79407223D01*
X100054402Y-79390747D01*
X100074107Y-79376133D01*
X100095151Y-79363520D01*
X100117329Y-79353030D01*
X100140429Y-79344765D01*
X100164227Y-79338804D01*
X100188496Y-79335204D01*
X100213000Y-79334000D01*
X101463000Y-79334000D01*
X101487504Y-79335204D01*
X101487504Y-79335204D01*
G37*
D14*
G04 #@! TD*
G04 #@! TO.P,R2,1*
G04 #@! TO.N,Net-(R1-Pad2)*
X100838000Y-80046500D03*
D13*
G04 #@! TO.N,-12V*
G04 #@! TO.C,R2*
G36*
X101487504Y-82310204D02*
X101511773Y-82313804D01*
X101535571Y-82319765D01*
X101558671Y-82328030D01*
X101580849Y-82338520D01*
X101601893Y-82351133D01*
X101621598Y-82365747D01*
X101639777Y-82382223D01*
X101656253Y-82400402D01*
X101670867Y-82420107D01*
X101683480Y-82441151D01*
X101693970Y-82463329D01*
X101702235Y-82486429D01*
X101708196Y-82510227D01*
X101711796Y-82534496D01*
X101713000Y-82559000D01*
X101713000Y-83484000D01*
X101711796Y-83508504D01*
X101708196Y-83532773D01*
X101702235Y-83556571D01*
X101693970Y-83579671D01*
X101683480Y-83601849D01*
X101670867Y-83622893D01*
X101656253Y-83642598D01*
X101639777Y-83660777D01*
X101621598Y-83677253D01*
X101601893Y-83691867D01*
X101580849Y-83704480D01*
X101558671Y-83714970D01*
X101535571Y-83723235D01*
X101511773Y-83729196D01*
X101487504Y-83732796D01*
X101463000Y-83734000D01*
X100213000Y-83734000D01*
X100188496Y-83732796D01*
X100164227Y-83729196D01*
X100140429Y-83723235D01*
X100117329Y-83714970D01*
X100095151Y-83704480D01*
X100074107Y-83691867D01*
X100054402Y-83677253D01*
X100036223Y-83660777D01*
X100019747Y-83642598D01*
X100005133Y-83622893D01*
X99992520Y-83601849D01*
X99982030Y-83579671D01*
X99973765Y-83556571D01*
X99967804Y-83532773D01*
X99964204Y-83508504D01*
X99963000Y-83484000D01*
X99963000Y-82559000D01*
X99964204Y-82534496D01*
X99967804Y-82510227D01*
X99973765Y-82486429D01*
X99982030Y-82463329D01*
X99992520Y-82441151D01*
X100005133Y-82420107D01*
X100019747Y-82400402D01*
X100036223Y-82382223D01*
X100054402Y-82365747D01*
X100074107Y-82351133D01*
X100095151Y-82338520D01*
X100117329Y-82328030D01*
X100140429Y-82319765D01*
X100164227Y-82313804D01*
X100188496Y-82310204D01*
X100213000Y-82309000D01*
X101463000Y-82309000D01*
X101487504Y-82310204D01*
X101487504Y-82310204D01*
G37*
D14*
G04 #@! TD*
G04 #@! TO.P,R2,2*
G04 #@! TO.N,-12V*
X100838000Y-83021500D03*
D13*
G04 #@! TO.N,Net-(R3-Pad2)*
G04 #@! TO.C,R3*
G36*
X87582004Y-68214204D02*
X87606273Y-68217804D01*
X87630071Y-68223765D01*
X87653171Y-68232030D01*
X87675349Y-68242520D01*
X87696393Y-68255133D01*
X87716098Y-68269747D01*
X87734277Y-68286223D01*
X87750753Y-68304402D01*
X87765367Y-68324107D01*
X87777980Y-68345151D01*
X87788470Y-68367329D01*
X87796735Y-68390429D01*
X87802696Y-68414227D01*
X87806296Y-68438496D01*
X87807500Y-68463000D01*
X87807500Y-69713000D01*
X87806296Y-69737504D01*
X87802696Y-69761773D01*
X87796735Y-69785571D01*
X87788470Y-69808671D01*
X87777980Y-69830849D01*
X87765367Y-69851893D01*
X87750753Y-69871598D01*
X87734277Y-69889777D01*
X87716098Y-69906253D01*
X87696393Y-69920867D01*
X87675349Y-69933480D01*
X87653171Y-69943970D01*
X87630071Y-69952235D01*
X87606273Y-69958196D01*
X87582004Y-69961796D01*
X87557500Y-69963000D01*
X86632500Y-69963000D01*
X86607996Y-69961796D01*
X86583727Y-69958196D01*
X86559929Y-69952235D01*
X86536829Y-69943970D01*
X86514651Y-69933480D01*
X86493607Y-69920867D01*
X86473902Y-69906253D01*
X86455723Y-69889777D01*
X86439247Y-69871598D01*
X86424633Y-69851893D01*
X86412020Y-69830849D01*
X86401530Y-69808671D01*
X86393265Y-69785571D01*
X86387304Y-69761773D01*
X86383704Y-69737504D01*
X86382500Y-69713000D01*
X86382500Y-68463000D01*
X86383704Y-68438496D01*
X86387304Y-68414227D01*
X86393265Y-68390429D01*
X86401530Y-68367329D01*
X86412020Y-68345151D01*
X86424633Y-68324107D01*
X86439247Y-68304402D01*
X86455723Y-68286223D01*
X86473902Y-68269747D01*
X86493607Y-68255133D01*
X86514651Y-68242520D01*
X86536829Y-68232030D01*
X86559929Y-68223765D01*
X86583727Y-68217804D01*
X86607996Y-68214204D01*
X86632500Y-68213000D01*
X87557500Y-68213000D01*
X87582004Y-68214204D01*
X87582004Y-68214204D01*
G37*
D14*
G04 #@! TD*
G04 #@! TO.P,R3,2*
G04 #@! TO.N,Net-(R3-Pad2)*
X87095000Y-69088000D03*
D13*
G04 #@! TO.N,GND*
G04 #@! TO.C,R3*
G36*
X90557004Y-68214204D02*
X90581273Y-68217804D01*
X90605071Y-68223765D01*
X90628171Y-68232030D01*
X90650349Y-68242520D01*
X90671393Y-68255133D01*
X90691098Y-68269747D01*
X90709277Y-68286223D01*
X90725753Y-68304402D01*
X90740367Y-68324107D01*
X90752980Y-68345151D01*
X90763470Y-68367329D01*
X90771735Y-68390429D01*
X90777696Y-68414227D01*
X90781296Y-68438496D01*
X90782500Y-68463000D01*
X90782500Y-69713000D01*
X90781296Y-69737504D01*
X90777696Y-69761773D01*
X90771735Y-69785571D01*
X90763470Y-69808671D01*
X90752980Y-69830849D01*
X90740367Y-69851893D01*
X90725753Y-69871598D01*
X90709277Y-69889777D01*
X90691098Y-69906253D01*
X90671393Y-69920867D01*
X90650349Y-69933480D01*
X90628171Y-69943970D01*
X90605071Y-69952235D01*
X90581273Y-69958196D01*
X90557004Y-69961796D01*
X90532500Y-69963000D01*
X89607500Y-69963000D01*
X89582996Y-69961796D01*
X89558727Y-69958196D01*
X89534929Y-69952235D01*
X89511829Y-69943970D01*
X89489651Y-69933480D01*
X89468607Y-69920867D01*
X89448902Y-69906253D01*
X89430723Y-69889777D01*
X89414247Y-69871598D01*
X89399633Y-69851893D01*
X89387020Y-69830849D01*
X89376530Y-69808671D01*
X89368265Y-69785571D01*
X89362304Y-69761773D01*
X89358704Y-69737504D01*
X89357500Y-69713000D01*
X89357500Y-68463000D01*
X89358704Y-68438496D01*
X89362304Y-68414227D01*
X89368265Y-68390429D01*
X89376530Y-68367329D01*
X89387020Y-68345151D01*
X89399633Y-68324107D01*
X89414247Y-68304402D01*
X89430723Y-68286223D01*
X89448902Y-68269747D01*
X89468607Y-68255133D01*
X89489651Y-68242520D01*
X89511829Y-68232030D01*
X89534929Y-68223765D01*
X89558727Y-68217804D01*
X89582996Y-68214204D01*
X89607500Y-68213000D01*
X90532500Y-68213000D01*
X90557004Y-68214204D01*
X90557004Y-68214204D01*
G37*
D14*
G04 #@! TD*
G04 #@! TO.P,R3,1*
G04 #@! TO.N,GND*
X90070000Y-69088000D03*
D13*
G04 #@! TO.N,Net-(C1-Pad2)*
G04 #@! TO.C,R5*
G36*
X94503504Y-73548204D02*
X94527773Y-73551804D01*
X94551571Y-73557765D01*
X94574671Y-73566030D01*
X94596849Y-73576520D01*
X94617893Y-73589133D01*
X94637598Y-73603747D01*
X94655777Y-73620223D01*
X94672253Y-73638402D01*
X94686867Y-73658107D01*
X94699480Y-73679151D01*
X94709970Y-73701329D01*
X94718235Y-73724429D01*
X94724196Y-73748227D01*
X94727796Y-73772496D01*
X94729000Y-73797000D01*
X94729000Y-75047000D01*
X94727796Y-75071504D01*
X94724196Y-75095773D01*
X94718235Y-75119571D01*
X94709970Y-75142671D01*
X94699480Y-75164849D01*
X94686867Y-75185893D01*
X94672253Y-75205598D01*
X94655777Y-75223777D01*
X94637598Y-75240253D01*
X94617893Y-75254867D01*
X94596849Y-75267480D01*
X94574671Y-75277970D01*
X94551571Y-75286235D01*
X94527773Y-75292196D01*
X94503504Y-75295796D01*
X94479000Y-75297000D01*
X93554000Y-75297000D01*
X93529496Y-75295796D01*
X93505227Y-75292196D01*
X93481429Y-75286235D01*
X93458329Y-75277970D01*
X93436151Y-75267480D01*
X93415107Y-75254867D01*
X93395402Y-75240253D01*
X93377223Y-75223777D01*
X93360747Y-75205598D01*
X93346133Y-75185893D01*
X93333520Y-75164849D01*
X93323030Y-75142671D01*
X93314765Y-75119571D01*
X93308804Y-75095773D01*
X93305204Y-75071504D01*
X93304000Y-75047000D01*
X93304000Y-73797000D01*
X93305204Y-73772496D01*
X93308804Y-73748227D01*
X93314765Y-73724429D01*
X93323030Y-73701329D01*
X93333520Y-73679151D01*
X93346133Y-73658107D01*
X93360747Y-73638402D01*
X93377223Y-73620223D01*
X93395402Y-73603747D01*
X93415107Y-73589133D01*
X93436151Y-73576520D01*
X93458329Y-73566030D01*
X93481429Y-73557765D01*
X93505227Y-73551804D01*
X93529496Y-73548204D01*
X93554000Y-73547000D01*
X94479000Y-73547000D01*
X94503504Y-73548204D01*
X94503504Y-73548204D01*
G37*
D14*
G04 #@! TD*
G04 #@! TO.P,R5,1*
G04 #@! TO.N,Net-(C1-Pad2)*
X94016500Y-74422000D03*
D13*
G04 #@! TO.N,Net-(R1-Pad2)*
G04 #@! TO.C,R5*
G36*
X97478504Y-73548204D02*
X97502773Y-73551804D01*
X97526571Y-73557765D01*
X97549671Y-73566030D01*
X97571849Y-73576520D01*
X97592893Y-73589133D01*
X97612598Y-73603747D01*
X97630777Y-73620223D01*
X97647253Y-73638402D01*
X97661867Y-73658107D01*
X97674480Y-73679151D01*
X97684970Y-73701329D01*
X97693235Y-73724429D01*
X97699196Y-73748227D01*
X97702796Y-73772496D01*
X97704000Y-73797000D01*
X97704000Y-75047000D01*
X97702796Y-75071504D01*
X97699196Y-75095773D01*
X97693235Y-75119571D01*
X97684970Y-75142671D01*
X97674480Y-75164849D01*
X97661867Y-75185893D01*
X97647253Y-75205598D01*
X97630777Y-75223777D01*
X97612598Y-75240253D01*
X97592893Y-75254867D01*
X97571849Y-75267480D01*
X97549671Y-75277970D01*
X97526571Y-75286235D01*
X97502773Y-75292196D01*
X97478504Y-75295796D01*
X97454000Y-75297000D01*
X96529000Y-75297000D01*
X96504496Y-75295796D01*
X96480227Y-75292196D01*
X96456429Y-75286235D01*
X96433329Y-75277970D01*
X96411151Y-75267480D01*
X96390107Y-75254867D01*
X96370402Y-75240253D01*
X96352223Y-75223777D01*
X96335747Y-75205598D01*
X96321133Y-75185893D01*
X96308520Y-75164849D01*
X96298030Y-75142671D01*
X96289765Y-75119571D01*
X96283804Y-75095773D01*
X96280204Y-75071504D01*
X96279000Y-75047000D01*
X96279000Y-73797000D01*
X96280204Y-73772496D01*
X96283804Y-73748227D01*
X96289765Y-73724429D01*
X96298030Y-73701329D01*
X96308520Y-73679151D01*
X96321133Y-73658107D01*
X96335747Y-73638402D01*
X96352223Y-73620223D01*
X96370402Y-73603747D01*
X96390107Y-73589133D01*
X96411151Y-73576520D01*
X96433329Y-73566030D01*
X96456429Y-73557765D01*
X96480227Y-73551804D01*
X96504496Y-73548204D01*
X96529000Y-73547000D01*
X97454000Y-73547000D01*
X97478504Y-73548204D01*
X97478504Y-73548204D01*
G37*
D14*
G04 #@! TD*
G04 #@! TO.P,R5,2*
G04 #@! TO.N,Net-(R1-Pad2)*
X96991500Y-74422000D03*
D13*
G04 #@! TO.N,Net-(J1-PadT)*
G04 #@! TO.C,R6*
G36*
X103773504Y-82310204D02*
X103797773Y-82313804D01*
X103821571Y-82319765D01*
X103844671Y-82328030D01*
X103866849Y-82338520D01*
X103887893Y-82351133D01*
X103907598Y-82365747D01*
X103925777Y-82382223D01*
X103942253Y-82400402D01*
X103956867Y-82420107D01*
X103969480Y-82441151D01*
X103979970Y-82463329D01*
X103988235Y-82486429D01*
X103994196Y-82510227D01*
X103997796Y-82534496D01*
X103999000Y-82559000D01*
X103999000Y-83484000D01*
X103997796Y-83508504D01*
X103994196Y-83532773D01*
X103988235Y-83556571D01*
X103979970Y-83579671D01*
X103969480Y-83601849D01*
X103956867Y-83622893D01*
X103942253Y-83642598D01*
X103925777Y-83660777D01*
X103907598Y-83677253D01*
X103887893Y-83691867D01*
X103866849Y-83704480D01*
X103844671Y-83714970D01*
X103821571Y-83723235D01*
X103797773Y-83729196D01*
X103773504Y-83732796D01*
X103749000Y-83734000D01*
X102499000Y-83734000D01*
X102474496Y-83732796D01*
X102450227Y-83729196D01*
X102426429Y-83723235D01*
X102403329Y-83714970D01*
X102381151Y-83704480D01*
X102360107Y-83691867D01*
X102340402Y-83677253D01*
X102322223Y-83660777D01*
X102305747Y-83642598D01*
X102291133Y-83622893D01*
X102278520Y-83601849D01*
X102268030Y-83579671D01*
X102259765Y-83556571D01*
X102253804Y-83532773D01*
X102250204Y-83508504D01*
X102249000Y-83484000D01*
X102249000Y-82559000D01*
X102250204Y-82534496D01*
X102253804Y-82510227D01*
X102259765Y-82486429D01*
X102268030Y-82463329D01*
X102278520Y-82441151D01*
X102291133Y-82420107D01*
X102305747Y-82400402D01*
X102322223Y-82382223D01*
X102340402Y-82365747D01*
X102360107Y-82351133D01*
X102381151Y-82338520D01*
X102403329Y-82328030D01*
X102426429Y-82319765D01*
X102450227Y-82313804D01*
X102474496Y-82310204D01*
X102499000Y-82309000D01*
X103749000Y-82309000D01*
X103773504Y-82310204D01*
X103773504Y-82310204D01*
G37*
D14*
G04 #@! TD*
G04 #@! TO.P,R6,2*
G04 #@! TO.N,Net-(J1-PadT)*
X103124000Y-83021500D03*
D13*
G04 #@! TO.N,Net-(R1-Pad1)*
G04 #@! TO.C,R6*
G36*
X103773504Y-79335204D02*
X103797773Y-79338804D01*
X103821571Y-79344765D01*
X103844671Y-79353030D01*
X103866849Y-79363520D01*
X103887893Y-79376133D01*
X103907598Y-79390747D01*
X103925777Y-79407223D01*
X103942253Y-79425402D01*
X103956867Y-79445107D01*
X103969480Y-79466151D01*
X103979970Y-79488329D01*
X103988235Y-79511429D01*
X103994196Y-79535227D01*
X103997796Y-79559496D01*
X103999000Y-79584000D01*
X103999000Y-80509000D01*
X103997796Y-80533504D01*
X103994196Y-80557773D01*
X103988235Y-80581571D01*
X103979970Y-80604671D01*
X103969480Y-80626849D01*
X103956867Y-80647893D01*
X103942253Y-80667598D01*
X103925777Y-80685777D01*
X103907598Y-80702253D01*
X103887893Y-80716867D01*
X103866849Y-80729480D01*
X103844671Y-80739970D01*
X103821571Y-80748235D01*
X103797773Y-80754196D01*
X103773504Y-80757796D01*
X103749000Y-80759000D01*
X102499000Y-80759000D01*
X102474496Y-80757796D01*
X102450227Y-80754196D01*
X102426429Y-80748235D01*
X102403329Y-80739970D01*
X102381151Y-80729480D01*
X102360107Y-80716867D01*
X102340402Y-80702253D01*
X102322223Y-80685777D01*
X102305747Y-80667598D01*
X102291133Y-80647893D01*
X102278520Y-80626849D01*
X102268030Y-80604671D01*
X102259765Y-80581571D01*
X102253804Y-80557773D01*
X102250204Y-80533504D01*
X102249000Y-80509000D01*
X102249000Y-79584000D01*
X102250204Y-79559496D01*
X102253804Y-79535227D01*
X102259765Y-79511429D01*
X102268030Y-79488329D01*
X102278520Y-79466151D01*
X102291133Y-79445107D01*
X102305747Y-79425402D01*
X102322223Y-79407223D01*
X102340402Y-79390747D01*
X102360107Y-79376133D01*
X102381151Y-79363520D01*
X102403329Y-79353030D01*
X102426429Y-79344765D01*
X102450227Y-79338804D01*
X102474496Y-79335204D01*
X102499000Y-79334000D01*
X103749000Y-79334000D01*
X103773504Y-79335204D01*
X103773504Y-79335204D01*
G37*
D14*
G04 #@! TD*
G04 #@! TO.P,R6,1*
G04 #@! TO.N,Net-(R1-Pad1)*
X103124000Y-80046500D03*
D13*
G04 #@! TO.N,Net-(R1-Pad1)*
G04 #@! TO.C,R7*
G36*
X106059504Y-79335204D02*
X106083773Y-79338804D01*
X106107571Y-79344765D01*
X106130671Y-79353030D01*
X106152849Y-79363520D01*
X106173893Y-79376133D01*
X106193598Y-79390747D01*
X106211777Y-79407223D01*
X106228253Y-79425402D01*
X106242867Y-79445107D01*
X106255480Y-79466151D01*
X106265970Y-79488329D01*
X106274235Y-79511429D01*
X106280196Y-79535227D01*
X106283796Y-79559496D01*
X106285000Y-79584000D01*
X106285000Y-80509000D01*
X106283796Y-80533504D01*
X106280196Y-80557773D01*
X106274235Y-80581571D01*
X106265970Y-80604671D01*
X106255480Y-80626849D01*
X106242867Y-80647893D01*
X106228253Y-80667598D01*
X106211777Y-80685777D01*
X106193598Y-80702253D01*
X106173893Y-80716867D01*
X106152849Y-80729480D01*
X106130671Y-80739970D01*
X106107571Y-80748235D01*
X106083773Y-80754196D01*
X106059504Y-80757796D01*
X106035000Y-80759000D01*
X104785000Y-80759000D01*
X104760496Y-80757796D01*
X104736227Y-80754196D01*
X104712429Y-80748235D01*
X104689329Y-80739970D01*
X104667151Y-80729480D01*
X104646107Y-80716867D01*
X104626402Y-80702253D01*
X104608223Y-80685777D01*
X104591747Y-80667598D01*
X104577133Y-80647893D01*
X104564520Y-80626849D01*
X104554030Y-80604671D01*
X104545765Y-80581571D01*
X104539804Y-80557773D01*
X104536204Y-80533504D01*
X104535000Y-80509000D01*
X104535000Y-79584000D01*
X104536204Y-79559496D01*
X104539804Y-79535227D01*
X104545765Y-79511429D01*
X104554030Y-79488329D01*
X104564520Y-79466151D01*
X104577133Y-79445107D01*
X104591747Y-79425402D01*
X104608223Y-79407223D01*
X104626402Y-79390747D01*
X104646107Y-79376133D01*
X104667151Y-79363520D01*
X104689329Y-79353030D01*
X104712429Y-79344765D01*
X104736227Y-79338804D01*
X104760496Y-79335204D01*
X104785000Y-79334000D01*
X106035000Y-79334000D01*
X106059504Y-79335204D01*
X106059504Y-79335204D01*
G37*
D14*
G04 #@! TD*
G04 #@! TO.P,R7,1*
G04 #@! TO.N,Net-(R1-Pad1)*
X105410000Y-80046500D03*
D13*
G04 #@! TO.N,GND*
G04 #@! TO.C,R7*
G36*
X106059504Y-82310204D02*
X106083773Y-82313804D01*
X106107571Y-82319765D01*
X106130671Y-82328030D01*
X106152849Y-82338520D01*
X106173893Y-82351133D01*
X106193598Y-82365747D01*
X106211777Y-82382223D01*
X106228253Y-82400402D01*
X106242867Y-82420107D01*
X106255480Y-82441151D01*
X106265970Y-82463329D01*
X106274235Y-82486429D01*
X106280196Y-82510227D01*
X106283796Y-82534496D01*
X106285000Y-82559000D01*
X106285000Y-83484000D01*
X106283796Y-83508504D01*
X106280196Y-83532773D01*
X106274235Y-83556571D01*
X106265970Y-83579671D01*
X106255480Y-83601849D01*
X106242867Y-83622893D01*
X106228253Y-83642598D01*
X106211777Y-83660777D01*
X106193598Y-83677253D01*
X106173893Y-83691867D01*
X106152849Y-83704480D01*
X106130671Y-83714970D01*
X106107571Y-83723235D01*
X106083773Y-83729196D01*
X106059504Y-83732796D01*
X106035000Y-83734000D01*
X104785000Y-83734000D01*
X104760496Y-83732796D01*
X104736227Y-83729196D01*
X104712429Y-83723235D01*
X104689329Y-83714970D01*
X104667151Y-83704480D01*
X104646107Y-83691867D01*
X104626402Y-83677253D01*
X104608223Y-83660777D01*
X104591747Y-83642598D01*
X104577133Y-83622893D01*
X104564520Y-83601849D01*
X104554030Y-83579671D01*
X104545765Y-83556571D01*
X104539804Y-83532773D01*
X104536204Y-83508504D01*
X104535000Y-83484000D01*
X104535000Y-82559000D01*
X104536204Y-82534496D01*
X104539804Y-82510227D01*
X104545765Y-82486429D01*
X104554030Y-82463329D01*
X104564520Y-82441151D01*
X104577133Y-82420107D01*
X104591747Y-82400402D01*
X104608223Y-82382223D01*
X104626402Y-82365747D01*
X104646107Y-82351133D01*
X104667151Y-82338520D01*
X104689329Y-82328030D01*
X104712429Y-82319765D01*
X104736227Y-82313804D01*
X104760496Y-82310204D01*
X104785000Y-82309000D01*
X106035000Y-82309000D01*
X106059504Y-82310204D01*
X106059504Y-82310204D01*
G37*
D14*
G04 #@! TD*
G04 #@! TO.P,R7,2*
G04 #@! TO.N,GND*
X105410000Y-83021500D03*
D13*
G04 #@! TO.N,Net-(C1-Pad2)*
G04 #@! TO.C,R8*
G36*
X88279504Y-79335204D02*
X88303773Y-79338804D01*
X88327571Y-79344765D01*
X88350671Y-79353030D01*
X88372849Y-79363520D01*
X88393893Y-79376133D01*
X88413598Y-79390747D01*
X88431777Y-79407223D01*
X88448253Y-79425402D01*
X88462867Y-79445107D01*
X88475480Y-79466151D01*
X88485970Y-79488329D01*
X88494235Y-79511429D01*
X88500196Y-79535227D01*
X88503796Y-79559496D01*
X88505000Y-79584000D01*
X88505000Y-80509000D01*
X88503796Y-80533504D01*
X88500196Y-80557773D01*
X88494235Y-80581571D01*
X88485970Y-80604671D01*
X88475480Y-80626849D01*
X88462867Y-80647893D01*
X88448253Y-80667598D01*
X88431777Y-80685777D01*
X88413598Y-80702253D01*
X88393893Y-80716867D01*
X88372849Y-80729480D01*
X88350671Y-80739970D01*
X88327571Y-80748235D01*
X88303773Y-80754196D01*
X88279504Y-80757796D01*
X88255000Y-80759000D01*
X87005000Y-80759000D01*
X86980496Y-80757796D01*
X86956227Y-80754196D01*
X86932429Y-80748235D01*
X86909329Y-80739970D01*
X86887151Y-80729480D01*
X86866107Y-80716867D01*
X86846402Y-80702253D01*
X86828223Y-80685777D01*
X86811747Y-80667598D01*
X86797133Y-80647893D01*
X86784520Y-80626849D01*
X86774030Y-80604671D01*
X86765765Y-80581571D01*
X86759804Y-80557773D01*
X86756204Y-80533504D01*
X86755000Y-80509000D01*
X86755000Y-79584000D01*
X86756204Y-79559496D01*
X86759804Y-79535227D01*
X86765765Y-79511429D01*
X86774030Y-79488329D01*
X86784520Y-79466151D01*
X86797133Y-79445107D01*
X86811747Y-79425402D01*
X86828223Y-79407223D01*
X86846402Y-79390747D01*
X86866107Y-79376133D01*
X86887151Y-79363520D01*
X86909329Y-79353030D01*
X86932429Y-79344765D01*
X86956227Y-79338804D01*
X86980496Y-79335204D01*
X87005000Y-79334000D01*
X88255000Y-79334000D01*
X88279504Y-79335204D01*
X88279504Y-79335204D01*
G37*
D14*
G04 #@! TD*
G04 #@! TO.P,R8,1*
G04 #@! TO.N,Net-(C1-Pad2)*
X87630000Y-80046500D03*
D13*
G04 #@! TO.N,Net-(J2-PadT)*
G04 #@! TO.C,R8*
G36*
X88279504Y-82310204D02*
X88303773Y-82313804D01*
X88327571Y-82319765D01*
X88350671Y-82328030D01*
X88372849Y-82338520D01*
X88393893Y-82351133D01*
X88413598Y-82365747D01*
X88431777Y-82382223D01*
X88448253Y-82400402D01*
X88462867Y-82420107D01*
X88475480Y-82441151D01*
X88485970Y-82463329D01*
X88494235Y-82486429D01*
X88500196Y-82510227D01*
X88503796Y-82534496D01*
X88505000Y-82559000D01*
X88505000Y-83484000D01*
X88503796Y-83508504D01*
X88500196Y-83532773D01*
X88494235Y-83556571D01*
X88485970Y-83579671D01*
X88475480Y-83601849D01*
X88462867Y-83622893D01*
X88448253Y-83642598D01*
X88431777Y-83660777D01*
X88413598Y-83677253D01*
X88393893Y-83691867D01*
X88372849Y-83704480D01*
X88350671Y-83714970D01*
X88327571Y-83723235D01*
X88303773Y-83729196D01*
X88279504Y-83732796D01*
X88255000Y-83734000D01*
X87005000Y-83734000D01*
X86980496Y-83732796D01*
X86956227Y-83729196D01*
X86932429Y-83723235D01*
X86909329Y-83714970D01*
X86887151Y-83704480D01*
X86866107Y-83691867D01*
X86846402Y-83677253D01*
X86828223Y-83660777D01*
X86811747Y-83642598D01*
X86797133Y-83622893D01*
X86784520Y-83601849D01*
X86774030Y-83579671D01*
X86765765Y-83556571D01*
X86759804Y-83532773D01*
X86756204Y-83508504D01*
X86755000Y-83484000D01*
X86755000Y-82559000D01*
X86756204Y-82534496D01*
X86759804Y-82510227D01*
X86765765Y-82486429D01*
X86774030Y-82463329D01*
X86784520Y-82441151D01*
X86797133Y-82420107D01*
X86811747Y-82400402D01*
X86828223Y-82382223D01*
X86846402Y-82365747D01*
X86866107Y-82351133D01*
X86887151Y-82338520D01*
X86909329Y-82328030D01*
X86932429Y-82319765D01*
X86956227Y-82313804D01*
X86980496Y-82310204D01*
X87005000Y-82309000D01*
X88255000Y-82309000D01*
X88279504Y-82310204D01*
X88279504Y-82310204D01*
G37*
D14*
G04 #@! TD*
G04 #@! TO.P,R8,2*
G04 #@! TO.N,Net-(J2-PadT)*
X87630000Y-83021500D03*
D13*
G04 #@! TO.N,GND*
G04 #@! TO.C,R9*
G36*
X85739504Y-82310204D02*
X85763773Y-82313804D01*
X85787571Y-82319765D01*
X85810671Y-82328030D01*
X85832849Y-82338520D01*
X85853893Y-82351133D01*
X85873598Y-82365747D01*
X85891777Y-82382223D01*
X85908253Y-82400402D01*
X85922867Y-82420107D01*
X85935480Y-82441151D01*
X85945970Y-82463329D01*
X85954235Y-82486429D01*
X85960196Y-82510227D01*
X85963796Y-82534496D01*
X85965000Y-82559000D01*
X85965000Y-83484000D01*
X85963796Y-83508504D01*
X85960196Y-83532773D01*
X85954235Y-83556571D01*
X85945970Y-83579671D01*
X85935480Y-83601849D01*
X85922867Y-83622893D01*
X85908253Y-83642598D01*
X85891777Y-83660777D01*
X85873598Y-83677253D01*
X85853893Y-83691867D01*
X85832849Y-83704480D01*
X85810671Y-83714970D01*
X85787571Y-83723235D01*
X85763773Y-83729196D01*
X85739504Y-83732796D01*
X85715000Y-83734000D01*
X84465000Y-83734000D01*
X84440496Y-83732796D01*
X84416227Y-83729196D01*
X84392429Y-83723235D01*
X84369329Y-83714970D01*
X84347151Y-83704480D01*
X84326107Y-83691867D01*
X84306402Y-83677253D01*
X84288223Y-83660777D01*
X84271747Y-83642598D01*
X84257133Y-83622893D01*
X84244520Y-83601849D01*
X84234030Y-83579671D01*
X84225765Y-83556571D01*
X84219804Y-83532773D01*
X84216204Y-83508504D01*
X84215000Y-83484000D01*
X84215000Y-82559000D01*
X84216204Y-82534496D01*
X84219804Y-82510227D01*
X84225765Y-82486429D01*
X84234030Y-82463329D01*
X84244520Y-82441151D01*
X84257133Y-82420107D01*
X84271747Y-82400402D01*
X84288223Y-82382223D01*
X84306402Y-82365747D01*
X84326107Y-82351133D01*
X84347151Y-82338520D01*
X84369329Y-82328030D01*
X84392429Y-82319765D01*
X84416227Y-82313804D01*
X84440496Y-82310204D01*
X84465000Y-82309000D01*
X85715000Y-82309000D01*
X85739504Y-82310204D01*
X85739504Y-82310204D01*
G37*
D14*
G04 #@! TD*
G04 #@! TO.P,R9,2*
G04 #@! TO.N,GND*
X85090000Y-83021500D03*
D13*
G04 #@! TO.N,Net-(C1-Pad2)*
G04 #@! TO.C,R9*
G36*
X85739504Y-79335204D02*
X85763773Y-79338804D01*
X85787571Y-79344765D01*
X85810671Y-79353030D01*
X85832849Y-79363520D01*
X85853893Y-79376133D01*
X85873598Y-79390747D01*
X85891777Y-79407223D01*
X85908253Y-79425402D01*
X85922867Y-79445107D01*
X85935480Y-79466151D01*
X85945970Y-79488329D01*
X85954235Y-79511429D01*
X85960196Y-79535227D01*
X85963796Y-79559496D01*
X85965000Y-79584000D01*
X85965000Y-80509000D01*
X85963796Y-80533504D01*
X85960196Y-80557773D01*
X85954235Y-80581571D01*
X85945970Y-80604671D01*
X85935480Y-80626849D01*
X85922867Y-80647893D01*
X85908253Y-80667598D01*
X85891777Y-80685777D01*
X85873598Y-80702253D01*
X85853893Y-80716867D01*
X85832849Y-80729480D01*
X85810671Y-80739970D01*
X85787571Y-80748235D01*
X85763773Y-80754196D01*
X85739504Y-80757796D01*
X85715000Y-80759000D01*
X84465000Y-80759000D01*
X84440496Y-80757796D01*
X84416227Y-80754196D01*
X84392429Y-80748235D01*
X84369329Y-80739970D01*
X84347151Y-80729480D01*
X84326107Y-80716867D01*
X84306402Y-80702253D01*
X84288223Y-80685777D01*
X84271747Y-80667598D01*
X84257133Y-80647893D01*
X84244520Y-80626849D01*
X84234030Y-80604671D01*
X84225765Y-80581571D01*
X84219804Y-80557773D01*
X84216204Y-80533504D01*
X84215000Y-80509000D01*
X84215000Y-79584000D01*
X84216204Y-79559496D01*
X84219804Y-79535227D01*
X84225765Y-79511429D01*
X84234030Y-79488329D01*
X84244520Y-79466151D01*
X84257133Y-79445107D01*
X84271747Y-79425402D01*
X84288223Y-79407223D01*
X84306402Y-79390747D01*
X84326107Y-79376133D01*
X84347151Y-79363520D01*
X84369329Y-79353030D01*
X84392429Y-79344765D01*
X84416227Y-79338804D01*
X84440496Y-79335204D01*
X84465000Y-79334000D01*
X85715000Y-79334000D01*
X85739504Y-79335204D01*
X85739504Y-79335204D01*
G37*
D14*
G04 #@! TD*
G04 #@! TO.P,R9,1*
G04 #@! TO.N,Net-(C1-Pad2)*
X85090000Y-80046500D03*
D11*
G04 #@! TO.P,RV10,*
G04 #@! TO.N,GND*
X107298000Y-64255000D03*
D12*
G04 #@! TO.P,RV10,3*
G04 #@! TO.N,Net-(RV10-Pad2)*
X99648000Y-71755000D03*
G04 #@! TO.P,RV10,2*
X102148000Y-71755000D03*
G04 #@! TO.P,RV10,1*
G04 #@! TO.N,Net-(R1-Pad1)*
X104648000Y-71755000D03*
D11*
G04 #@! TO.P,RV10,*
G04 #@! TO.N,GND*
X96998000Y-64255000D03*
G04 #@! TD*
D20*
G04 #@! TO.P,U1,1*
G04 #@! TO.N,Net-(R1-Pad1)*
X98204000Y-79629000D03*
G04 #@! TO.P,U1,2*
G04 #@! TO.N,GND*
X98204000Y-80899000D03*
G04 #@! TO.P,U1,3*
G04 #@! TO.N,Net-(R1-Pad2)*
X98204000Y-82169000D03*
G04 #@! TO.P,U1,4*
G04 #@! TO.N,-12V*
X98204000Y-83439000D03*
G04 #@! TO.P,U1,5*
G04 #@! TO.N,GND*
X92804000Y-83439000D03*
G04 #@! TO.P,U1,6*
G04 #@! TO.N,Net-(C1-Pad1)*
X92804000Y-82169000D03*
G04 #@! TO.P,U1,7*
G04 #@! TO.N,Net-(C1-Pad2)*
X92804000Y-80899000D03*
G04 #@! TO.P,U1,8*
G04 #@! TO.N,+12v*
X92804000Y-79629000D03*
G04 #@! TD*
D13*
G04 #@! TO.N,Net-(C1-Pad1)*
G04 #@! TO.C,R4*
G36*
X97478504Y-66690204D02*
X97502773Y-66693804D01*
X97526571Y-66699765D01*
X97549671Y-66708030D01*
X97571849Y-66718520D01*
X97592893Y-66731133D01*
X97612598Y-66745747D01*
X97630777Y-66762223D01*
X97647253Y-66780402D01*
X97661867Y-66800107D01*
X97674480Y-66821151D01*
X97684970Y-66843329D01*
X97693235Y-66866429D01*
X97699196Y-66890227D01*
X97702796Y-66914496D01*
X97704000Y-66939000D01*
X97704000Y-68189000D01*
X97702796Y-68213504D01*
X97699196Y-68237773D01*
X97693235Y-68261571D01*
X97684970Y-68284671D01*
X97674480Y-68306849D01*
X97661867Y-68327893D01*
X97647253Y-68347598D01*
X97630777Y-68365777D01*
X97612598Y-68382253D01*
X97592893Y-68396867D01*
X97571849Y-68409480D01*
X97549671Y-68419970D01*
X97526571Y-68428235D01*
X97502773Y-68434196D01*
X97478504Y-68437796D01*
X97454000Y-68439000D01*
X96529000Y-68439000D01*
X96504496Y-68437796D01*
X96480227Y-68434196D01*
X96456429Y-68428235D01*
X96433329Y-68419970D01*
X96411151Y-68409480D01*
X96390107Y-68396867D01*
X96370402Y-68382253D01*
X96352223Y-68365777D01*
X96335747Y-68347598D01*
X96321133Y-68327893D01*
X96308520Y-68306849D01*
X96298030Y-68284671D01*
X96289765Y-68261571D01*
X96283804Y-68237773D01*
X96280204Y-68213504D01*
X96279000Y-68189000D01*
X96279000Y-66939000D01*
X96280204Y-66914496D01*
X96283804Y-66890227D01*
X96289765Y-66866429D01*
X96298030Y-66843329D01*
X96308520Y-66821151D01*
X96321133Y-66800107D01*
X96335747Y-66780402D01*
X96352223Y-66762223D01*
X96370402Y-66745747D01*
X96390107Y-66731133D01*
X96411151Y-66718520D01*
X96433329Y-66708030D01*
X96456429Y-66699765D01*
X96480227Y-66693804D01*
X96504496Y-66690204D01*
X96529000Y-66689000D01*
X97454000Y-66689000D01*
X97478504Y-66690204D01*
X97478504Y-66690204D01*
G37*
D14*
G04 #@! TD*
G04 #@! TO.P,R4,1*
G04 #@! TO.N,Net-(C1-Pad1)*
X96991500Y-67564000D03*
D13*
G04 #@! TO.N,Net-(R4-Pad2)*
G04 #@! TO.C,R4*
G36*
X94503504Y-66690204D02*
X94527773Y-66693804D01*
X94551571Y-66699765D01*
X94574671Y-66708030D01*
X94596849Y-66718520D01*
X94617893Y-66731133D01*
X94637598Y-66745747D01*
X94655777Y-66762223D01*
X94672253Y-66780402D01*
X94686867Y-66800107D01*
X94699480Y-66821151D01*
X94709970Y-66843329D01*
X94718235Y-66866429D01*
X94724196Y-66890227D01*
X94727796Y-66914496D01*
X94729000Y-66939000D01*
X94729000Y-68189000D01*
X94727796Y-68213504D01*
X94724196Y-68237773D01*
X94718235Y-68261571D01*
X94709970Y-68284671D01*
X94699480Y-68306849D01*
X94686867Y-68327893D01*
X94672253Y-68347598D01*
X94655777Y-68365777D01*
X94637598Y-68382253D01*
X94617893Y-68396867D01*
X94596849Y-68409480D01*
X94574671Y-68419970D01*
X94551571Y-68428235D01*
X94527773Y-68434196D01*
X94503504Y-68437796D01*
X94479000Y-68439000D01*
X93554000Y-68439000D01*
X93529496Y-68437796D01*
X93505227Y-68434196D01*
X93481429Y-68428235D01*
X93458329Y-68419970D01*
X93436151Y-68409480D01*
X93415107Y-68396867D01*
X93395402Y-68382253D01*
X93377223Y-68365777D01*
X93360747Y-68347598D01*
X93346133Y-68327893D01*
X93333520Y-68306849D01*
X93323030Y-68284671D01*
X93314765Y-68261571D01*
X93308804Y-68237773D01*
X93305204Y-68213504D01*
X93304000Y-68189000D01*
X93304000Y-66939000D01*
X93305204Y-66914496D01*
X93308804Y-66890227D01*
X93314765Y-66866429D01*
X93323030Y-66843329D01*
X93333520Y-66821151D01*
X93346133Y-66800107D01*
X93360747Y-66780402D01*
X93377223Y-66762223D01*
X93395402Y-66745747D01*
X93415107Y-66731133D01*
X93436151Y-66718520D01*
X93458329Y-66708030D01*
X93481429Y-66699765D01*
X93505227Y-66693804D01*
X93529496Y-66690204D01*
X93554000Y-66689000D01*
X94479000Y-66689000D01*
X94503504Y-66690204D01*
X94503504Y-66690204D01*
G37*
D14*
G04 #@! TD*
G04 #@! TO.P,R4,2*
G04 #@! TO.N,Net-(R4-Pad2)*
X94016500Y-67564000D03*
D13*
G04 #@! TO.N,Net-(R1-Pad1)*
G04 #@! TO.C,R1*
G36*
X104133304Y-68214204D02*
X104157573Y-68217804D01*
X104181371Y-68223765D01*
X104204471Y-68232030D01*
X104226649Y-68242520D01*
X104247693Y-68255133D01*
X104267398Y-68269747D01*
X104285577Y-68286223D01*
X104302053Y-68304402D01*
X104316667Y-68324107D01*
X104329280Y-68345151D01*
X104339770Y-68367329D01*
X104348035Y-68390429D01*
X104353996Y-68414227D01*
X104357596Y-68438496D01*
X104358800Y-68463000D01*
X104358800Y-69713000D01*
X104357596Y-69737504D01*
X104353996Y-69761773D01*
X104348035Y-69785571D01*
X104339770Y-69808671D01*
X104329280Y-69830849D01*
X104316667Y-69851893D01*
X104302053Y-69871598D01*
X104285577Y-69889777D01*
X104267398Y-69906253D01*
X104247693Y-69920867D01*
X104226649Y-69933480D01*
X104204471Y-69943970D01*
X104181371Y-69952235D01*
X104157573Y-69958196D01*
X104133304Y-69961796D01*
X104108800Y-69963000D01*
X103183800Y-69963000D01*
X103159296Y-69961796D01*
X103135027Y-69958196D01*
X103111229Y-69952235D01*
X103088129Y-69943970D01*
X103065951Y-69933480D01*
X103044907Y-69920867D01*
X103025202Y-69906253D01*
X103007023Y-69889777D01*
X102990547Y-69871598D01*
X102975933Y-69851893D01*
X102963320Y-69830849D01*
X102952830Y-69808671D01*
X102944565Y-69785571D01*
X102938604Y-69761773D01*
X102935004Y-69737504D01*
X102933800Y-69713000D01*
X102933800Y-68463000D01*
X102935004Y-68438496D01*
X102938604Y-68414227D01*
X102944565Y-68390429D01*
X102952830Y-68367329D01*
X102963320Y-68345151D01*
X102975933Y-68324107D01*
X102990547Y-68304402D01*
X103007023Y-68286223D01*
X103025202Y-68269747D01*
X103044907Y-68255133D01*
X103065951Y-68242520D01*
X103088129Y-68232030D01*
X103111229Y-68223765D01*
X103135027Y-68217804D01*
X103159296Y-68214204D01*
X103183800Y-68213000D01*
X104108800Y-68213000D01*
X104133304Y-68214204D01*
X104133304Y-68214204D01*
G37*
D14*
G04 #@! TD*
G04 #@! TO.P,R1,1*
G04 #@! TO.N,Net-(R1-Pad1)*
X103646300Y-69088000D03*
D13*
G04 #@! TO.N,Net-(R1-Pad2)*
G04 #@! TO.C,R1*
G36*
X101158304Y-68214204D02*
X101182573Y-68217804D01*
X101206371Y-68223765D01*
X101229471Y-68232030D01*
X101251649Y-68242520D01*
X101272693Y-68255133D01*
X101292398Y-68269747D01*
X101310577Y-68286223D01*
X101327053Y-68304402D01*
X101341667Y-68324107D01*
X101354280Y-68345151D01*
X101364770Y-68367329D01*
X101373035Y-68390429D01*
X101378996Y-68414227D01*
X101382596Y-68438496D01*
X101383800Y-68463000D01*
X101383800Y-69713000D01*
X101382596Y-69737504D01*
X101378996Y-69761773D01*
X101373035Y-69785571D01*
X101364770Y-69808671D01*
X101354280Y-69830849D01*
X101341667Y-69851893D01*
X101327053Y-69871598D01*
X101310577Y-69889777D01*
X101292398Y-69906253D01*
X101272693Y-69920867D01*
X101251649Y-69933480D01*
X101229471Y-69943970D01*
X101206371Y-69952235D01*
X101182573Y-69958196D01*
X101158304Y-69961796D01*
X101133800Y-69963000D01*
X100208800Y-69963000D01*
X100184296Y-69961796D01*
X100160027Y-69958196D01*
X100136229Y-69952235D01*
X100113129Y-69943970D01*
X100090951Y-69933480D01*
X100069907Y-69920867D01*
X100050202Y-69906253D01*
X100032023Y-69889777D01*
X100015547Y-69871598D01*
X100000933Y-69851893D01*
X99988320Y-69830849D01*
X99977830Y-69808671D01*
X99969565Y-69785571D01*
X99963604Y-69761773D01*
X99960004Y-69737504D01*
X99958800Y-69713000D01*
X99958800Y-68463000D01*
X99960004Y-68438496D01*
X99963604Y-68414227D01*
X99969565Y-68390429D01*
X99977830Y-68367329D01*
X99988320Y-68345151D01*
X100000933Y-68324107D01*
X100015547Y-68304402D01*
X100032023Y-68286223D01*
X100050202Y-68269747D01*
X100069907Y-68255133D01*
X100090951Y-68242520D01*
X100113129Y-68232030D01*
X100136229Y-68223765D01*
X100160027Y-68217804D01*
X100184296Y-68214204D01*
X100208800Y-68213000D01*
X101133800Y-68213000D01*
X101158304Y-68214204D01*
X101158304Y-68214204D01*
G37*
D14*
G04 #@! TD*
G04 #@! TO.P,R1,2*
G04 #@! TO.N,Net-(R1-Pad2)*
X100671300Y-69088000D03*
D21*
G04 #@! TO.N,+12v*
X94234000Y-79756000D03*
G04 #@! TD*
D22*
G04 #@! TO.N,Net-(C1-Pad1)*
X91022500Y-82169000D02*
X90170000Y-83021500D01*
X92804000Y-82169000D02*
X91022500Y-82169000D01*
X95129010Y-69426490D02*
X96991500Y-67564000D01*
X95129010Y-80918990D02*
X95129010Y-69426490D01*
X92804000Y-82169000D02*
X93879000Y-82169000D01*
X93879000Y-82169000D02*
X95129010Y-80918990D01*
G04 #@! TO.N,Net-(C1-Pad2)*
X90170000Y-80046500D02*
X87630000Y-80046500D01*
X87630000Y-80046500D02*
X85090000Y-80046500D01*
X91022500Y-80899000D02*
X90170000Y-80046500D01*
X92804000Y-80899000D02*
X91022500Y-80899000D01*
X90941348Y-79275152D02*
X90170000Y-80046500D01*
X92903990Y-75534510D02*
X92903990Y-77312510D01*
X94016500Y-74422000D02*
X92903990Y-75534510D01*
X92903990Y-77312510D02*
X90941348Y-79275152D01*
D23*
G04 #@! TO.N,+12v*
X92804000Y-78879000D02*
X94016500Y-77666500D01*
X94016500Y-77666500D02*
X94016500Y-76708000D01*
X92804000Y-79629000D02*
X92804000Y-78879000D01*
X92804000Y-79629000D02*
X94107000Y-79629000D01*
X94107000Y-79629000D02*
X94234000Y-79756000D01*
X89916000Y-89662000D02*
X89916000Y-92202000D01*
G04 #@! TO.N,-12V*
X100166500Y-83439000D02*
X100584000Y-83021500D01*
X98204000Y-84639500D02*
X96991500Y-85852000D01*
X98204000Y-83439000D02*
X98204000Y-84639500D01*
X100420500Y-83439000D02*
X100838000Y-83021500D01*
X98204000Y-83439000D02*
X100420500Y-83439000D01*
X100076000Y-89662000D02*
X100076000Y-92202000D01*
X96991500Y-86577500D02*
X96991500Y-85852000D01*
X100076000Y-89662000D02*
X96991500Y-86577500D01*
D22*
G04 #@! TO.N,Net-(J1-PadT)*
X101600000Y-84545500D02*
X101600000Y-86076000D01*
X103124000Y-83021500D02*
X101600000Y-84545500D01*
G04 #@! TO.N,Net-(J2-PadT)*
X87630000Y-84806000D02*
X88900000Y-86076000D01*
X87630000Y-83021500D02*
X87630000Y-84806000D01*
G04 #@! TO.N,Net-(R1-Pad2)*
X96393000Y-82169000D02*
X98204000Y-82169000D01*
X95721500Y-81497500D02*
X95758000Y-81534000D01*
X95758000Y-81534000D02*
X96393000Y-82169000D01*
X96991500Y-74422000D02*
X95721500Y-75692000D01*
X95721500Y-75692000D02*
X95721500Y-81497500D01*
X100801500Y-80046500D02*
X100838000Y-80046500D01*
X98679000Y-82169000D02*
X100801500Y-80046500D01*
X98204000Y-82169000D02*
X98679000Y-82169000D01*
X99808000Y-69088000D02*
X100620500Y-69088000D01*
X96991500Y-71904500D02*
X99808000Y-69088000D01*
X96991500Y-74422000D02*
X96991500Y-71904500D01*
G04 #@! TO.N,Net-(R1-Pad1)*
X99279000Y-79629000D02*
X98204000Y-79629000D01*
X105410000Y-80046500D02*
X103124000Y-80046500D01*
X99279000Y-79598744D02*
X99279000Y-79629000D01*
X99943754Y-78933990D02*
X99279000Y-79598744D01*
X102011490Y-78933990D02*
X99943754Y-78933990D01*
X103124000Y-80046500D02*
X102011490Y-78933990D01*
X104648000Y-79538500D02*
X104648000Y-71755000D01*
X103595500Y-70702500D02*
X103595500Y-69088000D01*
X104648000Y-71755000D02*
X103595500Y-70702500D01*
G04 #@! TO.N,Net-(R3-Pad2)*
X87095000Y-71100000D02*
X86440000Y-71755000D01*
X87095000Y-69088000D02*
X87095000Y-71100000D01*
G04 #@! TO.N,Net-(R4-Pad2)*
X88900000Y-71715000D02*
X88940000Y-71755000D01*
X93204000Y-67564000D02*
X94016500Y-67564000D01*
X89587244Y-67564000D02*
X93204000Y-67564000D01*
X88957490Y-68193754D02*
X89587244Y-67564000D01*
X88957490Y-70464718D02*
X88957490Y-68193754D01*
X88940000Y-70482208D02*
X88957490Y-70464718D01*
X88940000Y-71755000D02*
X88940000Y-70482208D01*
G04 #@! TD*
D24*
G04 #@! TO.N,GND*
G36*
X87789436Y-59138445D02*
X87590000Y-59619925D01*
X87590000Y-60141075D01*
X87789436Y-60622555D01*
X88157945Y-60991064D01*
X88639425Y-61190500D01*
X89160575Y-61190500D01*
X89642055Y-60991064D01*
X89835472Y-60797647D01*
X94766458Y-60797647D01*
X94825219Y-61030828D01*
X95317100Y-61203022D01*
X95837434Y-61173875D01*
X96182781Y-61030828D01*
X96241542Y-60797647D01*
X95504000Y-60060105D01*
X94766458Y-60797647D01*
X89835472Y-60797647D01*
X90010564Y-60622555D01*
X90210000Y-60141075D01*
X90210000Y-59619925D01*
X90010564Y-59138445D01*
X90002119Y-59130000D01*
X94573892Y-59130000D01*
X94586851Y-59142959D01*
X94353672Y-59201719D01*
X94181478Y-59693600D01*
X94210625Y-60213934D01*
X94353672Y-60559281D01*
X94586853Y-60618042D01*
X95324395Y-59880500D01*
X95310253Y-59866358D01*
X95489858Y-59686753D01*
X95504000Y-59700895D01*
X95518143Y-59686753D01*
X95697748Y-59866358D01*
X95683605Y-59880500D01*
X96421147Y-60618042D01*
X96654328Y-60559281D01*
X96826522Y-60067400D01*
X96797375Y-59547066D01*
X96654328Y-59201719D01*
X96421149Y-59142959D01*
X96434108Y-59130000D01*
X101005881Y-59130000D01*
X100997436Y-59138445D01*
X100798000Y-59619925D01*
X100798000Y-60141075D01*
X100997436Y-60622555D01*
X101365945Y-60991064D01*
X101847425Y-61190500D01*
X102368575Y-61190500D01*
X102850055Y-60991064D01*
X103218564Y-60622555D01*
X103418000Y-60141075D01*
X103418000Y-59619925D01*
X103218564Y-59138445D01*
X103210119Y-59130000D01*
X108256001Y-59130000D01*
X108256001Y-63076030D01*
X108116829Y-62906565D01*
X107672415Y-62669214D01*
X107623471Y-62661901D01*
X107425000Y-62785933D01*
X107425000Y-64128000D01*
X107445000Y-64128000D01*
X107445000Y-64382000D01*
X107425000Y-64382000D01*
X107425000Y-65724067D01*
X107623471Y-65848099D01*
X107672415Y-65840786D01*
X108116829Y-65603435D01*
X108256001Y-65433971D01*
X108256000Y-94794000D01*
X82498000Y-94794000D01*
X82498000Y-89662000D01*
X88388041Y-89662000D01*
X88504350Y-90246725D01*
X88835570Y-90742430D01*
X89056000Y-90889717D01*
X89056001Y-90974283D01*
X88835570Y-91121570D01*
X88504350Y-91617275D01*
X88388041Y-92202000D01*
X88504350Y-92786725D01*
X88835570Y-93282430D01*
X89331275Y-93613650D01*
X89768402Y-93700600D01*
X90063598Y-93700600D01*
X90500725Y-93613650D01*
X90996430Y-93282430D01*
X91197854Y-92980979D01*
X91249179Y-93090490D01*
X91681053Y-93484688D01*
X92096974Y-93656958D01*
X92329000Y-93535817D01*
X92329000Y-92329000D01*
X92583000Y-92329000D01*
X92583000Y-93535817D01*
X92815026Y-93656958D01*
X93230947Y-93484688D01*
X93662821Y-93090490D01*
X93726000Y-92955687D01*
X93789179Y-93090490D01*
X94221053Y-93484688D01*
X94636974Y-93656958D01*
X94869000Y-93535817D01*
X94869000Y-92329000D01*
X95123000Y-92329000D01*
X95123000Y-93535817D01*
X95355026Y-93656958D01*
X95770947Y-93484688D01*
X96202821Y-93090490D01*
X96266000Y-92955687D01*
X96329179Y-93090490D01*
X96761053Y-93484688D01*
X97176974Y-93656958D01*
X97409000Y-93535817D01*
X97409000Y-92329000D01*
X95123000Y-92329000D01*
X94869000Y-92329000D01*
X92583000Y-92329000D01*
X92329000Y-92329000D01*
X92309000Y-92329000D01*
X92309000Y-92075000D01*
X92329000Y-92075000D01*
X92329000Y-89789000D01*
X92583000Y-89789000D01*
X92583000Y-92075000D01*
X94869000Y-92075000D01*
X94869000Y-89789000D01*
X95123000Y-89789000D01*
X95123000Y-92075000D01*
X97409000Y-92075000D01*
X97409000Y-89789000D01*
X95123000Y-89789000D01*
X94869000Y-89789000D01*
X92583000Y-89789000D01*
X92329000Y-89789000D01*
X92309000Y-89789000D01*
X92309000Y-89535000D01*
X92329000Y-89535000D01*
X92329000Y-88328183D01*
X92583000Y-88328183D01*
X92583000Y-89535000D01*
X94869000Y-89535000D01*
X94869000Y-88328183D01*
X94636974Y-88207042D01*
X94221053Y-88379312D01*
X93789179Y-88773510D01*
X93726000Y-88908313D01*
X93662821Y-88773510D01*
X93230947Y-88379312D01*
X92815026Y-88207042D01*
X92583000Y-88328183D01*
X92329000Y-88328183D01*
X92096974Y-88207042D01*
X91681053Y-88379312D01*
X91249179Y-88773510D01*
X91197854Y-88883021D01*
X90996430Y-88581570D01*
X90500725Y-88250350D01*
X90063598Y-88163400D01*
X89768402Y-88163400D01*
X89331275Y-88250350D01*
X88835570Y-88581570D01*
X88504350Y-89077275D01*
X88388041Y-89662000D01*
X82498000Y-89662000D01*
X82498000Y-83307250D01*
X83580000Y-83307250D01*
X83580000Y-83860309D01*
X83676673Y-84093698D01*
X83855301Y-84272327D01*
X84088690Y-84369000D01*
X84804250Y-84369000D01*
X84963000Y-84210250D01*
X84963000Y-83148500D01*
X83738750Y-83148500D01*
X83580000Y-83307250D01*
X82498000Y-83307250D01*
X82498000Y-82182691D01*
X83580000Y-82182691D01*
X83580000Y-82735750D01*
X83738750Y-82894500D01*
X84963000Y-82894500D01*
X84963000Y-81832750D01*
X84804250Y-81674000D01*
X84088690Y-81674000D01*
X83855301Y-81770673D01*
X83676673Y-81949302D01*
X83580000Y-82182691D01*
X82498000Y-82182691D01*
X82498000Y-79584000D01*
X83567560Y-79584000D01*
X83567560Y-80509000D01*
X83635874Y-80852435D01*
X83830414Y-81143586D01*
X84121565Y-81338126D01*
X84465000Y-81406440D01*
X85715000Y-81406440D01*
X86058435Y-81338126D01*
X86349586Y-81143586D01*
X86360000Y-81128000D01*
X86370414Y-81143586D01*
X86661565Y-81338126D01*
X87005000Y-81406440D01*
X88255000Y-81406440D01*
X88598435Y-81338126D01*
X88889586Y-81143586D01*
X88900000Y-81128000D01*
X88910414Y-81143586D01*
X89201565Y-81338126D01*
X89545000Y-81406440D01*
X90417450Y-81406440D01*
X90456547Y-81464953D01*
X90522089Y-81508747D01*
X90522091Y-81508749D01*
X90559882Y-81534000D01*
X90522091Y-81559251D01*
X90522089Y-81559253D01*
X90456547Y-81603047D01*
X90417450Y-81661560D01*
X89545000Y-81661560D01*
X89201565Y-81729874D01*
X88910414Y-81924414D01*
X88900000Y-81940000D01*
X88889586Y-81924414D01*
X88598435Y-81729874D01*
X88255000Y-81661560D01*
X87005000Y-81661560D01*
X86661565Y-81729874D01*
X86435171Y-81881145D01*
X86324699Y-81770673D01*
X86091310Y-81674000D01*
X85375750Y-81674000D01*
X85217000Y-81832750D01*
X85217000Y-82894500D01*
X85237000Y-82894500D01*
X85237000Y-83148500D01*
X85217000Y-83148500D01*
X85217000Y-84210250D01*
X85375750Y-84369000D01*
X86091310Y-84369000D01*
X86324699Y-84272327D01*
X86435171Y-84161855D01*
X86661565Y-84313126D01*
X86845001Y-84349614D01*
X86845001Y-84728684D01*
X86829622Y-84806000D01*
X86890546Y-85112291D01*
X87020251Y-85306408D01*
X87020254Y-85306411D01*
X87064048Y-85371953D01*
X87129590Y-85415747D01*
X87163152Y-85449309D01*
X87092458Y-85555109D01*
X86988846Y-86076000D01*
X87092458Y-86596891D01*
X87387519Y-87038481D01*
X87829109Y-87333542D01*
X88218515Y-87411000D01*
X89581485Y-87411000D01*
X89970891Y-87333542D01*
X90412481Y-87038481D01*
X90707542Y-86596891D01*
X90811154Y-86076000D01*
X90732494Y-85680550D01*
X92669000Y-85680550D01*
X92669000Y-86396110D01*
X92765673Y-86629499D01*
X92944302Y-86808127D01*
X93177691Y-86904800D01*
X93730750Y-86904800D01*
X93889500Y-86746050D01*
X93889500Y-85521800D01*
X94143500Y-85521800D01*
X94143500Y-86746050D01*
X94302250Y-86904800D01*
X94855309Y-86904800D01*
X95088698Y-86808127D01*
X95267327Y-86629499D01*
X95364000Y-86396110D01*
X95364000Y-85680550D01*
X95205250Y-85521800D01*
X94143500Y-85521800D01*
X93889500Y-85521800D01*
X92827750Y-85521800D01*
X92669000Y-85680550D01*
X90732494Y-85680550D01*
X90707542Y-85555109D01*
X90412481Y-85113519D01*
X89970891Y-84818458D01*
X89581485Y-84741000D01*
X88675157Y-84741000D01*
X88415000Y-84480843D01*
X88415000Y-84349614D01*
X88598435Y-84313126D01*
X88889586Y-84118586D01*
X88900000Y-84103000D01*
X88910414Y-84118586D01*
X89201565Y-84313126D01*
X89545000Y-84381440D01*
X90795000Y-84381440D01*
X91138435Y-84313126D01*
X91429586Y-84118586D01*
X91472381Y-84054538D01*
X91490673Y-84098699D01*
X91669302Y-84277327D01*
X91902691Y-84374000D01*
X92518250Y-84374000D01*
X92676998Y-84215252D01*
X92676998Y-84374000D01*
X92677073Y-84374000D01*
X92669000Y-84393490D01*
X92669000Y-85109050D01*
X92827750Y-85267800D01*
X93889500Y-85267800D01*
X93889500Y-85247800D01*
X94143500Y-85247800D01*
X94143500Y-85267800D01*
X95205250Y-85267800D01*
X95364000Y-85109050D01*
X95364000Y-84393490D01*
X95267327Y-84160101D01*
X95088698Y-83981473D01*
X94855309Y-83884800D01*
X94302250Y-83884800D01*
X94143502Y-84043548D01*
X94143502Y-84035507D01*
X94214000Y-83865310D01*
X94214000Y-83724750D01*
X94055250Y-83566000D01*
X92931000Y-83566000D01*
X92931000Y-83586000D01*
X92677000Y-83586000D01*
X92677000Y-83566000D01*
X92657000Y-83566000D01*
X92657000Y-83312000D01*
X92677000Y-83312000D01*
X92677000Y-83292000D01*
X92931000Y-83292000D01*
X92931000Y-83312000D01*
X94055250Y-83312000D01*
X94214000Y-83153250D01*
X94214000Y-83012690D01*
X94171925Y-82911113D01*
X94185292Y-82908454D01*
X94444953Y-82734953D01*
X94488749Y-82669408D01*
X95131177Y-82026980D01*
X95155548Y-82063453D01*
X95221090Y-82107247D01*
X95783251Y-82669408D01*
X95827047Y-82734953D01*
X96086708Y-82908454D01*
X96315684Y-82954000D01*
X96315688Y-82954000D01*
X96393000Y-82969378D01*
X96470312Y-82954000D01*
X96818358Y-82954000D01*
X96781560Y-83139000D01*
X96781560Y-83739000D01*
X96808087Y-83872360D01*
X96529000Y-83872360D01*
X96185565Y-83940674D01*
X95894414Y-84135214D01*
X95699874Y-84426365D01*
X95631560Y-84769800D01*
X95631560Y-86019800D01*
X95699874Y-86363235D01*
X95894414Y-86654386D01*
X96166048Y-86835885D01*
X96181398Y-86913054D01*
X96371475Y-87197525D01*
X96443282Y-87245505D01*
X97408998Y-88211221D01*
X97408998Y-88328182D01*
X97176974Y-88207042D01*
X96761053Y-88379312D01*
X96329179Y-88773510D01*
X96266000Y-88908313D01*
X96202821Y-88773510D01*
X95770947Y-88379312D01*
X95355026Y-88207042D01*
X95123000Y-88328183D01*
X95123000Y-89535000D01*
X97409000Y-89535000D01*
X97409000Y-89515000D01*
X97663000Y-89515000D01*
X97663000Y-89535000D01*
X97683000Y-89535000D01*
X97683000Y-89789000D01*
X97663000Y-89789000D01*
X97663000Y-92075000D01*
X97683000Y-92075000D01*
X97683000Y-92329000D01*
X97663000Y-92329000D01*
X97663000Y-93535817D01*
X97895026Y-93656958D01*
X98310947Y-93484688D01*
X98596480Y-93224064D01*
X98614243Y-93313365D01*
X98754591Y-93523409D01*
X98964635Y-93663757D01*
X99212400Y-93713040D01*
X100939600Y-93713040D01*
X101187365Y-93663757D01*
X101397409Y-93523409D01*
X101537757Y-93313365D01*
X101587040Y-93065600D01*
X101587040Y-91338400D01*
X101537757Y-91090635D01*
X101397409Y-90880591D01*
X101187365Y-90740243D01*
X101161349Y-90735068D01*
X101487650Y-90246725D01*
X101603959Y-89662000D01*
X101487650Y-89077275D01*
X101156430Y-88581570D01*
X100660725Y-88250350D01*
X100223598Y-88163400D01*
X99928402Y-88163400D01*
X99815984Y-88185761D01*
X98167102Y-86536879D01*
X98283126Y-86363235D01*
X98351440Y-86019800D01*
X98351440Y-85708284D01*
X98752221Y-85307503D01*
X98824025Y-85259525D01*
X99014102Y-84975055D01*
X99064000Y-84724201D01*
X99064000Y-84724196D01*
X99080847Y-84639500D01*
X99064000Y-84554804D01*
X99064000Y-84369533D01*
X99226765Y-84337157D01*
X99283871Y-84299000D01*
X99848424Y-84299000D01*
X99869565Y-84313126D01*
X100213000Y-84381440D01*
X100832255Y-84381440D01*
X100815000Y-84468185D01*
X100815000Y-84468188D01*
X100799622Y-84545500D01*
X100815000Y-84622812D01*
X100815000Y-84761590D01*
X100529109Y-84818458D01*
X100087519Y-85113519D01*
X99792458Y-85555109D01*
X99688846Y-86076000D01*
X99792458Y-86596891D01*
X100087519Y-87038481D01*
X100529109Y-87333542D01*
X100918515Y-87411000D01*
X102281485Y-87411000D01*
X102670891Y-87333542D01*
X103112481Y-87038481D01*
X103407542Y-86596891D01*
X103511154Y-86076000D01*
X103407542Y-85555109D01*
X103112481Y-85113519D01*
X102670891Y-84818458D01*
X102475971Y-84779686D01*
X102874217Y-84381440D01*
X103749000Y-84381440D01*
X104092435Y-84313126D01*
X104166567Y-84263593D01*
X104175301Y-84272327D01*
X104408690Y-84369000D01*
X105124250Y-84369000D01*
X105283000Y-84210250D01*
X105283000Y-83148500D01*
X105537000Y-83148500D01*
X105537000Y-84210250D01*
X105695750Y-84369000D01*
X106411310Y-84369000D01*
X106644699Y-84272327D01*
X106823327Y-84093698D01*
X106920000Y-83860309D01*
X106920000Y-83307250D01*
X106761250Y-83148500D01*
X105537000Y-83148500D01*
X105283000Y-83148500D01*
X105263000Y-83148500D01*
X105263000Y-82894500D01*
X105283000Y-82894500D01*
X105283000Y-81832750D01*
X105537000Y-81832750D01*
X105537000Y-82894500D01*
X106761250Y-82894500D01*
X106920000Y-82735750D01*
X106920000Y-82182691D01*
X106823327Y-81949302D01*
X106644699Y-81770673D01*
X106411310Y-81674000D01*
X105695750Y-81674000D01*
X105537000Y-81832750D01*
X105283000Y-81832750D01*
X105124250Y-81674000D01*
X104408690Y-81674000D01*
X104175301Y-81770673D01*
X104166567Y-81779407D01*
X104092435Y-81729874D01*
X103749000Y-81661560D01*
X102499000Y-81661560D01*
X102155565Y-81729874D01*
X101981000Y-81846514D01*
X101806435Y-81729874D01*
X101463000Y-81661560D01*
X100296598Y-81661560D01*
X100551718Y-81406440D01*
X101463000Y-81406440D01*
X101806435Y-81338126D01*
X101981000Y-81221486D01*
X102155565Y-81338126D01*
X102499000Y-81406440D01*
X103749000Y-81406440D01*
X104092435Y-81338126D01*
X104267000Y-81221486D01*
X104441565Y-81338126D01*
X104785000Y-81406440D01*
X106035000Y-81406440D01*
X106378435Y-81338126D01*
X106669586Y-81143586D01*
X106864126Y-80852435D01*
X106932440Y-80509000D01*
X106932440Y-79584000D01*
X106864126Y-79240565D01*
X106669586Y-78949414D01*
X106378435Y-78754874D01*
X106035000Y-78686560D01*
X105433000Y-78686560D01*
X105433000Y-73091314D01*
X105517507Y-73056310D01*
X105949310Y-72624507D01*
X106183000Y-72060330D01*
X106183000Y-71449670D01*
X105949310Y-70885493D01*
X105517507Y-70453690D01*
X104953330Y-70220000D01*
X104828636Y-70220000D01*
X104937926Y-70056435D01*
X105006240Y-69713000D01*
X105006240Y-68463000D01*
X104937926Y-68119565D01*
X104743386Y-67828414D01*
X104452235Y-67633874D01*
X104108800Y-67565560D01*
X103183800Y-67565560D01*
X102840365Y-67633874D01*
X102549214Y-67828414D01*
X102354674Y-68119565D01*
X102286360Y-68463000D01*
X102286360Y-69713000D01*
X102354674Y-70056435D01*
X102468034Y-70226090D01*
X102453330Y-70220000D01*
X101853636Y-70220000D01*
X101962926Y-70056435D01*
X102031240Y-69713000D01*
X102031240Y-68463000D01*
X101962926Y-68119565D01*
X101768386Y-67828414D01*
X101477235Y-67633874D01*
X101133800Y-67565560D01*
X100208800Y-67565560D01*
X99865365Y-67633874D01*
X99574214Y-67828414D01*
X99379674Y-68119565D01*
X99311360Y-68463000D01*
X99311360Y-68475733D01*
X99307591Y-68478251D01*
X99307589Y-68478253D01*
X99242047Y-68522047D01*
X99198253Y-68587589D01*
X96491090Y-71294753D01*
X96425548Y-71338547D01*
X96381754Y-71404089D01*
X96381751Y-71404092D01*
X96252046Y-71598209D01*
X96191122Y-71904500D01*
X96206501Y-71981817D01*
X96206501Y-72963710D01*
X96185565Y-72967874D01*
X95914010Y-73149320D01*
X95914010Y-69751647D01*
X96579217Y-69086440D01*
X97454000Y-69086440D01*
X97797435Y-69018126D01*
X98088586Y-68823586D01*
X98283126Y-68532435D01*
X98351440Y-68189000D01*
X98351440Y-66939000D01*
X98283126Y-66595565D01*
X98088586Y-66304414D01*
X97797435Y-66109874D01*
X97454000Y-66041560D01*
X96529000Y-66041560D01*
X96185565Y-66109874D01*
X95894414Y-66304414D01*
X95699874Y-66595565D01*
X95631560Y-66939000D01*
X95631560Y-67813783D01*
X95376440Y-68068903D01*
X95376440Y-66939000D01*
X95308126Y-66595565D01*
X95113586Y-66304414D01*
X94822435Y-66109874D01*
X94479000Y-66041560D01*
X93554000Y-66041560D01*
X93210565Y-66109874D01*
X92919414Y-66304414D01*
X92724874Y-66595565D01*
X92688386Y-66779000D01*
X89664556Y-66779000D01*
X89587244Y-66763622D01*
X89509932Y-66779000D01*
X89509928Y-66779000D01*
X89280952Y-66824546D01*
X89021291Y-66998047D01*
X88977495Y-67063592D01*
X88457080Y-67584007D01*
X88391538Y-67627801D01*
X88347744Y-67693343D01*
X88347741Y-67693346D01*
X88224789Y-67877357D01*
X88192086Y-67828414D01*
X87900935Y-67633874D01*
X87557500Y-67565560D01*
X86632500Y-67565560D01*
X86289065Y-67633874D01*
X85997914Y-67828414D01*
X85803374Y-68119565D01*
X85735060Y-68463000D01*
X85735060Y-69713000D01*
X85803374Y-70056435D01*
X85960789Y-70292024D01*
X85570493Y-70453690D01*
X85138690Y-70885493D01*
X84905000Y-71449670D01*
X84905000Y-72060330D01*
X85138690Y-72624507D01*
X85570493Y-73056310D01*
X86134670Y-73290000D01*
X86745330Y-73290000D01*
X87309507Y-73056310D01*
X87690000Y-72675817D01*
X88070493Y-73056310D01*
X88634670Y-73290000D01*
X89245330Y-73290000D01*
X89809507Y-73056310D01*
X90190000Y-72675817D01*
X90570493Y-73056310D01*
X91134670Y-73290000D01*
X91745330Y-73290000D01*
X92309507Y-73056310D01*
X92741310Y-72624507D01*
X92975000Y-72060330D01*
X92975000Y-71449670D01*
X92741310Y-70885493D01*
X92309507Y-70453690D01*
X91745330Y-70220000D01*
X91363366Y-70220000D01*
X91417500Y-70089310D01*
X91417500Y-69373750D01*
X91258750Y-69215000D01*
X90197000Y-69215000D01*
X90197000Y-70439250D01*
X90355750Y-70598000D01*
X90426183Y-70598000D01*
X90190000Y-70834183D01*
X89869034Y-70513217D01*
X89943000Y-70439250D01*
X89943000Y-69215000D01*
X89923000Y-69215000D01*
X89923000Y-68961000D01*
X89943000Y-68961000D01*
X89943000Y-68941000D01*
X90197000Y-68941000D01*
X90197000Y-68961000D01*
X91258750Y-68961000D01*
X91417500Y-68802250D01*
X91417500Y-68349000D01*
X92688386Y-68349000D01*
X92724874Y-68532435D01*
X92919414Y-68823586D01*
X93210565Y-69018126D01*
X93554000Y-69086440D01*
X94412113Y-69086440D01*
X94389556Y-69120199D01*
X94328632Y-69426490D01*
X94344011Y-69503807D01*
X94344011Y-72899560D01*
X93554000Y-72899560D01*
X93210565Y-72967874D01*
X92919414Y-73162414D01*
X92724874Y-73453565D01*
X92656560Y-73797000D01*
X92656560Y-74671783D01*
X92403582Y-74924761D01*
X92338037Y-74968557D01*
X92164536Y-75228219D01*
X92118990Y-75457195D01*
X92118990Y-75457198D01*
X92103612Y-75534510D01*
X92118990Y-75611822D01*
X92118991Y-76987351D01*
X90440942Y-78665401D01*
X90440939Y-78665403D01*
X90419782Y-78686560D01*
X90407308Y-78686560D01*
X90654641Y-78316400D01*
X90762133Y-77776000D01*
X90654641Y-77235600D01*
X90348529Y-76777471D01*
X89890400Y-76471359D01*
X89486407Y-76391000D01*
X88313593Y-76391000D01*
X87909600Y-76471359D01*
X87451471Y-76777471D01*
X87145359Y-77235600D01*
X87037867Y-77776000D01*
X87145359Y-78316400D01*
X87392692Y-78686560D01*
X87005000Y-78686560D01*
X86661565Y-78754874D01*
X86370414Y-78949414D01*
X86360000Y-78965000D01*
X86349586Y-78949414D01*
X86058435Y-78754874D01*
X85715000Y-78686560D01*
X84465000Y-78686560D01*
X84121565Y-78754874D01*
X83830414Y-78949414D01*
X83635874Y-79240565D01*
X83567560Y-79584000D01*
X82498000Y-79584000D01*
X82498000Y-74961750D01*
X87165000Y-74961750D01*
X87165000Y-75552310D01*
X87261673Y-75785699D01*
X87440302Y-75964327D01*
X87673691Y-76061000D01*
X88614250Y-76061000D01*
X88773000Y-75902250D01*
X88773000Y-74803000D01*
X89027000Y-74803000D01*
X89027000Y-75902250D01*
X89185750Y-76061000D01*
X90126309Y-76061000D01*
X90359698Y-75964327D01*
X90538327Y-75785699D01*
X90635000Y-75552310D01*
X90635000Y-74961750D01*
X90476250Y-74803000D01*
X89027000Y-74803000D01*
X88773000Y-74803000D01*
X87323750Y-74803000D01*
X87165000Y-74961750D01*
X82498000Y-74961750D01*
X82498000Y-73799690D01*
X87165000Y-73799690D01*
X87165000Y-74390250D01*
X87323750Y-74549000D01*
X88773000Y-74549000D01*
X88773000Y-73449750D01*
X89027000Y-73449750D01*
X89027000Y-74549000D01*
X90476250Y-74549000D01*
X90635000Y-74390250D01*
X90635000Y-73799690D01*
X90538327Y-73566301D01*
X90359698Y-73387673D01*
X90126309Y-73291000D01*
X89185750Y-73291000D01*
X89027000Y-73449750D01*
X88773000Y-73449750D01*
X88614250Y-73291000D01*
X87673691Y-73291000D01*
X87440302Y-73387673D01*
X87261673Y-73566301D01*
X87165000Y-73799690D01*
X82498000Y-73799690D01*
X82498000Y-64382000D01*
X82505000Y-64382000D01*
X82505000Y-64732000D01*
X82651416Y-65214081D01*
X82971171Y-65603435D01*
X83415585Y-65840786D01*
X83464529Y-65848099D01*
X83663000Y-65724067D01*
X83663000Y-64382000D01*
X83917000Y-64382000D01*
X83917000Y-65724067D01*
X84115471Y-65848099D01*
X84164415Y-65840786D01*
X84608829Y-65603435D01*
X84928584Y-65214081D01*
X85075000Y-64732000D01*
X85075000Y-64382000D01*
X92805000Y-64382000D01*
X92805000Y-64732000D01*
X92951416Y-65214081D01*
X93271171Y-65603435D01*
X93715585Y-65840786D01*
X93764529Y-65848099D01*
X93963000Y-65724067D01*
X93963000Y-64382000D01*
X94217000Y-64382000D01*
X94217000Y-65724067D01*
X94415471Y-65848099D01*
X94464415Y-65840786D01*
X94908829Y-65603435D01*
X95228584Y-65214081D01*
X95375000Y-64732000D01*
X95375000Y-64382000D01*
X95713000Y-64382000D01*
X95713000Y-64732000D01*
X95859416Y-65214081D01*
X96179171Y-65603435D01*
X96623585Y-65840786D01*
X96672529Y-65848099D01*
X96871000Y-65724067D01*
X96871000Y-64382000D01*
X97125000Y-64382000D01*
X97125000Y-65724067D01*
X97323471Y-65848099D01*
X97372415Y-65840786D01*
X97816829Y-65603435D01*
X98136584Y-65214081D01*
X98283000Y-64732000D01*
X98283000Y-64382000D01*
X106013000Y-64382000D01*
X106013000Y-64732000D01*
X106159416Y-65214081D01*
X106479171Y-65603435D01*
X106923585Y-65840786D01*
X106972529Y-65848099D01*
X107171000Y-65724067D01*
X107171000Y-64382000D01*
X106013000Y-64382000D01*
X98283000Y-64382000D01*
X97125000Y-64382000D01*
X96871000Y-64382000D01*
X95713000Y-64382000D01*
X95375000Y-64382000D01*
X94217000Y-64382000D01*
X93963000Y-64382000D01*
X92805000Y-64382000D01*
X85075000Y-64382000D01*
X83917000Y-64382000D01*
X83663000Y-64382000D01*
X82505000Y-64382000D01*
X82498000Y-64382000D01*
X82498000Y-63778000D01*
X82505000Y-63778000D01*
X82505000Y-64128000D01*
X83663000Y-64128000D01*
X83663000Y-62785933D01*
X83917000Y-62785933D01*
X83917000Y-64128000D01*
X85075000Y-64128000D01*
X85075000Y-63778000D01*
X92805000Y-63778000D01*
X92805000Y-64128000D01*
X93963000Y-64128000D01*
X93963000Y-62785933D01*
X94217000Y-62785933D01*
X94217000Y-64128000D01*
X95375000Y-64128000D01*
X95375000Y-63778000D01*
X95713000Y-63778000D01*
X95713000Y-64128000D01*
X96871000Y-64128000D01*
X96871000Y-62785933D01*
X97125000Y-62785933D01*
X97125000Y-64128000D01*
X98283000Y-64128000D01*
X98283000Y-63778000D01*
X106013000Y-63778000D01*
X106013000Y-64128000D01*
X107171000Y-64128000D01*
X107171000Y-62785933D01*
X106972529Y-62661901D01*
X106923585Y-62669214D01*
X106479171Y-62906565D01*
X106159416Y-63295919D01*
X106013000Y-63778000D01*
X98283000Y-63778000D01*
X98136584Y-63295919D01*
X97816829Y-62906565D01*
X97372415Y-62669214D01*
X97323471Y-62661901D01*
X97125000Y-62785933D01*
X96871000Y-62785933D01*
X96672529Y-62661901D01*
X96623585Y-62669214D01*
X96179171Y-62906565D01*
X95859416Y-63295919D01*
X95713000Y-63778000D01*
X95375000Y-63778000D01*
X95228584Y-63295919D01*
X94908829Y-62906565D01*
X94464415Y-62669214D01*
X94415471Y-62661901D01*
X94217000Y-62785933D01*
X93963000Y-62785933D01*
X93764529Y-62661901D01*
X93715585Y-62669214D01*
X93271171Y-62906565D01*
X92951416Y-63295919D01*
X92805000Y-63778000D01*
X85075000Y-63778000D01*
X84928584Y-63295919D01*
X84608829Y-62906565D01*
X84164415Y-62669214D01*
X84115471Y-62661901D01*
X83917000Y-62785933D01*
X83663000Y-62785933D01*
X83464529Y-62661901D01*
X83415585Y-62669214D01*
X82971171Y-62906565D01*
X82651416Y-63295919D01*
X82505000Y-63778000D01*
X82498000Y-63778000D01*
X82498000Y-59130000D01*
X87797881Y-59130000D01*
X87789436Y-59138445D01*
X87789436Y-59138445D01*
G37*
X87789436Y-59138445D02*
X87590000Y-59619925D01*
X87590000Y-60141075D01*
X87789436Y-60622555D01*
X88157945Y-60991064D01*
X88639425Y-61190500D01*
X89160575Y-61190500D01*
X89642055Y-60991064D01*
X89835472Y-60797647D01*
X94766458Y-60797647D01*
X94825219Y-61030828D01*
X95317100Y-61203022D01*
X95837434Y-61173875D01*
X96182781Y-61030828D01*
X96241542Y-60797647D01*
X95504000Y-60060105D01*
X94766458Y-60797647D01*
X89835472Y-60797647D01*
X90010564Y-60622555D01*
X90210000Y-60141075D01*
X90210000Y-59619925D01*
X90010564Y-59138445D01*
X90002119Y-59130000D01*
X94573892Y-59130000D01*
X94586851Y-59142959D01*
X94353672Y-59201719D01*
X94181478Y-59693600D01*
X94210625Y-60213934D01*
X94353672Y-60559281D01*
X94586853Y-60618042D01*
X95324395Y-59880500D01*
X95310253Y-59866358D01*
X95489858Y-59686753D01*
X95504000Y-59700895D01*
X95518143Y-59686753D01*
X95697748Y-59866358D01*
X95683605Y-59880500D01*
X96421147Y-60618042D01*
X96654328Y-60559281D01*
X96826522Y-60067400D01*
X96797375Y-59547066D01*
X96654328Y-59201719D01*
X96421149Y-59142959D01*
X96434108Y-59130000D01*
X101005881Y-59130000D01*
X100997436Y-59138445D01*
X100798000Y-59619925D01*
X100798000Y-60141075D01*
X100997436Y-60622555D01*
X101365945Y-60991064D01*
X101847425Y-61190500D01*
X102368575Y-61190500D01*
X102850055Y-60991064D01*
X103218564Y-60622555D01*
X103418000Y-60141075D01*
X103418000Y-59619925D01*
X103218564Y-59138445D01*
X103210119Y-59130000D01*
X108256001Y-59130000D01*
X108256001Y-63076030D01*
X108116829Y-62906565D01*
X107672415Y-62669214D01*
X107623471Y-62661901D01*
X107425000Y-62785933D01*
X107425000Y-64128000D01*
X107445000Y-64128000D01*
X107445000Y-64382000D01*
X107425000Y-64382000D01*
X107425000Y-65724067D01*
X107623471Y-65848099D01*
X107672415Y-65840786D01*
X108116829Y-65603435D01*
X108256001Y-65433971D01*
X108256000Y-94794000D01*
X82498000Y-94794000D01*
X82498000Y-89662000D01*
X88388041Y-89662000D01*
X88504350Y-90246725D01*
X88835570Y-90742430D01*
X89056000Y-90889717D01*
X89056001Y-90974283D01*
X88835570Y-91121570D01*
X88504350Y-91617275D01*
X88388041Y-92202000D01*
X88504350Y-92786725D01*
X88835570Y-93282430D01*
X89331275Y-93613650D01*
X89768402Y-93700600D01*
X90063598Y-93700600D01*
X90500725Y-93613650D01*
X90996430Y-93282430D01*
X91197854Y-92980979D01*
X91249179Y-93090490D01*
X91681053Y-93484688D01*
X92096974Y-93656958D01*
X92329000Y-93535817D01*
X92329000Y-92329000D01*
X92583000Y-92329000D01*
X92583000Y-93535817D01*
X92815026Y-93656958D01*
X93230947Y-93484688D01*
X93662821Y-93090490D01*
X93726000Y-92955687D01*
X93789179Y-93090490D01*
X94221053Y-93484688D01*
X94636974Y-93656958D01*
X94869000Y-93535817D01*
X94869000Y-92329000D01*
X95123000Y-92329000D01*
X95123000Y-93535817D01*
X95355026Y-93656958D01*
X95770947Y-93484688D01*
X96202821Y-93090490D01*
X96266000Y-92955687D01*
X96329179Y-93090490D01*
X96761053Y-93484688D01*
X97176974Y-93656958D01*
X97409000Y-93535817D01*
X97409000Y-92329000D01*
X95123000Y-92329000D01*
X94869000Y-92329000D01*
X92583000Y-92329000D01*
X92329000Y-92329000D01*
X92309000Y-92329000D01*
X92309000Y-92075000D01*
X92329000Y-92075000D01*
X92329000Y-89789000D01*
X92583000Y-89789000D01*
X92583000Y-92075000D01*
X94869000Y-92075000D01*
X94869000Y-89789000D01*
X95123000Y-89789000D01*
X95123000Y-92075000D01*
X97409000Y-92075000D01*
X97409000Y-89789000D01*
X95123000Y-89789000D01*
X94869000Y-89789000D01*
X92583000Y-89789000D01*
X92329000Y-89789000D01*
X92309000Y-89789000D01*
X92309000Y-89535000D01*
X92329000Y-89535000D01*
X92329000Y-88328183D01*
X92583000Y-88328183D01*
X92583000Y-89535000D01*
X94869000Y-89535000D01*
X94869000Y-88328183D01*
X94636974Y-88207042D01*
X94221053Y-88379312D01*
X93789179Y-88773510D01*
X93726000Y-88908313D01*
X93662821Y-88773510D01*
X93230947Y-88379312D01*
X92815026Y-88207042D01*
X92583000Y-88328183D01*
X92329000Y-88328183D01*
X92096974Y-88207042D01*
X91681053Y-88379312D01*
X91249179Y-88773510D01*
X91197854Y-88883021D01*
X90996430Y-88581570D01*
X90500725Y-88250350D01*
X90063598Y-88163400D01*
X89768402Y-88163400D01*
X89331275Y-88250350D01*
X88835570Y-88581570D01*
X88504350Y-89077275D01*
X88388041Y-89662000D01*
X82498000Y-89662000D01*
X82498000Y-83307250D01*
X83580000Y-83307250D01*
X83580000Y-83860309D01*
X83676673Y-84093698D01*
X83855301Y-84272327D01*
X84088690Y-84369000D01*
X84804250Y-84369000D01*
X84963000Y-84210250D01*
X84963000Y-83148500D01*
X83738750Y-83148500D01*
X83580000Y-83307250D01*
X82498000Y-83307250D01*
X82498000Y-82182691D01*
X83580000Y-82182691D01*
X83580000Y-82735750D01*
X83738750Y-82894500D01*
X84963000Y-82894500D01*
X84963000Y-81832750D01*
X84804250Y-81674000D01*
X84088690Y-81674000D01*
X83855301Y-81770673D01*
X83676673Y-81949302D01*
X83580000Y-82182691D01*
X82498000Y-82182691D01*
X82498000Y-79584000D01*
X83567560Y-79584000D01*
X83567560Y-80509000D01*
X83635874Y-80852435D01*
X83830414Y-81143586D01*
X84121565Y-81338126D01*
X84465000Y-81406440D01*
X85715000Y-81406440D01*
X86058435Y-81338126D01*
X86349586Y-81143586D01*
X86360000Y-81128000D01*
X86370414Y-81143586D01*
X86661565Y-81338126D01*
X87005000Y-81406440D01*
X88255000Y-81406440D01*
X88598435Y-81338126D01*
X88889586Y-81143586D01*
X88900000Y-81128000D01*
X88910414Y-81143586D01*
X89201565Y-81338126D01*
X89545000Y-81406440D01*
X90417450Y-81406440D01*
X90456547Y-81464953D01*
X90522089Y-81508747D01*
X90522091Y-81508749D01*
X90559882Y-81534000D01*
X90522091Y-81559251D01*
X90522089Y-81559253D01*
X90456547Y-81603047D01*
X90417450Y-81661560D01*
X89545000Y-81661560D01*
X89201565Y-81729874D01*
X88910414Y-81924414D01*
X88900000Y-81940000D01*
X88889586Y-81924414D01*
X88598435Y-81729874D01*
X88255000Y-81661560D01*
X87005000Y-81661560D01*
X86661565Y-81729874D01*
X86435171Y-81881145D01*
X86324699Y-81770673D01*
X86091310Y-81674000D01*
X85375750Y-81674000D01*
X85217000Y-81832750D01*
X85217000Y-82894500D01*
X85237000Y-82894500D01*
X85237000Y-83148500D01*
X85217000Y-83148500D01*
X85217000Y-84210250D01*
X85375750Y-84369000D01*
X86091310Y-84369000D01*
X86324699Y-84272327D01*
X86435171Y-84161855D01*
X86661565Y-84313126D01*
X86845001Y-84349614D01*
X86845001Y-84728684D01*
X86829622Y-84806000D01*
X86890546Y-85112291D01*
X87020251Y-85306408D01*
X87020254Y-85306411D01*
X87064048Y-85371953D01*
X87129590Y-85415747D01*
X87163152Y-85449309D01*
X87092458Y-85555109D01*
X86988846Y-86076000D01*
X87092458Y-86596891D01*
X87387519Y-87038481D01*
X87829109Y-87333542D01*
X88218515Y-87411000D01*
X89581485Y-87411000D01*
X89970891Y-87333542D01*
X90412481Y-87038481D01*
X90707542Y-86596891D01*
X90811154Y-86076000D01*
X90732494Y-85680550D01*
X92669000Y-85680550D01*
X92669000Y-86396110D01*
X92765673Y-86629499D01*
X92944302Y-86808127D01*
X93177691Y-86904800D01*
X93730750Y-86904800D01*
X93889500Y-86746050D01*
X93889500Y-85521800D01*
X94143500Y-85521800D01*
X94143500Y-86746050D01*
X94302250Y-86904800D01*
X94855309Y-86904800D01*
X95088698Y-86808127D01*
X95267327Y-86629499D01*
X95364000Y-86396110D01*
X95364000Y-85680550D01*
X95205250Y-85521800D01*
X94143500Y-85521800D01*
X93889500Y-85521800D01*
X92827750Y-85521800D01*
X92669000Y-85680550D01*
X90732494Y-85680550D01*
X90707542Y-85555109D01*
X90412481Y-85113519D01*
X89970891Y-84818458D01*
X89581485Y-84741000D01*
X88675157Y-84741000D01*
X88415000Y-84480843D01*
X88415000Y-84349614D01*
X88598435Y-84313126D01*
X88889586Y-84118586D01*
X88900000Y-84103000D01*
X88910414Y-84118586D01*
X89201565Y-84313126D01*
X89545000Y-84381440D01*
X90795000Y-84381440D01*
X91138435Y-84313126D01*
X91429586Y-84118586D01*
X91472381Y-84054538D01*
X91490673Y-84098699D01*
X91669302Y-84277327D01*
X91902691Y-84374000D01*
X92518250Y-84374000D01*
X92676998Y-84215252D01*
X92676998Y-84374000D01*
X92677073Y-84374000D01*
X92669000Y-84393490D01*
X92669000Y-85109050D01*
X92827750Y-85267800D01*
X93889500Y-85267800D01*
X93889500Y-85247800D01*
X94143500Y-85247800D01*
X94143500Y-85267800D01*
X95205250Y-85267800D01*
X95364000Y-85109050D01*
X95364000Y-84393490D01*
X95267327Y-84160101D01*
X95088698Y-83981473D01*
X94855309Y-83884800D01*
X94302250Y-83884800D01*
X94143502Y-84043548D01*
X94143502Y-84035507D01*
X94214000Y-83865310D01*
X94214000Y-83724750D01*
X94055250Y-83566000D01*
X92931000Y-83566000D01*
X92931000Y-83586000D01*
X92677000Y-83586000D01*
X92677000Y-83566000D01*
X92657000Y-83566000D01*
X92657000Y-83312000D01*
X92677000Y-83312000D01*
X92677000Y-83292000D01*
X92931000Y-83292000D01*
X92931000Y-83312000D01*
X94055250Y-83312000D01*
X94214000Y-83153250D01*
X94214000Y-83012690D01*
X94171925Y-82911113D01*
X94185292Y-82908454D01*
X94444953Y-82734953D01*
X94488749Y-82669408D01*
X95131177Y-82026980D01*
X95155548Y-82063453D01*
X95221090Y-82107247D01*
X95783251Y-82669408D01*
X95827047Y-82734953D01*
X96086708Y-82908454D01*
X96315684Y-82954000D01*
X96315688Y-82954000D01*
X96393000Y-82969378D01*
X96470312Y-82954000D01*
X96818358Y-82954000D01*
X96781560Y-83139000D01*
X96781560Y-83739000D01*
X96808087Y-83872360D01*
X96529000Y-83872360D01*
X96185565Y-83940674D01*
X95894414Y-84135214D01*
X95699874Y-84426365D01*
X95631560Y-84769800D01*
X95631560Y-86019800D01*
X95699874Y-86363235D01*
X95894414Y-86654386D01*
X96166048Y-86835885D01*
X96181398Y-86913054D01*
X96371475Y-87197525D01*
X96443282Y-87245505D01*
X97408998Y-88211221D01*
X97408998Y-88328182D01*
X97176974Y-88207042D01*
X96761053Y-88379312D01*
X96329179Y-88773510D01*
X96266000Y-88908313D01*
X96202821Y-88773510D01*
X95770947Y-88379312D01*
X95355026Y-88207042D01*
X95123000Y-88328183D01*
X95123000Y-89535000D01*
X97409000Y-89535000D01*
X97409000Y-89515000D01*
X97663000Y-89515000D01*
X97663000Y-89535000D01*
X97683000Y-89535000D01*
X97683000Y-89789000D01*
X97663000Y-89789000D01*
X97663000Y-92075000D01*
X97683000Y-92075000D01*
X97683000Y-92329000D01*
X97663000Y-92329000D01*
X97663000Y-93535817D01*
X97895026Y-93656958D01*
X98310947Y-93484688D01*
X98596480Y-93224064D01*
X98614243Y-93313365D01*
X98754591Y-93523409D01*
X98964635Y-93663757D01*
X99212400Y-93713040D01*
X100939600Y-93713040D01*
X101187365Y-93663757D01*
X101397409Y-93523409D01*
X101537757Y-93313365D01*
X101587040Y-93065600D01*
X101587040Y-91338400D01*
X101537757Y-91090635D01*
X101397409Y-90880591D01*
X101187365Y-90740243D01*
X101161349Y-90735068D01*
X101487650Y-90246725D01*
X101603959Y-89662000D01*
X101487650Y-89077275D01*
X101156430Y-88581570D01*
X100660725Y-88250350D01*
X100223598Y-88163400D01*
X99928402Y-88163400D01*
X99815984Y-88185761D01*
X98167102Y-86536879D01*
X98283126Y-86363235D01*
X98351440Y-86019800D01*
X98351440Y-85708284D01*
X98752221Y-85307503D01*
X98824025Y-85259525D01*
X99014102Y-84975055D01*
X99064000Y-84724201D01*
X99064000Y-84724196D01*
X99080847Y-84639500D01*
X99064000Y-84554804D01*
X99064000Y-84369533D01*
X99226765Y-84337157D01*
X99283871Y-84299000D01*
X99848424Y-84299000D01*
X99869565Y-84313126D01*
X100213000Y-84381440D01*
X100832255Y-84381440D01*
X100815000Y-84468185D01*
X100815000Y-84468188D01*
X100799622Y-84545500D01*
X100815000Y-84622812D01*
X100815000Y-84761590D01*
X100529109Y-84818458D01*
X100087519Y-85113519D01*
X99792458Y-85555109D01*
X99688846Y-86076000D01*
X99792458Y-86596891D01*
X100087519Y-87038481D01*
X100529109Y-87333542D01*
X100918515Y-87411000D01*
X102281485Y-87411000D01*
X102670891Y-87333542D01*
X103112481Y-87038481D01*
X103407542Y-86596891D01*
X103511154Y-86076000D01*
X103407542Y-85555109D01*
X103112481Y-85113519D01*
X102670891Y-84818458D01*
X102475971Y-84779686D01*
X102874217Y-84381440D01*
X103749000Y-84381440D01*
X104092435Y-84313126D01*
X104166567Y-84263593D01*
X104175301Y-84272327D01*
X104408690Y-84369000D01*
X105124250Y-84369000D01*
X105283000Y-84210250D01*
X105283000Y-83148500D01*
X105537000Y-83148500D01*
X105537000Y-84210250D01*
X105695750Y-84369000D01*
X106411310Y-84369000D01*
X106644699Y-84272327D01*
X106823327Y-84093698D01*
X106920000Y-83860309D01*
X106920000Y-83307250D01*
X106761250Y-83148500D01*
X105537000Y-83148500D01*
X105283000Y-83148500D01*
X105263000Y-83148500D01*
X105263000Y-82894500D01*
X105283000Y-82894500D01*
X105283000Y-81832750D01*
X105537000Y-81832750D01*
X105537000Y-82894500D01*
X106761250Y-82894500D01*
X106920000Y-82735750D01*
X106920000Y-82182691D01*
X106823327Y-81949302D01*
X106644699Y-81770673D01*
X106411310Y-81674000D01*
X105695750Y-81674000D01*
X105537000Y-81832750D01*
X105283000Y-81832750D01*
X105124250Y-81674000D01*
X104408690Y-81674000D01*
X104175301Y-81770673D01*
X104166567Y-81779407D01*
X104092435Y-81729874D01*
X103749000Y-81661560D01*
X102499000Y-81661560D01*
X102155565Y-81729874D01*
X101981000Y-81846514D01*
X101806435Y-81729874D01*
X101463000Y-81661560D01*
X100296598Y-81661560D01*
X100551718Y-81406440D01*
X101463000Y-81406440D01*
X101806435Y-81338126D01*
X101981000Y-81221486D01*
X102155565Y-81338126D01*
X102499000Y-81406440D01*
X103749000Y-81406440D01*
X104092435Y-81338126D01*
X104267000Y-81221486D01*
X104441565Y-81338126D01*
X104785000Y-81406440D01*
X106035000Y-81406440D01*
X106378435Y-81338126D01*
X106669586Y-81143586D01*
X106864126Y-80852435D01*
X106932440Y-80509000D01*
X106932440Y-79584000D01*
X106864126Y-79240565D01*
X106669586Y-78949414D01*
X106378435Y-78754874D01*
X106035000Y-78686560D01*
X105433000Y-78686560D01*
X105433000Y-73091314D01*
X105517507Y-73056310D01*
X105949310Y-72624507D01*
X106183000Y-72060330D01*
X106183000Y-71449670D01*
X105949310Y-70885493D01*
X105517507Y-70453690D01*
X104953330Y-70220000D01*
X104828636Y-70220000D01*
X104937926Y-70056435D01*
X105006240Y-69713000D01*
X105006240Y-68463000D01*
X104937926Y-68119565D01*
X104743386Y-67828414D01*
X104452235Y-67633874D01*
X104108800Y-67565560D01*
X103183800Y-67565560D01*
X102840365Y-67633874D01*
X102549214Y-67828414D01*
X102354674Y-68119565D01*
X102286360Y-68463000D01*
X102286360Y-69713000D01*
X102354674Y-70056435D01*
X102468034Y-70226090D01*
X102453330Y-70220000D01*
X101853636Y-70220000D01*
X101962926Y-70056435D01*
X102031240Y-69713000D01*
X102031240Y-68463000D01*
X101962926Y-68119565D01*
X101768386Y-67828414D01*
X101477235Y-67633874D01*
X101133800Y-67565560D01*
X100208800Y-67565560D01*
X99865365Y-67633874D01*
X99574214Y-67828414D01*
X99379674Y-68119565D01*
X99311360Y-68463000D01*
X99311360Y-68475733D01*
X99307591Y-68478251D01*
X99307589Y-68478253D01*
X99242047Y-68522047D01*
X99198253Y-68587589D01*
X96491090Y-71294753D01*
X96425548Y-71338547D01*
X96381754Y-71404089D01*
X96381751Y-71404092D01*
X96252046Y-71598209D01*
X96191122Y-71904500D01*
X96206501Y-71981817D01*
X96206501Y-72963710D01*
X96185565Y-72967874D01*
X95914010Y-73149320D01*
X95914010Y-69751647D01*
X96579217Y-69086440D01*
X97454000Y-69086440D01*
X97797435Y-69018126D01*
X98088586Y-68823586D01*
X98283126Y-68532435D01*
X98351440Y-68189000D01*
X98351440Y-66939000D01*
X98283126Y-66595565D01*
X98088586Y-66304414D01*
X97797435Y-66109874D01*
X97454000Y-66041560D01*
X96529000Y-66041560D01*
X96185565Y-66109874D01*
X95894414Y-66304414D01*
X95699874Y-66595565D01*
X95631560Y-66939000D01*
X95631560Y-67813783D01*
X95376440Y-68068903D01*
X95376440Y-66939000D01*
X95308126Y-66595565D01*
X95113586Y-66304414D01*
X94822435Y-66109874D01*
X94479000Y-66041560D01*
X93554000Y-66041560D01*
X93210565Y-66109874D01*
X92919414Y-66304414D01*
X92724874Y-66595565D01*
X92688386Y-66779000D01*
X89664556Y-66779000D01*
X89587244Y-66763622D01*
X89509932Y-66779000D01*
X89509928Y-66779000D01*
X89280952Y-66824546D01*
X89021291Y-66998047D01*
X88977495Y-67063592D01*
X88457080Y-67584007D01*
X88391538Y-67627801D01*
X88347744Y-67693343D01*
X88347741Y-67693346D01*
X88224789Y-67877357D01*
X88192086Y-67828414D01*
X87900935Y-67633874D01*
X87557500Y-67565560D01*
X86632500Y-67565560D01*
X86289065Y-67633874D01*
X85997914Y-67828414D01*
X85803374Y-68119565D01*
X85735060Y-68463000D01*
X85735060Y-69713000D01*
X85803374Y-70056435D01*
X85960789Y-70292024D01*
X85570493Y-70453690D01*
X85138690Y-70885493D01*
X84905000Y-71449670D01*
X84905000Y-72060330D01*
X85138690Y-72624507D01*
X85570493Y-73056310D01*
X86134670Y-73290000D01*
X86745330Y-73290000D01*
X87309507Y-73056310D01*
X87690000Y-72675817D01*
X88070493Y-73056310D01*
X88634670Y-73290000D01*
X89245330Y-73290000D01*
X89809507Y-73056310D01*
X90190000Y-72675817D01*
X90570493Y-73056310D01*
X91134670Y-73290000D01*
X91745330Y-73290000D01*
X92309507Y-73056310D01*
X92741310Y-72624507D01*
X92975000Y-72060330D01*
X92975000Y-71449670D01*
X92741310Y-70885493D01*
X92309507Y-70453690D01*
X91745330Y-70220000D01*
X91363366Y-70220000D01*
X91417500Y-70089310D01*
X91417500Y-69373750D01*
X91258750Y-69215000D01*
X90197000Y-69215000D01*
X90197000Y-70439250D01*
X90355750Y-70598000D01*
X90426183Y-70598000D01*
X90190000Y-70834183D01*
X89869034Y-70513217D01*
X89943000Y-70439250D01*
X89943000Y-69215000D01*
X89923000Y-69215000D01*
X89923000Y-68961000D01*
X89943000Y-68961000D01*
X89943000Y-68941000D01*
X90197000Y-68941000D01*
X90197000Y-68961000D01*
X91258750Y-68961000D01*
X91417500Y-68802250D01*
X91417500Y-68349000D01*
X92688386Y-68349000D01*
X92724874Y-68532435D01*
X92919414Y-68823586D01*
X93210565Y-69018126D01*
X93554000Y-69086440D01*
X94412113Y-69086440D01*
X94389556Y-69120199D01*
X94328632Y-69426490D01*
X94344011Y-69503807D01*
X94344011Y-72899560D01*
X93554000Y-72899560D01*
X93210565Y-72967874D01*
X92919414Y-73162414D01*
X92724874Y-73453565D01*
X92656560Y-73797000D01*
X92656560Y-74671783D01*
X92403582Y-74924761D01*
X92338037Y-74968557D01*
X92164536Y-75228219D01*
X92118990Y-75457195D01*
X92118990Y-75457198D01*
X92103612Y-75534510D01*
X92118990Y-75611822D01*
X92118991Y-76987351D01*
X90440942Y-78665401D01*
X90440939Y-78665403D01*
X90419782Y-78686560D01*
X90407308Y-78686560D01*
X90654641Y-78316400D01*
X90762133Y-77776000D01*
X90654641Y-77235600D01*
X90348529Y-76777471D01*
X89890400Y-76471359D01*
X89486407Y-76391000D01*
X88313593Y-76391000D01*
X87909600Y-76471359D01*
X87451471Y-76777471D01*
X87145359Y-77235600D01*
X87037867Y-77776000D01*
X87145359Y-78316400D01*
X87392692Y-78686560D01*
X87005000Y-78686560D01*
X86661565Y-78754874D01*
X86370414Y-78949414D01*
X86360000Y-78965000D01*
X86349586Y-78949414D01*
X86058435Y-78754874D01*
X85715000Y-78686560D01*
X84465000Y-78686560D01*
X84121565Y-78754874D01*
X83830414Y-78949414D01*
X83635874Y-79240565D01*
X83567560Y-79584000D01*
X82498000Y-79584000D01*
X82498000Y-74961750D01*
X87165000Y-74961750D01*
X87165000Y-75552310D01*
X87261673Y-75785699D01*
X87440302Y-75964327D01*
X87673691Y-76061000D01*
X88614250Y-76061000D01*
X88773000Y-75902250D01*
X88773000Y-74803000D01*
X89027000Y-74803000D01*
X89027000Y-75902250D01*
X89185750Y-76061000D01*
X90126309Y-76061000D01*
X90359698Y-75964327D01*
X90538327Y-75785699D01*
X90635000Y-75552310D01*
X90635000Y-74961750D01*
X90476250Y-74803000D01*
X89027000Y-74803000D01*
X88773000Y-74803000D01*
X87323750Y-74803000D01*
X87165000Y-74961750D01*
X82498000Y-74961750D01*
X82498000Y-73799690D01*
X87165000Y-73799690D01*
X87165000Y-74390250D01*
X87323750Y-74549000D01*
X88773000Y-74549000D01*
X88773000Y-73449750D01*
X89027000Y-73449750D01*
X89027000Y-74549000D01*
X90476250Y-74549000D01*
X90635000Y-74390250D01*
X90635000Y-73799690D01*
X90538327Y-73566301D01*
X90359698Y-73387673D01*
X90126309Y-73291000D01*
X89185750Y-73291000D01*
X89027000Y-73449750D01*
X88773000Y-73449750D01*
X88614250Y-73291000D01*
X87673691Y-73291000D01*
X87440302Y-73387673D01*
X87261673Y-73566301D01*
X87165000Y-73799690D01*
X82498000Y-73799690D01*
X82498000Y-64382000D01*
X82505000Y-64382000D01*
X82505000Y-64732000D01*
X82651416Y-65214081D01*
X82971171Y-65603435D01*
X83415585Y-65840786D01*
X83464529Y-65848099D01*
X83663000Y-65724067D01*
X83663000Y-64382000D01*
X83917000Y-64382000D01*
X83917000Y-65724067D01*
X84115471Y-65848099D01*
X84164415Y-65840786D01*
X84608829Y-65603435D01*
X84928584Y-65214081D01*
X85075000Y-64732000D01*
X85075000Y-64382000D01*
X92805000Y-64382000D01*
X92805000Y-64732000D01*
X92951416Y-65214081D01*
X93271171Y-65603435D01*
X93715585Y-65840786D01*
X93764529Y-65848099D01*
X93963000Y-65724067D01*
X93963000Y-64382000D01*
X94217000Y-64382000D01*
X94217000Y-65724067D01*
X94415471Y-65848099D01*
X94464415Y-65840786D01*
X94908829Y-65603435D01*
X95228584Y-65214081D01*
X95375000Y-64732000D01*
X95375000Y-64382000D01*
X95713000Y-64382000D01*
X95713000Y-64732000D01*
X95859416Y-65214081D01*
X96179171Y-65603435D01*
X96623585Y-65840786D01*
X96672529Y-65848099D01*
X96871000Y-65724067D01*
X96871000Y-64382000D01*
X97125000Y-64382000D01*
X97125000Y-65724067D01*
X97323471Y-65848099D01*
X97372415Y-65840786D01*
X97816829Y-65603435D01*
X98136584Y-65214081D01*
X98283000Y-64732000D01*
X98283000Y-64382000D01*
X106013000Y-64382000D01*
X106013000Y-64732000D01*
X106159416Y-65214081D01*
X106479171Y-65603435D01*
X106923585Y-65840786D01*
X106972529Y-65848099D01*
X107171000Y-65724067D01*
X107171000Y-64382000D01*
X106013000Y-64382000D01*
X98283000Y-64382000D01*
X97125000Y-64382000D01*
X96871000Y-64382000D01*
X95713000Y-64382000D01*
X95375000Y-64382000D01*
X94217000Y-64382000D01*
X93963000Y-64382000D01*
X92805000Y-64382000D01*
X85075000Y-64382000D01*
X83917000Y-64382000D01*
X83663000Y-64382000D01*
X82505000Y-64382000D01*
X82498000Y-64382000D01*
X82498000Y-63778000D01*
X82505000Y-63778000D01*
X82505000Y-64128000D01*
X83663000Y-64128000D01*
X83663000Y-62785933D01*
X83917000Y-62785933D01*
X83917000Y-64128000D01*
X85075000Y-64128000D01*
X85075000Y-63778000D01*
X92805000Y-63778000D01*
X92805000Y-64128000D01*
X93963000Y-64128000D01*
X93963000Y-62785933D01*
X94217000Y-62785933D01*
X94217000Y-64128000D01*
X95375000Y-64128000D01*
X95375000Y-63778000D01*
X95713000Y-63778000D01*
X95713000Y-64128000D01*
X96871000Y-64128000D01*
X96871000Y-62785933D01*
X97125000Y-62785933D01*
X97125000Y-64128000D01*
X98283000Y-64128000D01*
X98283000Y-63778000D01*
X106013000Y-63778000D01*
X106013000Y-64128000D01*
X107171000Y-64128000D01*
X107171000Y-62785933D01*
X106972529Y-62661901D01*
X106923585Y-62669214D01*
X106479171Y-62906565D01*
X106159416Y-63295919D01*
X106013000Y-63778000D01*
X98283000Y-63778000D01*
X98136584Y-63295919D01*
X97816829Y-62906565D01*
X97372415Y-62669214D01*
X97323471Y-62661901D01*
X97125000Y-62785933D01*
X96871000Y-62785933D01*
X96672529Y-62661901D01*
X96623585Y-62669214D01*
X96179171Y-62906565D01*
X95859416Y-63295919D01*
X95713000Y-63778000D01*
X95375000Y-63778000D01*
X95228584Y-63295919D01*
X94908829Y-62906565D01*
X94464415Y-62669214D01*
X94415471Y-62661901D01*
X94217000Y-62785933D01*
X93963000Y-62785933D01*
X93764529Y-62661901D01*
X93715585Y-62669214D01*
X93271171Y-62906565D01*
X92951416Y-63295919D01*
X92805000Y-63778000D01*
X85075000Y-63778000D01*
X84928584Y-63295919D01*
X84608829Y-62906565D01*
X84164415Y-62669214D01*
X84115471Y-62661901D01*
X83917000Y-62785933D01*
X83663000Y-62785933D01*
X83464529Y-62661901D01*
X83415585Y-62669214D01*
X82971171Y-62906565D01*
X82651416Y-63295919D01*
X82505000Y-63778000D01*
X82498000Y-63778000D01*
X82498000Y-59130000D01*
X87797881Y-59130000D01*
X87789436Y-59138445D01*
G36*
X98113000Y-72060330D02*
X98346690Y-72624507D01*
X98778493Y-73056310D01*
X99342670Y-73290000D01*
X99953330Y-73290000D01*
X100517507Y-73056310D01*
X100898000Y-72675817D01*
X101278493Y-73056310D01*
X101842670Y-73290000D01*
X102453330Y-73290000D01*
X103017507Y-73056310D01*
X103398000Y-72675817D01*
X103778493Y-73056310D01*
X103863001Y-73091314D01*
X103863000Y-78709236D01*
X103749000Y-78686560D01*
X103107308Y-78686560D01*
X103354641Y-78316400D01*
X103462133Y-77776000D01*
X103354641Y-77235600D01*
X103048529Y-76777471D01*
X102590400Y-76471359D01*
X102186407Y-76391000D01*
X101013593Y-76391000D01*
X100609600Y-76471359D01*
X100151471Y-76777471D01*
X99845359Y-77235600D01*
X99737867Y-77776000D01*
X99814129Y-78159395D01*
X99637462Y-78194536D01*
X99443345Y-78324241D01*
X99443343Y-78324243D01*
X99377801Y-78368037D01*
X99334007Y-78433580D01*
X99068270Y-78699317D01*
X98979000Y-78681560D01*
X97429000Y-78681560D01*
X97181235Y-78730843D01*
X96971191Y-78871191D01*
X96830843Y-79081235D01*
X96781560Y-79329000D01*
X96781560Y-79929000D01*
X96830843Y-80176765D01*
X96883768Y-80255972D01*
X96794000Y-80472690D01*
X96794000Y-80613250D01*
X96952750Y-80772000D01*
X98077000Y-80772000D01*
X98077000Y-80752000D01*
X98331000Y-80752000D01*
X98331000Y-80772000D01*
X98351000Y-80772000D01*
X98351000Y-81026000D01*
X98331000Y-81026000D01*
X98331000Y-81046000D01*
X98077000Y-81046000D01*
X98077000Y-81026000D01*
X96952750Y-81026000D01*
X96794000Y-81184750D01*
X96794000Y-81325310D01*
X96818310Y-81384000D01*
X96718157Y-81384000D01*
X96506500Y-81172343D01*
X96506500Y-78218000D01*
X96705750Y-78218000D01*
X96864500Y-78059250D01*
X96864500Y-76835000D01*
X97118500Y-76835000D01*
X97118500Y-78059250D01*
X97277250Y-78218000D01*
X97830309Y-78218000D01*
X98063698Y-78121327D01*
X98242327Y-77942699D01*
X98339000Y-77709310D01*
X98339000Y-76993750D01*
X98180250Y-76835000D01*
X97118500Y-76835000D01*
X96864500Y-76835000D01*
X96844500Y-76835000D01*
X96844500Y-76581000D01*
X96864500Y-76581000D01*
X96864500Y-76561000D01*
X97118500Y-76561000D01*
X97118500Y-76581000D01*
X98180250Y-76581000D01*
X98339000Y-76422250D01*
X98339000Y-75706690D01*
X98242327Y-75473301D01*
X98233593Y-75464567D01*
X98283126Y-75390435D01*
X98351440Y-75047000D01*
X98351440Y-74961750D01*
X99865000Y-74961750D01*
X99865000Y-75552310D01*
X99961673Y-75785699D01*
X100140302Y-75964327D01*
X100373691Y-76061000D01*
X101314250Y-76061000D01*
X101473000Y-75902250D01*
X101473000Y-74803000D01*
X101727000Y-74803000D01*
X101727000Y-75902250D01*
X101885750Y-76061000D01*
X102826309Y-76061000D01*
X103059698Y-75964327D01*
X103238327Y-75785699D01*
X103335000Y-75552310D01*
X103335000Y-74961750D01*
X103176250Y-74803000D01*
X101727000Y-74803000D01*
X101473000Y-74803000D01*
X100023750Y-74803000D01*
X99865000Y-74961750D01*
X98351440Y-74961750D01*
X98351440Y-73799690D01*
X99865000Y-73799690D01*
X99865000Y-74390250D01*
X100023750Y-74549000D01*
X101473000Y-74549000D01*
X101473000Y-73449750D01*
X101727000Y-73449750D01*
X101727000Y-74549000D01*
X103176250Y-74549000D01*
X103335000Y-74390250D01*
X103335000Y-73799690D01*
X103238327Y-73566301D01*
X103059698Y-73387673D01*
X102826309Y-73291000D01*
X101885750Y-73291000D01*
X101727000Y-73449750D01*
X101473000Y-73449750D01*
X101314250Y-73291000D01*
X100373691Y-73291000D01*
X100140302Y-73387673D01*
X99961673Y-73566301D01*
X99865000Y-73799690D01*
X98351440Y-73799690D01*
X98351440Y-73797000D01*
X98283126Y-73453565D01*
X98088586Y-73162414D01*
X97797435Y-72967874D01*
X97776500Y-72963710D01*
X97776500Y-72229657D01*
X98113000Y-71893157D01*
X98113000Y-72060330D01*
X98113000Y-72060330D01*
G37*
X98113000Y-72060330D02*
X98346690Y-72624507D01*
X98778493Y-73056310D01*
X99342670Y-73290000D01*
X99953330Y-73290000D01*
X100517507Y-73056310D01*
X100898000Y-72675817D01*
X101278493Y-73056310D01*
X101842670Y-73290000D01*
X102453330Y-73290000D01*
X103017507Y-73056310D01*
X103398000Y-72675817D01*
X103778493Y-73056310D01*
X103863001Y-73091314D01*
X103863000Y-78709236D01*
X103749000Y-78686560D01*
X103107308Y-78686560D01*
X103354641Y-78316400D01*
X103462133Y-77776000D01*
X103354641Y-77235600D01*
X103048529Y-76777471D01*
X102590400Y-76471359D01*
X102186407Y-76391000D01*
X101013593Y-76391000D01*
X100609600Y-76471359D01*
X100151471Y-76777471D01*
X99845359Y-77235600D01*
X99737867Y-77776000D01*
X99814129Y-78159395D01*
X99637462Y-78194536D01*
X99443345Y-78324241D01*
X99443343Y-78324243D01*
X99377801Y-78368037D01*
X99334007Y-78433580D01*
X99068270Y-78699317D01*
X98979000Y-78681560D01*
X97429000Y-78681560D01*
X97181235Y-78730843D01*
X96971191Y-78871191D01*
X96830843Y-79081235D01*
X96781560Y-79329000D01*
X96781560Y-79929000D01*
X96830843Y-80176765D01*
X96883768Y-80255972D01*
X96794000Y-80472690D01*
X96794000Y-80613250D01*
X96952750Y-80772000D01*
X98077000Y-80772000D01*
X98077000Y-80752000D01*
X98331000Y-80752000D01*
X98331000Y-80772000D01*
X98351000Y-80772000D01*
X98351000Y-81026000D01*
X98331000Y-81026000D01*
X98331000Y-81046000D01*
X98077000Y-81046000D01*
X98077000Y-81026000D01*
X96952750Y-81026000D01*
X96794000Y-81184750D01*
X96794000Y-81325310D01*
X96818310Y-81384000D01*
X96718157Y-81384000D01*
X96506500Y-81172343D01*
X96506500Y-78218000D01*
X96705750Y-78218000D01*
X96864500Y-78059250D01*
X96864500Y-76835000D01*
X97118500Y-76835000D01*
X97118500Y-78059250D01*
X97277250Y-78218000D01*
X97830309Y-78218000D01*
X98063698Y-78121327D01*
X98242327Y-77942699D01*
X98339000Y-77709310D01*
X98339000Y-76993750D01*
X98180250Y-76835000D01*
X97118500Y-76835000D01*
X96864500Y-76835000D01*
X96844500Y-76835000D01*
X96844500Y-76581000D01*
X96864500Y-76581000D01*
X96864500Y-76561000D01*
X97118500Y-76561000D01*
X97118500Y-76581000D01*
X98180250Y-76581000D01*
X98339000Y-76422250D01*
X98339000Y-75706690D01*
X98242327Y-75473301D01*
X98233593Y-75464567D01*
X98283126Y-75390435D01*
X98351440Y-75047000D01*
X98351440Y-74961750D01*
X99865000Y-74961750D01*
X99865000Y-75552310D01*
X99961673Y-75785699D01*
X100140302Y-75964327D01*
X100373691Y-76061000D01*
X101314250Y-76061000D01*
X101473000Y-75902250D01*
X101473000Y-74803000D01*
X101727000Y-74803000D01*
X101727000Y-75902250D01*
X101885750Y-76061000D01*
X102826309Y-76061000D01*
X103059698Y-75964327D01*
X103238327Y-75785699D01*
X103335000Y-75552310D01*
X103335000Y-74961750D01*
X103176250Y-74803000D01*
X101727000Y-74803000D01*
X101473000Y-74803000D01*
X100023750Y-74803000D01*
X99865000Y-74961750D01*
X98351440Y-74961750D01*
X98351440Y-73799690D01*
X99865000Y-73799690D01*
X99865000Y-74390250D01*
X100023750Y-74549000D01*
X101473000Y-74549000D01*
X101473000Y-73449750D01*
X101727000Y-73449750D01*
X101727000Y-74549000D01*
X103176250Y-74549000D01*
X103335000Y-74390250D01*
X103335000Y-73799690D01*
X103238327Y-73566301D01*
X103059698Y-73387673D01*
X102826309Y-73291000D01*
X101885750Y-73291000D01*
X101727000Y-73449750D01*
X101473000Y-73449750D01*
X101314250Y-73291000D01*
X100373691Y-73291000D01*
X100140302Y-73387673D01*
X99961673Y-73566301D01*
X99865000Y-73799690D01*
X98351440Y-73799690D01*
X98351440Y-73797000D01*
X98283126Y-73453565D01*
X98088586Y-73162414D01*
X97797435Y-72967874D01*
X97776500Y-72963710D01*
X97776500Y-72229657D01*
X98113000Y-71893157D01*
X98113000Y-72060330D01*
G04 #@! TD*
M02*
