M48
;DRILL file {KiCad (5.0.1)-4} date 3/5/2019 1:38:28
;FORMAT={-:-/ absolute / inch / decimal}
FMAT,2
INCH,TZ
T1C0.0157
T2C0.0197
T3C0.0236
T4C0.0315
T5C0.0394
T6C0.0400
T7C0.0433
%
G90
G05
M72
T1
X3.71Y-3.14
T4
X3.76Y-2.3575
X3.5Y-2.3575
X4.02Y-2.3575
T5
X3.4031Y-2.825
X3.5016Y-2.825
X3.6Y-2.825
X3.9231Y-2.825
X4.0216Y-2.825
X4.12Y-2.825
T6
X3.54Y-3.53
X3.54Y-3.63
X3.64Y-3.53
X3.64Y-3.63
X3.74Y-3.53
X3.74Y-3.63
X3.84Y-3.53
X3.84Y-3.63
X3.94Y-3.53
X3.94Y-3.63
T2
X3.5197Y-3.3888G85X3.4803Y-3.3888
G05
X4.0197Y-3.3888G85X3.9803Y-3.3888
G05
T3
X3.5138Y-2.94G85X3.4862Y-2.94
G05
X3.5177Y-3.062G85X3.4823Y-3.062
G05
X4.0138Y-2.94G85X3.9862Y-2.94
G05
X4.0177Y-3.062G85X3.9823Y-3.062
G05
T7
X3.2988Y-2.5435G85X3.2988Y-2.5159
G05
X3.7043Y-2.5435G85X3.7043Y-2.5159
G05
X3.8188Y-2.5435G85X3.8188Y-2.5159
G05
X4.2243Y-2.5435G85X4.2243Y-2.5159
G05
T0
M30
