G04 #@! TF.GenerationSoftware,KiCad,Pcbnew,(5.0.1)-4*
G04 #@! TF.CreationDate,2019-03-05T01:38:51-06:00*
G04 #@! TF.ProjectId,util_LFO,7574696C5F4C464F2E6B696361645F70,rev?*
G04 #@! TF.SameCoordinates,Original*
G04 #@! TF.FileFunction,Paste,Bot*
G04 #@! TF.FilePolarity,Positive*
%FSLAX46Y46*%
G04 Gerber Fmt 4.6, Leading zero omitted, Abs format (unit mm)*
G04 Created by KiCad (PCBNEW (5.0.1)-4) date 3/5/2019 1:38:51*
%MOMM*%
%LPD*%
G01*
G04 APERTURE LIST*
%ADD10C,0.100000*%
%ADD11C,1.425000*%
%ADD12R,1.550000X0.600000*%
G04 APERTURE END LIST*
D10*
G04 #@! TO.C,C1*
G36*
X90819504Y-82310204D02*
X90843773Y-82313804D01*
X90867571Y-82319765D01*
X90890671Y-82328030D01*
X90912849Y-82338520D01*
X90933893Y-82351133D01*
X90953598Y-82365747D01*
X90971777Y-82382223D01*
X90988253Y-82400402D01*
X91002867Y-82420107D01*
X91015480Y-82441151D01*
X91025970Y-82463329D01*
X91034235Y-82486429D01*
X91040196Y-82510227D01*
X91043796Y-82534496D01*
X91045000Y-82559000D01*
X91045000Y-83484000D01*
X91043796Y-83508504D01*
X91040196Y-83532773D01*
X91034235Y-83556571D01*
X91025970Y-83579671D01*
X91015480Y-83601849D01*
X91002867Y-83622893D01*
X90988253Y-83642598D01*
X90971777Y-83660777D01*
X90953598Y-83677253D01*
X90933893Y-83691867D01*
X90912849Y-83704480D01*
X90890671Y-83714970D01*
X90867571Y-83723235D01*
X90843773Y-83729196D01*
X90819504Y-83732796D01*
X90795000Y-83734000D01*
X89545000Y-83734000D01*
X89520496Y-83732796D01*
X89496227Y-83729196D01*
X89472429Y-83723235D01*
X89449329Y-83714970D01*
X89427151Y-83704480D01*
X89406107Y-83691867D01*
X89386402Y-83677253D01*
X89368223Y-83660777D01*
X89351747Y-83642598D01*
X89337133Y-83622893D01*
X89324520Y-83601849D01*
X89314030Y-83579671D01*
X89305765Y-83556571D01*
X89299804Y-83532773D01*
X89296204Y-83508504D01*
X89295000Y-83484000D01*
X89295000Y-82559000D01*
X89296204Y-82534496D01*
X89299804Y-82510227D01*
X89305765Y-82486429D01*
X89314030Y-82463329D01*
X89324520Y-82441151D01*
X89337133Y-82420107D01*
X89351747Y-82400402D01*
X89368223Y-82382223D01*
X89386402Y-82365747D01*
X89406107Y-82351133D01*
X89427151Y-82338520D01*
X89449329Y-82328030D01*
X89472429Y-82319765D01*
X89496227Y-82313804D01*
X89520496Y-82310204D01*
X89545000Y-82309000D01*
X90795000Y-82309000D01*
X90819504Y-82310204D01*
X90819504Y-82310204D01*
G37*
D11*
X90170000Y-83021500D03*
D10*
G36*
X90819504Y-79335204D02*
X90843773Y-79338804D01*
X90867571Y-79344765D01*
X90890671Y-79353030D01*
X90912849Y-79363520D01*
X90933893Y-79376133D01*
X90953598Y-79390747D01*
X90971777Y-79407223D01*
X90988253Y-79425402D01*
X91002867Y-79445107D01*
X91015480Y-79466151D01*
X91025970Y-79488329D01*
X91034235Y-79511429D01*
X91040196Y-79535227D01*
X91043796Y-79559496D01*
X91045000Y-79584000D01*
X91045000Y-80509000D01*
X91043796Y-80533504D01*
X91040196Y-80557773D01*
X91034235Y-80581571D01*
X91025970Y-80604671D01*
X91015480Y-80626849D01*
X91002867Y-80647893D01*
X90988253Y-80667598D01*
X90971777Y-80685777D01*
X90953598Y-80702253D01*
X90933893Y-80716867D01*
X90912849Y-80729480D01*
X90890671Y-80739970D01*
X90867571Y-80748235D01*
X90843773Y-80754196D01*
X90819504Y-80757796D01*
X90795000Y-80759000D01*
X89545000Y-80759000D01*
X89520496Y-80757796D01*
X89496227Y-80754196D01*
X89472429Y-80748235D01*
X89449329Y-80739970D01*
X89427151Y-80729480D01*
X89406107Y-80716867D01*
X89386402Y-80702253D01*
X89368223Y-80685777D01*
X89351747Y-80667598D01*
X89337133Y-80647893D01*
X89324520Y-80626849D01*
X89314030Y-80604671D01*
X89305765Y-80581571D01*
X89299804Y-80557773D01*
X89296204Y-80533504D01*
X89295000Y-80509000D01*
X89295000Y-79584000D01*
X89296204Y-79559496D01*
X89299804Y-79535227D01*
X89305765Y-79511429D01*
X89314030Y-79488329D01*
X89324520Y-79466151D01*
X89337133Y-79445107D01*
X89351747Y-79425402D01*
X89368223Y-79407223D01*
X89386402Y-79390747D01*
X89406107Y-79376133D01*
X89427151Y-79363520D01*
X89449329Y-79353030D01*
X89472429Y-79344765D01*
X89496227Y-79338804D01*
X89520496Y-79335204D01*
X89545000Y-79334000D01*
X90795000Y-79334000D01*
X90819504Y-79335204D01*
X90819504Y-79335204D01*
G37*
D11*
X90170000Y-80046500D03*
G04 #@! TD*
D10*
G04 #@! TO.C,C2*
G36*
X97478504Y-75834204D02*
X97502773Y-75837804D01*
X97526571Y-75843765D01*
X97549671Y-75852030D01*
X97571849Y-75862520D01*
X97592893Y-75875133D01*
X97612598Y-75889747D01*
X97630777Y-75906223D01*
X97647253Y-75924402D01*
X97661867Y-75944107D01*
X97674480Y-75965151D01*
X97684970Y-75987329D01*
X97693235Y-76010429D01*
X97699196Y-76034227D01*
X97702796Y-76058496D01*
X97704000Y-76083000D01*
X97704000Y-77333000D01*
X97702796Y-77357504D01*
X97699196Y-77381773D01*
X97693235Y-77405571D01*
X97684970Y-77428671D01*
X97674480Y-77450849D01*
X97661867Y-77471893D01*
X97647253Y-77491598D01*
X97630777Y-77509777D01*
X97612598Y-77526253D01*
X97592893Y-77540867D01*
X97571849Y-77553480D01*
X97549671Y-77563970D01*
X97526571Y-77572235D01*
X97502773Y-77578196D01*
X97478504Y-77581796D01*
X97454000Y-77583000D01*
X96529000Y-77583000D01*
X96504496Y-77581796D01*
X96480227Y-77578196D01*
X96456429Y-77572235D01*
X96433329Y-77563970D01*
X96411151Y-77553480D01*
X96390107Y-77540867D01*
X96370402Y-77526253D01*
X96352223Y-77509777D01*
X96335747Y-77491598D01*
X96321133Y-77471893D01*
X96308520Y-77450849D01*
X96298030Y-77428671D01*
X96289765Y-77405571D01*
X96283804Y-77381773D01*
X96280204Y-77357504D01*
X96279000Y-77333000D01*
X96279000Y-76083000D01*
X96280204Y-76058496D01*
X96283804Y-76034227D01*
X96289765Y-76010429D01*
X96298030Y-75987329D01*
X96308520Y-75965151D01*
X96321133Y-75944107D01*
X96335747Y-75924402D01*
X96352223Y-75906223D01*
X96370402Y-75889747D01*
X96390107Y-75875133D01*
X96411151Y-75862520D01*
X96433329Y-75852030D01*
X96456429Y-75843765D01*
X96480227Y-75837804D01*
X96504496Y-75834204D01*
X96529000Y-75833000D01*
X97454000Y-75833000D01*
X97478504Y-75834204D01*
X97478504Y-75834204D01*
G37*
D11*
X96991500Y-76708000D03*
D10*
G36*
X94503504Y-75834204D02*
X94527773Y-75837804D01*
X94551571Y-75843765D01*
X94574671Y-75852030D01*
X94596849Y-75862520D01*
X94617893Y-75875133D01*
X94637598Y-75889747D01*
X94655777Y-75906223D01*
X94672253Y-75924402D01*
X94686867Y-75944107D01*
X94699480Y-75965151D01*
X94709970Y-75987329D01*
X94718235Y-76010429D01*
X94724196Y-76034227D01*
X94727796Y-76058496D01*
X94729000Y-76083000D01*
X94729000Y-77333000D01*
X94727796Y-77357504D01*
X94724196Y-77381773D01*
X94718235Y-77405571D01*
X94709970Y-77428671D01*
X94699480Y-77450849D01*
X94686867Y-77471893D01*
X94672253Y-77491598D01*
X94655777Y-77509777D01*
X94637598Y-77526253D01*
X94617893Y-77540867D01*
X94596849Y-77553480D01*
X94574671Y-77563970D01*
X94551571Y-77572235D01*
X94527773Y-77578196D01*
X94503504Y-77581796D01*
X94479000Y-77583000D01*
X93554000Y-77583000D01*
X93529496Y-77581796D01*
X93505227Y-77578196D01*
X93481429Y-77572235D01*
X93458329Y-77563970D01*
X93436151Y-77553480D01*
X93415107Y-77540867D01*
X93395402Y-77526253D01*
X93377223Y-77509777D01*
X93360747Y-77491598D01*
X93346133Y-77471893D01*
X93333520Y-77450849D01*
X93323030Y-77428671D01*
X93314765Y-77405571D01*
X93308804Y-77381773D01*
X93305204Y-77357504D01*
X93304000Y-77333000D01*
X93304000Y-76083000D01*
X93305204Y-76058496D01*
X93308804Y-76034227D01*
X93314765Y-76010429D01*
X93323030Y-75987329D01*
X93333520Y-75965151D01*
X93346133Y-75944107D01*
X93360747Y-75924402D01*
X93377223Y-75906223D01*
X93395402Y-75889747D01*
X93415107Y-75875133D01*
X93436151Y-75862520D01*
X93458329Y-75852030D01*
X93481429Y-75843765D01*
X93505227Y-75837804D01*
X93529496Y-75834204D01*
X93554000Y-75833000D01*
X94479000Y-75833000D01*
X94503504Y-75834204D01*
X94503504Y-75834204D01*
G37*
D11*
X94016500Y-76708000D03*
G04 #@! TD*
D10*
G04 #@! TO.C,C3*
G36*
X94503504Y-84521004D02*
X94527773Y-84524604D01*
X94551571Y-84530565D01*
X94574671Y-84538830D01*
X94596849Y-84549320D01*
X94617893Y-84561933D01*
X94637598Y-84576547D01*
X94655777Y-84593023D01*
X94672253Y-84611202D01*
X94686867Y-84630907D01*
X94699480Y-84651951D01*
X94709970Y-84674129D01*
X94718235Y-84697229D01*
X94724196Y-84721027D01*
X94727796Y-84745296D01*
X94729000Y-84769800D01*
X94729000Y-86019800D01*
X94727796Y-86044304D01*
X94724196Y-86068573D01*
X94718235Y-86092371D01*
X94709970Y-86115471D01*
X94699480Y-86137649D01*
X94686867Y-86158693D01*
X94672253Y-86178398D01*
X94655777Y-86196577D01*
X94637598Y-86213053D01*
X94617893Y-86227667D01*
X94596849Y-86240280D01*
X94574671Y-86250770D01*
X94551571Y-86259035D01*
X94527773Y-86264996D01*
X94503504Y-86268596D01*
X94479000Y-86269800D01*
X93554000Y-86269800D01*
X93529496Y-86268596D01*
X93505227Y-86264996D01*
X93481429Y-86259035D01*
X93458329Y-86250770D01*
X93436151Y-86240280D01*
X93415107Y-86227667D01*
X93395402Y-86213053D01*
X93377223Y-86196577D01*
X93360747Y-86178398D01*
X93346133Y-86158693D01*
X93333520Y-86137649D01*
X93323030Y-86115471D01*
X93314765Y-86092371D01*
X93308804Y-86068573D01*
X93305204Y-86044304D01*
X93304000Y-86019800D01*
X93304000Y-84769800D01*
X93305204Y-84745296D01*
X93308804Y-84721027D01*
X93314765Y-84697229D01*
X93323030Y-84674129D01*
X93333520Y-84651951D01*
X93346133Y-84630907D01*
X93360747Y-84611202D01*
X93377223Y-84593023D01*
X93395402Y-84576547D01*
X93415107Y-84561933D01*
X93436151Y-84549320D01*
X93458329Y-84538830D01*
X93481429Y-84530565D01*
X93505227Y-84524604D01*
X93529496Y-84521004D01*
X93554000Y-84519800D01*
X94479000Y-84519800D01*
X94503504Y-84521004D01*
X94503504Y-84521004D01*
G37*
D11*
X94016500Y-85394800D03*
D10*
G36*
X97478504Y-84521004D02*
X97502773Y-84524604D01*
X97526571Y-84530565D01*
X97549671Y-84538830D01*
X97571849Y-84549320D01*
X97592893Y-84561933D01*
X97612598Y-84576547D01*
X97630777Y-84593023D01*
X97647253Y-84611202D01*
X97661867Y-84630907D01*
X97674480Y-84651951D01*
X97684970Y-84674129D01*
X97693235Y-84697229D01*
X97699196Y-84721027D01*
X97702796Y-84745296D01*
X97704000Y-84769800D01*
X97704000Y-86019800D01*
X97702796Y-86044304D01*
X97699196Y-86068573D01*
X97693235Y-86092371D01*
X97684970Y-86115471D01*
X97674480Y-86137649D01*
X97661867Y-86158693D01*
X97647253Y-86178398D01*
X97630777Y-86196577D01*
X97612598Y-86213053D01*
X97592893Y-86227667D01*
X97571849Y-86240280D01*
X97549671Y-86250770D01*
X97526571Y-86259035D01*
X97502773Y-86264996D01*
X97478504Y-86268596D01*
X97454000Y-86269800D01*
X96529000Y-86269800D01*
X96504496Y-86268596D01*
X96480227Y-86264996D01*
X96456429Y-86259035D01*
X96433329Y-86250770D01*
X96411151Y-86240280D01*
X96390107Y-86227667D01*
X96370402Y-86213053D01*
X96352223Y-86196577D01*
X96335747Y-86178398D01*
X96321133Y-86158693D01*
X96308520Y-86137649D01*
X96298030Y-86115471D01*
X96289765Y-86092371D01*
X96283804Y-86068573D01*
X96280204Y-86044304D01*
X96279000Y-86019800D01*
X96279000Y-84769800D01*
X96280204Y-84745296D01*
X96283804Y-84721027D01*
X96289765Y-84697229D01*
X96298030Y-84674129D01*
X96308520Y-84651951D01*
X96321133Y-84630907D01*
X96335747Y-84611202D01*
X96352223Y-84593023D01*
X96370402Y-84576547D01*
X96390107Y-84561933D01*
X96411151Y-84549320D01*
X96433329Y-84538830D01*
X96456429Y-84530565D01*
X96480227Y-84524604D01*
X96504496Y-84521004D01*
X96529000Y-84519800D01*
X97454000Y-84519800D01*
X97478504Y-84521004D01*
X97478504Y-84521004D01*
G37*
D11*
X96991500Y-85394800D03*
G04 #@! TD*
D10*
G04 #@! TO.C,R2*
G36*
X101487504Y-79335204D02*
X101511773Y-79338804D01*
X101535571Y-79344765D01*
X101558671Y-79353030D01*
X101580849Y-79363520D01*
X101601893Y-79376133D01*
X101621598Y-79390747D01*
X101639777Y-79407223D01*
X101656253Y-79425402D01*
X101670867Y-79445107D01*
X101683480Y-79466151D01*
X101693970Y-79488329D01*
X101702235Y-79511429D01*
X101708196Y-79535227D01*
X101711796Y-79559496D01*
X101713000Y-79584000D01*
X101713000Y-80509000D01*
X101711796Y-80533504D01*
X101708196Y-80557773D01*
X101702235Y-80581571D01*
X101693970Y-80604671D01*
X101683480Y-80626849D01*
X101670867Y-80647893D01*
X101656253Y-80667598D01*
X101639777Y-80685777D01*
X101621598Y-80702253D01*
X101601893Y-80716867D01*
X101580849Y-80729480D01*
X101558671Y-80739970D01*
X101535571Y-80748235D01*
X101511773Y-80754196D01*
X101487504Y-80757796D01*
X101463000Y-80759000D01*
X100213000Y-80759000D01*
X100188496Y-80757796D01*
X100164227Y-80754196D01*
X100140429Y-80748235D01*
X100117329Y-80739970D01*
X100095151Y-80729480D01*
X100074107Y-80716867D01*
X100054402Y-80702253D01*
X100036223Y-80685777D01*
X100019747Y-80667598D01*
X100005133Y-80647893D01*
X99992520Y-80626849D01*
X99982030Y-80604671D01*
X99973765Y-80581571D01*
X99967804Y-80557773D01*
X99964204Y-80533504D01*
X99963000Y-80509000D01*
X99963000Y-79584000D01*
X99964204Y-79559496D01*
X99967804Y-79535227D01*
X99973765Y-79511429D01*
X99982030Y-79488329D01*
X99992520Y-79466151D01*
X100005133Y-79445107D01*
X100019747Y-79425402D01*
X100036223Y-79407223D01*
X100054402Y-79390747D01*
X100074107Y-79376133D01*
X100095151Y-79363520D01*
X100117329Y-79353030D01*
X100140429Y-79344765D01*
X100164227Y-79338804D01*
X100188496Y-79335204D01*
X100213000Y-79334000D01*
X101463000Y-79334000D01*
X101487504Y-79335204D01*
X101487504Y-79335204D01*
G37*
D11*
X100838000Y-80046500D03*
D10*
G36*
X101487504Y-82310204D02*
X101511773Y-82313804D01*
X101535571Y-82319765D01*
X101558671Y-82328030D01*
X101580849Y-82338520D01*
X101601893Y-82351133D01*
X101621598Y-82365747D01*
X101639777Y-82382223D01*
X101656253Y-82400402D01*
X101670867Y-82420107D01*
X101683480Y-82441151D01*
X101693970Y-82463329D01*
X101702235Y-82486429D01*
X101708196Y-82510227D01*
X101711796Y-82534496D01*
X101713000Y-82559000D01*
X101713000Y-83484000D01*
X101711796Y-83508504D01*
X101708196Y-83532773D01*
X101702235Y-83556571D01*
X101693970Y-83579671D01*
X101683480Y-83601849D01*
X101670867Y-83622893D01*
X101656253Y-83642598D01*
X101639777Y-83660777D01*
X101621598Y-83677253D01*
X101601893Y-83691867D01*
X101580849Y-83704480D01*
X101558671Y-83714970D01*
X101535571Y-83723235D01*
X101511773Y-83729196D01*
X101487504Y-83732796D01*
X101463000Y-83734000D01*
X100213000Y-83734000D01*
X100188496Y-83732796D01*
X100164227Y-83729196D01*
X100140429Y-83723235D01*
X100117329Y-83714970D01*
X100095151Y-83704480D01*
X100074107Y-83691867D01*
X100054402Y-83677253D01*
X100036223Y-83660777D01*
X100019747Y-83642598D01*
X100005133Y-83622893D01*
X99992520Y-83601849D01*
X99982030Y-83579671D01*
X99973765Y-83556571D01*
X99967804Y-83532773D01*
X99964204Y-83508504D01*
X99963000Y-83484000D01*
X99963000Y-82559000D01*
X99964204Y-82534496D01*
X99967804Y-82510227D01*
X99973765Y-82486429D01*
X99982030Y-82463329D01*
X99992520Y-82441151D01*
X100005133Y-82420107D01*
X100019747Y-82400402D01*
X100036223Y-82382223D01*
X100054402Y-82365747D01*
X100074107Y-82351133D01*
X100095151Y-82338520D01*
X100117329Y-82328030D01*
X100140429Y-82319765D01*
X100164227Y-82313804D01*
X100188496Y-82310204D01*
X100213000Y-82309000D01*
X101463000Y-82309000D01*
X101487504Y-82310204D01*
X101487504Y-82310204D01*
G37*
D11*
X100838000Y-83021500D03*
G04 #@! TD*
D10*
G04 #@! TO.C,R3*
G36*
X87582004Y-68214204D02*
X87606273Y-68217804D01*
X87630071Y-68223765D01*
X87653171Y-68232030D01*
X87675349Y-68242520D01*
X87696393Y-68255133D01*
X87716098Y-68269747D01*
X87734277Y-68286223D01*
X87750753Y-68304402D01*
X87765367Y-68324107D01*
X87777980Y-68345151D01*
X87788470Y-68367329D01*
X87796735Y-68390429D01*
X87802696Y-68414227D01*
X87806296Y-68438496D01*
X87807500Y-68463000D01*
X87807500Y-69713000D01*
X87806296Y-69737504D01*
X87802696Y-69761773D01*
X87796735Y-69785571D01*
X87788470Y-69808671D01*
X87777980Y-69830849D01*
X87765367Y-69851893D01*
X87750753Y-69871598D01*
X87734277Y-69889777D01*
X87716098Y-69906253D01*
X87696393Y-69920867D01*
X87675349Y-69933480D01*
X87653171Y-69943970D01*
X87630071Y-69952235D01*
X87606273Y-69958196D01*
X87582004Y-69961796D01*
X87557500Y-69963000D01*
X86632500Y-69963000D01*
X86607996Y-69961796D01*
X86583727Y-69958196D01*
X86559929Y-69952235D01*
X86536829Y-69943970D01*
X86514651Y-69933480D01*
X86493607Y-69920867D01*
X86473902Y-69906253D01*
X86455723Y-69889777D01*
X86439247Y-69871598D01*
X86424633Y-69851893D01*
X86412020Y-69830849D01*
X86401530Y-69808671D01*
X86393265Y-69785571D01*
X86387304Y-69761773D01*
X86383704Y-69737504D01*
X86382500Y-69713000D01*
X86382500Y-68463000D01*
X86383704Y-68438496D01*
X86387304Y-68414227D01*
X86393265Y-68390429D01*
X86401530Y-68367329D01*
X86412020Y-68345151D01*
X86424633Y-68324107D01*
X86439247Y-68304402D01*
X86455723Y-68286223D01*
X86473902Y-68269747D01*
X86493607Y-68255133D01*
X86514651Y-68242520D01*
X86536829Y-68232030D01*
X86559929Y-68223765D01*
X86583727Y-68217804D01*
X86607996Y-68214204D01*
X86632500Y-68213000D01*
X87557500Y-68213000D01*
X87582004Y-68214204D01*
X87582004Y-68214204D01*
G37*
D11*
X87095000Y-69088000D03*
D10*
G36*
X90557004Y-68214204D02*
X90581273Y-68217804D01*
X90605071Y-68223765D01*
X90628171Y-68232030D01*
X90650349Y-68242520D01*
X90671393Y-68255133D01*
X90691098Y-68269747D01*
X90709277Y-68286223D01*
X90725753Y-68304402D01*
X90740367Y-68324107D01*
X90752980Y-68345151D01*
X90763470Y-68367329D01*
X90771735Y-68390429D01*
X90777696Y-68414227D01*
X90781296Y-68438496D01*
X90782500Y-68463000D01*
X90782500Y-69713000D01*
X90781296Y-69737504D01*
X90777696Y-69761773D01*
X90771735Y-69785571D01*
X90763470Y-69808671D01*
X90752980Y-69830849D01*
X90740367Y-69851893D01*
X90725753Y-69871598D01*
X90709277Y-69889777D01*
X90691098Y-69906253D01*
X90671393Y-69920867D01*
X90650349Y-69933480D01*
X90628171Y-69943970D01*
X90605071Y-69952235D01*
X90581273Y-69958196D01*
X90557004Y-69961796D01*
X90532500Y-69963000D01*
X89607500Y-69963000D01*
X89582996Y-69961796D01*
X89558727Y-69958196D01*
X89534929Y-69952235D01*
X89511829Y-69943970D01*
X89489651Y-69933480D01*
X89468607Y-69920867D01*
X89448902Y-69906253D01*
X89430723Y-69889777D01*
X89414247Y-69871598D01*
X89399633Y-69851893D01*
X89387020Y-69830849D01*
X89376530Y-69808671D01*
X89368265Y-69785571D01*
X89362304Y-69761773D01*
X89358704Y-69737504D01*
X89357500Y-69713000D01*
X89357500Y-68463000D01*
X89358704Y-68438496D01*
X89362304Y-68414227D01*
X89368265Y-68390429D01*
X89376530Y-68367329D01*
X89387020Y-68345151D01*
X89399633Y-68324107D01*
X89414247Y-68304402D01*
X89430723Y-68286223D01*
X89448902Y-68269747D01*
X89468607Y-68255133D01*
X89489651Y-68242520D01*
X89511829Y-68232030D01*
X89534929Y-68223765D01*
X89558727Y-68217804D01*
X89582996Y-68214204D01*
X89607500Y-68213000D01*
X90532500Y-68213000D01*
X90557004Y-68214204D01*
X90557004Y-68214204D01*
G37*
D11*
X90070000Y-69088000D03*
G04 #@! TD*
D10*
G04 #@! TO.C,R5*
G36*
X94503504Y-73548204D02*
X94527773Y-73551804D01*
X94551571Y-73557765D01*
X94574671Y-73566030D01*
X94596849Y-73576520D01*
X94617893Y-73589133D01*
X94637598Y-73603747D01*
X94655777Y-73620223D01*
X94672253Y-73638402D01*
X94686867Y-73658107D01*
X94699480Y-73679151D01*
X94709970Y-73701329D01*
X94718235Y-73724429D01*
X94724196Y-73748227D01*
X94727796Y-73772496D01*
X94729000Y-73797000D01*
X94729000Y-75047000D01*
X94727796Y-75071504D01*
X94724196Y-75095773D01*
X94718235Y-75119571D01*
X94709970Y-75142671D01*
X94699480Y-75164849D01*
X94686867Y-75185893D01*
X94672253Y-75205598D01*
X94655777Y-75223777D01*
X94637598Y-75240253D01*
X94617893Y-75254867D01*
X94596849Y-75267480D01*
X94574671Y-75277970D01*
X94551571Y-75286235D01*
X94527773Y-75292196D01*
X94503504Y-75295796D01*
X94479000Y-75297000D01*
X93554000Y-75297000D01*
X93529496Y-75295796D01*
X93505227Y-75292196D01*
X93481429Y-75286235D01*
X93458329Y-75277970D01*
X93436151Y-75267480D01*
X93415107Y-75254867D01*
X93395402Y-75240253D01*
X93377223Y-75223777D01*
X93360747Y-75205598D01*
X93346133Y-75185893D01*
X93333520Y-75164849D01*
X93323030Y-75142671D01*
X93314765Y-75119571D01*
X93308804Y-75095773D01*
X93305204Y-75071504D01*
X93304000Y-75047000D01*
X93304000Y-73797000D01*
X93305204Y-73772496D01*
X93308804Y-73748227D01*
X93314765Y-73724429D01*
X93323030Y-73701329D01*
X93333520Y-73679151D01*
X93346133Y-73658107D01*
X93360747Y-73638402D01*
X93377223Y-73620223D01*
X93395402Y-73603747D01*
X93415107Y-73589133D01*
X93436151Y-73576520D01*
X93458329Y-73566030D01*
X93481429Y-73557765D01*
X93505227Y-73551804D01*
X93529496Y-73548204D01*
X93554000Y-73547000D01*
X94479000Y-73547000D01*
X94503504Y-73548204D01*
X94503504Y-73548204D01*
G37*
D11*
X94016500Y-74422000D03*
D10*
G36*
X97478504Y-73548204D02*
X97502773Y-73551804D01*
X97526571Y-73557765D01*
X97549671Y-73566030D01*
X97571849Y-73576520D01*
X97592893Y-73589133D01*
X97612598Y-73603747D01*
X97630777Y-73620223D01*
X97647253Y-73638402D01*
X97661867Y-73658107D01*
X97674480Y-73679151D01*
X97684970Y-73701329D01*
X97693235Y-73724429D01*
X97699196Y-73748227D01*
X97702796Y-73772496D01*
X97704000Y-73797000D01*
X97704000Y-75047000D01*
X97702796Y-75071504D01*
X97699196Y-75095773D01*
X97693235Y-75119571D01*
X97684970Y-75142671D01*
X97674480Y-75164849D01*
X97661867Y-75185893D01*
X97647253Y-75205598D01*
X97630777Y-75223777D01*
X97612598Y-75240253D01*
X97592893Y-75254867D01*
X97571849Y-75267480D01*
X97549671Y-75277970D01*
X97526571Y-75286235D01*
X97502773Y-75292196D01*
X97478504Y-75295796D01*
X97454000Y-75297000D01*
X96529000Y-75297000D01*
X96504496Y-75295796D01*
X96480227Y-75292196D01*
X96456429Y-75286235D01*
X96433329Y-75277970D01*
X96411151Y-75267480D01*
X96390107Y-75254867D01*
X96370402Y-75240253D01*
X96352223Y-75223777D01*
X96335747Y-75205598D01*
X96321133Y-75185893D01*
X96308520Y-75164849D01*
X96298030Y-75142671D01*
X96289765Y-75119571D01*
X96283804Y-75095773D01*
X96280204Y-75071504D01*
X96279000Y-75047000D01*
X96279000Y-73797000D01*
X96280204Y-73772496D01*
X96283804Y-73748227D01*
X96289765Y-73724429D01*
X96298030Y-73701329D01*
X96308520Y-73679151D01*
X96321133Y-73658107D01*
X96335747Y-73638402D01*
X96352223Y-73620223D01*
X96370402Y-73603747D01*
X96390107Y-73589133D01*
X96411151Y-73576520D01*
X96433329Y-73566030D01*
X96456429Y-73557765D01*
X96480227Y-73551804D01*
X96504496Y-73548204D01*
X96529000Y-73547000D01*
X97454000Y-73547000D01*
X97478504Y-73548204D01*
X97478504Y-73548204D01*
G37*
D11*
X96991500Y-74422000D03*
G04 #@! TD*
D10*
G04 #@! TO.C,R6*
G36*
X103773504Y-82310204D02*
X103797773Y-82313804D01*
X103821571Y-82319765D01*
X103844671Y-82328030D01*
X103866849Y-82338520D01*
X103887893Y-82351133D01*
X103907598Y-82365747D01*
X103925777Y-82382223D01*
X103942253Y-82400402D01*
X103956867Y-82420107D01*
X103969480Y-82441151D01*
X103979970Y-82463329D01*
X103988235Y-82486429D01*
X103994196Y-82510227D01*
X103997796Y-82534496D01*
X103999000Y-82559000D01*
X103999000Y-83484000D01*
X103997796Y-83508504D01*
X103994196Y-83532773D01*
X103988235Y-83556571D01*
X103979970Y-83579671D01*
X103969480Y-83601849D01*
X103956867Y-83622893D01*
X103942253Y-83642598D01*
X103925777Y-83660777D01*
X103907598Y-83677253D01*
X103887893Y-83691867D01*
X103866849Y-83704480D01*
X103844671Y-83714970D01*
X103821571Y-83723235D01*
X103797773Y-83729196D01*
X103773504Y-83732796D01*
X103749000Y-83734000D01*
X102499000Y-83734000D01*
X102474496Y-83732796D01*
X102450227Y-83729196D01*
X102426429Y-83723235D01*
X102403329Y-83714970D01*
X102381151Y-83704480D01*
X102360107Y-83691867D01*
X102340402Y-83677253D01*
X102322223Y-83660777D01*
X102305747Y-83642598D01*
X102291133Y-83622893D01*
X102278520Y-83601849D01*
X102268030Y-83579671D01*
X102259765Y-83556571D01*
X102253804Y-83532773D01*
X102250204Y-83508504D01*
X102249000Y-83484000D01*
X102249000Y-82559000D01*
X102250204Y-82534496D01*
X102253804Y-82510227D01*
X102259765Y-82486429D01*
X102268030Y-82463329D01*
X102278520Y-82441151D01*
X102291133Y-82420107D01*
X102305747Y-82400402D01*
X102322223Y-82382223D01*
X102340402Y-82365747D01*
X102360107Y-82351133D01*
X102381151Y-82338520D01*
X102403329Y-82328030D01*
X102426429Y-82319765D01*
X102450227Y-82313804D01*
X102474496Y-82310204D01*
X102499000Y-82309000D01*
X103749000Y-82309000D01*
X103773504Y-82310204D01*
X103773504Y-82310204D01*
G37*
D11*
X103124000Y-83021500D03*
D10*
G36*
X103773504Y-79335204D02*
X103797773Y-79338804D01*
X103821571Y-79344765D01*
X103844671Y-79353030D01*
X103866849Y-79363520D01*
X103887893Y-79376133D01*
X103907598Y-79390747D01*
X103925777Y-79407223D01*
X103942253Y-79425402D01*
X103956867Y-79445107D01*
X103969480Y-79466151D01*
X103979970Y-79488329D01*
X103988235Y-79511429D01*
X103994196Y-79535227D01*
X103997796Y-79559496D01*
X103999000Y-79584000D01*
X103999000Y-80509000D01*
X103997796Y-80533504D01*
X103994196Y-80557773D01*
X103988235Y-80581571D01*
X103979970Y-80604671D01*
X103969480Y-80626849D01*
X103956867Y-80647893D01*
X103942253Y-80667598D01*
X103925777Y-80685777D01*
X103907598Y-80702253D01*
X103887893Y-80716867D01*
X103866849Y-80729480D01*
X103844671Y-80739970D01*
X103821571Y-80748235D01*
X103797773Y-80754196D01*
X103773504Y-80757796D01*
X103749000Y-80759000D01*
X102499000Y-80759000D01*
X102474496Y-80757796D01*
X102450227Y-80754196D01*
X102426429Y-80748235D01*
X102403329Y-80739970D01*
X102381151Y-80729480D01*
X102360107Y-80716867D01*
X102340402Y-80702253D01*
X102322223Y-80685777D01*
X102305747Y-80667598D01*
X102291133Y-80647893D01*
X102278520Y-80626849D01*
X102268030Y-80604671D01*
X102259765Y-80581571D01*
X102253804Y-80557773D01*
X102250204Y-80533504D01*
X102249000Y-80509000D01*
X102249000Y-79584000D01*
X102250204Y-79559496D01*
X102253804Y-79535227D01*
X102259765Y-79511429D01*
X102268030Y-79488329D01*
X102278520Y-79466151D01*
X102291133Y-79445107D01*
X102305747Y-79425402D01*
X102322223Y-79407223D01*
X102340402Y-79390747D01*
X102360107Y-79376133D01*
X102381151Y-79363520D01*
X102403329Y-79353030D01*
X102426429Y-79344765D01*
X102450227Y-79338804D01*
X102474496Y-79335204D01*
X102499000Y-79334000D01*
X103749000Y-79334000D01*
X103773504Y-79335204D01*
X103773504Y-79335204D01*
G37*
D11*
X103124000Y-80046500D03*
G04 #@! TD*
D10*
G04 #@! TO.C,R7*
G36*
X106059504Y-79335204D02*
X106083773Y-79338804D01*
X106107571Y-79344765D01*
X106130671Y-79353030D01*
X106152849Y-79363520D01*
X106173893Y-79376133D01*
X106193598Y-79390747D01*
X106211777Y-79407223D01*
X106228253Y-79425402D01*
X106242867Y-79445107D01*
X106255480Y-79466151D01*
X106265970Y-79488329D01*
X106274235Y-79511429D01*
X106280196Y-79535227D01*
X106283796Y-79559496D01*
X106285000Y-79584000D01*
X106285000Y-80509000D01*
X106283796Y-80533504D01*
X106280196Y-80557773D01*
X106274235Y-80581571D01*
X106265970Y-80604671D01*
X106255480Y-80626849D01*
X106242867Y-80647893D01*
X106228253Y-80667598D01*
X106211777Y-80685777D01*
X106193598Y-80702253D01*
X106173893Y-80716867D01*
X106152849Y-80729480D01*
X106130671Y-80739970D01*
X106107571Y-80748235D01*
X106083773Y-80754196D01*
X106059504Y-80757796D01*
X106035000Y-80759000D01*
X104785000Y-80759000D01*
X104760496Y-80757796D01*
X104736227Y-80754196D01*
X104712429Y-80748235D01*
X104689329Y-80739970D01*
X104667151Y-80729480D01*
X104646107Y-80716867D01*
X104626402Y-80702253D01*
X104608223Y-80685777D01*
X104591747Y-80667598D01*
X104577133Y-80647893D01*
X104564520Y-80626849D01*
X104554030Y-80604671D01*
X104545765Y-80581571D01*
X104539804Y-80557773D01*
X104536204Y-80533504D01*
X104535000Y-80509000D01*
X104535000Y-79584000D01*
X104536204Y-79559496D01*
X104539804Y-79535227D01*
X104545765Y-79511429D01*
X104554030Y-79488329D01*
X104564520Y-79466151D01*
X104577133Y-79445107D01*
X104591747Y-79425402D01*
X104608223Y-79407223D01*
X104626402Y-79390747D01*
X104646107Y-79376133D01*
X104667151Y-79363520D01*
X104689329Y-79353030D01*
X104712429Y-79344765D01*
X104736227Y-79338804D01*
X104760496Y-79335204D01*
X104785000Y-79334000D01*
X106035000Y-79334000D01*
X106059504Y-79335204D01*
X106059504Y-79335204D01*
G37*
D11*
X105410000Y-80046500D03*
D10*
G36*
X106059504Y-82310204D02*
X106083773Y-82313804D01*
X106107571Y-82319765D01*
X106130671Y-82328030D01*
X106152849Y-82338520D01*
X106173893Y-82351133D01*
X106193598Y-82365747D01*
X106211777Y-82382223D01*
X106228253Y-82400402D01*
X106242867Y-82420107D01*
X106255480Y-82441151D01*
X106265970Y-82463329D01*
X106274235Y-82486429D01*
X106280196Y-82510227D01*
X106283796Y-82534496D01*
X106285000Y-82559000D01*
X106285000Y-83484000D01*
X106283796Y-83508504D01*
X106280196Y-83532773D01*
X106274235Y-83556571D01*
X106265970Y-83579671D01*
X106255480Y-83601849D01*
X106242867Y-83622893D01*
X106228253Y-83642598D01*
X106211777Y-83660777D01*
X106193598Y-83677253D01*
X106173893Y-83691867D01*
X106152849Y-83704480D01*
X106130671Y-83714970D01*
X106107571Y-83723235D01*
X106083773Y-83729196D01*
X106059504Y-83732796D01*
X106035000Y-83734000D01*
X104785000Y-83734000D01*
X104760496Y-83732796D01*
X104736227Y-83729196D01*
X104712429Y-83723235D01*
X104689329Y-83714970D01*
X104667151Y-83704480D01*
X104646107Y-83691867D01*
X104626402Y-83677253D01*
X104608223Y-83660777D01*
X104591747Y-83642598D01*
X104577133Y-83622893D01*
X104564520Y-83601849D01*
X104554030Y-83579671D01*
X104545765Y-83556571D01*
X104539804Y-83532773D01*
X104536204Y-83508504D01*
X104535000Y-83484000D01*
X104535000Y-82559000D01*
X104536204Y-82534496D01*
X104539804Y-82510227D01*
X104545765Y-82486429D01*
X104554030Y-82463329D01*
X104564520Y-82441151D01*
X104577133Y-82420107D01*
X104591747Y-82400402D01*
X104608223Y-82382223D01*
X104626402Y-82365747D01*
X104646107Y-82351133D01*
X104667151Y-82338520D01*
X104689329Y-82328030D01*
X104712429Y-82319765D01*
X104736227Y-82313804D01*
X104760496Y-82310204D01*
X104785000Y-82309000D01*
X106035000Y-82309000D01*
X106059504Y-82310204D01*
X106059504Y-82310204D01*
G37*
D11*
X105410000Y-83021500D03*
G04 #@! TD*
D10*
G04 #@! TO.C,R8*
G36*
X88279504Y-79335204D02*
X88303773Y-79338804D01*
X88327571Y-79344765D01*
X88350671Y-79353030D01*
X88372849Y-79363520D01*
X88393893Y-79376133D01*
X88413598Y-79390747D01*
X88431777Y-79407223D01*
X88448253Y-79425402D01*
X88462867Y-79445107D01*
X88475480Y-79466151D01*
X88485970Y-79488329D01*
X88494235Y-79511429D01*
X88500196Y-79535227D01*
X88503796Y-79559496D01*
X88505000Y-79584000D01*
X88505000Y-80509000D01*
X88503796Y-80533504D01*
X88500196Y-80557773D01*
X88494235Y-80581571D01*
X88485970Y-80604671D01*
X88475480Y-80626849D01*
X88462867Y-80647893D01*
X88448253Y-80667598D01*
X88431777Y-80685777D01*
X88413598Y-80702253D01*
X88393893Y-80716867D01*
X88372849Y-80729480D01*
X88350671Y-80739970D01*
X88327571Y-80748235D01*
X88303773Y-80754196D01*
X88279504Y-80757796D01*
X88255000Y-80759000D01*
X87005000Y-80759000D01*
X86980496Y-80757796D01*
X86956227Y-80754196D01*
X86932429Y-80748235D01*
X86909329Y-80739970D01*
X86887151Y-80729480D01*
X86866107Y-80716867D01*
X86846402Y-80702253D01*
X86828223Y-80685777D01*
X86811747Y-80667598D01*
X86797133Y-80647893D01*
X86784520Y-80626849D01*
X86774030Y-80604671D01*
X86765765Y-80581571D01*
X86759804Y-80557773D01*
X86756204Y-80533504D01*
X86755000Y-80509000D01*
X86755000Y-79584000D01*
X86756204Y-79559496D01*
X86759804Y-79535227D01*
X86765765Y-79511429D01*
X86774030Y-79488329D01*
X86784520Y-79466151D01*
X86797133Y-79445107D01*
X86811747Y-79425402D01*
X86828223Y-79407223D01*
X86846402Y-79390747D01*
X86866107Y-79376133D01*
X86887151Y-79363520D01*
X86909329Y-79353030D01*
X86932429Y-79344765D01*
X86956227Y-79338804D01*
X86980496Y-79335204D01*
X87005000Y-79334000D01*
X88255000Y-79334000D01*
X88279504Y-79335204D01*
X88279504Y-79335204D01*
G37*
D11*
X87630000Y-80046500D03*
D10*
G36*
X88279504Y-82310204D02*
X88303773Y-82313804D01*
X88327571Y-82319765D01*
X88350671Y-82328030D01*
X88372849Y-82338520D01*
X88393893Y-82351133D01*
X88413598Y-82365747D01*
X88431777Y-82382223D01*
X88448253Y-82400402D01*
X88462867Y-82420107D01*
X88475480Y-82441151D01*
X88485970Y-82463329D01*
X88494235Y-82486429D01*
X88500196Y-82510227D01*
X88503796Y-82534496D01*
X88505000Y-82559000D01*
X88505000Y-83484000D01*
X88503796Y-83508504D01*
X88500196Y-83532773D01*
X88494235Y-83556571D01*
X88485970Y-83579671D01*
X88475480Y-83601849D01*
X88462867Y-83622893D01*
X88448253Y-83642598D01*
X88431777Y-83660777D01*
X88413598Y-83677253D01*
X88393893Y-83691867D01*
X88372849Y-83704480D01*
X88350671Y-83714970D01*
X88327571Y-83723235D01*
X88303773Y-83729196D01*
X88279504Y-83732796D01*
X88255000Y-83734000D01*
X87005000Y-83734000D01*
X86980496Y-83732796D01*
X86956227Y-83729196D01*
X86932429Y-83723235D01*
X86909329Y-83714970D01*
X86887151Y-83704480D01*
X86866107Y-83691867D01*
X86846402Y-83677253D01*
X86828223Y-83660777D01*
X86811747Y-83642598D01*
X86797133Y-83622893D01*
X86784520Y-83601849D01*
X86774030Y-83579671D01*
X86765765Y-83556571D01*
X86759804Y-83532773D01*
X86756204Y-83508504D01*
X86755000Y-83484000D01*
X86755000Y-82559000D01*
X86756204Y-82534496D01*
X86759804Y-82510227D01*
X86765765Y-82486429D01*
X86774030Y-82463329D01*
X86784520Y-82441151D01*
X86797133Y-82420107D01*
X86811747Y-82400402D01*
X86828223Y-82382223D01*
X86846402Y-82365747D01*
X86866107Y-82351133D01*
X86887151Y-82338520D01*
X86909329Y-82328030D01*
X86932429Y-82319765D01*
X86956227Y-82313804D01*
X86980496Y-82310204D01*
X87005000Y-82309000D01*
X88255000Y-82309000D01*
X88279504Y-82310204D01*
X88279504Y-82310204D01*
G37*
D11*
X87630000Y-83021500D03*
G04 #@! TD*
D10*
G04 #@! TO.C,R9*
G36*
X85739504Y-82310204D02*
X85763773Y-82313804D01*
X85787571Y-82319765D01*
X85810671Y-82328030D01*
X85832849Y-82338520D01*
X85853893Y-82351133D01*
X85873598Y-82365747D01*
X85891777Y-82382223D01*
X85908253Y-82400402D01*
X85922867Y-82420107D01*
X85935480Y-82441151D01*
X85945970Y-82463329D01*
X85954235Y-82486429D01*
X85960196Y-82510227D01*
X85963796Y-82534496D01*
X85965000Y-82559000D01*
X85965000Y-83484000D01*
X85963796Y-83508504D01*
X85960196Y-83532773D01*
X85954235Y-83556571D01*
X85945970Y-83579671D01*
X85935480Y-83601849D01*
X85922867Y-83622893D01*
X85908253Y-83642598D01*
X85891777Y-83660777D01*
X85873598Y-83677253D01*
X85853893Y-83691867D01*
X85832849Y-83704480D01*
X85810671Y-83714970D01*
X85787571Y-83723235D01*
X85763773Y-83729196D01*
X85739504Y-83732796D01*
X85715000Y-83734000D01*
X84465000Y-83734000D01*
X84440496Y-83732796D01*
X84416227Y-83729196D01*
X84392429Y-83723235D01*
X84369329Y-83714970D01*
X84347151Y-83704480D01*
X84326107Y-83691867D01*
X84306402Y-83677253D01*
X84288223Y-83660777D01*
X84271747Y-83642598D01*
X84257133Y-83622893D01*
X84244520Y-83601849D01*
X84234030Y-83579671D01*
X84225765Y-83556571D01*
X84219804Y-83532773D01*
X84216204Y-83508504D01*
X84215000Y-83484000D01*
X84215000Y-82559000D01*
X84216204Y-82534496D01*
X84219804Y-82510227D01*
X84225765Y-82486429D01*
X84234030Y-82463329D01*
X84244520Y-82441151D01*
X84257133Y-82420107D01*
X84271747Y-82400402D01*
X84288223Y-82382223D01*
X84306402Y-82365747D01*
X84326107Y-82351133D01*
X84347151Y-82338520D01*
X84369329Y-82328030D01*
X84392429Y-82319765D01*
X84416227Y-82313804D01*
X84440496Y-82310204D01*
X84465000Y-82309000D01*
X85715000Y-82309000D01*
X85739504Y-82310204D01*
X85739504Y-82310204D01*
G37*
D11*
X85090000Y-83021500D03*
D10*
G36*
X85739504Y-79335204D02*
X85763773Y-79338804D01*
X85787571Y-79344765D01*
X85810671Y-79353030D01*
X85832849Y-79363520D01*
X85853893Y-79376133D01*
X85873598Y-79390747D01*
X85891777Y-79407223D01*
X85908253Y-79425402D01*
X85922867Y-79445107D01*
X85935480Y-79466151D01*
X85945970Y-79488329D01*
X85954235Y-79511429D01*
X85960196Y-79535227D01*
X85963796Y-79559496D01*
X85965000Y-79584000D01*
X85965000Y-80509000D01*
X85963796Y-80533504D01*
X85960196Y-80557773D01*
X85954235Y-80581571D01*
X85945970Y-80604671D01*
X85935480Y-80626849D01*
X85922867Y-80647893D01*
X85908253Y-80667598D01*
X85891777Y-80685777D01*
X85873598Y-80702253D01*
X85853893Y-80716867D01*
X85832849Y-80729480D01*
X85810671Y-80739970D01*
X85787571Y-80748235D01*
X85763773Y-80754196D01*
X85739504Y-80757796D01*
X85715000Y-80759000D01*
X84465000Y-80759000D01*
X84440496Y-80757796D01*
X84416227Y-80754196D01*
X84392429Y-80748235D01*
X84369329Y-80739970D01*
X84347151Y-80729480D01*
X84326107Y-80716867D01*
X84306402Y-80702253D01*
X84288223Y-80685777D01*
X84271747Y-80667598D01*
X84257133Y-80647893D01*
X84244520Y-80626849D01*
X84234030Y-80604671D01*
X84225765Y-80581571D01*
X84219804Y-80557773D01*
X84216204Y-80533504D01*
X84215000Y-80509000D01*
X84215000Y-79584000D01*
X84216204Y-79559496D01*
X84219804Y-79535227D01*
X84225765Y-79511429D01*
X84234030Y-79488329D01*
X84244520Y-79466151D01*
X84257133Y-79445107D01*
X84271747Y-79425402D01*
X84288223Y-79407223D01*
X84306402Y-79390747D01*
X84326107Y-79376133D01*
X84347151Y-79363520D01*
X84369329Y-79353030D01*
X84392429Y-79344765D01*
X84416227Y-79338804D01*
X84440496Y-79335204D01*
X84465000Y-79334000D01*
X85715000Y-79334000D01*
X85739504Y-79335204D01*
X85739504Y-79335204D01*
G37*
D11*
X85090000Y-80046500D03*
G04 #@! TD*
D12*
G04 #@! TO.C,U1*
X98204000Y-79629000D03*
X98204000Y-80899000D03*
X98204000Y-82169000D03*
X98204000Y-83439000D03*
X92804000Y-83439000D03*
X92804000Y-82169000D03*
X92804000Y-80899000D03*
X92804000Y-79629000D03*
G04 #@! TD*
D10*
G04 #@! TO.C,R4*
G36*
X97478504Y-66690204D02*
X97502773Y-66693804D01*
X97526571Y-66699765D01*
X97549671Y-66708030D01*
X97571849Y-66718520D01*
X97592893Y-66731133D01*
X97612598Y-66745747D01*
X97630777Y-66762223D01*
X97647253Y-66780402D01*
X97661867Y-66800107D01*
X97674480Y-66821151D01*
X97684970Y-66843329D01*
X97693235Y-66866429D01*
X97699196Y-66890227D01*
X97702796Y-66914496D01*
X97704000Y-66939000D01*
X97704000Y-68189000D01*
X97702796Y-68213504D01*
X97699196Y-68237773D01*
X97693235Y-68261571D01*
X97684970Y-68284671D01*
X97674480Y-68306849D01*
X97661867Y-68327893D01*
X97647253Y-68347598D01*
X97630777Y-68365777D01*
X97612598Y-68382253D01*
X97592893Y-68396867D01*
X97571849Y-68409480D01*
X97549671Y-68419970D01*
X97526571Y-68428235D01*
X97502773Y-68434196D01*
X97478504Y-68437796D01*
X97454000Y-68439000D01*
X96529000Y-68439000D01*
X96504496Y-68437796D01*
X96480227Y-68434196D01*
X96456429Y-68428235D01*
X96433329Y-68419970D01*
X96411151Y-68409480D01*
X96390107Y-68396867D01*
X96370402Y-68382253D01*
X96352223Y-68365777D01*
X96335747Y-68347598D01*
X96321133Y-68327893D01*
X96308520Y-68306849D01*
X96298030Y-68284671D01*
X96289765Y-68261571D01*
X96283804Y-68237773D01*
X96280204Y-68213504D01*
X96279000Y-68189000D01*
X96279000Y-66939000D01*
X96280204Y-66914496D01*
X96283804Y-66890227D01*
X96289765Y-66866429D01*
X96298030Y-66843329D01*
X96308520Y-66821151D01*
X96321133Y-66800107D01*
X96335747Y-66780402D01*
X96352223Y-66762223D01*
X96370402Y-66745747D01*
X96390107Y-66731133D01*
X96411151Y-66718520D01*
X96433329Y-66708030D01*
X96456429Y-66699765D01*
X96480227Y-66693804D01*
X96504496Y-66690204D01*
X96529000Y-66689000D01*
X97454000Y-66689000D01*
X97478504Y-66690204D01*
X97478504Y-66690204D01*
G37*
D11*
X96991500Y-67564000D03*
D10*
G36*
X94503504Y-66690204D02*
X94527773Y-66693804D01*
X94551571Y-66699765D01*
X94574671Y-66708030D01*
X94596849Y-66718520D01*
X94617893Y-66731133D01*
X94637598Y-66745747D01*
X94655777Y-66762223D01*
X94672253Y-66780402D01*
X94686867Y-66800107D01*
X94699480Y-66821151D01*
X94709970Y-66843329D01*
X94718235Y-66866429D01*
X94724196Y-66890227D01*
X94727796Y-66914496D01*
X94729000Y-66939000D01*
X94729000Y-68189000D01*
X94727796Y-68213504D01*
X94724196Y-68237773D01*
X94718235Y-68261571D01*
X94709970Y-68284671D01*
X94699480Y-68306849D01*
X94686867Y-68327893D01*
X94672253Y-68347598D01*
X94655777Y-68365777D01*
X94637598Y-68382253D01*
X94617893Y-68396867D01*
X94596849Y-68409480D01*
X94574671Y-68419970D01*
X94551571Y-68428235D01*
X94527773Y-68434196D01*
X94503504Y-68437796D01*
X94479000Y-68439000D01*
X93554000Y-68439000D01*
X93529496Y-68437796D01*
X93505227Y-68434196D01*
X93481429Y-68428235D01*
X93458329Y-68419970D01*
X93436151Y-68409480D01*
X93415107Y-68396867D01*
X93395402Y-68382253D01*
X93377223Y-68365777D01*
X93360747Y-68347598D01*
X93346133Y-68327893D01*
X93333520Y-68306849D01*
X93323030Y-68284671D01*
X93314765Y-68261571D01*
X93308804Y-68237773D01*
X93305204Y-68213504D01*
X93304000Y-68189000D01*
X93304000Y-66939000D01*
X93305204Y-66914496D01*
X93308804Y-66890227D01*
X93314765Y-66866429D01*
X93323030Y-66843329D01*
X93333520Y-66821151D01*
X93346133Y-66800107D01*
X93360747Y-66780402D01*
X93377223Y-66762223D01*
X93395402Y-66745747D01*
X93415107Y-66731133D01*
X93436151Y-66718520D01*
X93458329Y-66708030D01*
X93481429Y-66699765D01*
X93505227Y-66693804D01*
X93529496Y-66690204D01*
X93554000Y-66689000D01*
X94479000Y-66689000D01*
X94503504Y-66690204D01*
X94503504Y-66690204D01*
G37*
D11*
X94016500Y-67564000D03*
G04 #@! TD*
D10*
G04 #@! TO.C,R1*
G36*
X104133304Y-68214204D02*
X104157573Y-68217804D01*
X104181371Y-68223765D01*
X104204471Y-68232030D01*
X104226649Y-68242520D01*
X104247693Y-68255133D01*
X104267398Y-68269747D01*
X104285577Y-68286223D01*
X104302053Y-68304402D01*
X104316667Y-68324107D01*
X104329280Y-68345151D01*
X104339770Y-68367329D01*
X104348035Y-68390429D01*
X104353996Y-68414227D01*
X104357596Y-68438496D01*
X104358800Y-68463000D01*
X104358800Y-69713000D01*
X104357596Y-69737504D01*
X104353996Y-69761773D01*
X104348035Y-69785571D01*
X104339770Y-69808671D01*
X104329280Y-69830849D01*
X104316667Y-69851893D01*
X104302053Y-69871598D01*
X104285577Y-69889777D01*
X104267398Y-69906253D01*
X104247693Y-69920867D01*
X104226649Y-69933480D01*
X104204471Y-69943970D01*
X104181371Y-69952235D01*
X104157573Y-69958196D01*
X104133304Y-69961796D01*
X104108800Y-69963000D01*
X103183800Y-69963000D01*
X103159296Y-69961796D01*
X103135027Y-69958196D01*
X103111229Y-69952235D01*
X103088129Y-69943970D01*
X103065951Y-69933480D01*
X103044907Y-69920867D01*
X103025202Y-69906253D01*
X103007023Y-69889777D01*
X102990547Y-69871598D01*
X102975933Y-69851893D01*
X102963320Y-69830849D01*
X102952830Y-69808671D01*
X102944565Y-69785571D01*
X102938604Y-69761773D01*
X102935004Y-69737504D01*
X102933800Y-69713000D01*
X102933800Y-68463000D01*
X102935004Y-68438496D01*
X102938604Y-68414227D01*
X102944565Y-68390429D01*
X102952830Y-68367329D01*
X102963320Y-68345151D01*
X102975933Y-68324107D01*
X102990547Y-68304402D01*
X103007023Y-68286223D01*
X103025202Y-68269747D01*
X103044907Y-68255133D01*
X103065951Y-68242520D01*
X103088129Y-68232030D01*
X103111229Y-68223765D01*
X103135027Y-68217804D01*
X103159296Y-68214204D01*
X103183800Y-68213000D01*
X104108800Y-68213000D01*
X104133304Y-68214204D01*
X104133304Y-68214204D01*
G37*
D11*
X103646300Y-69088000D03*
D10*
G36*
X101158304Y-68214204D02*
X101182573Y-68217804D01*
X101206371Y-68223765D01*
X101229471Y-68232030D01*
X101251649Y-68242520D01*
X101272693Y-68255133D01*
X101292398Y-68269747D01*
X101310577Y-68286223D01*
X101327053Y-68304402D01*
X101341667Y-68324107D01*
X101354280Y-68345151D01*
X101364770Y-68367329D01*
X101373035Y-68390429D01*
X101378996Y-68414227D01*
X101382596Y-68438496D01*
X101383800Y-68463000D01*
X101383800Y-69713000D01*
X101382596Y-69737504D01*
X101378996Y-69761773D01*
X101373035Y-69785571D01*
X101364770Y-69808671D01*
X101354280Y-69830849D01*
X101341667Y-69851893D01*
X101327053Y-69871598D01*
X101310577Y-69889777D01*
X101292398Y-69906253D01*
X101272693Y-69920867D01*
X101251649Y-69933480D01*
X101229471Y-69943970D01*
X101206371Y-69952235D01*
X101182573Y-69958196D01*
X101158304Y-69961796D01*
X101133800Y-69963000D01*
X100208800Y-69963000D01*
X100184296Y-69961796D01*
X100160027Y-69958196D01*
X100136229Y-69952235D01*
X100113129Y-69943970D01*
X100090951Y-69933480D01*
X100069907Y-69920867D01*
X100050202Y-69906253D01*
X100032023Y-69889777D01*
X100015547Y-69871598D01*
X100000933Y-69851893D01*
X99988320Y-69830849D01*
X99977830Y-69808671D01*
X99969565Y-69785571D01*
X99963604Y-69761773D01*
X99960004Y-69737504D01*
X99958800Y-69713000D01*
X99958800Y-68463000D01*
X99960004Y-68438496D01*
X99963604Y-68414227D01*
X99969565Y-68390429D01*
X99977830Y-68367329D01*
X99988320Y-68345151D01*
X100000933Y-68324107D01*
X100015547Y-68304402D01*
X100032023Y-68286223D01*
X100050202Y-68269747D01*
X100069907Y-68255133D01*
X100090951Y-68242520D01*
X100113129Y-68232030D01*
X100136229Y-68223765D01*
X100160027Y-68217804D01*
X100184296Y-68214204D01*
X100208800Y-68213000D01*
X101133800Y-68213000D01*
X101158304Y-68214204D01*
X101158304Y-68214204D01*
G37*
D11*
X100671300Y-69088000D03*
G04 #@! TD*
M02*
