G04 #@! TF.GenerationSoftware,KiCad,Pcbnew,(5.0.1)-4*
G04 #@! TF.CreationDate,2019-03-05T01:38:51-06:00*
G04 #@! TF.ProjectId,util_LFO,7574696C5F4C464F2E6B696361645F70,rev?*
G04 #@! TF.SameCoordinates,Original*
G04 #@! TF.FileFunction,Paste,Top*
G04 #@! TF.FilePolarity,Positive*
%FSLAX46Y46*%
G04 Gerber Fmt 4.6, Leading zero omitted, Abs format (unit mm)*
G04 Created by KiCad (PCBNEW (5.0.1)-4) date 3/5/2019 1:38:51*
%MOMM*%
%LPD*%
G01*
G04 APERTURE LIST*
%ADD10C,0.100000*%
%ADD11C,1.600000*%
G04 APERTURE END LIST*
D10*
G04 #@! TO.C,C4*
G36*
X86426504Y-91941204D02*
X86450773Y-91944804D01*
X86474571Y-91950765D01*
X86497671Y-91959030D01*
X86519849Y-91969520D01*
X86540893Y-91982133D01*
X86560598Y-91996747D01*
X86578777Y-92013223D01*
X86595253Y-92031402D01*
X86609867Y-92051107D01*
X86622480Y-92072151D01*
X86632970Y-92094329D01*
X86641235Y-92117429D01*
X86647196Y-92141227D01*
X86650796Y-92165496D01*
X86652000Y-92190000D01*
X86652000Y-94290000D01*
X86650796Y-94314504D01*
X86647196Y-94338773D01*
X86641235Y-94362571D01*
X86632970Y-94385671D01*
X86622480Y-94407849D01*
X86609867Y-94428893D01*
X86595253Y-94448598D01*
X86578777Y-94466777D01*
X86560598Y-94483253D01*
X86540893Y-94497867D01*
X86519849Y-94510480D01*
X86497671Y-94520970D01*
X86474571Y-94529235D01*
X86450773Y-94535196D01*
X86426504Y-94538796D01*
X86402000Y-94540000D01*
X85302000Y-94540000D01*
X85277496Y-94538796D01*
X85253227Y-94535196D01*
X85229429Y-94529235D01*
X85206329Y-94520970D01*
X85184151Y-94510480D01*
X85163107Y-94497867D01*
X85143402Y-94483253D01*
X85125223Y-94466777D01*
X85108747Y-94448598D01*
X85094133Y-94428893D01*
X85081520Y-94407849D01*
X85071030Y-94385671D01*
X85062765Y-94362571D01*
X85056804Y-94338773D01*
X85053204Y-94314504D01*
X85052000Y-94290000D01*
X85052000Y-92190000D01*
X85053204Y-92165496D01*
X85056804Y-92141227D01*
X85062765Y-92117429D01*
X85071030Y-92094329D01*
X85081520Y-92072151D01*
X85094133Y-92051107D01*
X85108747Y-92031402D01*
X85125223Y-92013223D01*
X85143402Y-91996747D01*
X85163107Y-91982133D01*
X85184151Y-91969520D01*
X85206329Y-91959030D01*
X85229429Y-91950765D01*
X85253227Y-91944804D01*
X85277496Y-91941204D01*
X85302000Y-91940000D01*
X86402000Y-91940000D01*
X86426504Y-91941204D01*
X86426504Y-91941204D01*
G37*
D11*
X85852000Y-93240000D03*
D10*
G36*
X86426504Y-88341204D02*
X86450773Y-88344804D01*
X86474571Y-88350765D01*
X86497671Y-88359030D01*
X86519849Y-88369520D01*
X86540893Y-88382133D01*
X86560598Y-88396747D01*
X86578777Y-88413223D01*
X86595253Y-88431402D01*
X86609867Y-88451107D01*
X86622480Y-88472151D01*
X86632970Y-88494329D01*
X86641235Y-88517429D01*
X86647196Y-88541227D01*
X86650796Y-88565496D01*
X86652000Y-88590000D01*
X86652000Y-90690000D01*
X86650796Y-90714504D01*
X86647196Y-90738773D01*
X86641235Y-90762571D01*
X86632970Y-90785671D01*
X86622480Y-90807849D01*
X86609867Y-90828893D01*
X86595253Y-90848598D01*
X86578777Y-90866777D01*
X86560598Y-90883253D01*
X86540893Y-90897867D01*
X86519849Y-90910480D01*
X86497671Y-90920970D01*
X86474571Y-90929235D01*
X86450773Y-90935196D01*
X86426504Y-90938796D01*
X86402000Y-90940000D01*
X85302000Y-90940000D01*
X85277496Y-90938796D01*
X85253227Y-90935196D01*
X85229429Y-90929235D01*
X85206329Y-90920970D01*
X85184151Y-90910480D01*
X85163107Y-90897867D01*
X85143402Y-90883253D01*
X85125223Y-90866777D01*
X85108747Y-90848598D01*
X85094133Y-90828893D01*
X85081520Y-90807849D01*
X85071030Y-90785671D01*
X85062765Y-90762571D01*
X85056804Y-90738773D01*
X85053204Y-90714504D01*
X85052000Y-90690000D01*
X85052000Y-88590000D01*
X85053204Y-88565496D01*
X85056804Y-88541227D01*
X85062765Y-88517429D01*
X85071030Y-88494329D01*
X85081520Y-88472151D01*
X85094133Y-88451107D01*
X85108747Y-88431402D01*
X85125223Y-88413223D01*
X85143402Y-88396747D01*
X85163107Y-88382133D01*
X85184151Y-88369520D01*
X85206329Y-88359030D01*
X85229429Y-88350765D01*
X85253227Y-88344804D01*
X85277496Y-88341204D01*
X85302000Y-88340000D01*
X86402000Y-88340000D01*
X86426504Y-88341204D01*
X86426504Y-88341204D01*
G37*
D11*
X85852000Y-89640000D03*
G04 #@! TD*
D10*
G04 #@! TO.C,C5*
G36*
X104968504Y-91941204D02*
X104992773Y-91944804D01*
X105016571Y-91950765D01*
X105039671Y-91959030D01*
X105061849Y-91969520D01*
X105082893Y-91982133D01*
X105102598Y-91996747D01*
X105120777Y-92013223D01*
X105137253Y-92031402D01*
X105151867Y-92051107D01*
X105164480Y-92072151D01*
X105174970Y-92094329D01*
X105183235Y-92117429D01*
X105189196Y-92141227D01*
X105192796Y-92165496D01*
X105194000Y-92190000D01*
X105194000Y-94290000D01*
X105192796Y-94314504D01*
X105189196Y-94338773D01*
X105183235Y-94362571D01*
X105174970Y-94385671D01*
X105164480Y-94407849D01*
X105151867Y-94428893D01*
X105137253Y-94448598D01*
X105120777Y-94466777D01*
X105102598Y-94483253D01*
X105082893Y-94497867D01*
X105061849Y-94510480D01*
X105039671Y-94520970D01*
X105016571Y-94529235D01*
X104992773Y-94535196D01*
X104968504Y-94538796D01*
X104944000Y-94540000D01*
X103844000Y-94540000D01*
X103819496Y-94538796D01*
X103795227Y-94535196D01*
X103771429Y-94529235D01*
X103748329Y-94520970D01*
X103726151Y-94510480D01*
X103705107Y-94497867D01*
X103685402Y-94483253D01*
X103667223Y-94466777D01*
X103650747Y-94448598D01*
X103636133Y-94428893D01*
X103623520Y-94407849D01*
X103613030Y-94385671D01*
X103604765Y-94362571D01*
X103598804Y-94338773D01*
X103595204Y-94314504D01*
X103594000Y-94290000D01*
X103594000Y-92190000D01*
X103595204Y-92165496D01*
X103598804Y-92141227D01*
X103604765Y-92117429D01*
X103613030Y-92094329D01*
X103623520Y-92072151D01*
X103636133Y-92051107D01*
X103650747Y-92031402D01*
X103667223Y-92013223D01*
X103685402Y-91996747D01*
X103705107Y-91982133D01*
X103726151Y-91969520D01*
X103748329Y-91959030D01*
X103771429Y-91950765D01*
X103795227Y-91944804D01*
X103819496Y-91941204D01*
X103844000Y-91940000D01*
X104944000Y-91940000D01*
X104968504Y-91941204D01*
X104968504Y-91941204D01*
G37*
D11*
X104394000Y-93240000D03*
D10*
G36*
X104968504Y-88341204D02*
X104992773Y-88344804D01*
X105016571Y-88350765D01*
X105039671Y-88359030D01*
X105061849Y-88369520D01*
X105082893Y-88382133D01*
X105102598Y-88396747D01*
X105120777Y-88413223D01*
X105137253Y-88431402D01*
X105151867Y-88451107D01*
X105164480Y-88472151D01*
X105174970Y-88494329D01*
X105183235Y-88517429D01*
X105189196Y-88541227D01*
X105192796Y-88565496D01*
X105194000Y-88590000D01*
X105194000Y-90690000D01*
X105192796Y-90714504D01*
X105189196Y-90738773D01*
X105183235Y-90762571D01*
X105174970Y-90785671D01*
X105164480Y-90807849D01*
X105151867Y-90828893D01*
X105137253Y-90848598D01*
X105120777Y-90866777D01*
X105102598Y-90883253D01*
X105082893Y-90897867D01*
X105061849Y-90910480D01*
X105039671Y-90920970D01*
X105016571Y-90929235D01*
X104992773Y-90935196D01*
X104968504Y-90938796D01*
X104944000Y-90940000D01*
X103844000Y-90940000D01*
X103819496Y-90938796D01*
X103795227Y-90935196D01*
X103771429Y-90929235D01*
X103748329Y-90920970D01*
X103726151Y-90910480D01*
X103705107Y-90897867D01*
X103685402Y-90883253D01*
X103667223Y-90866777D01*
X103650747Y-90848598D01*
X103636133Y-90828893D01*
X103623520Y-90807849D01*
X103613030Y-90785671D01*
X103604765Y-90762571D01*
X103598804Y-90738773D01*
X103595204Y-90714504D01*
X103594000Y-90690000D01*
X103594000Y-88590000D01*
X103595204Y-88565496D01*
X103598804Y-88541227D01*
X103604765Y-88517429D01*
X103613030Y-88494329D01*
X103623520Y-88472151D01*
X103636133Y-88451107D01*
X103650747Y-88431402D01*
X103667223Y-88413223D01*
X103685402Y-88396747D01*
X103705107Y-88382133D01*
X103726151Y-88369520D01*
X103748329Y-88359030D01*
X103771429Y-88350765D01*
X103795227Y-88344804D01*
X103819496Y-88341204D01*
X103844000Y-88340000D01*
X104944000Y-88340000D01*
X104968504Y-88341204D01*
X104968504Y-88341204D01*
G37*
D11*
X104394000Y-89640000D03*
G04 #@! TD*
M02*
