M48
; DRILL file {KiCad (5.1.0)-1} date 8/15/2022 9:48:59 AM
; FORMAT={-:-/ absolute / inch / decimal}
; #@! TF.CreationDate,2022-08-15T09:48:59-05:00
; #@! TF.GenerationSoftware,Kicad,Pcbnew,(5.1.0)-1
; #@! TF.FileFunction,Plated,1,2,PTH
FMAT,2
INCH
T1C0.0295
T2C0.0315
T3C0.0394
T4C0.0472
T5C0.0512
T6C0.2087
%
G90
G05
T1
X7.775Y-3.624
X4.005Y-4.084
X4.055Y-4.034
X5.375Y-4.034
X3.75Y-4.084
X3.8Y-4.034
X3.8Y-4.134
X7.405Y-3.664
X7.455Y-3.614
X7.505Y-3.664
X5.07Y-4.084
X5.12Y-4.034
X5.12Y-4.134
X7.675Y-3.624
X7.725Y-3.674
X4.665Y-4.084
X4.715Y-4.034
X4.715Y-4.134
X4.055Y-4.134
X5.325Y-4.084
X5.375Y-4.134
X4.41Y-4.084
X4.46Y-4.034
X4.46Y-4.134
T2
X6.25Y-3.024
X6.25Y-3.424
X4.82Y-3.024
X4.82Y-3.424
X7.455Y-3.024
X7.455Y-3.424
X3.91Y-3.024
X3.91Y-3.424
X6.83Y-3.574
X7.13Y-3.574
X7.725Y-3.024
X7.725Y-3.424
X4.3Y-3.024
X4.3Y-3.424
X6.51Y-4.399
X6.91Y-4.399
X7.59Y-3.024
X7.59Y-3.424
X6.38Y-3.024
X6.38Y-3.424
X6.51Y-3.024
X6.51Y-3.424
X5.47Y-3.024
X5.47Y-3.424
X6.125Y-3.024
X6.125Y-3.424
X5.82Y-4.324
X5.82Y-4.5209
X6.3Y-3.574
X6.6Y-3.574
X6.355Y-4.134
X6.5519Y-4.134
X6.78Y-3.024
X6.78Y-3.424
X4.43Y-3.024
X4.43Y-3.424
X3.65Y-3.024
X3.65Y-3.424
X5.6Y-3.024
X5.6Y-3.424
X4.17Y-3.024
X4.17Y-3.424
X7.185Y-3.024
X7.185Y-3.424
X5.99Y-3.024
X5.99Y-3.424
X3.78Y-3.024
X3.78Y-3.424
X4.95Y-3.024
X4.95Y-3.424
X6.88Y-3.855
X6.98Y-3.755
X7.08Y-3.855
X7.05Y-3.024
X7.05Y-3.424
X6.35Y-3.855
X6.45Y-3.755
X6.55Y-3.855
X5.86Y-3.024
X5.86Y-3.424
X4.69Y-3.024
X4.69Y-3.424
X6.645Y-3.024
X6.645Y-3.424
X4.56Y-3.024
X4.56Y-3.424
X6.8781Y-4.134
X7.075Y-4.134
X5.08Y-3.024
X5.08Y-3.424
X5.21Y-3.024
X5.21Y-3.424
X6.915Y-3.024
X6.915Y-3.424
X4.04Y-3.024
X4.04Y-3.424
X7.32Y-3.024
X7.32Y-3.424
X5.34Y-3.024
X5.34Y-3.424
X5.73Y-3.024
X5.73Y-3.424
T3
X4.4681Y-3.714
X4.665Y-3.714
X7.445Y-4.204
X7.7403Y-4.204
X3.815Y-4.454
X4.0119Y-4.454
X7.44Y-3.939
X7.7353Y-3.939
X3.8181Y-3.714
X4.015Y-3.714
X5.6331Y-3.714
X5.83Y-3.714
X4.47Y-4.454
X4.6669Y-4.454
X5.1181Y-3.714
X5.315Y-3.714
X5.125Y-4.454
X5.3219Y-4.454
X6.505Y-4.589
X6.8987Y-4.589
T4
X5.6842Y-4.999
X6.57Y-4.999
X6.87Y-4.999
X7.7558Y-4.999
T5
X8.5625Y-3.584
X8.5625Y-3.784
X8.5625Y-3.184
X8.5625Y-3.384
X8.5675Y-4.5565
X8.5675Y-4.7565
X8.5625Y-3.984
X8.5625Y-4.184
T6
X3.33Y-5.174
X3.33Y-2.774
X8.73Y-2.774
X8.73Y-5.174
T0
M30
