G04 #@! TF.GenerationSoftware,KiCad,Pcbnew,(5.0.1)-4*
G04 #@! TF.CreationDate,2019-03-05T01:35:27-06:00*
G04 #@! TF.ProjectId,VCO,56434F2E6B696361645F706362000000,rev?*
G04 #@! TF.SameCoordinates,Original*
G04 #@! TF.FileFunction,Other,Fab,Top*
%FSLAX46Y46*%
G04 Gerber Fmt 4.6, Leading zero omitted, Abs format (unit mm)*
G04 Created by KiCad (PCBNEW (5.0.1)-4) date 3/5/2019 1:35:27*
%MOMM*%
%LPD*%
G01*
G04 APERTURE LIST*
%ADD10C,0.100000*%
%ADD11C,0.150000*%
G04 APERTURE END LIST*
D10*
G04 #@! TO.C,J9*
X166082000Y135056000D02*
X176482000Y135056000D01*
X166082000Y126056000D02*
X176482000Y126056000D01*
X166082000Y126056000D02*
X166082000Y135056000D01*
X176532000Y126056000D02*
X176532000Y135056000D01*
X173882000Y130556000D02*
G75*
G03X173882000Y130556000I-1800000J0D01*
G01*
X178562000Y130556000D02*
X176532000Y130556000D01*
G04 #@! TO.C,RV39*
X175498000Y163964000D02*
G75*
G03X175498000Y163964000I-3500000J0D01*
G01*
X167248000Y157464000D02*
X176748000Y157464000D01*
X176748000Y157464000D02*
X176748000Y168814000D01*
X176748000Y168814000D02*
X167248000Y168814000D01*
X167248000Y168814000D02*
X167248000Y157464000D01*
G04 #@! TO.C,RV3*
X175418000Y201161000D02*
G75*
G03X175418000Y201161000I-3500000J0D01*
G01*
X176668000Y207661000D02*
X167168000Y207661000D01*
X167168000Y207661000D02*
X167168000Y196311000D01*
X167168000Y196311000D02*
X176668000Y196311000D01*
X176668000Y196311000D02*
X176668000Y207661000D01*
G04 #@! TO.C,RV2*
X156876000Y201161000D02*
G75*
G03X156876000Y201161000I-3500000J0D01*
G01*
X158126000Y207661000D02*
X148626000Y207661000D01*
X148626000Y207661000D02*
X148626000Y196311000D01*
X148626000Y196311000D02*
X158126000Y196311000D01*
X158126000Y196311000D02*
X158126000Y207661000D01*
G04 #@! TO.C,J1*
X153416000Y188976000D02*
X153416000Y186946000D01*
X155216000Y182496000D02*
G75*
G03X155216000Y182496000I-1800000J0D01*
G01*
X157916000Y186946000D02*
X148916000Y186946000D01*
X157916000Y176496000D02*
X148916000Y176496000D01*
X157916000Y176496000D02*
X157916000Y186896000D01*
X148916000Y176496000D02*
X148916000Y186896000D01*
G04 #@! TO.C,J2*
X148916000Y157827000D02*
X148916000Y168227000D01*
X157916000Y157827000D02*
X157916000Y168227000D01*
X157916000Y157827000D02*
X148916000Y157827000D01*
X157916000Y168277000D02*
X148916000Y168277000D01*
X155216000Y163827000D02*
G75*
G03X155216000Y163827000I-1800000J0D01*
G01*
X153416000Y170307000D02*
X153416000Y168277000D01*
G04 #@! TO.C,J3*
X159292000Y99767000D02*
X148892000Y99767000D01*
X159292000Y108767000D02*
X148892000Y108767000D01*
X159292000Y108767000D02*
X159292000Y99767000D01*
X148842000Y108767000D02*
X148842000Y99767000D01*
X155092000Y104267000D02*
G75*
G03X155092000Y104267000I-1800000J0D01*
G01*
X146812000Y104267000D02*
X148842000Y104267000D01*
G04 #@! TO.C,J4*
X159292000Y139010000D02*
X148892000Y139010000D01*
X159292000Y148010000D02*
X148892000Y148010000D01*
X159292000Y148010000D02*
X159292000Y139010000D01*
X148842000Y148010000D02*
X148842000Y139010000D01*
X155092000Y143510000D02*
G75*
G03X155092000Y143510000I-1800000J0D01*
G01*
X146812000Y143510000D02*
X148842000Y143510000D01*
G04 #@! TO.C,J5*
X146812000Y130556000D02*
X148842000Y130556000D01*
X155092000Y130556000D02*
G75*
G03X155092000Y130556000I-1800000J0D01*
G01*
X148842000Y135056000D02*
X148842000Y126056000D01*
X159292000Y135056000D02*
X159292000Y126056000D01*
X159292000Y135056000D02*
X148892000Y135056000D01*
X159292000Y126056000D02*
X148892000Y126056000D01*
G04 #@! TO.C,J6*
X159292000Y112848000D02*
X148892000Y112848000D01*
X159292000Y121848000D02*
X148892000Y121848000D01*
X159292000Y121848000D02*
X159292000Y112848000D01*
X148842000Y121848000D02*
X148842000Y112848000D01*
X155092000Y117348000D02*
G75*
G03X155092000Y117348000I-1800000J0D01*
G01*
X146812000Y117348000D02*
X148842000Y117348000D01*
G04 #@! TO.C,J7*
X178562000Y104394000D02*
X176532000Y104394000D01*
X173882000Y104394000D02*
G75*
G03X173882000Y104394000I-1800000J0D01*
G01*
X176532000Y99894000D02*
X176532000Y108894000D01*
X166082000Y99894000D02*
X166082000Y108894000D01*
X166082000Y99894000D02*
X176482000Y99894000D01*
X166082000Y108894000D02*
X176482000Y108894000D01*
G04 #@! TO.C,J8*
X178562000Y117348000D02*
X176532000Y117348000D01*
X173882000Y117348000D02*
G75*
G03X173882000Y117348000I-1800000J0D01*
G01*
X176532000Y112848000D02*
X176532000Y121848000D01*
X166082000Y112848000D02*
X166082000Y121848000D01*
X166082000Y112848000D02*
X176482000Y112848000D01*
X166082000Y121848000D02*
X176482000Y121848000D01*
G04 #@! TO.C,J10*
X178562000Y143510000D02*
X176532000Y143510000D01*
X173882000Y143510000D02*
G75*
G03X173882000Y143510000I-1800000J0D01*
G01*
X176532000Y139010000D02*
X176532000Y148010000D01*
X166082000Y139010000D02*
X166082000Y148010000D01*
X166082000Y139010000D02*
X176482000Y139010000D01*
X166082000Y148010000D02*
X176482000Y148010000D01*
G04 #@! TD*
G04 #@! TO.C,J9*
D11*
X174014380Y129794095D02*
X173538190Y129460761D01*
X174014380Y129222666D02*
X173014380Y129222666D01*
X173014380Y129603619D01*
X173062000Y129698857D01*
X173109619Y129746476D01*
X173204857Y129794095D01*
X173347714Y129794095D01*
X173442952Y129746476D01*
X173490571Y129698857D01*
X173538190Y129603619D01*
X173538190Y129222666D01*
X174014380Y130222666D02*
X173014380Y130222666D01*
X173728666Y130556000D01*
X173014380Y130889333D01*
X174014380Y130889333D01*
X174014380Y131365523D02*
X173014380Y131365523D01*
X173014380Y131746476D01*
X173062000Y131841714D01*
X173109619Y131889333D01*
X173204857Y131936952D01*
X173347714Y131936952D01*
X173442952Y131889333D01*
X173490571Y131841714D01*
X173538190Y131746476D01*
X173538190Y131365523D01*
X170014380Y130222666D02*
X170728666Y130222666D01*
X170871523Y130175047D01*
X170966761Y130079809D01*
X171014380Y129936952D01*
X171014380Y129841714D01*
X171014380Y130746476D02*
X171014380Y130936952D01*
X170966761Y131032190D01*
X170919142Y131079809D01*
X170776285Y131175047D01*
X170585809Y131222666D01*
X170204857Y131222666D01*
X170109619Y131175047D01*
X170062000Y131127428D01*
X170014380Y131032190D01*
X170014380Y130841714D01*
X170062000Y130746476D01*
X170109619Y130698857D01*
X170204857Y130651238D01*
X170442952Y130651238D01*
X170538190Y130698857D01*
X170585809Y130746476D01*
X170633428Y130841714D01*
X170633428Y131032190D01*
X170585809Y131127428D01*
X170538190Y131175047D01*
X170442952Y131222666D01*
G04 #@! TO.C,RV39*
X180100380Y160109238D02*
X180100380Y159537809D01*
X180100380Y159823523D02*
X179100380Y159823523D01*
X179243238Y159728285D01*
X179338476Y159633047D01*
X179386095Y159537809D01*
X179100380Y160728285D02*
X179100380Y160823523D01*
X179148000Y160918761D01*
X179195619Y160966380D01*
X179290857Y161014000D01*
X179481333Y161061619D01*
X179719428Y161061619D01*
X179909904Y161014000D01*
X180005142Y160966380D01*
X180052761Y160918761D01*
X180100380Y160823523D01*
X180100380Y160728285D01*
X180052761Y160633047D01*
X180005142Y160585428D01*
X179909904Y160537809D01*
X179719428Y160490190D01*
X179481333Y160490190D01*
X179290857Y160537809D01*
X179195619Y160585428D01*
X179148000Y160633047D01*
X179100380Y160728285D01*
X179100380Y161680666D02*
X179100380Y161775904D01*
X179148000Y161871142D01*
X179195619Y161918761D01*
X179290857Y161966380D01*
X179481333Y162014000D01*
X179719428Y162014000D01*
X179909904Y161966380D01*
X180005142Y161918761D01*
X180052761Y161871142D01*
X180100380Y161775904D01*
X180100380Y161680666D01*
X180052761Y161585428D01*
X180005142Y161537809D01*
X179909904Y161490190D01*
X179719428Y161442571D01*
X179481333Y161442571D01*
X179290857Y161490190D01*
X179195619Y161537809D01*
X179148000Y161585428D01*
X179100380Y161680666D01*
X180100380Y162442571D02*
X179100380Y162442571D01*
X179719428Y162537809D02*
X180100380Y162823523D01*
X179433714Y162823523D02*
X179814666Y162442571D01*
X180100380Y164156857D02*
X180052761Y164061619D01*
X179957523Y164014000D01*
X179100380Y164014000D01*
X180100380Y164537809D02*
X179433714Y164537809D01*
X179100380Y164537809D02*
X179148000Y164490190D01*
X179195619Y164537809D01*
X179148000Y164585428D01*
X179100380Y164537809D01*
X179195619Y164537809D01*
X179433714Y165014000D02*
X180100380Y165014000D01*
X179528952Y165014000D02*
X179481333Y165061619D01*
X179433714Y165156857D01*
X179433714Y165299714D01*
X179481333Y165394952D01*
X179576571Y165442571D01*
X180100380Y165442571D01*
X170926571Y158011619D02*
X170593238Y158487809D01*
X170355142Y158011619D02*
X170355142Y159011619D01*
X170736095Y159011619D01*
X170831333Y158964000D01*
X170878952Y158916380D01*
X170926571Y158821142D01*
X170926571Y158678285D01*
X170878952Y158583047D01*
X170831333Y158535428D01*
X170736095Y158487809D01*
X170355142Y158487809D01*
X171212285Y159011619D02*
X171545619Y158011619D01*
X171878952Y159011619D01*
X172117047Y159011619D02*
X172736095Y159011619D01*
X172402761Y158630666D01*
X172545619Y158630666D01*
X172640857Y158583047D01*
X172688476Y158535428D01*
X172736095Y158440190D01*
X172736095Y158202095D01*
X172688476Y158106857D01*
X172640857Y158059238D01*
X172545619Y158011619D01*
X172259904Y158011619D01*
X172164666Y158059238D01*
X172117047Y158106857D01*
X173212285Y158011619D02*
X173402761Y158011619D01*
X173498000Y158059238D01*
X173545619Y158106857D01*
X173640857Y158249714D01*
X173688476Y158440190D01*
X173688476Y158821142D01*
X173640857Y158916380D01*
X173593238Y158964000D01*
X173498000Y159011619D01*
X173307523Y159011619D01*
X173212285Y158964000D01*
X173164666Y158916380D01*
X173117047Y158821142D01*
X173117047Y158583047D01*
X173164666Y158487809D01*
X173212285Y158440190D01*
X173307523Y158392571D01*
X173498000Y158392571D01*
X173593238Y158440190D01*
X173640857Y158487809D01*
X173688476Y158583047D01*
G04 #@! TO.C,RV3*
X164720380Y200206238D02*
X164720380Y199634809D01*
X164720380Y199920523D02*
X163720380Y199920523D01*
X163863238Y199825285D01*
X163958476Y199730047D01*
X164006095Y199634809D01*
X163720380Y200825285D02*
X163720380Y200920523D01*
X163768000Y201015761D01*
X163815619Y201063380D01*
X163910857Y201111000D01*
X164101333Y201158619D01*
X164339428Y201158619D01*
X164529904Y201111000D01*
X164625142Y201063380D01*
X164672761Y201015761D01*
X164720380Y200920523D01*
X164720380Y200825285D01*
X164672761Y200730047D01*
X164625142Y200682428D01*
X164529904Y200634809D01*
X164339428Y200587190D01*
X164101333Y200587190D01*
X163910857Y200634809D01*
X163815619Y200682428D01*
X163768000Y200730047D01*
X163720380Y200825285D01*
X163720380Y201777666D02*
X163720380Y201872904D01*
X163768000Y201968142D01*
X163815619Y202015761D01*
X163910857Y202063380D01*
X164101333Y202111000D01*
X164339428Y202111000D01*
X164529904Y202063380D01*
X164625142Y202015761D01*
X164672761Y201968142D01*
X164720380Y201872904D01*
X164720380Y201777666D01*
X164672761Y201682428D01*
X164625142Y201634809D01*
X164529904Y201587190D01*
X164339428Y201539571D01*
X164101333Y201539571D01*
X163910857Y201587190D01*
X163815619Y201634809D01*
X163768000Y201682428D01*
X163720380Y201777666D01*
X164720380Y202539571D02*
X163720380Y202539571D01*
X164339428Y202634809D02*
X164720380Y202920523D01*
X164053714Y202920523D02*
X164434666Y202539571D01*
X164720380Y204253857D02*
X164672761Y204158619D01*
X164577523Y204111000D01*
X163720380Y204111000D01*
X164720380Y204634809D02*
X164053714Y204634809D01*
X163720380Y204634809D02*
X163768000Y204587190D01*
X163815619Y204634809D01*
X163768000Y204682428D01*
X163720380Y204634809D01*
X163815619Y204634809D01*
X164053714Y205111000D02*
X164720380Y205111000D01*
X164148952Y205111000D02*
X164101333Y205158619D01*
X164053714Y205253857D01*
X164053714Y205396714D01*
X164101333Y205491952D01*
X164196571Y205539571D01*
X164720380Y205539571D01*
X171322761Y206208619D02*
X170989428Y206684809D01*
X170751333Y206208619D02*
X170751333Y207208619D01*
X171132285Y207208619D01*
X171227523Y207161000D01*
X171275142Y207113380D01*
X171322761Y207018142D01*
X171322761Y206875285D01*
X171275142Y206780047D01*
X171227523Y206732428D01*
X171132285Y206684809D01*
X170751333Y206684809D01*
X171608476Y207208619D02*
X171941809Y206208619D01*
X172275142Y207208619D01*
X172513238Y207208619D02*
X173132285Y207208619D01*
X172798952Y206827666D01*
X172941809Y206827666D01*
X173037047Y206780047D01*
X173084666Y206732428D01*
X173132285Y206637190D01*
X173132285Y206399095D01*
X173084666Y206303857D01*
X173037047Y206256238D01*
X172941809Y206208619D01*
X172656095Y206208619D01*
X172560857Y206256238D01*
X172513238Y206303857D01*
G04 #@! TO.C,RV2*
X146178380Y200206238D02*
X146178380Y199634809D01*
X146178380Y199920523D02*
X145178380Y199920523D01*
X145321238Y199825285D01*
X145416476Y199730047D01*
X145464095Y199634809D01*
X145178380Y200825285D02*
X145178380Y200920523D01*
X145226000Y201015761D01*
X145273619Y201063380D01*
X145368857Y201111000D01*
X145559333Y201158619D01*
X145797428Y201158619D01*
X145987904Y201111000D01*
X146083142Y201063380D01*
X146130761Y201015761D01*
X146178380Y200920523D01*
X146178380Y200825285D01*
X146130761Y200730047D01*
X146083142Y200682428D01*
X145987904Y200634809D01*
X145797428Y200587190D01*
X145559333Y200587190D01*
X145368857Y200634809D01*
X145273619Y200682428D01*
X145226000Y200730047D01*
X145178380Y200825285D01*
X145178380Y201777666D02*
X145178380Y201872904D01*
X145226000Y201968142D01*
X145273619Y202015761D01*
X145368857Y202063380D01*
X145559333Y202111000D01*
X145797428Y202111000D01*
X145987904Y202063380D01*
X146083142Y202015761D01*
X146130761Y201968142D01*
X146178380Y201872904D01*
X146178380Y201777666D01*
X146130761Y201682428D01*
X146083142Y201634809D01*
X145987904Y201587190D01*
X145797428Y201539571D01*
X145559333Y201539571D01*
X145368857Y201587190D01*
X145273619Y201634809D01*
X145226000Y201682428D01*
X145178380Y201777666D01*
X146178380Y202539571D02*
X145178380Y202539571D01*
X145797428Y202634809D02*
X146178380Y202920523D01*
X145511714Y202920523D02*
X145892666Y202539571D01*
X146178380Y204253857D02*
X146130761Y204158619D01*
X146035523Y204111000D01*
X145178380Y204111000D01*
X146178380Y204634809D02*
X145511714Y204634809D01*
X145178380Y204634809D02*
X145226000Y204587190D01*
X145273619Y204634809D01*
X145226000Y204682428D01*
X145178380Y204634809D01*
X145273619Y204634809D01*
X145511714Y205111000D02*
X146178380Y205111000D01*
X145606952Y205111000D02*
X145559333Y205158619D01*
X145511714Y205253857D01*
X145511714Y205396714D01*
X145559333Y205491952D01*
X145654571Y205539571D01*
X146178380Y205539571D01*
X152780761Y206208619D02*
X152447428Y206684809D01*
X152209333Y206208619D02*
X152209333Y207208619D01*
X152590285Y207208619D01*
X152685523Y207161000D01*
X152733142Y207113380D01*
X152780761Y207018142D01*
X152780761Y206875285D01*
X152733142Y206780047D01*
X152685523Y206732428D01*
X152590285Y206684809D01*
X152209333Y206684809D01*
X153066476Y207208619D02*
X153399809Y206208619D01*
X153733142Y207208619D01*
X154018857Y207113380D02*
X154066476Y207161000D01*
X154161714Y207208619D01*
X154399809Y207208619D01*
X154495047Y207161000D01*
X154542666Y207113380D01*
X154590285Y207018142D01*
X154590285Y206922904D01*
X154542666Y206780047D01*
X153971238Y206208619D01*
X154590285Y206208619D01*
G04 #@! TO.C,J1*
X151677904Y183571238D02*
X151820761Y183523619D01*
X152058857Y183523619D01*
X152154095Y183571238D01*
X152201714Y183618857D01*
X152249333Y183714095D01*
X152249333Y183809333D01*
X152201714Y183904571D01*
X152154095Y183952190D01*
X152058857Y183999809D01*
X151868380Y184047428D01*
X151773142Y184095047D01*
X151725523Y184142666D01*
X151677904Y184237904D01*
X151677904Y184333142D01*
X151725523Y184428380D01*
X151773142Y184476000D01*
X151868380Y184523619D01*
X152106476Y184523619D01*
X152249333Y184476000D01*
X152868380Y183999809D02*
X152868380Y183523619D01*
X152535047Y184523619D02*
X152868380Y183999809D01*
X153201714Y184523619D01*
X153535047Y183523619D02*
X153535047Y184523619D01*
X154106476Y183523619D01*
X154106476Y184523619D01*
X155154095Y183618857D02*
X155106476Y183571238D01*
X154963619Y183523619D01*
X154868380Y183523619D01*
X154725523Y183571238D01*
X154630285Y183666476D01*
X154582666Y183761714D01*
X154535047Y183952190D01*
X154535047Y184095047D01*
X154582666Y184285523D01*
X154630285Y184380761D01*
X154725523Y184476000D01*
X154868380Y184523619D01*
X154963619Y184523619D01*
X155106476Y184476000D01*
X155154095Y184428380D01*
X153082666Y181523619D02*
X153082666Y180809333D01*
X153035047Y180666476D01*
X152939809Y180571238D01*
X152796952Y180523619D01*
X152701714Y180523619D01*
X154082666Y180523619D02*
X153511238Y180523619D01*
X153796952Y180523619D02*
X153796952Y181523619D01*
X153701714Y181380761D01*
X153606476Y181285523D01*
X153511238Y181237904D01*
G04 #@! TO.C,J2*
X152011238Y164854619D02*
X152011238Y165854619D01*
X152392190Y165854619D01*
X152487428Y165807000D01*
X152535047Y165759380D01*
X152582666Y165664142D01*
X152582666Y165521285D01*
X152535047Y165426047D01*
X152487428Y165378428D01*
X152392190Y165330809D01*
X152011238Y165330809D01*
X152916000Y165854619D02*
X153154095Y164854619D01*
X153344571Y165568904D01*
X153535047Y164854619D01*
X153773142Y165854619D01*
X154154095Y164854619D02*
X154154095Y165854619D01*
X154487428Y165140333D01*
X154820761Y165854619D01*
X154820761Y164854619D01*
X153082666Y162854619D02*
X153082666Y162140333D01*
X153035047Y161997476D01*
X152939809Y161902238D01*
X152796952Y161854619D01*
X152701714Y161854619D01*
X153511238Y162759380D02*
X153558857Y162807000D01*
X153654095Y162854619D01*
X153892190Y162854619D01*
X153987428Y162807000D01*
X154035047Y162759380D01*
X154082666Y162664142D01*
X154082666Y162568904D01*
X154035047Y162426047D01*
X153463619Y161854619D01*
X154082666Y161854619D01*
G04 #@! TO.C,J3*
X152264380Y103814619D02*
X152264380Y103338428D01*
X151264380Y103338428D01*
X152264380Y104147952D02*
X151264380Y104147952D01*
X152264380Y104624142D02*
X151264380Y104624142D01*
X152264380Y105195571D01*
X151264380Y105195571D01*
X154264380Y103933666D02*
X154978666Y103933666D01*
X155121523Y103886047D01*
X155216761Y103790809D01*
X155264380Y103647952D01*
X155264380Y103552714D01*
X154264380Y104314619D02*
X154264380Y104933666D01*
X154645333Y104600333D01*
X154645333Y104743190D01*
X154692952Y104838428D01*
X154740571Y104886047D01*
X154835809Y104933666D01*
X155073904Y104933666D01*
X155169142Y104886047D01*
X155216761Y104838428D01*
X155264380Y104743190D01*
X155264380Y104457476D01*
X155216761Y104362238D01*
X155169142Y104314619D01*
G04 #@! TO.C,J4*
X152169142Y142914761D02*
X152216761Y142867142D01*
X152264380Y142724285D01*
X152264380Y142629047D01*
X152216761Y142486190D01*
X152121523Y142390952D01*
X152026285Y142343333D01*
X151835809Y142295714D01*
X151692952Y142295714D01*
X151502476Y142343333D01*
X151407238Y142390952D01*
X151312000Y142486190D01*
X151264380Y142629047D01*
X151264380Y142724285D01*
X151312000Y142867142D01*
X151359619Y142914761D01*
X151264380Y143200476D02*
X152264380Y143533809D01*
X151264380Y143867142D01*
X152264380Y144724285D02*
X152264380Y144152857D01*
X152264380Y144438571D02*
X151264380Y144438571D01*
X151407238Y144343333D01*
X151502476Y144248095D01*
X151550095Y144152857D01*
X154264380Y143176666D02*
X154978666Y143176666D01*
X155121523Y143129047D01*
X155216761Y143033809D01*
X155264380Y142890952D01*
X155264380Y142795714D01*
X154597714Y144081428D02*
X155264380Y144081428D01*
X154216761Y143843333D02*
X154931047Y143605238D01*
X154931047Y144224285D01*
G04 #@! TO.C,J5*
X152169142Y129960761D02*
X152216761Y129913142D01*
X152264380Y129770285D01*
X152264380Y129675047D01*
X152216761Y129532190D01*
X152121523Y129436952D01*
X152026285Y129389333D01*
X151835809Y129341714D01*
X151692952Y129341714D01*
X151502476Y129389333D01*
X151407238Y129436952D01*
X151312000Y129532190D01*
X151264380Y129675047D01*
X151264380Y129770285D01*
X151312000Y129913142D01*
X151359619Y129960761D01*
X151264380Y130246476D02*
X152264380Y130579809D01*
X151264380Y130913142D01*
X151359619Y131198857D02*
X151312000Y131246476D01*
X151264380Y131341714D01*
X151264380Y131579809D01*
X151312000Y131675047D01*
X151359619Y131722666D01*
X151454857Y131770285D01*
X151550095Y131770285D01*
X151692952Y131722666D01*
X152264380Y131151238D01*
X152264380Y131770285D01*
X154264380Y130222666D02*
X154978666Y130222666D01*
X155121523Y130175047D01*
X155216761Y130079809D01*
X155264380Y129936952D01*
X155264380Y129841714D01*
X154264380Y131175047D02*
X154264380Y130698857D01*
X154740571Y130651238D01*
X154692952Y130698857D01*
X154645333Y130794095D01*
X154645333Y131032190D01*
X154692952Y131127428D01*
X154740571Y131175047D01*
X154835809Y131222666D01*
X155073904Y131222666D01*
X155169142Y131175047D01*
X155216761Y131127428D01*
X155264380Y131032190D01*
X155264380Y130794095D01*
X155216761Y130698857D01*
X155169142Y130651238D01*
G04 #@! TO.C,J6*
X152169142Y116752761D02*
X152216761Y116705142D01*
X152264380Y116562285D01*
X152264380Y116467047D01*
X152216761Y116324190D01*
X152121523Y116228952D01*
X152026285Y116181333D01*
X151835809Y116133714D01*
X151692952Y116133714D01*
X151502476Y116181333D01*
X151407238Y116228952D01*
X151312000Y116324190D01*
X151264380Y116467047D01*
X151264380Y116562285D01*
X151312000Y116705142D01*
X151359619Y116752761D01*
X151264380Y117038476D02*
X152264380Y117371809D01*
X151264380Y117705142D01*
X151264380Y117943238D02*
X151264380Y118562285D01*
X151645333Y118228952D01*
X151645333Y118371809D01*
X151692952Y118467047D01*
X151740571Y118514666D01*
X151835809Y118562285D01*
X152073904Y118562285D01*
X152169142Y118514666D01*
X152216761Y118467047D01*
X152264380Y118371809D01*
X152264380Y118086095D01*
X152216761Y117990857D01*
X152169142Y117943238D01*
X154264380Y117014666D02*
X154978666Y117014666D01*
X155121523Y116967047D01*
X155216761Y116871809D01*
X155264380Y116728952D01*
X155264380Y116633714D01*
X154264380Y117919428D02*
X154264380Y117728952D01*
X154312000Y117633714D01*
X154359619Y117586095D01*
X154502476Y117490857D01*
X154692952Y117443238D01*
X155073904Y117443238D01*
X155169142Y117490857D01*
X155216761Y117538476D01*
X155264380Y117633714D01*
X155264380Y117824190D01*
X155216761Y117919428D01*
X155169142Y117967047D01*
X155073904Y118014666D01*
X154835809Y118014666D01*
X154740571Y117967047D01*
X154692952Y117919428D01*
X154645333Y117824190D01*
X154645333Y117633714D01*
X154692952Y117538476D01*
X154740571Y117490857D01*
X154835809Y117443238D01*
G04 #@! TO.C,J7*
X173966761Y103346380D02*
X174014380Y103489238D01*
X174014380Y103727333D01*
X173966761Y103822571D01*
X173919142Y103870190D01*
X173823904Y103917809D01*
X173728666Y103917809D01*
X173633428Y103870190D01*
X173585809Y103822571D01*
X173538190Y103727333D01*
X173490571Y103536857D01*
X173442952Y103441619D01*
X173395333Y103394000D01*
X173300095Y103346380D01*
X173204857Y103346380D01*
X173109619Y103394000D01*
X173062000Y103441619D01*
X173014380Y103536857D01*
X173014380Y103774952D01*
X173062000Y103917809D01*
X174014380Y104346380D02*
X173014380Y104346380D01*
X174014380Y104822571D02*
X173014380Y104822571D01*
X174014380Y105394000D01*
X173014380Y105394000D01*
X170014380Y104060666D02*
X170728666Y104060666D01*
X170871523Y104013047D01*
X170966761Y103917809D01*
X171014380Y103774952D01*
X171014380Y103679714D01*
X170014380Y104441619D02*
X170014380Y105108285D01*
X171014380Y104679714D01*
G04 #@! TO.C,J8*
X173014380Y116324190D02*
X173014380Y116895619D01*
X174014380Y116609904D02*
X173014380Y116609904D01*
X174014380Y117800380D02*
X173538190Y117467047D01*
X174014380Y117228952D02*
X173014380Y117228952D01*
X173014380Y117609904D01*
X173062000Y117705142D01*
X173109619Y117752761D01*
X173204857Y117800380D01*
X173347714Y117800380D01*
X173442952Y117752761D01*
X173490571Y117705142D01*
X173538190Y117609904D01*
X173538190Y117228952D01*
X174014380Y118228952D02*
X173014380Y118228952D01*
X170014380Y117014666D02*
X170728666Y117014666D01*
X170871523Y116967047D01*
X170966761Y116871809D01*
X171014380Y116728952D01*
X171014380Y116633714D01*
X170442952Y117633714D02*
X170395333Y117538476D01*
X170347714Y117490857D01*
X170252476Y117443238D01*
X170204857Y117443238D01*
X170109619Y117490857D01*
X170062000Y117538476D01*
X170014380Y117633714D01*
X170014380Y117824190D01*
X170062000Y117919428D01*
X170109619Y117967047D01*
X170204857Y118014666D01*
X170252476Y118014666D01*
X170347714Y117967047D01*
X170395333Y117919428D01*
X170442952Y117824190D01*
X170442952Y117633714D01*
X170490571Y117538476D01*
X170538190Y117490857D01*
X170633428Y117443238D01*
X170823904Y117443238D01*
X170919142Y117490857D01*
X170966761Y117538476D01*
X171014380Y117633714D01*
X171014380Y117824190D01*
X170966761Y117919428D01*
X170919142Y117967047D01*
X170823904Y118014666D01*
X170633428Y118014666D01*
X170538190Y117967047D01*
X170490571Y117919428D01*
X170442952Y117824190D01*
G04 #@! TO.C,J10*
X173966761Y142200476D02*
X174014380Y142343333D01*
X174014380Y142581428D01*
X173966761Y142676666D01*
X173919142Y142724285D01*
X173823904Y142771904D01*
X173728666Y142771904D01*
X173633428Y142724285D01*
X173585809Y142676666D01*
X173538190Y142581428D01*
X173490571Y142390952D01*
X173442952Y142295714D01*
X173395333Y142248095D01*
X173300095Y142200476D01*
X173204857Y142200476D01*
X173109619Y142248095D01*
X173062000Y142295714D01*
X173014380Y142390952D01*
X173014380Y142629047D01*
X173062000Y142771904D01*
X174109619Y143867142D02*
X174062000Y143771904D01*
X173966761Y143676666D01*
X173823904Y143533809D01*
X173776285Y143438571D01*
X173776285Y143343333D01*
X174014380Y143390952D02*
X173966761Y143295714D01*
X173871523Y143200476D01*
X173681047Y143152857D01*
X173347714Y143152857D01*
X173157238Y143200476D01*
X173062000Y143295714D01*
X173014380Y143390952D01*
X173014380Y143581428D01*
X173062000Y143676666D01*
X173157238Y143771904D01*
X173347714Y143819523D01*
X173681047Y143819523D01*
X173871523Y143771904D01*
X173966761Y143676666D01*
X174014380Y143581428D01*
X174014380Y143390952D01*
X174014380Y144819523D02*
X173538190Y144486190D01*
X174014380Y144248095D02*
X173014380Y144248095D01*
X173014380Y144629047D01*
X173062000Y144724285D01*
X173109619Y144771904D01*
X173204857Y144819523D01*
X173347714Y144819523D01*
X173442952Y144771904D01*
X173490571Y144724285D01*
X173538190Y144629047D01*
X173538190Y144248095D01*
X170014380Y142700476D02*
X170728666Y142700476D01*
X170871523Y142652857D01*
X170966761Y142557619D01*
X171014380Y142414761D01*
X171014380Y142319523D01*
X171014380Y143700476D02*
X171014380Y143129047D01*
X171014380Y143414761D02*
X170014380Y143414761D01*
X170157238Y143319523D01*
X170252476Y143224285D01*
X170300095Y143129047D01*
X170014380Y144319523D02*
X170014380Y144414761D01*
X170062000Y144510000D01*
X170109619Y144557619D01*
X170204857Y144605238D01*
X170395333Y144652857D01*
X170633428Y144652857D01*
X170823904Y144605238D01*
X170919142Y144557619D01*
X170966761Y144510000D01*
X171014380Y144414761D01*
X171014380Y144319523D01*
X170966761Y144224285D01*
X170919142Y144176666D01*
X170823904Y144129047D01*
X170633428Y144081428D01*
X170395333Y144081428D01*
X170204857Y144129047D01*
X170109619Y144176666D01*
X170062000Y144224285D01*
X170014380Y144319523D01*
G04 #@! TD*
M02*
