M48
;DRILL file {KiCad (5.0.1)-4} date 3/5/2019 1:35:23
;FORMAT={-:-/ absolute / inch / decimal}
FMAT,2
INCH,TZ
T1C0.0079
T2C0.0197
T3C0.0236
T4C0.0295
T5C0.0315
T6C0.0394
T7C0.0400
T8C0.0433
%
G90
G05
M72
T1
X5.725Y7.035
X5.725Y5.55
X5.8864Y5.775
X5.89Y5.395
X5.94Y7.525
X5.96Y7.925
X5.985Y5.825
X5.985Y5.735
X6.04Y7.86
X6.04Y5.46
X6.04Y5.375
X6.04Y5.315
X6.0742Y7.5264
X6.075Y5.81
X6.0799Y5.8899
X6.1283Y6.1247
X6.205Y5.27
X6.22Y6.125
X6.23Y5.76
X6.24Y6.41
X6.295Y7.225
X6.2967Y5.007
X6.2967Y4.7877
X6.3Y6.335
X6.3Y5.975
X6.31Y7.83
X6.31Y3.965
X6.3147Y5.9116
X6.32Y6.97
X6.365Y4.3236
X6.395Y4.3
X6.405Y7.85
X6.405Y7.79
X6.423Y7.6099
X6.425Y7.23
X6.425Y5.52
X6.455Y5.21
X6.4597Y7.6453
X6.49Y7.22
X6.49Y4.51
X6.5035Y7.7487
X6.505Y4.59
X6.507Y7.968
X6.53Y7.105
X6.54Y7.565
X6.58Y7.295
X6.58Y5.805
X6.6033Y6.5303
X6.6372Y5.6689
X6.6372Y4.6507
X6.6399Y5.8899
X6.65Y4.405
X6.66Y4.25
X6.6939Y7.7167
X6.7Y5.805
X6.715Y7.03
X6.7225Y7.9025
X6.735Y7.565
X6.745Y7.42
X6.795Y6.36
X6.855Y5.86
X6.915Y7.815
X6.94Y6.36
X6.955Y7.695
T4
X6.32Y5.38
X6.37Y5.43
X6.37Y5.33
T5
X6.965Y6.855
X6.965Y6.755
X6.965Y6.655
X6.206Y4.9047
X6.606Y4.9047
X6.23Y7.14
X6.33Y7.14
X6.43Y7.14
X6.045Y4.98
X6.045Y4.88
X6.045Y4.78
X6.22Y6.535
X6.32Y6.535
X6.42Y6.535
X6.965Y7.255
X6.965Y7.155
X6.965Y7.055
X6.305Y8.105
X6.405Y8.105
X6.505Y8.105
X6.765Y4.98
X6.765Y4.88
X6.765Y4.78
T6
X6.67Y8.215
X6.7684Y8.215
X6.8669Y8.215
X5.94Y8.215
X6.0384Y8.215
X6.1369Y8.215
X6.6731Y6.16
X6.7716Y6.16
X6.87Y6.16
T7
X5.9Y7.74
X5.9Y7.64
X6.Y7.74
X6.Y7.64
X6.1Y7.74
X6.1Y7.64
X6.2Y7.74
X6.2Y7.64
X6.3Y7.74
X6.3Y7.64
T2
X6.5812Y5.6303G85X6.5812Y5.6697
G05
X6.5812Y5.1203G85X6.5812Y5.1597
G05
X6.0597Y6.2562G85X6.0203Y6.2562
G05
X6.2288Y5.6697G85X6.2288Y5.6303
G05
X6.2288Y4.6397G85X6.2288Y4.6003
G05
X6.5812Y4.6003G85X6.5812Y4.6397
G05
X6.0597Y6.9912G85X6.0203Y6.9912
G05
X6.2288Y4.1247G85X6.2288Y4.0853
G05
X6.2288Y5.1597G85X6.2288Y5.1203
G05
X6.5812Y4.0903G85X6.5812Y4.1297
G05
T3
X6.908Y4.0923G85X6.908Y4.1277
G05
X7.03Y4.0962G85X7.03Y4.1238
G05
X6.908Y5.6323G85X6.908Y5.6677
G05
X7.03Y5.6362G85X7.03Y5.6638
G05
X6.908Y5.1223G85X6.908Y5.1577
G05
X7.03Y5.1262G85X7.03Y5.1538
G05
X6.0538Y6.705G85X6.0262Y6.705
G05
X6.0577Y6.583G85X6.0223Y6.583
G05
X5.78Y5.6638G85X5.78Y5.6362
G05
X5.902Y5.6677G85X5.902Y5.6323
G05
X5.78Y4.6338G85X5.78Y4.6062
G05
X5.902Y4.6377G85X5.902Y4.6023
G05
X6.908Y4.6023G85X6.908Y4.6377
G05
X7.03Y4.6062G85X7.03Y4.6338
G05
X6.0538Y7.44G85X6.0262Y7.44
G05
X6.0577Y7.318G85X6.0223Y7.318
G05
X5.78Y4.1188G85X5.78Y4.0912
G05
X5.902Y4.1227G85X5.902Y4.0873
G05
X5.78Y5.1538G85X5.78Y5.1262
G05
X5.902Y5.1577G85X5.902Y5.1223
G05
T8
X6.5657Y7.9335G85X6.5657Y7.9059
G05
X6.9712Y7.9335G85X6.9712Y7.9059
G05
X5.8357Y7.9335G85X5.8357Y7.9059
G05
X6.2412Y7.9335G85X6.2412Y7.9059
G05
X6.5688Y6.4415G85X6.5688Y6.4691
G05
X6.9743Y6.4415G85X6.9743Y6.4691
G05
T0
M30
