G04 #@! TF.GenerationSoftware,KiCad,Pcbnew,(5.0.1)-4*
G04 #@! TF.CreationDate,2019-03-05T01:35:27-06:00*
G04 #@! TF.ProjectId,VCO,56434F2E6B696361645F706362000000,rev?*
G04 #@! TF.SameCoordinates,Original*
G04 #@! TF.FileFunction,Soldermask,Top*
G04 #@! TF.FilePolarity,Negative*
%FSLAX46Y46*%
G04 Gerber Fmt 4.6, Leading zero omitted, Abs format (unit mm)*
G04 Created by KiCad (PCBNEW (5.0.1)-4) date 3/5/2019 1:35:27*
%MOMM*%
%LPD*%
G01*
G04 APERTURE LIST*
%ADD10C,0.100000*%
G04 APERTURE END LIST*
D10*
G36*
X158261074Y105566800D02*
X158359222Y105557133D01*
X158500786Y105514190D01*
X158631252Y105444454D01*
X158745606Y105350606D01*
X158839454Y105236252D01*
X158909190Y105105786D01*
X158952133Y104964222D01*
X158963000Y104853887D01*
X158963000Y103680113D01*
X158952133Y103569778D01*
X158909190Y103428214D01*
X158839455Y103297749D01*
X158839453Y103297747D01*
X158745606Y103183394D01*
X158631253Y103089547D01*
X158631251Y103089546D01*
X158500785Y103019810D01*
X158359221Y102976867D01*
X158212000Y102962367D01*
X158211999Y102962367D01*
X158162926Y102967200D01*
X158064778Y102976867D01*
X157923214Y103019810D01*
X157792748Y103089546D01*
X157678394Y103183394D01*
X157625485Y103247864D01*
X157584547Y103297747D01*
X157514810Y103428215D01*
X157471867Y103569779D01*
X157464622Y103643336D01*
X157461000Y103680113D01*
X157461001Y104853888D01*
X157471868Y104964220D01*
X157471868Y104964222D01*
X157514811Y105105786D01*
X157584547Y105236252D01*
X157678395Y105350606D01*
X157792749Y105444454D01*
X157923215Y105514190D01*
X158064779Y105557133D01*
X158212000Y105571633D01*
X158212001Y105571633D01*
X158261074Y105566800D01*
X158261074Y105566800D01*
G37*
G36*
X150069025Y105506410D02*
X150220012Y105460608D01*
X150359165Y105386230D01*
X150481133Y105286133D01*
X150581230Y105164165D01*
X150655608Y105025012D01*
X150701410Y104874025D01*
X150713000Y104756346D01*
X150713000Y103777654D01*
X150701410Y103659975D01*
X150655608Y103508988D01*
X150581230Y103369835D01*
X150481136Y103247870D01*
X150481134Y103247869D01*
X150481133Y103247867D01*
X150423284Y103200392D01*
X150359161Y103147768D01*
X150220011Y103073392D01*
X150069024Y103027590D01*
X149912000Y103012125D01*
X149754975Y103027590D01*
X149603988Y103073392D01*
X149464835Y103147770D01*
X149342870Y103247864D01*
X149342869Y103247866D01*
X149342867Y103247867D01*
X149291553Y103310394D01*
X149242768Y103369839D01*
X149168392Y103508989D01*
X149122590Y103659976D01*
X149111000Y103777655D01*
X149111000Y104756345D01*
X149122591Y104874025D01*
X149168393Y105025012D01*
X149242771Y105164165D01*
X149342868Y105286133D01*
X149464836Y105386230D01*
X149603989Y105460608D01*
X149754976Y105506410D01*
X149912000Y105521875D01*
X150069025Y105506410D01*
X150069025Y105506410D01*
G37*
G36*
X167309221Y105684133D02*
X167425451Y105648875D01*
X167450785Y105641190D01*
X167581253Y105571453D01*
X167652198Y105513230D01*
X167695606Y105477606D01*
X167789454Y105363252D01*
X167859190Y105232786D01*
X167902133Y105091222D01*
X167913000Y104980887D01*
X167913000Y103807113D01*
X167902133Y103696778D01*
X167859190Y103555214D01*
X167789454Y103424748D01*
X167695606Y103310394D01*
X167581252Y103216546D01*
X167450786Y103146810D01*
X167309222Y103103867D01*
X167211074Y103094200D01*
X167162001Y103089367D01*
X167162000Y103089367D01*
X167014779Y103103867D01*
X166873215Y103146810D01*
X166742749Y103216546D01*
X166628395Y103310394D01*
X166534547Y103424748D01*
X166464811Y103555214D01*
X166421868Y103696778D01*
X166411001Y103807113D01*
X166411000Y104980886D01*
X166412984Y105001025D01*
X166421867Y105091219D01*
X166421867Y105091221D01*
X166464810Y105232785D01*
X166534546Y105363251D01*
X166534547Y105363253D01*
X166628394Y105477606D01*
X166742747Y105571453D01*
X166742746Y105571453D01*
X166742748Y105571454D01*
X166873214Y105641190D01*
X167014778Y105684133D01*
X167112926Y105693800D01*
X167161999Y105698633D01*
X167162000Y105698633D01*
X167309221Y105684133D01*
X167309221Y105684133D01*
G37*
G36*
X147613000Y103116000D02*
X146011000Y103116000D01*
X146011000Y105418000D01*
X147613000Y105418000D01*
X147613000Y103116000D01*
X147613000Y103116000D01*
G37*
G36*
X175619024Y105633410D02*
X175770011Y105587608D01*
X175909161Y105513232D01*
X175970149Y105463181D01*
X176031133Y105413133D01*
X176031134Y105413131D01*
X176031136Y105413130D01*
X176131230Y105291165D01*
X176205608Y105152012D01*
X176251410Y105001025D01*
X176263000Y104883346D01*
X176263000Y103904654D01*
X176251410Y103786975D01*
X176205608Y103635988D01*
X176131230Y103496835D01*
X176031133Y103374867D01*
X175909165Y103274770D01*
X175770012Y103200392D01*
X175619025Y103154590D01*
X175462000Y103139125D01*
X175304976Y103154590D01*
X175153989Y103200392D01*
X175014836Y103274770D01*
X174892868Y103374867D01*
X174792771Y103496835D01*
X174718393Y103635988D01*
X174672591Y103786975D01*
X174661000Y103904655D01*
X174661000Y104883345D01*
X174672590Y105001024D01*
X174718392Y105152011D01*
X174792768Y105291161D01*
X174842819Y105352149D01*
X174892867Y105413133D01*
X174892869Y105413134D01*
X174892870Y105413136D01*
X175014835Y105513230D01*
X175153988Y105587608D01*
X175304975Y105633410D01*
X175462000Y105648875D01*
X175619024Y105633410D01*
X175619024Y105633410D01*
G37*
G36*
X179363000Y103243000D02*
X177761000Y103243000D01*
X177761000Y105545000D01*
X179363000Y105545000D01*
X179363000Y103243000D01*
X179363000Y103243000D01*
G37*
G36*
X158261074Y118647800D02*
X158359222Y118638133D01*
X158500786Y118595190D01*
X158631252Y118525454D01*
X158745606Y118431606D01*
X158839454Y118317252D01*
X158909190Y118186786D01*
X158952133Y118045222D01*
X158963000Y117934887D01*
X158963000Y116761113D01*
X158952133Y116650778D01*
X158909190Y116509214D01*
X158839455Y116378749D01*
X158839453Y116378747D01*
X158745606Y116264394D01*
X158631253Y116170547D01*
X158631251Y116170546D01*
X158500785Y116100810D01*
X158359221Y116057867D01*
X158212000Y116043367D01*
X158211999Y116043367D01*
X158162926Y116048200D01*
X158064778Y116057867D01*
X157923214Y116100810D01*
X157792748Y116170546D01*
X157678394Y116264394D01*
X157625485Y116328864D01*
X157584547Y116378747D01*
X157514810Y116509215D01*
X157490308Y116589988D01*
X157471867Y116650779D01*
X157464622Y116724336D01*
X157461000Y116761113D01*
X157461001Y117934888D01*
X157471868Y118045220D01*
X157471868Y118045222D01*
X157514811Y118186786D01*
X157584547Y118317252D01*
X157678395Y118431606D01*
X157792749Y118525454D01*
X157923215Y118595190D01*
X158064779Y118638133D01*
X158212000Y118652633D01*
X158212001Y118652633D01*
X158261074Y118647800D01*
X158261074Y118647800D01*
G37*
G36*
X167309221Y118638133D02*
X167425451Y118602875D01*
X167450785Y118595190D01*
X167581253Y118525453D01*
X167652198Y118467230D01*
X167695606Y118431606D01*
X167789454Y118317252D01*
X167859190Y118186786D01*
X167902133Y118045222D01*
X167913000Y117934887D01*
X167913000Y116761113D01*
X167902133Y116650778D01*
X167859190Y116509214D01*
X167789454Y116378748D01*
X167695606Y116264394D01*
X167581252Y116170546D01*
X167450786Y116100810D01*
X167309222Y116057867D01*
X167211074Y116048200D01*
X167162001Y116043367D01*
X167162000Y116043367D01*
X167014779Y116057867D01*
X166873215Y116100810D01*
X166742749Y116170546D01*
X166628395Y116264394D01*
X166534547Y116378748D01*
X166464811Y116509214D01*
X166421868Y116650778D01*
X166411001Y116761113D01*
X166411000Y117934886D01*
X166412984Y117955025D01*
X166421867Y118045219D01*
X166421867Y118045221D01*
X166464810Y118186785D01*
X166534546Y118317251D01*
X166534547Y118317253D01*
X166628394Y118431606D01*
X166742747Y118525453D01*
X166742746Y118525453D01*
X166742748Y118525454D01*
X166873214Y118595190D01*
X167014778Y118638133D01*
X167112926Y118647800D01*
X167161999Y118652633D01*
X167162000Y118652633D01*
X167309221Y118638133D01*
X167309221Y118638133D01*
G37*
G36*
X150069025Y118587410D02*
X150220012Y118541608D01*
X150359165Y118467230D01*
X150481133Y118367133D01*
X150581230Y118245165D01*
X150655608Y118106012D01*
X150701410Y117955025D01*
X150713000Y117837346D01*
X150713000Y116858654D01*
X150701410Y116740975D01*
X150655608Y116589988D01*
X150581230Y116450835D01*
X150481136Y116328870D01*
X150481134Y116328869D01*
X150481133Y116328867D01*
X150481129Y116328864D01*
X150359161Y116228768D01*
X150220011Y116154392D01*
X150069024Y116108590D01*
X149912000Y116093125D01*
X149754975Y116108590D01*
X149603988Y116154392D01*
X149464835Y116228770D01*
X149342870Y116328864D01*
X149342869Y116328866D01*
X149342867Y116328867D01*
X149292819Y116389852D01*
X149242768Y116450839D01*
X149168392Y116589989D01*
X149122590Y116740976D01*
X149111000Y116858655D01*
X149111000Y117837345D01*
X149122591Y117955025D01*
X149168393Y118106012D01*
X149242771Y118245165D01*
X149342868Y118367133D01*
X149464836Y118467230D01*
X149603989Y118541608D01*
X149754976Y118587410D01*
X149912000Y118602875D01*
X150069025Y118587410D01*
X150069025Y118587410D01*
G37*
G36*
X175619024Y118587410D02*
X175770011Y118541608D01*
X175909161Y118467232D01*
X175970149Y118417181D01*
X176031133Y118367133D01*
X176031134Y118367131D01*
X176031136Y118367130D01*
X176131230Y118245165D01*
X176205608Y118106012D01*
X176251410Y117955025D01*
X176263000Y117837346D01*
X176263000Y116858654D01*
X176251410Y116740975D01*
X176205608Y116589988D01*
X176131230Y116450835D01*
X176031133Y116328867D01*
X175909165Y116228770D01*
X175770012Y116154392D01*
X175619025Y116108590D01*
X175462000Y116093125D01*
X175304976Y116108590D01*
X175153989Y116154392D01*
X175014836Y116228770D01*
X174892868Y116328867D01*
X174792771Y116450835D01*
X174718393Y116589988D01*
X174672591Y116740975D01*
X174661000Y116858655D01*
X174661000Y117837345D01*
X174672590Y117955024D01*
X174718392Y118106011D01*
X174792768Y118245161D01*
X174842819Y118306149D01*
X174892867Y118367133D01*
X174892869Y118367134D01*
X174892870Y118367136D01*
X175014835Y118467230D01*
X175153988Y118541608D01*
X175304975Y118587410D01*
X175462000Y118602875D01*
X175619024Y118587410D01*
X175619024Y118587410D01*
G37*
G36*
X147613000Y116197000D02*
X146011000Y116197000D01*
X146011000Y118499000D01*
X147613000Y118499000D01*
X147613000Y116197000D01*
X147613000Y116197000D01*
G37*
G36*
X179363000Y116197000D02*
X177761000Y116197000D01*
X177761000Y118499000D01*
X179363000Y118499000D01*
X179363000Y116197000D01*
X179363000Y116197000D01*
G37*
G36*
X153668589Y122173124D02*
X153767893Y122153371D01*
X153908206Y122095252D01*
X154034484Y122010875D01*
X154141875Y121903484D01*
X154226252Y121777206D01*
X154284371Y121636893D01*
X154314000Y121487937D01*
X154314000Y121336063D01*
X154284371Y121187107D01*
X154226252Y121046794D01*
X154141875Y120920516D01*
X154034484Y120813125D01*
X153908206Y120728748D01*
X153767893Y120670629D01*
X153668589Y120650876D01*
X153618938Y120641000D01*
X153467062Y120641000D01*
X153417411Y120650876D01*
X153318107Y120670629D01*
X153177794Y120728748D01*
X153051516Y120813125D01*
X152944125Y120920516D01*
X152859748Y121046794D01*
X152801629Y121187107D01*
X152772000Y121336063D01*
X152772000Y121487937D01*
X152801629Y121636893D01*
X152859748Y121777206D01*
X152944125Y121903484D01*
X153051516Y122010875D01*
X153177794Y122095252D01*
X153318107Y122153371D01*
X153417411Y122173124D01*
X153467062Y122183000D01*
X153618938Y122183000D01*
X153668589Y122173124D01*
X153668589Y122173124D01*
G37*
G36*
X171956589Y122173124D02*
X172055893Y122153371D01*
X172196206Y122095252D01*
X172322484Y122010875D01*
X172429875Y121903484D01*
X172514252Y121777206D01*
X172572371Y121636893D01*
X172602000Y121487937D01*
X172602000Y121336063D01*
X172572371Y121187107D01*
X172514252Y121046794D01*
X172429875Y120920516D01*
X172322484Y120813125D01*
X172196206Y120728748D01*
X172055893Y120670629D01*
X171956589Y120650876D01*
X171906938Y120641000D01*
X171755062Y120641000D01*
X171705411Y120650876D01*
X171606107Y120670629D01*
X171465794Y120728748D01*
X171339516Y120813125D01*
X171232125Y120920516D01*
X171147748Y121046794D01*
X171089629Y121187107D01*
X171060000Y121336063D01*
X171060000Y121487937D01*
X171089629Y121636893D01*
X171147748Y121777206D01*
X171232125Y121903484D01*
X171339516Y122010875D01*
X171465794Y122095252D01*
X171606107Y122153371D01*
X171705411Y122173124D01*
X171755062Y122183000D01*
X171906938Y122183000D01*
X171956589Y122173124D01*
X171956589Y122173124D01*
G37*
G36*
X171956589Y124713124D02*
X172055893Y124693371D01*
X172196206Y124635252D01*
X172322484Y124550875D01*
X172429875Y124443484D01*
X172514252Y124317206D01*
X172572371Y124176893D01*
X172602000Y124027937D01*
X172602000Y123876063D01*
X172572371Y123727107D01*
X172514252Y123586794D01*
X172429875Y123460516D01*
X172322484Y123353125D01*
X172196206Y123268748D01*
X172055893Y123210629D01*
X171956589Y123190876D01*
X171906938Y123181000D01*
X171755062Y123181000D01*
X171705411Y123190876D01*
X171606107Y123210629D01*
X171465794Y123268748D01*
X171339516Y123353125D01*
X171232125Y123460516D01*
X171147748Y123586794D01*
X171089629Y123727107D01*
X171060000Y123876063D01*
X171060000Y124027937D01*
X171089629Y124176893D01*
X171147748Y124317206D01*
X171232125Y124443484D01*
X171339516Y124550875D01*
X171465794Y124635252D01*
X171606107Y124693371D01*
X171705411Y124713124D01*
X171755062Y124723000D01*
X171906938Y124723000D01*
X171956589Y124713124D01*
X171956589Y124713124D01*
G37*
G36*
X153668589Y124713124D02*
X153767893Y124693371D01*
X153908206Y124635252D01*
X154034484Y124550875D01*
X154141875Y124443484D01*
X154226252Y124317206D01*
X154284371Y124176893D01*
X154314000Y124027937D01*
X154314000Y123876063D01*
X154284371Y123727107D01*
X154226252Y123586794D01*
X154141875Y123460516D01*
X154034484Y123353125D01*
X153908206Y123268748D01*
X153767893Y123210629D01*
X153668589Y123190876D01*
X153618938Y123181000D01*
X153467062Y123181000D01*
X153417411Y123190876D01*
X153318107Y123210629D01*
X153177794Y123268748D01*
X153051516Y123353125D01*
X152944125Y123460516D01*
X152859748Y123586794D01*
X152801629Y123727107D01*
X152772000Y123876063D01*
X152772000Y124027937D01*
X152801629Y124176893D01*
X152859748Y124317206D01*
X152944125Y124443484D01*
X153051516Y124550875D01*
X153177794Y124635252D01*
X153318107Y124693371D01*
X153417411Y124713124D01*
X153467062Y124723000D01*
X153618938Y124723000D01*
X153668589Y124713124D01*
X153668589Y124713124D01*
G37*
G36*
X167959693Y125417339D02*
X167959696Y125417338D01*
X167959697Y125417338D01*
X168120111Y125368677D01*
X168120113Y125368676D01*
X168120116Y125368675D01*
X168267950Y125289657D01*
X168397531Y125183311D01*
X168503877Y125053730D01*
X168582895Y124905896D01*
X168582896Y124905893D01*
X168582897Y124905891D01*
X168631558Y124745477D01*
X168631559Y124745473D01*
X168647989Y124578652D01*
X168631559Y124411831D01*
X168631558Y124411828D01*
X168631558Y124411827D01*
X168606865Y124330424D01*
X168582895Y124251408D01*
X168503877Y124103574D01*
X168397531Y123973993D01*
X168267950Y123867647D01*
X168120116Y123788629D01*
X168120113Y123788628D01*
X168120111Y123788627D01*
X167959697Y123739966D01*
X167959696Y123739966D01*
X167959693Y123739965D01*
X167834676Y123727652D01*
X167751068Y123727652D01*
X167626051Y123739965D01*
X167626048Y123739966D01*
X167626047Y123739966D01*
X167465633Y123788627D01*
X167465631Y123788628D01*
X167465628Y123788629D01*
X167317794Y123867647D01*
X167188213Y123973993D01*
X167081867Y124103574D01*
X167002849Y124251408D01*
X166978880Y124330424D01*
X166954186Y124411827D01*
X166954186Y124411828D01*
X166954185Y124411831D01*
X166937755Y124578652D01*
X166954185Y124745473D01*
X166954186Y124745477D01*
X167002847Y124905891D01*
X167002848Y124905893D01*
X167002849Y124905896D01*
X167081867Y125053730D01*
X167188213Y125183311D01*
X167317794Y125289657D01*
X167465628Y125368675D01*
X167465631Y125368676D01*
X167465633Y125368677D01*
X167626047Y125417338D01*
X167626048Y125417338D01*
X167626051Y125417339D01*
X167751068Y125429652D01*
X167834676Y125429652D01*
X167959693Y125417339D01*
X167959693Y125417339D01*
G37*
G36*
X157881100Y125396949D02*
X158035972Y125332799D01*
X158175353Y125239667D01*
X158293887Y125121133D01*
X158387019Y124981752D01*
X158451169Y124826880D01*
X158483872Y124662468D01*
X158483872Y124494836D01*
X158451169Y124330424D01*
X158387019Y124175552D01*
X158293887Y124036171D01*
X158175353Y123917637D01*
X158035972Y123824505D01*
X157881100Y123760355D01*
X157716688Y123727652D01*
X157549056Y123727652D01*
X157384644Y123760355D01*
X157229772Y123824505D01*
X157090391Y123917637D01*
X156971857Y124036171D01*
X156878725Y124175552D01*
X156814575Y124330424D01*
X156781872Y124494836D01*
X156781872Y124662468D01*
X156814575Y124826880D01*
X156878725Y124981752D01*
X156971857Y125121133D01*
X157090391Y125239667D01*
X157229772Y125332799D01*
X157384644Y125396949D01*
X157549056Y125429652D01*
X157716688Y125429652D01*
X157881100Y125396949D01*
X157881100Y125396949D01*
G37*
G36*
X171956589Y127253124D02*
X172055893Y127233371D01*
X172196206Y127175252D01*
X172322484Y127090875D01*
X172429875Y126983484D01*
X172514252Y126857206D01*
X172572371Y126716893D01*
X172602000Y126567937D01*
X172602000Y126416063D01*
X172572371Y126267107D01*
X172514252Y126126794D01*
X172429875Y126000516D01*
X172322484Y125893125D01*
X172196206Y125808748D01*
X172055893Y125750629D01*
X171956589Y125730876D01*
X171906938Y125721000D01*
X171755062Y125721000D01*
X171705411Y125730876D01*
X171606107Y125750629D01*
X171465794Y125808748D01*
X171339516Y125893125D01*
X171232125Y126000516D01*
X171147748Y126126794D01*
X171089629Y126267107D01*
X171060000Y126416063D01*
X171060000Y126567937D01*
X171089629Y126716893D01*
X171147748Y126857206D01*
X171232125Y126983484D01*
X171339516Y127090875D01*
X171465794Y127175252D01*
X171606107Y127233371D01*
X171705411Y127253124D01*
X171755062Y127263000D01*
X171906938Y127263000D01*
X171956589Y127253124D01*
X171956589Y127253124D01*
G37*
G36*
X153668589Y127253124D02*
X153767893Y127233371D01*
X153908206Y127175252D01*
X154034484Y127090875D01*
X154141875Y126983484D01*
X154226252Y126857206D01*
X154284371Y126716893D01*
X154314000Y126567937D01*
X154314000Y126416063D01*
X154284371Y126267107D01*
X154226252Y126126794D01*
X154141875Y126000516D01*
X154034484Y125893125D01*
X153908206Y125808748D01*
X153767893Y125750629D01*
X153668589Y125730876D01*
X153618938Y125721000D01*
X153467062Y125721000D01*
X153417411Y125730876D01*
X153318107Y125750629D01*
X153177794Y125808748D01*
X153051516Y125893125D01*
X152944125Y126000516D01*
X152859748Y126126794D01*
X152801629Y126267107D01*
X152772000Y126416063D01*
X152772000Y126567937D01*
X152801629Y126716893D01*
X152859748Y126857206D01*
X152944125Y126983484D01*
X153051516Y127090875D01*
X153177794Y127175252D01*
X153318107Y127233371D01*
X153417411Y127253124D01*
X153467062Y127263000D01*
X153618938Y127263000D01*
X153668589Y127253124D01*
X153668589Y127253124D01*
G37*
G36*
X167309221Y131846133D02*
X167425451Y131810875D01*
X167450785Y131803190D01*
X167581253Y131733453D01*
X167652198Y131675230D01*
X167695606Y131639606D01*
X167789454Y131525252D01*
X167859190Y131394786D01*
X167902133Y131253222D01*
X167913000Y131142887D01*
X167913000Y129969113D01*
X167902133Y129858778D01*
X167859190Y129717214D01*
X167789454Y129586748D01*
X167695606Y129472394D01*
X167581252Y129378546D01*
X167450786Y129308810D01*
X167309222Y129265867D01*
X167211074Y129256200D01*
X167162001Y129251367D01*
X167162000Y129251367D01*
X167014779Y129265867D01*
X166873215Y129308810D01*
X166742749Y129378546D01*
X166628395Y129472394D01*
X166534547Y129586748D01*
X166464811Y129717214D01*
X166421868Y129858778D01*
X166411001Y129969113D01*
X166411000Y131142886D01*
X166412984Y131163025D01*
X166421867Y131253219D01*
X166421867Y131253221D01*
X166464810Y131394785D01*
X166534546Y131525251D01*
X166534547Y131525253D01*
X166628394Y131639606D01*
X166742747Y131733453D01*
X166742746Y131733453D01*
X166742748Y131733454D01*
X166873214Y131803190D01*
X167014778Y131846133D01*
X167112926Y131855800D01*
X167161999Y131860633D01*
X167162000Y131860633D01*
X167309221Y131846133D01*
X167309221Y131846133D01*
G37*
G36*
X158261074Y131855800D02*
X158359222Y131846133D01*
X158500786Y131803190D01*
X158631252Y131733454D01*
X158745606Y131639606D01*
X158839454Y131525252D01*
X158909190Y131394786D01*
X158952133Y131253222D01*
X158963000Y131142887D01*
X158963000Y129969113D01*
X158952133Y129858778D01*
X158909190Y129717214D01*
X158839455Y129586749D01*
X158839453Y129586747D01*
X158745606Y129472394D01*
X158631253Y129378547D01*
X158631251Y129378546D01*
X158500785Y129308810D01*
X158359221Y129265867D01*
X158212000Y129251367D01*
X158211999Y129251367D01*
X158162926Y129256200D01*
X158064778Y129265867D01*
X157923214Y129308810D01*
X157792748Y129378546D01*
X157678394Y129472394D01*
X157625485Y129536864D01*
X157584547Y129586747D01*
X157514810Y129717215D01*
X157490308Y129797988D01*
X157471867Y129858779D01*
X157464622Y129932336D01*
X157461000Y129969113D01*
X157461001Y131142888D01*
X157471868Y131253220D01*
X157471868Y131253222D01*
X157514811Y131394786D01*
X157584547Y131525252D01*
X157678395Y131639606D01*
X157792749Y131733454D01*
X157923215Y131803190D01*
X158064779Y131846133D01*
X158212000Y131860633D01*
X158212001Y131860633D01*
X158261074Y131855800D01*
X158261074Y131855800D01*
G37*
G36*
X150069025Y131795410D02*
X150220012Y131749608D01*
X150359165Y131675230D01*
X150481133Y131575133D01*
X150581230Y131453165D01*
X150655608Y131314012D01*
X150701410Y131163025D01*
X150713000Y131045346D01*
X150713000Y130066654D01*
X150701410Y129948975D01*
X150655608Y129797988D01*
X150581230Y129658835D01*
X150481136Y129536870D01*
X150481134Y129536869D01*
X150481133Y129536867D01*
X150481129Y129536864D01*
X150359161Y129436768D01*
X150220011Y129362392D01*
X150069024Y129316590D01*
X149912000Y129301125D01*
X149754975Y129316590D01*
X149603988Y129362392D01*
X149464835Y129436770D01*
X149342870Y129536864D01*
X149342869Y129536866D01*
X149342867Y129536867D01*
X149292819Y129597851D01*
X149242768Y129658839D01*
X149168392Y129797989D01*
X149122590Y129948976D01*
X149111000Y130066655D01*
X149111000Y131045345D01*
X149122591Y131163025D01*
X149168393Y131314012D01*
X149242771Y131453165D01*
X149342868Y131575133D01*
X149464836Y131675230D01*
X149603989Y131749608D01*
X149754976Y131795410D01*
X149912000Y131810875D01*
X150069025Y131795410D01*
X150069025Y131795410D01*
G37*
G36*
X175619024Y131795410D02*
X175770011Y131749608D01*
X175909161Y131675232D01*
X175970148Y131625181D01*
X176031133Y131575133D01*
X176031134Y131575131D01*
X176031136Y131575130D01*
X176131230Y131453165D01*
X176205608Y131314012D01*
X176251410Y131163025D01*
X176263000Y131045346D01*
X176263000Y130066654D01*
X176251410Y129948975D01*
X176205608Y129797988D01*
X176131230Y129658835D01*
X176031133Y129536867D01*
X175909165Y129436770D01*
X175770012Y129362392D01*
X175619025Y129316590D01*
X175462000Y129301125D01*
X175304976Y129316590D01*
X175153989Y129362392D01*
X175014836Y129436770D01*
X174892868Y129536867D01*
X174792771Y129658835D01*
X174718393Y129797988D01*
X174672591Y129948975D01*
X174661000Y130066655D01*
X174661000Y131045345D01*
X174672590Y131163024D01*
X174718392Y131314011D01*
X174792768Y131453161D01*
X174842819Y131514149D01*
X174892867Y131575133D01*
X174892869Y131575134D01*
X174892870Y131575136D01*
X175014835Y131675230D01*
X175153988Y131749608D01*
X175304975Y131795410D01*
X175462000Y131810875D01*
X175619024Y131795410D01*
X175619024Y131795410D01*
G37*
G36*
X147613000Y129405000D02*
X146011000Y129405000D01*
X146011000Y131707000D01*
X147613000Y131707000D01*
X147613000Y129405000D01*
X147613000Y129405000D01*
G37*
G36*
X179363000Y129405000D02*
X177761000Y129405000D01*
X177761000Y131707000D01*
X179363000Y131707000D01*
X179363000Y129405000D01*
X179363000Y129405000D01*
G37*
G36*
X162002472Y136056062D02*
X162130049Y136003218D01*
X162244865Y135926500D01*
X162342500Y135828865D01*
X162419218Y135714049D01*
X162472062Y135586472D01*
X162499000Y135451044D01*
X162499000Y135312956D01*
X162472062Y135177528D01*
X162419218Y135049951D01*
X162342500Y134935135D01*
X162244865Y134837500D01*
X162130049Y134760782D01*
X162002472Y134707938D01*
X161867044Y134681000D01*
X161728956Y134681000D01*
X161593528Y134707938D01*
X161465951Y134760782D01*
X161351135Y134837500D01*
X161253500Y134935135D01*
X161176782Y135049951D01*
X161123938Y135177528D01*
X161097000Y135312956D01*
X161097000Y135451044D01*
X161123938Y135586472D01*
X161176782Y135714049D01*
X161253500Y135828865D01*
X161351135Y135926500D01*
X161465951Y136003218D01*
X161593528Y136056062D01*
X161728956Y136083000D01*
X161867044Y136083000D01*
X162002472Y136056062D01*
X162002472Y136056062D01*
G37*
G36*
X162499000Y137221000D02*
X161224751Y137221000D01*
X161200365Y137218598D01*
X161176916Y137211485D01*
X161155305Y137199934D01*
X161136363Y137184388D01*
X161120817Y137165446D01*
X161109266Y137143835D01*
X161102153Y137120386D01*
X161099751Y137096000D01*
X161102153Y137071614D01*
X161109266Y137048165D01*
X161120817Y137026554D01*
X161149218Y136984049D01*
X161202062Y136856472D01*
X161229000Y136721044D01*
X161229000Y136582956D01*
X161202062Y136447528D01*
X161149218Y136319951D01*
X161072500Y136205135D01*
X160974865Y136107500D01*
X160860049Y136030782D01*
X160732472Y135977938D01*
X160597044Y135951000D01*
X160458956Y135951000D01*
X160323528Y135977938D01*
X160195951Y136030782D01*
X160081135Y136107500D01*
X159983500Y136205135D01*
X159906782Y136319951D01*
X159853938Y136447528D01*
X159827000Y136582956D01*
X159827000Y136721044D01*
X159853938Y136856472D01*
X159906782Y136984049D01*
X159983500Y137098865D01*
X160081135Y137196500D01*
X160195951Y137273218D01*
X160323528Y137326062D01*
X160458956Y137353000D01*
X160597044Y137353000D01*
X160732472Y137326062D01*
X160860049Y137273218D01*
X160902554Y137244817D01*
X160924165Y137233266D01*
X160947614Y137226153D01*
X160972000Y137223751D01*
X160996386Y137226153D01*
X161019836Y137233266D01*
X161041446Y137244817D01*
X161060388Y137260363D01*
X161075934Y137279305D01*
X161087485Y137300916D01*
X161094598Y137324365D01*
X161097000Y137348751D01*
X161097000Y138623000D01*
X162499000Y138623000D01*
X162499000Y137221000D01*
X162499000Y137221000D01*
G37*
G36*
X167309221Y144800133D02*
X167425451Y144764875D01*
X167450785Y144757190D01*
X167581253Y144687453D01*
X167652198Y144629230D01*
X167695606Y144593606D01*
X167789454Y144479252D01*
X167859190Y144348786D01*
X167902133Y144207222D01*
X167913000Y144096887D01*
X167913000Y142923113D01*
X167902133Y142812778D01*
X167859190Y142671214D01*
X167789454Y142540748D01*
X167695606Y142426394D01*
X167581252Y142332546D01*
X167450786Y142262810D01*
X167309222Y142219867D01*
X167211074Y142210200D01*
X167162001Y142205367D01*
X167162000Y142205367D01*
X167014779Y142219867D01*
X166873215Y142262810D01*
X166742749Y142332546D01*
X166628395Y142426394D01*
X166534547Y142540748D01*
X166464811Y142671214D01*
X166421868Y142812778D01*
X166411001Y142923113D01*
X166411000Y144096886D01*
X166412984Y144117025D01*
X166421867Y144207219D01*
X166421867Y144207221D01*
X166464810Y144348785D01*
X166534546Y144479251D01*
X166534547Y144479253D01*
X166628394Y144593606D01*
X166742747Y144687453D01*
X166742746Y144687453D01*
X166742748Y144687454D01*
X166873214Y144757190D01*
X167014778Y144800133D01*
X167112926Y144809800D01*
X167161999Y144814633D01*
X167162000Y144814633D01*
X167309221Y144800133D01*
X167309221Y144800133D01*
G37*
G36*
X158261074Y144809800D02*
X158359222Y144800133D01*
X158500786Y144757190D01*
X158631252Y144687454D01*
X158745606Y144593606D01*
X158839454Y144479252D01*
X158909190Y144348786D01*
X158952133Y144207222D01*
X158963000Y144096887D01*
X158963000Y142923113D01*
X158952133Y142812778D01*
X158909190Y142671214D01*
X158839455Y142540749D01*
X158839453Y142540747D01*
X158745606Y142426394D01*
X158631253Y142332547D01*
X158631251Y142332546D01*
X158500785Y142262810D01*
X158359221Y142219867D01*
X158212000Y142205367D01*
X158211999Y142205367D01*
X158162926Y142210200D01*
X158064778Y142219867D01*
X157923214Y142262810D01*
X157792748Y142332546D01*
X157678394Y142426394D01*
X157625485Y142490864D01*
X157584547Y142540747D01*
X157514810Y142671215D01*
X157490308Y142751988D01*
X157471867Y142812779D01*
X157464622Y142886336D01*
X157461000Y142923113D01*
X157461001Y144096888D01*
X157471868Y144207220D01*
X157471868Y144207222D01*
X157514811Y144348786D01*
X157584547Y144479252D01*
X157678395Y144593606D01*
X157792749Y144687454D01*
X157923215Y144757190D01*
X158064779Y144800133D01*
X158212000Y144814633D01*
X158212001Y144814633D01*
X158261074Y144809800D01*
X158261074Y144809800D01*
G37*
G36*
X175619024Y144749410D02*
X175770011Y144703608D01*
X175909161Y144629232D01*
X175970148Y144579181D01*
X176031133Y144529133D01*
X176031134Y144529131D01*
X176031136Y144529130D01*
X176131230Y144407165D01*
X176205608Y144268012D01*
X176251410Y144117025D01*
X176263000Y143999346D01*
X176263000Y143020654D01*
X176251410Y142902975D01*
X176205608Y142751988D01*
X176131230Y142612835D01*
X176031133Y142490867D01*
X175909165Y142390770D01*
X175770012Y142316392D01*
X175619025Y142270590D01*
X175462000Y142255125D01*
X175304976Y142270590D01*
X175153989Y142316392D01*
X175014836Y142390770D01*
X174892868Y142490867D01*
X174792771Y142612835D01*
X174718393Y142751988D01*
X174672591Y142902975D01*
X174661000Y143020655D01*
X174661000Y143999345D01*
X174672590Y144117024D01*
X174718392Y144268011D01*
X174792768Y144407161D01*
X174842819Y144468148D01*
X174892867Y144529133D01*
X174892869Y144529134D01*
X174892870Y144529136D01*
X175014835Y144629230D01*
X175153988Y144703608D01*
X175304975Y144749410D01*
X175462000Y144764875D01*
X175619024Y144749410D01*
X175619024Y144749410D01*
G37*
G36*
X150069025Y144749410D02*
X150220012Y144703608D01*
X150359165Y144629230D01*
X150481133Y144529133D01*
X150581230Y144407165D01*
X150655608Y144268012D01*
X150701410Y144117025D01*
X150713000Y143999346D01*
X150713000Y143020654D01*
X150701410Y142902975D01*
X150655608Y142751988D01*
X150581230Y142612835D01*
X150481136Y142490870D01*
X150481134Y142490869D01*
X150481133Y142490867D01*
X150481129Y142490864D01*
X150359161Y142390768D01*
X150220011Y142316392D01*
X150069024Y142270590D01*
X149912000Y142255125D01*
X149754975Y142270590D01*
X149603988Y142316392D01*
X149464835Y142390770D01*
X149342870Y142490864D01*
X149342869Y142490866D01*
X149342867Y142490867D01*
X149292819Y142551852D01*
X149242768Y142612839D01*
X149168392Y142751989D01*
X149122590Y142902976D01*
X149111000Y143020655D01*
X149111000Y143999345D01*
X149122591Y144117025D01*
X149168393Y144268012D01*
X149242771Y144407165D01*
X149342868Y144529133D01*
X149464836Y144629230D01*
X149603989Y144703608D01*
X149754976Y144749410D01*
X149912000Y144764875D01*
X150069025Y144749410D01*
X150069025Y144749410D01*
G37*
G36*
X147613000Y142359000D02*
X146011000Y142359000D01*
X146011000Y144661000D01*
X147613000Y144661000D01*
X147613000Y142359000D01*
X147613000Y142359000D01*
G37*
G36*
X179363000Y142359000D02*
X177761000Y142359000D01*
X177761000Y144661000D01*
X179363000Y144661000D01*
X179363000Y142359000D01*
X179363000Y142359000D01*
G37*
G36*
X174775396Y157378454D02*
X174948466Y157306766D01*
X175104230Y157202688D01*
X175236688Y157070230D01*
X175340766Y156914466D01*
X175412454Y156741396D01*
X175449000Y156557667D01*
X175449000Y156370333D01*
X175412454Y156186604D01*
X175340766Y156013534D01*
X175236688Y155857770D01*
X175104230Y155725312D01*
X174948466Y155621234D01*
X174775396Y155549546D01*
X174591667Y155513000D01*
X174404333Y155513000D01*
X174220604Y155549546D01*
X174047534Y155621234D01*
X173891770Y155725312D01*
X173759312Y155857770D01*
X173655234Y156013534D01*
X173583546Y156186604D01*
X173547000Y156370333D01*
X173547000Y156557667D01*
X173583546Y156741396D01*
X173655234Y156914466D01*
X173759312Y157070230D01*
X173891770Y157202688D01*
X174047534Y157306766D01*
X174220604Y157378454D01*
X174404333Y157415000D01*
X174591667Y157415000D01*
X174775396Y157378454D01*
X174775396Y157378454D01*
G37*
G36*
X172275396Y157378454D02*
X172448466Y157306766D01*
X172604230Y157202688D01*
X172736688Y157070230D01*
X172840766Y156914466D01*
X172912454Y156741396D01*
X172949000Y156557667D01*
X172949000Y156370333D01*
X172912454Y156186604D01*
X172840766Y156013534D01*
X172736688Y155857770D01*
X172604230Y155725312D01*
X172448466Y155621234D01*
X172275396Y155549546D01*
X172091667Y155513000D01*
X171904333Y155513000D01*
X171720604Y155549546D01*
X171547534Y155621234D01*
X171391770Y155725312D01*
X171259312Y155857770D01*
X171155234Y156013534D01*
X171083546Y156186604D01*
X171047000Y156370333D01*
X171047000Y156557667D01*
X171083546Y156741396D01*
X171155234Y156914466D01*
X171259312Y157070230D01*
X171391770Y157202688D01*
X171547534Y157306766D01*
X171720604Y157378454D01*
X171904333Y157415000D01*
X172091667Y157415000D01*
X172275396Y157378454D01*
X172275396Y157378454D01*
G37*
G36*
X169775396Y157378454D02*
X169948466Y157306766D01*
X170104230Y157202688D01*
X170236688Y157070230D01*
X170340766Y156914466D01*
X170412454Y156741396D01*
X170449000Y156557667D01*
X170449000Y156370333D01*
X170412454Y156186604D01*
X170340766Y156013534D01*
X170236688Y155857770D01*
X170104230Y155725312D01*
X169948466Y155621234D01*
X169775396Y155549546D01*
X169591667Y155513000D01*
X169404333Y155513000D01*
X169220604Y155549546D01*
X169047534Y155621234D01*
X168891770Y155725312D01*
X168759312Y155857770D01*
X168655234Y156013534D01*
X168583546Y156186604D01*
X168547000Y156370333D01*
X168547000Y156557667D01*
X168583546Y156741396D01*
X168655234Y156914466D01*
X168759312Y157070230D01*
X168891770Y157202688D01*
X169047534Y157306766D01*
X169220604Y157378454D01*
X169404333Y157415000D01*
X169591667Y157415000D01*
X169775396Y157378454D01*
X169775396Y157378454D01*
G37*
G36*
X154039665Y159654378D02*
X154113222Y159647133D01*
X154254786Y159604190D01*
X154385252Y159534454D01*
X154499606Y159440606D01*
X154593454Y159326252D01*
X154663190Y159195786D01*
X154706133Y159054222D01*
X154720633Y158907000D01*
X154706133Y158759778D01*
X154663190Y158618214D01*
X154593454Y158487748D01*
X154499606Y158373394D01*
X154385252Y158279546D01*
X154254786Y158209810D01*
X154113222Y158166867D01*
X154039665Y158159622D01*
X154002888Y158156000D01*
X152829112Y158156000D01*
X152792335Y158159622D01*
X152718778Y158166867D01*
X152577214Y158209810D01*
X152446748Y158279546D01*
X152332394Y158373394D01*
X152238546Y158487748D01*
X152168810Y158618214D01*
X152125867Y158759778D01*
X152111367Y158907000D01*
X152125867Y159054222D01*
X152168810Y159195786D01*
X152238546Y159326252D01*
X152332394Y159440606D01*
X152446748Y159534454D01*
X152577214Y159604190D01*
X152718778Y159647133D01*
X152792335Y159654378D01*
X152829112Y159658000D01*
X154002888Y159658000D01*
X154039665Y159654378D01*
X154039665Y159654378D01*
G37*
G36*
X177285421Y165004857D02*
X177417557Y164964773D01*
X177417559Y164964772D01*
X177539339Y164899680D01*
X177646080Y164812080D01*
X177733680Y164705339D01*
X177798772Y164583559D01*
X177798773Y164583557D01*
X177838857Y164451421D01*
X177849000Y164348432D01*
X177849000Y163579568D01*
X177838857Y163476579D01*
X177798773Y163344444D01*
X177798772Y163344441D01*
X177733680Y163222661D01*
X177670691Y163145910D01*
X177646078Y163115918D01*
X177553427Y163039883D01*
X177539338Y163028320D01*
X177417558Y162963228D01*
X177417556Y162963227D01*
X177285420Y162923143D01*
X177148000Y162909609D01*
X177010579Y162923143D01*
X176878443Y162963227D01*
X176878441Y162963228D01*
X176756661Y163028320D01*
X176679910Y163091309D01*
X176649918Y163115922D01*
X176562321Y163222661D01*
X176562320Y163222663D01*
X176497228Y163344442D01*
X176497227Y163344444D01*
X176457143Y163476580D01*
X176447000Y163579569D01*
X176447000Y164348432D01*
X176457143Y164451419D01*
X176497228Y164583558D01*
X176516974Y164620500D01*
X176562321Y164705339D01*
X176649921Y164812080D01*
X176756662Y164899680D01*
X176878442Y164964772D01*
X176878444Y164964773D01*
X177010580Y165004857D01*
X177148000Y165018391D01*
X177285421Y165004857D01*
X177285421Y165004857D01*
G37*
G36*
X166985421Y165004857D02*
X167117557Y164964773D01*
X167117559Y164964772D01*
X167239339Y164899680D01*
X167346080Y164812080D01*
X167433680Y164705339D01*
X167498772Y164583559D01*
X167498773Y164583557D01*
X167538857Y164451421D01*
X167549000Y164348432D01*
X167549000Y163579568D01*
X167538857Y163476579D01*
X167498773Y163344444D01*
X167498772Y163344441D01*
X167433680Y163222661D01*
X167370691Y163145910D01*
X167346078Y163115918D01*
X167253427Y163039883D01*
X167239338Y163028320D01*
X167117558Y162963228D01*
X167117556Y162963227D01*
X166985420Y162923143D01*
X166848000Y162909609D01*
X166710579Y162923143D01*
X166578443Y162963227D01*
X166578441Y162963228D01*
X166456661Y163028320D01*
X166379910Y163091309D01*
X166349918Y163115922D01*
X166262321Y163222661D01*
X166262320Y163222663D01*
X166197228Y163344442D01*
X166197227Y163344444D01*
X166157143Y163476580D01*
X166147000Y163579569D01*
X166147000Y164348432D01*
X166157143Y164451419D01*
X166197228Y164583558D01*
X166216974Y164620500D01*
X166262321Y164705339D01*
X166349921Y164812080D01*
X166456662Y164899680D01*
X166578442Y164964772D01*
X166578444Y164964773D01*
X166710580Y165004857D01*
X166848000Y165018391D01*
X166985421Y165004857D01*
X166985421Y165004857D01*
G37*
G36*
X158064767Y166759835D02*
X158212893Y166730371D01*
X158353206Y166672252D01*
X158479484Y166587875D01*
X158586875Y166480484D01*
X158671252Y166354206D01*
X158729371Y166213893D01*
X158759000Y166064937D01*
X158759000Y165913063D01*
X158729371Y165764107D01*
X158671252Y165623794D01*
X158586875Y165497516D01*
X158479484Y165390125D01*
X158353206Y165305748D01*
X158212893Y165247629D01*
X158113589Y165227876D01*
X158063938Y165218000D01*
X157912062Y165218000D01*
X157862411Y165227876D01*
X157763107Y165247629D01*
X157622794Y165305748D01*
X157496516Y165390125D01*
X157389125Y165497516D01*
X157304748Y165623794D01*
X157246629Y165764107D01*
X157217000Y165913063D01*
X157217000Y166064937D01*
X157246629Y166213893D01*
X157304748Y166354206D01*
X157389125Y166480484D01*
X157496516Y166587875D01*
X157622794Y166672252D01*
X157763107Y166730371D01*
X157911233Y166759835D01*
X157912062Y166760000D01*
X158063938Y166760000D01*
X158064767Y166759835D01*
X158064767Y166759835D01*
G37*
G36*
X163144767Y166759835D02*
X163292893Y166730371D01*
X163433206Y166672252D01*
X163559484Y166587875D01*
X163666875Y166480484D01*
X163751252Y166354206D01*
X163809371Y166213893D01*
X163839000Y166064937D01*
X163839000Y165913063D01*
X163809371Y165764107D01*
X163751252Y165623794D01*
X163666875Y165497516D01*
X163559484Y165390125D01*
X163433206Y165305748D01*
X163292893Y165247629D01*
X163193589Y165227876D01*
X163143938Y165218000D01*
X162992062Y165218000D01*
X162942411Y165227876D01*
X162843107Y165247629D01*
X162702794Y165305748D01*
X162576516Y165390125D01*
X162469125Y165497516D01*
X162384748Y165623794D01*
X162326629Y165764107D01*
X162297000Y165913063D01*
X162297000Y166064937D01*
X162326629Y166213893D01*
X162384748Y166354206D01*
X162469125Y166480484D01*
X162576516Y166587875D01*
X162702794Y166672252D01*
X162843107Y166730371D01*
X162991233Y166759835D01*
X162992062Y166760000D01*
X163143938Y166760000D01*
X163144767Y166759835D01*
X163144767Y166759835D01*
G37*
G36*
X160604767Y166759835D02*
X160752893Y166730371D01*
X160893206Y166672252D01*
X161019484Y166587875D01*
X161126875Y166480484D01*
X161211252Y166354206D01*
X161269371Y166213893D01*
X161299000Y166064937D01*
X161299000Y165913063D01*
X161269371Y165764107D01*
X161211252Y165623794D01*
X161126875Y165497516D01*
X161019484Y165390125D01*
X160893206Y165305748D01*
X160752893Y165247629D01*
X160653589Y165227876D01*
X160603938Y165218000D01*
X160452062Y165218000D01*
X160402411Y165227876D01*
X160303107Y165247629D01*
X160162794Y165305748D01*
X160036516Y165390125D01*
X159929125Y165497516D01*
X159844748Y165623794D01*
X159786629Y165764107D01*
X159757000Y165913063D01*
X159757000Y166064937D01*
X159786629Y166213893D01*
X159844748Y166354206D01*
X159929125Y166480484D01*
X160036516Y166587875D01*
X160162794Y166672252D01*
X160303107Y166730371D01*
X160451233Y166759835D01*
X160452062Y166760000D01*
X160603938Y166760000D01*
X160604767Y166759835D01*
X160604767Y166759835D01*
G37*
G36*
X154023025Y167996410D02*
X154174012Y167950608D01*
X154313165Y167876230D01*
X154435133Y167776133D01*
X154535230Y167654165D01*
X154609608Y167515012D01*
X154655410Y167364025D01*
X154670875Y167207000D01*
X154655410Y167049975D01*
X154609608Y166898988D01*
X154535230Y166759835D01*
X154435133Y166637867D01*
X154313165Y166537770D01*
X154174012Y166463392D01*
X154023025Y166417590D01*
X153905346Y166406000D01*
X152926654Y166406000D01*
X152808975Y166417590D01*
X152657988Y166463392D01*
X152518835Y166537770D01*
X152396867Y166637867D01*
X152296770Y166759835D01*
X152222392Y166898988D01*
X152176590Y167049975D01*
X152161125Y167207000D01*
X152176590Y167364025D01*
X152222392Y167515012D01*
X152296770Y167654165D01*
X152396867Y167776133D01*
X152518835Y167876230D01*
X152657988Y167950608D01*
X152808975Y167996410D01*
X152926654Y168008000D01*
X153905346Y168008000D01*
X154023025Y167996410D01*
X154023025Y167996410D01*
G37*
G36*
X177036589Y169798124D02*
X177135893Y169778371D01*
X177276206Y169720252D01*
X177402484Y169635875D01*
X177509875Y169528484D01*
X177594252Y169402206D01*
X177652371Y169261893D01*
X177682000Y169112937D01*
X177682000Y168961063D01*
X177652371Y168812107D01*
X177594252Y168671794D01*
X177509875Y168545516D01*
X177402484Y168438125D01*
X177276206Y168353748D01*
X177135893Y168295629D01*
X177036589Y168275876D01*
X176986938Y168266000D01*
X176835062Y168266000D01*
X176785411Y168275876D01*
X176686107Y168295629D01*
X176545794Y168353748D01*
X176419516Y168438125D01*
X176312125Y168545516D01*
X176227748Y168671794D01*
X176169629Y168812107D01*
X176140000Y168961063D01*
X176140000Y169112937D01*
X176169629Y169261893D01*
X176227748Y169402206D01*
X176312125Y169528484D01*
X176419516Y169635875D01*
X176545794Y169720252D01*
X176686107Y169778371D01*
X176785411Y169798124D01*
X176835062Y169808000D01*
X176986938Y169808000D01*
X177036589Y169798124D01*
X177036589Y169798124D01*
G37*
G36*
X154567000Y169506000D02*
X152265000Y169506000D01*
X152265000Y171108000D01*
X154567000Y171108000D01*
X154567000Y169506000D01*
X154567000Y169506000D01*
G37*
G36*
X177036589Y172338124D02*
X177135893Y172318371D01*
X177276206Y172260252D01*
X177402484Y172175875D01*
X177509875Y172068484D01*
X177594252Y171942206D01*
X177652371Y171801893D01*
X177682000Y171652937D01*
X177682000Y171501063D01*
X177652371Y171352107D01*
X177594252Y171211794D01*
X177509875Y171085516D01*
X177402484Y170978125D01*
X177276206Y170893748D01*
X177135893Y170835629D01*
X177036589Y170815876D01*
X176986938Y170806000D01*
X176835062Y170806000D01*
X176785411Y170815876D01*
X176686107Y170835629D01*
X176545794Y170893748D01*
X176419516Y170978125D01*
X176312125Y171085516D01*
X176227748Y171211794D01*
X176169629Y171352107D01*
X176140000Y171501063D01*
X176140000Y171652937D01*
X176169629Y171801893D01*
X176227748Y171942206D01*
X176312125Y172068484D01*
X176419516Y172175875D01*
X176545794Y172260252D01*
X176686107Y172318371D01*
X176785411Y172338124D01*
X176835062Y172348000D01*
X176986938Y172348000D01*
X177036589Y172338124D01*
X177036589Y172338124D01*
G37*
G36*
X177036589Y174878124D02*
X177135893Y174858371D01*
X177276206Y174800252D01*
X177402484Y174715875D01*
X177509875Y174608484D01*
X177594252Y174482206D01*
X177652371Y174341893D01*
X177682000Y174192937D01*
X177682000Y174041063D01*
X177652371Y173892107D01*
X177594252Y173751794D01*
X177509875Y173625516D01*
X177402484Y173518125D01*
X177276206Y173433748D01*
X177135893Y173375629D01*
X177036589Y173355876D01*
X176986938Y173346000D01*
X176835062Y173346000D01*
X176785411Y173355876D01*
X176686107Y173375629D01*
X176545794Y173433748D01*
X176419516Y173518125D01*
X176312125Y173625516D01*
X176227748Y173751794D01*
X176169629Y173892107D01*
X176140000Y174041063D01*
X176140000Y174192937D01*
X176169629Y174341893D01*
X176227748Y174482206D01*
X176312125Y174608484D01*
X176419516Y174715875D01*
X176545794Y174800252D01*
X176686107Y174858371D01*
X176785411Y174878124D01*
X176835062Y174888000D01*
X176986938Y174888000D01*
X177036589Y174878124D01*
X177036589Y174878124D01*
G37*
G36*
X154039665Y178323378D02*
X154113222Y178316133D01*
X154254786Y178273190D01*
X154385252Y178203454D01*
X154499606Y178109606D01*
X154593454Y177995252D01*
X154663190Y177864786D01*
X154706133Y177723222D01*
X154720633Y177576000D01*
X154706133Y177428778D01*
X154663190Y177287214D01*
X154593454Y177156748D01*
X154499606Y177042394D01*
X154385252Y176948546D01*
X154254786Y176878810D01*
X154113222Y176835867D01*
X154039665Y176828622D01*
X154002888Y176825000D01*
X152829112Y176825000D01*
X152792335Y176828622D01*
X152718778Y176835867D01*
X152577214Y176878810D01*
X152446748Y176948546D01*
X152332394Y177042394D01*
X152238546Y177156748D01*
X152168810Y177287214D01*
X152125867Y177428778D01*
X152111367Y177576000D01*
X152125867Y177723222D01*
X152168810Y177864786D01*
X152238546Y177995252D01*
X152332394Y178109606D01*
X152446748Y178203454D01*
X152577214Y178273190D01*
X152718778Y178316133D01*
X152792335Y178323378D01*
X152829112Y178327000D01*
X154002888Y178327000D01*
X154039665Y178323378D01*
X154039665Y178323378D01*
G37*
G36*
X177036589Y179958124D02*
X177135893Y179938371D01*
X177276206Y179880252D01*
X177402484Y179795875D01*
X177509875Y179688484D01*
X177594252Y179562206D01*
X177652371Y179421893D01*
X177682000Y179272937D01*
X177682000Y179121063D01*
X177652371Y178972107D01*
X177594252Y178831794D01*
X177509875Y178705516D01*
X177402484Y178598125D01*
X177276206Y178513748D01*
X177135893Y178455629D01*
X177036589Y178435876D01*
X176986938Y178426000D01*
X176835062Y178426000D01*
X176785411Y178435876D01*
X176686107Y178455629D01*
X176545794Y178513748D01*
X176419516Y178598125D01*
X176312125Y178705516D01*
X176227748Y178831794D01*
X176169629Y178972107D01*
X176140000Y179121063D01*
X176140000Y179272937D01*
X176169629Y179421893D01*
X176227748Y179562206D01*
X176312125Y179688484D01*
X176419516Y179795875D01*
X176545794Y179880252D01*
X176686107Y179938371D01*
X176785411Y179958124D01*
X176835062Y179968000D01*
X176986938Y179968000D01*
X177036589Y179958124D01*
X177036589Y179958124D01*
G37*
G36*
X160907589Y182117124D02*
X161006893Y182097371D01*
X161147206Y182039252D01*
X161273484Y181954875D01*
X161380875Y181847484D01*
X161465252Y181721206D01*
X161523371Y181580893D01*
X161553000Y181431937D01*
X161553000Y181280063D01*
X161523371Y181131107D01*
X161465252Y180990794D01*
X161380875Y180864516D01*
X161273484Y180757125D01*
X161147206Y180672748D01*
X161006893Y180614629D01*
X160907589Y180594876D01*
X160857938Y180585000D01*
X160706062Y180585000D01*
X160656411Y180594876D01*
X160557107Y180614629D01*
X160416794Y180672748D01*
X160290516Y180757125D01*
X160183125Y180864516D01*
X160098748Y180990794D01*
X160040629Y181131107D01*
X160011000Y181280063D01*
X160011000Y181431937D01*
X160040629Y181580893D01*
X160098748Y181721206D01*
X160183125Y181847484D01*
X160290516Y181954875D01*
X160416794Y182039252D01*
X160557107Y182097371D01*
X160656411Y182117124D01*
X160706062Y182127000D01*
X160857938Y182127000D01*
X160907589Y182117124D01*
X160907589Y182117124D01*
G37*
G36*
X158367589Y182117124D02*
X158466893Y182097371D01*
X158607206Y182039252D01*
X158733484Y181954875D01*
X158840875Y181847484D01*
X158925252Y181721206D01*
X158983371Y181580893D01*
X159013000Y181431937D01*
X159013000Y181280063D01*
X158983371Y181131107D01*
X158925252Y180990794D01*
X158840875Y180864516D01*
X158733484Y180757125D01*
X158607206Y180672748D01*
X158466893Y180614629D01*
X158367589Y180594876D01*
X158317938Y180585000D01*
X158166062Y180585000D01*
X158116411Y180594876D01*
X158017107Y180614629D01*
X157876794Y180672748D01*
X157750516Y180757125D01*
X157643125Y180864516D01*
X157558748Y180990794D01*
X157500629Y181131107D01*
X157471000Y181280063D01*
X157471000Y181431937D01*
X157500629Y181580893D01*
X157558748Y181721206D01*
X157643125Y181847484D01*
X157750516Y181954875D01*
X157876794Y182039252D01*
X158017107Y182097371D01*
X158116411Y182117124D01*
X158166062Y182127000D01*
X158317938Y182127000D01*
X158367589Y182117124D01*
X158367589Y182117124D01*
G37*
G36*
X163447589Y182117124D02*
X163546893Y182097371D01*
X163687206Y182039252D01*
X163813484Y181954875D01*
X163920875Y181847484D01*
X164005252Y181721206D01*
X164063371Y181580893D01*
X164093000Y181431937D01*
X164093000Y181280063D01*
X164063371Y181131107D01*
X164005252Y180990794D01*
X163920875Y180864516D01*
X163813484Y180757125D01*
X163687206Y180672748D01*
X163546893Y180614629D01*
X163447589Y180594876D01*
X163397938Y180585000D01*
X163246062Y180585000D01*
X163196411Y180594876D01*
X163097107Y180614629D01*
X162956794Y180672748D01*
X162830516Y180757125D01*
X162723125Y180864516D01*
X162638748Y180990794D01*
X162580629Y181131107D01*
X162551000Y181280063D01*
X162551000Y181431937D01*
X162580629Y181580893D01*
X162638748Y181721206D01*
X162723125Y181847484D01*
X162830516Y181954875D01*
X162956794Y182039252D01*
X163097107Y182097371D01*
X163196411Y182117124D01*
X163246062Y182127000D01*
X163397938Y182127000D01*
X163447589Y182117124D01*
X163447589Y182117124D01*
G37*
G36*
X177036589Y182498124D02*
X177135893Y182478371D01*
X177276206Y182420252D01*
X177402484Y182335875D01*
X177509875Y182228484D01*
X177594252Y182102206D01*
X177652371Y181961893D01*
X177682000Y181812937D01*
X177682000Y181661063D01*
X177652371Y181512107D01*
X177594252Y181371794D01*
X177509875Y181245516D01*
X177402484Y181138125D01*
X177276206Y181053748D01*
X177135893Y180995629D01*
X177036589Y180975876D01*
X176986938Y180966000D01*
X176835062Y180966000D01*
X176785411Y180975876D01*
X176686107Y180995629D01*
X176545794Y181053748D01*
X176419516Y181138125D01*
X176312125Y181245516D01*
X176227748Y181371794D01*
X176169629Y181512107D01*
X176140000Y181661063D01*
X176140000Y181812937D01*
X176169629Y181961893D01*
X176227748Y182102206D01*
X176312125Y182228484D01*
X176419516Y182335875D01*
X176545794Y182420252D01*
X176686107Y182478371D01*
X176785411Y182498124D01*
X176835062Y182508000D01*
X176986938Y182508000D01*
X177036589Y182498124D01*
X177036589Y182498124D01*
G37*
G36*
X177036589Y185038124D02*
X177135893Y185018371D01*
X177276206Y184960252D01*
X177402484Y184875875D01*
X177509875Y184768484D01*
X177594252Y184642206D01*
X177652371Y184501893D01*
X177682000Y184352937D01*
X177682000Y184201063D01*
X177652371Y184052107D01*
X177594252Y183911794D01*
X177509875Y183785516D01*
X177402484Y183678125D01*
X177276206Y183593748D01*
X177135893Y183535629D01*
X177036589Y183515876D01*
X176986938Y183506000D01*
X176835062Y183506000D01*
X176785411Y183515876D01*
X176686107Y183535629D01*
X176545794Y183593748D01*
X176419516Y183678125D01*
X176312125Y183785516D01*
X176227748Y183911794D01*
X176169629Y184052107D01*
X176140000Y184201063D01*
X176140000Y184352937D01*
X176169629Y184501893D01*
X176227748Y184642206D01*
X176312125Y184768484D01*
X176419516Y184875875D01*
X176545794Y184960252D01*
X176686107Y185018371D01*
X176785411Y185038124D01*
X176835062Y185048000D01*
X176986938Y185048000D01*
X177036589Y185038124D01*
X177036589Y185038124D01*
G37*
G36*
X154023025Y186665410D02*
X154174012Y186619608D01*
X154313165Y186545230D01*
X154435133Y186445133D01*
X154535230Y186323165D01*
X154609608Y186184012D01*
X154655410Y186033025D01*
X154670875Y185876000D01*
X154655410Y185718975D01*
X154609608Y185567988D01*
X154535230Y185428835D01*
X154435133Y185306867D01*
X154313165Y185206770D01*
X154174012Y185132392D01*
X154023025Y185086590D01*
X153905346Y185075000D01*
X152926654Y185075000D01*
X152808975Y185086590D01*
X152657988Y185132392D01*
X152518835Y185206770D01*
X152396867Y185306867D01*
X152296770Y185428835D01*
X152222392Y185567988D01*
X152176590Y185718975D01*
X152161125Y185876000D01*
X152176590Y186033025D01*
X152222392Y186184012D01*
X152296770Y186323165D01*
X152396867Y186445133D01*
X152518835Y186545230D01*
X152657988Y186619608D01*
X152808975Y186665410D01*
X152926654Y186677000D01*
X153905346Y186677000D01*
X154023025Y186665410D01*
X154023025Y186665410D01*
G37*
G36*
X154567000Y188175000D02*
X152265000Y188175000D01*
X152265000Y189777000D01*
X154567000Y189777000D01*
X154567000Y188175000D01*
X154567000Y188175000D01*
G37*
G36*
X160199294Y194957367D02*
X160371694Y194905069D01*
X160371696Y194905068D01*
X160530583Y194820141D01*
X160530585Y194820140D01*
X160530584Y194820140D01*
X160669849Y194705849D01*
X160784140Y194566584D01*
X160869069Y194407694D01*
X160921367Y194235294D01*
X160939025Y194056000D01*
X160921367Y193876706D01*
X160869069Y193704306D01*
X160869068Y193704304D01*
X160784141Y193545417D01*
X160669849Y193406151D01*
X160530583Y193291859D01*
X160371696Y193206932D01*
X160371694Y193206931D01*
X160199294Y193154633D01*
X160064931Y193141400D01*
X159975069Y193141400D01*
X159840706Y193154633D01*
X159668306Y193206931D01*
X159668304Y193206932D01*
X159509417Y193291859D01*
X159370151Y193406151D01*
X159255859Y193545417D01*
X159170932Y193704304D01*
X159170931Y193704306D01*
X159118633Y193876706D01*
X159100975Y194056000D01*
X159118633Y194235294D01*
X159170931Y194407694D01*
X159255860Y194566584D01*
X159370151Y194705849D01*
X159509416Y194820140D01*
X159509415Y194820140D01*
X159509417Y194820141D01*
X159668304Y194905068D01*
X159668306Y194905069D01*
X159840706Y194957367D01*
X159975069Y194970600D01*
X160064931Y194970600D01*
X160199294Y194957367D01*
X160199294Y194957367D01*
G37*
G36*
X157659294Y194957367D02*
X157831694Y194905069D01*
X157831696Y194905068D01*
X157990583Y194820141D01*
X157990585Y194820140D01*
X157990584Y194820140D01*
X158129849Y194705849D01*
X158244140Y194566584D01*
X158329069Y194407694D01*
X158381367Y194235294D01*
X158399025Y194056000D01*
X158381367Y193876706D01*
X158329069Y193704306D01*
X158329068Y193704304D01*
X158244141Y193545417D01*
X158129849Y193406151D01*
X157990583Y193291859D01*
X157831696Y193206932D01*
X157831694Y193206931D01*
X157659294Y193154633D01*
X157524931Y193141400D01*
X157435069Y193141400D01*
X157300706Y193154633D01*
X157128306Y193206931D01*
X157128304Y193206932D01*
X156969417Y193291859D01*
X156830151Y193406151D01*
X156715859Y193545417D01*
X156630932Y193704304D01*
X156630931Y193704306D01*
X156578633Y193876706D01*
X156560975Y194056000D01*
X156578633Y194235294D01*
X156630931Y194407694D01*
X156715860Y194566584D01*
X156830151Y194705849D01*
X156969416Y194820140D01*
X156969415Y194820140D01*
X156969417Y194820141D01*
X157128304Y194905068D01*
X157128306Y194905069D01*
X157300706Y194957367D01*
X157435069Y194970600D01*
X157524931Y194970600D01*
X157659294Y194957367D01*
X157659294Y194957367D01*
G37*
G36*
X155119294Y194957367D02*
X155291694Y194905069D01*
X155291696Y194905068D01*
X155450583Y194820141D01*
X155450585Y194820140D01*
X155450584Y194820140D01*
X155589849Y194705849D01*
X155704140Y194566584D01*
X155789069Y194407694D01*
X155841367Y194235294D01*
X155859025Y194056000D01*
X155841367Y193876706D01*
X155789069Y193704306D01*
X155789068Y193704304D01*
X155704141Y193545417D01*
X155589849Y193406151D01*
X155450583Y193291859D01*
X155291696Y193206932D01*
X155291694Y193206931D01*
X155119294Y193154633D01*
X154984931Y193141400D01*
X154895069Y193141400D01*
X154760706Y193154633D01*
X154588306Y193206931D01*
X154588304Y193206932D01*
X154429417Y193291859D01*
X154290151Y193406151D01*
X154175859Y193545417D01*
X154090932Y193704304D01*
X154090931Y193704306D01*
X154038633Y193876706D01*
X154020975Y194056000D01*
X154038633Y194235294D01*
X154090931Y194407694D01*
X154175860Y194566584D01*
X154290151Y194705849D01*
X154429416Y194820140D01*
X154429415Y194820140D01*
X154429417Y194820141D01*
X154588304Y194905068D01*
X154588306Y194905069D01*
X154760706Y194957367D01*
X154895069Y194970600D01*
X154984931Y194970600D01*
X155119294Y194957367D01*
X155119294Y194957367D01*
G37*
G36*
X150039294Y194957367D02*
X150211694Y194905069D01*
X150211696Y194905068D01*
X150370583Y194820141D01*
X150370585Y194820140D01*
X150370584Y194820140D01*
X150509849Y194705849D01*
X150624140Y194566584D01*
X150709069Y194407694D01*
X150761367Y194235294D01*
X150779025Y194056000D01*
X150761367Y193876706D01*
X150709069Y193704306D01*
X150709068Y193704304D01*
X150624141Y193545417D01*
X150509849Y193406151D01*
X150370583Y193291859D01*
X150211696Y193206932D01*
X150211694Y193206931D01*
X150039294Y193154633D01*
X149904931Y193141400D01*
X149815069Y193141400D01*
X149680706Y193154633D01*
X149508306Y193206931D01*
X149508304Y193206932D01*
X149349417Y193291859D01*
X149210151Y193406151D01*
X149095859Y193545417D01*
X149010932Y193704304D01*
X149010931Y193704306D01*
X148958633Y193876706D01*
X148940975Y194056000D01*
X148958633Y194235294D01*
X149010931Y194407694D01*
X149095860Y194566584D01*
X149210151Y194705849D01*
X149349416Y194820140D01*
X149349415Y194820140D01*
X149349417Y194820141D01*
X149508304Y194905068D01*
X149508306Y194905069D01*
X149680706Y194957367D01*
X149815069Y194970600D01*
X149904931Y194970600D01*
X150039294Y194957367D01*
X150039294Y194957367D01*
G37*
G36*
X152579294Y194957367D02*
X152751694Y194905069D01*
X152751696Y194905068D01*
X152910583Y194820141D01*
X152910585Y194820140D01*
X152910584Y194820140D01*
X153049849Y194705849D01*
X153164140Y194566584D01*
X153249069Y194407694D01*
X153301367Y194235294D01*
X153319025Y194056000D01*
X153301367Y193876706D01*
X153249069Y193704306D01*
X153249068Y193704304D01*
X153164141Y193545417D01*
X153049849Y193406151D01*
X152910583Y193291859D01*
X152751696Y193206932D01*
X152751694Y193206931D01*
X152579294Y193154633D01*
X152444931Y193141400D01*
X152355069Y193141400D01*
X152220706Y193154633D01*
X152048306Y193206931D01*
X152048304Y193206932D01*
X151889417Y193291859D01*
X151750151Y193406151D01*
X151635859Y193545417D01*
X151550932Y193704304D01*
X151550931Y193704306D01*
X151498633Y193876706D01*
X151480975Y194056000D01*
X151498633Y194235294D01*
X151550931Y194407694D01*
X151635860Y194566584D01*
X151750151Y194705849D01*
X151889416Y194820140D01*
X151889415Y194820140D01*
X151889417Y194820141D01*
X152048304Y194905068D01*
X152048306Y194905069D01*
X152220706Y194957367D01*
X152355069Y194970600D01*
X152444931Y194970600D01*
X152579294Y194957367D01*
X152579294Y194957367D01*
G37*
G36*
X160199294Y197497367D02*
X160371694Y197445069D01*
X160371696Y197445068D01*
X160530583Y197360141D01*
X160530585Y197360140D01*
X160530584Y197360140D01*
X160669849Y197245849D01*
X160784140Y197106584D01*
X160869069Y196947694D01*
X160921367Y196775294D01*
X160939025Y196596000D01*
X160921367Y196416706D01*
X160869069Y196244306D01*
X160869068Y196244304D01*
X160784141Y196085417D01*
X160669849Y195946151D01*
X160530583Y195831859D01*
X160371696Y195746932D01*
X160371694Y195746931D01*
X160199294Y195694633D01*
X160064931Y195681400D01*
X159975069Y195681400D01*
X159840706Y195694633D01*
X159668306Y195746931D01*
X159668304Y195746932D01*
X159509417Y195831859D01*
X159370151Y195946151D01*
X159255859Y196085417D01*
X159170932Y196244304D01*
X159170931Y196244306D01*
X159118633Y196416706D01*
X159100975Y196596000D01*
X159118633Y196775294D01*
X159170931Y196947694D01*
X159255860Y197106584D01*
X159370151Y197245849D01*
X159509416Y197360140D01*
X159509415Y197360140D01*
X159509417Y197360141D01*
X159668304Y197445068D01*
X159668306Y197445069D01*
X159840706Y197497367D01*
X159975069Y197510600D01*
X160064931Y197510600D01*
X160199294Y197497367D01*
X160199294Y197497367D01*
G37*
G36*
X157659294Y197497367D02*
X157831694Y197445069D01*
X157831696Y197445068D01*
X157990583Y197360141D01*
X157990585Y197360140D01*
X157990584Y197360140D01*
X158129849Y197245849D01*
X158244140Y197106584D01*
X158329069Y196947694D01*
X158381367Y196775294D01*
X158399025Y196596000D01*
X158381367Y196416706D01*
X158329069Y196244306D01*
X158329068Y196244304D01*
X158244141Y196085417D01*
X158129849Y195946151D01*
X157990583Y195831859D01*
X157831696Y195746932D01*
X157831694Y195746931D01*
X157659294Y195694633D01*
X157524931Y195681400D01*
X157435069Y195681400D01*
X157300706Y195694633D01*
X157128306Y195746931D01*
X157128304Y195746932D01*
X156969417Y195831859D01*
X156830151Y195946151D01*
X156715859Y196085417D01*
X156630932Y196244304D01*
X156630931Y196244306D01*
X156578633Y196416706D01*
X156560975Y196596000D01*
X156578633Y196775294D01*
X156630931Y196947694D01*
X156715860Y197106584D01*
X156830151Y197245849D01*
X156969416Y197360140D01*
X156969415Y197360140D01*
X156969417Y197360141D01*
X157128304Y197445068D01*
X157128306Y197445069D01*
X157300706Y197497367D01*
X157435069Y197510600D01*
X157524931Y197510600D01*
X157659294Y197497367D01*
X157659294Y197497367D01*
G37*
G36*
X155119294Y197497367D02*
X155291694Y197445069D01*
X155291696Y197445068D01*
X155450583Y197360141D01*
X155450585Y197360140D01*
X155450584Y197360140D01*
X155589849Y197245849D01*
X155704140Y197106584D01*
X155789069Y196947694D01*
X155841367Y196775294D01*
X155859025Y196596000D01*
X155841367Y196416706D01*
X155789069Y196244306D01*
X155789068Y196244304D01*
X155704141Y196085417D01*
X155589849Y195946151D01*
X155450583Y195831859D01*
X155291696Y195746932D01*
X155291694Y195746931D01*
X155119294Y195694633D01*
X154984931Y195681400D01*
X154895069Y195681400D01*
X154760706Y195694633D01*
X154588306Y195746931D01*
X154588304Y195746932D01*
X154429417Y195831859D01*
X154290151Y195946151D01*
X154175859Y196085417D01*
X154090932Y196244304D01*
X154090931Y196244306D01*
X154038633Y196416706D01*
X154020975Y196596000D01*
X154038633Y196775294D01*
X154090931Y196947694D01*
X154175860Y197106584D01*
X154290151Y197245849D01*
X154429416Y197360140D01*
X154429415Y197360140D01*
X154429417Y197360141D01*
X154588304Y197445068D01*
X154588306Y197445069D01*
X154760706Y197497367D01*
X154895069Y197510600D01*
X154984931Y197510600D01*
X155119294Y197497367D01*
X155119294Y197497367D01*
G37*
G36*
X152579294Y197497367D02*
X152751694Y197445069D01*
X152751696Y197445068D01*
X152910583Y197360141D01*
X152910585Y197360140D01*
X152910584Y197360140D01*
X153049849Y197245849D01*
X153164140Y197106584D01*
X153249069Y196947694D01*
X153301367Y196775294D01*
X153319025Y196596000D01*
X153301367Y196416706D01*
X153249069Y196244306D01*
X153249068Y196244304D01*
X153164141Y196085417D01*
X153049849Y195946151D01*
X152910583Y195831859D01*
X152751696Y195746932D01*
X152751694Y195746931D01*
X152579294Y195694633D01*
X152444931Y195681400D01*
X152355069Y195681400D01*
X152220706Y195694633D01*
X152048306Y195746931D01*
X152048304Y195746932D01*
X151889417Y195831859D01*
X151750151Y195946151D01*
X151635859Y196085417D01*
X151550932Y196244304D01*
X151550931Y196244306D01*
X151498633Y196416706D01*
X151480975Y196596000D01*
X151498633Y196775294D01*
X151550931Y196947694D01*
X151635860Y197106584D01*
X151750151Y197245849D01*
X151889416Y197360140D01*
X151889415Y197360140D01*
X151889417Y197360141D01*
X152048304Y197445068D01*
X152048306Y197445069D01*
X152220706Y197497367D01*
X152355069Y197510600D01*
X152444931Y197510600D01*
X152579294Y197497367D01*
X152579294Y197497367D01*
G37*
G36*
X150774600Y195681400D02*
X148945400Y195681400D01*
X148945400Y197510600D01*
X150774600Y197510600D01*
X150774600Y195681400D01*
X150774600Y195681400D01*
G37*
G36*
X177205420Y202201857D02*
X177337556Y202161773D01*
X177337558Y202161772D01*
X177459338Y202096680D01*
X177459340Y202096679D01*
X177459339Y202096679D01*
X177566078Y202009082D01*
X177566080Y202009079D01*
X177653680Y201902339D01*
X177718772Y201780559D01*
X177718773Y201780557D01*
X177758857Y201648421D01*
X177769000Y201545432D01*
X177769000Y200776568D01*
X177758857Y200673579D01*
X177718773Y200541443D01*
X177718772Y200541441D01*
X177653680Y200419661D01*
X177566080Y200312920D01*
X177459339Y200225320D01*
X177337559Y200160228D01*
X177337557Y200160227D01*
X177205421Y200120143D01*
X177068000Y200106609D01*
X176930580Y200120143D01*
X176798444Y200160227D01*
X176798442Y200160228D01*
X176676662Y200225320D01*
X176569921Y200312920D01*
X176482321Y200419661D01*
X176417229Y200541441D01*
X176417228Y200541442D01*
X176377143Y200673581D01*
X176367000Y200776568D01*
X176367000Y201545431D01*
X176377143Y201648420D01*
X176417227Y201780556D01*
X176417229Y201780559D01*
X176482320Y201902338D01*
X176493883Y201916427D01*
X176569918Y202009078D01*
X176599910Y202033691D01*
X176676661Y202096680D01*
X176798441Y202161772D01*
X176798443Y202161773D01*
X176930579Y202201857D01*
X177068000Y202215391D01*
X177205420Y202201857D01*
X177205420Y202201857D01*
G37*
G36*
X166905420Y202201857D02*
X167037556Y202161773D01*
X167037558Y202161772D01*
X167159338Y202096680D01*
X167159340Y202096679D01*
X167159339Y202096679D01*
X167266078Y202009082D01*
X167266080Y202009079D01*
X167353680Y201902339D01*
X167418772Y201780559D01*
X167418773Y201780557D01*
X167458857Y201648421D01*
X167469000Y201545432D01*
X167469000Y200776568D01*
X167458857Y200673579D01*
X167418773Y200541443D01*
X167418772Y200541441D01*
X167353680Y200419661D01*
X167266080Y200312920D01*
X167159339Y200225320D01*
X167037559Y200160228D01*
X167037557Y200160227D01*
X166905421Y200120143D01*
X166768000Y200106609D01*
X166630580Y200120143D01*
X166498444Y200160227D01*
X166498442Y200160228D01*
X166376662Y200225320D01*
X166269921Y200312920D01*
X166182321Y200419661D01*
X166117229Y200541441D01*
X166117228Y200541442D01*
X166077143Y200673581D01*
X166067000Y200776568D01*
X166067000Y201545431D01*
X166077143Y201648420D01*
X166117227Y201780556D01*
X166117229Y201780559D01*
X166182320Y201902338D01*
X166193883Y201916427D01*
X166269918Y202009078D01*
X166299910Y202033691D01*
X166376661Y202096680D01*
X166498441Y202161772D01*
X166498443Y202161773D01*
X166630579Y202201857D01*
X166768000Y202215391D01*
X166905420Y202201857D01*
X166905420Y202201857D01*
G37*
G36*
X148363420Y202201857D02*
X148495556Y202161773D01*
X148495558Y202161772D01*
X148617338Y202096680D01*
X148617340Y202096679D01*
X148617339Y202096679D01*
X148724078Y202009082D01*
X148724080Y202009079D01*
X148811680Y201902339D01*
X148876772Y201780559D01*
X148876773Y201780557D01*
X148916857Y201648421D01*
X148927000Y201545432D01*
X148927000Y200776568D01*
X148916857Y200673579D01*
X148876773Y200541443D01*
X148876772Y200541441D01*
X148811680Y200419661D01*
X148724080Y200312920D01*
X148617339Y200225320D01*
X148495559Y200160228D01*
X148495557Y200160227D01*
X148363421Y200120143D01*
X148226000Y200106609D01*
X148088580Y200120143D01*
X147956444Y200160227D01*
X147956442Y200160228D01*
X147834662Y200225320D01*
X147727921Y200312920D01*
X147640321Y200419661D01*
X147575229Y200541441D01*
X147575228Y200541442D01*
X147535143Y200673581D01*
X147525000Y200776568D01*
X147525000Y201545431D01*
X147535143Y201648420D01*
X147575227Y201780556D01*
X147575229Y201780559D01*
X147640320Y201902338D01*
X147651883Y201916427D01*
X147727918Y202009078D01*
X147757910Y202033691D01*
X147834661Y202096680D01*
X147956441Y202161772D01*
X147956443Y202161773D01*
X148088579Y202201857D01*
X148226000Y202215391D01*
X148363420Y202201857D01*
X148363420Y202201857D01*
G37*
G36*
X158663420Y202201857D02*
X158795556Y202161773D01*
X158795558Y202161772D01*
X158917338Y202096680D01*
X158917340Y202096679D01*
X158917339Y202096679D01*
X159024078Y202009082D01*
X159024080Y202009079D01*
X159111680Y201902339D01*
X159176772Y201780559D01*
X159176773Y201780557D01*
X159216857Y201648421D01*
X159227000Y201545432D01*
X159227000Y200776568D01*
X159216857Y200673579D01*
X159176773Y200541443D01*
X159176772Y200541441D01*
X159111680Y200419661D01*
X159024080Y200312920D01*
X158917339Y200225320D01*
X158795559Y200160228D01*
X158795557Y200160227D01*
X158663421Y200120143D01*
X158526000Y200106609D01*
X158388580Y200120143D01*
X158256444Y200160227D01*
X158256442Y200160228D01*
X158134662Y200225320D01*
X158027921Y200312920D01*
X157940321Y200419661D01*
X157875229Y200541441D01*
X157875228Y200541442D01*
X157835143Y200673581D01*
X157825000Y200776568D01*
X157825000Y201545431D01*
X157835143Y201648420D01*
X157875227Y201780556D01*
X157875229Y201780559D01*
X157940320Y201902338D01*
X157951883Y201916427D01*
X158027918Y202009078D01*
X158057910Y202033691D01*
X158134661Y202096680D01*
X158256441Y202161772D01*
X158256443Y202161773D01*
X158388579Y202201857D01*
X158526000Y202215391D01*
X158663420Y202201857D01*
X158663420Y202201857D01*
G37*
G36*
X160272589Y206628124D02*
X160371893Y206608371D01*
X160512206Y206550252D01*
X160638484Y206465875D01*
X160745875Y206358484D01*
X160830252Y206232206D01*
X160888371Y206091893D01*
X160918000Y205942937D01*
X160918000Y205791063D01*
X160888371Y205642107D01*
X160830252Y205501794D01*
X160745875Y205375516D01*
X160638484Y205268125D01*
X160512206Y205183748D01*
X160371893Y205125629D01*
X160272589Y205105876D01*
X160222938Y205096000D01*
X160071062Y205096000D01*
X160021411Y205105876D01*
X159922107Y205125629D01*
X159781794Y205183748D01*
X159655516Y205268125D01*
X159548125Y205375516D01*
X159463748Y205501794D01*
X159405629Y205642107D01*
X159376000Y205791063D01*
X159376000Y205942937D01*
X159405629Y206091893D01*
X159463748Y206232206D01*
X159548125Y206358484D01*
X159655516Y206465875D01*
X159781794Y206550252D01*
X159922107Y206608371D01*
X160021411Y206628124D01*
X160071062Y206638000D01*
X160222938Y206638000D01*
X160272589Y206628124D01*
X160272589Y206628124D01*
G37*
G36*
X165352589Y206628124D02*
X165451893Y206608371D01*
X165592206Y206550252D01*
X165718484Y206465875D01*
X165825875Y206358484D01*
X165910252Y206232206D01*
X165968371Y206091893D01*
X165998000Y205942937D01*
X165998000Y205791063D01*
X165968371Y205642107D01*
X165910252Y205501794D01*
X165825875Y205375516D01*
X165718484Y205268125D01*
X165592206Y205183748D01*
X165451893Y205125629D01*
X165352589Y205105876D01*
X165302938Y205096000D01*
X165151062Y205096000D01*
X165101411Y205105876D01*
X165002107Y205125629D01*
X164861794Y205183748D01*
X164735516Y205268125D01*
X164628125Y205375516D01*
X164543748Y205501794D01*
X164485629Y205642107D01*
X164456000Y205791063D01*
X164456000Y205942937D01*
X164485629Y206091893D01*
X164543748Y206232206D01*
X164628125Y206358484D01*
X164735516Y206465875D01*
X164861794Y206550252D01*
X165002107Y206608371D01*
X165101411Y206628124D01*
X165151062Y206638000D01*
X165302938Y206638000D01*
X165352589Y206628124D01*
X165352589Y206628124D01*
G37*
G36*
X162812589Y206628124D02*
X162911893Y206608371D01*
X163052206Y206550252D01*
X163178484Y206465875D01*
X163285875Y206358484D01*
X163370252Y206232206D01*
X163428371Y206091893D01*
X163458000Y205942937D01*
X163458000Y205791063D01*
X163428371Y205642107D01*
X163370252Y205501794D01*
X163285875Y205375516D01*
X163178484Y205268125D01*
X163052206Y205183748D01*
X162911893Y205125629D01*
X162812589Y205105876D01*
X162762938Y205096000D01*
X162611062Y205096000D01*
X162561411Y205105876D01*
X162462107Y205125629D01*
X162321794Y205183748D01*
X162195516Y205268125D01*
X162088125Y205375516D01*
X162003748Y205501794D01*
X161945629Y205642107D01*
X161916000Y205791063D01*
X161916000Y205942937D01*
X161945629Y206091893D01*
X162003748Y206232206D01*
X162088125Y206358484D01*
X162195516Y206465875D01*
X162321794Y206550252D01*
X162462107Y206608371D01*
X162561411Y206628124D01*
X162611062Y206638000D01*
X162762938Y206638000D01*
X162812589Y206628124D01*
X162812589Y206628124D01*
G37*
G36*
X153653396Y209575454D02*
X153826466Y209503766D01*
X153982230Y209399688D01*
X154114688Y209267230D01*
X154218766Y209111466D01*
X154290454Y208938396D01*
X154327000Y208754667D01*
X154327000Y208567333D01*
X154290454Y208383604D01*
X154218766Y208210534D01*
X154114688Y208054770D01*
X153982230Y207922312D01*
X153826466Y207818234D01*
X153653396Y207746546D01*
X153469667Y207710000D01*
X153282333Y207710000D01*
X153098604Y207746546D01*
X152925534Y207818234D01*
X152769770Y207922312D01*
X152637312Y208054770D01*
X152533234Y208210534D01*
X152461546Y208383604D01*
X152425000Y208567333D01*
X152425000Y208754667D01*
X152461546Y208938396D01*
X152533234Y209111466D01*
X152637312Y209267230D01*
X152769770Y209399688D01*
X152925534Y209503766D01*
X153098604Y209575454D01*
X153282333Y209612000D01*
X153469667Y209612000D01*
X153653396Y209575454D01*
X153653396Y209575454D01*
G37*
G36*
X172195396Y209575454D02*
X172368466Y209503766D01*
X172524230Y209399688D01*
X172656688Y209267230D01*
X172760766Y209111466D01*
X172832454Y208938396D01*
X172869000Y208754667D01*
X172869000Y208567333D01*
X172832454Y208383604D01*
X172760766Y208210534D01*
X172656688Y208054770D01*
X172524230Y207922312D01*
X172368466Y207818234D01*
X172195396Y207746546D01*
X172011667Y207710000D01*
X171824333Y207710000D01*
X171640604Y207746546D01*
X171467534Y207818234D01*
X171311770Y207922312D01*
X171179312Y208054770D01*
X171075234Y208210534D01*
X171003546Y208383604D01*
X170967000Y208567333D01*
X170967000Y208754667D01*
X171003546Y208938396D01*
X171075234Y209111466D01*
X171179312Y209267230D01*
X171311770Y209399688D01*
X171467534Y209503766D01*
X171640604Y209575454D01*
X171824333Y209612000D01*
X172011667Y209612000D01*
X172195396Y209575454D01*
X172195396Y209575454D01*
G37*
G36*
X156153396Y209575454D02*
X156326466Y209503766D01*
X156482230Y209399688D01*
X156614688Y209267230D01*
X156718766Y209111466D01*
X156790454Y208938396D01*
X156827000Y208754667D01*
X156827000Y208567333D01*
X156790454Y208383604D01*
X156718766Y208210534D01*
X156614688Y208054770D01*
X156482230Y207922312D01*
X156326466Y207818234D01*
X156153396Y207746546D01*
X155969667Y207710000D01*
X155782333Y207710000D01*
X155598604Y207746546D01*
X155425534Y207818234D01*
X155269770Y207922312D01*
X155137312Y208054770D01*
X155033234Y208210534D01*
X154961546Y208383604D01*
X154925000Y208567333D01*
X154925000Y208754667D01*
X154961546Y208938396D01*
X155033234Y209111466D01*
X155137312Y209267230D01*
X155269770Y209399688D01*
X155425534Y209503766D01*
X155598604Y209575454D01*
X155782333Y209612000D01*
X155969667Y209612000D01*
X156153396Y209575454D01*
X156153396Y209575454D01*
G37*
G36*
X169695396Y209575454D02*
X169868466Y209503766D01*
X170024230Y209399688D01*
X170156688Y209267230D01*
X170260766Y209111466D01*
X170332454Y208938396D01*
X170369000Y208754667D01*
X170369000Y208567333D01*
X170332454Y208383604D01*
X170260766Y208210534D01*
X170156688Y208054770D01*
X170024230Y207922312D01*
X169868466Y207818234D01*
X169695396Y207746546D01*
X169511667Y207710000D01*
X169324333Y207710000D01*
X169140604Y207746546D01*
X168967534Y207818234D01*
X168811770Y207922312D01*
X168679312Y208054770D01*
X168575234Y208210534D01*
X168503546Y208383604D01*
X168467000Y208567333D01*
X168467000Y208754667D01*
X168503546Y208938396D01*
X168575234Y209111466D01*
X168679312Y209267230D01*
X168811770Y209399688D01*
X168967534Y209503766D01*
X169140604Y209575454D01*
X169324333Y209612000D01*
X169511667Y209612000D01*
X169695396Y209575454D01*
X169695396Y209575454D01*
G37*
G36*
X174695396Y209575454D02*
X174868466Y209503766D01*
X175024230Y209399688D01*
X175156688Y209267230D01*
X175260766Y209111466D01*
X175332454Y208938396D01*
X175369000Y208754667D01*
X175369000Y208567333D01*
X175332454Y208383604D01*
X175260766Y208210534D01*
X175156688Y208054770D01*
X175024230Y207922312D01*
X174868466Y207818234D01*
X174695396Y207746546D01*
X174511667Y207710000D01*
X174324333Y207710000D01*
X174140604Y207746546D01*
X173967534Y207818234D01*
X173811770Y207922312D01*
X173679312Y208054770D01*
X173575234Y208210534D01*
X173503546Y208383604D01*
X173467000Y208567333D01*
X173467000Y208754667D01*
X173503546Y208938396D01*
X173575234Y209111466D01*
X173679312Y209267230D01*
X173811770Y209399688D01*
X173967534Y209503766D01*
X174140604Y209575454D01*
X174324333Y209612000D01*
X174511667Y209612000D01*
X174695396Y209575454D01*
X174695396Y209575454D01*
G37*
G36*
X151153396Y209575454D02*
X151326466Y209503766D01*
X151482230Y209399688D01*
X151614688Y209267230D01*
X151718766Y209111466D01*
X151790454Y208938396D01*
X151827000Y208754667D01*
X151827000Y208567333D01*
X151790454Y208383604D01*
X151718766Y208210534D01*
X151614688Y208054770D01*
X151482230Y207922312D01*
X151326466Y207818234D01*
X151153396Y207746546D01*
X150969667Y207710000D01*
X150782333Y207710000D01*
X150598604Y207746546D01*
X150425534Y207818234D01*
X150269770Y207922312D01*
X150137312Y208054770D01*
X150033234Y208210534D01*
X149961546Y208383604D01*
X149925000Y208567333D01*
X149925000Y208754667D01*
X149961546Y208938396D01*
X150033234Y209111466D01*
X150137312Y209267230D01*
X150269770Y209399688D01*
X150425534Y209503766D01*
X150598604Y209575454D01*
X150782333Y209612000D01*
X150969667Y209612000D01*
X151153396Y209575454D01*
X151153396Y209575454D01*
G37*
M02*
