G04 #@! TF.GenerationSoftware,KiCad,Pcbnew,(5.0.1)-4*
G04 #@! TF.CreationDate,2019-03-05T01:35:27-06:00*
G04 #@! TF.ProjectId,VCO,56434F2E6B696361645F706362000000,rev?*
G04 #@! TF.SameCoordinates,Original*
G04 #@! TF.FileFunction,Other,User*
%FSLAX46Y46*%
G04 Gerber Fmt 4.6, Leading zero omitted, Abs format (unit mm)*
G04 Created by KiCad (PCBNEW (5.0.1)-4) date 3/5/2019 1:35:27*
%MOMM*%
%LPD*%
G01*
G04 APERTURE LIST*
%ADD10C,0.050000*%
G04 APERTURE END LIST*
D10*
G04 #@! TO.C,J9*
X165312000Y135556000D02*
X180142000Y135556000D01*
X165312000Y125556000D02*
X180142000Y125556000D01*
X165312000Y125556000D02*
X165312000Y135556000D01*
X180142000Y125556000D02*
X180142000Y135556000D01*
G04 #@! TO.C,RV39*
X165348000Y155314000D02*
X178648000Y155314000D01*
X178648000Y155314000D02*
X178648000Y169114000D01*
X178648000Y169114000D02*
X165348000Y169114000D01*
X165348000Y169114000D02*
X165348000Y155314000D01*
G04 #@! TO.C,RV3*
X178568000Y209811000D02*
X165268000Y209811000D01*
X165268000Y209811000D02*
X165268000Y196011000D01*
X165268000Y196011000D02*
X178568000Y196011000D01*
X178568000Y196011000D02*
X178568000Y209811000D01*
G04 #@! TO.C,RV2*
X160026000Y209811000D02*
X146726000Y209811000D01*
X146726000Y209811000D02*
X146726000Y196011000D01*
X146726000Y196011000D02*
X160026000Y196011000D01*
X160026000Y196011000D02*
X160026000Y209811000D01*
G04 #@! TO.C,J1*
X158416000Y190556000D02*
X148416000Y190556000D01*
X158416000Y175726000D02*
X148416000Y175726000D01*
X158416000Y175726000D02*
X158416000Y190556000D01*
X148416000Y175726000D02*
X148416000Y190556000D01*
G04 #@! TO.C,J2*
X148416000Y157057000D02*
X148416000Y171887000D01*
X158416000Y157057000D02*
X158416000Y171887000D01*
X158416000Y157057000D02*
X148416000Y157057000D01*
X158416000Y171887000D02*
X148416000Y171887000D01*
G04 #@! TO.C,J3*
X160062000Y99267000D02*
X145232000Y99267000D01*
X160062000Y109267000D02*
X145232000Y109267000D01*
X160062000Y109267000D02*
X160062000Y99267000D01*
X145232000Y109267000D02*
X145232000Y99267000D01*
G04 #@! TO.C,J4*
X160062000Y138510000D02*
X145232000Y138510000D01*
X160062000Y148510000D02*
X145232000Y148510000D01*
X160062000Y148510000D02*
X160062000Y138510000D01*
X145232000Y148510000D02*
X145232000Y138510000D01*
G04 #@! TO.C,J5*
X145232000Y135556000D02*
X145232000Y125556000D01*
X160062000Y135556000D02*
X160062000Y125556000D01*
X160062000Y135556000D02*
X145232000Y135556000D01*
X160062000Y125556000D02*
X145232000Y125556000D01*
G04 #@! TO.C,J6*
X160062000Y112348000D02*
X145232000Y112348000D01*
X160062000Y122348000D02*
X145232000Y122348000D01*
X160062000Y122348000D02*
X160062000Y112348000D01*
X145232000Y122348000D02*
X145232000Y112348000D01*
G04 #@! TO.C,J7*
X180142000Y99394000D02*
X180142000Y109394000D01*
X165312000Y99394000D02*
X165312000Y109394000D01*
X165312000Y99394000D02*
X180142000Y99394000D01*
X165312000Y109394000D02*
X180142000Y109394000D01*
G04 #@! TO.C,J8*
X180142000Y112348000D02*
X180142000Y122348000D01*
X165312000Y112348000D02*
X165312000Y122348000D01*
X165312000Y112348000D02*
X180142000Y112348000D01*
X165312000Y122348000D02*
X180142000Y122348000D01*
G04 #@! TO.C,J10*
X180142000Y138510000D02*
X180142000Y148510000D01*
X165312000Y138510000D02*
X165312000Y148510000D01*
X165312000Y138510000D02*
X180142000Y138510000D01*
X165312000Y148510000D02*
X180142000Y148510000D01*
G04 #@! TD*
M02*
