G04 #@! TF.GenerationSoftware,KiCad,Pcbnew,(5.0.1)-4*
G04 #@! TF.CreationDate,2019-03-05T01:35:27-06:00*
G04 #@! TF.ProjectId,VCO,56434F2E6B696361645F706362000000,rev?*
G04 #@! TF.SameCoordinates,Original*
G04 #@! TF.FileFunction,Other,User*
%FSLAX46Y46*%
G04 Gerber Fmt 4.6, Leading zero omitted, Abs format (unit mm)*
G04 Created by KiCad (PCBNEW (5.0.1)-4) date 3/5/2019 1:35:27*
%MOMM*%
%LPD*%
G01*
G04 APERTURE LIST*
%ADD10C,0.050000*%
G04 APERTURE END LIST*
D10*
G04 #@! TO.C,C7*
X145889000Y202171000D02*
X145889000Y203221000D01*
X147989000Y202171000D02*
X145889000Y202171000D01*
X147989000Y203221000D02*
X147989000Y202171000D01*
X145889000Y203221000D02*
X145189000Y203221000D01*
X148689000Y203221000D02*
X147989000Y203221000D01*
X148689000Y203221000D02*
X149839000Y204371000D01*
X145189000Y203221000D02*
X144039000Y204371000D01*
X149839000Y204371000D02*
X149839000Y209021000D01*
X144039000Y204371000D02*
X144039000Y209021000D01*
X145889000Y209021000D02*
X144039000Y209021000D01*
X145889000Y210071000D02*
X145889000Y209021000D01*
X147989000Y210071000D02*
X145889000Y210071000D01*
X147989000Y209021000D02*
X147989000Y210071000D01*
X149839000Y209021000D02*
X147989000Y209021000D01*
G04 #@! TO.C,C10*
X146905000Y182359000D02*
X146905000Y183409000D01*
X149005000Y182359000D02*
X146905000Y182359000D01*
X149005000Y183409000D02*
X149005000Y182359000D01*
X146905000Y183409000D02*
X146205000Y183409000D01*
X149705000Y183409000D02*
X149005000Y183409000D01*
X149705000Y183409000D02*
X150855000Y184559000D01*
X146205000Y183409000D02*
X145055000Y184559000D01*
X150855000Y184559000D02*
X150855000Y189209000D01*
X145055000Y184559000D02*
X145055000Y189209000D01*
X146905000Y189209000D02*
X145055000Y189209000D01*
X146905000Y190259000D02*
X146905000Y189209000D01*
X149005000Y190259000D02*
X146905000Y190259000D01*
X149005000Y189209000D02*
X149005000Y190259000D01*
X150855000Y189209000D02*
X149005000Y189209000D01*
G04 #@! TO.C,U1*
X165632652Y114321128D02*
X165632652Y106861128D01*
X160232652Y114321128D02*
X160232652Y106861128D01*
X160232652Y106861128D02*
X165632652Y106861128D01*
X160232652Y114321128D02*
X165632652Y114321128D01*
G04 #@! TO.C,RV5*
X174211000Y186797000D02*
X179611000Y186797000D01*
X179611000Y186797000D02*
X179611000Y176697000D01*
X179611000Y176697000D02*
X174211000Y176697000D01*
X174211000Y176697000D02*
X174211000Y186797000D01*
G04 #@! TO.C,U4*
X173753000Y187501000D02*
X166353000Y187501000D01*
X173753000Y196801000D02*
X166353000Y196801000D01*
X166353000Y196801000D02*
X166353000Y187501000D01*
X173753000Y196801000D02*
X173753000Y187501000D01*
G04 #@! TO.C,U2*
X150966633Y134147529D02*
X150966633Y139547529D01*
X158426633Y134147529D02*
X158426633Y139547529D01*
X150966633Y134147529D02*
X158426633Y134147529D01*
X150966633Y139547529D02*
X158426633Y139547529D01*
G04 #@! TO.C,R12*
X150355633Y134151877D02*
X150355633Y139051877D01*
X148115633Y134151877D02*
X150355633Y134151877D01*
X148115633Y139051877D02*
X148115633Y134151877D01*
X150355633Y139051877D02*
X148115633Y139051877D01*
G04 #@! TO.C,R35*
X171487000Y160378000D02*
X166587000Y160378000D01*
X171487000Y158138000D02*
X171487000Y160378000D01*
X166587000Y158138000D02*
X171487000Y158138000D01*
X166587000Y160378000D02*
X166587000Y158138000D01*
G04 #@! TO.C,U3*
X165514000Y128190000D02*
X165514000Y120730000D01*
X160114000Y128190000D02*
X160114000Y120730000D01*
X160114000Y120730000D02*
X165514000Y120730000D01*
X160114000Y128190000D02*
X165514000Y128190000D01*
G04 #@! TO.C,R24*
X156582872Y123078652D02*
X156582872Y126078652D01*
X156582872Y126078652D02*
X168842872Y126078652D01*
X168842872Y126078652D02*
X168842872Y123078652D01*
X168842872Y123078652D02*
X156582872Y123078652D01*
G04 #@! TO.C,Q1*
X159068000Y139382000D02*
X159068000Y133922000D01*
X159068000Y139382000D02*
X163808000Y139382000D01*
X163808000Y133922000D02*
X159068000Y133922000D01*
X163808000Y133922000D02*
X163808000Y139382000D01*
G04 #@! TO.C,C1*
X174588000Y194160000D02*
X174588000Y191920000D01*
X174588000Y191920000D02*
X179488000Y191920000D01*
X179488000Y191920000D02*
X179488000Y194160000D01*
X179488000Y194160000D02*
X174588000Y194160000D01*
G04 #@! TO.C,C2*
X164823000Y184875000D02*
X164823000Y189775000D01*
X162583000Y184875000D02*
X164823000Y184875000D01*
X162583000Y189775000D02*
X162583000Y184875000D01*
X164823000Y189775000D02*
X162583000Y189775000D01*
G04 #@! TO.C,C3*
X165382652Y101851128D02*
X165382652Y104091128D01*
X165382652Y104091128D02*
X160482652Y104091128D01*
X160482652Y104091128D02*
X160482652Y101851128D01*
X160482652Y101851128D02*
X165382652Y101851128D01*
G04 #@! TO.C,C4*
X163613000Y157457000D02*
X158713000Y157457000D01*
X163613000Y155217000D02*
X163613000Y157457000D01*
X158713000Y155217000D02*
X163613000Y155217000D01*
X158713000Y157457000D02*
X158713000Y155217000D01*
G04 #@! TO.C,C5*
X151802000Y176299000D02*
X151802000Y178539000D01*
X151802000Y178539000D02*
X146902000Y178539000D01*
X146902000Y178539000D02*
X146902000Y176299000D01*
X146902000Y176299000D02*
X151802000Y176299000D01*
G04 #@! TO.C,C6*
X147942633Y139051877D02*
X145702633Y139051877D01*
X145702633Y139051877D02*
X145702633Y134151877D01*
X145702633Y134151877D02*
X147942633Y134151877D01*
X147942633Y134151877D02*
X147942633Y139051877D01*
G04 #@! TO.C,C8*
X160482652Y106377128D02*
X160482652Y104137128D01*
X160482652Y104137128D02*
X165382652Y104137128D01*
X165382652Y104137128D02*
X165382652Y106377128D01*
X165382652Y106377128D02*
X160482652Y106377128D01*
G04 #@! TO.C,C12*
X178853000Y158011000D02*
X178853000Y160251000D01*
X178853000Y160251000D02*
X173953000Y160251000D01*
X173953000Y160251000D02*
X173953000Y158011000D01*
X173953000Y158011000D02*
X178853000Y158011000D01*
G04 #@! TO.C,C13*
X163158000Y160424000D02*
X168058000Y160424000D01*
X163158000Y162664000D02*
X163158000Y160424000D01*
X168058000Y162664000D02*
X163158000Y162664000D01*
X168058000Y160424000D02*
X168058000Y162664000D01*
G04 #@! TO.C,C14*
X150532000Y141582000D02*
X145632000Y141582000D01*
X150532000Y139342000D02*
X150532000Y141582000D01*
X145632000Y139342000D02*
X150532000Y139342000D01*
X145632000Y141582000D02*
X145632000Y139342000D01*
G04 #@! TO.C,C15*
X165250000Y154850000D02*
X165250000Y149950000D01*
X167490000Y154850000D02*
X165250000Y154850000D01*
X167490000Y149950000D02*
X167490000Y154850000D01*
X165250000Y149950000D02*
X167490000Y149950000D01*
G04 #@! TO.C,C16*
X156822000Y154850000D02*
X154582000Y154850000D01*
X154582000Y154850000D02*
X154582000Y149950000D01*
X154582000Y149950000D02*
X156822000Y149950000D01*
X156822000Y149950000D02*
X156822000Y154850000D01*
G04 #@! TO.C,C17*
X177823000Y139102000D02*
X177823000Y134202000D01*
X180063000Y139102000D02*
X177823000Y139102000D01*
X180063000Y134202000D02*
X180063000Y139102000D01*
X177823000Y134202000D02*
X180063000Y134202000D01*
G04 #@! TO.C,C18*
X170919000Y134202000D02*
X170919000Y139102000D01*
X168679000Y134202000D02*
X170919000Y134202000D01*
X168679000Y139102000D02*
X168679000Y134202000D01*
X170919000Y139102000D02*
X168679000Y139102000D01*
G04 #@! TO.C,C19*
X160237000Y115212000D02*
X165137000Y115212000D01*
X160237000Y117452000D02*
X160237000Y115212000D01*
X165137000Y117452000D02*
X160237000Y117452000D01*
X165137000Y115212000D02*
X165137000Y117452000D01*
G04 #@! TO.C,D1*
X176967402Y123946170D02*
X176967402Y119046170D01*
X179207402Y123946170D02*
X176967402Y123946170D01*
X179207402Y119046170D02*
X179207402Y123946170D01*
X176967402Y119046170D02*
X179207402Y119046170D01*
G04 #@! TO.C,D2*
X165444000Y199621000D02*
X165444000Y197381000D01*
X165444000Y197381000D02*
X170344000Y197381000D01*
X170344000Y197381000D02*
X170344000Y199621000D01*
X170344000Y199621000D02*
X165444000Y199621000D01*
G04 #@! TO.C,D3*
X175297000Y199621000D02*
X170397000Y199621000D01*
X175297000Y197381000D02*
X175297000Y199621000D01*
X170397000Y197381000D02*
X175297000Y197381000D01*
X170397000Y199621000D02*
X170397000Y197381000D01*
G04 #@! TO.C,D4*
X169776000Y149950000D02*
X169776000Y154850000D01*
X167536000Y149950000D02*
X169776000Y149950000D01*
X167536000Y154850000D02*
X167536000Y149950000D01*
X169776000Y154850000D02*
X167536000Y154850000D01*
G04 #@! TO.C,D5*
X174394000Y149950000D02*
X176634000Y149950000D01*
X176634000Y149950000D02*
X176634000Y154850000D01*
X176634000Y154850000D02*
X174394000Y154850000D01*
X174394000Y154850000D02*
X174394000Y149950000D01*
G04 #@! TO.C,D6*
X174348000Y149950000D02*
X174348000Y154850000D01*
X172108000Y149950000D02*
X174348000Y149950000D01*
X172108000Y154850000D02*
X172108000Y149950000D01*
X174348000Y154850000D02*
X172108000Y154850000D01*
G04 #@! TO.C,D7*
X169822000Y149950000D02*
X172062000Y149950000D01*
X172062000Y149950000D02*
X172062000Y154850000D01*
X172062000Y154850000D02*
X169822000Y154850000D01*
X169822000Y154850000D02*
X169822000Y149950000D01*
G04 #@! TO.C,D8*
X175491000Y139102000D02*
X173251000Y139102000D01*
X173251000Y139102000D02*
X173251000Y134202000D01*
X173251000Y134202000D02*
X175491000Y134202000D01*
X175491000Y134202000D02*
X175491000Y139102000D01*
G04 #@! TO.C,PWR1*
X144510000Y190646000D02*
X165370000Y190646000D01*
X165370000Y190646000D02*
X165370000Y200006000D01*
X165370000Y200006000D02*
X144510000Y200006000D01*
X144510000Y200006000D02*
X144510000Y190646000D01*
G04 #@! TO.C,R1*
X159983000Y202669000D02*
X159983000Y200429000D01*
X159983000Y200429000D02*
X164883000Y200429000D01*
X164883000Y200429000D02*
X164883000Y202669000D01*
X164883000Y202669000D02*
X159983000Y202669000D01*
G04 #@! TO.C,R6*
X167984000Y186540000D02*
X167984000Y184300000D01*
X167984000Y184300000D02*
X172884000Y184300000D01*
X172884000Y184300000D02*
X172884000Y186540000D01*
X172884000Y186540000D02*
X167984000Y186540000D01*
G04 #@! TO.C,R8*
X170584000Y202147000D02*
X172824000Y202147000D01*
X172824000Y202147000D02*
X172824000Y207047000D01*
X172824000Y207047000D02*
X170584000Y207047000D01*
X170584000Y207047000D02*
X170584000Y202147000D01*
G04 #@! TO.C,R9*
X176794402Y119046170D02*
X176794402Y123946170D01*
X174554402Y119046170D02*
X176794402Y119046170D01*
X174554402Y123946170D02*
X174554402Y119046170D01*
X176794402Y123946170D02*
X174554402Y123946170D01*
G04 #@! TO.C,R10*
X152296000Y207174000D02*
X152296000Y202274000D01*
X154536000Y207174000D02*
X152296000Y207174000D01*
X154536000Y202274000D02*
X154536000Y207174000D01*
X152296000Y202274000D02*
X154536000Y202274000D01*
G04 #@! TO.C,R13*
X158011000Y189775000D02*
X158011000Y184875000D01*
X160251000Y189775000D02*
X158011000Y189775000D01*
X160251000Y184875000D02*
X160251000Y189775000D01*
X158011000Y184875000D02*
X160251000Y184875000D01*
G04 #@! TO.C,R14*
X160297000Y184875000D02*
X162537000Y184875000D01*
X162537000Y184875000D02*
X162537000Y189775000D01*
X162537000Y189775000D02*
X160297000Y189775000D01*
X160297000Y189775000D02*
X160297000Y184875000D01*
G04 #@! TO.C,R15*
X161521000Y143854000D02*
X161521000Y148754000D01*
X159281000Y143854000D02*
X161521000Y143854000D01*
X159281000Y148754000D02*
X159281000Y143854000D01*
X161521000Y148754000D02*
X159281000Y148754000D01*
G04 #@! TO.C,R17*
X160237000Y117625000D02*
X165137000Y117625000D01*
X160237000Y119865000D02*
X160237000Y117625000D01*
X165137000Y119865000D02*
X160237000Y119865000D01*
X165137000Y117625000D02*
X165137000Y119865000D01*
G04 #@! TO.C,R18*
X159729000Y129436000D02*
X164629000Y129436000D01*
X159729000Y131676000D02*
X159729000Y129436000D01*
X164629000Y131676000D02*
X159729000Y131676000D01*
X164629000Y129436000D02*
X164629000Y131676000D01*
G04 #@! TO.C,R19*
X148486000Y122518000D02*
X150726000Y122518000D01*
X150726000Y122518000D02*
X150726000Y127418000D01*
X150726000Y127418000D02*
X148486000Y127418000D01*
X148486000Y127418000D02*
X148486000Y122518000D01*
G04 #@! TO.C,R20*
X179488000Y194333000D02*
X179488000Y196573000D01*
X179488000Y196573000D02*
X174588000Y196573000D01*
X174588000Y196573000D02*
X174588000Y194333000D01*
X174588000Y194333000D02*
X179488000Y194333000D01*
G04 #@! TO.C,R21*
X167984000Y199667000D02*
X172884000Y199667000D01*
X167984000Y201907000D02*
X167984000Y199667000D01*
X172884000Y201907000D02*
X167984000Y201907000D01*
X172884000Y199667000D02*
X172884000Y201907000D01*
G04 #@! TO.C,R22*
X168379000Y115734000D02*
X166139000Y115734000D01*
X166139000Y115734000D02*
X166139000Y110834000D01*
X166139000Y110834000D02*
X168379000Y110834000D01*
X168379000Y110834000D02*
X168379000Y115734000D01*
G04 #@! TO.C,R23*
X157376000Y110834000D02*
X159616000Y110834000D01*
X159616000Y110834000D02*
X159616000Y115734000D01*
X159616000Y115734000D02*
X157376000Y115734000D01*
X157376000Y115734000D02*
X157376000Y110834000D01*
G04 #@! TO.C,R25*
X174588000Y189634000D02*
X179488000Y189634000D01*
X174588000Y191874000D02*
X174588000Y189634000D01*
X179488000Y191874000D02*
X174588000Y191874000D01*
X179488000Y189634000D02*
X179488000Y191874000D01*
G04 #@! TO.C,R26*
X171219000Y149770000D02*
X171219000Y144870000D01*
X173459000Y149770000D02*
X171219000Y149770000D01*
X173459000Y144870000D02*
X173459000Y149770000D01*
X171219000Y144870000D02*
X173459000Y144870000D01*
G04 #@! TO.C,R28*
X160491000Y101831000D02*
X160491000Y99591000D01*
X160491000Y99591000D02*
X165391000Y99591000D01*
X165391000Y99591000D02*
X165391000Y101831000D01*
X165391000Y101831000D02*
X160491000Y101831000D01*
G04 #@! TO.C,R29*
X154536000Y154850000D02*
X152296000Y154850000D01*
X152296000Y154850000D02*
X152296000Y149950000D01*
X152296000Y149950000D02*
X154536000Y149950000D01*
X154536000Y149950000D02*
X154536000Y154850000D01*
G04 #@! TO.C,R30*
X159616000Y105881000D02*
X159616000Y110781000D01*
X157376000Y105881000D02*
X159616000Y105881000D01*
X157376000Y110781000D02*
X157376000Y105881000D01*
X159616000Y110781000D02*
X157376000Y110781000D01*
G04 #@! TO.C,R31*
X154328000Y102071000D02*
X156568000Y102071000D01*
X156568000Y102071000D02*
X156568000Y106971000D01*
X156568000Y106971000D02*
X154328000Y106971000D01*
X154328000Y106971000D02*
X154328000Y102071000D01*
G04 #@! TO.C,R32*
X174588000Y189080000D02*
X174588000Y186840000D01*
X174588000Y186840000D02*
X179488000Y186840000D01*
X179488000Y186840000D02*
X179488000Y189080000D01*
X179488000Y189080000D02*
X174588000Y189080000D01*
G04 #@! TO.C,R34*
X150913000Y152677000D02*
X150913000Y154917000D01*
X150913000Y154917000D02*
X146013000Y154917000D01*
X146013000Y154917000D02*
X146013000Y152677000D01*
X146013000Y152677000D02*
X150913000Y152677000D01*
G04 #@! TO.C,R36*
X163853000Y143854000D02*
X166093000Y143854000D01*
X166093000Y143854000D02*
X166093000Y148754000D01*
X166093000Y148754000D02*
X163853000Y148754000D01*
X163853000Y148754000D02*
X163853000Y143854000D01*
G04 #@! TO.C,R40*
X157584000Y157951000D02*
X157584000Y162851000D01*
X155344000Y157951000D02*
X157584000Y157951000D01*
X155344000Y162851000D02*
X155344000Y157951000D01*
X157584000Y162851000D02*
X155344000Y162851000D01*
G04 #@! TO.C,R41*
X163807000Y143854000D02*
X163807000Y148754000D01*
X161567000Y143854000D02*
X163807000Y143854000D01*
X161567000Y148754000D02*
X161567000Y143854000D01*
X163807000Y148754000D02*
X161567000Y148754000D01*
G04 #@! TO.C,R42*
X166347000Y139102000D02*
X164107000Y139102000D01*
X164107000Y139102000D02*
X164107000Y134202000D01*
X164107000Y134202000D02*
X166347000Y134202000D01*
X166347000Y134202000D02*
X166347000Y139102000D01*
G04 #@! TO.C,R44*
X172062000Y167857000D02*
X172062000Y172757000D01*
X169822000Y167857000D02*
X172062000Y167857000D01*
X169822000Y172757000D02*
X169822000Y167857000D01*
X172062000Y172757000D02*
X169822000Y172757000D01*
G04 #@! TO.C,R45*
X165772000Y175918000D02*
X165772000Y178158000D01*
X165772000Y178158000D02*
X160872000Y178158000D01*
X160872000Y178158000D02*
X160872000Y175918000D01*
X160872000Y175918000D02*
X165772000Y175918000D01*
G04 #@! TO.C,R46*
X150913000Y152631000D02*
X146013000Y152631000D01*
X150913000Y150391000D02*
X150913000Y152631000D01*
X146013000Y150391000D02*
X150913000Y150391000D01*
X146013000Y152631000D02*
X146013000Y150391000D01*
G04 #@! TO.C,R47*
X146013000Y150345000D02*
X146013000Y148105000D01*
X146013000Y148105000D02*
X150913000Y148105000D01*
X150913000Y148105000D02*
X150913000Y150345000D01*
X150913000Y150345000D02*
X146013000Y150345000D01*
G04 #@! TO.C,R48*
X160872000Y171346000D02*
X165772000Y171346000D01*
X160872000Y173586000D02*
X160872000Y171346000D01*
X165772000Y173586000D02*
X160872000Y173586000D01*
X165772000Y171346000D02*
X165772000Y173586000D01*
G04 #@! TO.C,R49*
X168806000Y107098000D02*
X168806000Y102198000D01*
X171046000Y107098000D02*
X168806000Y107098000D01*
X171046000Y102198000D02*
X171046000Y107098000D01*
X168806000Y102198000D02*
X171046000Y102198000D01*
G04 #@! TO.C,R50*
X166393000Y134202000D02*
X168633000Y134202000D01*
X168633000Y134202000D02*
X168633000Y139102000D01*
X168633000Y139102000D02*
X166393000Y139102000D01*
X166393000Y139102000D02*
X166393000Y134202000D01*
G04 #@! TO.C,R51*
X167536000Y172757000D02*
X167536000Y167857000D01*
X169776000Y172757000D02*
X167536000Y172757000D01*
X169776000Y167857000D02*
X169776000Y172757000D01*
X167536000Y167857000D02*
X169776000Y167857000D01*
G04 #@! TO.C,R52*
X168379000Y105881000D02*
X168379000Y110781000D01*
X166139000Y105881000D02*
X168379000Y105881000D01*
X166139000Y110781000D02*
X166139000Y105881000D01*
X168379000Y110781000D02*
X166139000Y110781000D01*
G04 #@! TO.C,R53*
X165772000Y175872000D02*
X160872000Y175872000D01*
X165772000Y173632000D02*
X165772000Y175872000D01*
X160872000Y173632000D02*
X165772000Y173632000D01*
X160872000Y175872000D02*
X160872000Y173632000D01*
G04 #@! TO.C,R56*
X175110000Y207047000D02*
X172870000Y207047000D01*
X172870000Y207047000D02*
X172870000Y202147000D01*
X172870000Y202147000D02*
X175110000Y202147000D01*
X175110000Y202147000D02*
X175110000Y207047000D01*
G04 #@! TO.C,R57*
X168298000Y207047000D02*
X168298000Y202147000D01*
X170538000Y207047000D02*
X168298000Y207047000D01*
X170538000Y202147000D02*
X170538000Y207047000D01*
X168298000Y202147000D02*
X170538000Y202147000D01*
G04 #@! TO.C,R61*
X165772000Y169060000D02*
X165772000Y171300000D01*
X165772000Y171300000D02*
X160872000Y171300000D01*
X160872000Y171300000D02*
X160872000Y169060000D01*
X160872000Y169060000D02*
X165772000Y169060000D01*
G04 #@! TO.C,R65*
X152250000Y202274000D02*
X152250000Y207174000D01*
X150010000Y202274000D02*
X152250000Y202274000D01*
X150010000Y207174000D02*
X150010000Y202274000D01*
X152250000Y207174000D02*
X150010000Y207174000D01*
G04 #@! TO.C,R66*
X157457000Y178218000D02*
X155217000Y178218000D01*
X155217000Y178218000D02*
X155217000Y173318000D01*
X155217000Y173318000D02*
X157457000Y173318000D01*
X157457000Y173318000D02*
X157457000Y178218000D01*
G04 #@! TO.C,R67*
X151615000Y162851000D02*
X149375000Y162851000D01*
X149375000Y162851000D02*
X149375000Y157951000D01*
X149375000Y157951000D02*
X151615000Y157951000D01*
X151615000Y157951000D02*
X151615000Y162851000D01*
G04 #@! TO.C,R68*
X158713000Y157503000D02*
X163613000Y157503000D01*
X158713000Y159743000D02*
X158713000Y157503000D01*
X163613000Y159743000D02*
X158713000Y159743000D01*
X163613000Y157503000D02*
X163613000Y159743000D01*
G04 #@! TO.C,R69*
X170965000Y139102000D02*
X170965000Y134202000D01*
X173205000Y139102000D02*
X170965000Y139102000D01*
X173205000Y134202000D02*
X173205000Y139102000D01*
X170965000Y134202000D02*
X173205000Y134202000D01*
G04 #@! TO.C,R70*
X175537000Y134202000D02*
X177777000Y134202000D01*
X177777000Y134202000D02*
X177777000Y139102000D01*
X177777000Y139102000D02*
X175537000Y139102000D01*
X175537000Y139102000D02*
X175537000Y134202000D01*
G04 #@! TO.C,R71*
X154582000Y202274000D02*
X156822000Y202274000D01*
X156822000Y202274000D02*
X156822000Y207174000D01*
X156822000Y207174000D02*
X154582000Y207174000D01*
X154582000Y207174000D02*
X154582000Y202274000D01*
G04 #@! TO.C,U5*
X166353000Y183812000D02*
X173753000Y183812000D01*
X166353000Y173312000D02*
X173753000Y173312000D01*
X173753000Y173312000D02*
X173753000Y183812000D01*
X166353000Y173312000D02*
X166353000Y183812000D01*
G04 #@! TO.C,U6*
X168482000Y160749000D02*
X168482000Y166149000D01*
X175942000Y160749000D02*
X175942000Y166149000D01*
X168482000Y160749000D02*
X175942000Y160749000D01*
X168482000Y166149000D02*
X175942000Y166149000D01*
G04 #@! TO.C,U7*
X157314348Y154998872D02*
X164774348Y154998872D01*
X157314348Y149598872D02*
X164774348Y149598872D01*
X164774348Y149598872D02*
X164774348Y154998872D01*
X157314348Y149598872D02*
X157314348Y154998872D01*
G04 #@! TO.C,RV7*
X167727000Y203167000D02*
X157627000Y203167000D01*
X167727000Y208567000D02*
X167727000Y203167000D01*
X157627000Y208567000D02*
X167727000Y208567000D01*
X157627000Y203167000D02*
X157627000Y208567000D01*
G04 #@! TO.C,RV11*
X174531000Y128992000D02*
X174531000Y118892000D01*
X169131000Y128992000D02*
X174531000Y128992000D01*
X169131000Y118892000D02*
X169131000Y128992000D01*
X174531000Y118892000D02*
X169131000Y118892000D01*
G04 #@! TO.C,RV16*
X150843000Y129012000D02*
X156243000Y129012000D01*
X156243000Y129012000D02*
X156243000Y118912000D01*
X156243000Y118912000D02*
X150843000Y118912000D01*
X150843000Y118912000D02*
X150843000Y129012000D01*
G04 #@! TO.C,RV59*
X174211000Y176637000D02*
X179611000Y176637000D01*
X179611000Y176637000D02*
X179611000Y166537000D01*
X179611000Y166537000D02*
X174211000Y166537000D01*
X174211000Y166537000D02*
X174211000Y176637000D01*
G04 #@! TO.C,RV60*
X155468000Y163289000D02*
X155468000Y168689000D01*
X155468000Y168689000D02*
X165568000Y168689000D01*
X165568000Y168689000D02*
X165568000Y163289000D01*
X165568000Y163289000D02*
X155468000Y163289000D01*
G04 #@! TO.C,RV64*
X155742000Y184056000D02*
X165842000Y184056000D01*
X155742000Y178656000D02*
X155742000Y184056000D01*
X165842000Y178656000D02*
X155742000Y178656000D01*
X165842000Y184056000D02*
X165842000Y178656000D01*
G04 #@! TD*
M02*
