G04 #@! TF.GenerationSoftware,KiCad,Pcbnew,(5.0.1)-4*
G04 #@! TF.CreationDate,2019-03-05T01:35:27-06:00*
G04 #@! TF.ProjectId,VCO,56434F2E6B696361645F706362000000,rev?*
G04 #@! TF.SameCoordinates,Original*
G04 #@! TF.FileFunction,Drawing*
%FSLAX46Y46*%
G04 Gerber Fmt 4.6, Leading zero omitted, Abs format (unit mm)*
G04 Created by KiCad (PCBNEW (5.0.1)-4) date 3/5/2019 1:35:27*
%MOMM*%
%LPD*%
G01*
G04 APERTURE LIST*
%ADD10C,0.120000*%
G04 APERTURE END LIST*
D10*
G04 #@! TO.C,J9*
X173582000Y130556000D02*
G75*
G03X173582000Y130556000I-1500000J0D01*
G01*
X170602000Y130466000D02*
X171992000Y129076000D01*
X170732000Y131136000D02*
X172672000Y129196000D01*
X171072000Y131626000D02*
X173152000Y129546000D01*
X171687000Y131976000D02*
X173502000Y130156000D01*
X172542000Y131966000D02*
X173492000Y131016000D01*
G04 #@! TO.C,J1*
X152006000Y182956000D02*
X152956000Y183906000D01*
X151996000Y182101000D02*
X153816000Y183916000D01*
X152346000Y181486000D02*
X154426000Y183566000D01*
X152836000Y181146000D02*
X154776000Y183086000D01*
X153506000Y181016000D02*
X154896000Y182406000D01*
X154916000Y182496000D02*
G75*
G03X154916000Y182496000I-1500000J0D01*
G01*
G04 #@! TO.C,J2*
X154916000Y163827000D02*
G75*
G03X154916000Y163827000I-1500000J0D01*
G01*
X153506000Y162347000D02*
X154896000Y163737000D01*
X152836000Y162477000D02*
X154776000Y164417000D01*
X152346000Y162817000D02*
X154426000Y164897000D01*
X151996000Y163432000D02*
X153816000Y165247000D01*
X152006000Y164287000D02*
X152956000Y165237000D01*
G04 #@! TO.C,J3*
X154792000Y104267000D02*
G75*
G03X154792000Y104267000I-1500000J0D01*
G01*
X154772000Y104357000D02*
X153382000Y105747000D01*
X154642000Y103687000D02*
X152702000Y105627000D01*
X154302000Y103197000D02*
X152222000Y105277000D01*
X153687000Y102847000D02*
X151872000Y104667000D01*
X152832000Y102857000D02*
X151882000Y103807000D01*
G04 #@! TO.C,J4*
X154792000Y143510000D02*
G75*
G03X154792000Y143510000I-1500000J0D01*
G01*
X154772000Y143600000D02*
X153382000Y144990000D01*
X154642000Y142930000D02*
X152702000Y144870000D01*
X154302000Y142440000D02*
X152222000Y144520000D01*
X153687000Y142090000D02*
X151872000Y143910000D01*
X152832000Y142100000D02*
X151882000Y143050000D01*
G04 #@! TO.C,J5*
X152832000Y129146000D02*
X151882000Y130096000D01*
X153687000Y129136000D02*
X151872000Y130956000D01*
X154302000Y129486000D02*
X152222000Y131566000D01*
X154642000Y129976000D02*
X152702000Y131916000D01*
X154772000Y130646000D02*
X153382000Y132036000D01*
X154792000Y130556000D02*
G75*
G03X154792000Y130556000I-1500000J0D01*
G01*
G04 #@! TO.C,J6*
X154792000Y117348000D02*
G75*
G03X154792000Y117348000I-1500000J0D01*
G01*
X154772000Y117438000D02*
X153382000Y118828000D01*
X154642000Y116768000D02*
X152702000Y118708000D01*
X154302000Y116278000D02*
X152222000Y118358000D01*
X153687000Y115928000D02*
X151872000Y117748000D01*
X152832000Y115938000D02*
X151882000Y116888000D01*
G04 #@! TO.C,J7*
X172542000Y105804000D02*
X173492000Y104854000D01*
X171687000Y105814000D02*
X173502000Y103994000D01*
X171072000Y105464000D02*
X173152000Y103384000D01*
X170732000Y104974000D02*
X172672000Y103034000D01*
X170602000Y104304000D02*
X171992000Y102914000D01*
X173582000Y104394000D02*
G75*
G03X173582000Y104394000I-1500000J0D01*
G01*
G04 #@! TO.C,J8*
X172542000Y118758000D02*
X173492000Y117808000D01*
X171687000Y118768000D02*
X173502000Y116948000D01*
X171072000Y118418000D02*
X173152000Y116338000D01*
X170732000Y117928000D02*
X172672000Y115988000D01*
X170602000Y117258000D02*
X171992000Y115868000D01*
X173582000Y117348000D02*
G75*
G03X173582000Y117348000I-1500000J0D01*
G01*
G04 #@! TO.C,J10*
X172542000Y144920000D02*
X173492000Y143970000D01*
X171687000Y144930000D02*
X173502000Y143110000D01*
X171072000Y144580000D02*
X173152000Y142500000D01*
X170732000Y144090000D02*
X172672000Y142150000D01*
X170602000Y143420000D02*
X171992000Y142030000D01*
X173582000Y143510000D02*
G75*
G03X173582000Y143510000I-1500000J0D01*
G01*
G04 #@! TD*
M02*
