G04 #@! TF.GenerationSoftware,KiCad,Pcbnew,(5.0.1)-4*
G04 #@! TF.CreationDate,2019-03-05T01:37:16-06:00*
G04 #@! TF.ProjectId,vca,7663612E6B696361645F706362000000,rev?*
G04 #@! TF.SameCoordinates,Original*
G04 #@! TF.FileFunction,Other,User*
%FSLAX46Y46*%
G04 Gerber Fmt 4.6, Leading zero omitted, Abs format (unit mm)*
G04 Created by KiCad (PCBNEW (5.0.1)-4) date 3/5/2019 1:37:16*
%MOMM*%
%LPD*%
G01*
G04 APERTURE LIST*
%ADD10C,0.050000*%
G04 APERTURE END LIST*
D10*
G04 #@! TO.C,Q2*
X134830000Y-158518000D02*
X134830000Y-163978000D01*
X134830000Y-158518000D02*
X130090000Y-158518000D01*
X130090000Y-163978000D02*
X134830000Y-163978000D01*
X130090000Y-163978000D02*
X130090000Y-158518000D01*
G04 #@! TO.C,Q1*
X126194000Y-158518000D02*
X126194000Y-163978000D01*
X126194000Y-158518000D02*
X121454000Y-158518000D01*
X121454000Y-163978000D02*
X126194000Y-163978000D01*
X121454000Y-163978000D02*
X121454000Y-158518000D01*
G04 #@! TO.C,Q4*
X134703000Y-122323000D02*
X134703000Y-127783000D01*
X134703000Y-122323000D02*
X129963000Y-122323000D01*
X129963000Y-127783000D02*
X134703000Y-127783000D01*
X129963000Y-127783000D02*
X129963000Y-122323000D01*
G04 #@! TO.C,Q3*
X121158000Y-127846500D02*
X121158000Y-122386500D01*
X121158000Y-127846500D02*
X125898000Y-127846500D01*
X125898000Y-122386500D02*
X121158000Y-122386500D01*
X125898000Y-122386500D02*
X125898000Y-127846500D01*
G04 #@! TO.C,C3*
X141479000Y-142743000D02*
X141479000Y-137843000D01*
X143719000Y-142743000D02*
X141479000Y-142743000D01*
X143719000Y-137843000D02*
X143719000Y-142743000D01*
X141479000Y-137843000D02*
X143719000Y-137843000D01*
G04 #@! TO.C,C5*
X141479000Y-148458000D02*
X141479000Y-143558000D01*
X143719000Y-148458000D02*
X141479000Y-148458000D01*
X143719000Y-143558000D02*
X143719000Y-148458000D01*
X141479000Y-143558000D02*
X143719000Y-143558000D01*
G04 #@! TO.C,C1*
X146365000Y-71225000D02*
G75*
G03X146365000Y-71225000I-2750000J0D01*
G01*
G04 #@! TO.C,C2*
X124669000Y-137843000D02*
X124669000Y-142743000D01*
X122429000Y-137843000D02*
X124669000Y-137843000D01*
X122429000Y-142743000D02*
X122429000Y-137843000D01*
X124669000Y-142743000D02*
X122429000Y-142743000D01*
G04 #@! TO.C,C6*
X124669000Y-144320000D02*
X124669000Y-149220000D01*
X122429000Y-144320000D02*
X124669000Y-144320000D01*
X122429000Y-149220000D02*
X122429000Y-144320000D01*
X124669000Y-149220000D02*
X122429000Y-149220000D01*
G04 #@! TO.C,J9*
X119596000Y-75885000D02*
X119596000Y-66525000D01*
X140456000Y-75885000D02*
X119596000Y-75885000D01*
X140456000Y-66525000D02*
X140456000Y-75885000D01*
X119596000Y-66525000D02*
X140456000Y-66525000D01*
G04 #@! TO.C,R1*
X110304000Y-150603000D02*
X115204000Y-150603000D01*
X110304000Y-152843000D02*
X110304000Y-150603000D01*
X115204000Y-152843000D02*
X110304000Y-152843000D01*
X115204000Y-150603000D02*
X115204000Y-152843000D01*
G04 #@! TO.C,R2*
X122429000Y-154808000D02*
X122429000Y-149908000D01*
X124669000Y-154808000D02*
X122429000Y-154808000D01*
X124669000Y-149908000D02*
X124669000Y-154808000D01*
X122429000Y-149908000D02*
X124669000Y-149908000D01*
G04 #@! TO.C,R3*
X116019000Y-148063000D02*
X120919000Y-148063000D01*
X116019000Y-150303000D02*
X116019000Y-148063000D01*
X120919000Y-150303000D02*
X116019000Y-150303000D01*
X120919000Y-148063000D02*
X120919000Y-150303000D01*
G04 #@! TO.C,R4*
X110304000Y-153143000D02*
X115204000Y-153143000D01*
X110304000Y-155383000D02*
X110304000Y-153143000D01*
X115204000Y-155383000D02*
X110304000Y-155383000D01*
X115204000Y-153143000D02*
X115204000Y-155383000D01*
G04 #@! TO.C,R5*
X120919000Y-157923000D02*
X116019000Y-157923000D01*
X120919000Y-155683000D02*
X120919000Y-157923000D01*
X116019000Y-155683000D02*
X120919000Y-155683000D01*
X116019000Y-157923000D02*
X116019000Y-155683000D01*
G04 #@! TO.C,R6*
X120919000Y-161098000D02*
X116019000Y-161098000D01*
X120919000Y-158858000D02*
X120919000Y-161098000D01*
X116019000Y-158858000D02*
X120919000Y-158858000D01*
X116019000Y-161098000D02*
X116019000Y-158858000D01*
G04 #@! TO.C,R7*
X110304000Y-148063000D02*
X115204000Y-148063000D01*
X110304000Y-150303000D02*
X110304000Y-148063000D01*
X115204000Y-150303000D02*
X110304000Y-150303000D01*
X115204000Y-148063000D02*
X115204000Y-150303000D01*
G04 #@! TO.C,R8*
X122369000Y-155048000D02*
X127269000Y-155048000D01*
X122369000Y-157288000D02*
X122369000Y-155048000D01*
X127269000Y-157288000D02*
X122369000Y-157288000D01*
X127269000Y-155048000D02*
X127269000Y-157288000D01*
G04 #@! TO.C,R9*
X124969000Y-154808000D02*
X124969000Y-149908000D01*
X127209000Y-154808000D02*
X124969000Y-154808000D01*
X127209000Y-149908000D02*
X127209000Y-154808000D01*
X124969000Y-149908000D02*
X127209000Y-149908000D01*
G04 #@! TO.C,R11*
X110304000Y-155683000D02*
X115204000Y-155683000D01*
X110304000Y-157923000D02*
X110304000Y-155683000D01*
X115204000Y-157923000D02*
X110304000Y-157923000D01*
X115204000Y-155683000D02*
X115204000Y-157923000D01*
G04 #@! TO.C,R12*
X120919000Y-155383000D02*
X116019000Y-155383000D01*
X120919000Y-153143000D02*
X120919000Y-155383000D01*
X116019000Y-153143000D02*
X120919000Y-153143000D01*
X116019000Y-155383000D02*
X116019000Y-153143000D01*
G04 #@! TO.C,R13*
X116019000Y-150603000D02*
X120919000Y-150603000D01*
X116019000Y-152843000D02*
X116019000Y-150603000D01*
X120919000Y-152843000D02*
X116019000Y-152843000D01*
X120919000Y-150603000D02*
X120919000Y-152843000D01*
G04 #@! TO.C,R14*
X124969000Y-149220000D02*
X124969000Y-144320000D01*
X127209000Y-149220000D02*
X124969000Y-149220000D01*
X127209000Y-144320000D02*
X127209000Y-149220000D01*
X124969000Y-144320000D02*
X127209000Y-144320000D01*
G04 #@! TO.C,R15*
X137623000Y-158798000D02*
X137623000Y-163698000D01*
X135383000Y-158798000D02*
X137623000Y-158798000D01*
X135383000Y-163698000D02*
X135383000Y-158798000D01*
X137623000Y-163698000D02*
X135383000Y-163698000D01*
G04 #@! TO.C,R16*
X145924000Y-154173000D02*
X145924000Y-149273000D01*
X148164000Y-154173000D02*
X145924000Y-154173000D01*
X148164000Y-149273000D02*
X148164000Y-154173000D01*
X145924000Y-149273000D02*
X148164000Y-149273000D01*
G04 #@! TO.C,R17*
X143084000Y-149273000D02*
X143084000Y-154173000D01*
X140844000Y-149273000D02*
X143084000Y-149273000D01*
X140844000Y-154173000D02*
X140844000Y-149273000D01*
X143084000Y-154173000D02*
X140844000Y-154173000D01*
G04 #@! TO.C,R19*
X148464000Y-154173000D02*
X148464000Y-149273000D01*
X150704000Y-154173000D02*
X148464000Y-154173000D01*
X150704000Y-149273000D02*
X150704000Y-154173000D01*
X148464000Y-149273000D02*
X150704000Y-149273000D01*
G04 #@! TO.C,R20*
X134889000Y-157923000D02*
X129989000Y-157923000D01*
X134889000Y-155683000D02*
X134889000Y-157923000D01*
X129989000Y-155683000D02*
X134889000Y-155683000D01*
X129989000Y-157923000D02*
X129989000Y-155683000D01*
G04 #@! TO.C,R21*
X149494000Y-149033000D02*
X144594000Y-149033000D01*
X149494000Y-146793000D02*
X149494000Y-149033000D01*
X144594000Y-146793000D02*
X149494000Y-146793000D01*
X144594000Y-149033000D02*
X144594000Y-146793000D01*
G04 #@! TO.C,R22*
X144594000Y-144253000D02*
X149494000Y-144253000D01*
X144594000Y-146493000D02*
X144594000Y-144253000D01*
X149494000Y-146493000D02*
X144594000Y-146493000D01*
X149494000Y-144253000D02*
X149494000Y-146493000D01*
G04 #@! TO.C,R23*
X110304000Y-134093000D02*
X115204000Y-134093000D01*
X110304000Y-136333000D02*
X110304000Y-134093000D01*
X115204000Y-136333000D02*
X110304000Y-136333000D01*
X115204000Y-134093000D02*
X115204000Y-136333000D01*
G04 #@! TO.C,R24*
X124669000Y-132763000D02*
X124669000Y-137663000D01*
X122429000Y-132763000D02*
X124669000Y-132763000D01*
X122429000Y-137663000D02*
X122429000Y-132763000D01*
X124669000Y-137663000D02*
X122429000Y-137663000D01*
G04 #@! TO.C,R25*
X116019000Y-136633000D02*
X120919000Y-136633000D01*
X116019000Y-138873000D02*
X116019000Y-136633000D01*
X120919000Y-138873000D02*
X116019000Y-138873000D01*
X120919000Y-136633000D02*
X120919000Y-138873000D01*
G04 #@! TO.C,R26*
X110304000Y-131553000D02*
X115204000Y-131553000D01*
X110304000Y-133793000D02*
X110304000Y-131553000D01*
X115204000Y-133793000D02*
X110304000Y-133793000D01*
X115204000Y-131553000D02*
X115204000Y-133793000D01*
G04 #@! TO.C,R27*
X120919000Y-131253000D02*
X116019000Y-131253000D01*
X120919000Y-129013000D02*
X120919000Y-131253000D01*
X116019000Y-129013000D02*
X120919000Y-129013000D01*
X116019000Y-131253000D02*
X116019000Y-129013000D01*
G04 #@! TO.C,R28*
X120919000Y-128078000D02*
X116019000Y-128078000D01*
X120919000Y-125838000D02*
X120919000Y-128078000D01*
X116019000Y-125838000D02*
X120919000Y-125838000D01*
X116019000Y-128078000D02*
X116019000Y-125838000D01*
G04 #@! TO.C,R29*
X110304000Y-136633000D02*
X115204000Y-136633000D01*
X110304000Y-138873000D02*
X110304000Y-136633000D01*
X115204000Y-138873000D02*
X110304000Y-138873000D01*
X115204000Y-136633000D02*
X115204000Y-138873000D01*
G04 #@! TO.C,R30*
X122369000Y-130283000D02*
X127269000Y-130283000D01*
X122369000Y-132523000D02*
X122369000Y-130283000D01*
X127269000Y-132523000D02*
X122369000Y-132523000D01*
X127269000Y-130283000D02*
X127269000Y-132523000D01*
G04 #@! TO.C,R31*
X127209000Y-132763000D02*
X127209000Y-137663000D01*
X124969000Y-132763000D02*
X127209000Y-132763000D01*
X124969000Y-137663000D02*
X124969000Y-132763000D01*
X127209000Y-137663000D02*
X124969000Y-137663000D01*
G04 #@! TO.C,R33*
X110304000Y-129013000D02*
X115204000Y-129013000D01*
X110304000Y-131253000D02*
X110304000Y-129013000D01*
X115204000Y-131253000D02*
X110304000Y-131253000D01*
X115204000Y-129013000D02*
X115204000Y-131253000D01*
G04 #@! TO.C,R34*
X127209000Y-137843000D02*
X127209000Y-142743000D01*
X124969000Y-137843000D02*
X127209000Y-137843000D01*
X124969000Y-142743000D02*
X124969000Y-137843000D01*
X127209000Y-142743000D02*
X124969000Y-142743000D01*
G04 #@! TO.C,R35*
X135319500Y-127503000D02*
X135319500Y-122603000D01*
X137559500Y-127503000D02*
X135319500Y-127503000D01*
X137559500Y-122603000D02*
X137559500Y-127503000D01*
X135319500Y-122603000D02*
X137559500Y-122603000D01*
G04 #@! TO.C,R36*
X120919000Y-133793000D02*
X116019000Y-133793000D01*
X120919000Y-131553000D02*
X120919000Y-133793000D01*
X116019000Y-131553000D02*
X120919000Y-131553000D01*
X116019000Y-133793000D02*
X116019000Y-131553000D01*
G04 #@! TO.C,R37*
X116019000Y-134093000D02*
X120919000Y-134093000D01*
X116019000Y-136333000D02*
X116019000Y-134093000D01*
X120919000Y-136333000D02*
X116019000Y-136333000D01*
X120919000Y-134093000D02*
X120919000Y-136333000D01*
G04 #@! TO.C,R38*
X147529000Y-132128000D02*
X147529000Y-137028000D01*
X145289000Y-132128000D02*
X147529000Y-132128000D01*
X145289000Y-137028000D02*
X145289000Y-132128000D01*
X147529000Y-137028000D02*
X145289000Y-137028000D01*
G04 #@! TO.C,R39*
X140209000Y-137028000D02*
X140209000Y-132128000D01*
X142449000Y-137028000D02*
X140209000Y-137028000D01*
X142449000Y-132128000D02*
X142449000Y-137028000D01*
X140209000Y-132128000D02*
X142449000Y-132128000D01*
G04 #@! TO.C,R40*
X150069000Y-132128000D02*
X150069000Y-137028000D01*
X147829000Y-132128000D02*
X150069000Y-132128000D01*
X147829000Y-137028000D02*
X147829000Y-132128000D01*
X150069000Y-137028000D02*
X147829000Y-137028000D01*
G04 #@! TO.C,R42*
X134889000Y-130618000D02*
X129989000Y-130618000D01*
X134889000Y-128378000D02*
X134889000Y-130618000D01*
X129989000Y-128378000D02*
X134889000Y-128378000D01*
X129989000Y-130618000D02*
X129989000Y-128378000D01*
G04 #@! TO.C,R43*
X144594000Y-137268000D02*
X149494000Y-137268000D01*
X144594000Y-139508000D02*
X144594000Y-137268000D01*
X149494000Y-139508000D02*
X144594000Y-139508000D01*
X149494000Y-137268000D02*
X149494000Y-139508000D01*
G04 #@! TO.C,R44*
X149494000Y-142048000D02*
X144594000Y-142048000D01*
X149494000Y-139808000D02*
X149494000Y-142048000D01*
X144594000Y-139808000D02*
X149494000Y-139808000D01*
X144594000Y-142048000D02*
X144594000Y-139808000D01*
G04 #@! TO.C,R46*
X143384000Y-154173000D02*
X143384000Y-149273000D01*
X145624000Y-154173000D02*
X143384000Y-154173000D01*
X145624000Y-149273000D02*
X145624000Y-154173000D01*
X143384000Y-149273000D02*
X145624000Y-149273000D01*
G04 #@! TO.C,R48*
X144989000Y-132128000D02*
X144989000Y-137028000D01*
X142749000Y-132128000D02*
X144989000Y-132128000D01*
X142749000Y-137028000D02*
X142749000Y-132128000D01*
X144989000Y-137028000D02*
X142749000Y-137028000D01*
G04 #@! TO.C,RV18*
X129989000Y-148083000D02*
X129989000Y-155333000D01*
X135039000Y-148083000D02*
X129989000Y-148083000D01*
X135039000Y-155333000D02*
X135039000Y-148083000D01*
X129989000Y-155333000D02*
X135039000Y-155333000D01*
G04 #@! TO.C,RV41*
X134889000Y-138218000D02*
X134889000Y-130968000D01*
X129839000Y-138218000D02*
X134889000Y-138218000D01*
X129839000Y-130968000D02*
X129839000Y-138218000D01*
X134889000Y-130968000D02*
X129839000Y-130968000D01*
G04 #@! TO.C,RV45*
X140604000Y-155363000D02*
X140604000Y-148113000D01*
X135554000Y-155363000D02*
X140604000Y-155363000D01*
X135554000Y-148113000D02*
X135554000Y-155363000D01*
X140604000Y-148113000D02*
X135554000Y-148113000D01*
G04 #@! TO.C,RV47*
X135069000Y-130938000D02*
X135069000Y-138188000D01*
X140119000Y-130938000D02*
X135069000Y-130938000D01*
X140119000Y-138188000D02*
X140119000Y-130938000D01*
X135069000Y-138188000D02*
X140119000Y-138188000D01*
G04 #@! TO.C,U1*
X111914000Y-139768000D02*
X111914000Y-147168000D01*
X121214000Y-139768000D02*
X121214000Y-147168000D01*
X121214000Y-147168000D02*
X111914000Y-147168000D01*
X121214000Y-139768000D02*
X111914000Y-139768000D01*
G04 #@! TO.C,C4*
X119060000Y-71185000D02*
G75*
G03X119060000Y-71185000I-2750000J0D01*
G01*
G04 #@! TO.C,JP2*
X128778000Y-22967000D02*
X128778000Y-19367000D01*
X120128000Y-22967000D02*
X128778000Y-22967000D01*
X120128000Y-19367000D02*
X120128000Y-22967000D01*
X128778000Y-19367000D02*
X120128000Y-19367000D01*
G04 #@! TO.C,JP4*
X107652000Y-62547000D02*
X107652000Y-66147000D01*
X118852000Y-62547000D02*
X107652000Y-62547000D01*
X118852000Y-66147000D02*
X118852000Y-62547000D01*
X107652000Y-66147000D02*
X118852000Y-66147000D01*
G04 #@! TO.C,JP6*
X141053000Y-20002000D02*
X141053000Y-23602000D01*
X152253000Y-20002000D02*
X141053000Y-20002000D01*
X152253000Y-23602000D02*
X152253000Y-20002000D01*
X141053000Y-23602000D02*
X152253000Y-23602000D01*
G04 #@! TO.C,JP8*
X141053000Y-62547000D02*
X141053000Y-66147000D01*
X152253000Y-62547000D02*
X141053000Y-62547000D01*
X152253000Y-66147000D02*
X152253000Y-62547000D01*
X141053000Y-66147000D02*
X152253000Y-66147000D01*
G04 #@! TO.C,JP10*
X107652000Y-20002000D02*
X107652000Y-23602000D01*
X118852000Y-20002000D02*
X107652000Y-20002000D01*
X118852000Y-23602000D02*
X118852000Y-20002000D01*
X107652000Y-23602000D02*
X118852000Y-23602000D01*
G04 #@! TO.C,U2*
X128944000Y-138914000D02*
X128944000Y-147514000D01*
X139744000Y-138914000D02*
X128944000Y-138914000D01*
X139744000Y-147514000D02*
X139744000Y-138914000D01*
X128944000Y-147514000D02*
X139744000Y-147514000D01*
G04 #@! TD*
M02*
