M48
;DRILL file {KiCad (5.0.1)-4} date 3/5/2019 1:37:06
;FORMAT={-:-/ absolute / inch / decimal}
FMAT,2
INCH,TZ
T1C0.0079
T2C0.0197
T3C0.0236
T4C0.0295
T5C0.0315
T6C0.0394
T7C0.0400
T8C0.0433
%
G90
G05
M72
T1
X4.2941Y-6.0598
X4.3191Y-5.2883
X4.3941Y-5.0383
X4.3941Y-6.2633
X4.4441Y-5.0383
X4.4441Y-6.2633
X4.9094Y-5.1228
X4.9141Y-6.1233
X4.9691Y-5.1133
X4.9691Y-6.2133
X5.0291Y-5.5833
X5.4516Y-4.8633
X5.4891Y-5.2483
X5.5141Y-5.6733
X5.5387Y-5.5483
X5.5691Y-5.1733
X5.5941Y-5.0633
X5.5941Y-6.1133
X5.6441Y-6.2133
X5.6641Y-5.8483
X5.7891Y-5.8233
X5.8141Y-6.0733
X5.8941Y-5.1633
X5.8941Y-6.1383
T4
X4.8491Y-4.8758
X4.8491Y-4.9758
X4.8991Y-4.9258
X5.1791Y-6.3483
X5.2291Y-6.2983
X5.2291Y-6.3983
X5.1741Y-4.9233
X5.2241Y-4.8733
X5.2241Y-4.9733
X4.8391Y-6.3483
X4.8891Y-6.2983
X4.8891Y-6.3983
T5
X5.6541Y-2.7549
X5.6541Y-2.8533
X5.2141Y-5.1983
X5.2141Y-5.2983
X5.2141Y-5.3983
X5.4141Y-5.1983
X5.4141Y-5.2983
X5.4141Y-5.3983
X4.5791Y-2.7533
X4.5791Y-2.8518
X5.2141Y-5.8733
X5.2141Y-5.9733
X5.2141Y-6.0733
X5.4391Y-5.8733
X5.4391Y-5.9733
X5.4391Y-6.0733
T6
X4.3091Y-0.8583
X4.4091Y-0.8583
X4.5091Y-0.8583
X4.6091Y-0.8583
X4.3041Y-6.4383
X4.4041Y-6.4383
X4.5041Y-6.4383
X4.6041Y-6.4383
X5.6191Y-4.7633
X5.7191Y-4.7633
X5.8191Y-4.7633
X5.9191Y-4.7633
X5.6191Y-6.4383
X5.7191Y-6.4383
X5.8191Y-6.4383
X5.9191Y-6.4383
X4.5641Y-1.5133
X4.6626Y-1.5133
X4.761Y-1.5133
X4.3041Y-4.7633
X4.4041Y-4.7633
X4.5041Y-4.7633
X4.6041Y-4.7633
X4.7991Y-0.8333
X4.8991Y-0.8333
X4.9991Y-0.8333
X4.3091Y-2.5333
X4.4091Y-2.5333
X4.5091Y-2.5333
X4.6091Y-2.5333
X5.6241Y-0.8583
X5.7241Y-0.8583
X5.8241Y-0.8583
X5.9241Y-0.8583
X4.5641Y-3.6483
X4.6626Y-3.6483
X4.761Y-3.6483
X5.6241Y-2.5333
X5.7241Y-2.5333
X5.8241Y-2.5333
X5.9241Y-2.5333
X4.7941Y-4.7383
X4.8941Y-4.7383
X4.9941Y-4.7383
T7
X4.9191Y-2.7533
X4.9191Y-2.8533
X5.0191Y-2.7533
X5.0191Y-2.8533
X5.1191Y-2.7533
X5.1191Y-2.8533
X5.2191Y-2.7533
X5.2191Y-2.8533
X5.3191Y-2.7533
X5.3191Y-2.8533
T2
X5.1388Y-1.9395G85X5.0994Y-1.9395
G05
X5.1388Y-4.0695G85X5.0994Y-4.0695
G05
X5.6894Y-3.5922G85X5.7288Y-3.5922
G05
X5.7288Y-1.9395G85X5.6894Y-1.9395
G05
X4.5488Y-1.9395G85X4.5094Y-1.9395
G05
X5.7288Y-4.0695G85X5.6894Y-4.0695
G05
X4.5488Y-4.0695G85X4.5094Y-4.0695
G05
X5.6894Y-1.4472G85X5.7288Y-1.4472
G05
T3
X5.1369Y-2.2663G85X5.1014Y-2.2663
G05
X5.1329Y-2.3883G85X5.1054Y-2.3883
G05
X5.1369Y-4.3963G85X5.1014Y-4.3963
G05
X5.1329Y-4.5183G85X5.1054Y-4.5183
G05
X5.6954Y-3.1433G85X5.7229Y-3.1433
G05
X5.6914Y-3.2654G85X5.7269Y-3.2654
G05
X5.7269Y-2.2663G85X5.6914Y-2.2663
G05
X5.7229Y-2.3883G85X5.6954Y-2.3883
G05
X4.5469Y-2.2663G85X4.5114Y-2.2663
G05
X4.5429Y-2.3883G85X4.5154Y-2.3883
G05
X5.7269Y-4.3963G85X5.6914Y-4.3963
G05
X5.7229Y-4.5183G85X5.6954Y-4.5183
G05
X4.5469Y-4.3963G85X4.5114Y-4.3963
G05
X4.5429Y-4.5183G85X4.5154Y-4.5183
G05
X5.6954Y-0.9983G85X5.7229Y-0.9983
G05
X5.6914Y-1.1204G85X5.7269Y-1.1204
G05
T5
X5.3135Y-3.1283G85X5.2647Y-3.1283
G05
X5.3135Y-3.3133G85X5.2647Y-3.3133
G05
X5.3135Y-3.4984G85X5.2647Y-3.4984
G05
X5.3135Y-0.9883G85X5.2647Y-0.9883
G05
X5.3135Y-1.1733G85X5.2647Y-1.1733
G05
X5.3135Y-1.3584G85X5.2647Y-1.3584
G05
T8
X4.4598Y-1.2043G85X4.4598Y-1.2319
G05
X4.8653Y-1.2043G85X4.8653Y-1.2319
G05
X4.4598Y-3.3393G85X4.4598Y-3.3669
G05
X4.8653Y-3.3393G85X4.8653Y-3.3669
G05
T0
M30
