G04 #@! TF.GenerationSoftware,KiCad,Pcbnew,(5.0.1)-4*
G04 #@! TF.CreationDate,2019-03-05T01:37:16-06:00*
G04 #@! TF.ProjectId,vca,7663612E6B696361645F706362000000,rev?*
G04 #@! TF.SameCoordinates,Original*
G04 #@! TF.FileFunction,Other,Fab,Bot*
%FSLAX46Y46*%
G04 Gerber Fmt 4.6, Leading zero omitted, Abs format (unit mm)*
G04 Created by KiCad (PCBNEW (5.0.1)-4) date 3/5/2019 1:37:16*
%MOMM*%
%LPD*%
G01*
G04 APERTURE LIST*
%ADD10C,0.100000*%
%ADD11C,0.150000*%
G04 APERTURE END LIST*
D10*
G04 #@! TO.C,RV10*
X121929000Y-85168000D02*
G75*
G03X121929000Y-85168000I-3500000J0D01*
G01*
X123179000Y-91668000D02*
X113679000Y-91668000D01*
X113679000Y-91668000D02*
X113679000Y-80318000D01*
X113679000Y-80318000D02*
X123179000Y-80318000D01*
X123179000Y-80318000D02*
X123179000Y-91668000D01*
G04 #@! TO.C,RV32*
X121929000Y-30939000D02*
G75*
G03X121929000Y-30939000I-3500000J0D01*
G01*
X123179000Y-37439000D02*
X113679000Y-37439000D01*
X113679000Y-37439000D02*
X113679000Y-26089000D01*
X113679000Y-26089000D02*
X123179000Y-26089000D01*
X123179000Y-26089000D02*
X123179000Y-37439000D01*
D11*
G04 #@! TO.C,SW2*
X137773000Y-23453000D02*
X130915000Y-23453000D01*
X130915000Y-36153000D02*
X130915000Y-23453000D01*
X137773000Y-36153000D02*
X130915000Y-36153000D01*
X137773000Y-36153000D02*
X137773000Y-23453000D01*
G04 #@! TO.C,SW1*
X137773000Y-77809000D02*
X130915000Y-77809000D01*
X130915000Y-90509000D02*
X130915000Y-77809000D01*
X137773000Y-90509000D02*
X130915000Y-90509000D01*
X137773000Y-90509000D02*
X137773000Y-77809000D01*
D10*
G04 #@! TO.C,J3*
X140512000Y-102286000D02*
X140512000Y-112686000D01*
X149512000Y-102286000D02*
X149512000Y-112686000D01*
X149512000Y-102286000D02*
X140512000Y-102286000D01*
X149512000Y-112736000D02*
X140512000Y-112736000D01*
X146812000Y-108286000D02*
G75*
G03X146812000Y-108286000I-1800000J0D01*
G01*
X145012000Y-114766000D02*
X145012000Y-112736000D01*
G04 #@! TO.C,J2*
X125526000Y-102286000D02*
X125526000Y-112686000D01*
X134526000Y-102286000D02*
X134526000Y-112686000D01*
X134526000Y-102286000D02*
X125526000Y-102286000D01*
X134526000Y-112736000D02*
X125526000Y-112736000D01*
X131826000Y-108286000D02*
G75*
G03X131826000Y-108286000I-1800000J0D01*
G01*
X130026000Y-114766000D02*
X130026000Y-112736000D01*
G04 #@! TO.C,J1*
X110540000Y-102286000D02*
X110540000Y-112686000D01*
X119540000Y-102286000D02*
X119540000Y-112686000D01*
X119540000Y-102286000D02*
X110540000Y-102286000D01*
X119540000Y-112736000D02*
X110540000Y-112736000D01*
X116840000Y-108286000D02*
G75*
G03X116840000Y-108286000I-1800000J0D01*
G01*
X115040000Y-114766000D02*
X115040000Y-112736000D01*
G04 #@! TO.C,J4*
X149512000Y-92321000D02*
X149512000Y-81921000D01*
X140512000Y-92321000D02*
X140512000Y-81921000D01*
X140512000Y-92321000D02*
X149512000Y-92321000D01*
X140512000Y-81871000D02*
X149512000Y-81871000D01*
X146812000Y-86321000D02*
G75*
G03X146812000Y-86321000I-1800000J0D01*
G01*
X145012000Y-79841000D02*
X145012000Y-81871000D01*
G04 #@! TO.C,J8*
X149512000Y-37838000D02*
X149512000Y-27438000D01*
X140512000Y-37838000D02*
X140512000Y-27438000D01*
X140512000Y-37838000D02*
X149512000Y-37838000D01*
X140512000Y-27388000D02*
X149512000Y-27388000D01*
X146812000Y-31838000D02*
G75*
G03X146812000Y-31838000I-1800000J0D01*
G01*
X145012000Y-25358000D02*
X145012000Y-27388000D01*
G04 #@! TO.C,J7*
X140512000Y-48184000D02*
X140512000Y-58584000D01*
X149512000Y-48184000D02*
X149512000Y-58584000D01*
X149512000Y-48184000D02*
X140512000Y-48184000D01*
X149512000Y-58634000D02*
X140512000Y-58634000D01*
X146812000Y-54184000D02*
G75*
G03X146812000Y-54184000I-1800000J0D01*
G01*
X145012000Y-60664000D02*
X145012000Y-58634000D01*
G04 #@! TO.C,J6*
X125526000Y-48184000D02*
X125526000Y-58584000D01*
X134526000Y-48184000D02*
X134526000Y-58584000D01*
X134526000Y-48184000D02*
X125526000Y-48184000D01*
X134526000Y-58634000D02*
X125526000Y-58634000D01*
X131826000Y-54184000D02*
G75*
G03X131826000Y-54184000I-1800000J0D01*
G01*
X130026000Y-60664000D02*
X130026000Y-58634000D01*
G04 #@! TO.C,J5*
X110540000Y-48184000D02*
X110540000Y-58584000D01*
X119540000Y-48184000D02*
X119540000Y-58584000D01*
X119540000Y-48184000D02*
X110540000Y-48184000D01*
X119540000Y-58634000D02*
X110540000Y-58634000D01*
X116840000Y-54184000D02*
G75*
G03X116840000Y-54184000I-1800000J0D01*
G01*
X115040000Y-60664000D02*
X115040000Y-58634000D01*
G04 #@! TO.C,JP1*
X127486000Y-121624000D02*
X128121000Y-120989000D01*
X120501000Y-121624000D02*
X127486000Y-121624000D01*
X120501000Y-119084000D02*
X120501000Y-121624000D01*
X128121000Y-119084000D02*
X120501000Y-119084000D01*
X128121000Y-120989000D02*
X128121000Y-119084000D01*
G04 #@! TO.C,JP3*
X108690000Y-162264000D02*
X108055000Y-162899000D01*
X118215000Y-162264000D02*
X108690000Y-162264000D01*
X118215000Y-164804000D02*
X118215000Y-162264000D01*
X108055000Y-164804000D02*
X118215000Y-164804000D01*
X108055000Y-162899000D02*
X108055000Y-164804000D01*
G04 #@! TO.C,JP5*
X142091000Y-119719000D02*
X141456000Y-120354000D01*
X151616000Y-119719000D02*
X142091000Y-119719000D01*
X151616000Y-122259000D02*
X151616000Y-119719000D01*
X141456000Y-122259000D02*
X151616000Y-122259000D01*
X141456000Y-120354000D02*
X141456000Y-122259000D01*
G04 #@! TO.C,JP7*
X142091000Y-162264000D02*
X141456000Y-162899000D01*
X151616000Y-162264000D02*
X142091000Y-162264000D01*
X151616000Y-164804000D02*
X151616000Y-162264000D01*
X141456000Y-164804000D02*
X151616000Y-164804000D01*
X141456000Y-162899000D02*
X141456000Y-164804000D01*
G04 #@! TO.C,JP9*
X108690000Y-119719000D02*
X108055000Y-120354000D01*
X118215000Y-119719000D02*
X108690000Y-119719000D01*
X118215000Y-122259000D02*
X118215000Y-119719000D01*
X108055000Y-122259000D02*
X118215000Y-122259000D01*
X108055000Y-120354000D02*
X108055000Y-122259000D01*
G04 #@! TD*
G04 #@! TO.C,RV10*
D11*
X111231380Y-85451333D02*
X111231380Y-84879904D01*
X111231380Y-85165619D02*
X110231380Y-85165619D01*
X110374238Y-85070380D01*
X110469476Y-84975142D01*
X110517095Y-84879904D01*
X110231380Y-86070380D02*
X110231380Y-86165619D01*
X110279000Y-86260857D01*
X110326619Y-86308476D01*
X110421857Y-86356095D01*
X110612333Y-86403714D01*
X110850428Y-86403714D01*
X111040904Y-86356095D01*
X111136142Y-86308476D01*
X111183761Y-86260857D01*
X111231380Y-86165619D01*
X111231380Y-86070380D01*
X111183761Y-85975142D01*
X111136142Y-85927523D01*
X111040904Y-85879904D01*
X110850428Y-85832285D01*
X110612333Y-85832285D01*
X110421857Y-85879904D01*
X110326619Y-85927523D01*
X110279000Y-85975142D01*
X110231380Y-86070380D01*
X110231380Y-87022761D02*
X110231380Y-87118000D01*
X110279000Y-87213238D01*
X110326619Y-87260857D01*
X110421857Y-87308476D01*
X110612333Y-87356095D01*
X110850428Y-87356095D01*
X111040904Y-87308476D01*
X111136142Y-87260857D01*
X111183761Y-87213238D01*
X111231380Y-87118000D01*
X111231380Y-87022761D01*
X111183761Y-86927523D01*
X111136142Y-86879904D01*
X111040904Y-86832285D01*
X110850428Y-86784666D01*
X110612333Y-86784666D01*
X110421857Y-86832285D01*
X110326619Y-86879904D01*
X110279000Y-86927523D01*
X110231380Y-87022761D01*
X111231380Y-87784666D02*
X110231380Y-87784666D01*
X111231380Y-88356095D02*
X110659952Y-87927523D01*
X110231380Y-88356095D02*
X110802809Y-87784666D01*
X119500428Y-91120380D02*
X119833761Y-90644190D01*
X120071857Y-91120380D02*
X120071857Y-90120380D01*
X119690904Y-90120380D01*
X119595666Y-90168000D01*
X119548047Y-90215619D01*
X119500428Y-90310857D01*
X119500428Y-90453714D01*
X119548047Y-90548952D01*
X119595666Y-90596571D01*
X119690904Y-90644190D01*
X120071857Y-90644190D01*
X119214714Y-90120380D02*
X118881380Y-91120380D01*
X118548047Y-90120380D01*
X117690904Y-91120380D02*
X118262333Y-91120380D01*
X117976619Y-91120380D02*
X117976619Y-90120380D01*
X118071857Y-90263238D01*
X118167095Y-90358476D01*
X118262333Y-90406095D01*
X117071857Y-90120380D02*
X116976619Y-90120380D01*
X116881380Y-90168000D01*
X116833761Y-90215619D01*
X116786142Y-90310857D01*
X116738523Y-90501333D01*
X116738523Y-90739428D01*
X116786142Y-90929904D01*
X116833761Y-91025142D01*
X116881380Y-91072761D01*
X116976619Y-91120380D01*
X117071857Y-91120380D01*
X117167095Y-91072761D01*
X117214714Y-91025142D01*
X117262333Y-90929904D01*
X117309952Y-90739428D01*
X117309952Y-90501333D01*
X117262333Y-90310857D01*
X117214714Y-90215619D01*
X117167095Y-90168000D01*
X117071857Y-90120380D01*
G04 #@! TO.C,RV32*
X111231380Y-31222333D02*
X111231380Y-30650904D01*
X111231380Y-30936619D02*
X110231380Y-30936619D01*
X110374238Y-30841380D01*
X110469476Y-30746142D01*
X110517095Y-30650904D01*
X110231380Y-31841380D02*
X110231380Y-31936619D01*
X110279000Y-32031857D01*
X110326619Y-32079476D01*
X110421857Y-32127095D01*
X110612333Y-32174714D01*
X110850428Y-32174714D01*
X111040904Y-32127095D01*
X111136142Y-32079476D01*
X111183761Y-32031857D01*
X111231380Y-31936619D01*
X111231380Y-31841380D01*
X111183761Y-31746142D01*
X111136142Y-31698523D01*
X111040904Y-31650904D01*
X110850428Y-31603285D01*
X110612333Y-31603285D01*
X110421857Y-31650904D01*
X110326619Y-31698523D01*
X110279000Y-31746142D01*
X110231380Y-31841380D01*
X110231380Y-32793761D02*
X110231380Y-32889000D01*
X110279000Y-32984238D01*
X110326619Y-33031857D01*
X110421857Y-33079476D01*
X110612333Y-33127095D01*
X110850428Y-33127095D01*
X111040904Y-33079476D01*
X111136142Y-33031857D01*
X111183761Y-32984238D01*
X111231380Y-32889000D01*
X111231380Y-32793761D01*
X111183761Y-32698523D01*
X111136142Y-32650904D01*
X111040904Y-32603285D01*
X110850428Y-32555666D01*
X110612333Y-32555666D01*
X110421857Y-32603285D01*
X110326619Y-32650904D01*
X110279000Y-32698523D01*
X110231380Y-32793761D01*
X111231380Y-33555666D02*
X110231380Y-33555666D01*
X111231380Y-34127095D02*
X110659952Y-33698523D01*
X110231380Y-34127095D02*
X110802809Y-33555666D01*
X119500428Y-36891380D02*
X119833761Y-36415190D01*
X120071857Y-36891380D02*
X120071857Y-35891380D01*
X119690904Y-35891380D01*
X119595666Y-35939000D01*
X119548047Y-35986619D01*
X119500428Y-36081857D01*
X119500428Y-36224714D01*
X119548047Y-36319952D01*
X119595666Y-36367571D01*
X119690904Y-36415190D01*
X120071857Y-36415190D01*
X119214714Y-35891380D02*
X118881380Y-36891380D01*
X118548047Y-35891380D01*
X118309952Y-35891380D02*
X117690904Y-35891380D01*
X118024238Y-36272333D01*
X117881380Y-36272333D01*
X117786142Y-36319952D01*
X117738523Y-36367571D01*
X117690904Y-36462809D01*
X117690904Y-36700904D01*
X117738523Y-36796142D01*
X117786142Y-36843761D01*
X117881380Y-36891380D01*
X118167095Y-36891380D01*
X118262333Y-36843761D01*
X118309952Y-36796142D01*
X117309952Y-35986619D02*
X117262333Y-35939000D01*
X117167095Y-35891380D01*
X116929000Y-35891380D01*
X116833761Y-35939000D01*
X116786142Y-35986619D01*
X116738523Y-36081857D01*
X116738523Y-36177095D01*
X116786142Y-36319952D01*
X117357571Y-36891380D01*
X116738523Y-36891380D01*
G04 #@! TO.C,SW2*
X136748761Y-38332580D02*
X137224952Y-38332580D01*
X137224952Y-37332580D01*
X136224952Y-37332580D02*
X136034476Y-37332580D01*
X135939238Y-37380200D01*
X135844000Y-37475438D01*
X135796380Y-37665914D01*
X135796380Y-37999247D01*
X135844000Y-38189723D01*
X135939238Y-38284961D01*
X136034476Y-38332580D01*
X136224952Y-38332580D01*
X136320190Y-38284961D01*
X136415428Y-38189723D01*
X136463047Y-37999247D01*
X136463047Y-37665914D01*
X136415428Y-37475438D01*
X136320190Y-37380200D01*
X136224952Y-37332580D01*
X134844000Y-37380200D02*
X134939238Y-37332580D01*
X135082095Y-37332580D01*
X135224952Y-37380200D01*
X135320190Y-37475438D01*
X135367809Y-37570676D01*
X135415428Y-37761152D01*
X135415428Y-37904009D01*
X135367809Y-38094485D01*
X135320190Y-38189723D01*
X135224952Y-38284961D01*
X135082095Y-38332580D01*
X134986857Y-38332580D01*
X134844000Y-38284961D01*
X134796380Y-38237342D01*
X134796380Y-37904009D01*
X134986857Y-37904009D01*
X133653523Y-37284961D02*
X134510666Y-38570676D01*
X132844000Y-38332580D02*
X133320190Y-38332580D01*
X133320190Y-37332580D01*
X132510666Y-38332580D02*
X132510666Y-37332580D01*
X132034476Y-38332580D02*
X132034476Y-37332580D01*
X131463047Y-38332580D01*
X131463047Y-37332580D01*
X134748761Y-28469666D02*
X134796380Y-28612523D01*
X134796380Y-28850619D01*
X134748761Y-28945857D01*
X134701142Y-28993476D01*
X134605904Y-29041095D01*
X134510666Y-29041095D01*
X134415428Y-28993476D01*
X134367809Y-28945857D01*
X134320190Y-28850619D01*
X134272571Y-28660142D01*
X134224952Y-28564904D01*
X134177333Y-28517285D01*
X134082095Y-28469666D01*
X133986857Y-28469666D01*
X133891619Y-28517285D01*
X133844000Y-28564904D01*
X133796380Y-28660142D01*
X133796380Y-28898238D01*
X133844000Y-29041095D01*
X133796380Y-29374428D02*
X134796380Y-29612523D01*
X134082095Y-29803000D01*
X134796380Y-29993476D01*
X133796380Y-30231571D01*
X133891619Y-30564904D02*
X133844000Y-30612523D01*
X133796380Y-30707761D01*
X133796380Y-30945857D01*
X133844000Y-31041095D01*
X133891619Y-31088714D01*
X133986857Y-31136333D01*
X134082095Y-31136333D01*
X134224952Y-31088714D01*
X134796380Y-30517285D01*
X134796380Y-31136333D01*
G04 #@! TO.C,SW1*
X136748761Y-92688580D02*
X137224952Y-92688580D01*
X137224952Y-91688580D01*
X136224952Y-91688580D02*
X136034476Y-91688580D01*
X135939238Y-91736200D01*
X135844000Y-91831438D01*
X135796380Y-92021914D01*
X135796380Y-92355247D01*
X135844000Y-92545723D01*
X135939238Y-92640961D01*
X136034476Y-92688580D01*
X136224952Y-92688580D01*
X136320190Y-92640961D01*
X136415428Y-92545723D01*
X136463047Y-92355247D01*
X136463047Y-92021914D01*
X136415428Y-91831438D01*
X136320190Y-91736200D01*
X136224952Y-91688580D01*
X134844000Y-91736200D02*
X134939238Y-91688580D01*
X135082095Y-91688580D01*
X135224952Y-91736200D01*
X135320190Y-91831438D01*
X135367809Y-91926676D01*
X135415428Y-92117152D01*
X135415428Y-92260009D01*
X135367809Y-92450485D01*
X135320190Y-92545723D01*
X135224952Y-92640961D01*
X135082095Y-92688580D01*
X134986857Y-92688580D01*
X134844000Y-92640961D01*
X134796380Y-92593342D01*
X134796380Y-92260009D01*
X134986857Y-92260009D01*
X133653523Y-91640961D02*
X134510666Y-92926676D01*
X132844000Y-92688580D02*
X133320190Y-92688580D01*
X133320190Y-91688580D01*
X132510666Y-92688580D02*
X132510666Y-91688580D01*
X132034476Y-92688580D02*
X132034476Y-91688580D01*
X131463047Y-92688580D01*
X131463047Y-91688580D01*
X134748761Y-82825666D02*
X134796380Y-82968523D01*
X134796380Y-83206619D01*
X134748761Y-83301857D01*
X134701142Y-83349476D01*
X134605904Y-83397095D01*
X134510666Y-83397095D01*
X134415428Y-83349476D01*
X134367809Y-83301857D01*
X134320190Y-83206619D01*
X134272571Y-83016142D01*
X134224952Y-82920904D01*
X134177333Y-82873285D01*
X134082095Y-82825666D01*
X133986857Y-82825666D01*
X133891619Y-82873285D01*
X133844000Y-82920904D01*
X133796380Y-83016142D01*
X133796380Y-83254238D01*
X133844000Y-83397095D01*
X133796380Y-83730428D02*
X134796380Y-83968523D01*
X134082095Y-84159000D01*
X134796380Y-84349476D01*
X133796380Y-84587571D01*
X134796380Y-85492333D02*
X134796380Y-84920904D01*
X134796380Y-85206619D02*
X133796380Y-85206619D01*
X133939238Y-85111380D01*
X134034476Y-85016142D01*
X134082095Y-84920904D01*
G04 #@! TO.C,J3*
X146440571Y-109218380D02*
X146250095Y-109218380D01*
X146154857Y-109266000D01*
X146059619Y-109361238D01*
X146012000Y-109551714D01*
X146012000Y-109885047D01*
X146059619Y-110075523D01*
X146154857Y-110170761D01*
X146250095Y-110218380D01*
X146440571Y-110218380D01*
X146535809Y-110170761D01*
X146631047Y-110075523D01*
X146678666Y-109885047D01*
X146678666Y-109551714D01*
X146631047Y-109361238D01*
X146535809Y-109266000D01*
X146440571Y-109218380D01*
X145583428Y-109218380D02*
X145583428Y-110027904D01*
X145535809Y-110123142D01*
X145488190Y-110170761D01*
X145392952Y-110218380D01*
X145202476Y-110218380D01*
X145107238Y-110170761D01*
X145059619Y-110123142D01*
X145012000Y-110027904D01*
X145012000Y-109218380D01*
X144678666Y-109218380D02*
X144107238Y-109218380D01*
X144392952Y-110218380D02*
X144392952Y-109218380D01*
X143821523Y-109932666D02*
X143345333Y-109932666D01*
X143916761Y-110218380D02*
X143583428Y-109218380D01*
X143250095Y-110218380D01*
X145345333Y-106218380D02*
X145345333Y-106932666D01*
X145392952Y-107075523D01*
X145488190Y-107170761D01*
X145631047Y-107218380D01*
X145726285Y-107218380D01*
X144964380Y-106218380D02*
X144345333Y-106218380D01*
X144678666Y-106599333D01*
X144535809Y-106599333D01*
X144440571Y-106646952D01*
X144392952Y-106694571D01*
X144345333Y-106789809D01*
X144345333Y-107027904D01*
X144392952Y-107123142D01*
X144440571Y-107170761D01*
X144535809Y-107218380D01*
X144821523Y-107218380D01*
X144916761Y-107170761D01*
X144964380Y-107123142D01*
G04 #@! TO.C,J2*
X131049809Y-110123142D02*
X131097428Y-110170761D01*
X131240285Y-110218380D01*
X131335523Y-110218380D01*
X131478380Y-110170761D01*
X131573619Y-110075523D01*
X131621238Y-109980285D01*
X131668857Y-109789809D01*
X131668857Y-109646952D01*
X131621238Y-109456476D01*
X131573619Y-109361238D01*
X131478380Y-109266000D01*
X131335523Y-109218380D01*
X131240285Y-109218380D01*
X131097428Y-109266000D01*
X131049809Y-109313619D01*
X130764095Y-109218380D02*
X130430761Y-110218380D01*
X130097428Y-109218380D01*
X129811714Y-109932666D02*
X129335523Y-109932666D01*
X129906952Y-110218380D02*
X129573619Y-109218380D01*
X129240285Y-110218380D01*
X128954571Y-109313619D02*
X128906952Y-109266000D01*
X128811714Y-109218380D01*
X128573619Y-109218380D01*
X128478380Y-109266000D01*
X128430761Y-109313619D01*
X128383142Y-109408857D01*
X128383142Y-109504095D01*
X128430761Y-109646952D01*
X129002190Y-110218380D01*
X128383142Y-110218380D01*
X130359333Y-106218380D02*
X130359333Y-106932666D01*
X130406952Y-107075523D01*
X130502190Y-107170761D01*
X130645047Y-107218380D01*
X130740285Y-107218380D01*
X129930761Y-106313619D02*
X129883142Y-106266000D01*
X129787904Y-106218380D01*
X129549809Y-106218380D01*
X129454571Y-106266000D01*
X129406952Y-106313619D01*
X129359333Y-106408857D01*
X129359333Y-106504095D01*
X129406952Y-106646952D01*
X129978380Y-107218380D01*
X129359333Y-107218380D01*
G04 #@! TO.C,J1*
X116063809Y-110123142D02*
X116111428Y-110170761D01*
X116254285Y-110218380D01*
X116349523Y-110218380D01*
X116492380Y-110170761D01*
X116587619Y-110075523D01*
X116635238Y-109980285D01*
X116682857Y-109789809D01*
X116682857Y-109646952D01*
X116635238Y-109456476D01*
X116587619Y-109361238D01*
X116492380Y-109266000D01*
X116349523Y-109218380D01*
X116254285Y-109218380D01*
X116111428Y-109266000D01*
X116063809Y-109313619D01*
X115778095Y-109218380D02*
X115444761Y-110218380D01*
X115111428Y-109218380D01*
X114825714Y-109932666D02*
X114349523Y-109932666D01*
X114920952Y-110218380D02*
X114587619Y-109218380D01*
X114254285Y-110218380D01*
X113397142Y-110218380D02*
X113968571Y-110218380D01*
X113682857Y-110218380D02*
X113682857Y-109218380D01*
X113778095Y-109361238D01*
X113873333Y-109456476D01*
X113968571Y-109504095D01*
X115373333Y-106218380D02*
X115373333Y-106932666D01*
X115420952Y-107075523D01*
X115516190Y-107170761D01*
X115659047Y-107218380D01*
X115754285Y-107218380D01*
X114373333Y-107218380D02*
X114944761Y-107218380D01*
X114659047Y-107218380D02*
X114659047Y-106218380D01*
X114754285Y-106361238D01*
X114849523Y-106456476D01*
X114944761Y-106504095D01*
G04 #@! TO.C,J4*
X145964380Y-85293380D02*
X145964380Y-84293380D01*
X145488190Y-85293380D02*
X145488190Y-84293380D01*
X144916761Y-85293380D01*
X144916761Y-84293380D01*
X144488190Y-85007666D02*
X144012000Y-85007666D01*
X144583428Y-85293380D02*
X144250095Y-84293380D01*
X143916761Y-85293380D01*
X145345333Y-87293380D02*
X145345333Y-88007666D01*
X145392952Y-88150523D01*
X145488190Y-88245761D01*
X145631047Y-88293380D01*
X145726285Y-88293380D01*
X144440571Y-87626714D02*
X144440571Y-88293380D01*
X144678666Y-87245761D02*
X144916761Y-87960047D01*
X144297714Y-87960047D01*
G04 #@! TO.C,J8*
X146035809Y-30810380D02*
X146035809Y-29810380D01*
X145559619Y-30810380D02*
X145559619Y-29810380D01*
X144988190Y-30810380D01*
X144988190Y-29810380D01*
X144178666Y-30286571D02*
X144035809Y-30334190D01*
X143988190Y-30381809D01*
X143940571Y-30477047D01*
X143940571Y-30619904D01*
X143988190Y-30715142D01*
X144035809Y-30762761D01*
X144131047Y-30810380D01*
X144512000Y-30810380D01*
X144512000Y-29810380D01*
X144178666Y-29810380D01*
X144083428Y-29858000D01*
X144035809Y-29905619D01*
X143988190Y-30000857D01*
X143988190Y-30096095D01*
X144035809Y-30191333D01*
X144083428Y-30238952D01*
X144178666Y-30286571D01*
X144512000Y-30286571D01*
X145345333Y-32810380D02*
X145345333Y-33524666D01*
X145392952Y-33667523D01*
X145488190Y-33762761D01*
X145631047Y-33810380D01*
X145726285Y-33810380D01*
X144726285Y-33238952D02*
X144821523Y-33191333D01*
X144869142Y-33143714D01*
X144916761Y-33048476D01*
X144916761Y-33000857D01*
X144869142Y-32905619D01*
X144821523Y-32858000D01*
X144726285Y-32810380D01*
X144535809Y-32810380D01*
X144440571Y-32858000D01*
X144392952Y-32905619D01*
X144345333Y-33000857D01*
X144345333Y-33048476D01*
X144392952Y-33143714D01*
X144440571Y-33191333D01*
X144535809Y-33238952D01*
X144726285Y-33238952D01*
X144821523Y-33286571D01*
X144869142Y-33334190D01*
X144916761Y-33429428D01*
X144916761Y-33619904D01*
X144869142Y-33715142D01*
X144821523Y-33762761D01*
X144726285Y-33810380D01*
X144535809Y-33810380D01*
X144440571Y-33762761D01*
X144392952Y-33715142D01*
X144345333Y-33619904D01*
X144345333Y-33429428D01*
X144392952Y-33334190D01*
X144440571Y-33286571D01*
X144535809Y-33238952D01*
G04 #@! TO.C,J7*
X146512000Y-55116380D02*
X146321523Y-55116380D01*
X146226285Y-55164000D01*
X146131047Y-55259238D01*
X146083428Y-55449714D01*
X146083428Y-55783047D01*
X146131047Y-55973523D01*
X146226285Y-56068761D01*
X146321523Y-56116380D01*
X146512000Y-56116380D01*
X146607238Y-56068761D01*
X146702476Y-55973523D01*
X146750095Y-55783047D01*
X146750095Y-55449714D01*
X146702476Y-55259238D01*
X146607238Y-55164000D01*
X146512000Y-55116380D01*
X145654857Y-55116380D02*
X145654857Y-55925904D01*
X145607238Y-56021142D01*
X145559619Y-56068761D01*
X145464380Y-56116380D01*
X145273904Y-56116380D01*
X145178666Y-56068761D01*
X145131047Y-56021142D01*
X145083428Y-55925904D01*
X145083428Y-55116380D01*
X144750095Y-55116380D02*
X144178666Y-55116380D01*
X144464380Y-56116380D02*
X144464380Y-55116380D01*
X143512000Y-55592571D02*
X143369142Y-55640190D01*
X143321523Y-55687809D01*
X143273904Y-55783047D01*
X143273904Y-55925904D01*
X143321523Y-56021142D01*
X143369142Y-56068761D01*
X143464380Y-56116380D01*
X143845333Y-56116380D01*
X143845333Y-55116380D01*
X143512000Y-55116380D01*
X143416761Y-55164000D01*
X143369142Y-55211619D01*
X143321523Y-55306857D01*
X143321523Y-55402095D01*
X143369142Y-55497333D01*
X143416761Y-55544952D01*
X143512000Y-55592571D01*
X143845333Y-55592571D01*
X145345333Y-52116380D02*
X145345333Y-52830666D01*
X145392952Y-52973523D01*
X145488190Y-53068761D01*
X145631047Y-53116380D01*
X145726285Y-53116380D01*
X144964380Y-52116380D02*
X144297714Y-52116380D01*
X144726285Y-53116380D01*
G04 #@! TO.C,J6*
X131121238Y-56021142D02*
X131168857Y-56068761D01*
X131311714Y-56116380D01*
X131406952Y-56116380D01*
X131549809Y-56068761D01*
X131645047Y-55973523D01*
X131692666Y-55878285D01*
X131740285Y-55687809D01*
X131740285Y-55544952D01*
X131692666Y-55354476D01*
X131645047Y-55259238D01*
X131549809Y-55164000D01*
X131406952Y-55116380D01*
X131311714Y-55116380D01*
X131168857Y-55164000D01*
X131121238Y-55211619D01*
X130835523Y-55116380D02*
X130502190Y-56116380D01*
X130168857Y-55116380D01*
X129502190Y-55592571D02*
X129359333Y-55640190D01*
X129311714Y-55687809D01*
X129264095Y-55783047D01*
X129264095Y-55925904D01*
X129311714Y-56021142D01*
X129359333Y-56068761D01*
X129454571Y-56116380D01*
X129835523Y-56116380D01*
X129835523Y-55116380D01*
X129502190Y-55116380D01*
X129406952Y-55164000D01*
X129359333Y-55211619D01*
X129311714Y-55306857D01*
X129311714Y-55402095D01*
X129359333Y-55497333D01*
X129406952Y-55544952D01*
X129502190Y-55592571D01*
X129835523Y-55592571D01*
X128883142Y-55211619D02*
X128835523Y-55164000D01*
X128740285Y-55116380D01*
X128502190Y-55116380D01*
X128406952Y-55164000D01*
X128359333Y-55211619D01*
X128311714Y-55306857D01*
X128311714Y-55402095D01*
X128359333Y-55544952D01*
X128930761Y-56116380D01*
X128311714Y-56116380D01*
X130359333Y-52116380D02*
X130359333Y-52830666D01*
X130406952Y-52973523D01*
X130502190Y-53068761D01*
X130645047Y-53116380D01*
X130740285Y-53116380D01*
X129454571Y-52116380D02*
X129645047Y-52116380D01*
X129740285Y-52164000D01*
X129787904Y-52211619D01*
X129883142Y-52354476D01*
X129930761Y-52544952D01*
X129930761Y-52925904D01*
X129883142Y-53021142D01*
X129835523Y-53068761D01*
X129740285Y-53116380D01*
X129549809Y-53116380D01*
X129454571Y-53068761D01*
X129406952Y-53021142D01*
X129359333Y-52925904D01*
X129359333Y-52687809D01*
X129406952Y-52592571D01*
X129454571Y-52544952D01*
X129549809Y-52497333D01*
X129740285Y-52497333D01*
X129835523Y-52544952D01*
X129883142Y-52592571D01*
X129930761Y-52687809D01*
G04 #@! TO.C,J5*
X116135238Y-56021142D02*
X116182857Y-56068761D01*
X116325714Y-56116380D01*
X116420952Y-56116380D01*
X116563809Y-56068761D01*
X116659047Y-55973523D01*
X116706666Y-55878285D01*
X116754285Y-55687809D01*
X116754285Y-55544952D01*
X116706666Y-55354476D01*
X116659047Y-55259238D01*
X116563809Y-55164000D01*
X116420952Y-55116380D01*
X116325714Y-55116380D01*
X116182857Y-55164000D01*
X116135238Y-55211619D01*
X115849523Y-55116380D02*
X115516190Y-56116380D01*
X115182857Y-55116380D01*
X114325714Y-56116380D02*
X114897142Y-56116380D01*
X114611428Y-56116380D02*
X114611428Y-55116380D01*
X114706666Y-55259238D01*
X114801904Y-55354476D01*
X114897142Y-55402095D01*
X113563809Y-55592571D02*
X113420952Y-55640190D01*
X113373333Y-55687809D01*
X113325714Y-55783047D01*
X113325714Y-55925904D01*
X113373333Y-56021142D01*
X113420952Y-56068761D01*
X113516190Y-56116380D01*
X113897142Y-56116380D01*
X113897142Y-55116380D01*
X113563809Y-55116380D01*
X113468571Y-55164000D01*
X113420952Y-55211619D01*
X113373333Y-55306857D01*
X113373333Y-55402095D01*
X113420952Y-55497333D01*
X113468571Y-55544952D01*
X113563809Y-55592571D01*
X113897142Y-55592571D01*
X115373333Y-52116380D02*
X115373333Y-52830666D01*
X115420952Y-52973523D01*
X115516190Y-53068761D01*
X115659047Y-53116380D01*
X115754285Y-53116380D01*
X114420952Y-52116380D02*
X114897142Y-52116380D01*
X114944761Y-52592571D01*
X114897142Y-52544952D01*
X114801904Y-52497333D01*
X114563809Y-52497333D01*
X114468571Y-52544952D01*
X114420952Y-52592571D01*
X114373333Y-52687809D01*
X114373333Y-52925904D01*
X114420952Y-53021142D01*
X114468571Y-53068761D01*
X114563809Y-53116380D01*
X114801904Y-53116380D01*
X114897142Y-53068761D01*
X114944761Y-53021142D01*
G04 #@! TO.C,JP1*
X119798142Y-114520666D02*
X119845761Y-114473047D01*
X119893380Y-114330190D01*
X119893380Y-114234952D01*
X119845761Y-114092095D01*
X119750523Y-113996857D01*
X119655285Y-113949238D01*
X119464809Y-113901619D01*
X119321952Y-113901619D01*
X119131476Y-113949238D01*
X119036238Y-113996857D01*
X118941000Y-114092095D01*
X118893380Y-114234952D01*
X118893380Y-114330190D01*
X118941000Y-114473047D01*
X118988619Y-114520666D01*
X119893380Y-115092095D02*
X119845761Y-114996857D01*
X119798142Y-114949238D01*
X119702904Y-114901619D01*
X119417190Y-114901619D01*
X119321952Y-114949238D01*
X119274333Y-114996857D01*
X119226714Y-115092095D01*
X119226714Y-115234952D01*
X119274333Y-115330190D01*
X119321952Y-115377809D01*
X119417190Y-115425428D01*
X119702904Y-115425428D01*
X119798142Y-115377809D01*
X119845761Y-115330190D01*
X119893380Y-115234952D01*
X119893380Y-115092095D01*
X119226714Y-115854000D02*
X119893380Y-115854000D01*
X119321952Y-115854000D02*
X119274333Y-115901619D01*
X119226714Y-115996857D01*
X119226714Y-116139714D01*
X119274333Y-116234952D01*
X119369571Y-116282571D01*
X119893380Y-116282571D01*
X119226714Y-116758761D02*
X119893380Y-116758761D01*
X119321952Y-116758761D02*
X119274333Y-116806380D01*
X119226714Y-116901619D01*
X119226714Y-117044476D01*
X119274333Y-117139714D01*
X119369571Y-117187333D01*
X119893380Y-117187333D01*
X119988619Y-117425428D02*
X119988619Y-118187333D01*
X118893380Y-118615904D02*
X118893380Y-118711142D01*
X118941000Y-118806380D01*
X118988619Y-118854000D01*
X119083857Y-118901619D01*
X119274333Y-118949238D01*
X119512428Y-118949238D01*
X119702904Y-118901619D01*
X119798142Y-118854000D01*
X119845761Y-118806380D01*
X119893380Y-118711142D01*
X119893380Y-118615904D01*
X119845761Y-118520666D01*
X119798142Y-118473047D01*
X119702904Y-118425428D01*
X119512428Y-118377809D01*
X119274333Y-118377809D01*
X119083857Y-118425428D01*
X118988619Y-118473047D01*
X118941000Y-118520666D01*
X118893380Y-118615904D01*
X119893380Y-119901619D02*
X119893380Y-119330190D01*
X119893380Y-119615904D02*
X118893380Y-119615904D01*
X119036238Y-119520666D01*
X119131476Y-119425428D01*
X119179095Y-119330190D01*
X119893380Y-120234952D02*
X119226714Y-120758761D01*
X119226714Y-120234952D02*
X119893380Y-120758761D01*
X118893380Y-121330190D02*
X118893380Y-121425428D01*
X118941000Y-121520666D01*
X118988619Y-121568285D01*
X119083857Y-121615904D01*
X119274333Y-121663523D01*
X119512428Y-121663523D01*
X119702904Y-121615904D01*
X119798142Y-121568285D01*
X119845761Y-121520666D01*
X119893380Y-121425428D01*
X119893380Y-121330190D01*
X119845761Y-121234952D01*
X119798142Y-121187333D01*
X119702904Y-121139714D01*
X119512428Y-121092095D01*
X119274333Y-121092095D01*
X119083857Y-121139714D01*
X118988619Y-121187333D01*
X118941000Y-121234952D01*
X118893380Y-121330190D01*
X118893380Y-121996857D02*
X118893380Y-122615904D01*
X119274333Y-122282571D01*
X119274333Y-122425428D01*
X119321952Y-122520666D01*
X119369571Y-122568285D01*
X119464809Y-122615904D01*
X119702904Y-122615904D01*
X119798142Y-122568285D01*
X119845761Y-122520666D01*
X119893380Y-122425428D01*
X119893380Y-122139714D01*
X119845761Y-122044476D01*
X119798142Y-121996857D01*
X119988619Y-122806380D02*
X119988619Y-123568285D01*
X119893380Y-123806380D02*
X118893380Y-123806380D01*
X119607666Y-124139714D01*
X118893380Y-124473047D01*
X119893380Y-124473047D01*
X119893380Y-125377809D02*
X119369571Y-125377809D01*
X119274333Y-125330190D01*
X119226714Y-125234952D01*
X119226714Y-125044476D01*
X119274333Y-124949238D01*
X119845761Y-125377809D02*
X119893380Y-125282571D01*
X119893380Y-125044476D01*
X119845761Y-124949238D01*
X119750523Y-124901619D01*
X119655285Y-124901619D01*
X119560047Y-124949238D01*
X119512428Y-125044476D01*
X119512428Y-125282571D01*
X119464809Y-125377809D01*
X119893380Y-125996857D02*
X119845761Y-125901619D01*
X119750523Y-125854000D01*
X118893380Y-125854000D01*
X119845761Y-126758761D02*
X119893380Y-126663523D01*
X119893380Y-126473047D01*
X119845761Y-126377809D01*
X119750523Y-126330190D01*
X119369571Y-126330190D01*
X119274333Y-126377809D01*
X119226714Y-126473047D01*
X119226714Y-126663523D01*
X119274333Y-126758761D01*
X119369571Y-126806380D01*
X119464809Y-126806380D01*
X119560047Y-126330190D01*
X125144333Y-119806380D02*
X125144333Y-120520666D01*
X125191952Y-120663523D01*
X125287190Y-120758761D01*
X125430047Y-120806380D01*
X125525285Y-120806380D01*
X124668142Y-120806380D02*
X124668142Y-119806380D01*
X124287190Y-119806380D01*
X124191952Y-119854000D01*
X124144333Y-119901619D01*
X124096714Y-119996857D01*
X124096714Y-120139714D01*
X124144333Y-120234952D01*
X124191952Y-120282571D01*
X124287190Y-120330190D01*
X124668142Y-120330190D01*
X123144333Y-120806380D02*
X123715761Y-120806380D01*
X123430047Y-120806380D02*
X123430047Y-119806380D01*
X123525285Y-119949238D01*
X123620523Y-120044476D01*
X123715761Y-120092095D01*
G04 #@! TO.C,JP3*
X119632142Y-157700666D02*
X119679761Y-157653047D01*
X119727380Y-157510190D01*
X119727380Y-157414952D01*
X119679761Y-157272095D01*
X119584523Y-157176857D01*
X119489285Y-157129238D01*
X119298809Y-157081619D01*
X119155952Y-157081619D01*
X118965476Y-157129238D01*
X118870238Y-157176857D01*
X118775000Y-157272095D01*
X118727380Y-157414952D01*
X118727380Y-157510190D01*
X118775000Y-157653047D01*
X118822619Y-157700666D01*
X119727380Y-158272095D02*
X119679761Y-158176857D01*
X119632142Y-158129238D01*
X119536904Y-158081619D01*
X119251190Y-158081619D01*
X119155952Y-158129238D01*
X119108333Y-158176857D01*
X119060714Y-158272095D01*
X119060714Y-158414952D01*
X119108333Y-158510190D01*
X119155952Y-158557809D01*
X119251190Y-158605428D01*
X119536904Y-158605428D01*
X119632142Y-158557809D01*
X119679761Y-158510190D01*
X119727380Y-158414952D01*
X119727380Y-158272095D01*
X119060714Y-159034000D02*
X119727380Y-159034000D01*
X119155952Y-159034000D02*
X119108333Y-159081619D01*
X119060714Y-159176857D01*
X119060714Y-159319714D01*
X119108333Y-159414952D01*
X119203571Y-159462571D01*
X119727380Y-159462571D01*
X119060714Y-159938761D02*
X119727380Y-159938761D01*
X119155952Y-159938761D02*
X119108333Y-159986380D01*
X119060714Y-160081619D01*
X119060714Y-160224476D01*
X119108333Y-160319714D01*
X119203571Y-160367333D01*
X119727380Y-160367333D01*
X119822619Y-160605428D02*
X119822619Y-161367333D01*
X118727380Y-161795904D02*
X118727380Y-161891142D01*
X118775000Y-161986380D01*
X118822619Y-162034000D01*
X118917857Y-162081619D01*
X119108333Y-162129238D01*
X119346428Y-162129238D01*
X119536904Y-162081619D01*
X119632142Y-162034000D01*
X119679761Y-161986380D01*
X119727380Y-161891142D01*
X119727380Y-161795904D01*
X119679761Y-161700666D01*
X119632142Y-161653047D01*
X119536904Y-161605428D01*
X119346428Y-161557809D01*
X119108333Y-161557809D01*
X118917857Y-161605428D01*
X118822619Y-161653047D01*
X118775000Y-161700666D01*
X118727380Y-161795904D01*
X119727380Y-163081619D02*
X119727380Y-162510190D01*
X119727380Y-162795904D02*
X118727380Y-162795904D01*
X118870238Y-162700666D01*
X118965476Y-162605428D01*
X119013095Y-162510190D01*
X119727380Y-163414952D02*
X119060714Y-163938761D01*
X119060714Y-163414952D02*
X119727380Y-163938761D01*
X118727380Y-164510190D02*
X118727380Y-164605428D01*
X118775000Y-164700666D01*
X118822619Y-164748285D01*
X118917857Y-164795904D01*
X119108333Y-164843523D01*
X119346428Y-164843523D01*
X119536904Y-164795904D01*
X119632142Y-164748285D01*
X119679761Y-164700666D01*
X119727380Y-164605428D01*
X119727380Y-164510190D01*
X119679761Y-164414952D01*
X119632142Y-164367333D01*
X119536904Y-164319714D01*
X119346428Y-164272095D01*
X119108333Y-164272095D01*
X118917857Y-164319714D01*
X118822619Y-164367333D01*
X118775000Y-164414952D01*
X118727380Y-164510190D01*
X119060714Y-165700666D02*
X119727380Y-165700666D01*
X118679761Y-165462571D02*
X119394047Y-165224476D01*
X119394047Y-165843523D01*
X119822619Y-165986380D02*
X119822619Y-166748285D01*
X119727380Y-166986380D02*
X118727380Y-166986380D01*
X119441666Y-167319714D01*
X118727380Y-167653047D01*
X119727380Y-167653047D01*
X119727380Y-168557809D02*
X119203571Y-168557809D01*
X119108333Y-168510190D01*
X119060714Y-168414952D01*
X119060714Y-168224476D01*
X119108333Y-168129238D01*
X119679761Y-168557809D02*
X119727380Y-168462571D01*
X119727380Y-168224476D01*
X119679761Y-168129238D01*
X119584523Y-168081619D01*
X119489285Y-168081619D01*
X119394047Y-168129238D01*
X119346428Y-168224476D01*
X119346428Y-168462571D01*
X119298809Y-168557809D01*
X119727380Y-169176857D02*
X119679761Y-169081619D01*
X119584523Y-169034000D01*
X118727380Y-169034000D01*
X119679761Y-169938761D02*
X119727380Y-169843523D01*
X119727380Y-169653047D01*
X119679761Y-169557809D01*
X119584523Y-169510190D01*
X119203571Y-169510190D01*
X119108333Y-169557809D01*
X119060714Y-169653047D01*
X119060714Y-169843523D01*
X119108333Y-169938761D01*
X119203571Y-169986380D01*
X119298809Y-169986380D01*
X119394047Y-169510190D01*
X113968333Y-162986380D02*
X113968333Y-163700666D01*
X114015952Y-163843523D01*
X114111190Y-163938761D01*
X114254047Y-163986380D01*
X114349285Y-163986380D01*
X113492142Y-163986380D02*
X113492142Y-162986380D01*
X113111190Y-162986380D01*
X113015952Y-163034000D01*
X112968333Y-163081619D01*
X112920714Y-163176857D01*
X112920714Y-163319714D01*
X112968333Y-163414952D01*
X113015952Y-163462571D01*
X113111190Y-163510190D01*
X113492142Y-163510190D01*
X112587380Y-162986380D02*
X111968333Y-162986380D01*
X112301666Y-163367333D01*
X112158809Y-163367333D01*
X112063571Y-163414952D01*
X112015952Y-163462571D01*
X111968333Y-163557809D01*
X111968333Y-163795904D01*
X112015952Y-163891142D01*
X112063571Y-163938761D01*
X112158809Y-163986380D01*
X112444523Y-163986380D01*
X112539761Y-163938761D01*
X112587380Y-163891142D01*
G04 #@! TO.C,JP5*
X153033142Y-115155666D02*
X153080761Y-115108047D01*
X153128380Y-114965190D01*
X153128380Y-114869952D01*
X153080761Y-114727095D01*
X152985523Y-114631857D01*
X152890285Y-114584238D01*
X152699809Y-114536619D01*
X152556952Y-114536619D01*
X152366476Y-114584238D01*
X152271238Y-114631857D01*
X152176000Y-114727095D01*
X152128380Y-114869952D01*
X152128380Y-114965190D01*
X152176000Y-115108047D01*
X152223619Y-115155666D01*
X153128380Y-115727095D02*
X153080761Y-115631857D01*
X153033142Y-115584238D01*
X152937904Y-115536619D01*
X152652190Y-115536619D01*
X152556952Y-115584238D01*
X152509333Y-115631857D01*
X152461714Y-115727095D01*
X152461714Y-115869952D01*
X152509333Y-115965190D01*
X152556952Y-116012809D01*
X152652190Y-116060428D01*
X152937904Y-116060428D01*
X153033142Y-116012809D01*
X153080761Y-115965190D01*
X153128380Y-115869952D01*
X153128380Y-115727095D01*
X152461714Y-116489000D02*
X153128380Y-116489000D01*
X152556952Y-116489000D02*
X152509333Y-116536619D01*
X152461714Y-116631857D01*
X152461714Y-116774714D01*
X152509333Y-116869952D01*
X152604571Y-116917571D01*
X153128380Y-116917571D01*
X152461714Y-117393761D02*
X153128380Y-117393761D01*
X152556952Y-117393761D02*
X152509333Y-117441380D01*
X152461714Y-117536619D01*
X152461714Y-117679476D01*
X152509333Y-117774714D01*
X152604571Y-117822333D01*
X153128380Y-117822333D01*
X153223619Y-118060428D02*
X153223619Y-118822333D01*
X152128380Y-119250904D02*
X152128380Y-119346142D01*
X152176000Y-119441380D01*
X152223619Y-119489000D01*
X152318857Y-119536619D01*
X152509333Y-119584238D01*
X152747428Y-119584238D01*
X152937904Y-119536619D01*
X153033142Y-119489000D01*
X153080761Y-119441380D01*
X153128380Y-119346142D01*
X153128380Y-119250904D01*
X153080761Y-119155666D01*
X153033142Y-119108047D01*
X152937904Y-119060428D01*
X152747428Y-119012809D01*
X152509333Y-119012809D01*
X152318857Y-119060428D01*
X152223619Y-119108047D01*
X152176000Y-119155666D01*
X152128380Y-119250904D01*
X153128380Y-120536619D02*
X153128380Y-119965190D01*
X153128380Y-120250904D02*
X152128380Y-120250904D01*
X152271238Y-120155666D01*
X152366476Y-120060428D01*
X152414095Y-119965190D01*
X153128380Y-120869952D02*
X152461714Y-121393761D01*
X152461714Y-120869952D02*
X153128380Y-121393761D01*
X152128380Y-121965190D02*
X152128380Y-122060428D01*
X152176000Y-122155666D01*
X152223619Y-122203285D01*
X152318857Y-122250904D01*
X152509333Y-122298523D01*
X152747428Y-122298523D01*
X152937904Y-122250904D01*
X153033142Y-122203285D01*
X153080761Y-122155666D01*
X153128380Y-122060428D01*
X153128380Y-121965190D01*
X153080761Y-121869952D01*
X153033142Y-121822333D01*
X152937904Y-121774714D01*
X152747428Y-121727095D01*
X152509333Y-121727095D01*
X152318857Y-121774714D01*
X152223619Y-121822333D01*
X152176000Y-121869952D01*
X152128380Y-121965190D01*
X152461714Y-123155666D02*
X153128380Y-123155666D01*
X152080761Y-122917571D02*
X152795047Y-122679476D01*
X152795047Y-123298523D01*
X153223619Y-123441380D02*
X153223619Y-124203285D01*
X153128380Y-124441380D02*
X152128380Y-124441380D01*
X152842666Y-124774714D01*
X152128380Y-125108047D01*
X153128380Y-125108047D01*
X153128380Y-126012809D02*
X152604571Y-126012809D01*
X152509333Y-125965190D01*
X152461714Y-125869952D01*
X152461714Y-125679476D01*
X152509333Y-125584238D01*
X153080761Y-126012809D02*
X153128380Y-125917571D01*
X153128380Y-125679476D01*
X153080761Y-125584238D01*
X152985523Y-125536619D01*
X152890285Y-125536619D01*
X152795047Y-125584238D01*
X152747428Y-125679476D01*
X152747428Y-125917571D01*
X152699809Y-126012809D01*
X153128380Y-126631857D02*
X153080761Y-126536619D01*
X152985523Y-126489000D01*
X152128380Y-126489000D01*
X153080761Y-127393761D02*
X153128380Y-127298523D01*
X153128380Y-127108047D01*
X153080761Y-127012809D01*
X152985523Y-126965190D01*
X152604571Y-126965190D01*
X152509333Y-127012809D01*
X152461714Y-127108047D01*
X152461714Y-127298523D01*
X152509333Y-127393761D01*
X152604571Y-127441380D01*
X152699809Y-127441380D01*
X152795047Y-126965190D01*
X147369333Y-120441380D02*
X147369333Y-121155666D01*
X147416952Y-121298523D01*
X147512190Y-121393761D01*
X147655047Y-121441380D01*
X147750285Y-121441380D01*
X146893142Y-121441380D02*
X146893142Y-120441380D01*
X146512190Y-120441380D01*
X146416952Y-120489000D01*
X146369333Y-120536619D01*
X146321714Y-120631857D01*
X146321714Y-120774714D01*
X146369333Y-120869952D01*
X146416952Y-120917571D01*
X146512190Y-120965190D01*
X146893142Y-120965190D01*
X145416952Y-120441380D02*
X145893142Y-120441380D01*
X145940761Y-120917571D01*
X145893142Y-120869952D01*
X145797904Y-120822333D01*
X145559809Y-120822333D01*
X145464571Y-120869952D01*
X145416952Y-120917571D01*
X145369333Y-121012809D01*
X145369333Y-121250904D01*
X145416952Y-121346142D01*
X145464571Y-121393761D01*
X145559809Y-121441380D01*
X145797904Y-121441380D01*
X145893142Y-121393761D01*
X145940761Y-121346142D01*
G04 #@! TO.C,JP7*
X153033142Y-157700666D02*
X153080761Y-157653047D01*
X153128380Y-157510190D01*
X153128380Y-157414952D01*
X153080761Y-157272095D01*
X152985523Y-157176857D01*
X152890285Y-157129238D01*
X152699809Y-157081619D01*
X152556952Y-157081619D01*
X152366476Y-157129238D01*
X152271238Y-157176857D01*
X152176000Y-157272095D01*
X152128380Y-157414952D01*
X152128380Y-157510190D01*
X152176000Y-157653047D01*
X152223619Y-157700666D01*
X153128380Y-158272095D02*
X153080761Y-158176857D01*
X153033142Y-158129238D01*
X152937904Y-158081619D01*
X152652190Y-158081619D01*
X152556952Y-158129238D01*
X152509333Y-158176857D01*
X152461714Y-158272095D01*
X152461714Y-158414952D01*
X152509333Y-158510190D01*
X152556952Y-158557809D01*
X152652190Y-158605428D01*
X152937904Y-158605428D01*
X153033142Y-158557809D01*
X153080761Y-158510190D01*
X153128380Y-158414952D01*
X153128380Y-158272095D01*
X152461714Y-159034000D02*
X153128380Y-159034000D01*
X152556952Y-159034000D02*
X152509333Y-159081619D01*
X152461714Y-159176857D01*
X152461714Y-159319714D01*
X152509333Y-159414952D01*
X152604571Y-159462571D01*
X153128380Y-159462571D01*
X152461714Y-159938761D02*
X153128380Y-159938761D01*
X152556952Y-159938761D02*
X152509333Y-159986380D01*
X152461714Y-160081619D01*
X152461714Y-160224476D01*
X152509333Y-160319714D01*
X152604571Y-160367333D01*
X153128380Y-160367333D01*
X153223619Y-160605428D02*
X153223619Y-161367333D01*
X152128380Y-161795904D02*
X152128380Y-161891142D01*
X152176000Y-161986380D01*
X152223619Y-162034000D01*
X152318857Y-162081619D01*
X152509333Y-162129238D01*
X152747428Y-162129238D01*
X152937904Y-162081619D01*
X153033142Y-162034000D01*
X153080761Y-161986380D01*
X153128380Y-161891142D01*
X153128380Y-161795904D01*
X153080761Y-161700666D01*
X153033142Y-161653047D01*
X152937904Y-161605428D01*
X152747428Y-161557809D01*
X152509333Y-161557809D01*
X152318857Y-161605428D01*
X152223619Y-161653047D01*
X152176000Y-161700666D01*
X152128380Y-161795904D01*
X153128380Y-163081619D02*
X153128380Y-162510190D01*
X153128380Y-162795904D02*
X152128380Y-162795904D01*
X152271238Y-162700666D01*
X152366476Y-162605428D01*
X152414095Y-162510190D01*
X153128380Y-163414952D02*
X152461714Y-163938761D01*
X152461714Y-163414952D02*
X153128380Y-163938761D01*
X152128380Y-164510190D02*
X152128380Y-164605428D01*
X152176000Y-164700666D01*
X152223619Y-164748285D01*
X152318857Y-164795904D01*
X152509333Y-164843523D01*
X152747428Y-164843523D01*
X152937904Y-164795904D01*
X153033142Y-164748285D01*
X153080761Y-164700666D01*
X153128380Y-164605428D01*
X153128380Y-164510190D01*
X153080761Y-164414952D01*
X153033142Y-164367333D01*
X152937904Y-164319714D01*
X152747428Y-164272095D01*
X152509333Y-164272095D01*
X152318857Y-164319714D01*
X152223619Y-164367333D01*
X152176000Y-164414952D01*
X152128380Y-164510190D01*
X152461714Y-165700666D02*
X153128380Y-165700666D01*
X152080761Y-165462571D02*
X152795047Y-165224476D01*
X152795047Y-165843523D01*
X153223619Y-165986380D02*
X153223619Y-166748285D01*
X153128380Y-166986380D02*
X152128380Y-166986380D01*
X152842666Y-167319714D01*
X152128380Y-167653047D01*
X153128380Y-167653047D01*
X153128380Y-168557809D02*
X152604571Y-168557809D01*
X152509333Y-168510190D01*
X152461714Y-168414952D01*
X152461714Y-168224476D01*
X152509333Y-168129238D01*
X153080761Y-168557809D02*
X153128380Y-168462571D01*
X153128380Y-168224476D01*
X153080761Y-168129238D01*
X152985523Y-168081619D01*
X152890285Y-168081619D01*
X152795047Y-168129238D01*
X152747428Y-168224476D01*
X152747428Y-168462571D01*
X152699809Y-168557809D01*
X153128380Y-169176857D02*
X153080761Y-169081619D01*
X152985523Y-169034000D01*
X152128380Y-169034000D01*
X153080761Y-169938761D02*
X153128380Y-169843523D01*
X153128380Y-169653047D01*
X153080761Y-169557809D01*
X152985523Y-169510190D01*
X152604571Y-169510190D01*
X152509333Y-169557809D01*
X152461714Y-169653047D01*
X152461714Y-169843523D01*
X152509333Y-169938761D01*
X152604571Y-169986380D01*
X152699809Y-169986380D01*
X152795047Y-169510190D01*
X147369333Y-162986380D02*
X147369333Y-163700666D01*
X147416952Y-163843523D01*
X147512190Y-163938761D01*
X147655047Y-163986380D01*
X147750285Y-163986380D01*
X146893142Y-163986380D02*
X146893142Y-162986380D01*
X146512190Y-162986380D01*
X146416952Y-163034000D01*
X146369333Y-163081619D01*
X146321714Y-163176857D01*
X146321714Y-163319714D01*
X146369333Y-163414952D01*
X146416952Y-163462571D01*
X146512190Y-163510190D01*
X146893142Y-163510190D01*
X145988380Y-162986380D02*
X145321714Y-162986380D01*
X145750285Y-163986380D01*
G04 #@! TO.C,JP9*
X119632142Y-115155666D02*
X119679761Y-115108047D01*
X119727380Y-114965190D01*
X119727380Y-114869952D01*
X119679761Y-114727095D01*
X119584523Y-114631857D01*
X119489285Y-114584238D01*
X119298809Y-114536619D01*
X119155952Y-114536619D01*
X118965476Y-114584238D01*
X118870238Y-114631857D01*
X118775000Y-114727095D01*
X118727380Y-114869952D01*
X118727380Y-114965190D01*
X118775000Y-115108047D01*
X118822619Y-115155666D01*
X119727380Y-115727095D02*
X119679761Y-115631857D01*
X119632142Y-115584238D01*
X119536904Y-115536619D01*
X119251190Y-115536619D01*
X119155952Y-115584238D01*
X119108333Y-115631857D01*
X119060714Y-115727095D01*
X119060714Y-115869952D01*
X119108333Y-115965190D01*
X119155952Y-116012809D01*
X119251190Y-116060428D01*
X119536904Y-116060428D01*
X119632142Y-116012809D01*
X119679761Y-115965190D01*
X119727380Y-115869952D01*
X119727380Y-115727095D01*
X119060714Y-116489000D02*
X119727380Y-116489000D01*
X119155952Y-116489000D02*
X119108333Y-116536619D01*
X119060714Y-116631857D01*
X119060714Y-116774714D01*
X119108333Y-116869952D01*
X119203571Y-116917571D01*
X119727380Y-116917571D01*
X119060714Y-117393761D02*
X119727380Y-117393761D01*
X119155952Y-117393761D02*
X119108333Y-117441380D01*
X119060714Y-117536619D01*
X119060714Y-117679476D01*
X119108333Y-117774714D01*
X119203571Y-117822333D01*
X119727380Y-117822333D01*
X119822619Y-118060428D02*
X119822619Y-118822333D01*
X118727380Y-119250904D02*
X118727380Y-119346142D01*
X118775000Y-119441380D01*
X118822619Y-119489000D01*
X118917857Y-119536619D01*
X119108333Y-119584238D01*
X119346428Y-119584238D01*
X119536904Y-119536619D01*
X119632142Y-119489000D01*
X119679761Y-119441380D01*
X119727380Y-119346142D01*
X119727380Y-119250904D01*
X119679761Y-119155666D01*
X119632142Y-119108047D01*
X119536904Y-119060428D01*
X119346428Y-119012809D01*
X119108333Y-119012809D01*
X118917857Y-119060428D01*
X118822619Y-119108047D01*
X118775000Y-119155666D01*
X118727380Y-119250904D01*
X119727380Y-120536619D02*
X119727380Y-119965190D01*
X119727380Y-120250904D02*
X118727380Y-120250904D01*
X118870238Y-120155666D01*
X118965476Y-120060428D01*
X119013095Y-119965190D01*
X119727380Y-120869952D02*
X119060714Y-121393761D01*
X119060714Y-120869952D02*
X119727380Y-121393761D01*
X118727380Y-121965190D02*
X118727380Y-122060428D01*
X118775000Y-122155666D01*
X118822619Y-122203285D01*
X118917857Y-122250904D01*
X119108333Y-122298523D01*
X119346428Y-122298523D01*
X119536904Y-122250904D01*
X119632142Y-122203285D01*
X119679761Y-122155666D01*
X119727380Y-122060428D01*
X119727380Y-121965190D01*
X119679761Y-121869952D01*
X119632142Y-121822333D01*
X119536904Y-121774714D01*
X119346428Y-121727095D01*
X119108333Y-121727095D01*
X118917857Y-121774714D01*
X118822619Y-121822333D01*
X118775000Y-121869952D01*
X118727380Y-121965190D01*
X119060714Y-123155666D02*
X119727380Y-123155666D01*
X118679761Y-122917571D02*
X119394047Y-122679476D01*
X119394047Y-123298523D01*
X119822619Y-123441380D02*
X119822619Y-124203285D01*
X119727380Y-124441380D02*
X118727380Y-124441380D01*
X119441666Y-124774714D01*
X118727380Y-125108047D01*
X119727380Y-125108047D01*
X119727380Y-126012809D02*
X119203571Y-126012809D01*
X119108333Y-125965190D01*
X119060714Y-125869952D01*
X119060714Y-125679476D01*
X119108333Y-125584238D01*
X119679761Y-126012809D02*
X119727380Y-125917571D01*
X119727380Y-125679476D01*
X119679761Y-125584238D01*
X119584523Y-125536619D01*
X119489285Y-125536619D01*
X119394047Y-125584238D01*
X119346428Y-125679476D01*
X119346428Y-125917571D01*
X119298809Y-126012809D01*
X119727380Y-126631857D02*
X119679761Y-126536619D01*
X119584523Y-126489000D01*
X118727380Y-126489000D01*
X119679761Y-127393761D02*
X119727380Y-127298523D01*
X119727380Y-127108047D01*
X119679761Y-127012809D01*
X119584523Y-126965190D01*
X119203571Y-126965190D01*
X119108333Y-127012809D01*
X119060714Y-127108047D01*
X119060714Y-127298523D01*
X119108333Y-127393761D01*
X119203571Y-127441380D01*
X119298809Y-127441380D01*
X119394047Y-126965190D01*
X113968333Y-120441380D02*
X113968333Y-121155666D01*
X114015952Y-121298523D01*
X114111190Y-121393761D01*
X114254047Y-121441380D01*
X114349285Y-121441380D01*
X113492142Y-121441380D02*
X113492142Y-120441380D01*
X113111190Y-120441380D01*
X113015952Y-120489000D01*
X112968333Y-120536619D01*
X112920714Y-120631857D01*
X112920714Y-120774714D01*
X112968333Y-120869952D01*
X113015952Y-120917571D01*
X113111190Y-120965190D01*
X113492142Y-120965190D01*
X112444523Y-121441380D02*
X112254047Y-121441380D01*
X112158809Y-121393761D01*
X112111190Y-121346142D01*
X112015952Y-121203285D01*
X111968333Y-121012809D01*
X111968333Y-120631857D01*
X112015952Y-120536619D01*
X112063571Y-120489000D01*
X112158809Y-120441380D01*
X112349285Y-120441380D01*
X112444523Y-120489000D01*
X112492142Y-120536619D01*
X112539761Y-120631857D01*
X112539761Y-120869952D01*
X112492142Y-120965190D01*
X112444523Y-121012809D01*
X112349285Y-121060428D01*
X112158809Y-121060428D01*
X112063571Y-121012809D01*
X112015952Y-120965190D01*
X111968333Y-120869952D01*
G04 #@! TD*
M02*
