G04 #@! TF.GenerationSoftware,KiCad,Pcbnew,(5.0.1)-4*
G04 #@! TF.CreationDate,2019-03-05T01:37:16-06:00*
G04 #@! TF.ProjectId,vca,7663612E6B696361645F706362000000,rev?*
G04 #@! TF.SameCoordinates,Original*
G04 #@! TF.FileFunction,Other,Fab,Top*
%FSLAX46Y46*%
G04 Gerber Fmt 4.6, Leading zero omitted, Abs format (unit mm)*
G04 Created by KiCad (PCBNEW (5.0.1)-4) date 3/5/2019 1:37:16*
%MOMM*%
%LPD*%
G01*
G04 APERTURE LIST*
%ADD10C,0.100000*%
%ADD11C,0.150000*%
%ADD12C,0.120000*%
%ADD13C,0.135000*%
G04 APERTURE END LIST*
D10*
G04 #@! TO.C,Q2*
X134573625Y-163001625D02*
G75*
G02X130340000Y-161248000I-1753625J1753625D01*
G01*
X134573625Y-159494375D02*
G75*
G03X130340000Y-161248000I-1753625J-1753625D01*
G01*
X134570000Y-163018000D02*
X134570000Y-159518000D01*
G04 #@! TO.C,Q1*
X125937625Y-163001625D02*
G75*
G02X121704000Y-161248000I-1753625J1753625D01*
G01*
X125937625Y-159494375D02*
G75*
G03X121704000Y-161248000I-1753625J-1753625D01*
G01*
X125934000Y-163018000D02*
X125934000Y-159518000D01*
G04 #@! TO.C,Q4*
X134446625Y-126806625D02*
G75*
G02X130213000Y-125053000I-1753625J1753625D01*
G01*
X134446625Y-123299375D02*
G75*
G03X130213000Y-125053000I-1753625J-1753625D01*
G01*
X134443000Y-126823000D02*
X134443000Y-123323000D01*
G04 #@! TO.C,Q3*
X121414375Y-123362875D02*
G75*
G02X125648000Y-125116500I1753625J-1753625D01*
G01*
X121414375Y-126870125D02*
G75*
G03X125648000Y-125116500I1753625J1753625D01*
G01*
X121418000Y-123346500D02*
X121418000Y-126846500D01*
G04 #@! TO.C,C3*
X141799000Y-141893000D02*
X141799000Y-138693000D01*
X143399000Y-141893000D02*
X141799000Y-141893000D01*
X143399000Y-138693000D02*
X143399000Y-141893000D01*
X141799000Y-138693000D02*
X143399000Y-138693000D01*
G04 #@! TO.C,C5*
X141799000Y-147608000D02*
X141799000Y-144408000D01*
X143399000Y-147608000D02*
X141799000Y-147608000D01*
X143399000Y-144408000D02*
X143399000Y-147608000D01*
X141799000Y-144408000D02*
X143399000Y-144408000D01*
G04 #@! TO.C,C1*
X142277500Y-73108605D02*
X142777500Y-73108605D01*
X142527500Y-73358605D02*
X142527500Y-72858605D01*
X146115000Y-71225000D02*
G75*
G03X146115000Y-71225000I-2500000J0D01*
G01*
G04 #@! TO.C,C2*
X124349000Y-138693000D02*
X124349000Y-141893000D01*
X122749000Y-138693000D02*
X124349000Y-138693000D01*
X122749000Y-141893000D02*
X122749000Y-138693000D01*
X124349000Y-141893000D02*
X122749000Y-141893000D01*
G04 #@! TO.C,C6*
X124349000Y-145170000D02*
X124349000Y-148370000D01*
X122749000Y-145170000D02*
X124349000Y-145170000D01*
X122749000Y-148370000D02*
X122749000Y-145170000D01*
X124349000Y-148370000D02*
X122749000Y-148370000D01*
G04 #@! TO.C,J9*
X140206000Y-75630000D02*
X139646000Y-75080000D01*
X119846000Y-75630000D02*
X120386000Y-75080000D01*
X140206000Y-66780000D02*
X139646000Y-67330000D01*
X119846000Y-66780000D02*
X120386000Y-67330000D01*
X139646000Y-67330000D02*
X139646000Y-75080000D01*
X140206000Y-66780000D02*
X140206000Y-75630000D01*
X120386000Y-67330000D02*
X120386000Y-75080000D01*
X119846000Y-66780000D02*
X119846000Y-75630000D01*
X132276000Y-75080000D02*
X132276000Y-75630000D01*
X127776000Y-75080000D02*
X127776000Y-75630000D01*
X132276000Y-75080000D02*
X139646000Y-75080000D01*
X120386000Y-75080000D02*
X127776000Y-75080000D01*
X119846000Y-75630000D02*
X140206000Y-75630000D01*
X120386000Y-67330000D02*
X139646000Y-67330000D01*
X119846000Y-66780000D02*
X140206000Y-66780000D01*
G04 #@! TO.C,R1*
X111154000Y-150923000D02*
X114354000Y-150923000D01*
X111154000Y-152523000D02*
X111154000Y-150923000D01*
X114354000Y-152523000D02*
X111154000Y-152523000D01*
X114354000Y-150923000D02*
X114354000Y-152523000D01*
G04 #@! TO.C,R2*
X122749000Y-153958000D02*
X122749000Y-150758000D01*
X124349000Y-153958000D02*
X122749000Y-153958000D01*
X124349000Y-150758000D02*
X124349000Y-153958000D01*
X122749000Y-150758000D02*
X124349000Y-150758000D01*
G04 #@! TO.C,R3*
X116869000Y-148383000D02*
X120069000Y-148383000D01*
X116869000Y-149983000D02*
X116869000Y-148383000D01*
X120069000Y-149983000D02*
X116869000Y-149983000D01*
X120069000Y-148383000D02*
X120069000Y-149983000D01*
G04 #@! TO.C,R4*
X111154000Y-153463000D02*
X114354000Y-153463000D01*
X111154000Y-155063000D02*
X111154000Y-153463000D01*
X114354000Y-155063000D02*
X111154000Y-155063000D01*
X114354000Y-153463000D02*
X114354000Y-155063000D01*
G04 #@! TO.C,R5*
X120069000Y-157603000D02*
X116869000Y-157603000D01*
X120069000Y-156003000D02*
X120069000Y-157603000D01*
X116869000Y-156003000D02*
X120069000Y-156003000D01*
X116869000Y-157603000D02*
X116869000Y-156003000D01*
G04 #@! TO.C,R6*
X120069000Y-160778000D02*
X116869000Y-160778000D01*
X120069000Y-159178000D02*
X120069000Y-160778000D01*
X116869000Y-159178000D02*
X120069000Y-159178000D01*
X116869000Y-160778000D02*
X116869000Y-159178000D01*
G04 #@! TO.C,R7*
X111154000Y-148383000D02*
X114354000Y-148383000D01*
X111154000Y-149983000D02*
X111154000Y-148383000D01*
X114354000Y-149983000D02*
X111154000Y-149983000D01*
X114354000Y-148383000D02*
X114354000Y-149983000D01*
G04 #@! TO.C,R8*
X123219000Y-155368000D02*
X126419000Y-155368000D01*
X123219000Y-156968000D02*
X123219000Y-155368000D01*
X126419000Y-156968000D02*
X123219000Y-156968000D01*
X126419000Y-155368000D02*
X126419000Y-156968000D01*
G04 #@! TO.C,R9*
X125289000Y-153958000D02*
X125289000Y-150758000D01*
X126889000Y-153958000D02*
X125289000Y-153958000D01*
X126889000Y-150758000D02*
X126889000Y-153958000D01*
X125289000Y-150758000D02*
X126889000Y-150758000D01*
G04 #@! TO.C,R11*
X111154000Y-156003000D02*
X114354000Y-156003000D01*
X111154000Y-157603000D02*
X111154000Y-156003000D01*
X114354000Y-157603000D02*
X111154000Y-157603000D01*
X114354000Y-156003000D02*
X114354000Y-157603000D01*
G04 #@! TO.C,R12*
X120069000Y-155063000D02*
X116869000Y-155063000D01*
X120069000Y-153463000D02*
X120069000Y-155063000D01*
X116869000Y-153463000D02*
X120069000Y-153463000D01*
X116869000Y-155063000D02*
X116869000Y-153463000D01*
G04 #@! TO.C,R13*
X116869000Y-150923000D02*
X120069000Y-150923000D01*
X116869000Y-152523000D02*
X116869000Y-150923000D01*
X120069000Y-152523000D02*
X116869000Y-152523000D01*
X120069000Y-150923000D02*
X120069000Y-152523000D01*
G04 #@! TO.C,R14*
X125289000Y-148370000D02*
X125289000Y-145170000D01*
X126889000Y-148370000D02*
X125289000Y-148370000D01*
X126889000Y-145170000D02*
X126889000Y-148370000D01*
X125289000Y-145170000D02*
X126889000Y-145170000D01*
G04 #@! TO.C,R15*
X137303000Y-159648000D02*
X137303000Y-162848000D01*
X135703000Y-159648000D02*
X137303000Y-159648000D01*
X135703000Y-162848000D02*
X135703000Y-159648000D01*
X137303000Y-162848000D02*
X135703000Y-162848000D01*
G04 #@! TO.C,R16*
X146244000Y-153323000D02*
X146244000Y-150123000D01*
X147844000Y-153323000D02*
X146244000Y-153323000D01*
X147844000Y-150123000D02*
X147844000Y-153323000D01*
X146244000Y-150123000D02*
X147844000Y-150123000D01*
G04 #@! TO.C,R17*
X142764000Y-150123000D02*
X142764000Y-153323000D01*
X141164000Y-150123000D02*
X142764000Y-150123000D01*
X141164000Y-153323000D02*
X141164000Y-150123000D01*
X142764000Y-153323000D02*
X141164000Y-153323000D01*
G04 #@! TO.C,R19*
X148784000Y-153323000D02*
X148784000Y-150123000D01*
X150384000Y-153323000D02*
X148784000Y-153323000D01*
X150384000Y-150123000D02*
X150384000Y-153323000D01*
X148784000Y-150123000D02*
X150384000Y-150123000D01*
G04 #@! TO.C,R20*
X134039000Y-157603000D02*
X130839000Y-157603000D01*
X134039000Y-156003000D02*
X134039000Y-157603000D01*
X130839000Y-156003000D02*
X134039000Y-156003000D01*
X130839000Y-157603000D02*
X130839000Y-156003000D01*
G04 #@! TO.C,R21*
X148644000Y-148713000D02*
X145444000Y-148713000D01*
X148644000Y-147113000D02*
X148644000Y-148713000D01*
X145444000Y-147113000D02*
X148644000Y-147113000D01*
X145444000Y-148713000D02*
X145444000Y-147113000D01*
G04 #@! TO.C,R22*
X145444000Y-144573000D02*
X148644000Y-144573000D01*
X145444000Y-146173000D02*
X145444000Y-144573000D01*
X148644000Y-146173000D02*
X145444000Y-146173000D01*
X148644000Y-144573000D02*
X148644000Y-146173000D01*
G04 #@! TO.C,R23*
X111154000Y-134413000D02*
X114354000Y-134413000D01*
X111154000Y-136013000D02*
X111154000Y-134413000D01*
X114354000Y-136013000D02*
X111154000Y-136013000D01*
X114354000Y-134413000D02*
X114354000Y-136013000D01*
G04 #@! TO.C,R24*
X124349000Y-133613000D02*
X124349000Y-136813000D01*
X122749000Y-133613000D02*
X124349000Y-133613000D01*
X122749000Y-136813000D02*
X122749000Y-133613000D01*
X124349000Y-136813000D02*
X122749000Y-136813000D01*
G04 #@! TO.C,R25*
X116869000Y-136953000D02*
X120069000Y-136953000D01*
X116869000Y-138553000D02*
X116869000Y-136953000D01*
X120069000Y-138553000D02*
X116869000Y-138553000D01*
X120069000Y-136953000D02*
X120069000Y-138553000D01*
G04 #@! TO.C,R26*
X111154000Y-131873000D02*
X114354000Y-131873000D01*
X111154000Y-133473000D02*
X111154000Y-131873000D01*
X114354000Y-133473000D02*
X111154000Y-133473000D01*
X114354000Y-131873000D02*
X114354000Y-133473000D01*
G04 #@! TO.C,R27*
X120069000Y-130933000D02*
X116869000Y-130933000D01*
X120069000Y-129333000D02*
X120069000Y-130933000D01*
X116869000Y-129333000D02*
X120069000Y-129333000D01*
X116869000Y-130933000D02*
X116869000Y-129333000D01*
G04 #@! TO.C,R28*
X120069000Y-127758000D02*
X116869000Y-127758000D01*
X120069000Y-126158000D02*
X120069000Y-127758000D01*
X116869000Y-126158000D02*
X120069000Y-126158000D01*
X116869000Y-127758000D02*
X116869000Y-126158000D01*
G04 #@! TO.C,R29*
X111154000Y-136953000D02*
X114354000Y-136953000D01*
X111154000Y-138553000D02*
X111154000Y-136953000D01*
X114354000Y-138553000D02*
X111154000Y-138553000D01*
X114354000Y-136953000D02*
X114354000Y-138553000D01*
G04 #@! TO.C,R30*
X123219000Y-130603000D02*
X126419000Y-130603000D01*
X123219000Y-132203000D02*
X123219000Y-130603000D01*
X126419000Y-132203000D02*
X123219000Y-132203000D01*
X126419000Y-130603000D02*
X126419000Y-132203000D01*
G04 #@! TO.C,R31*
X126889000Y-133613000D02*
X126889000Y-136813000D01*
X125289000Y-133613000D02*
X126889000Y-133613000D01*
X125289000Y-136813000D02*
X125289000Y-133613000D01*
X126889000Y-136813000D02*
X125289000Y-136813000D01*
G04 #@! TO.C,R33*
X111154000Y-129333000D02*
X114354000Y-129333000D01*
X111154000Y-130933000D02*
X111154000Y-129333000D01*
X114354000Y-130933000D02*
X111154000Y-130933000D01*
X114354000Y-129333000D02*
X114354000Y-130933000D01*
G04 #@! TO.C,R34*
X126889000Y-138693000D02*
X126889000Y-141893000D01*
X125289000Y-138693000D02*
X126889000Y-138693000D01*
X125289000Y-141893000D02*
X125289000Y-138693000D01*
X126889000Y-141893000D02*
X125289000Y-141893000D01*
G04 #@! TO.C,R35*
X135639500Y-126653000D02*
X135639500Y-123453000D01*
X137239500Y-126653000D02*
X135639500Y-126653000D01*
X137239500Y-123453000D02*
X137239500Y-126653000D01*
X135639500Y-123453000D02*
X137239500Y-123453000D01*
G04 #@! TO.C,R36*
X120069000Y-133473000D02*
X116869000Y-133473000D01*
X120069000Y-131873000D02*
X120069000Y-133473000D01*
X116869000Y-131873000D02*
X120069000Y-131873000D01*
X116869000Y-133473000D02*
X116869000Y-131873000D01*
G04 #@! TO.C,R37*
X116869000Y-134413000D02*
X120069000Y-134413000D01*
X116869000Y-136013000D02*
X116869000Y-134413000D01*
X120069000Y-136013000D02*
X116869000Y-136013000D01*
X120069000Y-134413000D02*
X120069000Y-136013000D01*
G04 #@! TO.C,R38*
X147209000Y-132978000D02*
X147209000Y-136178000D01*
X145609000Y-132978000D02*
X147209000Y-132978000D01*
X145609000Y-136178000D02*
X145609000Y-132978000D01*
X147209000Y-136178000D02*
X145609000Y-136178000D01*
G04 #@! TO.C,R39*
X140529000Y-136178000D02*
X140529000Y-132978000D01*
X142129000Y-136178000D02*
X140529000Y-136178000D01*
X142129000Y-132978000D02*
X142129000Y-136178000D01*
X140529000Y-132978000D02*
X142129000Y-132978000D01*
G04 #@! TO.C,R40*
X149749000Y-132978000D02*
X149749000Y-136178000D01*
X148149000Y-132978000D02*
X149749000Y-132978000D01*
X148149000Y-136178000D02*
X148149000Y-132978000D01*
X149749000Y-136178000D02*
X148149000Y-136178000D01*
G04 #@! TO.C,R42*
X134039000Y-130298000D02*
X130839000Y-130298000D01*
X134039000Y-128698000D02*
X134039000Y-130298000D01*
X130839000Y-128698000D02*
X134039000Y-128698000D01*
X130839000Y-130298000D02*
X130839000Y-128698000D01*
G04 #@! TO.C,R43*
X145444000Y-137588000D02*
X148644000Y-137588000D01*
X145444000Y-139188000D02*
X145444000Y-137588000D01*
X148644000Y-139188000D02*
X145444000Y-139188000D01*
X148644000Y-137588000D02*
X148644000Y-139188000D01*
G04 #@! TO.C,R44*
X148644000Y-141728000D02*
X145444000Y-141728000D01*
X148644000Y-140128000D02*
X148644000Y-141728000D01*
X145444000Y-140128000D02*
X148644000Y-140128000D01*
X145444000Y-141728000D02*
X145444000Y-140128000D01*
G04 #@! TO.C,R46*
X143704000Y-153323000D02*
X143704000Y-150123000D01*
X145304000Y-153323000D02*
X143704000Y-153323000D01*
X145304000Y-150123000D02*
X145304000Y-153323000D01*
X143704000Y-150123000D02*
X145304000Y-150123000D01*
G04 #@! TO.C,R48*
X144669000Y-132978000D02*
X144669000Y-136178000D01*
X143069000Y-132978000D02*
X144669000Y-132978000D01*
X143069000Y-136178000D02*
X143069000Y-132978000D01*
X144669000Y-136178000D02*
X143069000Y-136178000D01*
G04 #@! TO.C,RV18*
X134391000Y-149588000D02*
X132628000Y-149587000D01*
X134391000Y-149588000D02*
X132628000Y-149587000D01*
X130279000Y-148368000D02*
X130279000Y-155078000D01*
X134779000Y-148368000D02*
X130279000Y-148368000D01*
X134779000Y-155078000D02*
X134779000Y-148368000D01*
X130279000Y-155078000D02*
X134779000Y-155078000D01*
X134399000Y-149588000D02*
G75*
G03X134399000Y-149588000I-890000J0D01*
G01*
G04 #@! TO.C,RV41*
X130487000Y-136713000D02*
X132250000Y-136714000D01*
X130487000Y-136713000D02*
X132250000Y-136714000D01*
X134599000Y-137933000D02*
X134599000Y-131223000D01*
X130099000Y-137933000D02*
X134599000Y-137933000D01*
X130099000Y-131223000D02*
X130099000Y-137933000D01*
X134599000Y-131223000D02*
X130099000Y-131223000D01*
X132259000Y-136713000D02*
G75*
G03X132259000Y-136713000I-890000J0D01*
G01*
G04 #@! TO.C,RV45*
X136202000Y-153858000D02*
X137965000Y-153859000D01*
X136202000Y-153858000D02*
X137965000Y-153859000D01*
X140314000Y-155078000D02*
X140314000Y-148368000D01*
X135814000Y-155078000D02*
X140314000Y-155078000D01*
X135814000Y-148368000D02*
X135814000Y-155078000D01*
X140314000Y-148368000D02*
X135814000Y-148368000D01*
X137974000Y-153858000D02*
G75*
G03X137974000Y-153858000I-890000J0D01*
G01*
G04 #@! TO.C,RV47*
X139471000Y-132443000D02*
X137708000Y-132442000D01*
X139471000Y-132443000D02*
X137708000Y-132442000D01*
X135359000Y-131223000D02*
X135359000Y-137933000D01*
X139859000Y-131223000D02*
X135359000Y-131223000D01*
X139859000Y-137933000D02*
X139859000Y-131223000D01*
X135359000Y-137933000D02*
X139859000Y-137933000D01*
X139479000Y-132443000D02*
G75*
G03X139479000Y-132443000I-890000J0D01*
G01*
D11*
G04 #@! TO.C,U1*
X119914000Y-141518000D02*
X120914000Y-142518000D01*
X112214000Y-141518000D02*
X119914000Y-141518000D01*
X112214000Y-145418000D02*
X112214000Y-141518000D01*
X120914000Y-145418000D02*
X112214000Y-145418000D01*
X120914000Y-142518000D02*
X120914000Y-145418000D01*
D10*
G04 #@! TO.C,C4*
X117647500Y-69301395D02*
X117147500Y-69301395D01*
X117397500Y-69051395D02*
X117397500Y-69551395D01*
X118810000Y-71185000D02*
G75*
G03X118810000Y-71185000I-2500000J0D01*
G01*
G04 #@! TO.C,JP2*
X127613000Y-19897000D02*
X128248000Y-20532000D01*
X120628000Y-19897000D02*
X127613000Y-19897000D01*
X120628000Y-22437000D02*
X120628000Y-19897000D01*
X128248000Y-22437000D02*
X120628000Y-22437000D01*
X128248000Y-20532000D02*
X128248000Y-22437000D01*
G04 #@! TO.C,JP4*
X108817000Y-65617000D02*
X108182000Y-64982000D01*
X118342000Y-65617000D02*
X108817000Y-65617000D01*
X118342000Y-63077000D02*
X118342000Y-65617000D01*
X108182000Y-63077000D02*
X118342000Y-63077000D01*
X108182000Y-64982000D02*
X108182000Y-63077000D01*
G04 #@! TO.C,JP6*
X142218000Y-23072000D02*
X141583000Y-22437000D01*
X151743000Y-23072000D02*
X142218000Y-23072000D01*
X151743000Y-20532000D02*
X151743000Y-23072000D01*
X141583000Y-20532000D02*
X151743000Y-20532000D01*
X141583000Y-22437000D02*
X141583000Y-20532000D01*
G04 #@! TO.C,JP8*
X142218000Y-65617000D02*
X141583000Y-64982000D01*
X151743000Y-65617000D02*
X142218000Y-65617000D01*
X151743000Y-63077000D02*
X151743000Y-65617000D01*
X141583000Y-63077000D02*
X151743000Y-63077000D01*
X141583000Y-64982000D02*
X141583000Y-63077000D01*
G04 #@! TO.C,JP10*
X108817000Y-23072000D02*
X108182000Y-22437000D01*
X118342000Y-23072000D02*
X108817000Y-23072000D01*
X118342000Y-20532000D02*
X118342000Y-23072000D01*
X108182000Y-20532000D02*
X118342000Y-20532000D01*
X108182000Y-22437000D02*
X108182000Y-20532000D01*
G04 #@! TO.C,U2*
X130194000Y-145489000D02*
X129194000Y-144489000D01*
X139494000Y-145489000D02*
X130194000Y-145489000D01*
X139494000Y-140939000D02*
X139494000Y-145489000D01*
X129194000Y-140939000D02*
X139494000Y-140939000D01*
X129194000Y-144489000D02*
X129194000Y-140939000D01*
G04 #@! TD*
G04 #@! TO.C,Q2*
D11*
X135157619Y-163962285D02*
X135110000Y-163914666D01*
X135062380Y-163819428D01*
X135062380Y-163581333D01*
X135110000Y-163486095D01*
X135157619Y-163438476D01*
X135252857Y-163390857D01*
X135348095Y-163390857D01*
X135490952Y-163438476D01*
X136062380Y-164009904D01*
X136062380Y-163390857D01*
X136062380Y-162962285D02*
X135062380Y-162962285D01*
X136062380Y-162390857D01*
X135062380Y-162390857D01*
X135062380Y-162009904D02*
X135062380Y-161390857D01*
X135443333Y-161724190D01*
X135443333Y-161581333D01*
X135490952Y-161486095D01*
X135538571Y-161438476D01*
X135633809Y-161390857D01*
X135871904Y-161390857D01*
X135967142Y-161438476D01*
X136014761Y-161486095D01*
X136062380Y-161581333D01*
X136062380Y-161867047D01*
X136014761Y-161962285D01*
X135967142Y-162009904D01*
X136062380Y-160914666D02*
X136062380Y-160724190D01*
X136014761Y-160628952D01*
X135967142Y-160581333D01*
X135824285Y-160486095D01*
X135633809Y-160438476D01*
X135252857Y-160438476D01*
X135157619Y-160486095D01*
X135110000Y-160533714D01*
X135062380Y-160628952D01*
X135062380Y-160819428D01*
X135110000Y-160914666D01*
X135157619Y-160962285D01*
X135252857Y-161009904D01*
X135490952Y-161009904D01*
X135586190Y-160962285D01*
X135633809Y-160914666D01*
X135681428Y-160819428D01*
X135681428Y-160628952D01*
X135633809Y-160533714D01*
X135586190Y-160486095D01*
X135490952Y-160438476D01*
X135062380Y-159819428D02*
X135062380Y-159724190D01*
X135110000Y-159628952D01*
X135157619Y-159581333D01*
X135252857Y-159533714D01*
X135443333Y-159486095D01*
X135681428Y-159486095D01*
X135871904Y-159533714D01*
X135967142Y-159581333D01*
X136014761Y-159628952D01*
X136062380Y-159724190D01*
X136062380Y-159819428D01*
X136014761Y-159914666D01*
X135967142Y-159962285D01*
X135871904Y-160009904D01*
X135681428Y-160057523D01*
X135443333Y-160057523D01*
X135252857Y-160009904D01*
X135157619Y-159962285D01*
X135110000Y-159914666D01*
X135062380Y-159819428D01*
X135062380Y-158628952D02*
X135062380Y-158819428D01*
X135110000Y-158914666D01*
X135157619Y-158962285D01*
X135300476Y-159057523D01*
X135490952Y-159105142D01*
X135871904Y-159105142D01*
X135967142Y-159057523D01*
X136014761Y-159009904D01*
X136062380Y-158914666D01*
X136062380Y-158724190D01*
X136014761Y-158628952D01*
X135967142Y-158581333D01*
X135871904Y-158533714D01*
X135633809Y-158533714D01*
X135538571Y-158581333D01*
X135490952Y-158628952D01*
X135443333Y-158724190D01*
X135443333Y-158914666D01*
X135490952Y-159009904D01*
X135538571Y-159057523D01*
X135633809Y-159105142D01*
X129807619Y-161343238D02*
X129760000Y-161438476D01*
X129664761Y-161533714D01*
X129521904Y-161676571D01*
X129474285Y-161771809D01*
X129474285Y-161867047D01*
X129712380Y-161819428D02*
X129664761Y-161914666D01*
X129569523Y-162009904D01*
X129379047Y-162057523D01*
X129045714Y-162057523D01*
X128855238Y-162009904D01*
X128760000Y-161914666D01*
X128712380Y-161819428D01*
X128712380Y-161628952D01*
X128760000Y-161533714D01*
X128855238Y-161438476D01*
X129045714Y-161390857D01*
X129379047Y-161390857D01*
X129569523Y-161438476D01*
X129664761Y-161533714D01*
X129712380Y-161628952D01*
X129712380Y-161819428D01*
X128807619Y-161009904D02*
X128760000Y-160962285D01*
X128712380Y-160867047D01*
X128712380Y-160628952D01*
X128760000Y-160533714D01*
X128807619Y-160486095D01*
X128902857Y-160438476D01*
X128998095Y-160438476D01*
X129140952Y-160486095D01*
X129712380Y-161057523D01*
X129712380Y-160438476D01*
G04 #@! TO.C,Q1*
X126521619Y-163962285D02*
X126474000Y-163914666D01*
X126426380Y-163819428D01*
X126426380Y-163581333D01*
X126474000Y-163486095D01*
X126521619Y-163438476D01*
X126616857Y-163390857D01*
X126712095Y-163390857D01*
X126854952Y-163438476D01*
X127426380Y-164009904D01*
X127426380Y-163390857D01*
X127426380Y-162962285D02*
X126426380Y-162962285D01*
X127426380Y-162390857D01*
X126426380Y-162390857D01*
X126426380Y-162009904D02*
X126426380Y-161390857D01*
X126807333Y-161724190D01*
X126807333Y-161581333D01*
X126854952Y-161486095D01*
X126902571Y-161438476D01*
X126997809Y-161390857D01*
X127235904Y-161390857D01*
X127331142Y-161438476D01*
X127378761Y-161486095D01*
X127426380Y-161581333D01*
X127426380Y-161867047D01*
X127378761Y-161962285D01*
X127331142Y-162009904D01*
X127426380Y-160914666D02*
X127426380Y-160724190D01*
X127378761Y-160628952D01*
X127331142Y-160581333D01*
X127188285Y-160486095D01*
X126997809Y-160438476D01*
X126616857Y-160438476D01*
X126521619Y-160486095D01*
X126474000Y-160533714D01*
X126426380Y-160628952D01*
X126426380Y-160819428D01*
X126474000Y-160914666D01*
X126521619Y-160962285D01*
X126616857Y-161009904D01*
X126854952Y-161009904D01*
X126950190Y-160962285D01*
X126997809Y-160914666D01*
X127045428Y-160819428D01*
X127045428Y-160628952D01*
X126997809Y-160533714D01*
X126950190Y-160486095D01*
X126854952Y-160438476D01*
X126426380Y-159819428D02*
X126426380Y-159724190D01*
X126474000Y-159628952D01*
X126521619Y-159581333D01*
X126616857Y-159533714D01*
X126807333Y-159486095D01*
X127045428Y-159486095D01*
X127235904Y-159533714D01*
X127331142Y-159581333D01*
X127378761Y-159628952D01*
X127426380Y-159724190D01*
X127426380Y-159819428D01*
X127378761Y-159914666D01*
X127331142Y-159962285D01*
X127235904Y-160009904D01*
X127045428Y-160057523D01*
X126807333Y-160057523D01*
X126616857Y-160009904D01*
X126521619Y-159962285D01*
X126474000Y-159914666D01*
X126426380Y-159819428D01*
X126759714Y-158628952D02*
X127426380Y-158628952D01*
X126378761Y-158867047D02*
X127093047Y-159105142D01*
X127093047Y-158486095D01*
X121171619Y-161343238D02*
X121124000Y-161438476D01*
X121028761Y-161533714D01*
X120885904Y-161676571D01*
X120838285Y-161771809D01*
X120838285Y-161867047D01*
X121076380Y-161819428D02*
X121028761Y-161914666D01*
X120933523Y-162009904D01*
X120743047Y-162057523D01*
X120409714Y-162057523D01*
X120219238Y-162009904D01*
X120124000Y-161914666D01*
X120076380Y-161819428D01*
X120076380Y-161628952D01*
X120124000Y-161533714D01*
X120219238Y-161438476D01*
X120409714Y-161390857D01*
X120743047Y-161390857D01*
X120933523Y-161438476D01*
X121028761Y-161533714D01*
X121076380Y-161628952D01*
X121076380Y-161819428D01*
X121076380Y-160438476D02*
X121076380Y-161009904D01*
X121076380Y-160724190D02*
X120076380Y-160724190D01*
X120219238Y-160819428D01*
X120314476Y-160914666D01*
X120362095Y-161009904D01*
G04 #@! TO.C,Q4*
X135030619Y-127767285D02*
X134983000Y-127719666D01*
X134935380Y-127624428D01*
X134935380Y-127386333D01*
X134983000Y-127291095D01*
X135030619Y-127243476D01*
X135125857Y-127195857D01*
X135221095Y-127195857D01*
X135363952Y-127243476D01*
X135935380Y-127814904D01*
X135935380Y-127195857D01*
X135935380Y-126767285D02*
X134935380Y-126767285D01*
X135935380Y-126195857D01*
X134935380Y-126195857D01*
X134935380Y-125814904D02*
X134935380Y-125195857D01*
X135316333Y-125529190D01*
X135316333Y-125386333D01*
X135363952Y-125291095D01*
X135411571Y-125243476D01*
X135506809Y-125195857D01*
X135744904Y-125195857D01*
X135840142Y-125243476D01*
X135887761Y-125291095D01*
X135935380Y-125386333D01*
X135935380Y-125672047D01*
X135887761Y-125767285D01*
X135840142Y-125814904D01*
X135935380Y-124719666D02*
X135935380Y-124529190D01*
X135887761Y-124433952D01*
X135840142Y-124386333D01*
X135697285Y-124291095D01*
X135506809Y-124243476D01*
X135125857Y-124243476D01*
X135030619Y-124291095D01*
X134983000Y-124338714D01*
X134935380Y-124433952D01*
X134935380Y-124624428D01*
X134983000Y-124719666D01*
X135030619Y-124767285D01*
X135125857Y-124814904D01*
X135363952Y-124814904D01*
X135459190Y-124767285D01*
X135506809Y-124719666D01*
X135554428Y-124624428D01*
X135554428Y-124433952D01*
X135506809Y-124338714D01*
X135459190Y-124291095D01*
X135363952Y-124243476D01*
X134935380Y-123624428D02*
X134935380Y-123529190D01*
X134983000Y-123433952D01*
X135030619Y-123386333D01*
X135125857Y-123338714D01*
X135316333Y-123291095D01*
X135554428Y-123291095D01*
X135744904Y-123338714D01*
X135840142Y-123386333D01*
X135887761Y-123433952D01*
X135935380Y-123529190D01*
X135935380Y-123624428D01*
X135887761Y-123719666D01*
X135840142Y-123767285D01*
X135744904Y-123814904D01*
X135554428Y-123862523D01*
X135316333Y-123862523D01*
X135125857Y-123814904D01*
X135030619Y-123767285D01*
X134983000Y-123719666D01*
X134935380Y-123624428D01*
X134935380Y-122433952D02*
X134935380Y-122624428D01*
X134983000Y-122719666D01*
X135030619Y-122767285D01*
X135173476Y-122862523D01*
X135363952Y-122910142D01*
X135744904Y-122910142D01*
X135840142Y-122862523D01*
X135887761Y-122814904D01*
X135935380Y-122719666D01*
X135935380Y-122529190D01*
X135887761Y-122433952D01*
X135840142Y-122386333D01*
X135744904Y-122338714D01*
X135506809Y-122338714D01*
X135411571Y-122386333D01*
X135363952Y-122433952D01*
X135316333Y-122529190D01*
X135316333Y-122719666D01*
X135363952Y-122814904D01*
X135411571Y-122862523D01*
X135506809Y-122910142D01*
X129680619Y-125148238D02*
X129633000Y-125243476D01*
X129537761Y-125338714D01*
X129394904Y-125481571D01*
X129347285Y-125576809D01*
X129347285Y-125672047D01*
X129585380Y-125624428D02*
X129537761Y-125719666D01*
X129442523Y-125814904D01*
X129252047Y-125862523D01*
X128918714Y-125862523D01*
X128728238Y-125814904D01*
X128633000Y-125719666D01*
X128585380Y-125624428D01*
X128585380Y-125433952D01*
X128633000Y-125338714D01*
X128728238Y-125243476D01*
X128918714Y-125195857D01*
X129252047Y-125195857D01*
X129442523Y-125243476D01*
X129537761Y-125338714D01*
X129585380Y-125433952D01*
X129585380Y-125624428D01*
X128918714Y-124338714D02*
X129585380Y-124338714D01*
X128537761Y-124576809D02*
X129252047Y-124814904D01*
X129252047Y-124195857D01*
G04 #@! TO.C,Q3*
X119925619Y-127830785D02*
X119878000Y-127783166D01*
X119830380Y-127687928D01*
X119830380Y-127449833D01*
X119878000Y-127354595D01*
X119925619Y-127306976D01*
X120020857Y-127259357D01*
X120116095Y-127259357D01*
X120258952Y-127306976D01*
X120830380Y-127878404D01*
X120830380Y-127259357D01*
X120830380Y-126830785D02*
X119830380Y-126830785D01*
X120830380Y-126259357D01*
X119830380Y-126259357D01*
X119830380Y-125878404D02*
X119830380Y-125259357D01*
X120211333Y-125592690D01*
X120211333Y-125449833D01*
X120258952Y-125354595D01*
X120306571Y-125306976D01*
X120401809Y-125259357D01*
X120639904Y-125259357D01*
X120735142Y-125306976D01*
X120782761Y-125354595D01*
X120830380Y-125449833D01*
X120830380Y-125735547D01*
X120782761Y-125830785D01*
X120735142Y-125878404D01*
X120830380Y-124783166D02*
X120830380Y-124592690D01*
X120782761Y-124497452D01*
X120735142Y-124449833D01*
X120592285Y-124354595D01*
X120401809Y-124306976D01*
X120020857Y-124306976D01*
X119925619Y-124354595D01*
X119878000Y-124402214D01*
X119830380Y-124497452D01*
X119830380Y-124687928D01*
X119878000Y-124783166D01*
X119925619Y-124830785D01*
X120020857Y-124878404D01*
X120258952Y-124878404D01*
X120354190Y-124830785D01*
X120401809Y-124783166D01*
X120449428Y-124687928D01*
X120449428Y-124497452D01*
X120401809Y-124402214D01*
X120354190Y-124354595D01*
X120258952Y-124306976D01*
X119830380Y-123687928D02*
X119830380Y-123592690D01*
X119878000Y-123497452D01*
X119925619Y-123449833D01*
X120020857Y-123402214D01*
X120211333Y-123354595D01*
X120449428Y-123354595D01*
X120639904Y-123402214D01*
X120735142Y-123449833D01*
X120782761Y-123497452D01*
X120830380Y-123592690D01*
X120830380Y-123687928D01*
X120782761Y-123783166D01*
X120735142Y-123830785D01*
X120639904Y-123878404D01*
X120449428Y-123926023D01*
X120211333Y-123926023D01*
X120020857Y-123878404D01*
X119925619Y-123830785D01*
X119878000Y-123783166D01*
X119830380Y-123687928D01*
X120163714Y-122497452D02*
X120830380Y-122497452D01*
X119782761Y-122735547D02*
X120497047Y-122973642D01*
X120497047Y-122354595D01*
X127275619Y-125211738D02*
X127228000Y-125306976D01*
X127132761Y-125402214D01*
X126989904Y-125545071D01*
X126942285Y-125640309D01*
X126942285Y-125735547D01*
X127180380Y-125687928D02*
X127132761Y-125783166D01*
X127037523Y-125878404D01*
X126847047Y-125926023D01*
X126513714Y-125926023D01*
X126323238Y-125878404D01*
X126228000Y-125783166D01*
X126180380Y-125687928D01*
X126180380Y-125497452D01*
X126228000Y-125402214D01*
X126323238Y-125306976D01*
X126513714Y-125259357D01*
X126847047Y-125259357D01*
X127037523Y-125306976D01*
X127132761Y-125402214D01*
X127180380Y-125497452D01*
X127180380Y-125687928D01*
X126180380Y-124926023D02*
X126180380Y-124306976D01*
X126561333Y-124640309D01*
X126561333Y-124497452D01*
X126608952Y-124402214D01*
X126656571Y-124354595D01*
X126751809Y-124306976D01*
X126989904Y-124306976D01*
X127085142Y-124354595D01*
X127132761Y-124402214D01*
X127180380Y-124497452D01*
X127180380Y-124783166D01*
X127132761Y-124878404D01*
X127085142Y-124926023D01*
G04 #@! TO.C,C3*
X140231380Y-141935857D02*
X140231380Y-141840619D01*
X140279000Y-141745380D01*
X140326619Y-141697761D01*
X140421857Y-141650142D01*
X140612333Y-141602523D01*
X140850428Y-141602523D01*
X141040904Y-141650142D01*
X141136142Y-141697761D01*
X141183761Y-141745380D01*
X141231380Y-141840619D01*
X141231380Y-141935857D01*
X141183761Y-142031095D01*
X141136142Y-142078714D01*
X141040904Y-142126333D01*
X140850428Y-142173952D01*
X140612333Y-142173952D01*
X140421857Y-142126333D01*
X140326619Y-142078714D01*
X140279000Y-142031095D01*
X140231380Y-141935857D01*
X141136142Y-141173952D02*
X141183761Y-141126333D01*
X141231380Y-141173952D01*
X141183761Y-141221571D01*
X141136142Y-141173952D01*
X141231380Y-141173952D01*
X141231380Y-140173952D02*
X141231380Y-140745380D01*
X141231380Y-140459666D02*
X140231380Y-140459666D01*
X140374238Y-140554904D01*
X140469476Y-140650142D01*
X140517095Y-140745380D01*
X140564714Y-139316809D02*
X141231380Y-139316809D01*
X140564714Y-139745380D02*
X141088523Y-139745380D01*
X141183761Y-139697761D01*
X141231380Y-139602523D01*
X141231380Y-139459666D01*
X141183761Y-139364428D01*
X141136142Y-139316809D01*
X140707571Y-138507285D02*
X140707571Y-138840619D01*
X141231380Y-138840619D02*
X140231380Y-138840619D01*
X140231380Y-138364428D01*
D12*
X142884714Y-140426333D02*
X142922809Y-140464428D01*
X142960904Y-140578714D01*
X142960904Y-140654904D01*
X142922809Y-140769190D01*
X142846619Y-140845380D01*
X142770428Y-140883476D01*
X142618047Y-140921571D01*
X142503761Y-140921571D01*
X142351380Y-140883476D01*
X142275190Y-140845380D01*
X142199000Y-140769190D01*
X142160904Y-140654904D01*
X142160904Y-140578714D01*
X142199000Y-140464428D01*
X142237095Y-140426333D01*
X142160904Y-140159666D02*
X142160904Y-139664428D01*
X142465666Y-139931095D01*
X142465666Y-139816809D01*
X142503761Y-139740619D01*
X142541857Y-139702523D01*
X142618047Y-139664428D01*
X142808523Y-139664428D01*
X142884714Y-139702523D01*
X142922809Y-139740619D01*
X142960904Y-139816809D01*
X142960904Y-140045380D01*
X142922809Y-140121571D01*
X142884714Y-140159666D01*
G04 #@! TO.C,C5*
D11*
X140231380Y-147650857D02*
X140231380Y-147555619D01*
X140279000Y-147460380D01*
X140326619Y-147412761D01*
X140421857Y-147365142D01*
X140612333Y-147317523D01*
X140850428Y-147317523D01*
X141040904Y-147365142D01*
X141136142Y-147412761D01*
X141183761Y-147460380D01*
X141231380Y-147555619D01*
X141231380Y-147650857D01*
X141183761Y-147746095D01*
X141136142Y-147793714D01*
X141040904Y-147841333D01*
X140850428Y-147888952D01*
X140612333Y-147888952D01*
X140421857Y-147841333D01*
X140326619Y-147793714D01*
X140279000Y-147746095D01*
X140231380Y-147650857D01*
X141136142Y-146888952D02*
X141183761Y-146841333D01*
X141231380Y-146888952D01*
X141183761Y-146936571D01*
X141136142Y-146888952D01*
X141231380Y-146888952D01*
X141231380Y-145888952D02*
X141231380Y-146460380D01*
X141231380Y-146174666D02*
X140231380Y-146174666D01*
X140374238Y-146269904D01*
X140469476Y-146365142D01*
X140517095Y-146460380D01*
X140564714Y-145031809D02*
X141231380Y-145031809D01*
X140564714Y-145460380D02*
X141088523Y-145460380D01*
X141183761Y-145412761D01*
X141231380Y-145317523D01*
X141231380Y-145174666D01*
X141183761Y-145079428D01*
X141136142Y-145031809D01*
X140707571Y-144222285D02*
X140707571Y-144555619D01*
X141231380Y-144555619D02*
X140231380Y-144555619D01*
X140231380Y-144079428D01*
D12*
X142884714Y-146141333D02*
X142922809Y-146179428D01*
X142960904Y-146293714D01*
X142960904Y-146369904D01*
X142922809Y-146484190D01*
X142846619Y-146560380D01*
X142770428Y-146598476D01*
X142618047Y-146636571D01*
X142503761Y-146636571D01*
X142351380Y-146598476D01*
X142275190Y-146560380D01*
X142199000Y-146484190D01*
X142160904Y-146369904D01*
X142160904Y-146293714D01*
X142199000Y-146179428D01*
X142237095Y-146141333D01*
X142160904Y-145417523D02*
X142160904Y-145798476D01*
X142541857Y-145836571D01*
X142503761Y-145798476D01*
X142465666Y-145722285D01*
X142465666Y-145531809D01*
X142503761Y-145455619D01*
X142541857Y-145417523D01*
X142618047Y-145379428D01*
X142808523Y-145379428D01*
X142884714Y-145417523D01*
X142922809Y-145455619D01*
X142960904Y-145531809D01*
X142960904Y-145722285D01*
X142922809Y-145798476D01*
X142884714Y-145836571D01*
G04 #@! TO.C,C1*
D11*
X147817380Y-72296428D02*
X147817380Y-72867857D01*
X147817380Y-72582142D02*
X146817380Y-72582142D01*
X146960238Y-72677380D01*
X147055476Y-72772619D01*
X147103095Y-72867857D01*
X146817380Y-71677380D02*
X146817380Y-71582142D01*
X146865000Y-71486904D01*
X146912619Y-71439285D01*
X147007857Y-71391666D01*
X147198333Y-71344047D01*
X147436428Y-71344047D01*
X147626904Y-71391666D01*
X147722142Y-71439285D01*
X147769761Y-71486904D01*
X147817380Y-71582142D01*
X147817380Y-71677380D01*
X147769761Y-71772619D01*
X147722142Y-71820238D01*
X147626904Y-71867857D01*
X147436428Y-71915476D01*
X147198333Y-71915476D01*
X147007857Y-71867857D01*
X146912619Y-71820238D01*
X146865000Y-71772619D01*
X146817380Y-71677380D01*
X147150714Y-70486904D02*
X147817380Y-70486904D01*
X147150714Y-70915476D02*
X147674523Y-70915476D01*
X147769761Y-70867857D01*
X147817380Y-70772619D01*
X147817380Y-70629761D01*
X147769761Y-70534523D01*
X147722142Y-70486904D01*
X147293571Y-69677380D02*
X147293571Y-70010714D01*
X147817380Y-70010714D02*
X146817380Y-70010714D01*
X146817380Y-69534523D01*
X143972142Y-71391666D02*
X144019761Y-71439285D01*
X144067380Y-71582142D01*
X144067380Y-71677380D01*
X144019761Y-71820238D01*
X143924523Y-71915476D01*
X143829285Y-71963095D01*
X143638809Y-72010714D01*
X143495952Y-72010714D01*
X143305476Y-71963095D01*
X143210238Y-71915476D01*
X143115000Y-71820238D01*
X143067380Y-71677380D01*
X143067380Y-71582142D01*
X143115000Y-71439285D01*
X143162619Y-71391666D01*
X144067380Y-70439285D02*
X144067380Y-71010714D01*
X144067380Y-70725000D02*
X143067380Y-70725000D01*
X143210238Y-70820238D01*
X143305476Y-70915476D01*
X143353095Y-71010714D01*
G04 #@! TO.C,C2*
X124821380Y-141935857D02*
X124821380Y-141840619D01*
X124869000Y-141745380D01*
X124916619Y-141697761D01*
X125011857Y-141650142D01*
X125202333Y-141602523D01*
X125440428Y-141602523D01*
X125630904Y-141650142D01*
X125726142Y-141697761D01*
X125773761Y-141745380D01*
X125821380Y-141840619D01*
X125821380Y-141935857D01*
X125773761Y-142031095D01*
X125726142Y-142078714D01*
X125630904Y-142126333D01*
X125440428Y-142173952D01*
X125202333Y-142173952D01*
X125011857Y-142126333D01*
X124916619Y-142078714D01*
X124869000Y-142031095D01*
X124821380Y-141935857D01*
X125726142Y-141173952D02*
X125773761Y-141126333D01*
X125821380Y-141173952D01*
X125773761Y-141221571D01*
X125726142Y-141173952D01*
X125821380Y-141173952D01*
X125821380Y-140173952D02*
X125821380Y-140745380D01*
X125821380Y-140459666D02*
X124821380Y-140459666D01*
X124964238Y-140554904D01*
X125059476Y-140650142D01*
X125107095Y-140745380D01*
X125154714Y-139316809D02*
X125821380Y-139316809D01*
X125154714Y-139745380D02*
X125678523Y-139745380D01*
X125773761Y-139697761D01*
X125821380Y-139602523D01*
X125821380Y-139459666D01*
X125773761Y-139364428D01*
X125726142Y-139316809D01*
X125297571Y-138507285D02*
X125297571Y-138840619D01*
X125821380Y-138840619D02*
X124821380Y-138840619D01*
X124821380Y-138364428D01*
D12*
X123834714Y-140426333D02*
X123872809Y-140464428D01*
X123910904Y-140578714D01*
X123910904Y-140654904D01*
X123872809Y-140769190D01*
X123796619Y-140845380D01*
X123720428Y-140883476D01*
X123568047Y-140921571D01*
X123453761Y-140921571D01*
X123301380Y-140883476D01*
X123225190Y-140845380D01*
X123149000Y-140769190D01*
X123110904Y-140654904D01*
X123110904Y-140578714D01*
X123149000Y-140464428D01*
X123187095Y-140426333D01*
X123187095Y-140121571D02*
X123149000Y-140083476D01*
X123110904Y-140007285D01*
X123110904Y-139816809D01*
X123149000Y-139740619D01*
X123187095Y-139702523D01*
X123263285Y-139664428D01*
X123339476Y-139664428D01*
X123453761Y-139702523D01*
X123910904Y-140159666D01*
X123910904Y-139664428D01*
G04 #@! TO.C,C6*
D11*
X124821380Y-148412857D02*
X124821380Y-148317619D01*
X124869000Y-148222380D01*
X124916619Y-148174761D01*
X125011857Y-148127142D01*
X125202333Y-148079523D01*
X125440428Y-148079523D01*
X125630904Y-148127142D01*
X125726142Y-148174761D01*
X125773761Y-148222380D01*
X125821380Y-148317619D01*
X125821380Y-148412857D01*
X125773761Y-148508095D01*
X125726142Y-148555714D01*
X125630904Y-148603333D01*
X125440428Y-148650952D01*
X125202333Y-148650952D01*
X125011857Y-148603333D01*
X124916619Y-148555714D01*
X124869000Y-148508095D01*
X124821380Y-148412857D01*
X125726142Y-147650952D02*
X125773761Y-147603333D01*
X125821380Y-147650952D01*
X125773761Y-147698571D01*
X125726142Y-147650952D01*
X125821380Y-147650952D01*
X125821380Y-146650952D02*
X125821380Y-147222380D01*
X125821380Y-146936666D02*
X124821380Y-146936666D01*
X124964238Y-147031904D01*
X125059476Y-147127142D01*
X125107095Y-147222380D01*
X125154714Y-145793809D02*
X125821380Y-145793809D01*
X125154714Y-146222380D02*
X125678523Y-146222380D01*
X125773761Y-146174761D01*
X125821380Y-146079523D01*
X125821380Y-145936666D01*
X125773761Y-145841428D01*
X125726142Y-145793809D01*
X125297571Y-144984285D02*
X125297571Y-145317619D01*
X125821380Y-145317619D02*
X124821380Y-145317619D01*
X124821380Y-144841428D01*
D12*
X123834714Y-146903333D02*
X123872809Y-146941428D01*
X123910904Y-147055714D01*
X123910904Y-147131904D01*
X123872809Y-147246190D01*
X123796619Y-147322380D01*
X123720428Y-147360476D01*
X123568047Y-147398571D01*
X123453761Y-147398571D01*
X123301380Y-147360476D01*
X123225190Y-147322380D01*
X123149000Y-147246190D01*
X123110904Y-147131904D01*
X123110904Y-147055714D01*
X123149000Y-146941428D01*
X123187095Y-146903333D01*
X123110904Y-146217619D02*
X123110904Y-146370000D01*
X123149000Y-146446190D01*
X123187095Y-146484285D01*
X123301380Y-146560476D01*
X123453761Y-146598571D01*
X123758523Y-146598571D01*
X123834714Y-146560476D01*
X123872809Y-146522380D01*
X123910904Y-146446190D01*
X123910904Y-146293809D01*
X123872809Y-146217619D01*
X123834714Y-146179523D01*
X123758523Y-146141428D01*
X123568047Y-146141428D01*
X123491857Y-146179523D01*
X123453761Y-146217619D01*
X123415666Y-146293809D01*
X123415666Y-146446190D01*
X123453761Y-146522380D01*
X123491857Y-146560476D01*
X123568047Y-146598571D01*
G04 #@! TO.C,J9*
D11*
X142162380Y-72538333D02*
X141162380Y-72538333D01*
X141162380Y-72157380D01*
X141210000Y-72062142D01*
X141257619Y-72014523D01*
X141352857Y-71966904D01*
X141495714Y-71966904D01*
X141590952Y-72014523D01*
X141638571Y-72062142D01*
X141686190Y-72157380D01*
X141686190Y-72538333D01*
X141162380Y-71633571D02*
X142162380Y-71395476D01*
X141448095Y-71205000D01*
X142162380Y-71014523D01*
X141162380Y-70776428D01*
X142162380Y-69824047D02*
X141686190Y-70157380D01*
X142162380Y-70395476D02*
X141162380Y-70395476D01*
X141162380Y-70014523D01*
X141210000Y-69919285D01*
X141257619Y-69871666D01*
X141352857Y-69824047D01*
X141495714Y-69824047D01*
X141590952Y-69871666D01*
X141638571Y-69919285D01*
X141686190Y-70014523D01*
X141686190Y-70395476D01*
X129478380Y-71538333D02*
X130192666Y-71538333D01*
X130335523Y-71585952D01*
X130430761Y-71681190D01*
X130478380Y-71824047D01*
X130478380Y-71919285D01*
X130478380Y-71014523D02*
X130478380Y-70824047D01*
X130430761Y-70728809D01*
X130383142Y-70681190D01*
X130240285Y-70585952D01*
X130049809Y-70538333D01*
X129668857Y-70538333D01*
X129573619Y-70585952D01*
X129526000Y-70633571D01*
X129478380Y-70728809D01*
X129478380Y-70919285D01*
X129526000Y-71014523D01*
X129573619Y-71062142D01*
X129668857Y-71109761D01*
X129906952Y-71109761D01*
X130002190Y-71062142D01*
X130049809Y-71014523D01*
X130097428Y-70919285D01*
X130097428Y-70728809D01*
X130049809Y-70633571D01*
X130002190Y-70585952D01*
X129906952Y-70538333D01*
G04 #@! TO.C,R1*
X111587333Y-150355380D02*
X111015904Y-150355380D01*
X111301619Y-150355380D02*
X111301619Y-149355380D01*
X111206380Y-149498238D01*
X111111142Y-149593476D01*
X111015904Y-149641095D01*
X112206380Y-149355380D02*
X112301619Y-149355380D01*
X112396857Y-149403000D01*
X112444476Y-149450619D01*
X112492095Y-149545857D01*
X112539714Y-149736333D01*
X112539714Y-149974428D01*
X112492095Y-150164904D01*
X112444476Y-150260142D01*
X112396857Y-150307761D01*
X112301619Y-150355380D01*
X112206380Y-150355380D01*
X112111142Y-150307761D01*
X112063523Y-150260142D01*
X112015904Y-150164904D01*
X111968285Y-149974428D01*
X111968285Y-149736333D01*
X112015904Y-149545857D01*
X112063523Y-149450619D01*
X112111142Y-149403000D01*
X112206380Y-149355380D01*
X113158761Y-149355380D02*
X113254000Y-149355380D01*
X113349238Y-149403000D01*
X113396857Y-149450619D01*
X113444476Y-149545857D01*
X113492095Y-149736333D01*
X113492095Y-149974428D01*
X113444476Y-150164904D01*
X113396857Y-150260142D01*
X113349238Y-150307761D01*
X113254000Y-150355380D01*
X113158761Y-150355380D01*
X113063523Y-150307761D01*
X113015904Y-150260142D01*
X112968285Y-150164904D01*
X112920666Y-149974428D01*
X112920666Y-149736333D01*
X112968285Y-149545857D01*
X113015904Y-149450619D01*
X113063523Y-149403000D01*
X113158761Y-149355380D01*
X113920666Y-150355380D02*
X113920666Y-149355380D01*
X114492095Y-150355380D02*
X114063523Y-149783952D01*
X114492095Y-149355380D02*
X113920666Y-149926809D01*
D12*
X112620666Y-152084904D02*
X112354000Y-151703952D01*
X112163523Y-152084904D02*
X112163523Y-151284904D01*
X112468285Y-151284904D01*
X112544476Y-151323000D01*
X112582571Y-151361095D01*
X112620666Y-151437285D01*
X112620666Y-151551571D01*
X112582571Y-151627761D01*
X112544476Y-151665857D01*
X112468285Y-151703952D01*
X112163523Y-151703952D01*
X113382571Y-152084904D02*
X112925428Y-152084904D01*
X113154000Y-152084904D02*
X113154000Y-151284904D01*
X113077809Y-151399190D01*
X113001619Y-151475380D01*
X112925428Y-151513476D01*
G04 #@! TO.C,R2*
D11*
X122181380Y-153524666D02*
X122181380Y-154096095D01*
X122181380Y-153810380D02*
X121181380Y-153810380D01*
X121324238Y-153905619D01*
X121419476Y-154000857D01*
X121467095Y-154096095D01*
X121181380Y-152905619D02*
X121181380Y-152810380D01*
X121229000Y-152715142D01*
X121276619Y-152667523D01*
X121371857Y-152619904D01*
X121562333Y-152572285D01*
X121800428Y-152572285D01*
X121990904Y-152619904D01*
X122086142Y-152667523D01*
X122133761Y-152715142D01*
X122181380Y-152810380D01*
X122181380Y-152905619D01*
X122133761Y-153000857D01*
X122086142Y-153048476D01*
X121990904Y-153096095D01*
X121800428Y-153143714D01*
X121562333Y-153143714D01*
X121371857Y-153096095D01*
X121276619Y-153048476D01*
X121229000Y-153000857D01*
X121181380Y-152905619D01*
X121181380Y-151953238D02*
X121181380Y-151858000D01*
X121229000Y-151762761D01*
X121276619Y-151715142D01*
X121371857Y-151667523D01*
X121562333Y-151619904D01*
X121800428Y-151619904D01*
X121990904Y-151667523D01*
X122086142Y-151715142D01*
X122133761Y-151762761D01*
X122181380Y-151858000D01*
X122181380Y-151953238D01*
X122133761Y-152048476D01*
X122086142Y-152096095D01*
X121990904Y-152143714D01*
X121800428Y-152191333D01*
X121562333Y-152191333D01*
X121371857Y-152143714D01*
X121276619Y-152096095D01*
X121229000Y-152048476D01*
X121181380Y-151953238D01*
X122181380Y-151191333D02*
X121181380Y-151191333D01*
X122181380Y-150619904D02*
X121609952Y-151048476D01*
X121181380Y-150619904D02*
X121752809Y-151191333D01*
D12*
X123910904Y-152491333D02*
X123529952Y-152758000D01*
X123910904Y-152948476D02*
X123110904Y-152948476D01*
X123110904Y-152643714D01*
X123149000Y-152567523D01*
X123187095Y-152529428D01*
X123263285Y-152491333D01*
X123377571Y-152491333D01*
X123453761Y-152529428D01*
X123491857Y-152567523D01*
X123529952Y-152643714D01*
X123529952Y-152948476D01*
X123187095Y-152186571D02*
X123149000Y-152148476D01*
X123110904Y-152072285D01*
X123110904Y-151881809D01*
X123149000Y-151805619D01*
X123187095Y-151767523D01*
X123263285Y-151729428D01*
X123339476Y-151729428D01*
X123453761Y-151767523D01*
X123910904Y-152224666D01*
X123910904Y-151729428D01*
G04 #@! TO.C,R3*
D11*
X117683285Y-146910619D02*
X117730904Y-146863000D01*
X117826142Y-146815380D01*
X118064238Y-146815380D01*
X118159476Y-146863000D01*
X118207095Y-146910619D01*
X118254714Y-147005857D01*
X118254714Y-147101095D01*
X118207095Y-147243952D01*
X117635666Y-147815380D01*
X118254714Y-147815380D01*
X118683285Y-147815380D02*
X118683285Y-146815380D01*
X119254714Y-147815380D02*
X118826142Y-147243952D01*
X119254714Y-146815380D02*
X118683285Y-147386809D01*
D12*
X118335666Y-149544904D02*
X118069000Y-149163952D01*
X117878523Y-149544904D02*
X117878523Y-148744904D01*
X118183285Y-148744904D01*
X118259476Y-148783000D01*
X118297571Y-148821095D01*
X118335666Y-148897285D01*
X118335666Y-149011571D01*
X118297571Y-149087761D01*
X118259476Y-149125857D01*
X118183285Y-149163952D01*
X117878523Y-149163952D01*
X118602333Y-148744904D02*
X119097571Y-148744904D01*
X118830904Y-149049666D01*
X118945190Y-149049666D01*
X119021380Y-149087761D01*
X119059476Y-149125857D01*
X119097571Y-149202047D01*
X119097571Y-149392523D01*
X119059476Y-149468714D01*
X119021380Y-149506809D01*
X118945190Y-149544904D01*
X118716619Y-149544904D01*
X118640428Y-149506809D01*
X118602333Y-149468714D01*
G04 #@! TO.C,R4*
D11*
X111587333Y-152895380D02*
X111015904Y-152895380D01*
X111301619Y-152895380D02*
X111301619Y-151895380D01*
X111206380Y-152038238D01*
X111111142Y-152133476D01*
X111015904Y-152181095D01*
X112206380Y-151895380D02*
X112301619Y-151895380D01*
X112396857Y-151943000D01*
X112444476Y-151990619D01*
X112492095Y-152085857D01*
X112539714Y-152276333D01*
X112539714Y-152514428D01*
X112492095Y-152704904D01*
X112444476Y-152800142D01*
X112396857Y-152847761D01*
X112301619Y-152895380D01*
X112206380Y-152895380D01*
X112111142Y-152847761D01*
X112063523Y-152800142D01*
X112015904Y-152704904D01*
X111968285Y-152514428D01*
X111968285Y-152276333D01*
X112015904Y-152085857D01*
X112063523Y-151990619D01*
X112111142Y-151943000D01*
X112206380Y-151895380D01*
X113158761Y-151895380D02*
X113254000Y-151895380D01*
X113349238Y-151943000D01*
X113396857Y-151990619D01*
X113444476Y-152085857D01*
X113492095Y-152276333D01*
X113492095Y-152514428D01*
X113444476Y-152704904D01*
X113396857Y-152800142D01*
X113349238Y-152847761D01*
X113254000Y-152895380D01*
X113158761Y-152895380D01*
X113063523Y-152847761D01*
X113015904Y-152800142D01*
X112968285Y-152704904D01*
X112920666Y-152514428D01*
X112920666Y-152276333D01*
X112968285Y-152085857D01*
X113015904Y-151990619D01*
X113063523Y-151943000D01*
X113158761Y-151895380D01*
X113920666Y-152895380D02*
X113920666Y-151895380D01*
X114492095Y-152895380D02*
X114063523Y-152323952D01*
X114492095Y-151895380D02*
X113920666Y-152466809D01*
D12*
X112620666Y-154624904D02*
X112354000Y-154243952D01*
X112163523Y-154624904D02*
X112163523Y-153824904D01*
X112468285Y-153824904D01*
X112544476Y-153863000D01*
X112582571Y-153901095D01*
X112620666Y-153977285D01*
X112620666Y-154091571D01*
X112582571Y-154167761D01*
X112544476Y-154205857D01*
X112468285Y-154243952D01*
X112163523Y-154243952D01*
X113306380Y-154091571D02*
X113306380Y-154624904D01*
X113115904Y-153786809D02*
X112925428Y-154358238D01*
X113420666Y-154358238D01*
G04 #@! TO.C,R5*
D11*
X117302333Y-159075380D02*
X116730904Y-159075380D01*
X117016619Y-159075380D02*
X117016619Y-158075380D01*
X116921380Y-158218238D01*
X116826142Y-158313476D01*
X116730904Y-158361095D01*
X117921380Y-158075380D02*
X118016619Y-158075380D01*
X118111857Y-158123000D01*
X118159476Y-158170619D01*
X118207095Y-158265857D01*
X118254714Y-158456333D01*
X118254714Y-158694428D01*
X118207095Y-158884904D01*
X118159476Y-158980142D01*
X118111857Y-159027761D01*
X118016619Y-159075380D01*
X117921380Y-159075380D01*
X117826142Y-159027761D01*
X117778523Y-158980142D01*
X117730904Y-158884904D01*
X117683285Y-158694428D01*
X117683285Y-158456333D01*
X117730904Y-158265857D01*
X117778523Y-158170619D01*
X117826142Y-158123000D01*
X117921380Y-158075380D01*
X118873761Y-158075380D02*
X118969000Y-158075380D01*
X119064238Y-158123000D01*
X119111857Y-158170619D01*
X119159476Y-158265857D01*
X119207095Y-158456333D01*
X119207095Y-158694428D01*
X119159476Y-158884904D01*
X119111857Y-158980142D01*
X119064238Y-159027761D01*
X118969000Y-159075380D01*
X118873761Y-159075380D01*
X118778523Y-159027761D01*
X118730904Y-158980142D01*
X118683285Y-158884904D01*
X118635666Y-158694428D01*
X118635666Y-158456333D01*
X118683285Y-158265857D01*
X118730904Y-158170619D01*
X118778523Y-158123000D01*
X118873761Y-158075380D01*
X119635666Y-159075380D02*
X119635666Y-158075380D01*
X120207095Y-159075380D02*
X119778523Y-158503952D01*
X120207095Y-158075380D02*
X119635666Y-158646809D01*
D12*
X118335666Y-157164904D02*
X118069000Y-156783952D01*
X117878523Y-157164904D02*
X117878523Y-156364904D01*
X118183285Y-156364904D01*
X118259476Y-156403000D01*
X118297571Y-156441095D01*
X118335666Y-156517285D01*
X118335666Y-156631571D01*
X118297571Y-156707761D01*
X118259476Y-156745857D01*
X118183285Y-156783952D01*
X117878523Y-156783952D01*
X119059476Y-156364904D02*
X118678523Y-156364904D01*
X118640428Y-156745857D01*
X118678523Y-156707761D01*
X118754714Y-156669666D01*
X118945190Y-156669666D01*
X119021380Y-156707761D01*
X119059476Y-156745857D01*
X119097571Y-156822047D01*
X119097571Y-157012523D01*
X119059476Y-157088714D01*
X119021380Y-157126809D01*
X118945190Y-157164904D01*
X118754714Y-157164904D01*
X118678523Y-157126809D01*
X118640428Y-157088714D01*
G04 #@! TO.C,R6*
D11*
X117707095Y-161583714D02*
X117707095Y-162250380D01*
X117469000Y-161202761D02*
X117230904Y-161917047D01*
X117849952Y-161917047D01*
X118135666Y-161250380D02*
X118802333Y-161250380D01*
X118373761Y-162250380D01*
X119373761Y-161250380D02*
X119469000Y-161250380D01*
X119564238Y-161298000D01*
X119611857Y-161345619D01*
X119659476Y-161440857D01*
X119707095Y-161631333D01*
X119707095Y-161869428D01*
X119659476Y-162059904D01*
X119611857Y-162155142D01*
X119564238Y-162202761D01*
X119469000Y-162250380D01*
X119373761Y-162250380D01*
X119278523Y-162202761D01*
X119230904Y-162155142D01*
X119183285Y-162059904D01*
X119135666Y-161869428D01*
X119135666Y-161631333D01*
X119183285Y-161440857D01*
X119230904Y-161345619D01*
X119278523Y-161298000D01*
X119373761Y-161250380D01*
D12*
X118335666Y-160339904D02*
X118069000Y-159958952D01*
X117878523Y-160339904D02*
X117878523Y-159539904D01*
X118183285Y-159539904D01*
X118259476Y-159578000D01*
X118297571Y-159616095D01*
X118335666Y-159692285D01*
X118335666Y-159806571D01*
X118297571Y-159882761D01*
X118259476Y-159920857D01*
X118183285Y-159958952D01*
X117878523Y-159958952D01*
X119021380Y-159539904D02*
X118869000Y-159539904D01*
X118792809Y-159578000D01*
X118754714Y-159616095D01*
X118678523Y-159730380D01*
X118640428Y-159882761D01*
X118640428Y-160187523D01*
X118678523Y-160263714D01*
X118716619Y-160301809D01*
X118792809Y-160339904D01*
X118945190Y-160339904D01*
X119021380Y-160301809D01*
X119059476Y-160263714D01*
X119097571Y-160187523D01*
X119097571Y-159997047D01*
X119059476Y-159920857D01*
X119021380Y-159882761D01*
X118945190Y-159844666D01*
X118792809Y-159844666D01*
X118716619Y-159882761D01*
X118678523Y-159920857D01*
X118640428Y-159997047D01*
G04 #@! TO.C,R7*
D11*
X111968285Y-146910619D02*
X112015904Y-146863000D01*
X112111142Y-146815380D01*
X112349238Y-146815380D01*
X112444476Y-146863000D01*
X112492095Y-146910619D01*
X112539714Y-147005857D01*
X112539714Y-147101095D01*
X112492095Y-147243952D01*
X111920666Y-147815380D01*
X112539714Y-147815380D01*
X112968285Y-147815380D02*
X112968285Y-146815380D01*
X113539714Y-147815380D02*
X113111142Y-147243952D01*
X113539714Y-146815380D02*
X112968285Y-147386809D01*
D12*
X112620666Y-149544904D02*
X112354000Y-149163952D01*
X112163523Y-149544904D02*
X112163523Y-148744904D01*
X112468285Y-148744904D01*
X112544476Y-148783000D01*
X112582571Y-148821095D01*
X112620666Y-148897285D01*
X112620666Y-149011571D01*
X112582571Y-149087761D01*
X112544476Y-149125857D01*
X112468285Y-149163952D01*
X112163523Y-149163952D01*
X112887333Y-148744904D02*
X113420666Y-148744904D01*
X113077809Y-149544904D01*
G04 #@! TO.C,R8*
D11*
X123557095Y-153895619D02*
X123604714Y-153848000D01*
X123699952Y-153800380D01*
X123938047Y-153800380D01*
X124033285Y-153848000D01*
X124080904Y-153895619D01*
X124128523Y-153990857D01*
X124128523Y-154086095D01*
X124080904Y-154228952D01*
X123509476Y-154800380D01*
X124128523Y-154800380D01*
X124747571Y-153800380D02*
X124842809Y-153800380D01*
X124938047Y-153848000D01*
X124985666Y-153895619D01*
X125033285Y-153990857D01*
X125080904Y-154181333D01*
X125080904Y-154419428D01*
X125033285Y-154609904D01*
X124985666Y-154705142D01*
X124938047Y-154752761D01*
X124842809Y-154800380D01*
X124747571Y-154800380D01*
X124652333Y-154752761D01*
X124604714Y-154705142D01*
X124557095Y-154609904D01*
X124509476Y-154419428D01*
X124509476Y-154181333D01*
X124557095Y-153990857D01*
X124604714Y-153895619D01*
X124652333Y-153848000D01*
X124747571Y-153800380D01*
X125509476Y-154800380D02*
X125509476Y-153800380D01*
X126080904Y-154800380D02*
X125652333Y-154228952D01*
X126080904Y-153800380D02*
X125509476Y-154371809D01*
D12*
X124685666Y-156529904D02*
X124419000Y-156148952D01*
X124228523Y-156529904D02*
X124228523Y-155729904D01*
X124533285Y-155729904D01*
X124609476Y-155768000D01*
X124647571Y-155806095D01*
X124685666Y-155882285D01*
X124685666Y-155996571D01*
X124647571Y-156072761D01*
X124609476Y-156110857D01*
X124533285Y-156148952D01*
X124228523Y-156148952D01*
X125142809Y-156072761D02*
X125066619Y-156034666D01*
X125028523Y-155996571D01*
X124990428Y-155920380D01*
X124990428Y-155882285D01*
X125028523Y-155806095D01*
X125066619Y-155768000D01*
X125142809Y-155729904D01*
X125295190Y-155729904D01*
X125371380Y-155768000D01*
X125409476Y-155806095D01*
X125447571Y-155882285D01*
X125447571Y-155920380D01*
X125409476Y-155996571D01*
X125371380Y-156034666D01*
X125295190Y-156072761D01*
X125142809Y-156072761D01*
X125066619Y-156110857D01*
X125028523Y-156148952D01*
X124990428Y-156225142D01*
X124990428Y-156377523D01*
X125028523Y-156453714D01*
X125066619Y-156491809D01*
X125142809Y-156529904D01*
X125295190Y-156529904D01*
X125371380Y-156491809D01*
X125409476Y-156453714D01*
X125447571Y-156377523D01*
X125447571Y-156225142D01*
X125409476Y-156148952D01*
X125371380Y-156110857D01*
X125295190Y-156072761D01*
G04 #@! TO.C,R9*
D11*
X123721380Y-153667523D02*
X123721380Y-153048476D01*
X124102333Y-153381809D01*
X124102333Y-153238952D01*
X124149952Y-153143714D01*
X124197571Y-153096095D01*
X124292809Y-153048476D01*
X124530904Y-153048476D01*
X124626142Y-153096095D01*
X124673761Y-153143714D01*
X124721380Y-153238952D01*
X124721380Y-153524666D01*
X124673761Y-153619904D01*
X124626142Y-153667523D01*
X123721380Y-152429428D02*
X123721380Y-152334190D01*
X123769000Y-152238952D01*
X123816619Y-152191333D01*
X123911857Y-152143714D01*
X124102333Y-152096095D01*
X124340428Y-152096095D01*
X124530904Y-152143714D01*
X124626142Y-152191333D01*
X124673761Y-152238952D01*
X124721380Y-152334190D01*
X124721380Y-152429428D01*
X124673761Y-152524666D01*
X124626142Y-152572285D01*
X124530904Y-152619904D01*
X124340428Y-152667523D01*
X124102333Y-152667523D01*
X123911857Y-152619904D01*
X123816619Y-152572285D01*
X123769000Y-152524666D01*
X123721380Y-152429428D01*
X124721380Y-151667523D02*
X123721380Y-151667523D01*
X124721380Y-151096095D02*
X124149952Y-151524666D01*
X123721380Y-151096095D02*
X124292809Y-151667523D01*
D12*
X126450904Y-152491333D02*
X126069952Y-152758000D01*
X126450904Y-152948476D02*
X125650904Y-152948476D01*
X125650904Y-152643714D01*
X125689000Y-152567523D01*
X125727095Y-152529428D01*
X125803285Y-152491333D01*
X125917571Y-152491333D01*
X125993761Y-152529428D01*
X126031857Y-152567523D01*
X126069952Y-152643714D01*
X126069952Y-152948476D01*
X126450904Y-152110380D02*
X126450904Y-151958000D01*
X126412809Y-151881809D01*
X126374714Y-151843714D01*
X126260428Y-151767523D01*
X126108047Y-151729428D01*
X125803285Y-151729428D01*
X125727095Y-151767523D01*
X125689000Y-151805619D01*
X125650904Y-151881809D01*
X125650904Y-152034190D01*
X125689000Y-152110380D01*
X125727095Y-152148476D01*
X125803285Y-152186571D01*
X125993761Y-152186571D01*
X126069952Y-152148476D01*
X126108047Y-152110380D01*
X126146142Y-152034190D01*
X126146142Y-151881809D01*
X126108047Y-151805619D01*
X126069952Y-151767523D01*
X125993761Y-151729428D01*
G04 #@! TO.C,R11*
D11*
X111587333Y-155435380D02*
X111015904Y-155435380D01*
X111301619Y-155435380D02*
X111301619Y-154435380D01*
X111206380Y-154578238D01*
X111111142Y-154673476D01*
X111015904Y-154721095D01*
X112206380Y-154435380D02*
X112301619Y-154435380D01*
X112396857Y-154483000D01*
X112444476Y-154530619D01*
X112492095Y-154625857D01*
X112539714Y-154816333D01*
X112539714Y-155054428D01*
X112492095Y-155244904D01*
X112444476Y-155340142D01*
X112396857Y-155387761D01*
X112301619Y-155435380D01*
X112206380Y-155435380D01*
X112111142Y-155387761D01*
X112063523Y-155340142D01*
X112015904Y-155244904D01*
X111968285Y-155054428D01*
X111968285Y-154816333D01*
X112015904Y-154625857D01*
X112063523Y-154530619D01*
X112111142Y-154483000D01*
X112206380Y-154435380D01*
X113158761Y-154435380D02*
X113254000Y-154435380D01*
X113349238Y-154483000D01*
X113396857Y-154530619D01*
X113444476Y-154625857D01*
X113492095Y-154816333D01*
X113492095Y-155054428D01*
X113444476Y-155244904D01*
X113396857Y-155340142D01*
X113349238Y-155387761D01*
X113254000Y-155435380D01*
X113158761Y-155435380D01*
X113063523Y-155387761D01*
X113015904Y-155340142D01*
X112968285Y-155244904D01*
X112920666Y-155054428D01*
X112920666Y-154816333D01*
X112968285Y-154625857D01*
X113015904Y-154530619D01*
X113063523Y-154483000D01*
X113158761Y-154435380D01*
X113920666Y-155435380D02*
X113920666Y-154435380D01*
X114492095Y-155435380D02*
X114063523Y-154863952D01*
X114492095Y-154435380D02*
X113920666Y-155006809D01*
D12*
X112239714Y-157164904D02*
X111973047Y-156783952D01*
X111782571Y-157164904D02*
X111782571Y-156364904D01*
X112087333Y-156364904D01*
X112163523Y-156403000D01*
X112201619Y-156441095D01*
X112239714Y-156517285D01*
X112239714Y-156631571D01*
X112201619Y-156707761D01*
X112163523Y-156745857D01*
X112087333Y-156783952D01*
X111782571Y-156783952D01*
X113001619Y-157164904D02*
X112544476Y-157164904D01*
X112773047Y-157164904D02*
X112773047Y-156364904D01*
X112696857Y-156479190D01*
X112620666Y-156555380D01*
X112544476Y-156593476D01*
X113763523Y-157164904D02*
X113306380Y-157164904D01*
X113534952Y-157164904D02*
X113534952Y-156364904D01*
X113458761Y-156479190D01*
X113382571Y-156555380D01*
X113306380Y-156593476D01*
G04 #@! TO.C,R12*
D11*
X117302333Y-156535380D02*
X116730904Y-156535380D01*
X117016619Y-156535380D02*
X117016619Y-155535380D01*
X116921380Y-155678238D01*
X116826142Y-155773476D01*
X116730904Y-155821095D01*
X117921380Y-155535380D02*
X118016619Y-155535380D01*
X118111857Y-155583000D01*
X118159476Y-155630619D01*
X118207095Y-155725857D01*
X118254714Y-155916333D01*
X118254714Y-156154428D01*
X118207095Y-156344904D01*
X118159476Y-156440142D01*
X118111857Y-156487761D01*
X118016619Y-156535380D01*
X117921380Y-156535380D01*
X117826142Y-156487761D01*
X117778523Y-156440142D01*
X117730904Y-156344904D01*
X117683285Y-156154428D01*
X117683285Y-155916333D01*
X117730904Y-155725857D01*
X117778523Y-155630619D01*
X117826142Y-155583000D01*
X117921380Y-155535380D01*
X118873761Y-155535380D02*
X118969000Y-155535380D01*
X119064238Y-155583000D01*
X119111857Y-155630619D01*
X119159476Y-155725857D01*
X119207095Y-155916333D01*
X119207095Y-156154428D01*
X119159476Y-156344904D01*
X119111857Y-156440142D01*
X119064238Y-156487761D01*
X118969000Y-156535380D01*
X118873761Y-156535380D01*
X118778523Y-156487761D01*
X118730904Y-156440142D01*
X118683285Y-156344904D01*
X118635666Y-156154428D01*
X118635666Y-155916333D01*
X118683285Y-155725857D01*
X118730904Y-155630619D01*
X118778523Y-155583000D01*
X118873761Y-155535380D01*
X119635666Y-156535380D02*
X119635666Y-155535380D01*
X120207095Y-156535380D02*
X119778523Y-155963952D01*
X120207095Y-155535380D02*
X119635666Y-156106809D01*
D12*
X117954714Y-154624904D02*
X117688047Y-154243952D01*
X117497571Y-154624904D02*
X117497571Y-153824904D01*
X117802333Y-153824904D01*
X117878523Y-153863000D01*
X117916619Y-153901095D01*
X117954714Y-153977285D01*
X117954714Y-154091571D01*
X117916619Y-154167761D01*
X117878523Y-154205857D01*
X117802333Y-154243952D01*
X117497571Y-154243952D01*
X118716619Y-154624904D02*
X118259476Y-154624904D01*
X118488047Y-154624904D02*
X118488047Y-153824904D01*
X118411857Y-153939190D01*
X118335666Y-154015380D01*
X118259476Y-154053476D01*
X119021380Y-153901095D02*
X119059476Y-153863000D01*
X119135666Y-153824904D01*
X119326142Y-153824904D01*
X119402333Y-153863000D01*
X119440428Y-153901095D01*
X119478523Y-153977285D01*
X119478523Y-154053476D01*
X119440428Y-154167761D01*
X118983285Y-154624904D01*
X119478523Y-154624904D01*
G04 #@! TO.C,R13*
D11*
X117683285Y-149450619D02*
X117730904Y-149403000D01*
X117826142Y-149355380D01*
X118064238Y-149355380D01*
X118159476Y-149403000D01*
X118207095Y-149450619D01*
X118254714Y-149545857D01*
X118254714Y-149641095D01*
X118207095Y-149783952D01*
X117635666Y-150355380D01*
X118254714Y-150355380D01*
X118683285Y-150355380D02*
X118683285Y-149355380D01*
X119254714Y-150355380D02*
X118826142Y-149783952D01*
X119254714Y-149355380D02*
X118683285Y-149926809D01*
D12*
X117954714Y-152084904D02*
X117688047Y-151703952D01*
X117497571Y-152084904D02*
X117497571Y-151284904D01*
X117802333Y-151284904D01*
X117878523Y-151323000D01*
X117916619Y-151361095D01*
X117954714Y-151437285D01*
X117954714Y-151551571D01*
X117916619Y-151627761D01*
X117878523Y-151665857D01*
X117802333Y-151703952D01*
X117497571Y-151703952D01*
X118716619Y-152084904D02*
X118259476Y-152084904D01*
X118488047Y-152084904D02*
X118488047Y-151284904D01*
X118411857Y-151399190D01*
X118335666Y-151475380D01*
X118259476Y-151513476D01*
X118983285Y-151284904D02*
X119478523Y-151284904D01*
X119211857Y-151589666D01*
X119326142Y-151589666D01*
X119402333Y-151627761D01*
X119440428Y-151665857D01*
X119478523Y-151742047D01*
X119478523Y-151932523D01*
X119440428Y-152008714D01*
X119402333Y-152046809D01*
X119326142Y-152084904D01*
X119097571Y-152084904D01*
X119021380Y-152046809D01*
X118983285Y-152008714D01*
G04 #@! TO.C,R14*
D11*
X124721380Y-147936666D02*
X124721380Y-148508095D01*
X124721380Y-148222380D02*
X123721380Y-148222380D01*
X123864238Y-148317619D01*
X123959476Y-148412857D01*
X124007095Y-148508095D01*
X123816619Y-147555714D02*
X123769000Y-147508095D01*
X123721380Y-147412857D01*
X123721380Y-147174761D01*
X123769000Y-147079523D01*
X123816619Y-147031904D01*
X123911857Y-146984285D01*
X124007095Y-146984285D01*
X124149952Y-147031904D01*
X124721380Y-147603333D01*
X124721380Y-146984285D01*
X123721380Y-146365238D02*
X123721380Y-146270000D01*
X123769000Y-146174761D01*
X123816619Y-146127142D01*
X123911857Y-146079523D01*
X124102333Y-146031904D01*
X124340428Y-146031904D01*
X124530904Y-146079523D01*
X124626142Y-146127142D01*
X124673761Y-146174761D01*
X124721380Y-146270000D01*
X124721380Y-146365238D01*
X124673761Y-146460476D01*
X124626142Y-146508095D01*
X124530904Y-146555714D01*
X124340428Y-146603333D01*
X124102333Y-146603333D01*
X123911857Y-146555714D01*
X123816619Y-146508095D01*
X123769000Y-146460476D01*
X123721380Y-146365238D01*
X124721380Y-145603333D02*
X123721380Y-145603333D01*
X124721380Y-145031904D02*
X124149952Y-145460476D01*
X123721380Y-145031904D02*
X124292809Y-145603333D01*
D12*
X126450904Y-147284285D02*
X126069952Y-147550952D01*
X126450904Y-147741428D02*
X125650904Y-147741428D01*
X125650904Y-147436666D01*
X125689000Y-147360476D01*
X125727095Y-147322380D01*
X125803285Y-147284285D01*
X125917571Y-147284285D01*
X125993761Y-147322380D01*
X126031857Y-147360476D01*
X126069952Y-147436666D01*
X126069952Y-147741428D01*
X126450904Y-146522380D02*
X126450904Y-146979523D01*
X126450904Y-146750952D02*
X125650904Y-146750952D01*
X125765190Y-146827142D01*
X125841380Y-146903333D01*
X125879476Y-146979523D01*
X125917571Y-145836666D02*
X126450904Y-145836666D01*
X125612809Y-146027142D02*
X126184238Y-146217619D01*
X126184238Y-145722380D01*
G04 #@! TO.C,R15*
D11*
X137870619Y-162509904D02*
X137823000Y-162462285D01*
X137775380Y-162367047D01*
X137775380Y-162128952D01*
X137823000Y-162033714D01*
X137870619Y-161986095D01*
X137965857Y-161938476D01*
X138061095Y-161938476D01*
X138203952Y-161986095D01*
X138775380Y-162557523D01*
X138775380Y-161938476D01*
X137775380Y-161319428D02*
X137775380Y-161224190D01*
X137823000Y-161128952D01*
X137870619Y-161081333D01*
X137965857Y-161033714D01*
X138156333Y-160986095D01*
X138394428Y-160986095D01*
X138584904Y-161033714D01*
X138680142Y-161081333D01*
X138727761Y-161128952D01*
X138775380Y-161224190D01*
X138775380Y-161319428D01*
X138727761Y-161414666D01*
X138680142Y-161462285D01*
X138584904Y-161509904D01*
X138394428Y-161557523D01*
X138156333Y-161557523D01*
X137965857Y-161509904D01*
X137870619Y-161462285D01*
X137823000Y-161414666D01*
X137775380Y-161319428D01*
X138775380Y-160557523D02*
X137775380Y-160557523D01*
X138775380Y-159986095D02*
X138203952Y-160414666D01*
X137775380Y-159986095D02*
X138346809Y-160557523D01*
D12*
X136864904Y-161762285D02*
X136483952Y-162028952D01*
X136864904Y-162219428D02*
X136064904Y-162219428D01*
X136064904Y-161914666D01*
X136103000Y-161838476D01*
X136141095Y-161800380D01*
X136217285Y-161762285D01*
X136331571Y-161762285D01*
X136407761Y-161800380D01*
X136445857Y-161838476D01*
X136483952Y-161914666D01*
X136483952Y-162219428D01*
X136864904Y-161000380D02*
X136864904Y-161457523D01*
X136864904Y-161228952D02*
X136064904Y-161228952D01*
X136179190Y-161305142D01*
X136255380Y-161381333D01*
X136293476Y-161457523D01*
X136064904Y-160276571D02*
X136064904Y-160657523D01*
X136445857Y-160695619D01*
X136407761Y-160657523D01*
X136369666Y-160581333D01*
X136369666Y-160390857D01*
X136407761Y-160314666D01*
X136445857Y-160276571D01*
X136522047Y-160238476D01*
X136712523Y-160238476D01*
X136788714Y-160276571D01*
X136826809Y-160314666D01*
X136864904Y-160390857D01*
X136864904Y-160581333D01*
X136826809Y-160657523D01*
X136788714Y-160695619D01*
G04 #@! TO.C,R16*
D11*
X145009714Y-152746809D02*
X145676380Y-152746809D01*
X144628761Y-152984904D02*
X145343047Y-153223000D01*
X145343047Y-152603952D01*
X145581142Y-152223000D02*
X145628761Y-152175380D01*
X145676380Y-152223000D01*
X145628761Y-152270619D01*
X145581142Y-152223000D01*
X145676380Y-152223000D01*
X144676380Y-151842047D02*
X144676380Y-151175380D01*
X145676380Y-151603952D01*
X145676380Y-150794428D02*
X144676380Y-150794428D01*
X145676380Y-150223000D02*
X145104952Y-150651571D01*
X144676380Y-150223000D02*
X145247809Y-150794428D01*
D12*
X147405904Y-152237285D02*
X147024952Y-152503952D01*
X147405904Y-152694428D02*
X146605904Y-152694428D01*
X146605904Y-152389666D01*
X146644000Y-152313476D01*
X146682095Y-152275380D01*
X146758285Y-152237285D01*
X146872571Y-152237285D01*
X146948761Y-152275380D01*
X146986857Y-152313476D01*
X147024952Y-152389666D01*
X147024952Y-152694428D01*
X147405904Y-151475380D02*
X147405904Y-151932523D01*
X147405904Y-151703952D02*
X146605904Y-151703952D01*
X146720190Y-151780142D01*
X146796380Y-151856333D01*
X146834476Y-151932523D01*
X146605904Y-150789666D02*
X146605904Y-150942047D01*
X146644000Y-151018238D01*
X146682095Y-151056333D01*
X146796380Y-151132523D01*
X146948761Y-151170619D01*
X147253523Y-151170619D01*
X147329714Y-151132523D01*
X147367809Y-151094428D01*
X147405904Y-151018238D01*
X147405904Y-150865857D01*
X147367809Y-150789666D01*
X147329714Y-150751571D01*
X147253523Y-150713476D01*
X147063047Y-150713476D01*
X146986857Y-150751571D01*
X146948761Y-150789666D01*
X146910666Y-150865857D01*
X146910666Y-151018238D01*
X146948761Y-151094428D01*
X146986857Y-151132523D01*
X147063047Y-151170619D01*
G04 #@! TO.C,R17*
D11*
X144236380Y-151937285D02*
X144236380Y-152508714D01*
X144236380Y-152223000D02*
X143236380Y-152223000D01*
X143379238Y-152318238D01*
X143474476Y-152413476D01*
X143522095Y-152508714D01*
X144236380Y-151508714D02*
X143236380Y-151508714D01*
X144236380Y-150937285D02*
X143664952Y-151365857D01*
X143236380Y-150937285D02*
X143807809Y-151508714D01*
D12*
X142325904Y-152237285D02*
X141944952Y-152503952D01*
X142325904Y-152694428D02*
X141525904Y-152694428D01*
X141525904Y-152389666D01*
X141564000Y-152313476D01*
X141602095Y-152275380D01*
X141678285Y-152237285D01*
X141792571Y-152237285D01*
X141868761Y-152275380D01*
X141906857Y-152313476D01*
X141944952Y-152389666D01*
X141944952Y-152694428D01*
X142325904Y-151475380D02*
X142325904Y-151932523D01*
X142325904Y-151703952D02*
X141525904Y-151703952D01*
X141640190Y-151780142D01*
X141716380Y-151856333D01*
X141754476Y-151932523D01*
X141525904Y-151208714D02*
X141525904Y-150675380D01*
X142325904Y-151018238D01*
G04 #@! TO.C,R19*
D11*
X148216380Y-152889666D02*
X148216380Y-153461095D01*
X148216380Y-153175380D02*
X147216380Y-153175380D01*
X147359238Y-153270619D01*
X147454476Y-153365857D01*
X147502095Y-153461095D01*
X147216380Y-152270619D02*
X147216380Y-152175380D01*
X147264000Y-152080142D01*
X147311619Y-152032523D01*
X147406857Y-151984904D01*
X147597333Y-151937285D01*
X147835428Y-151937285D01*
X148025904Y-151984904D01*
X148121142Y-152032523D01*
X148168761Y-152080142D01*
X148216380Y-152175380D01*
X148216380Y-152270619D01*
X148168761Y-152365857D01*
X148121142Y-152413476D01*
X148025904Y-152461095D01*
X147835428Y-152508714D01*
X147597333Y-152508714D01*
X147406857Y-152461095D01*
X147311619Y-152413476D01*
X147264000Y-152365857D01*
X147216380Y-152270619D01*
X147216380Y-151318238D02*
X147216380Y-151223000D01*
X147264000Y-151127761D01*
X147311619Y-151080142D01*
X147406857Y-151032523D01*
X147597333Y-150984904D01*
X147835428Y-150984904D01*
X148025904Y-151032523D01*
X148121142Y-151080142D01*
X148168761Y-151127761D01*
X148216380Y-151223000D01*
X148216380Y-151318238D01*
X148168761Y-151413476D01*
X148121142Y-151461095D01*
X148025904Y-151508714D01*
X147835428Y-151556333D01*
X147597333Y-151556333D01*
X147406857Y-151508714D01*
X147311619Y-151461095D01*
X147264000Y-151413476D01*
X147216380Y-151318238D01*
X148216380Y-150556333D02*
X147216380Y-150556333D01*
X148216380Y-149984904D02*
X147644952Y-150413476D01*
X147216380Y-149984904D02*
X147787809Y-150556333D01*
D12*
X149945904Y-152237285D02*
X149564952Y-152503952D01*
X149945904Y-152694428D02*
X149145904Y-152694428D01*
X149145904Y-152389666D01*
X149184000Y-152313476D01*
X149222095Y-152275380D01*
X149298285Y-152237285D01*
X149412571Y-152237285D01*
X149488761Y-152275380D01*
X149526857Y-152313476D01*
X149564952Y-152389666D01*
X149564952Y-152694428D01*
X149945904Y-151475380D02*
X149945904Y-151932523D01*
X149945904Y-151703952D02*
X149145904Y-151703952D01*
X149260190Y-151780142D01*
X149336380Y-151856333D01*
X149374476Y-151932523D01*
X149945904Y-151094428D02*
X149945904Y-150942047D01*
X149907809Y-150865857D01*
X149869714Y-150827761D01*
X149755428Y-150751571D01*
X149603047Y-150713476D01*
X149298285Y-150713476D01*
X149222095Y-150751571D01*
X149184000Y-150789666D01*
X149145904Y-150865857D01*
X149145904Y-151018238D01*
X149184000Y-151094428D01*
X149222095Y-151132523D01*
X149298285Y-151170619D01*
X149488761Y-151170619D01*
X149564952Y-151132523D01*
X149603047Y-151094428D01*
X149641142Y-151018238D01*
X149641142Y-150865857D01*
X149603047Y-150789666D01*
X149564952Y-150751571D01*
X149488761Y-150713476D01*
G04 #@! TO.C,R20*
D11*
X131772333Y-159075380D02*
X131200904Y-159075380D01*
X131486619Y-159075380D02*
X131486619Y-158075380D01*
X131391380Y-158218238D01*
X131296142Y-158313476D01*
X131200904Y-158361095D01*
X132677095Y-158075380D02*
X132200904Y-158075380D01*
X132153285Y-158551571D01*
X132200904Y-158503952D01*
X132296142Y-158456333D01*
X132534238Y-158456333D01*
X132629476Y-158503952D01*
X132677095Y-158551571D01*
X132724714Y-158646809D01*
X132724714Y-158884904D01*
X132677095Y-158980142D01*
X132629476Y-159027761D01*
X132534238Y-159075380D01*
X132296142Y-159075380D01*
X132200904Y-159027761D01*
X132153285Y-158980142D01*
X133343761Y-158075380D02*
X133439000Y-158075380D01*
X133534238Y-158123000D01*
X133581857Y-158170619D01*
X133629476Y-158265857D01*
X133677095Y-158456333D01*
X133677095Y-158694428D01*
X133629476Y-158884904D01*
X133581857Y-158980142D01*
X133534238Y-159027761D01*
X133439000Y-159075380D01*
X133343761Y-159075380D01*
X133248523Y-159027761D01*
X133200904Y-158980142D01*
X133153285Y-158884904D01*
X133105666Y-158694428D01*
X133105666Y-158456333D01*
X133153285Y-158265857D01*
X133200904Y-158170619D01*
X133248523Y-158123000D01*
X133343761Y-158075380D01*
D12*
X131924714Y-157164904D02*
X131658047Y-156783952D01*
X131467571Y-157164904D02*
X131467571Y-156364904D01*
X131772333Y-156364904D01*
X131848523Y-156403000D01*
X131886619Y-156441095D01*
X131924714Y-156517285D01*
X131924714Y-156631571D01*
X131886619Y-156707761D01*
X131848523Y-156745857D01*
X131772333Y-156783952D01*
X131467571Y-156783952D01*
X132229476Y-156441095D02*
X132267571Y-156403000D01*
X132343761Y-156364904D01*
X132534238Y-156364904D01*
X132610428Y-156403000D01*
X132648523Y-156441095D01*
X132686619Y-156517285D01*
X132686619Y-156593476D01*
X132648523Y-156707761D01*
X132191380Y-157164904D01*
X132686619Y-157164904D01*
X133181857Y-156364904D02*
X133258047Y-156364904D01*
X133334238Y-156403000D01*
X133372333Y-156441095D01*
X133410428Y-156517285D01*
X133448523Y-156669666D01*
X133448523Y-156860142D01*
X133410428Y-157012523D01*
X133372333Y-157088714D01*
X133334238Y-157126809D01*
X133258047Y-157164904D01*
X133181857Y-157164904D01*
X133105666Y-157126809D01*
X133067571Y-157088714D01*
X133029476Y-157012523D01*
X132991380Y-156860142D01*
X132991380Y-156669666D01*
X133029476Y-156517285D01*
X133067571Y-156441095D01*
X133105666Y-156403000D01*
X133181857Y-156364904D01*
G04 #@! TO.C,R21*
D11*
X145782095Y-149518714D02*
X145782095Y-150185380D01*
X145544000Y-149137761D02*
X145305904Y-149852047D01*
X145924952Y-149852047D01*
X146210666Y-149185380D02*
X146877333Y-149185380D01*
X146448761Y-150185380D01*
X147448761Y-149185380D02*
X147544000Y-149185380D01*
X147639238Y-149233000D01*
X147686857Y-149280619D01*
X147734476Y-149375857D01*
X147782095Y-149566333D01*
X147782095Y-149804428D01*
X147734476Y-149994904D01*
X147686857Y-150090142D01*
X147639238Y-150137761D01*
X147544000Y-150185380D01*
X147448761Y-150185380D01*
X147353523Y-150137761D01*
X147305904Y-150090142D01*
X147258285Y-149994904D01*
X147210666Y-149804428D01*
X147210666Y-149566333D01*
X147258285Y-149375857D01*
X147305904Y-149280619D01*
X147353523Y-149233000D01*
X147448761Y-149185380D01*
X148210666Y-150185380D02*
X148210666Y-149185380D01*
X148782095Y-150185380D02*
X148353523Y-149613952D01*
X148782095Y-149185380D02*
X148210666Y-149756809D01*
D12*
X146529714Y-148274904D02*
X146263047Y-147893952D01*
X146072571Y-148274904D02*
X146072571Y-147474904D01*
X146377333Y-147474904D01*
X146453523Y-147513000D01*
X146491619Y-147551095D01*
X146529714Y-147627285D01*
X146529714Y-147741571D01*
X146491619Y-147817761D01*
X146453523Y-147855857D01*
X146377333Y-147893952D01*
X146072571Y-147893952D01*
X146834476Y-147551095D02*
X146872571Y-147513000D01*
X146948761Y-147474904D01*
X147139238Y-147474904D01*
X147215428Y-147513000D01*
X147253523Y-147551095D01*
X147291619Y-147627285D01*
X147291619Y-147703476D01*
X147253523Y-147817761D01*
X146796380Y-148274904D01*
X147291619Y-148274904D01*
X148053523Y-148274904D02*
X147596380Y-148274904D01*
X147824952Y-148274904D02*
X147824952Y-147474904D01*
X147748761Y-147589190D01*
X147672571Y-147665380D01*
X147596380Y-147703476D01*
G04 #@! TO.C,R22*
D11*
X146258285Y-143338714D02*
X146258285Y-144005380D01*
X146020190Y-142957761D02*
X145782095Y-143672047D01*
X146401142Y-143672047D01*
X146686857Y-143005380D02*
X147353523Y-143005380D01*
X146924952Y-144005380D01*
X147734476Y-144005380D02*
X147734476Y-143005380D01*
X148305904Y-144005380D02*
X147877333Y-143433952D01*
X148305904Y-143005380D02*
X147734476Y-143576809D01*
D12*
X146529714Y-145734904D02*
X146263047Y-145353952D01*
X146072571Y-145734904D02*
X146072571Y-144934904D01*
X146377333Y-144934904D01*
X146453523Y-144973000D01*
X146491619Y-145011095D01*
X146529714Y-145087285D01*
X146529714Y-145201571D01*
X146491619Y-145277761D01*
X146453523Y-145315857D01*
X146377333Y-145353952D01*
X146072571Y-145353952D01*
X146834476Y-145011095D02*
X146872571Y-144973000D01*
X146948761Y-144934904D01*
X147139238Y-144934904D01*
X147215428Y-144973000D01*
X147253523Y-145011095D01*
X147291619Y-145087285D01*
X147291619Y-145163476D01*
X147253523Y-145277761D01*
X146796380Y-145734904D01*
X147291619Y-145734904D01*
X147596380Y-145011095D02*
X147634476Y-144973000D01*
X147710666Y-144934904D01*
X147901142Y-144934904D01*
X147977333Y-144973000D01*
X148015428Y-145011095D01*
X148053523Y-145087285D01*
X148053523Y-145163476D01*
X148015428Y-145277761D01*
X147558285Y-145734904D01*
X148053523Y-145734904D01*
G04 #@! TO.C,R23*
D11*
X111587333Y-133845380D02*
X111015904Y-133845380D01*
X111301619Y-133845380D02*
X111301619Y-132845380D01*
X111206380Y-132988238D01*
X111111142Y-133083476D01*
X111015904Y-133131095D01*
X112206380Y-132845380D02*
X112301619Y-132845380D01*
X112396857Y-132893000D01*
X112444476Y-132940619D01*
X112492095Y-133035857D01*
X112539714Y-133226333D01*
X112539714Y-133464428D01*
X112492095Y-133654904D01*
X112444476Y-133750142D01*
X112396857Y-133797761D01*
X112301619Y-133845380D01*
X112206380Y-133845380D01*
X112111142Y-133797761D01*
X112063523Y-133750142D01*
X112015904Y-133654904D01*
X111968285Y-133464428D01*
X111968285Y-133226333D01*
X112015904Y-133035857D01*
X112063523Y-132940619D01*
X112111142Y-132893000D01*
X112206380Y-132845380D01*
X113158761Y-132845380D02*
X113254000Y-132845380D01*
X113349238Y-132893000D01*
X113396857Y-132940619D01*
X113444476Y-133035857D01*
X113492095Y-133226333D01*
X113492095Y-133464428D01*
X113444476Y-133654904D01*
X113396857Y-133750142D01*
X113349238Y-133797761D01*
X113254000Y-133845380D01*
X113158761Y-133845380D01*
X113063523Y-133797761D01*
X113015904Y-133750142D01*
X112968285Y-133654904D01*
X112920666Y-133464428D01*
X112920666Y-133226333D01*
X112968285Y-133035857D01*
X113015904Y-132940619D01*
X113063523Y-132893000D01*
X113158761Y-132845380D01*
X113920666Y-133845380D02*
X113920666Y-132845380D01*
X114492095Y-133845380D02*
X114063523Y-133273952D01*
X114492095Y-132845380D02*
X113920666Y-133416809D01*
D12*
X112239714Y-135574904D02*
X111973047Y-135193952D01*
X111782571Y-135574904D02*
X111782571Y-134774904D01*
X112087333Y-134774904D01*
X112163523Y-134813000D01*
X112201619Y-134851095D01*
X112239714Y-134927285D01*
X112239714Y-135041571D01*
X112201619Y-135117761D01*
X112163523Y-135155857D01*
X112087333Y-135193952D01*
X111782571Y-135193952D01*
X112544476Y-134851095D02*
X112582571Y-134813000D01*
X112658761Y-134774904D01*
X112849238Y-134774904D01*
X112925428Y-134813000D01*
X112963523Y-134851095D01*
X113001619Y-134927285D01*
X113001619Y-135003476D01*
X112963523Y-135117761D01*
X112506380Y-135574904D01*
X113001619Y-135574904D01*
X113268285Y-134774904D02*
X113763523Y-134774904D01*
X113496857Y-135079666D01*
X113611142Y-135079666D01*
X113687333Y-135117761D01*
X113725428Y-135155857D01*
X113763523Y-135232047D01*
X113763523Y-135422523D01*
X113725428Y-135498714D01*
X113687333Y-135536809D01*
X113611142Y-135574904D01*
X113382571Y-135574904D01*
X113306380Y-135536809D01*
X113268285Y-135498714D01*
G04 #@! TO.C,R24*
D11*
X125821380Y-136379666D02*
X125821380Y-136951095D01*
X125821380Y-136665380D02*
X124821380Y-136665380D01*
X124964238Y-136760619D01*
X125059476Y-136855857D01*
X125107095Y-136951095D01*
X124821380Y-135760619D02*
X124821380Y-135665380D01*
X124869000Y-135570142D01*
X124916619Y-135522523D01*
X125011857Y-135474904D01*
X125202333Y-135427285D01*
X125440428Y-135427285D01*
X125630904Y-135474904D01*
X125726142Y-135522523D01*
X125773761Y-135570142D01*
X125821380Y-135665380D01*
X125821380Y-135760619D01*
X125773761Y-135855857D01*
X125726142Y-135903476D01*
X125630904Y-135951095D01*
X125440428Y-135998714D01*
X125202333Y-135998714D01*
X125011857Y-135951095D01*
X124916619Y-135903476D01*
X124869000Y-135855857D01*
X124821380Y-135760619D01*
X124821380Y-134808238D02*
X124821380Y-134713000D01*
X124869000Y-134617761D01*
X124916619Y-134570142D01*
X125011857Y-134522523D01*
X125202333Y-134474904D01*
X125440428Y-134474904D01*
X125630904Y-134522523D01*
X125726142Y-134570142D01*
X125773761Y-134617761D01*
X125821380Y-134713000D01*
X125821380Y-134808238D01*
X125773761Y-134903476D01*
X125726142Y-134951095D01*
X125630904Y-134998714D01*
X125440428Y-135046333D01*
X125202333Y-135046333D01*
X125011857Y-134998714D01*
X124916619Y-134951095D01*
X124869000Y-134903476D01*
X124821380Y-134808238D01*
X125821380Y-134046333D02*
X124821380Y-134046333D01*
X125821380Y-133474904D02*
X125249952Y-133903476D01*
X124821380Y-133474904D02*
X125392809Y-134046333D01*
D12*
X123910904Y-135727285D02*
X123529952Y-135993952D01*
X123910904Y-136184428D02*
X123110904Y-136184428D01*
X123110904Y-135879666D01*
X123149000Y-135803476D01*
X123187095Y-135765380D01*
X123263285Y-135727285D01*
X123377571Y-135727285D01*
X123453761Y-135765380D01*
X123491857Y-135803476D01*
X123529952Y-135879666D01*
X123529952Y-136184428D01*
X123187095Y-135422523D02*
X123149000Y-135384428D01*
X123110904Y-135308238D01*
X123110904Y-135117761D01*
X123149000Y-135041571D01*
X123187095Y-135003476D01*
X123263285Y-134965380D01*
X123339476Y-134965380D01*
X123453761Y-135003476D01*
X123910904Y-135460619D01*
X123910904Y-134965380D01*
X123377571Y-134279666D02*
X123910904Y-134279666D01*
X123072809Y-134470142D02*
X123644238Y-134660619D01*
X123644238Y-134165380D01*
G04 #@! TO.C,R25*
D11*
X117683285Y-135480619D02*
X117730904Y-135433000D01*
X117826142Y-135385380D01*
X118064238Y-135385380D01*
X118159476Y-135433000D01*
X118207095Y-135480619D01*
X118254714Y-135575857D01*
X118254714Y-135671095D01*
X118207095Y-135813952D01*
X117635666Y-136385380D01*
X118254714Y-136385380D01*
X118683285Y-136385380D02*
X118683285Y-135385380D01*
X119254714Y-136385380D02*
X118826142Y-135813952D01*
X119254714Y-135385380D02*
X118683285Y-135956809D01*
D12*
X117954714Y-138114904D02*
X117688047Y-137733952D01*
X117497571Y-138114904D02*
X117497571Y-137314904D01*
X117802333Y-137314904D01*
X117878523Y-137353000D01*
X117916619Y-137391095D01*
X117954714Y-137467285D01*
X117954714Y-137581571D01*
X117916619Y-137657761D01*
X117878523Y-137695857D01*
X117802333Y-137733952D01*
X117497571Y-137733952D01*
X118259476Y-137391095D02*
X118297571Y-137353000D01*
X118373761Y-137314904D01*
X118564238Y-137314904D01*
X118640428Y-137353000D01*
X118678523Y-137391095D01*
X118716619Y-137467285D01*
X118716619Y-137543476D01*
X118678523Y-137657761D01*
X118221380Y-138114904D01*
X118716619Y-138114904D01*
X119440428Y-137314904D02*
X119059476Y-137314904D01*
X119021380Y-137695857D01*
X119059476Y-137657761D01*
X119135666Y-137619666D01*
X119326142Y-137619666D01*
X119402333Y-137657761D01*
X119440428Y-137695857D01*
X119478523Y-137772047D01*
X119478523Y-137962523D01*
X119440428Y-138038714D01*
X119402333Y-138076809D01*
X119326142Y-138114904D01*
X119135666Y-138114904D01*
X119059476Y-138076809D01*
X119021380Y-138038714D01*
G04 #@! TO.C,R26*
D11*
X111587333Y-131305380D02*
X111015904Y-131305380D01*
X111301619Y-131305380D02*
X111301619Y-130305380D01*
X111206380Y-130448238D01*
X111111142Y-130543476D01*
X111015904Y-130591095D01*
X112206380Y-130305380D02*
X112301619Y-130305380D01*
X112396857Y-130353000D01*
X112444476Y-130400619D01*
X112492095Y-130495857D01*
X112539714Y-130686333D01*
X112539714Y-130924428D01*
X112492095Y-131114904D01*
X112444476Y-131210142D01*
X112396857Y-131257761D01*
X112301619Y-131305380D01*
X112206380Y-131305380D01*
X112111142Y-131257761D01*
X112063523Y-131210142D01*
X112015904Y-131114904D01*
X111968285Y-130924428D01*
X111968285Y-130686333D01*
X112015904Y-130495857D01*
X112063523Y-130400619D01*
X112111142Y-130353000D01*
X112206380Y-130305380D01*
X113158761Y-130305380D02*
X113254000Y-130305380D01*
X113349238Y-130353000D01*
X113396857Y-130400619D01*
X113444476Y-130495857D01*
X113492095Y-130686333D01*
X113492095Y-130924428D01*
X113444476Y-131114904D01*
X113396857Y-131210142D01*
X113349238Y-131257761D01*
X113254000Y-131305380D01*
X113158761Y-131305380D01*
X113063523Y-131257761D01*
X113015904Y-131210142D01*
X112968285Y-131114904D01*
X112920666Y-130924428D01*
X112920666Y-130686333D01*
X112968285Y-130495857D01*
X113015904Y-130400619D01*
X113063523Y-130353000D01*
X113158761Y-130305380D01*
X113920666Y-131305380D02*
X113920666Y-130305380D01*
X114492095Y-131305380D02*
X114063523Y-130733952D01*
X114492095Y-130305380D02*
X113920666Y-130876809D01*
D12*
X112239714Y-133034904D02*
X111973047Y-132653952D01*
X111782571Y-133034904D02*
X111782571Y-132234904D01*
X112087333Y-132234904D01*
X112163523Y-132273000D01*
X112201619Y-132311095D01*
X112239714Y-132387285D01*
X112239714Y-132501571D01*
X112201619Y-132577761D01*
X112163523Y-132615857D01*
X112087333Y-132653952D01*
X111782571Y-132653952D01*
X112544476Y-132311095D02*
X112582571Y-132273000D01*
X112658761Y-132234904D01*
X112849238Y-132234904D01*
X112925428Y-132273000D01*
X112963523Y-132311095D01*
X113001619Y-132387285D01*
X113001619Y-132463476D01*
X112963523Y-132577761D01*
X112506380Y-133034904D01*
X113001619Y-133034904D01*
X113687333Y-132234904D02*
X113534952Y-132234904D01*
X113458761Y-132273000D01*
X113420666Y-132311095D01*
X113344476Y-132425380D01*
X113306380Y-132577761D01*
X113306380Y-132882523D01*
X113344476Y-132958714D01*
X113382571Y-132996809D01*
X113458761Y-133034904D01*
X113611142Y-133034904D01*
X113687333Y-132996809D01*
X113725428Y-132958714D01*
X113763523Y-132882523D01*
X113763523Y-132692047D01*
X113725428Y-132615857D01*
X113687333Y-132577761D01*
X113611142Y-132539666D01*
X113458761Y-132539666D01*
X113382571Y-132577761D01*
X113344476Y-132615857D01*
X113306380Y-132692047D01*
G04 #@! TO.C,R27*
D11*
X117302333Y-132405380D02*
X116730904Y-132405380D01*
X117016619Y-132405380D02*
X117016619Y-131405380D01*
X116921380Y-131548238D01*
X116826142Y-131643476D01*
X116730904Y-131691095D01*
X117921380Y-131405380D02*
X118016619Y-131405380D01*
X118111857Y-131453000D01*
X118159476Y-131500619D01*
X118207095Y-131595857D01*
X118254714Y-131786333D01*
X118254714Y-132024428D01*
X118207095Y-132214904D01*
X118159476Y-132310142D01*
X118111857Y-132357761D01*
X118016619Y-132405380D01*
X117921380Y-132405380D01*
X117826142Y-132357761D01*
X117778523Y-132310142D01*
X117730904Y-132214904D01*
X117683285Y-132024428D01*
X117683285Y-131786333D01*
X117730904Y-131595857D01*
X117778523Y-131500619D01*
X117826142Y-131453000D01*
X117921380Y-131405380D01*
X118873761Y-131405380D02*
X118969000Y-131405380D01*
X119064238Y-131453000D01*
X119111857Y-131500619D01*
X119159476Y-131595857D01*
X119207095Y-131786333D01*
X119207095Y-132024428D01*
X119159476Y-132214904D01*
X119111857Y-132310142D01*
X119064238Y-132357761D01*
X118969000Y-132405380D01*
X118873761Y-132405380D01*
X118778523Y-132357761D01*
X118730904Y-132310142D01*
X118683285Y-132214904D01*
X118635666Y-132024428D01*
X118635666Y-131786333D01*
X118683285Y-131595857D01*
X118730904Y-131500619D01*
X118778523Y-131453000D01*
X118873761Y-131405380D01*
X119635666Y-132405380D02*
X119635666Y-131405380D01*
X120207095Y-132405380D02*
X119778523Y-131833952D01*
X120207095Y-131405380D02*
X119635666Y-131976809D01*
D12*
X117954714Y-130494904D02*
X117688047Y-130113952D01*
X117497571Y-130494904D02*
X117497571Y-129694904D01*
X117802333Y-129694904D01*
X117878523Y-129733000D01*
X117916619Y-129771095D01*
X117954714Y-129847285D01*
X117954714Y-129961571D01*
X117916619Y-130037761D01*
X117878523Y-130075857D01*
X117802333Y-130113952D01*
X117497571Y-130113952D01*
X118259476Y-129771095D02*
X118297571Y-129733000D01*
X118373761Y-129694904D01*
X118564238Y-129694904D01*
X118640428Y-129733000D01*
X118678523Y-129771095D01*
X118716619Y-129847285D01*
X118716619Y-129923476D01*
X118678523Y-130037761D01*
X118221380Y-130494904D01*
X118716619Y-130494904D01*
X118983285Y-129694904D02*
X119516619Y-129694904D01*
X119173761Y-130494904D01*
G04 #@! TO.C,R28*
D11*
X117707095Y-128563714D02*
X117707095Y-129230380D01*
X117469000Y-128182761D02*
X117230904Y-128897047D01*
X117849952Y-128897047D01*
X118135666Y-128230380D02*
X118802333Y-128230380D01*
X118373761Y-129230380D01*
X119373761Y-128230380D02*
X119469000Y-128230380D01*
X119564238Y-128278000D01*
X119611857Y-128325619D01*
X119659476Y-128420857D01*
X119707095Y-128611333D01*
X119707095Y-128849428D01*
X119659476Y-129039904D01*
X119611857Y-129135142D01*
X119564238Y-129182761D01*
X119469000Y-129230380D01*
X119373761Y-129230380D01*
X119278523Y-129182761D01*
X119230904Y-129135142D01*
X119183285Y-129039904D01*
X119135666Y-128849428D01*
X119135666Y-128611333D01*
X119183285Y-128420857D01*
X119230904Y-128325619D01*
X119278523Y-128278000D01*
X119373761Y-128230380D01*
D12*
X117954714Y-127319904D02*
X117688047Y-126938952D01*
X117497571Y-127319904D02*
X117497571Y-126519904D01*
X117802333Y-126519904D01*
X117878523Y-126558000D01*
X117916619Y-126596095D01*
X117954714Y-126672285D01*
X117954714Y-126786571D01*
X117916619Y-126862761D01*
X117878523Y-126900857D01*
X117802333Y-126938952D01*
X117497571Y-126938952D01*
X118259476Y-126596095D02*
X118297571Y-126558000D01*
X118373761Y-126519904D01*
X118564238Y-126519904D01*
X118640428Y-126558000D01*
X118678523Y-126596095D01*
X118716619Y-126672285D01*
X118716619Y-126748476D01*
X118678523Y-126862761D01*
X118221380Y-127319904D01*
X118716619Y-127319904D01*
X119173761Y-126862761D02*
X119097571Y-126824666D01*
X119059476Y-126786571D01*
X119021380Y-126710380D01*
X119021380Y-126672285D01*
X119059476Y-126596095D01*
X119097571Y-126558000D01*
X119173761Y-126519904D01*
X119326142Y-126519904D01*
X119402333Y-126558000D01*
X119440428Y-126596095D01*
X119478523Y-126672285D01*
X119478523Y-126710380D01*
X119440428Y-126786571D01*
X119402333Y-126824666D01*
X119326142Y-126862761D01*
X119173761Y-126862761D01*
X119097571Y-126900857D01*
X119059476Y-126938952D01*
X119021380Y-127015142D01*
X119021380Y-127167523D01*
X119059476Y-127243714D01*
X119097571Y-127281809D01*
X119173761Y-127319904D01*
X119326142Y-127319904D01*
X119402333Y-127281809D01*
X119440428Y-127243714D01*
X119478523Y-127167523D01*
X119478523Y-127015142D01*
X119440428Y-126938952D01*
X119402333Y-126900857D01*
X119326142Y-126862761D01*
G04 #@! TO.C,R29*
D11*
X111968285Y-135480619D02*
X112015904Y-135433000D01*
X112111142Y-135385380D01*
X112349238Y-135385380D01*
X112444476Y-135433000D01*
X112492095Y-135480619D01*
X112539714Y-135575857D01*
X112539714Y-135671095D01*
X112492095Y-135813952D01*
X111920666Y-136385380D01*
X112539714Y-136385380D01*
X112968285Y-136385380D02*
X112968285Y-135385380D01*
X113539714Y-136385380D02*
X113111142Y-135813952D01*
X113539714Y-135385380D02*
X112968285Y-135956809D01*
D12*
X112239714Y-138114904D02*
X111973047Y-137733952D01*
X111782571Y-138114904D02*
X111782571Y-137314904D01*
X112087333Y-137314904D01*
X112163523Y-137353000D01*
X112201619Y-137391095D01*
X112239714Y-137467285D01*
X112239714Y-137581571D01*
X112201619Y-137657761D01*
X112163523Y-137695857D01*
X112087333Y-137733952D01*
X111782571Y-137733952D01*
X112544476Y-137391095D02*
X112582571Y-137353000D01*
X112658761Y-137314904D01*
X112849238Y-137314904D01*
X112925428Y-137353000D01*
X112963523Y-137391095D01*
X113001619Y-137467285D01*
X113001619Y-137543476D01*
X112963523Y-137657761D01*
X112506380Y-138114904D01*
X113001619Y-138114904D01*
X113382571Y-138114904D02*
X113534952Y-138114904D01*
X113611142Y-138076809D01*
X113649238Y-138038714D01*
X113725428Y-137924428D01*
X113763523Y-137772047D01*
X113763523Y-137467285D01*
X113725428Y-137391095D01*
X113687333Y-137353000D01*
X113611142Y-137314904D01*
X113458761Y-137314904D01*
X113382571Y-137353000D01*
X113344476Y-137391095D01*
X113306380Y-137467285D01*
X113306380Y-137657761D01*
X113344476Y-137733952D01*
X113382571Y-137772047D01*
X113458761Y-137810142D01*
X113611142Y-137810142D01*
X113687333Y-137772047D01*
X113725428Y-137733952D01*
X113763523Y-137657761D01*
G04 #@! TO.C,R30*
D11*
X123557095Y-129130619D02*
X123604714Y-129083000D01*
X123699952Y-129035380D01*
X123938047Y-129035380D01*
X124033285Y-129083000D01*
X124080904Y-129130619D01*
X124128523Y-129225857D01*
X124128523Y-129321095D01*
X124080904Y-129463952D01*
X123509476Y-130035380D01*
X124128523Y-130035380D01*
X124747571Y-129035380D02*
X124842809Y-129035380D01*
X124938047Y-129083000D01*
X124985666Y-129130619D01*
X125033285Y-129225857D01*
X125080904Y-129416333D01*
X125080904Y-129654428D01*
X125033285Y-129844904D01*
X124985666Y-129940142D01*
X124938047Y-129987761D01*
X124842809Y-130035380D01*
X124747571Y-130035380D01*
X124652333Y-129987761D01*
X124604714Y-129940142D01*
X124557095Y-129844904D01*
X124509476Y-129654428D01*
X124509476Y-129416333D01*
X124557095Y-129225857D01*
X124604714Y-129130619D01*
X124652333Y-129083000D01*
X124747571Y-129035380D01*
X125509476Y-130035380D02*
X125509476Y-129035380D01*
X126080904Y-130035380D02*
X125652333Y-129463952D01*
X126080904Y-129035380D02*
X125509476Y-129606809D01*
D12*
X124304714Y-131764904D02*
X124038047Y-131383952D01*
X123847571Y-131764904D02*
X123847571Y-130964904D01*
X124152333Y-130964904D01*
X124228523Y-131003000D01*
X124266619Y-131041095D01*
X124304714Y-131117285D01*
X124304714Y-131231571D01*
X124266619Y-131307761D01*
X124228523Y-131345857D01*
X124152333Y-131383952D01*
X123847571Y-131383952D01*
X124571380Y-130964904D02*
X125066619Y-130964904D01*
X124799952Y-131269666D01*
X124914238Y-131269666D01*
X124990428Y-131307761D01*
X125028523Y-131345857D01*
X125066619Y-131422047D01*
X125066619Y-131612523D01*
X125028523Y-131688714D01*
X124990428Y-131726809D01*
X124914238Y-131764904D01*
X124685666Y-131764904D01*
X124609476Y-131726809D01*
X124571380Y-131688714D01*
X125561857Y-130964904D02*
X125638047Y-130964904D01*
X125714238Y-131003000D01*
X125752333Y-131041095D01*
X125790428Y-131117285D01*
X125828523Y-131269666D01*
X125828523Y-131460142D01*
X125790428Y-131612523D01*
X125752333Y-131688714D01*
X125714238Y-131726809D01*
X125638047Y-131764904D01*
X125561857Y-131764904D01*
X125485666Y-131726809D01*
X125447571Y-131688714D01*
X125409476Y-131612523D01*
X125371380Y-131460142D01*
X125371380Y-131269666D01*
X125409476Y-131117285D01*
X125447571Y-131041095D01*
X125485666Y-131003000D01*
X125561857Y-130964904D01*
G04 #@! TO.C,R31*
D11*
X127361380Y-136522523D02*
X127361380Y-135903476D01*
X127742333Y-136236809D01*
X127742333Y-136093952D01*
X127789952Y-135998714D01*
X127837571Y-135951095D01*
X127932809Y-135903476D01*
X128170904Y-135903476D01*
X128266142Y-135951095D01*
X128313761Y-135998714D01*
X128361380Y-136093952D01*
X128361380Y-136379666D01*
X128313761Y-136474904D01*
X128266142Y-136522523D01*
X127361380Y-135284428D02*
X127361380Y-135189190D01*
X127409000Y-135093952D01*
X127456619Y-135046333D01*
X127551857Y-134998714D01*
X127742333Y-134951095D01*
X127980428Y-134951095D01*
X128170904Y-134998714D01*
X128266142Y-135046333D01*
X128313761Y-135093952D01*
X128361380Y-135189190D01*
X128361380Y-135284428D01*
X128313761Y-135379666D01*
X128266142Y-135427285D01*
X128170904Y-135474904D01*
X127980428Y-135522523D01*
X127742333Y-135522523D01*
X127551857Y-135474904D01*
X127456619Y-135427285D01*
X127409000Y-135379666D01*
X127361380Y-135284428D01*
X128361380Y-134522523D02*
X127361380Y-134522523D01*
X128361380Y-133951095D02*
X127789952Y-134379666D01*
X127361380Y-133951095D02*
X127932809Y-134522523D01*
D12*
X126450904Y-135727285D02*
X126069952Y-135993952D01*
X126450904Y-136184428D02*
X125650904Y-136184428D01*
X125650904Y-135879666D01*
X125689000Y-135803476D01*
X125727095Y-135765380D01*
X125803285Y-135727285D01*
X125917571Y-135727285D01*
X125993761Y-135765380D01*
X126031857Y-135803476D01*
X126069952Y-135879666D01*
X126069952Y-136184428D01*
X125650904Y-135460619D02*
X125650904Y-134965380D01*
X125955666Y-135232047D01*
X125955666Y-135117761D01*
X125993761Y-135041571D01*
X126031857Y-135003476D01*
X126108047Y-134965380D01*
X126298523Y-134965380D01*
X126374714Y-135003476D01*
X126412809Y-135041571D01*
X126450904Y-135117761D01*
X126450904Y-135346333D01*
X126412809Y-135422523D01*
X126374714Y-135460619D01*
X126450904Y-134203476D02*
X126450904Y-134660619D01*
X126450904Y-134432047D02*
X125650904Y-134432047D01*
X125765190Y-134508238D01*
X125841380Y-134584428D01*
X125879476Y-134660619D01*
G04 #@! TO.C,R33*
D11*
X111587333Y-128765380D02*
X111015904Y-128765380D01*
X111301619Y-128765380D02*
X111301619Y-127765380D01*
X111206380Y-127908238D01*
X111111142Y-128003476D01*
X111015904Y-128051095D01*
X112206380Y-127765380D02*
X112301619Y-127765380D01*
X112396857Y-127813000D01*
X112444476Y-127860619D01*
X112492095Y-127955857D01*
X112539714Y-128146333D01*
X112539714Y-128384428D01*
X112492095Y-128574904D01*
X112444476Y-128670142D01*
X112396857Y-128717761D01*
X112301619Y-128765380D01*
X112206380Y-128765380D01*
X112111142Y-128717761D01*
X112063523Y-128670142D01*
X112015904Y-128574904D01*
X111968285Y-128384428D01*
X111968285Y-128146333D01*
X112015904Y-127955857D01*
X112063523Y-127860619D01*
X112111142Y-127813000D01*
X112206380Y-127765380D01*
X113158761Y-127765380D02*
X113254000Y-127765380D01*
X113349238Y-127813000D01*
X113396857Y-127860619D01*
X113444476Y-127955857D01*
X113492095Y-128146333D01*
X113492095Y-128384428D01*
X113444476Y-128574904D01*
X113396857Y-128670142D01*
X113349238Y-128717761D01*
X113254000Y-128765380D01*
X113158761Y-128765380D01*
X113063523Y-128717761D01*
X113015904Y-128670142D01*
X112968285Y-128574904D01*
X112920666Y-128384428D01*
X112920666Y-128146333D01*
X112968285Y-127955857D01*
X113015904Y-127860619D01*
X113063523Y-127813000D01*
X113158761Y-127765380D01*
X113920666Y-128765380D02*
X113920666Y-127765380D01*
X114492095Y-128765380D02*
X114063523Y-128193952D01*
X114492095Y-127765380D02*
X113920666Y-128336809D01*
D12*
X112239714Y-130494904D02*
X111973047Y-130113952D01*
X111782571Y-130494904D02*
X111782571Y-129694904D01*
X112087333Y-129694904D01*
X112163523Y-129733000D01*
X112201619Y-129771095D01*
X112239714Y-129847285D01*
X112239714Y-129961571D01*
X112201619Y-130037761D01*
X112163523Y-130075857D01*
X112087333Y-130113952D01*
X111782571Y-130113952D01*
X112506380Y-129694904D02*
X113001619Y-129694904D01*
X112734952Y-129999666D01*
X112849238Y-129999666D01*
X112925428Y-130037761D01*
X112963523Y-130075857D01*
X113001619Y-130152047D01*
X113001619Y-130342523D01*
X112963523Y-130418714D01*
X112925428Y-130456809D01*
X112849238Y-130494904D01*
X112620666Y-130494904D01*
X112544476Y-130456809D01*
X112506380Y-130418714D01*
X113268285Y-129694904D02*
X113763523Y-129694904D01*
X113496857Y-129999666D01*
X113611142Y-129999666D01*
X113687333Y-130037761D01*
X113725428Y-130075857D01*
X113763523Y-130152047D01*
X113763523Y-130342523D01*
X113725428Y-130418714D01*
X113687333Y-130456809D01*
X113611142Y-130494904D01*
X113382571Y-130494904D01*
X113306380Y-130456809D01*
X113268285Y-130418714D01*
G04 #@! TO.C,R34*
D11*
X128361380Y-141459666D02*
X128361380Y-142031095D01*
X128361380Y-141745380D02*
X127361380Y-141745380D01*
X127504238Y-141840619D01*
X127599476Y-141935857D01*
X127647095Y-142031095D01*
X127456619Y-141078714D02*
X127409000Y-141031095D01*
X127361380Y-140935857D01*
X127361380Y-140697761D01*
X127409000Y-140602523D01*
X127456619Y-140554904D01*
X127551857Y-140507285D01*
X127647095Y-140507285D01*
X127789952Y-140554904D01*
X128361380Y-141126333D01*
X128361380Y-140507285D01*
X127361380Y-139888238D02*
X127361380Y-139793000D01*
X127409000Y-139697761D01*
X127456619Y-139650142D01*
X127551857Y-139602523D01*
X127742333Y-139554904D01*
X127980428Y-139554904D01*
X128170904Y-139602523D01*
X128266142Y-139650142D01*
X128313761Y-139697761D01*
X128361380Y-139793000D01*
X128361380Y-139888238D01*
X128313761Y-139983476D01*
X128266142Y-140031095D01*
X128170904Y-140078714D01*
X127980428Y-140126333D01*
X127742333Y-140126333D01*
X127551857Y-140078714D01*
X127456619Y-140031095D01*
X127409000Y-139983476D01*
X127361380Y-139888238D01*
X128361380Y-139126333D02*
X127361380Y-139126333D01*
X128361380Y-138554904D02*
X127789952Y-138983476D01*
X127361380Y-138554904D02*
X127932809Y-139126333D01*
D12*
X126450904Y-140807285D02*
X126069952Y-141073952D01*
X126450904Y-141264428D02*
X125650904Y-141264428D01*
X125650904Y-140959666D01*
X125689000Y-140883476D01*
X125727095Y-140845380D01*
X125803285Y-140807285D01*
X125917571Y-140807285D01*
X125993761Y-140845380D01*
X126031857Y-140883476D01*
X126069952Y-140959666D01*
X126069952Y-141264428D01*
X125650904Y-140540619D02*
X125650904Y-140045380D01*
X125955666Y-140312047D01*
X125955666Y-140197761D01*
X125993761Y-140121571D01*
X126031857Y-140083476D01*
X126108047Y-140045380D01*
X126298523Y-140045380D01*
X126374714Y-140083476D01*
X126412809Y-140121571D01*
X126450904Y-140197761D01*
X126450904Y-140426333D01*
X126412809Y-140502523D01*
X126374714Y-140540619D01*
X125917571Y-139359666D02*
X126450904Y-139359666D01*
X125612809Y-139550142D02*
X126184238Y-139740619D01*
X126184238Y-139245380D01*
G04 #@! TO.C,R35*
D11*
X134167119Y-126314904D02*
X134119500Y-126267285D01*
X134071880Y-126172047D01*
X134071880Y-125933952D01*
X134119500Y-125838714D01*
X134167119Y-125791095D01*
X134262357Y-125743476D01*
X134357595Y-125743476D01*
X134500452Y-125791095D01*
X135071880Y-126362523D01*
X135071880Y-125743476D01*
X134071880Y-125124428D02*
X134071880Y-125029190D01*
X134119500Y-124933952D01*
X134167119Y-124886333D01*
X134262357Y-124838714D01*
X134452833Y-124791095D01*
X134690928Y-124791095D01*
X134881404Y-124838714D01*
X134976642Y-124886333D01*
X135024261Y-124933952D01*
X135071880Y-125029190D01*
X135071880Y-125124428D01*
X135024261Y-125219666D01*
X134976642Y-125267285D01*
X134881404Y-125314904D01*
X134690928Y-125362523D01*
X134452833Y-125362523D01*
X134262357Y-125314904D01*
X134167119Y-125267285D01*
X134119500Y-125219666D01*
X134071880Y-125124428D01*
X135071880Y-124362523D02*
X134071880Y-124362523D01*
X135071880Y-123791095D02*
X134500452Y-124219666D01*
X134071880Y-123791095D02*
X134643309Y-124362523D01*
D12*
X136801404Y-125567285D02*
X136420452Y-125833952D01*
X136801404Y-126024428D02*
X136001404Y-126024428D01*
X136001404Y-125719666D01*
X136039500Y-125643476D01*
X136077595Y-125605380D01*
X136153785Y-125567285D01*
X136268071Y-125567285D01*
X136344261Y-125605380D01*
X136382357Y-125643476D01*
X136420452Y-125719666D01*
X136420452Y-126024428D01*
X136001404Y-125300619D02*
X136001404Y-124805380D01*
X136306166Y-125072047D01*
X136306166Y-124957761D01*
X136344261Y-124881571D01*
X136382357Y-124843476D01*
X136458547Y-124805380D01*
X136649023Y-124805380D01*
X136725214Y-124843476D01*
X136763309Y-124881571D01*
X136801404Y-124957761D01*
X136801404Y-125186333D01*
X136763309Y-125262523D01*
X136725214Y-125300619D01*
X136001404Y-124081571D02*
X136001404Y-124462523D01*
X136382357Y-124500619D01*
X136344261Y-124462523D01*
X136306166Y-124386333D01*
X136306166Y-124195857D01*
X136344261Y-124119666D01*
X136382357Y-124081571D01*
X136458547Y-124043476D01*
X136649023Y-124043476D01*
X136725214Y-124081571D01*
X136763309Y-124119666D01*
X136801404Y-124195857D01*
X136801404Y-124386333D01*
X136763309Y-124462523D01*
X136725214Y-124500619D01*
G04 #@! TO.C,R36*
D11*
X117302333Y-134945380D02*
X116730904Y-134945380D01*
X117016619Y-134945380D02*
X117016619Y-133945380D01*
X116921380Y-134088238D01*
X116826142Y-134183476D01*
X116730904Y-134231095D01*
X117921380Y-133945380D02*
X118016619Y-133945380D01*
X118111857Y-133993000D01*
X118159476Y-134040619D01*
X118207095Y-134135857D01*
X118254714Y-134326333D01*
X118254714Y-134564428D01*
X118207095Y-134754904D01*
X118159476Y-134850142D01*
X118111857Y-134897761D01*
X118016619Y-134945380D01*
X117921380Y-134945380D01*
X117826142Y-134897761D01*
X117778523Y-134850142D01*
X117730904Y-134754904D01*
X117683285Y-134564428D01*
X117683285Y-134326333D01*
X117730904Y-134135857D01*
X117778523Y-134040619D01*
X117826142Y-133993000D01*
X117921380Y-133945380D01*
X118873761Y-133945380D02*
X118969000Y-133945380D01*
X119064238Y-133993000D01*
X119111857Y-134040619D01*
X119159476Y-134135857D01*
X119207095Y-134326333D01*
X119207095Y-134564428D01*
X119159476Y-134754904D01*
X119111857Y-134850142D01*
X119064238Y-134897761D01*
X118969000Y-134945380D01*
X118873761Y-134945380D01*
X118778523Y-134897761D01*
X118730904Y-134850142D01*
X118683285Y-134754904D01*
X118635666Y-134564428D01*
X118635666Y-134326333D01*
X118683285Y-134135857D01*
X118730904Y-134040619D01*
X118778523Y-133993000D01*
X118873761Y-133945380D01*
X119635666Y-134945380D02*
X119635666Y-133945380D01*
X120207095Y-134945380D02*
X119778523Y-134373952D01*
X120207095Y-133945380D02*
X119635666Y-134516809D01*
D12*
X117954714Y-133034904D02*
X117688047Y-132653952D01*
X117497571Y-133034904D02*
X117497571Y-132234904D01*
X117802333Y-132234904D01*
X117878523Y-132273000D01*
X117916619Y-132311095D01*
X117954714Y-132387285D01*
X117954714Y-132501571D01*
X117916619Y-132577761D01*
X117878523Y-132615857D01*
X117802333Y-132653952D01*
X117497571Y-132653952D01*
X118221380Y-132234904D02*
X118716619Y-132234904D01*
X118449952Y-132539666D01*
X118564238Y-132539666D01*
X118640428Y-132577761D01*
X118678523Y-132615857D01*
X118716619Y-132692047D01*
X118716619Y-132882523D01*
X118678523Y-132958714D01*
X118640428Y-132996809D01*
X118564238Y-133034904D01*
X118335666Y-133034904D01*
X118259476Y-132996809D01*
X118221380Y-132958714D01*
X119402333Y-132234904D02*
X119249952Y-132234904D01*
X119173761Y-132273000D01*
X119135666Y-132311095D01*
X119059476Y-132425380D01*
X119021380Y-132577761D01*
X119021380Y-132882523D01*
X119059476Y-132958714D01*
X119097571Y-132996809D01*
X119173761Y-133034904D01*
X119326142Y-133034904D01*
X119402333Y-132996809D01*
X119440428Y-132958714D01*
X119478523Y-132882523D01*
X119478523Y-132692047D01*
X119440428Y-132615857D01*
X119402333Y-132577761D01*
X119326142Y-132539666D01*
X119173761Y-132539666D01*
X119097571Y-132577761D01*
X119059476Y-132615857D01*
X119021380Y-132692047D01*
G04 #@! TO.C,R37*
D11*
X117683285Y-132940619D02*
X117730904Y-132893000D01*
X117826142Y-132845380D01*
X118064238Y-132845380D01*
X118159476Y-132893000D01*
X118207095Y-132940619D01*
X118254714Y-133035857D01*
X118254714Y-133131095D01*
X118207095Y-133273952D01*
X117635666Y-133845380D01*
X118254714Y-133845380D01*
X118683285Y-133845380D02*
X118683285Y-132845380D01*
X119254714Y-133845380D02*
X118826142Y-133273952D01*
X119254714Y-132845380D02*
X118683285Y-133416809D01*
D12*
X117954714Y-135574904D02*
X117688047Y-135193952D01*
X117497571Y-135574904D02*
X117497571Y-134774904D01*
X117802333Y-134774904D01*
X117878523Y-134813000D01*
X117916619Y-134851095D01*
X117954714Y-134927285D01*
X117954714Y-135041571D01*
X117916619Y-135117761D01*
X117878523Y-135155857D01*
X117802333Y-135193952D01*
X117497571Y-135193952D01*
X118221380Y-134774904D02*
X118716619Y-134774904D01*
X118449952Y-135079666D01*
X118564238Y-135079666D01*
X118640428Y-135117761D01*
X118678523Y-135155857D01*
X118716619Y-135232047D01*
X118716619Y-135422523D01*
X118678523Y-135498714D01*
X118640428Y-135536809D01*
X118564238Y-135574904D01*
X118335666Y-135574904D01*
X118259476Y-135536809D01*
X118221380Y-135498714D01*
X118983285Y-134774904D02*
X119516619Y-134774904D01*
X119173761Y-135574904D01*
G04 #@! TO.C,R38*
D11*
X148014714Y-135601809D02*
X148681380Y-135601809D01*
X147633761Y-135839904D02*
X148348047Y-136078000D01*
X148348047Y-135458952D01*
X148586142Y-135078000D02*
X148633761Y-135030380D01*
X148681380Y-135078000D01*
X148633761Y-135125619D01*
X148586142Y-135078000D01*
X148681380Y-135078000D01*
X147681380Y-134697047D02*
X147681380Y-134030380D01*
X148681380Y-134458952D01*
X148681380Y-133649428D02*
X147681380Y-133649428D01*
X148681380Y-133078000D02*
X148109952Y-133506571D01*
X147681380Y-133078000D02*
X148252809Y-133649428D01*
D12*
X146770904Y-135092285D02*
X146389952Y-135358952D01*
X146770904Y-135549428D02*
X145970904Y-135549428D01*
X145970904Y-135244666D01*
X146009000Y-135168476D01*
X146047095Y-135130380D01*
X146123285Y-135092285D01*
X146237571Y-135092285D01*
X146313761Y-135130380D01*
X146351857Y-135168476D01*
X146389952Y-135244666D01*
X146389952Y-135549428D01*
X145970904Y-134825619D02*
X145970904Y-134330380D01*
X146275666Y-134597047D01*
X146275666Y-134482761D01*
X146313761Y-134406571D01*
X146351857Y-134368476D01*
X146428047Y-134330380D01*
X146618523Y-134330380D01*
X146694714Y-134368476D01*
X146732809Y-134406571D01*
X146770904Y-134482761D01*
X146770904Y-134711333D01*
X146732809Y-134787523D01*
X146694714Y-134825619D01*
X146313761Y-133873238D02*
X146275666Y-133949428D01*
X146237571Y-133987523D01*
X146161380Y-134025619D01*
X146123285Y-134025619D01*
X146047095Y-133987523D01*
X146009000Y-133949428D01*
X145970904Y-133873238D01*
X145970904Y-133720857D01*
X146009000Y-133644666D01*
X146047095Y-133606571D01*
X146123285Y-133568476D01*
X146161380Y-133568476D01*
X146237571Y-133606571D01*
X146275666Y-133644666D01*
X146313761Y-133720857D01*
X146313761Y-133873238D01*
X146351857Y-133949428D01*
X146389952Y-133987523D01*
X146466142Y-134025619D01*
X146618523Y-134025619D01*
X146694714Y-133987523D01*
X146732809Y-133949428D01*
X146770904Y-133873238D01*
X146770904Y-133720857D01*
X146732809Y-133644666D01*
X146694714Y-133606571D01*
X146618523Y-133568476D01*
X146466142Y-133568476D01*
X146389952Y-133606571D01*
X146351857Y-133644666D01*
X146313761Y-133720857D01*
G04 #@! TO.C,R39*
D11*
X139961380Y-134792285D02*
X139961380Y-135363714D01*
X139961380Y-135078000D02*
X138961380Y-135078000D01*
X139104238Y-135173238D01*
X139199476Y-135268476D01*
X139247095Y-135363714D01*
X139961380Y-134363714D02*
X138961380Y-134363714D01*
X139961380Y-133792285D02*
X139389952Y-134220857D01*
X138961380Y-133792285D02*
X139532809Y-134363714D01*
D12*
X141690904Y-135092285D02*
X141309952Y-135358952D01*
X141690904Y-135549428D02*
X140890904Y-135549428D01*
X140890904Y-135244666D01*
X140929000Y-135168476D01*
X140967095Y-135130380D01*
X141043285Y-135092285D01*
X141157571Y-135092285D01*
X141233761Y-135130380D01*
X141271857Y-135168476D01*
X141309952Y-135244666D01*
X141309952Y-135549428D01*
X140890904Y-134825619D02*
X140890904Y-134330380D01*
X141195666Y-134597047D01*
X141195666Y-134482761D01*
X141233761Y-134406571D01*
X141271857Y-134368476D01*
X141348047Y-134330380D01*
X141538523Y-134330380D01*
X141614714Y-134368476D01*
X141652809Y-134406571D01*
X141690904Y-134482761D01*
X141690904Y-134711333D01*
X141652809Y-134787523D01*
X141614714Y-134825619D01*
X141690904Y-133949428D02*
X141690904Y-133797047D01*
X141652809Y-133720857D01*
X141614714Y-133682761D01*
X141500428Y-133606571D01*
X141348047Y-133568476D01*
X141043285Y-133568476D01*
X140967095Y-133606571D01*
X140929000Y-133644666D01*
X140890904Y-133720857D01*
X140890904Y-133873238D01*
X140929000Y-133949428D01*
X140967095Y-133987523D01*
X141043285Y-134025619D01*
X141233761Y-134025619D01*
X141309952Y-133987523D01*
X141348047Y-133949428D01*
X141386142Y-133873238D01*
X141386142Y-133720857D01*
X141348047Y-133644666D01*
X141309952Y-133606571D01*
X141233761Y-133568476D01*
G04 #@! TO.C,R40*
D11*
X151221380Y-135744666D02*
X151221380Y-136316095D01*
X151221380Y-136030380D02*
X150221380Y-136030380D01*
X150364238Y-136125619D01*
X150459476Y-136220857D01*
X150507095Y-136316095D01*
X150221380Y-135125619D02*
X150221380Y-135030380D01*
X150269000Y-134935142D01*
X150316619Y-134887523D01*
X150411857Y-134839904D01*
X150602333Y-134792285D01*
X150840428Y-134792285D01*
X151030904Y-134839904D01*
X151126142Y-134887523D01*
X151173761Y-134935142D01*
X151221380Y-135030380D01*
X151221380Y-135125619D01*
X151173761Y-135220857D01*
X151126142Y-135268476D01*
X151030904Y-135316095D01*
X150840428Y-135363714D01*
X150602333Y-135363714D01*
X150411857Y-135316095D01*
X150316619Y-135268476D01*
X150269000Y-135220857D01*
X150221380Y-135125619D01*
X150221380Y-134173238D02*
X150221380Y-134078000D01*
X150269000Y-133982761D01*
X150316619Y-133935142D01*
X150411857Y-133887523D01*
X150602333Y-133839904D01*
X150840428Y-133839904D01*
X151030904Y-133887523D01*
X151126142Y-133935142D01*
X151173761Y-133982761D01*
X151221380Y-134078000D01*
X151221380Y-134173238D01*
X151173761Y-134268476D01*
X151126142Y-134316095D01*
X151030904Y-134363714D01*
X150840428Y-134411333D01*
X150602333Y-134411333D01*
X150411857Y-134363714D01*
X150316619Y-134316095D01*
X150269000Y-134268476D01*
X150221380Y-134173238D01*
X151221380Y-133411333D02*
X150221380Y-133411333D01*
X151221380Y-132839904D02*
X150649952Y-133268476D01*
X150221380Y-132839904D02*
X150792809Y-133411333D01*
D12*
X149310904Y-135092285D02*
X148929952Y-135358952D01*
X149310904Y-135549428D02*
X148510904Y-135549428D01*
X148510904Y-135244666D01*
X148549000Y-135168476D01*
X148587095Y-135130380D01*
X148663285Y-135092285D01*
X148777571Y-135092285D01*
X148853761Y-135130380D01*
X148891857Y-135168476D01*
X148929952Y-135244666D01*
X148929952Y-135549428D01*
X148777571Y-134406571D02*
X149310904Y-134406571D01*
X148472809Y-134597047D02*
X149044238Y-134787523D01*
X149044238Y-134292285D01*
X148510904Y-133835142D02*
X148510904Y-133758952D01*
X148549000Y-133682761D01*
X148587095Y-133644666D01*
X148663285Y-133606571D01*
X148815666Y-133568476D01*
X149006142Y-133568476D01*
X149158523Y-133606571D01*
X149234714Y-133644666D01*
X149272809Y-133682761D01*
X149310904Y-133758952D01*
X149310904Y-133835142D01*
X149272809Y-133911333D01*
X149234714Y-133949428D01*
X149158523Y-133987523D01*
X149006142Y-134025619D01*
X148815666Y-134025619D01*
X148663285Y-133987523D01*
X148587095Y-133949428D01*
X148549000Y-133911333D01*
X148510904Y-133835142D01*
G04 #@! TO.C,R42*
D11*
X131772333Y-131770380D02*
X131200904Y-131770380D01*
X131486619Y-131770380D02*
X131486619Y-130770380D01*
X131391380Y-130913238D01*
X131296142Y-131008476D01*
X131200904Y-131056095D01*
X132677095Y-130770380D02*
X132200904Y-130770380D01*
X132153285Y-131246571D01*
X132200904Y-131198952D01*
X132296142Y-131151333D01*
X132534238Y-131151333D01*
X132629476Y-131198952D01*
X132677095Y-131246571D01*
X132724714Y-131341809D01*
X132724714Y-131579904D01*
X132677095Y-131675142D01*
X132629476Y-131722761D01*
X132534238Y-131770380D01*
X132296142Y-131770380D01*
X132200904Y-131722761D01*
X132153285Y-131675142D01*
X133343761Y-130770380D02*
X133439000Y-130770380D01*
X133534238Y-130818000D01*
X133581857Y-130865619D01*
X133629476Y-130960857D01*
X133677095Y-131151333D01*
X133677095Y-131389428D01*
X133629476Y-131579904D01*
X133581857Y-131675142D01*
X133534238Y-131722761D01*
X133439000Y-131770380D01*
X133343761Y-131770380D01*
X133248523Y-131722761D01*
X133200904Y-131675142D01*
X133153285Y-131579904D01*
X133105666Y-131389428D01*
X133105666Y-131151333D01*
X133153285Y-130960857D01*
X133200904Y-130865619D01*
X133248523Y-130818000D01*
X133343761Y-130770380D01*
D12*
X131924714Y-129859904D02*
X131658047Y-129478952D01*
X131467571Y-129859904D02*
X131467571Y-129059904D01*
X131772333Y-129059904D01*
X131848523Y-129098000D01*
X131886619Y-129136095D01*
X131924714Y-129212285D01*
X131924714Y-129326571D01*
X131886619Y-129402761D01*
X131848523Y-129440857D01*
X131772333Y-129478952D01*
X131467571Y-129478952D01*
X132610428Y-129326571D02*
X132610428Y-129859904D01*
X132419952Y-129021809D02*
X132229476Y-129593238D01*
X132724714Y-129593238D01*
X132991380Y-129136095D02*
X133029476Y-129098000D01*
X133105666Y-129059904D01*
X133296142Y-129059904D01*
X133372333Y-129098000D01*
X133410428Y-129136095D01*
X133448523Y-129212285D01*
X133448523Y-129288476D01*
X133410428Y-129402761D01*
X132953285Y-129859904D01*
X133448523Y-129859904D01*
G04 #@! TO.C,R43*
D11*
X145782095Y-136353714D02*
X145782095Y-137020380D01*
X145544000Y-135972761D02*
X145305904Y-136687047D01*
X145924952Y-136687047D01*
X146210666Y-136020380D02*
X146877333Y-136020380D01*
X146448761Y-137020380D01*
X147448761Y-136020380D02*
X147544000Y-136020380D01*
X147639238Y-136068000D01*
X147686857Y-136115619D01*
X147734476Y-136210857D01*
X147782095Y-136401333D01*
X147782095Y-136639428D01*
X147734476Y-136829904D01*
X147686857Y-136925142D01*
X147639238Y-136972761D01*
X147544000Y-137020380D01*
X147448761Y-137020380D01*
X147353523Y-136972761D01*
X147305904Y-136925142D01*
X147258285Y-136829904D01*
X147210666Y-136639428D01*
X147210666Y-136401333D01*
X147258285Y-136210857D01*
X147305904Y-136115619D01*
X147353523Y-136068000D01*
X147448761Y-136020380D01*
X148210666Y-137020380D02*
X148210666Y-136020380D01*
X148782095Y-137020380D02*
X148353523Y-136448952D01*
X148782095Y-136020380D02*
X148210666Y-136591809D01*
D12*
X146529714Y-138749904D02*
X146263047Y-138368952D01*
X146072571Y-138749904D02*
X146072571Y-137949904D01*
X146377333Y-137949904D01*
X146453523Y-137988000D01*
X146491619Y-138026095D01*
X146529714Y-138102285D01*
X146529714Y-138216571D01*
X146491619Y-138292761D01*
X146453523Y-138330857D01*
X146377333Y-138368952D01*
X146072571Y-138368952D01*
X147215428Y-138216571D02*
X147215428Y-138749904D01*
X147024952Y-137911809D02*
X146834476Y-138483238D01*
X147329714Y-138483238D01*
X147558285Y-137949904D02*
X148053523Y-137949904D01*
X147786857Y-138254666D01*
X147901142Y-138254666D01*
X147977333Y-138292761D01*
X148015428Y-138330857D01*
X148053523Y-138407047D01*
X148053523Y-138597523D01*
X148015428Y-138673714D01*
X147977333Y-138711809D01*
X147901142Y-138749904D01*
X147672571Y-138749904D01*
X147596380Y-138711809D01*
X147558285Y-138673714D01*
G04 #@! TO.C,R44*
D11*
X146258285Y-142533714D02*
X146258285Y-143200380D01*
X146020190Y-142152761D02*
X145782095Y-142867047D01*
X146401142Y-142867047D01*
X146686857Y-142200380D02*
X147353523Y-142200380D01*
X146924952Y-143200380D01*
X147734476Y-143200380D02*
X147734476Y-142200380D01*
X148305904Y-143200380D02*
X147877333Y-142628952D01*
X148305904Y-142200380D02*
X147734476Y-142771809D01*
D12*
X146529714Y-141289904D02*
X146263047Y-140908952D01*
X146072571Y-141289904D02*
X146072571Y-140489904D01*
X146377333Y-140489904D01*
X146453523Y-140528000D01*
X146491619Y-140566095D01*
X146529714Y-140642285D01*
X146529714Y-140756571D01*
X146491619Y-140832761D01*
X146453523Y-140870857D01*
X146377333Y-140908952D01*
X146072571Y-140908952D01*
X147215428Y-140756571D02*
X147215428Y-141289904D01*
X147024952Y-140451809D02*
X146834476Y-141023238D01*
X147329714Y-141023238D01*
X147977333Y-140756571D02*
X147977333Y-141289904D01*
X147786857Y-140451809D02*
X147596380Y-141023238D01*
X148091619Y-141023238D01*
G04 #@! TO.C,R46*
D11*
X142231619Y-152580142D02*
X142184000Y-152532523D01*
X142136380Y-152437285D01*
X142136380Y-152199190D01*
X142184000Y-152103952D01*
X142231619Y-152056333D01*
X142326857Y-152008714D01*
X142422095Y-152008714D01*
X142564952Y-152056333D01*
X143136380Y-152627761D01*
X143136380Y-152008714D01*
X143136380Y-151580142D02*
X142136380Y-151580142D01*
X142850666Y-151246809D01*
X142136380Y-150913476D01*
X143136380Y-150913476D01*
D12*
X144865904Y-152237285D02*
X144484952Y-152503952D01*
X144865904Y-152694428D02*
X144065904Y-152694428D01*
X144065904Y-152389666D01*
X144104000Y-152313476D01*
X144142095Y-152275380D01*
X144218285Y-152237285D01*
X144332571Y-152237285D01*
X144408761Y-152275380D01*
X144446857Y-152313476D01*
X144484952Y-152389666D01*
X144484952Y-152694428D01*
X144332571Y-151551571D02*
X144865904Y-151551571D01*
X144027809Y-151742047D02*
X144599238Y-151932523D01*
X144599238Y-151437285D01*
X144065904Y-150789666D02*
X144065904Y-150942047D01*
X144104000Y-151018238D01*
X144142095Y-151056333D01*
X144256380Y-151132523D01*
X144408761Y-151170619D01*
X144713523Y-151170619D01*
X144789714Y-151132523D01*
X144827809Y-151094428D01*
X144865904Y-151018238D01*
X144865904Y-150865857D01*
X144827809Y-150789666D01*
X144789714Y-150751571D01*
X144713523Y-150713476D01*
X144523047Y-150713476D01*
X144446857Y-150751571D01*
X144408761Y-150789666D01*
X144370666Y-150865857D01*
X144370666Y-151018238D01*
X144408761Y-151094428D01*
X144446857Y-151132523D01*
X144523047Y-151170619D01*
G04 #@! TO.C,R48*
D11*
X145236619Y-135435142D02*
X145189000Y-135387523D01*
X145141380Y-135292285D01*
X145141380Y-135054190D01*
X145189000Y-134958952D01*
X145236619Y-134911333D01*
X145331857Y-134863714D01*
X145427095Y-134863714D01*
X145569952Y-134911333D01*
X146141380Y-135482761D01*
X146141380Y-134863714D01*
X146141380Y-134435142D02*
X145141380Y-134435142D01*
X145855666Y-134101809D01*
X145141380Y-133768476D01*
X146141380Y-133768476D01*
D12*
X144230904Y-135092285D02*
X143849952Y-135358952D01*
X144230904Y-135549428D02*
X143430904Y-135549428D01*
X143430904Y-135244666D01*
X143469000Y-135168476D01*
X143507095Y-135130380D01*
X143583285Y-135092285D01*
X143697571Y-135092285D01*
X143773761Y-135130380D01*
X143811857Y-135168476D01*
X143849952Y-135244666D01*
X143849952Y-135549428D01*
X143697571Y-134406571D02*
X144230904Y-134406571D01*
X143392809Y-134597047D02*
X143964238Y-134787523D01*
X143964238Y-134292285D01*
X143773761Y-133873238D02*
X143735666Y-133949428D01*
X143697571Y-133987523D01*
X143621380Y-134025619D01*
X143583285Y-134025619D01*
X143507095Y-133987523D01*
X143469000Y-133949428D01*
X143430904Y-133873238D01*
X143430904Y-133720857D01*
X143469000Y-133644666D01*
X143507095Y-133606571D01*
X143583285Y-133568476D01*
X143621380Y-133568476D01*
X143697571Y-133606571D01*
X143735666Y-133644666D01*
X143773761Y-133720857D01*
X143773761Y-133873238D01*
X143811857Y-133949428D01*
X143849952Y-133987523D01*
X143926142Y-134025619D01*
X144078523Y-134025619D01*
X144154714Y-133987523D01*
X144192809Y-133949428D01*
X144230904Y-133873238D01*
X144230904Y-133720857D01*
X144192809Y-133644666D01*
X144154714Y-133606571D01*
X144078523Y-133568476D01*
X143926142Y-133568476D01*
X143849952Y-133606571D01*
X143811857Y-133644666D01*
X143773761Y-133720857D01*
G04 #@! TO.C,RV18*
D11*
X135576619Y-152508714D02*
X135529000Y-152461095D01*
X135481380Y-152365857D01*
X135481380Y-152127761D01*
X135529000Y-152032523D01*
X135576619Y-151984904D01*
X135671857Y-151937285D01*
X135767095Y-151937285D01*
X135909952Y-151984904D01*
X136481380Y-152556333D01*
X136481380Y-151937285D01*
X136481380Y-151508714D02*
X135481380Y-151508714D01*
X136481380Y-150937285D02*
X135909952Y-151365857D01*
X135481380Y-150937285D02*
X136052809Y-151508714D01*
X132945190Y-153318714D02*
X132507095Y-153625380D01*
X132945190Y-153844428D02*
X132025190Y-153844428D01*
X132025190Y-153493952D01*
X132069000Y-153406333D01*
X132112809Y-153362523D01*
X132200428Y-153318714D01*
X132331857Y-153318714D01*
X132419476Y-153362523D01*
X132463285Y-153406333D01*
X132507095Y-153493952D01*
X132507095Y-153844428D01*
X132025190Y-153055857D02*
X132945190Y-152749190D01*
X132025190Y-152442523D01*
X132945190Y-151653952D02*
X132945190Y-152179666D01*
X132945190Y-151916809D02*
X132025190Y-151916809D01*
X132156619Y-152004428D01*
X132244238Y-152092047D01*
X132288047Y-152179666D01*
X132419476Y-151128238D02*
X132375666Y-151215857D01*
X132331857Y-151259666D01*
X132244238Y-151303476D01*
X132200428Y-151303476D01*
X132112809Y-151259666D01*
X132069000Y-151215857D01*
X132025190Y-151128238D01*
X132025190Y-150953000D01*
X132069000Y-150865380D01*
X132112809Y-150821571D01*
X132200428Y-150777761D01*
X132244238Y-150777761D01*
X132331857Y-150821571D01*
X132375666Y-150865380D01*
X132419476Y-150953000D01*
X132419476Y-151128238D01*
X132463285Y-151215857D01*
X132507095Y-151259666D01*
X132594714Y-151303476D01*
X132769952Y-151303476D01*
X132857571Y-151259666D01*
X132901380Y-151215857D01*
X132945190Y-151128238D01*
X132945190Y-150953000D01*
X132901380Y-150865380D01*
X132857571Y-150821571D01*
X132769952Y-150777761D01*
X132594714Y-150777761D01*
X132507095Y-150821571D01*
X132463285Y-150865380D01*
X132419476Y-150953000D01*
G04 #@! TO.C,RV41*
X128396619Y-135363714D02*
X128349000Y-135316095D01*
X128301380Y-135220857D01*
X128301380Y-134982761D01*
X128349000Y-134887523D01*
X128396619Y-134839904D01*
X128491857Y-134792285D01*
X128587095Y-134792285D01*
X128729952Y-134839904D01*
X129301380Y-135411333D01*
X129301380Y-134792285D01*
X129301380Y-134363714D02*
X128301380Y-134363714D01*
X129301380Y-133792285D02*
X128729952Y-134220857D01*
X128301380Y-133792285D02*
X128872809Y-134363714D01*
X132765190Y-134953714D02*
X132327095Y-135260380D01*
X132765190Y-135479428D02*
X131845190Y-135479428D01*
X131845190Y-135128952D01*
X131889000Y-135041333D01*
X131932809Y-134997523D01*
X132020428Y-134953714D01*
X132151857Y-134953714D01*
X132239476Y-134997523D01*
X132283285Y-135041333D01*
X132327095Y-135128952D01*
X132327095Y-135479428D01*
X131845190Y-134690857D02*
X132765190Y-134384190D01*
X131845190Y-134077523D01*
X132151857Y-133376571D02*
X132765190Y-133376571D01*
X131801380Y-133595619D02*
X132458523Y-133814666D01*
X132458523Y-133245142D01*
X132765190Y-132412761D02*
X132765190Y-132938476D01*
X132765190Y-132675619D02*
X131845190Y-132675619D01*
X131976619Y-132763238D01*
X132064238Y-132850857D01*
X132108047Y-132938476D01*
G04 #@! TO.C,RV45*
X135016380Y-152889666D02*
X135016380Y-153461095D01*
X135016380Y-153175380D02*
X134016380Y-153175380D01*
X134159238Y-153270619D01*
X134254476Y-153365857D01*
X134302095Y-153461095D01*
X134016380Y-152270619D02*
X134016380Y-152175380D01*
X134064000Y-152080142D01*
X134111619Y-152032523D01*
X134206857Y-151984904D01*
X134397333Y-151937285D01*
X134635428Y-151937285D01*
X134825904Y-151984904D01*
X134921142Y-152032523D01*
X134968761Y-152080142D01*
X135016380Y-152175380D01*
X135016380Y-152270619D01*
X134968761Y-152365857D01*
X134921142Y-152413476D01*
X134825904Y-152461095D01*
X134635428Y-152508714D01*
X134397333Y-152508714D01*
X134206857Y-152461095D01*
X134111619Y-152413476D01*
X134064000Y-152365857D01*
X134016380Y-152270619D01*
X134016380Y-151318238D02*
X134016380Y-151223000D01*
X134064000Y-151127761D01*
X134111619Y-151080142D01*
X134206857Y-151032523D01*
X134397333Y-150984904D01*
X134635428Y-150984904D01*
X134825904Y-151032523D01*
X134921142Y-151080142D01*
X134968761Y-151127761D01*
X135016380Y-151223000D01*
X135016380Y-151318238D01*
X134968761Y-151413476D01*
X134921142Y-151461095D01*
X134825904Y-151508714D01*
X134635428Y-151556333D01*
X134397333Y-151556333D01*
X134206857Y-151508714D01*
X134111619Y-151461095D01*
X134064000Y-151413476D01*
X134016380Y-151318238D01*
X135016380Y-150556333D02*
X134016380Y-150556333D01*
X135016380Y-149984904D02*
X134444952Y-150413476D01*
X134016380Y-149984904D02*
X134587809Y-150556333D01*
X138480190Y-152098714D02*
X138042095Y-152405380D01*
X138480190Y-152624428D02*
X137560190Y-152624428D01*
X137560190Y-152273952D01*
X137604000Y-152186333D01*
X137647809Y-152142523D01*
X137735428Y-152098714D01*
X137866857Y-152098714D01*
X137954476Y-152142523D01*
X137998285Y-152186333D01*
X138042095Y-152273952D01*
X138042095Y-152624428D01*
X137560190Y-151835857D02*
X138480190Y-151529190D01*
X137560190Y-151222523D01*
X137866857Y-150521571D02*
X138480190Y-150521571D01*
X137516380Y-150740619D02*
X138173523Y-150959666D01*
X138173523Y-150390142D01*
X137560190Y-149601571D02*
X137560190Y-150039666D01*
X137998285Y-150083476D01*
X137954476Y-150039666D01*
X137910666Y-149952047D01*
X137910666Y-149733000D01*
X137954476Y-149645380D01*
X137998285Y-149601571D01*
X138085904Y-149557761D01*
X138304952Y-149557761D01*
X138392571Y-149601571D01*
X138436380Y-149645380D01*
X138480190Y-149733000D01*
X138480190Y-149952047D01*
X138436380Y-150039666D01*
X138392571Y-150083476D01*
G04 #@! TO.C,RV47*
X141561380Y-135744666D02*
X141561380Y-136316095D01*
X141561380Y-136030380D02*
X140561380Y-136030380D01*
X140704238Y-136125619D01*
X140799476Y-136220857D01*
X140847095Y-136316095D01*
X140561380Y-135125619D02*
X140561380Y-135030380D01*
X140609000Y-134935142D01*
X140656619Y-134887523D01*
X140751857Y-134839904D01*
X140942333Y-134792285D01*
X141180428Y-134792285D01*
X141370904Y-134839904D01*
X141466142Y-134887523D01*
X141513761Y-134935142D01*
X141561380Y-135030380D01*
X141561380Y-135125619D01*
X141513761Y-135220857D01*
X141466142Y-135268476D01*
X141370904Y-135316095D01*
X141180428Y-135363714D01*
X140942333Y-135363714D01*
X140751857Y-135316095D01*
X140656619Y-135268476D01*
X140609000Y-135220857D01*
X140561380Y-135125619D01*
X140561380Y-134173238D02*
X140561380Y-134078000D01*
X140609000Y-133982761D01*
X140656619Y-133935142D01*
X140751857Y-133887523D01*
X140942333Y-133839904D01*
X141180428Y-133839904D01*
X141370904Y-133887523D01*
X141466142Y-133935142D01*
X141513761Y-133982761D01*
X141561380Y-134078000D01*
X141561380Y-134173238D01*
X141513761Y-134268476D01*
X141466142Y-134316095D01*
X141370904Y-134363714D01*
X141180428Y-134411333D01*
X140942333Y-134411333D01*
X140751857Y-134363714D01*
X140656619Y-134316095D01*
X140609000Y-134268476D01*
X140561380Y-134173238D01*
X141561380Y-133411333D02*
X140561380Y-133411333D01*
X141561380Y-132839904D02*
X140989952Y-133268476D01*
X140561380Y-132839904D02*
X141132809Y-133411333D01*
X138025190Y-136173714D02*
X137587095Y-136480380D01*
X138025190Y-136699428D02*
X137105190Y-136699428D01*
X137105190Y-136348952D01*
X137149000Y-136261333D01*
X137192809Y-136217523D01*
X137280428Y-136173714D01*
X137411857Y-136173714D01*
X137499476Y-136217523D01*
X137543285Y-136261333D01*
X137587095Y-136348952D01*
X137587095Y-136699428D01*
X137105190Y-135910857D02*
X138025190Y-135604190D01*
X137105190Y-135297523D01*
X137411857Y-134596571D02*
X138025190Y-134596571D01*
X137061380Y-134815619D02*
X137718523Y-135034666D01*
X137718523Y-134465142D01*
X137105190Y-134202285D02*
X137105190Y-133588952D01*
X138025190Y-133983238D01*
G04 #@! TO.C,U1*
X110641380Y-145587047D02*
X110641380Y-145015619D01*
X111641380Y-145301333D02*
X110641380Y-145301333D01*
X111641380Y-144206095D02*
X111641380Y-144682285D01*
X110641380Y-144682285D01*
X110641380Y-143682285D02*
X110641380Y-143587047D01*
X110689000Y-143491809D01*
X110736619Y-143444190D01*
X110831857Y-143396571D01*
X111022333Y-143348952D01*
X111260428Y-143348952D01*
X111450904Y-143396571D01*
X111546142Y-143444190D01*
X111593761Y-143491809D01*
X111641380Y-143587047D01*
X111641380Y-143682285D01*
X111593761Y-143777523D01*
X111546142Y-143825142D01*
X111450904Y-143872761D01*
X111260428Y-143920380D01*
X111022333Y-143920380D01*
X110831857Y-143872761D01*
X110736619Y-143825142D01*
X110689000Y-143777523D01*
X110641380Y-143682285D01*
X111069952Y-142777523D02*
X111022333Y-142872761D01*
X110974714Y-142920380D01*
X110879476Y-142968000D01*
X110831857Y-142968000D01*
X110736619Y-142920380D01*
X110689000Y-142872761D01*
X110641380Y-142777523D01*
X110641380Y-142587047D01*
X110689000Y-142491809D01*
X110736619Y-142444190D01*
X110831857Y-142396571D01*
X110879476Y-142396571D01*
X110974714Y-142444190D01*
X111022333Y-142491809D01*
X111069952Y-142587047D01*
X111069952Y-142777523D01*
X111117571Y-142872761D01*
X111165190Y-142920380D01*
X111260428Y-142968000D01*
X111450904Y-142968000D01*
X111546142Y-142920380D01*
X111593761Y-142872761D01*
X111641380Y-142777523D01*
X111641380Y-142587047D01*
X111593761Y-142491809D01*
X111546142Y-142444190D01*
X111450904Y-142396571D01*
X111260428Y-142396571D01*
X111165190Y-142444190D01*
X111117571Y-142491809D01*
X111069952Y-142587047D01*
X110974714Y-141539428D02*
X111641380Y-141539428D01*
X110593761Y-141777523D02*
X111308047Y-142015619D01*
X111308047Y-141396571D01*
D13*
X116071142Y-144153714D02*
X116799714Y-144153714D01*
X116885428Y-144110857D01*
X116928285Y-144068000D01*
X116971142Y-143982285D01*
X116971142Y-143810857D01*
X116928285Y-143725142D01*
X116885428Y-143682285D01*
X116799714Y-143639428D01*
X116071142Y-143639428D01*
X116971142Y-142739428D02*
X116971142Y-143253714D01*
X116971142Y-142996571D02*
X116071142Y-142996571D01*
X116199714Y-143082285D01*
X116285428Y-143168000D01*
X116328285Y-143253714D01*
G04 #@! TO.C,C4*
D11*
X113012380Y-72256428D02*
X113012380Y-72827857D01*
X113012380Y-72542142D02*
X112012380Y-72542142D01*
X112155238Y-72637380D01*
X112250476Y-72732619D01*
X112298095Y-72827857D01*
X112012380Y-71637380D02*
X112012380Y-71542142D01*
X112060000Y-71446904D01*
X112107619Y-71399285D01*
X112202857Y-71351666D01*
X112393333Y-71304047D01*
X112631428Y-71304047D01*
X112821904Y-71351666D01*
X112917142Y-71399285D01*
X112964761Y-71446904D01*
X113012380Y-71542142D01*
X113012380Y-71637380D01*
X112964761Y-71732619D01*
X112917142Y-71780238D01*
X112821904Y-71827857D01*
X112631428Y-71875476D01*
X112393333Y-71875476D01*
X112202857Y-71827857D01*
X112107619Y-71780238D01*
X112060000Y-71732619D01*
X112012380Y-71637380D01*
X112345714Y-70446904D02*
X113012380Y-70446904D01*
X112345714Y-70875476D02*
X112869523Y-70875476D01*
X112964761Y-70827857D01*
X113012380Y-70732619D01*
X113012380Y-70589761D01*
X112964761Y-70494523D01*
X112917142Y-70446904D01*
X112488571Y-69637380D02*
X112488571Y-69970714D01*
X113012380Y-69970714D02*
X112012380Y-69970714D01*
X112012380Y-69494523D01*
X116667142Y-71351666D02*
X116714761Y-71399285D01*
X116762380Y-71542142D01*
X116762380Y-71637380D01*
X116714761Y-71780238D01*
X116619523Y-71875476D01*
X116524285Y-71923095D01*
X116333809Y-71970714D01*
X116190952Y-71970714D01*
X116000476Y-71923095D01*
X115905238Y-71875476D01*
X115810000Y-71780238D01*
X115762380Y-71637380D01*
X115762380Y-71542142D01*
X115810000Y-71399285D01*
X115857619Y-71351666D01*
X116095714Y-70494523D02*
X116762380Y-70494523D01*
X115714761Y-70732619D02*
X116429047Y-70970714D01*
X116429047Y-70351666D01*
G04 #@! TO.C,JP2*
X119925142Y-27952714D02*
X119972761Y-28000333D01*
X120020380Y-28143190D01*
X120020380Y-28238428D01*
X119972761Y-28381285D01*
X119877523Y-28476523D01*
X119782285Y-28524142D01*
X119591809Y-28571761D01*
X119448952Y-28571761D01*
X119258476Y-28524142D01*
X119163238Y-28476523D01*
X119068000Y-28381285D01*
X119020380Y-28238428D01*
X119020380Y-28143190D01*
X119068000Y-28000333D01*
X119115619Y-27952714D01*
X120020380Y-27381285D02*
X119972761Y-27476523D01*
X119925142Y-27524142D01*
X119829904Y-27571761D01*
X119544190Y-27571761D01*
X119448952Y-27524142D01*
X119401333Y-27476523D01*
X119353714Y-27381285D01*
X119353714Y-27238428D01*
X119401333Y-27143190D01*
X119448952Y-27095571D01*
X119544190Y-27047952D01*
X119829904Y-27047952D01*
X119925142Y-27095571D01*
X119972761Y-27143190D01*
X120020380Y-27238428D01*
X120020380Y-27381285D01*
X119353714Y-26619380D02*
X120020380Y-26619380D01*
X119448952Y-26619380D02*
X119401333Y-26571761D01*
X119353714Y-26476523D01*
X119353714Y-26333666D01*
X119401333Y-26238428D01*
X119496571Y-26190809D01*
X120020380Y-26190809D01*
X119353714Y-25714619D02*
X120020380Y-25714619D01*
X119448952Y-25714619D02*
X119401333Y-25667000D01*
X119353714Y-25571761D01*
X119353714Y-25428904D01*
X119401333Y-25333666D01*
X119496571Y-25286047D01*
X120020380Y-25286047D01*
X120115619Y-25047952D02*
X120115619Y-24286047D01*
X119020380Y-23857476D02*
X119020380Y-23762238D01*
X119068000Y-23667000D01*
X119115619Y-23619380D01*
X119210857Y-23571761D01*
X119401333Y-23524142D01*
X119639428Y-23524142D01*
X119829904Y-23571761D01*
X119925142Y-23619380D01*
X119972761Y-23667000D01*
X120020380Y-23762238D01*
X120020380Y-23857476D01*
X119972761Y-23952714D01*
X119925142Y-24000333D01*
X119829904Y-24047952D01*
X119639428Y-24095571D01*
X119401333Y-24095571D01*
X119210857Y-24047952D01*
X119115619Y-24000333D01*
X119068000Y-23952714D01*
X119020380Y-23857476D01*
X120020380Y-22571761D02*
X120020380Y-23143190D01*
X120020380Y-22857476D02*
X119020380Y-22857476D01*
X119163238Y-22952714D01*
X119258476Y-23047952D01*
X119306095Y-23143190D01*
X120020380Y-22238428D02*
X119353714Y-21714619D01*
X119353714Y-22238428D02*
X120020380Y-21714619D01*
X119020380Y-21143190D02*
X119020380Y-21047952D01*
X119068000Y-20952714D01*
X119115619Y-20905095D01*
X119210857Y-20857476D01*
X119401333Y-20809857D01*
X119639428Y-20809857D01*
X119829904Y-20857476D01*
X119925142Y-20905095D01*
X119972761Y-20952714D01*
X120020380Y-21047952D01*
X120020380Y-21143190D01*
X119972761Y-21238428D01*
X119925142Y-21286047D01*
X119829904Y-21333666D01*
X119639428Y-21381285D01*
X119401333Y-21381285D01*
X119210857Y-21333666D01*
X119115619Y-21286047D01*
X119068000Y-21238428D01*
X119020380Y-21143190D01*
X119020380Y-20476523D02*
X119020380Y-19857476D01*
X119401333Y-20190809D01*
X119401333Y-20047952D01*
X119448952Y-19952714D01*
X119496571Y-19905095D01*
X119591809Y-19857476D01*
X119829904Y-19857476D01*
X119925142Y-19905095D01*
X119972761Y-19952714D01*
X120020380Y-20047952D01*
X120020380Y-20333666D01*
X119972761Y-20428904D01*
X119925142Y-20476523D01*
X120115619Y-19667000D02*
X120115619Y-18905095D01*
X119496571Y-18333666D02*
X119496571Y-18667000D01*
X120020380Y-18667000D02*
X119020380Y-18667000D01*
X119020380Y-18190809D01*
X119972761Y-17428904D02*
X120020380Y-17524142D01*
X120020380Y-17714619D01*
X119972761Y-17809857D01*
X119877523Y-17857476D01*
X119496571Y-17857476D01*
X119401333Y-17809857D01*
X119353714Y-17714619D01*
X119353714Y-17524142D01*
X119401333Y-17428904D01*
X119496571Y-17381285D01*
X119591809Y-17381285D01*
X119687047Y-17857476D01*
X120020380Y-16952714D02*
X119353714Y-16952714D01*
X119448952Y-16952714D02*
X119401333Y-16905095D01*
X119353714Y-16809857D01*
X119353714Y-16667000D01*
X119401333Y-16571761D01*
X119496571Y-16524142D01*
X120020380Y-16524142D01*
X119496571Y-16524142D02*
X119401333Y-16476523D01*
X119353714Y-16381285D01*
X119353714Y-16238428D01*
X119401333Y-16143190D01*
X119496571Y-16095571D01*
X120020380Y-16095571D01*
X120020380Y-15190809D02*
X119496571Y-15190809D01*
X119401333Y-15238428D01*
X119353714Y-15333666D01*
X119353714Y-15524142D01*
X119401333Y-15619380D01*
X119972761Y-15190809D02*
X120020380Y-15286047D01*
X120020380Y-15524142D01*
X119972761Y-15619380D01*
X119877523Y-15667000D01*
X119782285Y-15667000D01*
X119687047Y-15619380D01*
X119639428Y-15524142D01*
X119639428Y-15286047D01*
X119591809Y-15190809D01*
X120020380Y-14571761D02*
X119972761Y-14667000D01*
X119877523Y-14714619D01*
X119020380Y-14714619D01*
X119972761Y-13809857D02*
X120020380Y-13905095D01*
X120020380Y-14095571D01*
X119972761Y-14190809D01*
X119877523Y-14238428D01*
X119496571Y-14238428D01*
X119401333Y-14190809D01*
X119353714Y-14095571D01*
X119353714Y-13905095D01*
X119401333Y-13809857D01*
X119496571Y-13762238D01*
X119591809Y-13762238D01*
X119687047Y-14238428D01*
X123604666Y-20619380D02*
X123604666Y-21333666D01*
X123557047Y-21476523D01*
X123461809Y-21571761D01*
X123318952Y-21619380D01*
X123223714Y-21619380D01*
X124080857Y-21619380D02*
X124080857Y-20619380D01*
X124461809Y-20619380D01*
X124557047Y-20667000D01*
X124604666Y-20714619D01*
X124652285Y-20809857D01*
X124652285Y-20952714D01*
X124604666Y-21047952D01*
X124557047Y-21095571D01*
X124461809Y-21143190D01*
X124080857Y-21143190D01*
X125033238Y-20714619D02*
X125080857Y-20667000D01*
X125176095Y-20619380D01*
X125414190Y-20619380D01*
X125509428Y-20667000D01*
X125557047Y-20714619D01*
X125604666Y-20809857D01*
X125604666Y-20905095D01*
X125557047Y-21047952D01*
X124985619Y-21619380D01*
X125604666Y-21619380D01*
G04 #@! TO.C,JP4*
X119759142Y-71132714D02*
X119806761Y-71180333D01*
X119854380Y-71323190D01*
X119854380Y-71418428D01*
X119806761Y-71561285D01*
X119711523Y-71656523D01*
X119616285Y-71704142D01*
X119425809Y-71751761D01*
X119282952Y-71751761D01*
X119092476Y-71704142D01*
X118997238Y-71656523D01*
X118902000Y-71561285D01*
X118854380Y-71418428D01*
X118854380Y-71323190D01*
X118902000Y-71180333D01*
X118949619Y-71132714D01*
X119854380Y-70561285D02*
X119806761Y-70656523D01*
X119759142Y-70704142D01*
X119663904Y-70751761D01*
X119378190Y-70751761D01*
X119282952Y-70704142D01*
X119235333Y-70656523D01*
X119187714Y-70561285D01*
X119187714Y-70418428D01*
X119235333Y-70323190D01*
X119282952Y-70275571D01*
X119378190Y-70227952D01*
X119663904Y-70227952D01*
X119759142Y-70275571D01*
X119806761Y-70323190D01*
X119854380Y-70418428D01*
X119854380Y-70561285D01*
X119187714Y-69799380D02*
X119854380Y-69799380D01*
X119282952Y-69799380D02*
X119235333Y-69751761D01*
X119187714Y-69656523D01*
X119187714Y-69513666D01*
X119235333Y-69418428D01*
X119330571Y-69370809D01*
X119854380Y-69370809D01*
X119187714Y-68894619D02*
X119854380Y-68894619D01*
X119282952Y-68894619D02*
X119235333Y-68847000D01*
X119187714Y-68751761D01*
X119187714Y-68608904D01*
X119235333Y-68513666D01*
X119330571Y-68466047D01*
X119854380Y-68466047D01*
X119949619Y-68227952D02*
X119949619Y-67466047D01*
X118854380Y-67037476D02*
X118854380Y-66942238D01*
X118902000Y-66847000D01*
X118949619Y-66799380D01*
X119044857Y-66751761D01*
X119235333Y-66704142D01*
X119473428Y-66704142D01*
X119663904Y-66751761D01*
X119759142Y-66799380D01*
X119806761Y-66847000D01*
X119854380Y-66942238D01*
X119854380Y-67037476D01*
X119806761Y-67132714D01*
X119759142Y-67180333D01*
X119663904Y-67227952D01*
X119473428Y-67275571D01*
X119235333Y-67275571D01*
X119044857Y-67227952D01*
X118949619Y-67180333D01*
X118902000Y-67132714D01*
X118854380Y-67037476D01*
X119854380Y-65751761D02*
X119854380Y-66323190D01*
X119854380Y-66037476D02*
X118854380Y-66037476D01*
X118997238Y-66132714D01*
X119092476Y-66227952D01*
X119140095Y-66323190D01*
X119854380Y-65418428D02*
X119187714Y-64894619D01*
X119187714Y-65418428D02*
X119854380Y-64894619D01*
X118854380Y-64323190D02*
X118854380Y-64227952D01*
X118902000Y-64132714D01*
X118949619Y-64085095D01*
X119044857Y-64037476D01*
X119235333Y-63989857D01*
X119473428Y-63989857D01*
X119663904Y-64037476D01*
X119759142Y-64085095D01*
X119806761Y-64132714D01*
X119854380Y-64227952D01*
X119854380Y-64323190D01*
X119806761Y-64418428D01*
X119759142Y-64466047D01*
X119663904Y-64513666D01*
X119473428Y-64561285D01*
X119235333Y-64561285D01*
X119044857Y-64513666D01*
X118949619Y-64466047D01*
X118902000Y-64418428D01*
X118854380Y-64323190D01*
X119187714Y-63132714D02*
X119854380Y-63132714D01*
X118806761Y-63370809D02*
X119521047Y-63608904D01*
X119521047Y-62989857D01*
X119949619Y-62847000D02*
X119949619Y-62085095D01*
X119330571Y-61513666D02*
X119330571Y-61847000D01*
X119854380Y-61847000D02*
X118854380Y-61847000D01*
X118854380Y-61370809D01*
X119806761Y-60608904D02*
X119854380Y-60704142D01*
X119854380Y-60894619D01*
X119806761Y-60989857D01*
X119711523Y-61037476D01*
X119330571Y-61037476D01*
X119235333Y-60989857D01*
X119187714Y-60894619D01*
X119187714Y-60704142D01*
X119235333Y-60608904D01*
X119330571Y-60561285D01*
X119425809Y-60561285D01*
X119521047Y-61037476D01*
X119854380Y-60132714D02*
X119187714Y-60132714D01*
X119282952Y-60132714D02*
X119235333Y-60085095D01*
X119187714Y-59989857D01*
X119187714Y-59847000D01*
X119235333Y-59751761D01*
X119330571Y-59704142D01*
X119854380Y-59704142D01*
X119330571Y-59704142D02*
X119235333Y-59656523D01*
X119187714Y-59561285D01*
X119187714Y-59418428D01*
X119235333Y-59323190D01*
X119330571Y-59275571D01*
X119854380Y-59275571D01*
X119854380Y-58370809D02*
X119330571Y-58370809D01*
X119235333Y-58418428D01*
X119187714Y-58513666D01*
X119187714Y-58704142D01*
X119235333Y-58799380D01*
X119806761Y-58370809D02*
X119854380Y-58466047D01*
X119854380Y-58704142D01*
X119806761Y-58799380D01*
X119711523Y-58847000D01*
X119616285Y-58847000D01*
X119521047Y-58799380D01*
X119473428Y-58704142D01*
X119473428Y-58466047D01*
X119425809Y-58370809D01*
X119854380Y-57751761D02*
X119806761Y-57847000D01*
X119711523Y-57894619D01*
X118854380Y-57894619D01*
X119806761Y-56989857D02*
X119854380Y-57085095D01*
X119854380Y-57275571D01*
X119806761Y-57370809D01*
X119711523Y-57418428D01*
X119330571Y-57418428D01*
X119235333Y-57370809D01*
X119187714Y-57275571D01*
X119187714Y-57085095D01*
X119235333Y-56989857D01*
X119330571Y-56942238D01*
X119425809Y-56942238D01*
X119521047Y-57418428D01*
X112428666Y-63799380D02*
X112428666Y-64513666D01*
X112381047Y-64656523D01*
X112285809Y-64751761D01*
X112142952Y-64799380D01*
X112047714Y-64799380D01*
X112904857Y-64799380D02*
X112904857Y-63799380D01*
X113285809Y-63799380D01*
X113381047Y-63847000D01*
X113428666Y-63894619D01*
X113476285Y-63989857D01*
X113476285Y-64132714D01*
X113428666Y-64227952D01*
X113381047Y-64275571D01*
X113285809Y-64323190D01*
X112904857Y-64323190D01*
X114333428Y-64132714D02*
X114333428Y-64799380D01*
X114095333Y-63751761D02*
X113857238Y-64466047D01*
X114476285Y-64466047D01*
G04 #@! TO.C,JP6*
X153160142Y-28587714D02*
X153207761Y-28635333D01*
X153255380Y-28778190D01*
X153255380Y-28873428D01*
X153207761Y-29016285D01*
X153112523Y-29111523D01*
X153017285Y-29159142D01*
X152826809Y-29206761D01*
X152683952Y-29206761D01*
X152493476Y-29159142D01*
X152398238Y-29111523D01*
X152303000Y-29016285D01*
X152255380Y-28873428D01*
X152255380Y-28778190D01*
X152303000Y-28635333D01*
X152350619Y-28587714D01*
X153255380Y-28016285D02*
X153207761Y-28111523D01*
X153160142Y-28159142D01*
X153064904Y-28206761D01*
X152779190Y-28206761D01*
X152683952Y-28159142D01*
X152636333Y-28111523D01*
X152588714Y-28016285D01*
X152588714Y-27873428D01*
X152636333Y-27778190D01*
X152683952Y-27730571D01*
X152779190Y-27682952D01*
X153064904Y-27682952D01*
X153160142Y-27730571D01*
X153207761Y-27778190D01*
X153255380Y-27873428D01*
X153255380Y-28016285D01*
X152588714Y-27254380D02*
X153255380Y-27254380D01*
X152683952Y-27254380D02*
X152636333Y-27206761D01*
X152588714Y-27111523D01*
X152588714Y-26968666D01*
X152636333Y-26873428D01*
X152731571Y-26825809D01*
X153255380Y-26825809D01*
X152588714Y-26349619D02*
X153255380Y-26349619D01*
X152683952Y-26349619D02*
X152636333Y-26302000D01*
X152588714Y-26206761D01*
X152588714Y-26063904D01*
X152636333Y-25968666D01*
X152731571Y-25921047D01*
X153255380Y-25921047D01*
X153350619Y-25682952D02*
X153350619Y-24921047D01*
X152255380Y-24492476D02*
X152255380Y-24397238D01*
X152303000Y-24302000D01*
X152350619Y-24254380D01*
X152445857Y-24206761D01*
X152636333Y-24159142D01*
X152874428Y-24159142D01*
X153064904Y-24206761D01*
X153160142Y-24254380D01*
X153207761Y-24302000D01*
X153255380Y-24397238D01*
X153255380Y-24492476D01*
X153207761Y-24587714D01*
X153160142Y-24635333D01*
X153064904Y-24682952D01*
X152874428Y-24730571D01*
X152636333Y-24730571D01*
X152445857Y-24682952D01*
X152350619Y-24635333D01*
X152303000Y-24587714D01*
X152255380Y-24492476D01*
X153255380Y-23206761D02*
X153255380Y-23778190D01*
X153255380Y-23492476D02*
X152255380Y-23492476D01*
X152398238Y-23587714D01*
X152493476Y-23682952D01*
X152541095Y-23778190D01*
X153255380Y-22873428D02*
X152588714Y-22349619D01*
X152588714Y-22873428D02*
X153255380Y-22349619D01*
X152255380Y-21778190D02*
X152255380Y-21682952D01*
X152303000Y-21587714D01*
X152350619Y-21540095D01*
X152445857Y-21492476D01*
X152636333Y-21444857D01*
X152874428Y-21444857D01*
X153064904Y-21492476D01*
X153160142Y-21540095D01*
X153207761Y-21587714D01*
X153255380Y-21682952D01*
X153255380Y-21778190D01*
X153207761Y-21873428D01*
X153160142Y-21921047D01*
X153064904Y-21968666D01*
X152874428Y-22016285D01*
X152636333Y-22016285D01*
X152445857Y-21968666D01*
X152350619Y-21921047D01*
X152303000Y-21873428D01*
X152255380Y-21778190D01*
X152588714Y-20587714D02*
X153255380Y-20587714D01*
X152207761Y-20825809D02*
X152922047Y-21063904D01*
X152922047Y-20444857D01*
X153350619Y-20302000D02*
X153350619Y-19540095D01*
X152731571Y-18968666D02*
X152731571Y-19302000D01*
X153255380Y-19302000D02*
X152255380Y-19302000D01*
X152255380Y-18825809D01*
X153207761Y-18063904D02*
X153255380Y-18159142D01*
X153255380Y-18349619D01*
X153207761Y-18444857D01*
X153112523Y-18492476D01*
X152731571Y-18492476D01*
X152636333Y-18444857D01*
X152588714Y-18349619D01*
X152588714Y-18159142D01*
X152636333Y-18063904D01*
X152731571Y-18016285D01*
X152826809Y-18016285D01*
X152922047Y-18492476D01*
X153255380Y-17587714D02*
X152588714Y-17587714D01*
X152683952Y-17587714D02*
X152636333Y-17540095D01*
X152588714Y-17444857D01*
X152588714Y-17302000D01*
X152636333Y-17206761D01*
X152731571Y-17159142D01*
X153255380Y-17159142D01*
X152731571Y-17159142D02*
X152636333Y-17111523D01*
X152588714Y-17016285D01*
X152588714Y-16873428D01*
X152636333Y-16778190D01*
X152731571Y-16730571D01*
X153255380Y-16730571D01*
X153255380Y-15825809D02*
X152731571Y-15825809D01*
X152636333Y-15873428D01*
X152588714Y-15968666D01*
X152588714Y-16159142D01*
X152636333Y-16254380D01*
X153207761Y-15825809D02*
X153255380Y-15921047D01*
X153255380Y-16159142D01*
X153207761Y-16254380D01*
X153112523Y-16302000D01*
X153017285Y-16302000D01*
X152922047Y-16254380D01*
X152874428Y-16159142D01*
X152874428Y-15921047D01*
X152826809Y-15825809D01*
X153255380Y-15206761D02*
X153207761Y-15302000D01*
X153112523Y-15349619D01*
X152255380Y-15349619D01*
X153207761Y-14444857D02*
X153255380Y-14540095D01*
X153255380Y-14730571D01*
X153207761Y-14825809D01*
X153112523Y-14873428D01*
X152731571Y-14873428D01*
X152636333Y-14825809D01*
X152588714Y-14730571D01*
X152588714Y-14540095D01*
X152636333Y-14444857D01*
X152731571Y-14397238D01*
X152826809Y-14397238D01*
X152922047Y-14873428D01*
X145829666Y-21254380D02*
X145829666Y-21968666D01*
X145782047Y-22111523D01*
X145686809Y-22206761D01*
X145543952Y-22254380D01*
X145448714Y-22254380D01*
X146305857Y-22254380D02*
X146305857Y-21254380D01*
X146686809Y-21254380D01*
X146782047Y-21302000D01*
X146829666Y-21349619D01*
X146877285Y-21444857D01*
X146877285Y-21587714D01*
X146829666Y-21682952D01*
X146782047Y-21730571D01*
X146686809Y-21778190D01*
X146305857Y-21778190D01*
X147734428Y-21254380D02*
X147543952Y-21254380D01*
X147448714Y-21302000D01*
X147401095Y-21349619D01*
X147305857Y-21492476D01*
X147258238Y-21682952D01*
X147258238Y-22063904D01*
X147305857Y-22159142D01*
X147353476Y-22206761D01*
X147448714Y-22254380D01*
X147639190Y-22254380D01*
X147734428Y-22206761D01*
X147782047Y-22159142D01*
X147829666Y-22063904D01*
X147829666Y-21825809D01*
X147782047Y-21730571D01*
X147734428Y-21682952D01*
X147639190Y-21635333D01*
X147448714Y-21635333D01*
X147353476Y-21682952D01*
X147305857Y-21730571D01*
X147258238Y-21825809D01*
G04 #@! TO.C,JP8*
X153160142Y-71132714D02*
X153207761Y-71180333D01*
X153255380Y-71323190D01*
X153255380Y-71418428D01*
X153207761Y-71561285D01*
X153112523Y-71656523D01*
X153017285Y-71704142D01*
X152826809Y-71751761D01*
X152683952Y-71751761D01*
X152493476Y-71704142D01*
X152398238Y-71656523D01*
X152303000Y-71561285D01*
X152255380Y-71418428D01*
X152255380Y-71323190D01*
X152303000Y-71180333D01*
X152350619Y-71132714D01*
X153255380Y-70561285D02*
X153207761Y-70656523D01*
X153160142Y-70704142D01*
X153064904Y-70751761D01*
X152779190Y-70751761D01*
X152683952Y-70704142D01*
X152636333Y-70656523D01*
X152588714Y-70561285D01*
X152588714Y-70418428D01*
X152636333Y-70323190D01*
X152683952Y-70275571D01*
X152779190Y-70227952D01*
X153064904Y-70227952D01*
X153160142Y-70275571D01*
X153207761Y-70323190D01*
X153255380Y-70418428D01*
X153255380Y-70561285D01*
X152588714Y-69799380D02*
X153255380Y-69799380D01*
X152683952Y-69799380D02*
X152636333Y-69751761D01*
X152588714Y-69656523D01*
X152588714Y-69513666D01*
X152636333Y-69418428D01*
X152731571Y-69370809D01*
X153255380Y-69370809D01*
X152588714Y-68894619D02*
X153255380Y-68894619D01*
X152683952Y-68894619D02*
X152636333Y-68847000D01*
X152588714Y-68751761D01*
X152588714Y-68608904D01*
X152636333Y-68513666D01*
X152731571Y-68466047D01*
X153255380Y-68466047D01*
X153350619Y-68227952D02*
X153350619Y-67466047D01*
X152255380Y-67037476D02*
X152255380Y-66942238D01*
X152303000Y-66847000D01*
X152350619Y-66799380D01*
X152445857Y-66751761D01*
X152636333Y-66704142D01*
X152874428Y-66704142D01*
X153064904Y-66751761D01*
X153160142Y-66799380D01*
X153207761Y-66847000D01*
X153255380Y-66942238D01*
X153255380Y-67037476D01*
X153207761Y-67132714D01*
X153160142Y-67180333D01*
X153064904Y-67227952D01*
X152874428Y-67275571D01*
X152636333Y-67275571D01*
X152445857Y-67227952D01*
X152350619Y-67180333D01*
X152303000Y-67132714D01*
X152255380Y-67037476D01*
X153255380Y-65751761D02*
X153255380Y-66323190D01*
X153255380Y-66037476D02*
X152255380Y-66037476D01*
X152398238Y-66132714D01*
X152493476Y-66227952D01*
X152541095Y-66323190D01*
X153255380Y-65418428D02*
X152588714Y-64894619D01*
X152588714Y-65418428D02*
X153255380Y-64894619D01*
X152255380Y-64323190D02*
X152255380Y-64227952D01*
X152303000Y-64132714D01*
X152350619Y-64085095D01*
X152445857Y-64037476D01*
X152636333Y-63989857D01*
X152874428Y-63989857D01*
X153064904Y-64037476D01*
X153160142Y-64085095D01*
X153207761Y-64132714D01*
X153255380Y-64227952D01*
X153255380Y-64323190D01*
X153207761Y-64418428D01*
X153160142Y-64466047D01*
X153064904Y-64513666D01*
X152874428Y-64561285D01*
X152636333Y-64561285D01*
X152445857Y-64513666D01*
X152350619Y-64466047D01*
X152303000Y-64418428D01*
X152255380Y-64323190D01*
X152588714Y-63132714D02*
X153255380Y-63132714D01*
X152207761Y-63370809D02*
X152922047Y-63608904D01*
X152922047Y-62989857D01*
X153350619Y-62847000D02*
X153350619Y-62085095D01*
X152731571Y-61513666D02*
X152731571Y-61847000D01*
X153255380Y-61847000D02*
X152255380Y-61847000D01*
X152255380Y-61370809D01*
X153207761Y-60608904D02*
X153255380Y-60704142D01*
X153255380Y-60894619D01*
X153207761Y-60989857D01*
X153112523Y-61037476D01*
X152731571Y-61037476D01*
X152636333Y-60989857D01*
X152588714Y-60894619D01*
X152588714Y-60704142D01*
X152636333Y-60608904D01*
X152731571Y-60561285D01*
X152826809Y-60561285D01*
X152922047Y-61037476D01*
X153255380Y-60132714D02*
X152588714Y-60132714D01*
X152683952Y-60132714D02*
X152636333Y-60085095D01*
X152588714Y-59989857D01*
X152588714Y-59847000D01*
X152636333Y-59751761D01*
X152731571Y-59704142D01*
X153255380Y-59704142D01*
X152731571Y-59704142D02*
X152636333Y-59656523D01*
X152588714Y-59561285D01*
X152588714Y-59418428D01*
X152636333Y-59323190D01*
X152731571Y-59275571D01*
X153255380Y-59275571D01*
X153255380Y-58370809D02*
X152731571Y-58370809D01*
X152636333Y-58418428D01*
X152588714Y-58513666D01*
X152588714Y-58704142D01*
X152636333Y-58799380D01*
X153207761Y-58370809D02*
X153255380Y-58466047D01*
X153255380Y-58704142D01*
X153207761Y-58799380D01*
X153112523Y-58847000D01*
X153017285Y-58847000D01*
X152922047Y-58799380D01*
X152874428Y-58704142D01*
X152874428Y-58466047D01*
X152826809Y-58370809D01*
X153255380Y-57751761D02*
X153207761Y-57847000D01*
X153112523Y-57894619D01*
X152255380Y-57894619D01*
X153207761Y-56989857D02*
X153255380Y-57085095D01*
X153255380Y-57275571D01*
X153207761Y-57370809D01*
X153112523Y-57418428D01*
X152731571Y-57418428D01*
X152636333Y-57370809D01*
X152588714Y-57275571D01*
X152588714Y-57085095D01*
X152636333Y-56989857D01*
X152731571Y-56942238D01*
X152826809Y-56942238D01*
X152922047Y-57418428D01*
X145829666Y-63799380D02*
X145829666Y-64513666D01*
X145782047Y-64656523D01*
X145686809Y-64751761D01*
X145543952Y-64799380D01*
X145448714Y-64799380D01*
X146305857Y-64799380D02*
X146305857Y-63799380D01*
X146686809Y-63799380D01*
X146782047Y-63847000D01*
X146829666Y-63894619D01*
X146877285Y-63989857D01*
X146877285Y-64132714D01*
X146829666Y-64227952D01*
X146782047Y-64275571D01*
X146686809Y-64323190D01*
X146305857Y-64323190D01*
X147448714Y-64227952D02*
X147353476Y-64180333D01*
X147305857Y-64132714D01*
X147258238Y-64037476D01*
X147258238Y-63989857D01*
X147305857Y-63894619D01*
X147353476Y-63847000D01*
X147448714Y-63799380D01*
X147639190Y-63799380D01*
X147734428Y-63847000D01*
X147782047Y-63894619D01*
X147829666Y-63989857D01*
X147829666Y-64037476D01*
X147782047Y-64132714D01*
X147734428Y-64180333D01*
X147639190Y-64227952D01*
X147448714Y-64227952D01*
X147353476Y-64275571D01*
X147305857Y-64323190D01*
X147258238Y-64418428D01*
X147258238Y-64608904D01*
X147305857Y-64704142D01*
X147353476Y-64751761D01*
X147448714Y-64799380D01*
X147639190Y-64799380D01*
X147734428Y-64751761D01*
X147782047Y-64704142D01*
X147829666Y-64608904D01*
X147829666Y-64418428D01*
X147782047Y-64323190D01*
X147734428Y-64275571D01*
X147639190Y-64227952D01*
G04 #@! TO.C,JP10*
X119759142Y-28587714D02*
X119806761Y-28635333D01*
X119854380Y-28778190D01*
X119854380Y-28873428D01*
X119806761Y-29016285D01*
X119711523Y-29111523D01*
X119616285Y-29159142D01*
X119425809Y-29206761D01*
X119282952Y-29206761D01*
X119092476Y-29159142D01*
X118997238Y-29111523D01*
X118902000Y-29016285D01*
X118854380Y-28873428D01*
X118854380Y-28778190D01*
X118902000Y-28635333D01*
X118949619Y-28587714D01*
X119854380Y-28016285D02*
X119806761Y-28111523D01*
X119759142Y-28159142D01*
X119663904Y-28206761D01*
X119378190Y-28206761D01*
X119282952Y-28159142D01*
X119235333Y-28111523D01*
X119187714Y-28016285D01*
X119187714Y-27873428D01*
X119235333Y-27778190D01*
X119282952Y-27730571D01*
X119378190Y-27682952D01*
X119663904Y-27682952D01*
X119759142Y-27730571D01*
X119806761Y-27778190D01*
X119854380Y-27873428D01*
X119854380Y-28016285D01*
X119187714Y-27254380D02*
X119854380Y-27254380D01*
X119282952Y-27254380D02*
X119235333Y-27206761D01*
X119187714Y-27111523D01*
X119187714Y-26968666D01*
X119235333Y-26873428D01*
X119330571Y-26825809D01*
X119854380Y-26825809D01*
X119187714Y-26349619D02*
X119854380Y-26349619D01*
X119282952Y-26349619D02*
X119235333Y-26302000D01*
X119187714Y-26206761D01*
X119187714Y-26063904D01*
X119235333Y-25968666D01*
X119330571Y-25921047D01*
X119854380Y-25921047D01*
X119949619Y-25682952D02*
X119949619Y-24921047D01*
X118854380Y-24492476D02*
X118854380Y-24397238D01*
X118902000Y-24302000D01*
X118949619Y-24254380D01*
X119044857Y-24206761D01*
X119235333Y-24159142D01*
X119473428Y-24159142D01*
X119663904Y-24206761D01*
X119759142Y-24254380D01*
X119806761Y-24302000D01*
X119854380Y-24397238D01*
X119854380Y-24492476D01*
X119806761Y-24587714D01*
X119759142Y-24635333D01*
X119663904Y-24682952D01*
X119473428Y-24730571D01*
X119235333Y-24730571D01*
X119044857Y-24682952D01*
X118949619Y-24635333D01*
X118902000Y-24587714D01*
X118854380Y-24492476D01*
X119854380Y-23206761D02*
X119854380Y-23778190D01*
X119854380Y-23492476D02*
X118854380Y-23492476D01*
X118997238Y-23587714D01*
X119092476Y-23682952D01*
X119140095Y-23778190D01*
X119854380Y-22873428D02*
X119187714Y-22349619D01*
X119187714Y-22873428D02*
X119854380Y-22349619D01*
X118854380Y-21778190D02*
X118854380Y-21682952D01*
X118902000Y-21587714D01*
X118949619Y-21540095D01*
X119044857Y-21492476D01*
X119235333Y-21444857D01*
X119473428Y-21444857D01*
X119663904Y-21492476D01*
X119759142Y-21540095D01*
X119806761Y-21587714D01*
X119854380Y-21682952D01*
X119854380Y-21778190D01*
X119806761Y-21873428D01*
X119759142Y-21921047D01*
X119663904Y-21968666D01*
X119473428Y-22016285D01*
X119235333Y-22016285D01*
X119044857Y-21968666D01*
X118949619Y-21921047D01*
X118902000Y-21873428D01*
X118854380Y-21778190D01*
X119187714Y-20587714D02*
X119854380Y-20587714D01*
X118806761Y-20825809D02*
X119521047Y-21063904D01*
X119521047Y-20444857D01*
X119949619Y-20302000D02*
X119949619Y-19540095D01*
X119330571Y-18968666D02*
X119330571Y-19302000D01*
X119854380Y-19302000D02*
X118854380Y-19302000D01*
X118854380Y-18825809D01*
X119806761Y-18063904D02*
X119854380Y-18159142D01*
X119854380Y-18349619D01*
X119806761Y-18444857D01*
X119711523Y-18492476D01*
X119330571Y-18492476D01*
X119235333Y-18444857D01*
X119187714Y-18349619D01*
X119187714Y-18159142D01*
X119235333Y-18063904D01*
X119330571Y-18016285D01*
X119425809Y-18016285D01*
X119521047Y-18492476D01*
X119854380Y-17587714D02*
X119187714Y-17587714D01*
X119282952Y-17587714D02*
X119235333Y-17540095D01*
X119187714Y-17444857D01*
X119187714Y-17302000D01*
X119235333Y-17206761D01*
X119330571Y-17159142D01*
X119854380Y-17159142D01*
X119330571Y-17159142D02*
X119235333Y-17111523D01*
X119187714Y-17016285D01*
X119187714Y-16873428D01*
X119235333Y-16778190D01*
X119330571Y-16730571D01*
X119854380Y-16730571D01*
X119854380Y-15825809D02*
X119330571Y-15825809D01*
X119235333Y-15873428D01*
X119187714Y-15968666D01*
X119187714Y-16159142D01*
X119235333Y-16254380D01*
X119806761Y-15825809D02*
X119854380Y-15921047D01*
X119854380Y-16159142D01*
X119806761Y-16254380D01*
X119711523Y-16302000D01*
X119616285Y-16302000D01*
X119521047Y-16254380D01*
X119473428Y-16159142D01*
X119473428Y-15921047D01*
X119425809Y-15825809D01*
X119854380Y-15206761D02*
X119806761Y-15302000D01*
X119711523Y-15349619D01*
X118854380Y-15349619D01*
X119806761Y-14444857D02*
X119854380Y-14540095D01*
X119854380Y-14730571D01*
X119806761Y-14825809D01*
X119711523Y-14873428D01*
X119330571Y-14873428D01*
X119235333Y-14825809D01*
X119187714Y-14730571D01*
X119187714Y-14540095D01*
X119235333Y-14444857D01*
X119330571Y-14397238D01*
X119425809Y-14397238D01*
X119521047Y-14873428D01*
X111952476Y-21254380D02*
X111952476Y-21968666D01*
X111904857Y-22111523D01*
X111809619Y-22206761D01*
X111666761Y-22254380D01*
X111571523Y-22254380D01*
X112428666Y-22254380D02*
X112428666Y-21254380D01*
X112809619Y-21254380D01*
X112904857Y-21302000D01*
X112952476Y-21349619D01*
X113000095Y-21444857D01*
X113000095Y-21587714D01*
X112952476Y-21682952D01*
X112904857Y-21730571D01*
X112809619Y-21778190D01*
X112428666Y-21778190D01*
X113952476Y-22254380D02*
X113381047Y-22254380D01*
X113666761Y-22254380D02*
X113666761Y-21254380D01*
X113571523Y-21397238D01*
X113476285Y-21492476D01*
X113381047Y-21540095D01*
X114571523Y-21254380D02*
X114666761Y-21254380D01*
X114762000Y-21302000D01*
X114809619Y-21349619D01*
X114857238Y-21444857D01*
X114904857Y-21635333D01*
X114904857Y-21873428D01*
X114857238Y-22063904D01*
X114809619Y-22159142D01*
X114762000Y-22206761D01*
X114666761Y-22254380D01*
X114571523Y-22254380D01*
X114476285Y-22206761D01*
X114428666Y-22159142D01*
X114381047Y-22063904D01*
X114333428Y-21873428D01*
X114333428Y-21635333D01*
X114381047Y-21444857D01*
X114428666Y-21349619D01*
X114476285Y-21302000D01*
X114571523Y-21254380D01*
G04 #@! TO.C,U2*
X140896380Y-145856857D02*
X140896380Y-146333047D01*
X139896380Y-146333047D01*
X140896380Y-145523523D02*
X139896380Y-145523523D01*
X140610666Y-145190190D01*
X139896380Y-144856857D01*
X140896380Y-144856857D01*
X140896380Y-143856857D02*
X140896380Y-144428285D01*
X140896380Y-144142571D02*
X139896380Y-144142571D01*
X140039238Y-144237809D01*
X140134476Y-144333047D01*
X140182095Y-144428285D01*
X139896380Y-143523523D02*
X139896380Y-142904476D01*
X140277333Y-143237809D01*
X140277333Y-143094952D01*
X140324952Y-142999714D01*
X140372571Y-142952095D01*
X140467809Y-142904476D01*
X140705904Y-142904476D01*
X140801142Y-142952095D01*
X140848761Y-142999714D01*
X140896380Y-143094952D01*
X140896380Y-143380666D01*
X140848761Y-143475904D01*
X140801142Y-143523523D01*
X139896380Y-142571142D02*
X139896380Y-141904476D01*
X140896380Y-142333047D01*
X139896380Y-141333047D02*
X139896380Y-141237809D01*
X139944000Y-141142571D01*
X139991619Y-141094952D01*
X140086857Y-141047333D01*
X140277333Y-140999714D01*
X140515428Y-140999714D01*
X140705904Y-141047333D01*
X140801142Y-141094952D01*
X140848761Y-141142571D01*
X140896380Y-141237809D01*
X140896380Y-141333047D01*
X140848761Y-141428285D01*
X140801142Y-141475904D01*
X140705904Y-141523523D01*
X140515428Y-141571142D01*
X140277333Y-141571142D01*
X140086857Y-141523523D01*
X139991619Y-141475904D01*
X139944000Y-141428285D01*
X139896380Y-141333047D01*
X139896380Y-140380666D02*
X139896380Y-140285428D01*
X139944000Y-140190190D01*
X139991619Y-140142571D01*
X140086857Y-140094952D01*
X140277333Y-140047333D01*
X140515428Y-140047333D01*
X140705904Y-140094952D01*
X140801142Y-140142571D01*
X140848761Y-140190190D01*
X140896380Y-140285428D01*
X140896380Y-140380666D01*
X140848761Y-140475904D01*
X140801142Y-140523523D01*
X140705904Y-140571142D01*
X140515428Y-140618761D01*
X140277333Y-140618761D01*
X140086857Y-140571142D01*
X139991619Y-140523523D01*
X139944000Y-140475904D01*
X139896380Y-140380666D01*
X133796380Y-143975904D02*
X134605904Y-143975904D01*
X134701142Y-143928285D01*
X134748761Y-143880666D01*
X134796380Y-143785428D01*
X134796380Y-143594952D01*
X134748761Y-143499714D01*
X134701142Y-143452095D01*
X134605904Y-143404476D01*
X133796380Y-143404476D01*
X133891619Y-142975904D02*
X133844000Y-142928285D01*
X133796380Y-142833047D01*
X133796380Y-142594952D01*
X133844000Y-142499714D01*
X133891619Y-142452095D01*
X133986857Y-142404476D01*
X134082095Y-142404476D01*
X134224952Y-142452095D01*
X134796380Y-143023523D01*
X134796380Y-142404476D01*
G04 #@! TD*
M02*
