G04 #@! TF.GenerationSoftware,KiCad,Pcbnew,(5.0.1)-4*
G04 #@! TF.CreationDate,2019-03-05T01:37:16-06:00*
G04 #@! TF.ProjectId,vca,7663612E6B696361645F706362000000,rev?*
G04 #@! TF.SameCoordinates,Original*
G04 #@! TF.FileFunction,Other,Comment*
%FSLAX46Y46*%
G04 Gerber Fmt 4.6, Leading zero omitted, Abs format (unit mm)*
G04 Created by KiCad (PCBNEW (5.0.1)-4) date 3/5/2019 1:37:16*
%MOMM*%
%LPD*%
G01*
G04 APERTURE LIST*
%ADD10C,0.051000*%
G04 APERTURE END LIST*
G04 #@! TO.C,J3*
D10*
X143773904Y-108466952D02*
X143773904Y-108066952D01*
X144002476Y-108466952D02*
X143831047Y-108238380D01*
X144002476Y-108066952D02*
X143773904Y-108295523D01*
X144173904Y-108257428D02*
X144307238Y-108257428D01*
X144364380Y-108466952D02*
X144173904Y-108466952D01*
X144173904Y-108066952D01*
X144364380Y-108066952D01*
X144535809Y-108257428D02*
X144669142Y-108257428D01*
X144726285Y-108466952D02*
X144535809Y-108466952D01*
X144535809Y-108066952D01*
X144726285Y-108066952D01*
X144897714Y-108466952D02*
X144897714Y-108066952D01*
X145050095Y-108066952D01*
X145088190Y-108086000D01*
X145107238Y-108105047D01*
X145126285Y-108143142D01*
X145126285Y-108200285D01*
X145107238Y-108238380D01*
X145088190Y-108257428D01*
X145050095Y-108276476D01*
X144897714Y-108276476D01*
X145373904Y-108066952D02*
X145450095Y-108066952D01*
X145488190Y-108086000D01*
X145526285Y-108124095D01*
X145545333Y-108200285D01*
X145545333Y-108333619D01*
X145526285Y-108409809D01*
X145488190Y-108447904D01*
X145450095Y-108466952D01*
X145373904Y-108466952D01*
X145335809Y-108447904D01*
X145297714Y-108409809D01*
X145278666Y-108333619D01*
X145278666Y-108200285D01*
X145297714Y-108124095D01*
X145335809Y-108086000D01*
X145373904Y-108066952D01*
X145716761Y-108066952D02*
X145716761Y-108390761D01*
X145735809Y-108428857D01*
X145754857Y-108447904D01*
X145792952Y-108466952D01*
X145869142Y-108466952D01*
X145907238Y-108447904D01*
X145926285Y-108428857D01*
X145945333Y-108390761D01*
X145945333Y-108066952D01*
X146078666Y-108066952D02*
X146307238Y-108066952D01*
X146192952Y-108466952D02*
X146192952Y-108066952D01*
G04 #@! TO.C,J2*
X128787904Y-108466952D02*
X128787904Y-108066952D01*
X129016476Y-108466952D02*
X128845047Y-108238380D01*
X129016476Y-108066952D02*
X128787904Y-108295523D01*
X129187904Y-108257428D02*
X129321238Y-108257428D01*
X129378380Y-108466952D02*
X129187904Y-108466952D01*
X129187904Y-108066952D01*
X129378380Y-108066952D01*
X129549809Y-108257428D02*
X129683142Y-108257428D01*
X129740285Y-108466952D02*
X129549809Y-108466952D01*
X129549809Y-108066952D01*
X129740285Y-108066952D01*
X129911714Y-108466952D02*
X129911714Y-108066952D01*
X130064095Y-108066952D01*
X130102190Y-108086000D01*
X130121238Y-108105047D01*
X130140285Y-108143142D01*
X130140285Y-108200285D01*
X130121238Y-108238380D01*
X130102190Y-108257428D01*
X130064095Y-108276476D01*
X129911714Y-108276476D01*
X130387904Y-108066952D02*
X130464095Y-108066952D01*
X130502190Y-108086000D01*
X130540285Y-108124095D01*
X130559333Y-108200285D01*
X130559333Y-108333619D01*
X130540285Y-108409809D01*
X130502190Y-108447904D01*
X130464095Y-108466952D01*
X130387904Y-108466952D01*
X130349809Y-108447904D01*
X130311714Y-108409809D01*
X130292666Y-108333619D01*
X130292666Y-108200285D01*
X130311714Y-108124095D01*
X130349809Y-108086000D01*
X130387904Y-108066952D01*
X130730761Y-108066952D02*
X130730761Y-108390761D01*
X130749809Y-108428857D01*
X130768857Y-108447904D01*
X130806952Y-108466952D01*
X130883142Y-108466952D01*
X130921238Y-108447904D01*
X130940285Y-108428857D01*
X130959333Y-108390761D01*
X130959333Y-108066952D01*
X131092666Y-108066952D02*
X131321238Y-108066952D01*
X131206952Y-108466952D02*
X131206952Y-108066952D01*
G04 #@! TO.C,J1*
X113801904Y-108466952D02*
X113801904Y-108066952D01*
X114030476Y-108466952D02*
X113859047Y-108238380D01*
X114030476Y-108066952D02*
X113801904Y-108295523D01*
X114201904Y-108257428D02*
X114335238Y-108257428D01*
X114392380Y-108466952D02*
X114201904Y-108466952D01*
X114201904Y-108066952D01*
X114392380Y-108066952D01*
X114563809Y-108257428D02*
X114697142Y-108257428D01*
X114754285Y-108466952D02*
X114563809Y-108466952D01*
X114563809Y-108066952D01*
X114754285Y-108066952D01*
X114925714Y-108466952D02*
X114925714Y-108066952D01*
X115078095Y-108066952D01*
X115116190Y-108086000D01*
X115135238Y-108105047D01*
X115154285Y-108143142D01*
X115154285Y-108200285D01*
X115135238Y-108238380D01*
X115116190Y-108257428D01*
X115078095Y-108276476D01*
X114925714Y-108276476D01*
X115401904Y-108066952D02*
X115478095Y-108066952D01*
X115516190Y-108086000D01*
X115554285Y-108124095D01*
X115573333Y-108200285D01*
X115573333Y-108333619D01*
X115554285Y-108409809D01*
X115516190Y-108447904D01*
X115478095Y-108466952D01*
X115401904Y-108466952D01*
X115363809Y-108447904D01*
X115325714Y-108409809D01*
X115306666Y-108333619D01*
X115306666Y-108200285D01*
X115325714Y-108124095D01*
X115363809Y-108086000D01*
X115401904Y-108066952D01*
X115744761Y-108066952D02*
X115744761Y-108390761D01*
X115763809Y-108428857D01*
X115782857Y-108447904D01*
X115820952Y-108466952D01*
X115897142Y-108466952D01*
X115935238Y-108447904D01*
X115954285Y-108428857D01*
X115973333Y-108390761D01*
X115973333Y-108066952D01*
X116106666Y-108066952D02*
X116335238Y-108066952D01*
X116220952Y-108466952D02*
X116220952Y-108066952D01*
G04 #@! TO.C,J4*
X143773904Y-86501952D02*
X143773904Y-86101952D01*
X144002476Y-86501952D02*
X143831047Y-86273380D01*
X144002476Y-86101952D02*
X143773904Y-86330523D01*
X144173904Y-86292428D02*
X144307238Y-86292428D01*
X144364380Y-86501952D02*
X144173904Y-86501952D01*
X144173904Y-86101952D01*
X144364380Y-86101952D01*
X144535809Y-86292428D02*
X144669142Y-86292428D01*
X144726285Y-86501952D02*
X144535809Y-86501952D01*
X144535809Y-86101952D01*
X144726285Y-86101952D01*
X144897714Y-86501952D02*
X144897714Y-86101952D01*
X145050095Y-86101952D01*
X145088190Y-86121000D01*
X145107238Y-86140047D01*
X145126285Y-86178142D01*
X145126285Y-86235285D01*
X145107238Y-86273380D01*
X145088190Y-86292428D01*
X145050095Y-86311476D01*
X144897714Y-86311476D01*
X145373904Y-86101952D02*
X145450095Y-86101952D01*
X145488190Y-86121000D01*
X145526285Y-86159095D01*
X145545333Y-86235285D01*
X145545333Y-86368619D01*
X145526285Y-86444809D01*
X145488190Y-86482904D01*
X145450095Y-86501952D01*
X145373904Y-86501952D01*
X145335809Y-86482904D01*
X145297714Y-86444809D01*
X145278666Y-86368619D01*
X145278666Y-86235285D01*
X145297714Y-86159095D01*
X145335809Y-86121000D01*
X145373904Y-86101952D01*
X145716761Y-86101952D02*
X145716761Y-86425761D01*
X145735809Y-86463857D01*
X145754857Y-86482904D01*
X145792952Y-86501952D01*
X145869142Y-86501952D01*
X145907238Y-86482904D01*
X145926285Y-86463857D01*
X145945333Y-86425761D01*
X145945333Y-86101952D01*
X146078666Y-86101952D02*
X146307238Y-86101952D01*
X146192952Y-86501952D02*
X146192952Y-86101952D01*
G04 #@! TO.C,J8*
X143773904Y-32018952D02*
X143773904Y-31618952D01*
X144002476Y-32018952D02*
X143831047Y-31790380D01*
X144002476Y-31618952D02*
X143773904Y-31847523D01*
X144173904Y-31809428D02*
X144307238Y-31809428D01*
X144364380Y-32018952D02*
X144173904Y-32018952D01*
X144173904Y-31618952D01*
X144364380Y-31618952D01*
X144535809Y-31809428D02*
X144669142Y-31809428D01*
X144726285Y-32018952D02*
X144535809Y-32018952D01*
X144535809Y-31618952D01*
X144726285Y-31618952D01*
X144897714Y-32018952D02*
X144897714Y-31618952D01*
X145050095Y-31618952D01*
X145088190Y-31638000D01*
X145107238Y-31657047D01*
X145126285Y-31695142D01*
X145126285Y-31752285D01*
X145107238Y-31790380D01*
X145088190Y-31809428D01*
X145050095Y-31828476D01*
X144897714Y-31828476D01*
X145373904Y-31618952D02*
X145450095Y-31618952D01*
X145488190Y-31638000D01*
X145526285Y-31676095D01*
X145545333Y-31752285D01*
X145545333Y-31885619D01*
X145526285Y-31961809D01*
X145488190Y-31999904D01*
X145450095Y-32018952D01*
X145373904Y-32018952D01*
X145335809Y-31999904D01*
X145297714Y-31961809D01*
X145278666Y-31885619D01*
X145278666Y-31752285D01*
X145297714Y-31676095D01*
X145335809Y-31638000D01*
X145373904Y-31618952D01*
X145716761Y-31618952D02*
X145716761Y-31942761D01*
X145735809Y-31980857D01*
X145754857Y-31999904D01*
X145792952Y-32018952D01*
X145869142Y-32018952D01*
X145907238Y-31999904D01*
X145926285Y-31980857D01*
X145945333Y-31942761D01*
X145945333Y-31618952D01*
X146078666Y-31618952D02*
X146307238Y-31618952D01*
X146192952Y-32018952D02*
X146192952Y-31618952D01*
G04 #@! TO.C,J7*
X143773904Y-54364952D02*
X143773904Y-53964952D01*
X144002476Y-54364952D02*
X143831047Y-54136380D01*
X144002476Y-53964952D02*
X143773904Y-54193523D01*
X144173904Y-54155428D02*
X144307238Y-54155428D01*
X144364380Y-54364952D02*
X144173904Y-54364952D01*
X144173904Y-53964952D01*
X144364380Y-53964952D01*
X144535809Y-54155428D02*
X144669142Y-54155428D01*
X144726285Y-54364952D02*
X144535809Y-54364952D01*
X144535809Y-53964952D01*
X144726285Y-53964952D01*
X144897714Y-54364952D02*
X144897714Y-53964952D01*
X145050095Y-53964952D01*
X145088190Y-53984000D01*
X145107238Y-54003047D01*
X145126285Y-54041142D01*
X145126285Y-54098285D01*
X145107238Y-54136380D01*
X145088190Y-54155428D01*
X145050095Y-54174476D01*
X144897714Y-54174476D01*
X145373904Y-53964952D02*
X145450095Y-53964952D01*
X145488190Y-53984000D01*
X145526285Y-54022095D01*
X145545333Y-54098285D01*
X145545333Y-54231619D01*
X145526285Y-54307809D01*
X145488190Y-54345904D01*
X145450095Y-54364952D01*
X145373904Y-54364952D01*
X145335809Y-54345904D01*
X145297714Y-54307809D01*
X145278666Y-54231619D01*
X145278666Y-54098285D01*
X145297714Y-54022095D01*
X145335809Y-53984000D01*
X145373904Y-53964952D01*
X145716761Y-53964952D02*
X145716761Y-54288761D01*
X145735809Y-54326857D01*
X145754857Y-54345904D01*
X145792952Y-54364952D01*
X145869142Y-54364952D01*
X145907238Y-54345904D01*
X145926285Y-54326857D01*
X145945333Y-54288761D01*
X145945333Y-53964952D01*
X146078666Y-53964952D02*
X146307238Y-53964952D01*
X146192952Y-54364952D02*
X146192952Y-53964952D01*
G04 #@! TO.C,J6*
X128787904Y-54364952D02*
X128787904Y-53964952D01*
X129016476Y-54364952D02*
X128845047Y-54136380D01*
X129016476Y-53964952D02*
X128787904Y-54193523D01*
X129187904Y-54155428D02*
X129321238Y-54155428D01*
X129378380Y-54364952D02*
X129187904Y-54364952D01*
X129187904Y-53964952D01*
X129378380Y-53964952D01*
X129549809Y-54155428D02*
X129683142Y-54155428D01*
X129740285Y-54364952D02*
X129549809Y-54364952D01*
X129549809Y-53964952D01*
X129740285Y-53964952D01*
X129911714Y-54364952D02*
X129911714Y-53964952D01*
X130064095Y-53964952D01*
X130102190Y-53984000D01*
X130121238Y-54003047D01*
X130140285Y-54041142D01*
X130140285Y-54098285D01*
X130121238Y-54136380D01*
X130102190Y-54155428D01*
X130064095Y-54174476D01*
X129911714Y-54174476D01*
X130387904Y-53964952D02*
X130464095Y-53964952D01*
X130502190Y-53984000D01*
X130540285Y-54022095D01*
X130559333Y-54098285D01*
X130559333Y-54231619D01*
X130540285Y-54307809D01*
X130502190Y-54345904D01*
X130464095Y-54364952D01*
X130387904Y-54364952D01*
X130349809Y-54345904D01*
X130311714Y-54307809D01*
X130292666Y-54231619D01*
X130292666Y-54098285D01*
X130311714Y-54022095D01*
X130349809Y-53984000D01*
X130387904Y-53964952D01*
X130730761Y-53964952D02*
X130730761Y-54288761D01*
X130749809Y-54326857D01*
X130768857Y-54345904D01*
X130806952Y-54364952D01*
X130883142Y-54364952D01*
X130921238Y-54345904D01*
X130940285Y-54326857D01*
X130959333Y-54288761D01*
X130959333Y-53964952D01*
X131092666Y-53964952D02*
X131321238Y-53964952D01*
X131206952Y-54364952D02*
X131206952Y-53964952D01*
G04 #@! TO.C,J5*
X113801904Y-54364952D02*
X113801904Y-53964952D01*
X114030476Y-54364952D02*
X113859047Y-54136380D01*
X114030476Y-53964952D02*
X113801904Y-54193523D01*
X114201904Y-54155428D02*
X114335238Y-54155428D01*
X114392380Y-54364952D02*
X114201904Y-54364952D01*
X114201904Y-53964952D01*
X114392380Y-53964952D01*
X114563809Y-54155428D02*
X114697142Y-54155428D01*
X114754285Y-54364952D02*
X114563809Y-54364952D01*
X114563809Y-53964952D01*
X114754285Y-53964952D01*
X114925714Y-54364952D02*
X114925714Y-53964952D01*
X115078095Y-53964952D01*
X115116190Y-53984000D01*
X115135238Y-54003047D01*
X115154285Y-54041142D01*
X115154285Y-54098285D01*
X115135238Y-54136380D01*
X115116190Y-54155428D01*
X115078095Y-54174476D01*
X114925714Y-54174476D01*
X115401904Y-53964952D02*
X115478095Y-53964952D01*
X115516190Y-53984000D01*
X115554285Y-54022095D01*
X115573333Y-54098285D01*
X115573333Y-54231619D01*
X115554285Y-54307809D01*
X115516190Y-54345904D01*
X115478095Y-54364952D01*
X115401904Y-54364952D01*
X115363809Y-54345904D01*
X115325714Y-54307809D01*
X115306666Y-54231619D01*
X115306666Y-54098285D01*
X115325714Y-54022095D01*
X115363809Y-53984000D01*
X115401904Y-53964952D01*
X115744761Y-53964952D02*
X115744761Y-54288761D01*
X115763809Y-54326857D01*
X115782857Y-54345904D01*
X115820952Y-54364952D01*
X115897142Y-54364952D01*
X115935238Y-54345904D01*
X115954285Y-54326857D01*
X115973333Y-54288761D01*
X115973333Y-53964952D01*
X116106666Y-53964952D02*
X116335238Y-53964952D01*
X116220952Y-54364952D02*
X116220952Y-53964952D01*
G04 #@! TD*
M02*
