G04 #@! TF.GenerationSoftware,KiCad,Pcbnew,(5.0.1)-4*
G04 #@! TF.CreationDate,2019-03-05T01:37:16-06:00*
G04 #@! TF.ProjectId,vca,7663612E6B696361645F706362000000,rev?*
G04 #@! TF.SameCoordinates,Original*
G04 #@! TF.FileFunction,Other,User*
%FSLAX46Y46*%
G04 Gerber Fmt 4.6, Leading zero omitted, Abs format (unit mm)*
G04 Created by KiCad (PCBNEW (5.0.1)-4) date 3/5/2019 1:37:16*
%MOMM*%
%LPD*%
G01*
G04 APERTURE LIST*
%ADD10C,0.050000*%
%ADD11C,0.150000*%
G04 APERTURE END LIST*
D10*
G04 #@! TO.C,RV10*
X125079000Y-93818000D02*
X111779000Y-93818000D01*
X111779000Y-93818000D02*
X111779000Y-80018000D01*
X111779000Y-80018000D02*
X125079000Y-80018000D01*
X125079000Y-80018000D02*
X125079000Y-93818000D01*
G04 #@! TO.C,RV32*
X125079000Y-39589000D02*
X111779000Y-39589000D01*
X111779000Y-39589000D02*
X111779000Y-25789000D01*
X111779000Y-25789000D02*
X125079000Y-25789000D01*
X125079000Y-25789000D02*
X125079000Y-39589000D01*
D11*
G04 #@! TO.C,SW2*
X138458800Y-36813400D02*
X130229200Y-36813400D01*
X130229200Y-22792600D02*
X130229200Y-36813400D01*
X138458800Y-22792600D02*
X138458800Y-36813400D01*
X138458800Y-22792600D02*
X130229200Y-22792600D01*
G04 #@! TO.C,SW1*
X138458800Y-91169400D02*
X130229200Y-91169400D01*
X130229200Y-77148600D02*
X130229200Y-91169400D01*
X138458800Y-77148600D02*
X138458800Y-91169400D01*
X138458800Y-77148600D02*
X130229200Y-77148600D01*
D10*
G04 #@! TO.C,J3*
X140012000Y-101516000D02*
X140012000Y-116346000D01*
X150012000Y-101516000D02*
X150012000Y-116346000D01*
X150012000Y-101516000D02*
X140012000Y-101516000D01*
X150012000Y-116346000D02*
X140012000Y-116346000D01*
G04 #@! TO.C,J2*
X125026000Y-101516000D02*
X125026000Y-116346000D01*
X135026000Y-101516000D02*
X135026000Y-116346000D01*
X135026000Y-101516000D02*
X125026000Y-101516000D01*
X135026000Y-116346000D02*
X125026000Y-116346000D01*
G04 #@! TO.C,J1*
X110040000Y-101516000D02*
X110040000Y-116346000D01*
X120040000Y-101516000D02*
X120040000Y-116346000D01*
X120040000Y-101516000D02*
X110040000Y-101516000D01*
X120040000Y-116346000D02*
X110040000Y-116346000D01*
G04 #@! TO.C,J4*
X150012000Y-93091000D02*
X150012000Y-78261000D01*
X140012000Y-93091000D02*
X140012000Y-78261000D01*
X140012000Y-93091000D02*
X150012000Y-93091000D01*
X140012000Y-78261000D02*
X150012000Y-78261000D01*
G04 #@! TO.C,J8*
X150012000Y-38608000D02*
X150012000Y-23778000D01*
X140012000Y-38608000D02*
X140012000Y-23778000D01*
X140012000Y-38608000D02*
X150012000Y-38608000D01*
X140012000Y-23778000D02*
X150012000Y-23778000D01*
G04 #@! TO.C,J7*
X140012000Y-47414000D02*
X140012000Y-62244000D01*
X150012000Y-47414000D02*
X150012000Y-62244000D01*
X150012000Y-47414000D02*
X140012000Y-47414000D01*
X150012000Y-62244000D02*
X140012000Y-62244000D01*
G04 #@! TO.C,J6*
X125026000Y-47414000D02*
X125026000Y-62244000D01*
X135026000Y-47414000D02*
X135026000Y-62244000D01*
X135026000Y-47414000D02*
X125026000Y-47414000D01*
X135026000Y-62244000D02*
X125026000Y-62244000D01*
G04 #@! TO.C,J5*
X110040000Y-47414000D02*
X110040000Y-62244000D01*
X120040000Y-47414000D02*
X120040000Y-62244000D01*
X120040000Y-47414000D02*
X110040000Y-47414000D01*
X120040000Y-62244000D02*
X110040000Y-62244000D01*
G04 #@! TO.C,JP1*
X128651000Y-118554000D02*
X128651000Y-122154000D01*
X120001000Y-118554000D02*
X128651000Y-118554000D01*
X120001000Y-122154000D02*
X120001000Y-118554000D01*
X128651000Y-122154000D02*
X120001000Y-122154000D01*
G04 #@! TO.C,JP3*
X107525000Y-165334000D02*
X107525000Y-161734000D01*
X118725000Y-165334000D02*
X107525000Y-165334000D01*
X118725000Y-161734000D02*
X118725000Y-165334000D01*
X107525000Y-161734000D02*
X118725000Y-161734000D01*
G04 #@! TO.C,JP5*
X140926000Y-122789000D02*
X140926000Y-119189000D01*
X152126000Y-122789000D02*
X140926000Y-122789000D01*
X152126000Y-119189000D02*
X152126000Y-122789000D01*
X140926000Y-119189000D02*
X152126000Y-119189000D01*
G04 #@! TO.C,JP7*
X140926000Y-165334000D02*
X140926000Y-161734000D01*
X152126000Y-165334000D02*
X140926000Y-165334000D01*
X152126000Y-161734000D02*
X152126000Y-165334000D01*
X140926000Y-161734000D02*
X152126000Y-161734000D01*
G04 #@! TO.C,JP9*
X107525000Y-122789000D02*
X107525000Y-119189000D01*
X118725000Y-122789000D02*
X107525000Y-122789000D01*
X118725000Y-119189000D02*
X118725000Y-122789000D01*
X107525000Y-119189000D02*
X118725000Y-119189000D01*
G04 #@! TD*
M02*
