G04 #@! TF.GenerationSoftware,KiCad,Pcbnew,(5.0.1)-4*
G04 #@! TF.CreationDate,2019-03-05T01:37:15-06:00*
G04 #@! TF.ProjectId,vca,7663612E6B696361645F706362000000,rev?*
G04 #@! TF.SameCoordinates,Original*
G04 #@! TF.FileFunction,Soldermask,Bot*
G04 #@! TF.FilePolarity,Negative*
%FSLAX46Y46*%
G04 Gerber Fmt 4.6, Leading zero omitted, Abs format (unit mm)*
G04 Created by KiCad (PCBNEW (5.0.1)-4) date 3/5/2019 1:37:15*
%MOMM*%
%LPD*%
G01*
G04 APERTURE LIST*
%ADD10C,0.100000*%
G04 APERTURE END LIST*
D10*
G36*
X117055443Y-162639519D02*
X117121627Y-162646037D01*
X117234853Y-162680384D01*
X117291467Y-162697557D01*
X117430087Y-162771652D01*
X117447991Y-162781222D01*
X117483729Y-162810552D01*
X117585186Y-162893814D01*
X117668448Y-162995271D01*
X117697778Y-163031009D01*
X117697779Y-163031011D01*
X117781443Y-163187533D01*
X117781443Y-163187534D01*
X117832963Y-163357373D01*
X117850359Y-163534000D01*
X117832963Y-163710627D01*
X117798616Y-163823853D01*
X117781443Y-163880467D01*
X117707348Y-164019087D01*
X117697778Y-164036991D01*
X117668448Y-164072729D01*
X117585186Y-164174186D01*
X117483729Y-164257448D01*
X117447991Y-164286778D01*
X117447989Y-164286779D01*
X117291467Y-164370443D01*
X117234853Y-164387616D01*
X117121627Y-164421963D01*
X117055443Y-164428481D01*
X116989260Y-164435000D01*
X116900740Y-164435000D01*
X116834557Y-164428481D01*
X116768373Y-164421963D01*
X116655147Y-164387616D01*
X116598533Y-164370443D01*
X116442011Y-164286779D01*
X116442009Y-164286778D01*
X116406271Y-164257448D01*
X116304814Y-164174186D01*
X116221552Y-164072729D01*
X116192222Y-164036991D01*
X116182652Y-164019087D01*
X116108557Y-163880467D01*
X116091384Y-163823853D01*
X116057037Y-163710627D01*
X116039641Y-163534000D01*
X116057037Y-163357373D01*
X116108557Y-163187534D01*
X116108557Y-163187533D01*
X116192221Y-163031011D01*
X116192222Y-163031009D01*
X116221552Y-162995271D01*
X116304814Y-162893814D01*
X116406271Y-162810552D01*
X116442009Y-162781222D01*
X116459913Y-162771652D01*
X116598533Y-162697557D01*
X116655147Y-162680384D01*
X116768373Y-162646037D01*
X116834557Y-162639519D01*
X116900740Y-162633000D01*
X116989260Y-162633000D01*
X117055443Y-162639519D01*
X117055443Y-162639519D01*
G37*
G36*
X147916443Y-162639519D02*
X147982627Y-162646037D01*
X148095853Y-162680384D01*
X148152467Y-162697557D01*
X148291087Y-162771652D01*
X148308991Y-162781222D01*
X148344729Y-162810552D01*
X148446186Y-162893814D01*
X148529448Y-162995271D01*
X148558778Y-163031009D01*
X148558779Y-163031011D01*
X148642443Y-163187533D01*
X148642443Y-163187534D01*
X148693963Y-163357373D01*
X148711359Y-163534000D01*
X148693963Y-163710627D01*
X148659616Y-163823853D01*
X148642443Y-163880467D01*
X148568348Y-164019087D01*
X148558778Y-164036991D01*
X148529448Y-164072729D01*
X148446186Y-164174186D01*
X148344729Y-164257448D01*
X148308991Y-164286778D01*
X148308989Y-164286779D01*
X148152467Y-164370443D01*
X148095853Y-164387616D01*
X147982627Y-164421963D01*
X147916443Y-164428481D01*
X147850260Y-164435000D01*
X147761740Y-164435000D01*
X147695557Y-164428481D01*
X147629373Y-164421963D01*
X147516147Y-164387616D01*
X147459533Y-164370443D01*
X147303011Y-164286779D01*
X147303009Y-164286778D01*
X147267271Y-164257448D01*
X147165814Y-164174186D01*
X147082552Y-164072729D01*
X147053222Y-164036991D01*
X147043652Y-164019087D01*
X146969557Y-163880467D01*
X146952384Y-163823853D01*
X146918037Y-163710627D01*
X146900641Y-163534000D01*
X146918037Y-163357373D01*
X146969557Y-163187534D01*
X146969557Y-163187533D01*
X147053221Y-163031011D01*
X147053222Y-163031009D01*
X147082552Y-162995271D01*
X147165814Y-162893814D01*
X147267271Y-162810552D01*
X147303009Y-162781222D01*
X147320913Y-162771652D01*
X147459533Y-162697557D01*
X147516147Y-162680384D01*
X147629373Y-162646037D01*
X147695557Y-162639519D01*
X147761740Y-162633000D01*
X147850260Y-162633000D01*
X147916443Y-162639519D01*
X147916443Y-162639519D01*
G37*
G36*
X143627000Y-164435000D02*
X141825000Y-164435000D01*
X141825000Y-162633000D01*
X143627000Y-162633000D01*
X143627000Y-164435000D01*
X143627000Y-164435000D01*
G37*
G36*
X145376443Y-162639519D02*
X145442627Y-162646037D01*
X145555853Y-162680384D01*
X145612467Y-162697557D01*
X145751087Y-162771652D01*
X145768991Y-162781222D01*
X145804729Y-162810552D01*
X145906186Y-162893814D01*
X145989448Y-162995271D01*
X146018778Y-163031009D01*
X146018779Y-163031011D01*
X146102443Y-163187533D01*
X146102443Y-163187534D01*
X146153963Y-163357373D01*
X146171359Y-163534000D01*
X146153963Y-163710627D01*
X146119616Y-163823853D01*
X146102443Y-163880467D01*
X146028348Y-164019087D01*
X146018778Y-164036991D01*
X145989448Y-164072729D01*
X145906186Y-164174186D01*
X145804729Y-164257448D01*
X145768991Y-164286778D01*
X145768989Y-164286779D01*
X145612467Y-164370443D01*
X145555853Y-164387616D01*
X145442627Y-164421963D01*
X145376443Y-164428481D01*
X145310260Y-164435000D01*
X145221740Y-164435000D01*
X145155557Y-164428481D01*
X145089373Y-164421963D01*
X144976147Y-164387616D01*
X144919533Y-164370443D01*
X144763011Y-164286779D01*
X144763009Y-164286778D01*
X144727271Y-164257448D01*
X144625814Y-164174186D01*
X144542552Y-164072729D01*
X144513222Y-164036991D01*
X144503652Y-164019087D01*
X144429557Y-163880467D01*
X144412384Y-163823853D01*
X144378037Y-163710627D01*
X144360641Y-163534000D01*
X144378037Y-163357373D01*
X144429557Y-163187534D01*
X144429557Y-163187533D01*
X144513221Y-163031011D01*
X144513222Y-163031009D01*
X144542552Y-162995271D01*
X144625814Y-162893814D01*
X144727271Y-162810552D01*
X144763009Y-162781222D01*
X144780913Y-162771652D01*
X144919533Y-162697557D01*
X144976147Y-162680384D01*
X145089373Y-162646037D01*
X145155557Y-162639519D01*
X145221740Y-162633000D01*
X145310260Y-162633000D01*
X145376443Y-162639519D01*
X145376443Y-162639519D01*
G37*
G36*
X150456443Y-162639519D02*
X150522627Y-162646037D01*
X150635853Y-162680384D01*
X150692467Y-162697557D01*
X150831087Y-162771652D01*
X150848991Y-162781222D01*
X150884729Y-162810552D01*
X150986186Y-162893814D01*
X151069448Y-162995271D01*
X151098778Y-163031009D01*
X151098779Y-163031011D01*
X151182443Y-163187533D01*
X151182443Y-163187534D01*
X151233963Y-163357373D01*
X151251359Y-163534000D01*
X151233963Y-163710627D01*
X151199616Y-163823853D01*
X151182443Y-163880467D01*
X151108348Y-164019087D01*
X151098778Y-164036991D01*
X151069448Y-164072729D01*
X150986186Y-164174186D01*
X150884729Y-164257448D01*
X150848991Y-164286778D01*
X150848989Y-164286779D01*
X150692467Y-164370443D01*
X150635853Y-164387616D01*
X150522627Y-164421963D01*
X150456443Y-164428481D01*
X150390260Y-164435000D01*
X150301740Y-164435000D01*
X150235557Y-164428481D01*
X150169373Y-164421963D01*
X150056147Y-164387616D01*
X149999533Y-164370443D01*
X149843011Y-164286779D01*
X149843009Y-164286778D01*
X149807271Y-164257448D01*
X149705814Y-164174186D01*
X149622552Y-164072729D01*
X149593222Y-164036991D01*
X149583652Y-164019087D01*
X149509557Y-163880467D01*
X149492384Y-163823853D01*
X149458037Y-163710627D01*
X149440641Y-163534000D01*
X149458037Y-163357373D01*
X149509557Y-163187534D01*
X149509557Y-163187533D01*
X149593221Y-163031011D01*
X149593222Y-163031009D01*
X149622552Y-162995271D01*
X149705814Y-162893814D01*
X149807271Y-162810552D01*
X149843009Y-162781222D01*
X149860913Y-162771652D01*
X149999533Y-162697557D01*
X150056147Y-162680384D01*
X150169373Y-162646037D01*
X150235557Y-162639519D01*
X150301740Y-162633000D01*
X150390260Y-162633000D01*
X150456443Y-162639519D01*
X150456443Y-162639519D01*
G37*
G36*
X111975443Y-162639519D02*
X112041627Y-162646037D01*
X112154853Y-162680384D01*
X112211467Y-162697557D01*
X112350087Y-162771652D01*
X112367991Y-162781222D01*
X112403729Y-162810552D01*
X112505186Y-162893814D01*
X112588448Y-162995271D01*
X112617778Y-163031009D01*
X112617779Y-163031011D01*
X112701443Y-163187533D01*
X112701443Y-163187534D01*
X112752963Y-163357373D01*
X112770359Y-163534000D01*
X112752963Y-163710627D01*
X112718616Y-163823853D01*
X112701443Y-163880467D01*
X112627348Y-164019087D01*
X112617778Y-164036991D01*
X112588448Y-164072729D01*
X112505186Y-164174186D01*
X112403729Y-164257448D01*
X112367991Y-164286778D01*
X112367989Y-164286779D01*
X112211467Y-164370443D01*
X112154853Y-164387616D01*
X112041627Y-164421963D01*
X111975443Y-164428481D01*
X111909260Y-164435000D01*
X111820740Y-164435000D01*
X111754557Y-164428481D01*
X111688373Y-164421963D01*
X111575147Y-164387616D01*
X111518533Y-164370443D01*
X111362011Y-164286779D01*
X111362009Y-164286778D01*
X111326271Y-164257448D01*
X111224814Y-164174186D01*
X111141552Y-164072729D01*
X111112222Y-164036991D01*
X111102652Y-164019087D01*
X111028557Y-163880467D01*
X111011384Y-163823853D01*
X110977037Y-163710627D01*
X110959641Y-163534000D01*
X110977037Y-163357373D01*
X111028557Y-163187534D01*
X111028557Y-163187533D01*
X111112221Y-163031011D01*
X111112222Y-163031009D01*
X111141552Y-162995271D01*
X111224814Y-162893814D01*
X111326271Y-162810552D01*
X111362009Y-162781222D01*
X111379913Y-162771652D01*
X111518533Y-162697557D01*
X111575147Y-162680384D01*
X111688373Y-162646037D01*
X111754557Y-162639519D01*
X111820740Y-162633000D01*
X111909260Y-162633000D01*
X111975443Y-162639519D01*
X111975443Y-162639519D01*
G37*
G36*
X114515443Y-162639519D02*
X114581627Y-162646037D01*
X114694853Y-162680384D01*
X114751467Y-162697557D01*
X114890087Y-162771652D01*
X114907991Y-162781222D01*
X114943729Y-162810552D01*
X115045186Y-162893814D01*
X115128448Y-162995271D01*
X115157778Y-163031009D01*
X115157779Y-163031011D01*
X115241443Y-163187533D01*
X115241443Y-163187534D01*
X115292963Y-163357373D01*
X115310359Y-163534000D01*
X115292963Y-163710627D01*
X115258616Y-163823853D01*
X115241443Y-163880467D01*
X115167348Y-164019087D01*
X115157778Y-164036991D01*
X115128448Y-164072729D01*
X115045186Y-164174186D01*
X114943729Y-164257448D01*
X114907991Y-164286778D01*
X114907989Y-164286779D01*
X114751467Y-164370443D01*
X114694853Y-164387616D01*
X114581627Y-164421963D01*
X114515443Y-164428481D01*
X114449260Y-164435000D01*
X114360740Y-164435000D01*
X114294557Y-164428481D01*
X114228373Y-164421963D01*
X114115147Y-164387616D01*
X114058533Y-164370443D01*
X113902011Y-164286779D01*
X113902009Y-164286778D01*
X113866271Y-164257448D01*
X113764814Y-164174186D01*
X113681552Y-164072729D01*
X113652222Y-164036991D01*
X113642652Y-164019087D01*
X113568557Y-163880467D01*
X113551384Y-163823853D01*
X113517037Y-163710627D01*
X113499641Y-163534000D01*
X113517037Y-163357373D01*
X113568557Y-163187534D01*
X113568557Y-163187533D01*
X113652221Y-163031011D01*
X113652222Y-163031009D01*
X113681552Y-162995271D01*
X113764814Y-162893814D01*
X113866271Y-162810552D01*
X113902009Y-162781222D01*
X113919913Y-162771652D01*
X114058533Y-162697557D01*
X114115147Y-162680384D01*
X114228373Y-162646037D01*
X114294557Y-162639519D01*
X114360740Y-162633000D01*
X114449260Y-162633000D01*
X114515443Y-162639519D01*
X114515443Y-162639519D01*
G37*
G36*
X110226000Y-164435000D02*
X108424000Y-164435000D01*
X108424000Y-162633000D01*
X110226000Y-162633000D01*
X110226000Y-164435000D01*
X110226000Y-164435000D01*
G37*
G36*
X123118472Y-160573938D02*
X123246049Y-160626782D01*
X123360865Y-160703500D01*
X123458500Y-160801135D01*
X123535218Y-160915951D01*
X123588062Y-161043528D01*
X123615000Y-161178956D01*
X123615000Y-161317044D01*
X123588062Y-161452472D01*
X123535218Y-161580049D01*
X123506817Y-161622554D01*
X123495266Y-161644165D01*
X123488153Y-161667614D01*
X123485751Y-161692000D01*
X123488153Y-161716386D01*
X123495266Y-161739836D01*
X123506817Y-161761446D01*
X123522363Y-161780388D01*
X123541305Y-161795934D01*
X123562916Y-161807485D01*
X123586365Y-161814598D01*
X123610751Y-161817000D01*
X124885000Y-161817000D01*
X124885000Y-163219000D01*
X123483000Y-163219000D01*
X123483000Y-161944751D01*
X123480598Y-161920365D01*
X123473485Y-161896916D01*
X123461934Y-161875305D01*
X123446388Y-161856363D01*
X123427446Y-161840817D01*
X123405835Y-161829266D01*
X123382386Y-161822153D01*
X123358000Y-161819751D01*
X123333614Y-161822153D01*
X123310165Y-161829266D01*
X123288554Y-161840817D01*
X123246049Y-161869218D01*
X123118472Y-161922062D01*
X122983044Y-161949000D01*
X122844956Y-161949000D01*
X122709528Y-161922062D01*
X122581951Y-161869218D01*
X122467135Y-161792500D01*
X122369500Y-161694865D01*
X122292782Y-161580049D01*
X122239938Y-161452472D01*
X122213000Y-161317044D01*
X122213000Y-161178956D01*
X122239938Y-161043528D01*
X122292782Y-160915951D01*
X122369500Y-160801135D01*
X122467135Y-160703500D01*
X122581951Y-160626782D01*
X122709528Y-160573938D01*
X122844956Y-160547000D01*
X122983044Y-160547000D01*
X123118472Y-160573938D01*
X123118472Y-160573938D01*
G37*
G36*
X131754472Y-160573938D02*
X131882049Y-160626782D01*
X131996865Y-160703500D01*
X132094500Y-160801135D01*
X132171218Y-160915951D01*
X132224062Y-161043528D01*
X132251000Y-161178956D01*
X132251000Y-161317044D01*
X132224062Y-161452472D01*
X132171218Y-161580049D01*
X132142817Y-161622554D01*
X132131266Y-161644165D01*
X132124153Y-161667614D01*
X132121751Y-161692000D01*
X132124153Y-161716386D01*
X132131266Y-161739836D01*
X132142817Y-161761446D01*
X132158363Y-161780388D01*
X132177305Y-161795934D01*
X132198916Y-161807485D01*
X132222365Y-161814598D01*
X132246751Y-161817000D01*
X133521000Y-161817000D01*
X133521000Y-163219000D01*
X132119000Y-163219000D01*
X132119000Y-161944751D01*
X132116598Y-161920365D01*
X132109485Y-161896916D01*
X132097934Y-161875305D01*
X132082388Y-161856363D01*
X132063446Y-161840817D01*
X132041835Y-161829266D01*
X132018386Y-161822153D01*
X131994000Y-161819751D01*
X131969614Y-161822153D01*
X131946165Y-161829266D01*
X131924554Y-161840817D01*
X131882049Y-161869218D01*
X131754472Y-161922062D01*
X131619044Y-161949000D01*
X131480956Y-161949000D01*
X131345528Y-161922062D01*
X131217951Y-161869218D01*
X131103135Y-161792500D01*
X131005500Y-161694865D01*
X130928782Y-161580049D01*
X130875938Y-161452472D01*
X130849000Y-161317044D01*
X130849000Y-161178956D01*
X130875938Y-161043528D01*
X130928782Y-160915951D01*
X131005500Y-160801135D01*
X131103135Y-160703500D01*
X131217951Y-160626782D01*
X131345528Y-160573938D01*
X131480956Y-160547000D01*
X131619044Y-160547000D01*
X131754472Y-160573938D01*
X131754472Y-160573938D01*
G37*
G36*
X124388472Y-159303938D02*
X124516049Y-159356782D01*
X124630865Y-159433500D01*
X124728500Y-159531135D01*
X124805218Y-159645951D01*
X124858062Y-159773528D01*
X124885000Y-159908956D01*
X124885000Y-160047044D01*
X124858062Y-160182472D01*
X124805218Y-160310049D01*
X124728500Y-160424865D01*
X124630865Y-160522500D01*
X124516049Y-160599218D01*
X124388472Y-160652062D01*
X124253044Y-160679000D01*
X124114956Y-160679000D01*
X123979528Y-160652062D01*
X123851951Y-160599218D01*
X123737135Y-160522500D01*
X123639500Y-160424865D01*
X123562782Y-160310049D01*
X123509938Y-160182472D01*
X123483000Y-160047044D01*
X123483000Y-159908956D01*
X123509938Y-159773528D01*
X123562782Y-159645951D01*
X123639500Y-159531135D01*
X123737135Y-159433500D01*
X123851951Y-159356782D01*
X123979528Y-159303938D01*
X124114956Y-159277000D01*
X124253044Y-159277000D01*
X124388472Y-159303938D01*
X124388472Y-159303938D01*
G37*
G36*
X133024472Y-159303938D02*
X133152049Y-159356782D01*
X133266865Y-159433500D01*
X133364500Y-159531135D01*
X133441218Y-159645951D01*
X133494062Y-159773528D01*
X133521000Y-159908956D01*
X133521000Y-160047044D01*
X133494062Y-160182472D01*
X133441218Y-160310049D01*
X133364500Y-160424865D01*
X133266865Y-160522500D01*
X133152049Y-160599218D01*
X133024472Y-160652062D01*
X132889044Y-160679000D01*
X132750956Y-160679000D01*
X132615528Y-160652062D01*
X132487951Y-160599218D01*
X132373135Y-160522500D01*
X132275500Y-160424865D01*
X132198782Y-160310049D01*
X132145938Y-160182472D01*
X132119000Y-160047044D01*
X132119000Y-159908956D01*
X132145938Y-159773528D01*
X132198782Y-159645951D01*
X132275500Y-159531135D01*
X132373135Y-159433500D01*
X132487951Y-159356782D01*
X132615528Y-159303938D01*
X132750956Y-159277000D01*
X132889044Y-159277000D01*
X133024472Y-159303938D01*
X133024472Y-159303938D01*
G37*
G36*
X138279589Y-153501876D02*
X138378893Y-153521629D01*
X138519206Y-153579748D01*
X138645484Y-153664125D01*
X138752875Y-153771516D01*
X138837252Y-153897794D01*
X138895371Y-154038107D01*
X138925000Y-154187063D01*
X138925000Y-154338937D01*
X138895371Y-154487893D01*
X138837252Y-154628206D01*
X138752875Y-154754484D01*
X138645484Y-154861875D01*
X138519206Y-154946252D01*
X138378893Y-155004371D01*
X138279589Y-155024124D01*
X138229938Y-155034000D01*
X138078062Y-155034000D01*
X138028411Y-155024124D01*
X137929107Y-155004371D01*
X137788794Y-154946252D01*
X137662516Y-154861875D01*
X137555125Y-154754484D01*
X137470748Y-154628206D01*
X137412629Y-154487893D01*
X137383000Y-154338937D01*
X137383000Y-154187063D01*
X137412629Y-154038107D01*
X137470748Y-153897794D01*
X137555125Y-153771516D01*
X137662516Y-153664125D01*
X137788794Y-153579748D01*
X137929107Y-153521629D01*
X138028411Y-153501876D01*
X138078062Y-153492000D01*
X138229938Y-153492000D01*
X138279589Y-153501876D01*
X138279589Y-153501876D01*
G37*
G36*
X132564589Y-153501876D02*
X132663893Y-153521629D01*
X132804206Y-153579748D01*
X132930484Y-153664125D01*
X133037875Y-153771516D01*
X133122252Y-153897794D01*
X133180371Y-154038107D01*
X133210000Y-154187063D01*
X133210000Y-154338937D01*
X133180371Y-154487893D01*
X133122252Y-154628206D01*
X133037875Y-154754484D01*
X132930484Y-154861875D01*
X132804206Y-154946252D01*
X132663893Y-155004371D01*
X132564589Y-155024124D01*
X132514938Y-155034000D01*
X132363062Y-155034000D01*
X132313411Y-155024124D01*
X132214107Y-155004371D01*
X132073794Y-154946252D01*
X131947516Y-154861875D01*
X131840125Y-154754484D01*
X131755748Y-154628206D01*
X131697629Y-154487893D01*
X131668000Y-154338937D01*
X131668000Y-154187063D01*
X131697629Y-154038107D01*
X131755748Y-153897794D01*
X131840125Y-153771516D01*
X131947516Y-153664125D01*
X132073794Y-153579748D01*
X132214107Y-153521629D01*
X132313411Y-153501876D01*
X132363062Y-153492000D01*
X132514938Y-153492000D01*
X132564589Y-153501876D01*
X132564589Y-153501876D01*
G37*
G36*
X138279589Y-150961876D02*
X138378893Y-150981629D01*
X138519206Y-151039748D01*
X138645484Y-151124125D01*
X138752875Y-151231516D01*
X138837252Y-151357794D01*
X138895371Y-151498107D01*
X138925000Y-151647063D01*
X138925000Y-151798937D01*
X138895371Y-151947893D01*
X138837252Y-152088206D01*
X138752875Y-152214484D01*
X138645484Y-152321875D01*
X138519206Y-152406252D01*
X138378893Y-152464371D01*
X138279589Y-152484124D01*
X138229938Y-152494000D01*
X138078062Y-152494000D01*
X138028411Y-152484124D01*
X137929107Y-152464371D01*
X137788794Y-152406252D01*
X137662516Y-152321875D01*
X137555125Y-152214484D01*
X137470748Y-152088206D01*
X137412629Y-151947893D01*
X137383000Y-151798937D01*
X137383000Y-151647063D01*
X137412629Y-151498107D01*
X137470748Y-151357794D01*
X137555125Y-151231516D01*
X137662516Y-151124125D01*
X137788794Y-151039748D01*
X137929107Y-150981629D01*
X138028411Y-150961876D01*
X138078062Y-150952000D01*
X138229938Y-150952000D01*
X138279589Y-150961876D01*
X138279589Y-150961876D01*
G37*
G36*
X132564589Y-150961876D02*
X132663893Y-150981629D01*
X132804206Y-151039748D01*
X132930484Y-151124125D01*
X133037875Y-151231516D01*
X133122252Y-151357794D01*
X133180371Y-151498107D01*
X133210000Y-151647063D01*
X133210000Y-151798937D01*
X133180371Y-151947893D01*
X133122252Y-152088206D01*
X133037875Y-152214484D01*
X132930484Y-152321875D01*
X132804206Y-152406252D01*
X132663893Y-152464371D01*
X132564589Y-152484124D01*
X132514938Y-152494000D01*
X132363062Y-152494000D01*
X132313411Y-152484124D01*
X132214107Y-152464371D01*
X132073794Y-152406252D01*
X131947516Y-152321875D01*
X131840125Y-152214484D01*
X131755748Y-152088206D01*
X131697629Y-151947893D01*
X131668000Y-151798937D01*
X131668000Y-151647063D01*
X131697629Y-151498107D01*
X131755748Y-151357794D01*
X131840125Y-151231516D01*
X131947516Y-151124125D01*
X132073794Y-151039748D01*
X132214107Y-150981629D01*
X132313411Y-150961876D01*
X132363062Y-150952000D01*
X132514938Y-150952000D01*
X132564589Y-150961876D01*
X132564589Y-150961876D01*
G37*
G36*
X138279589Y-148421876D02*
X138378893Y-148441629D01*
X138519206Y-148499748D01*
X138645484Y-148584125D01*
X138752875Y-148691516D01*
X138837252Y-148817794D01*
X138895371Y-148958107D01*
X138925000Y-149107063D01*
X138925000Y-149258937D01*
X138895371Y-149407893D01*
X138837252Y-149548206D01*
X138752875Y-149674484D01*
X138645484Y-149781875D01*
X138519206Y-149866252D01*
X138378893Y-149924371D01*
X138279589Y-149944124D01*
X138229938Y-149954000D01*
X138078062Y-149954000D01*
X138028411Y-149944124D01*
X137929107Y-149924371D01*
X137788794Y-149866252D01*
X137662516Y-149781875D01*
X137555125Y-149674484D01*
X137470748Y-149548206D01*
X137412629Y-149407893D01*
X137383000Y-149258937D01*
X137383000Y-149107063D01*
X137412629Y-148958107D01*
X137470748Y-148817794D01*
X137555125Y-148691516D01*
X137662516Y-148584125D01*
X137788794Y-148499748D01*
X137929107Y-148441629D01*
X138028411Y-148421876D01*
X138078062Y-148412000D01*
X138229938Y-148412000D01*
X138279589Y-148421876D01*
X138279589Y-148421876D01*
G37*
G36*
X132564589Y-148421876D02*
X132663893Y-148441629D01*
X132804206Y-148499748D01*
X132930484Y-148584125D01*
X133037875Y-148691516D01*
X133122252Y-148817794D01*
X133180371Y-148958107D01*
X133210000Y-149107063D01*
X133210000Y-149258937D01*
X133180371Y-149407893D01*
X133122252Y-149548206D01*
X133037875Y-149674484D01*
X132930484Y-149781875D01*
X132804206Y-149866252D01*
X132663893Y-149924371D01*
X132564589Y-149944124D01*
X132514938Y-149954000D01*
X132363062Y-149954000D01*
X132313411Y-149944124D01*
X132214107Y-149924371D01*
X132073794Y-149866252D01*
X131947516Y-149781875D01*
X131840125Y-149674484D01*
X131755748Y-149548206D01*
X131697629Y-149407893D01*
X131668000Y-149258937D01*
X131668000Y-149107063D01*
X131697629Y-148958107D01*
X131755748Y-148817794D01*
X131840125Y-148691516D01*
X131947516Y-148584125D01*
X132073794Y-148499748D01*
X132214107Y-148441629D01*
X132313411Y-148421876D01*
X132363062Y-148412000D01*
X132514938Y-148412000D01*
X132564589Y-148421876D01*
X132564589Y-148421876D01*
G37*
G36*
X137644589Y-136356876D02*
X137743893Y-136376629D01*
X137884206Y-136434748D01*
X138010484Y-136519125D01*
X138117875Y-136626516D01*
X138202252Y-136752794D01*
X138260371Y-136893107D01*
X138290000Y-137042063D01*
X138290000Y-137193937D01*
X138260371Y-137342893D01*
X138202252Y-137483206D01*
X138117875Y-137609484D01*
X138010484Y-137716875D01*
X137884206Y-137801252D01*
X137743893Y-137859371D01*
X137644589Y-137879124D01*
X137594938Y-137889000D01*
X137443062Y-137889000D01*
X137393411Y-137879124D01*
X137294107Y-137859371D01*
X137153794Y-137801252D01*
X137027516Y-137716875D01*
X136920125Y-137609484D01*
X136835748Y-137483206D01*
X136777629Y-137342893D01*
X136748000Y-137193937D01*
X136748000Y-137042063D01*
X136777629Y-136893107D01*
X136835748Y-136752794D01*
X136920125Y-136626516D01*
X137027516Y-136519125D01*
X137153794Y-136434748D01*
X137294107Y-136376629D01*
X137393411Y-136356876D01*
X137443062Y-136347000D01*
X137594938Y-136347000D01*
X137644589Y-136356876D01*
X137644589Y-136356876D01*
G37*
G36*
X132564589Y-136356876D02*
X132663893Y-136376629D01*
X132804206Y-136434748D01*
X132930484Y-136519125D01*
X133037875Y-136626516D01*
X133122252Y-136752794D01*
X133180371Y-136893107D01*
X133210000Y-137042063D01*
X133210000Y-137193937D01*
X133180371Y-137342893D01*
X133122252Y-137483206D01*
X133037875Y-137609484D01*
X132930484Y-137716875D01*
X132804206Y-137801252D01*
X132663893Y-137859371D01*
X132564589Y-137879124D01*
X132514938Y-137889000D01*
X132363062Y-137889000D01*
X132313411Y-137879124D01*
X132214107Y-137859371D01*
X132073794Y-137801252D01*
X131947516Y-137716875D01*
X131840125Y-137609484D01*
X131755748Y-137483206D01*
X131697629Y-137342893D01*
X131668000Y-137193937D01*
X131668000Y-137042063D01*
X131697629Y-136893107D01*
X131755748Y-136752794D01*
X131840125Y-136626516D01*
X131947516Y-136519125D01*
X132073794Y-136434748D01*
X132214107Y-136376629D01*
X132313411Y-136356876D01*
X132363062Y-136347000D01*
X132514938Y-136347000D01*
X132564589Y-136356876D01*
X132564589Y-136356876D01*
G37*
G36*
X137644589Y-133816876D02*
X137743893Y-133836629D01*
X137884206Y-133894748D01*
X138010484Y-133979125D01*
X138117875Y-134086516D01*
X138202252Y-134212794D01*
X138260371Y-134353107D01*
X138290000Y-134502063D01*
X138290000Y-134653937D01*
X138260371Y-134802893D01*
X138202252Y-134943206D01*
X138117875Y-135069484D01*
X138010484Y-135176875D01*
X137884206Y-135261252D01*
X137743893Y-135319371D01*
X137644589Y-135339124D01*
X137594938Y-135349000D01*
X137443062Y-135349000D01*
X137393411Y-135339124D01*
X137294107Y-135319371D01*
X137153794Y-135261252D01*
X137027516Y-135176875D01*
X136920125Y-135069484D01*
X136835748Y-134943206D01*
X136777629Y-134802893D01*
X136748000Y-134653937D01*
X136748000Y-134502063D01*
X136777629Y-134353107D01*
X136835748Y-134212794D01*
X136920125Y-134086516D01*
X137027516Y-133979125D01*
X137153794Y-133894748D01*
X137294107Y-133836629D01*
X137393411Y-133816876D01*
X137443062Y-133807000D01*
X137594938Y-133807000D01*
X137644589Y-133816876D01*
X137644589Y-133816876D01*
G37*
G36*
X132564589Y-133816876D02*
X132663893Y-133836629D01*
X132804206Y-133894748D01*
X132930484Y-133979125D01*
X133037875Y-134086516D01*
X133122252Y-134212794D01*
X133180371Y-134353107D01*
X133210000Y-134502063D01*
X133210000Y-134653937D01*
X133180371Y-134802893D01*
X133122252Y-134943206D01*
X133037875Y-135069484D01*
X132930484Y-135176875D01*
X132804206Y-135261252D01*
X132663893Y-135319371D01*
X132564589Y-135339124D01*
X132514938Y-135349000D01*
X132363062Y-135349000D01*
X132313411Y-135339124D01*
X132214107Y-135319371D01*
X132073794Y-135261252D01*
X131947516Y-135176875D01*
X131840125Y-135069484D01*
X131755748Y-134943206D01*
X131697629Y-134802893D01*
X131668000Y-134653937D01*
X131668000Y-134502063D01*
X131697629Y-134353107D01*
X131755748Y-134212794D01*
X131840125Y-134086516D01*
X131947516Y-133979125D01*
X132073794Y-133894748D01*
X132214107Y-133836629D01*
X132313411Y-133816876D01*
X132363062Y-133807000D01*
X132514938Y-133807000D01*
X132564589Y-133816876D01*
X132564589Y-133816876D01*
G37*
G36*
X137644589Y-131276876D02*
X137743893Y-131296629D01*
X137884206Y-131354748D01*
X138010484Y-131439125D01*
X138117875Y-131546516D01*
X138202252Y-131672794D01*
X138260371Y-131813107D01*
X138290000Y-131962063D01*
X138290000Y-132113937D01*
X138260371Y-132262893D01*
X138202252Y-132403206D01*
X138117875Y-132529484D01*
X138010484Y-132636875D01*
X137884206Y-132721252D01*
X137743893Y-132779371D01*
X137644589Y-132799124D01*
X137594938Y-132809000D01*
X137443062Y-132809000D01*
X137393411Y-132799124D01*
X137294107Y-132779371D01*
X137153794Y-132721252D01*
X137027516Y-132636875D01*
X136920125Y-132529484D01*
X136835748Y-132403206D01*
X136777629Y-132262893D01*
X136748000Y-132113937D01*
X136748000Y-131962063D01*
X136777629Y-131813107D01*
X136835748Y-131672794D01*
X136920125Y-131546516D01*
X137027516Y-131439125D01*
X137153794Y-131354748D01*
X137294107Y-131296629D01*
X137393411Y-131276876D01*
X137443062Y-131267000D01*
X137594938Y-131267000D01*
X137644589Y-131276876D01*
X137644589Y-131276876D01*
G37*
G36*
X132564589Y-131276876D02*
X132663893Y-131296629D01*
X132804206Y-131354748D01*
X132930484Y-131439125D01*
X133037875Y-131546516D01*
X133122252Y-131672794D01*
X133180371Y-131813107D01*
X133210000Y-131962063D01*
X133210000Y-132113937D01*
X133180371Y-132262893D01*
X133122252Y-132403206D01*
X133037875Y-132529484D01*
X132930484Y-132636875D01*
X132804206Y-132721252D01*
X132663893Y-132779371D01*
X132564589Y-132799124D01*
X132514938Y-132809000D01*
X132363062Y-132809000D01*
X132313411Y-132799124D01*
X132214107Y-132779371D01*
X132073794Y-132721252D01*
X131947516Y-132636875D01*
X131840125Y-132529484D01*
X131755748Y-132403206D01*
X131697629Y-132262893D01*
X131668000Y-132113937D01*
X131668000Y-131962063D01*
X131697629Y-131813107D01*
X131755748Y-131672794D01*
X131840125Y-131546516D01*
X131947516Y-131439125D01*
X132073794Y-131354748D01*
X132214107Y-131296629D01*
X132313411Y-131276876D01*
X132363062Y-131267000D01*
X132514938Y-131267000D01*
X132564589Y-131276876D01*
X132564589Y-131276876D01*
G37*
G36*
X123372472Y-125712438D02*
X123500049Y-125765282D01*
X123614865Y-125842000D01*
X123712500Y-125939635D01*
X123789218Y-126054451D01*
X123842062Y-126182028D01*
X123869000Y-126317456D01*
X123869000Y-126455544D01*
X123842062Y-126590972D01*
X123789218Y-126718549D01*
X123712500Y-126833365D01*
X123614865Y-126931000D01*
X123500049Y-127007718D01*
X123372472Y-127060562D01*
X123237044Y-127087500D01*
X123098956Y-127087500D01*
X122963528Y-127060562D01*
X122835951Y-127007718D01*
X122721135Y-126931000D01*
X122623500Y-126833365D01*
X122546782Y-126718549D01*
X122493938Y-126590972D01*
X122467000Y-126455544D01*
X122467000Y-126317456D01*
X122493938Y-126182028D01*
X122546782Y-126054451D01*
X122623500Y-125939635D01*
X122721135Y-125842000D01*
X122835951Y-125765282D01*
X122963528Y-125712438D01*
X123098956Y-125685500D01*
X123237044Y-125685500D01*
X123372472Y-125712438D01*
X123372472Y-125712438D01*
G37*
G36*
X131627472Y-124378938D02*
X131755049Y-124431782D01*
X131869865Y-124508500D01*
X131967500Y-124606135D01*
X132044218Y-124720951D01*
X132097062Y-124848528D01*
X132124000Y-124983956D01*
X132124000Y-125122044D01*
X132097062Y-125257472D01*
X132044218Y-125385049D01*
X132015817Y-125427554D01*
X132004266Y-125449165D01*
X131997153Y-125472614D01*
X131994751Y-125497000D01*
X131997153Y-125521386D01*
X132004266Y-125544836D01*
X132015817Y-125566446D01*
X132031363Y-125585388D01*
X132050305Y-125600934D01*
X132071916Y-125612485D01*
X132095365Y-125619598D01*
X132119751Y-125622000D01*
X133394000Y-125622000D01*
X133394000Y-127024000D01*
X131992000Y-127024000D01*
X131992000Y-125749751D01*
X131989598Y-125725365D01*
X131982485Y-125701916D01*
X131970934Y-125680305D01*
X131955388Y-125661363D01*
X131936446Y-125645817D01*
X131914835Y-125634266D01*
X131891386Y-125627153D01*
X131867000Y-125624751D01*
X131842614Y-125627153D01*
X131819165Y-125634266D01*
X131797554Y-125645817D01*
X131755049Y-125674218D01*
X131627472Y-125727062D01*
X131492044Y-125754000D01*
X131353956Y-125754000D01*
X131218528Y-125727062D01*
X131090951Y-125674218D01*
X130976135Y-125597500D01*
X130878500Y-125499865D01*
X130801782Y-125385049D01*
X130748938Y-125257472D01*
X130722000Y-125122044D01*
X130722000Y-124983956D01*
X130748938Y-124848528D01*
X130801782Y-124720951D01*
X130878500Y-124606135D01*
X130976135Y-124508500D01*
X131090951Y-124431782D01*
X131218528Y-124378938D01*
X131353956Y-124352000D01*
X131492044Y-124352000D01*
X131627472Y-124378938D01*
X131627472Y-124378938D01*
G37*
G36*
X123869000Y-124419749D02*
X123871402Y-124444135D01*
X123878515Y-124467584D01*
X123890066Y-124489195D01*
X123905612Y-124508137D01*
X123924554Y-124523683D01*
X123946165Y-124535234D01*
X123969614Y-124542347D01*
X123994000Y-124544749D01*
X124018386Y-124542347D01*
X124041835Y-124535234D01*
X124063446Y-124523683D01*
X124105951Y-124495282D01*
X124233528Y-124442438D01*
X124368956Y-124415500D01*
X124507044Y-124415500D01*
X124642472Y-124442438D01*
X124770049Y-124495282D01*
X124884865Y-124572000D01*
X124982500Y-124669635D01*
X125059218Y-124784451D01*
X125112062Y-124912028D01*
X125139000Y-125047456D01*
X125139000Y-125185544D01*
X125112062Y-125320972D01*
X125059218Y-125448549D01*
X124982500Y-125563365D01*
X124884865Y-125661000D01*
X124770049Y-125737718D01*
X124642472Y-125790562D01*
X124507044Y-125817500D01*
X124368956Y-125817500D01*
X124233528Y-125790562D01*
X124105951Y-125737718D01*
X123991135Y-125661000D01*
X123893500Y-125563365D01*
X123816782Y-125448549D01*
X123763938Y-125320972D01*
X123737000Y-125185544D01*
X123737000Y-125047456D01*
X123763938Y-124912028D01*
X123816782Y-124784451D01*
X123845183Y-124741946D01*
X123856734Y-124720335D01*
X123863847Y-124696886D01*
X123866249Y-124672500D01*
X123863847Y-124648114D01*
X123856734Y-124624664D01*
X123845183Y-124603054D01*
X123829637Y-124584112D01*
X123810695Y-124568566D01*
X123789084Y-124557015D01*
X123765635Y-124549902D01*
X123741249Y-124547500D01*
X122467000Y-124547500D01*
X122467000Y-123145500D01*
X123869000Y-123145500D01*
X123869000Y-124419749D01*
X123869000Y-124419749D01*
G37*
G36*
X132897472Y-123108938D02*
X133025049Y-123161782D01*
X133139865Y-123238500D01*
X133237500Y-123336135D01*
X133314218Y-123450951D01*
X133367062Y-123578528D01*
X133394000Y-123713956D01*
X133394000Y-123852044D01*
X133367062Y-123987472D01*
X133314218Y-124115049D01*
X133237500Y-124229865D01*
X133139865Y-124327500D01*
X133025049Y-124404218D01*
X132897472Y-124457062D01*
X132762044Y-124484000D01*
X132623956Y-124484000D01*
X132488528Y-124457062D01*
X132360951Y-124404218D01*
X132246135Y-124327500D01*
X132148500Y-124229865D01*
X132071782Y-124115049D01*
X132018938Y-123987472D01*
X131992000Y-123852044D01*
X131992000Y-123713956D01*
X132018938Y-123578528D01*
X132071782Y-123450951D01*
X132148500Y-123336135D01*
X132246135Y-123238500D01*
X132360951Y-123161782D01*
X132488528Y-123108938D01*
X132623956Y-123082000D01*
X132762044Y-123082000D01*
X132897472Y-123108938D01*
X132897472Y-123108938D01*
G37*
G36*
X147916443Y-120094519D02*
X147982627Y-120101037D01*
X148095853Y-120135384D01*
X148152467Y-120152557D01*
X148291087Y-120226652D01*
X148308991Y-120236222D01*
X148344729Y-120265552D01*
X148446186Y-120348814D01*
X148529448Y-120450271D01*
X148558778Y-120486009D01*
X148558779Y-120486011D01*
X148642443Y-120642533D01*
X148642443Y-120642534D01*
X148693963Y-120812373D01*
X148711359Y-120989000D01*
X148693963Y-121165627D01*
X148686435Y-121190443D01*
X148642443Y-121335467D01*
X148568348Y-121474087D01*
X148558778Y-121491991D01*
X148529448Y-121527729D01*
X148446186Y-121629186D01*
X148344729Y-121712448D01*
X148308991Y-121741778D01*
X148308989Y-121741779D01*
X148152467Y-121825443D01*
X148095853Y-121842616D01*
X147982627Y-121876963D01*
X147916442Y-121883482D01*
X147850260Y-121890000D01*
X147761740Y-121890000D01*
X147695558Y-121883482D01*
X147629373Y-121876963D01*
X147516147Y-121842616D01*
X147459533Y-121825443D01*
X147303011Y-121741779D01*
X147303009Y-121741778D01*
X147267271Y-121712448D01*
X147165814Y-121629186D01*
X147082552Y-121527729D01*
X147053222Y-121491991D01*
X147043652Y-121474087D01*
X146969557Y-121335467D01*
X146925565Y-121190443D01*
X146918037Y-121165627D01*
X146900641Y-120989000D01*
X146918037Y-120812373D01*
X146969557Y-120642534D01*
X146969557Y-120642533D01*
X147053221Y-120486011D01*
X147053222Y-120486009D01*
X147082552Y-120450271D01*
X147165814Y-120348814D01*
X147267271Y-120265552D01*
X147303009Y-120236222D01*
X147320913Y-120226652D01*
X147459533Y-120152557D01*
X147516147Y-120135384D01*
X147629373Y-120101037D01*
X147695557Y-120094519D01*
X147761740Y-120088000D01*
X147850260Y-120088000D01*
X147916443Y-120094519D01*
X147916443Y-120094519D01*
G37*
G36*
X145376443Y-120094519D02*
X145442627Y-120101037D01*
X145555853Y-120135384D01*
X145612467Y-120152557D01*
X145751087Y-120226652D01*
X145768991Y-120236222D01*
X145804729Y-120265552D01*
X145906186Y-120348814D01*
X145989448Y-120450271D01*
X146018778Y-120486009D01*
X146018779Y-120486011D01*
X146102443Y-120642533D01*
X146102443Y-120642534D01*
X146153963Y-120812373D01*
X146171359Y-120989000D01*
X146153963Y-121165627D01*
X146146435Y-121190443D01*
X146102443Y-121335467D01*
X146028348Y-121474087D01*
X146018778Y-121491991D01*
X145989448Y-121527729D01*
X145906186Y-121629186D01*
X145804729Y-121712448D01*
X145768991Y-121741778D01*
X145768989Y-121741779D01*
X145612467Y-121825443D01*
X145555853Y-121842616D01*
X145442627Y-121876963D01*
X145376442Y-121883482D01*
X145310260Y-121890000D01*
X145221740Y-121890000D01*
X145155558Y-121883482D01*
X145089373Y-121876963D01*
X144976147Y-121842616D01*
X144919533Y-121825443D01*
X144763011Y-121741779D01*
X144763009Y-121741778D01*
X144727271Y-121712448D01*
X144625814Y-121629186D01*
X144542552Y-121527729D01*
X144513222Y-121491991D01*
X144503652Y-121474087D01*
X144429557Y-121335467D01*
X144385565Y-121190443D01*
X144378037Y-121165627D01*
X144360641Y-120989000D01*
X144378037Y-120812373D01*
X144429557Y-120642534D01*
X144429557Y-120642533D01*
X144513221Y-120486011D01*
X144513222Y-120486009D01*
X144542552Y-120450271D01*
X144625814Y-120348814D01*
X144727271Y-120265552D01*
X144763009Y-120236222D01*
X144780913Y-120226652D01*
X144919533Y-120152557D01*
X144976147Y-120135384D01*
X145089373Y-120101037D01*
X145155557Y-120094519D01*
X145221740Y-120088000D01*
X145310260Y-120088000D01*
X145376443Y-120094519D01*
X145376443Y-120094519D01*
G37*
G36*
X111975443Y-120094519D02*
X112041627Y-120101037D01*
X112154853Y-120135384D01*
X112211467Y-120152557D01*
X112350087Y-120226652D01*
X112367991Y-120236222D01*
X112403729Y-120265552D01*
X112505186Y-120348814D01*
X112588448Y-120450271D01*
X112617778Y-120486009D01*
X112617779Y-120486011D01*
X112701443Y-120642533D01*
X112701443Y-120642534D01*
X112752963Y-120812373D01*
X112770359Y-120989000D01*
X112752963Y-121165627D01*
X112745435Y-121190443D01*
X112701443Y-121335467D01*
X112627348Y-121474087D01*
X112617778Y-121491991D01*
X112588448Y-121527729D01*
X112505186Y-121629186D01*
X112403729Y-121712448D01*
X112367991Y-121741778D01*
X112367989Y-121741779D01*
X112211467Y-121825443D01*
X112154853Y-121842616D01*
X112041627Y-121876963D01*
X111975442Y-121883482D01*
X111909260Y-121890000D01*
X111820740Y-121890000D01*
X111754558Y-121883482D01*
X111688373Y-121876963D01*
X111575147Y-121842616D01*
X111518533Y-121825443D01*
X111362011Y-121741779D01*
X111362009Y-121741778D01*
X111326271Y-121712448D01*
X111224814Y-121629186D01*
X111141552Y-121527729D01*
X111112222Y-121491991D01*
X111102652Y-121474087D01*
X111028557Y-121335467D01*
X110984565Y-121190443D01*
X110977037Y-121165627D01*
X110959641Y-120989000D01*
X110977037Y-120812373D01*
X111028557Y-120642534D01*
X111028557Y-120642533D01*
X111112221Y-120486011D01*
X111112222Y-120486009D01*
X111141552Y-120450271D01*
X111224814Y-120348814D01*
X111326271Y-120265552D01*
X111362009Y-120236222D01*
X111379913Y-120226652D01*
X111518533Y-120152557D01*
X111575147Y-120135384D01*
X111688373Y-120101037D01*
X111754557Y-120094519D01*
X111820740Y-120088000D01*
X111909260Y-120088000D01*
X111975443Y-120094519D01*
X111975443Y-120094519D01*
G37*
G36*
X143627000Y-121890000D02*
X141825000Y-121890000D01*
X141825000Y-120088000D01*
X143627000Y-120088000D01*
X143627000Y-121890000D01*
X143627000Y-121890000D01*
G37*
G36*
X114515443Y-120094519D02*
X114581627Y-120101037D01*
X114694853Y-120135384D01*
X114751467Y-120152557D01*
X114890087Y-120226652D01*
X114907991Y-120236222D01*
X114943729Y-120265552D01*
X115045186Y-120348814D01*
X115128448Y-120450271D01*
X115157778Y-120486009D01*
X115157779Y-120486011D01*
X115241443Y-120642533D01*
X115241443Y-120642534D01*
X115292963Y-120812373D01*
X115310359Y-120989000D01*
X115292963Y-121165627D01*
X115285435Y-121190443D01*
X115241443Y-121335467D01*
X115167348Y-121474087D01*
X115157778Y-121491991D01*
X115128448Y-121527729D01*
X115045186Y-121629186D01*
X114943729Y-121712448D01*
X114907991Y-121741778D01*
X114907989Y-121741779D01*
X114751467Y-121825443D01*
X114694853Y-121842616D01*
X114581627Y-121876963D01*
X114515442Y-121883482D01*
X114449260Y-121890000D01*
X114360740Y-121890000D01*
X114294558Y-121883482D01*
X114228373Y-121876963D01*
X114115147Y-121842616D01*
X114058533Y-121825443D01*
X113902011Y-121741779D01*
X113902009Y-121741778D01*
X113866271Y-121712448D01*
X113764814Y-121629186D01*
X113681552Y-121527729D01*
X113652222Y-121491991D01*
X113642652Y-121474087D01*
X113568557Y-121335467D01*
X113524565Y-121190443D01*
X113517037Y-121165627D01*
X113499641Y-120989000D01*
X113517037Y-120812373D01*
X113568557Y-120642534D01*
X113568557Y-120642533D01*
X113652221Y-120486011D01*
X113652222Y-120486009D01*
X113681552Y-120450271D01*
X113764814Y-120348814D01*
X113866271Y-120265552D01*
X113902009Y-120236222D01*
X113919913Y-120226652D01*
X114058533Y-120152557D01*
X114115147Y-120135384D01*
X114228373Y-120101037D01*
X114294557Y-120094519D01*
X114360740Y-120088000D01*
X114449260Y-120088000D01*
X114515443Y-120094519D01*
X114515443Y-120094519D01*
G37*
G36*
X110226000Y-121890000D02*
X108424000Y-121890000D01*
X108424000Y-120088000D01*
X110226000Y-120088000D01*
X110226000Y-121890000D01*
X110226000Y-121890000D01*
G37*
G36*
X150456443Y-120094519D02*
X150522627Y-120101037D01*
X150635853Y-120135384D01*
X150692467Y-120152557D01*
X150831087Y-120226652D01*
X150848991Y-120236222D01*
X150884729Y-120265552D01*
X150986186Y-120348814D01*
X151069448Y-120450271D01*
X151098778Y-120486009D01*
X151098779Y-120486011D01*
X151182443Y-120642533D01*
X151182443Y-120642534D01*
X151233963Y-120812373D01*
X151251359Y-120989000D01*
X151233963Y-121165627D01*
X151226435Y-121190443D01*
X151182443Y-121335467D01*
X151108348Y-121474087D01*
X151098778Y-121491991D01*
X151069448Y-121527729D01*
X150986186Y-121629186D01*
X150884729Y-121712448D01*
X150848991Y-121741778D01*
X150848989Y-121741779D01*
X150692467Y-121825443D01*
X150635853Y-121842616D01*
X150522627Y-121876963D01*
X150456442Y-121883482D01*
X150390260Y-121890000D01*
X150301740Y-121890000D01*
X150235558Y-121883482D01*
X150169373Y-121876963D01*
X150056147Y-121842616D01*
X149999533Y-121825443D01*
X149843011Y-121741779D01*
X149843009Y-121741778D01*
X149807271Y-121712448D01*
X149705814Y-121629186D01*
X149622552Y-121527729D01*
X149593222Y-121491991D01*
X149583652Y-121474087D01*
X149509557Y-121335467D01*
X149465565Y-121190443D01*
X149458037Y-121165627D01*
X149440641Y-120989000D01*
X149458037Y-120812373D01*
X149509557Y-120642534D01*
X149509557Y-120642533D01*
X149593221Y-120486011D01*
X149593222Y-120486009D01*
X149622552Y-120450271D01*
X149705814Y-120348814D01*
X149807271Y-120265552D01*
X149843009Y-120236222D01*
X149860913Y-120226652D01*
X149999533Y-120152557D01*
X150056147Y-120135384D01*
X150169373Y-120101037D01*
X150235557Y-120094519D01*
X150301740Y-120088000D01*
X150390260Y-120088000D01*
X150456443Y-120094519D01*
X150456443Y-120094519D01*
G37*
G36*
X117055443Y-120094519D02*
X117121627Y-120101037D01*
X117234853Y-120135384D01*
X117291467Y-120152557D01*
X117430087Y-120226652D01*
X117447991Y-120236222D01*
X117483729Y-120265552D01*
X117585186Y-120348814D01*
X117668448Y-120450271D01*
X117697778Y-120486009D01*
X117697779Y-120486011D01*
X117781443Y-120642533D01*
X117781443Y-120642534D01*
X117832963Y-120812373D01*
X117850359Y-120989000D01*
X117832963Y-121165627D01*
X117825435Y-121190443D01*
X117781443Y-121335467D01*
X117707348Y-121474087D01*
X117697778Y-121491991D01*
X117668448Y-121527729D01*
X117585186Y-121629186D01*
X117483729Y-121712448D01*
X117447991Y-121741778D01*
X117447989Y-121741779D01*
X117291467Y-121825443D01*
X117234853Y-121842616D01*
X117121627Y-121876963D01*
X117055442Y-121883482D01*
X116989260Y-121890000D01*
X116900740Y-121890000D01*
X116834558Y-121883482D01*
X116768373Y-121876963D01*
X116655147Y-121842616D01*
X116598533Y-121825443D01*
X116442011Y-121741779D01*
X116442009Y-121741778D01*
X116406271Y-121712448D01*
X116304814Y-121629186D01*
X116221552Y-121527729D01*
X116192222Y-121491991D01*
X116182652Y-121474087D01*
X116108557Y-121335467D01*
X116064565Y-121190443D01*
X116057037Y-121165627D01*
X116039641Y-120989000D01*
X116057037Y-120812373D01*
X116108557Y-120642534D01*
X116108557Y-120642533D01*
X116192221Y-120486011D01*
X116192222Y-120486009D01*
X116221552Y-120450271D01*
X116304814Y-120348814D01*
X116406271Y-120265552D01*
X116442009Y-120236222D01*
X116459913Y-120226652D01*
X116598533Y-120152557D01*
X116655147Y-120135384D01*
X116768373Y-120101037D01*
X116834557Y-120094519D01*
X116900740Y-120088000D01*
X116989260Y-120088000D01*
X117055443Y-120094519D01*
X117055443Y-120094519D01*
G37*
G36*
X127752000Y-121255000D02*
X125950000Y-121255000D01*
X125950000Y-119453000D01*
X127752000Y-119453000D01*
X127752000Y-121255000D01*
X127752000Y-121255000D01*
G37*
G36*
X124421443Y-119459519D02*
X124487627Y-119466037D01*
X124600853Y-119500384D01*
X124657467Y-119517557D01*
X124796087Y-119591652D01*
X124813991Y-119601222D01*
X124849729Y-119630552D01*
X124951186Y-119713814D01*
X125034448Y-119815271D01*
X125063778Y-119851009D01*
X125063779Y-119851011D01*
X125147443Y-120007533D01*
X125147443Y-120007534D01*
X125198963Y-120177373D01*
X125216359Y-120354000D01*
X125198963Y-120530627D01*
X125165017Y-120642533D01*
X125147443Y-120700467D01*
X125087627Y-120812373D01*
X125063778Y-120856991D01*
X125034448Y-120892729D01*
X124951186Y-120994186D01*
X124849729Y-121077448D01*
X124813991Y-121106778D01*
X124813989Y-121106779D01*
X124657467Y-121190443D01*
X124600853Y-121207616D01*
X124487627Y-121241963D01*
X124421443Y-121248481D01*
X124355260Y-121255000D01*
X124266740Y-121255000D01*
X124200557Y-121248481D01*
X124134373Y-121241963D01*
X124021147Y-121207616D01*
X123964533Y-121190443D01*
X123808011Y-121106779D01*
X123808009Y-121106778D01*
X123772271Y-121077448D01*
X123670814Y-120994186D01*
X123587552Y-120892729D01*
X123558222Y-120856991D01*
X123534373Y-120812373D01*
X123474557Y-120700467D01*
X123456983Y-120642533D01*
X123423037Y-120530627D01*
X123405641Y-120354000D01*
X123423037Y-120177373D01*
X123474557Y-120007534D01*
X123474557Y-120007533D01*
X123558221Y-119851011D01*
X123558222Y-119851009D01*
X123587552Y-119815271D01*
X123670814Y-119713814D01*
X123772271Y-119630552D01*
X123808009Y-119601222D01*
X123825913Y-119591652D01*
X123964533Y-119517557D01*
X124021147Y-119500384D01*
X124134373Y-119466037D01*
X124200557Y-119459519D01*
X124266740Y-119453000D01*
X124355260Y-119453000D01*
X124421443Y-119459519D01*
X124421443Y-119459519D01*
G37*
G36*
X121881443Y-119459519D02*
X121947627Y-119466037D01*
X122060853Y-119500384D01*
X122117467Y-119517557D01*
X122256087Y-119591652D01*
X122273991Y-119601222D01*
X122309729Y-119630552D01*
X122411186Y-119713814D01*
X122494448Y-119815271D01*
X122523778Y-119851009D01*
X122523779Y-119851011D01*
X122607443Y-120007533D01*
X122607443Y-120007534D01*
X122658963Y-120177373D01*
X122676359Y-120354000D01*
X122658963Y-120530627D01*
X122625017Y-120642533D01*
X122607443Y-120700467D01*
X122547627Y-120812373D01*
X122523778Y-120856991D01*
X122494448Y-120892729D01*
X122411186Y-120994186D01*
X122309729Y-121077448D01*
X122273991Y-121106778D01*
X122273989Y-121106779D01*
X122117467Y-121190443D01*
X122060853Y-121207616D01*
X121947627Y-121241963D01*
X121881443Y-121248481D01*
X121815260Y-121255000D01*
X121726740Y-121255000D01*
X121660557Y-121248481D01*
X121594373Y-121241963D01*
X121481147Y-121207616D01*
X121424533Y-121190443D01*
X121268011Y-121106779D01*
X121268009Y-121106778D01*
X121232271Y-121077448D01*
X121130814Y-120994186D01*
X121047552Y-120892729D01*
X121018222Y-120856991D01*
X120994373Y-120812373D01*
X120934557Y-120700467D01*
X120916983Y-120642533D01*
X120883037Y-120530627D01*
X120865641Y-120354000D01*
X120883037Y-120177373D01*
X120934557Y-120007534D01*
X120934557Y-120007533D01*
X121018221Y-119851011D01*
X121018222Y-119851009D01*
X121047552Y-119815271D01*
X121130814Y-119713814D01*
X121232271Y-119630552D01*
X121268009Y-119601222D01*
X121285913Y-119591652D01*
X121424533Y-119517557D01*
X121481147Y-119500384D01*
X121594373Y-119466037D01*
X121660557Y-119459519D01*
X121726740Y-119453000D01*
X121815260Y-119453000D01*
X121881443Y-119459519D01*
X121881443Y-119459519D01*
G37*
G36*
X149417796Y-118032567D02*
X149472578Y-118055258D01*
X149521879Y-118088200D01*
X149563800Y-118130121D01*
X149596742Y-118179422D01*
X149619433Y-118234204D01*
X149631000Y-118292353D01*
X149631000Y-118351647D01*
X149619433Y-118409796D01*
X149596742Y-118464578D01*
X149563800Y-118513879D01*
X149521879Y-118555800D01*
X149472578Y-118588742D01*
X149417796Y-118611433D01*
X149359647Y-118623000D01*
X149300353Y-118623000D01*
X149242204Y-118611433D01*
X149187422Y-118588742D01*
X149138121Y-118555800D01*
X149096200Y-118513879D01*
X149063258Y-118464578D01*
X149040567Y-118409796D01*
X149029000Y-118351647D01*
X149029000Y-118292353D01*
X149040567Y-118234204D01*
X149063258Y-118179422D01*
X149096200Y-118130121D01*
X149138121Y-118088200D01*
X149187422Y-118055258D01*
X149242204Y-118032567D01*
X149300353Y-118021000D01*
X149359647Y-118021000D01*
X149417796Y-118032567D01*
X149417796Y-118032567D01*
G37*
G36*
X148401796Y-118032567D02*
X148456578Y-118055258D01*
X148505879Y-118088200D01*
X148547800Y-118130121D01*
X148580742Y-118179422D01*
X148603433Y-118234204D01*
X148615000Y-118292353D01*
X148615000Y-118351647D01*
X148603433Y-118409796D01*
X148580742Y-118464578D01*
X148547800Y-118513879D01*
X148505879Y-118555800D01*
X148456578Y-118588742D01*
X148401796Y-118611433D01*
X148343647Y-118623000D01*
X148284353Y-118623000D01*
X148226204Y-118611433D01*
X148171422Y-118588742D01*
X148122121Y-118555800D01*
X148080200Y-118513879D01*
X148047258Y-118464578D01*
X148024567Y-118409796D01*
X148013000Y-118351647D01*
X148013000Y-118292353D01*
X148024567Y-118234204D01*
X148047258Y-118179422D01*
X148080200Y-118130121D01*
X148122121Y-118088200D01*
X148171422Y-118055258D01*
X148226204Y-118032567D01*
X148284353Y-118021000D01*
X148343647Y-118021000D01*
X148401796Y-118032567D01*
X148401796Y-118032567D01*
G37*
G36*
X147385796Y-118032567D02*
X147440578Y-118055258D01*
X147489879Y-118088200D01*
X147531800Y-118130121D01*
X147564742Y-118179422D01*
X147587433Y-118234204D01*
X147599000Y-118292353D01*
X147599000Y-118351647D01*
X147587433Y-118409796D01*
X147564742Y-118464578D01*
X147531800Y-118513879D01*
X147489879Y-118555800D01*
X147440578Y-118588742D01*
X147385796Y-118611433D01*
X147327647Y-118623000D01*
X147268353Y-118623000D01*
X147210204Y-118611433D01*
X147155422Y-118588742D01*
X147106121Y-118555800D01*
X147064200Y-118513879D01*
X147031258Y-118464578D01*
X147008567Y-118409796D01*
X146997000Y-118351647D01*
X146997000Y-118292353D01*
X147008567Y-118234204D01*
X147031258Y-118179422D01*
X147064200Y-118130121D01*
X147106121Y-118088200D01*
X147155422Y-118055258D01*
X147210204Y-118032567D01*
X147268353Y-118021000D01*
X147327647Y-118021000D01*
X147385796Y-118032567D01*
X147385796Y-118032567D01*
G37*
G36*
X112841796Y-118032567D02*
X112896578Y-118055258D01*
X112945879Y-118088200D01*
X112987800Y-118130121D01*
X113020742Y-118179422D01*
X113043433Y-118234204D01*
X113055000Y-118292353D01*
X113055000Y-118351647D01*
X113043433Y-118409796D01*
X113020742Y-118464578D01*
X112987800Y-118513879D01*
X112945879Y-118555800D01*
X112896578Y-118588742D01*
X112841796Y-118611433D01*
X112783647Y-118623000D01*
X112724353Y-118623000D01*
X112666204Y-118611433D01*
X112611422Y-118588742D01*
X112562121Y-118555800D01*
X112520200Y-118513879D01*
X112487258Y-118464578D01*
X112464567Y-118409796D01*
X112453000Y-118351647D01*
X112453000Y-118292353D01*
X112464567Y-118234204D01*
X112487258Y-118179422D01*
X112520200Y-118130121D01*
X112562121Y-118088200D01*
X112611422Y-118055258D01*
X112666204Y-118032567D01*
X112724353Y-118021000D01*
X112783647Y-118021000D01*
X112841796Y-118032567D01*
X112841796Y-118032567D01*
G37*
G36*
X111825796Y-118032567D02*
X111880578Y-118055258D01*
X111929879Y-118088200D01*
X111971800Y-118130121D01*
X112004742Y-118179422D01*
X112027433Y-118234204D01*
X112039000Y-118292353D01*
X112039000Y-118351647D01*
X112027433Y-118409796D01*
X112004742Y-118464578D01*
X111971800Y-118513879D01*
X111929879Y-118555800D01*
X111880578Y-118588742D01*
X111825796Y-118611433D01*
X111767647Y-118623000D01*
X111708353Y-118623000D01*
X111650204Y-118611433D01*
X111595422Y-118588742D01*
X111546121Y-118555800D01*
X111504200Y-118513879D01*
X111471258Y-118464578D01*
X111448567Y-118409796D01*
X111437000Y-118351647D01*
X111437000Y-118292353D01*
X111448567Y-118234204D01*
X111471258Y-118179422D01*
X111504200Y-118130121D01*
X111546121Y-118088200D01*
X111595422Y-118055258D01*
X111650204Y-118032567D01*
X111708353Y-118021000D01*
X111767647Y-118021000D01*
X111825796Y-118032567D01*
X111825796Y-118032567D01*
G37*
G36*
X110809796Y-118032567D02*
X110864578Y-118055258D01*
X110913879Y-118088200D01*
X110955800Y-118130121D01*
X110988742Y-118179422D01*
X111011433Y-118234204D01*
X111023000Y-118292353D01*
X111023000Y-118351647D01*
X111011433Y-118409796D01*
X110988742Y-118464578D01*
X110955800Y-118513879D01*
X110913879Y-118555800D01*
X110864578Y-118588742D01*
X110809796Y-118611433D01*
X110751647Y-118623000D01*
X110692353Y-118623000D01*
X110634204Y-118611433D01*
X110579422Y-118588742D01*
X110530121Y-118555800D01*
X110488200Y-118513879D01*
X110455258Y-118464578D01*
X110432567Y-118409796D01*
X110421000Y-118351647D01*
X110421000Y-118292353D01*
X110432567Y-118234204D01*
X110455258Y-118179422D01*
X110488200Y-118130121D01*
X110530121Y-118088200D01*
X110579422Y-118055258D01*
X110634204Y-118032567D01*
X110692353Y-118021000D01*
X110751647Y-118021000D01*
X110809796Y-118032567D01*
X110809796Y-118032567D01*
G37*
G36*
X146256885Y-117007617D02*
X146290479Y-117010926D01*
X146366394Y-117033954D01*
X146419795Y-117050153D01*
X146538962Y-117113849D01*
X146643422Y-117199578D01*
X146729151Y-117304038D01*
X146792847Y-117423205D01*
X146832074Y-117552522D01*
X146845319Y-117687000D01*
X146832074Y-117821478D01*
X146792847Y-117950795D01*
X146729151Y-118069962D01*
X146643422Y-118174422D01*
X146538962Y-118260151D01*
X146419795Y-118323847D01*
X146366394Y-118340046D01*
X146290479Y-118363074D01*
X146256885Y-118366383D01*
X146189700Y-118373000D01*
X113862300Y-118373000D01*
X113795115Y-118366383D01*
X113761521Y-118363074D01*
X113685606Y-118340046D01*
X113632205Y-118323847D01*
X113513038Y-118260151D01*
X113408578Y-118174422D01*
X113322849Y-118069962D01*
X113259153Y-117950795D01*
X113219926Y-117821478D01*
X113206681Y-117687000D01*
X113219926Y-117552522D01*
X113259153Y-117423205D01*
X113322849Y-117304038D01*
X113408578Y-117199578D01*
X113513038Y-117113849D01*
X113632205Y-117050153D01*
X113685606Y-117033954D01*
X113761521Y-117010926D01*
X113795115Y-117007617D01*
X113862300Y-117001000D01*
X146189700Y-117001000D01*
X146256885Y-117007617D01*
X146256885Y-117007617D01*
G37*
G36*
X149417796Y-116889567D02*
X149472578Y-116912258D01*
X149521879Y-116945200D01*
X149563800Y-116987121D01*
X149596742Y-117036422D01*
X149619433Y-117091204D01*
X149631000Y-117149353D01*
X149631000Y-117208647D01*
X149619433Y-117266796D01*
X149596742Y-117321578D01*
X149563800Y-117370879D01*
X149521879Y-117412800D01*
X149472578Y-117445742D01*
X149417796Y-117468433D01*
X149359647Y-117480000D01*
X149300353Y-117480000D01*
X149242204Y-117468433D01*
X149187422Y-117445742D01*
X149138121Y-117412800D01*
X149096200Y-117370879D01*
X149063258Y-117321578D01*
X149040567Y-117266796D01*
X149029000Y-117208647D01*
X149029000Y-117149353D01*
X149040567Y-117091204D01*
X149063258Y-117036422D01*
X149096200Y-116987121D01*
X149138121Y-116945200D01*
X149187422Y-116912258D01*
X149242204Y-116889567D01*
X149300353Y-116878000D01*
X149359647Y-116878000D01*
X149417796Y-116889567D01*
X149417796Y-116889567D01*
G37*
G36*
X148401796Y-116889567D02*
X148456578Y-116912258D01*
X148505879Y-116945200D01*
X148547800Y-116987121D01*
X148580742Y-117036422D01*
X148603433Y-117091204D01*
X148615000Y-117149353D01*
X148615000Y-117208647D01*
X148603433Y-117266796D01*
X148580742Y-117321578D01*
X148547800Y-117370879D01*
X148505879Y-117412800D01*
X148456578Y-117445742D01*
X148401796Y-117468433D01*
X148343647Y-117480000D01*
X148284353Y-117480000D01*
X148226204Y-117468433D01*
X148171422Y-117445742D01*
X148122121Y-117412800D01*
X148080200Y-117370879D01*
X148047258Y-117321578D01*
X148024567Y-117266796D01*
X148013000Y-117208647D01*
X148013000Y-117149353D01*
X148024567Y-117091204D01*
X148047258Y-117036422D01*
X148080200Y-116987121D01*
X148122121Y-116945200D01*
X148171422Y-116912258D01*
X148226204Y-116889567D01*
X148284353Y-116878000D01*
X148343647Y-116878000D01*
X148401796Y-116889567D01*
X148401796Y-116889567D01*
G37*
G36*
X147385796Y-116889567D02*
X147440578Y-116912258D01*
X147489879Y-116945200D01*
X147531800Y-116987121D01*
X147564742Y-117036422D01*
X147587433Y-117091204D01*
X147599000Y-117149353D01*
X147599000Y-117208647D01*
X147587433Y-117266796D01*
X147564742Y-117321578D01*
X147531800Y-117370879D01*
X147489879Y-117412800D01*
X147440578Y-117445742D01*
X147385796Y-117468433D01*
X147327647Y-117480000D01*
X147268353Y-117480000D01*
X147210204Y-117468433D01*
X147155422Y-117445742D01*
X147106121Y-117412800D01*
X147064200Y-117370879D01*
X147031258Y-117321578D01*
X147008567Y-117266796D01*
X146997000Y-117208647D01*
X146997000Y-117149353D01*
X147008567Y-117091204D01*
X147031258Y-117036422D01*
X147064200Y-116987121D01*
X147106121Y-116945200D01*
X147155422Y-116912258D01*
X147210204Y-116889567D01*
X147268353Y-116878000D01*
X147327647Y-116878000D01*
X147385796Y-116889567D01*
X147385796Y-116889567D01*
G37*
G36*
X112841796Y-116889567D02*
X112896578Y-116912258D01*
X112945879Y-116945200D01*
X112987800Y-116987121D01*
X113020742Y-117036422D01*
X113043433Y-117091204D01*
X113055000Y-117149353D01*
X113055000Y-117208647D01*
X113043433Y-117266796D01*
X113020742Y-117321578D01*
X112987800Y-117370879D01*
X112945879Y-117412800D01*
X112896578Y-117445742D01*
X112841796Y-117468433D01*
X112783647Y-117480000D01*
X112724353Y-117480000D01*
X112666204Y-117468433D01*
X112611422Y-117445742D01*
X112562121Y-117412800D01*
X112520200Y-117370879D01*
X112487258Y-117321578D01*
X112464567Y-117266796D01*
X112453000Y-117208647D01*
X112453000Y-117149353D01*
X112464567Y-117091204D01*
X112487258Y-117036422D01*
X112520200Y-116987121D01*
X112562121Y-116945200D01*
X112611422Y-116912258D01*
X112666204Y-116889567D01*
X112724353Y-116878000D01*
X112783647Y-116878000D01*
X112841796Y-116889567D01*
X112841796Y-116889567D01*
G37*
G36*
X110809796Y-116889567D02*
X110864578Y-116912258D01*
X110913879Y-116945200D01*
X110955800Y-116987121D01*
X110988742Y-117036422D01*
X111011433Y-117091204D01*
X111023000Y-117149353D01*
X111023000Y-117208647D01*
X111011433Y-117266796D01*
X110988742Y-117321578D01*
X110955800Y-117370879D01*
X110913879Y-117412800D01*
X110864578Y-117445742D01*
X110809796Y-117468433D01*
X110751647Y-117480000D01*
X110692353Y-117480000D01*
X110634204Y-117468433D01*
X110579422Y-117445742D01*
X110530121Y-117412800D01*
X110488200Y-117370879D01*
X110455258Y-117321578D01*
X110432567Y-117266796D01*
X110421000Y-117208647D01*
X110421000Y-117149353D01*
X110432567Y-117091204D01*
X110455258Y-117036422D01*
X110488200Y-116987121D01*
X110530121Y-116945200D01*
X110579422Y-116912258D01*
X110634204Y-116889567D01*
X110692353Y-116878000D01*
X110751647Y-116878000D01*
X110809796Y-116889567D01*
X110809796Y-116889567D01*
G37*
G36*
X111825796Y-116889567D02*
X111880578Y-116912258D01*
X111929879Y-116945200D01*
X111971800Y-116987121D01*
X112004742Y-117036422D01*
X112027433Y-117091204D01*
X112039000Y-117149353D01*
X112039000Y-117208647D01*
X112027433Y-117266796D01*
X112004742Y-117321578D01*
X111971800Y-117370879D01*
X111929879Y-117412800D01*
X111880578Y-117445742D01*
X111825796Y-117468433D01*
X111767647Y-117480000D01*
X111708353Y-117480000D01*
X111650204Y-117468433D01*
X111595422Y-117445742D01*
X111546121Y-117412800D01*
X111504200Y-117370879D01*
X111471258Y-117321578D01*
X111448567Y-117266796D01*
X111437000Y-117208647D01*
X111437000Y-117149353D01*
X111448567Y-117091204D01*
X111471258Y-117036422D01*
X111504200Y-116987121D01*
X111546121Y-116945200D01*
X111595422Y-116912258D01*
X111650204Y-116889567D01*
X111708353Y-116878000D01*
X111767647Y-116878000D01*
X111825796Y-116889567D01*
X111825796Y-116889567D01*
G37*
G36*
X146163000Y-115567000D02*
X143861000Y-115567000D01*
X143861000Y-113965000D01*
X146163000Y-113965000D01*
X146163000Y-115567000D01*
X146163000Y-115567000D01*
G37*
G36*
X131177000Y-115567000D02*
X128875000Y-115567000D01*
X128875000Y-113965000D01*
X131177000Y-113965000D01*
X131177000Y-115567000D01*
X131177000Y-115567000D01*
G37*
G36*
X116191000Y-115567000D02*
X113889000Y-115567000D01*
X113889000Y-113965000D01*
X116191000Y-113965000D01*
X116191000Y-115567000D01*
X116191000Y-115567000D01*
G37*
G36*
X145619025Y-110876590D02*
X145770012Y-110922392D01*
X145909165Y-110996770D01*
X146031133Y-111096867D01*
X146131230Y-111218835D01*
X146205608Y-111357988D01*
X146251410Y-111508975D01*
X146266875Y-111666000D01*
X146251410Y-111823025D01*
X146205608Y-111974012D01*
X146131230Y-112113165D01*
X146031133Y-112235133D01*
X145909165Y-112335230D01*
X145770012Y-112409608D01*
X145619025Y-112455410D01*
X145501346Y-112467000D01*
X144522654Y-112467000D01*
X144404975Y-112455410D01*
X144253988Y-112409608D01*
X144114835Y-112335230D01*
X143992867Y-112235133D01*
X143892770Y-112113165D01*
X143818392Y-111974012D01*
X143772590Y-111823025D01*
X143757125Y-111666000D01*
X143772590Y-111508975D01*
X143818392Y-111357988D01*
X143892770Y-111218835D01*
X143992867Y-111096867D01*
X144114835Y-110996770D01*
X144253988Y-110922392D01*
X144404975Y-110876590D01*
X144522654Y-110865000D01*
X145501346Y-110865000D01*
X145619025Y-110876590D01*
X145619025Y-110876590D01*
G37*
G36*
X130633025Y-110876590D02*
X130784012Y-110922392D01*
X130923165Y-110996770D01*
X131045133Y-111096867D01*
X131145230Y-111218835D01*
X131219608Y-111357988D01*
X131265410Y-111508975D01*
X131280875Y-111666000D01*
X131265410Y-111823025D01*
X131219608Y-111974012D01*
X131145230Y-112113165D01*
X131045133Y-112235133D01*
X130923165Y-112335230D01*
X130784012Y-112409608D01*
X130633025Y-112455410D01*
X130515346Y-112467000D01*
X129536654Y-112467000D01*
X129418975Y-112455410D01*
X129267988Y-112409608D01*
X129128835Y-112335230D01*
X129006867Y-112235133D01*
X128906770Y-112113165D01*
X128832392Y-111974012D01*
X128786590Y-111823025D01*
X128771125Y-111666000D01*
X128786590Y-111508975D01*
X128832392Y-111357988D01*
X128906770Y-111218835D01*
X129006867Y-111096867D01*
X129128835Y-110996770D01*
X129267988Y-110922392D01*
X129418975Y-110876590D01*
X129536654Y-110865000D01*
X130515346Y-110865000D01*
X130633025Y-110876590D01*
X130633025Y-110876590D01*
G37*
G36*
X115647025Y-110876590D02*
X115798012Y-110922392D01*
X115937165Y-110996770D01*
X116059133Y-111096867D01*
X116159230Y-111218835D01*
X116233608Y-111357988D01*
X116279410Y-111508975D01*
X116294875Y-111666000D01*
X116279410Y-111823025D01*
X116233608Y-111974012D01*
X116159230Y-112113165D01*
X116059133Y-112235133D01*
X115937165Y-112335230D01*
X115798012Y-112409608D01*
X115647025Y-112455410D01*
X115529346Y-112467000D01*
X114550654Y-112467000D01*
X114432975Y-112455410D01*
X114281988Y-112409608D01*
X114142835Y-112335230D01*
X114020867Y-112235133D01*
X113920770Y-112113165D01*
X113846392Y-111974012D01*
X113800590Y-111823025D01*
X113785125Y-111666000D01*
X113800590Y-111508975D01*
X113846392Y-111357988D01*
X113920770Y-111218835D01*
X114020867Y-111096867D01*
X114142835Y-110996770D01*
X114281988Y-110922392D01*
X114432975Y-110876590D01*
X114550654Y-110865000D01*
X115529346Y-110865000D01*
X115647025Y-110876590D01*
X115647025Y-110876590D01*
G37*
G36*
X130649665Y-102618622D02*
X130723222Y-102625867D01*
X130864786Y-102668810D01*
X130995252Y-102738546D01*
X131109606Y-102832394D01*
X131203454Y-102946748D01*
X131273190Y-103077214D01*
X131316133Y-103218778D01*
X131330633Y-103366000D01*
X131316133Y-103513222D01*
X131273190Y-103654786D01*
X131203454Y-103785252D01*
X131109606Y-103899606D01*
X130995252Y-103993454D01*
X130864786Y-104063190D01*
X130723222Y-104106133D01*
X130649665Y-104113378D01*
X130612888Y-104117000D01*
X129439112Y-104117000D01*
X129402335Y-104113378D01*
X129328778Y-104106133D01*
X129187214Y-104063190D01*
X129056748Y-103993454D01*
X128942394Y-103899606D01*
X128848546Y-103785252D01*
X128778810Y-103654786D01*
X128735867Y-103513222D01*
X128721367Y-103366000D01*
X128735867Y-103218778D01*
X128778810Y-103077214D01*
X128848546Y-102946748D01*
X128942394Y-102832394D01*
X129056748Y-102738546D01*
X129187214Y-102668810D01*
X129328778Y-102625867D01*
X129402335Y-102618622D01*
X129439112Y-102615000D01*
X130612888Y-102615000D01*
X130649665Y-102618622D01*
X130649665Y-102618622D01*
G37*
G36*
X145635665Y-102618622D02*
X145709222Y-102625867D01*
X145850786Y-102668810D01*
X145981252Y-102738546D01*
X146095606Y-102832394D01*
X146189454Y-102946748D01*
X146259190Y-103077214D01*
X146302133Y-103218778D01*
X146316633Y-103366000D01*
X146302133Y-103513222D01*
X146259190Y-103654786D01*
X146189454Y-103785252D01*
X146095606Y-103899606D01*
X145981252Y-103993454D01*
X145850786Y-104063190D01*
X145709222Y-104106133D01*
X145635665Y-104113378D01*
X145598888Y-104117000D01*
X144425112Y-104117000D01*
X144388335Y-104113378D01*
X144314778Y-104106133D01*
X144173214Y-104063190D01*
X144042748Y-103993454D01*
X143928394Y-103899606D01*
X143834546Y-103785252D01*
X143764810Y-103654786D01*
X143721867Y-103513222D01*
X143707367Y-103366000D01*
X143721867Y-103218778D01*
X143764810Y-103077214D01*
X143834546Y-102946748D01*
X143928394Y-102832394D01*
X144042748Y-102738546D01*
X144173214Y-102668810D01*
X144314778Y-102625867D01*
X144388335Y-102618622D01*
X144425112Y-102615000D01*
X145598888Y-102615000D01*
X145635665Y-102618622D01*
X145635665Y-102618622D01*
G37*
G36*
X115663665Y-102618622D02*
X115737222Y-102625867D01*
X115878786Y-102668810D01*
X116009252Y-102738546D01*
X116123606Y-102832394D01*
X116217454Y-102946748D01*
X116287190Y-103077214D01*
X116330133Y-103218778D01*
X116344633Y-103366000D01*
X116330133Y-103513222D01*
X116287190Y-103654786D01*
X116217454Y-103785252D01*
X116123606Y-103899606D01*
X116009252Y-103993454D01*
X115878786Y-104063190D01*
X115737222Y-104106133D01*
X115663665Y-104113378D01*
X115626888Y-104117000D01*
X114453112Y-104117000D01*
X114416335Y-104113378D01*
X114342778Y-104106133D01*
X114201214Y-104063190D01*
X114070748Y-103993454D01*
X113956394Y-103899606D01*
X113862546Y-103785252D01*
X113792810Y-103654786D01*
X113749867Y-103513222D01*
X113735367Y-103366000D01*
X113749867Y-103218778D01*
X113792810Y-103077214D01*
X113862546Y-102946748D01*
X113956394Y-102832394D01*
X114070748Y-102738546D01*
X114201214Y-102668810D01*
X114342778Y-102625867D01*
X114416335Y-102618622D01*
X114453112Y-102615000D01*
X115626888Y-102615000D01*
X115663665Y-102618622D01*
X115663665Y-102618622D01*
G37*
G36*
X116206396Y-91753546D02*
X116379466Y-91825234D01*
X116535230Y-91929312D01*
X116667688Y-92061770D01*
X116771766Y-92217534D01*
X116843454Y-92390604D01*
X116880000Y-92574333D01*
X116880000Y-92761667D01*
X116843454Y-92945396D01*
X116771766Y-93118466D01*
X116667688Y-93274230D01*
X116535230Y-93406688D01*
X116379466Y-93510766D01*
X116206396Y-93582454D01*
X116022667Y-93619000D01*
X115835333Y-93619000D01*
X115651604Y-93582454D01*
X115478534Y-93510766D01*
X115322770Y-93406688D01*
X115190312Y-93274230D01*
X115086234Y-93118466D01*
X115014546Y-92945396D01*
X114978000Y-92761667D01*
X114978000Y-92574333D01*
X115014546Y-92390604D01*
X115086234Y-92217534D01*
X115190312Y-92061770D01*
X115322770Y-91929312D01*
X115478534Y-91825234D01*
X115651604Y-91753546D01*
X115835333Y-91717000D01*
X116022667Y-91717000D01*
X116206396Y-91753546D01*
X116206396Y-91753546D01*
G37*
G36*
X121206396Y-91753546D02*
X121379466Y-91825234D01*
X121535230Y-91929312D01*
X121667688Y-92061770D01*
X121771766Y-92217534D01*
X121843454Y-92390604D01*
X121880000Y-92574333D01*
X121880000Y-92761667D01*
X121843454Y-92945396D01*
X121771766Y-93118466D01*
X121667688Y-93274230D01*
X121535230Y-93406688D01*
X121379466Y-93510766D01*
X121206396Y-93582454D01*
X121022667Y-93619000D01*
X120835333Y-93619000D01*
X120651604Y-93582454D01*
X120478534Y-93510766D01*
X120322770Y-93406688D01*
X120190312Y-93274230D01*
X120086234Y-93118466D01*
X120014546Y-92945396D01*
X119978000Y-92761667D01*
X119978000Y-92574333D01*
X120014546Y-92390604D01*
X120086234Y-92217534D01*
X120190312Y-92061770D01*
X120322770Y-91929312D01*
X120478534Y-91825234D01*
X120651604Y-91753546D01*
X120835333Y-91717000D01*
X121022667Y-91717000D01*
X121206396Y-91753546D01*
X121206396Y-91753546D01*
G37*
G36*
X118706396Y-91753546D02*
X118879466Y-91825234D01*
X119035230Y-91929312D01*
X119167688Y-92061770D01*
X119271766Y-92217534D01*
X119343454Y-92390604D01*
X119380000Y-92574333D01*
X119380000Y-92761667D01*
X119343454Y-92945396D01*
X119271766Y-93118466D01*
X119167688Y-93274230D01*
X119035230Y-93406688D01*
X118879466Y-93510766D01*
X118706396Y-93582454D01*
X118522667Y-93619000D01*
X118335333Y-93619000D01*
X118151604Y-93582454D01*
X117978534Y-93510766D01*
X117822770Y-93406688D01*
X117690312Y-93274230D01*
X117586234Y-93118466D01*
X117514546Y-92945396D01*
X117478000Y-92761667D01*
X117478000Y-92574333D01*
X117514546Y-92390604D01*
X117586234Y-92217534D01*
X117690312Y-92061770D01*
X117822770Y-91929312D01*
X117978534Y-91825234D01*
X118151604Y-91753546D01*
X118335333Y-91717000D01*
X118522667Y-91717000D01*
X118706396Y-91753546D01*
X118706396Y-91753546D01*
G37*
G36*
X145635665Y-90493622D02*
X145709222Y-90500867D01*
X145850786Y-90543810D01*
X145981252Y-90613546D01*
X146095606Y-90707394D01*
X146189454Y-90821748D01*
X146259190Y-90952214D01*
X146302133Y-91093778D01*
X146316633Y-91241000D01*
X146302133Y-91388222D01*
X146259190Y-91529786D01*
X146189454Y-91660252D01*
X146095606Y-91774606D01*
X145981252Y-91868454D01*
X145850786Y-91938190D01*
X145709222Y-91981133D01*
X145635665Y-91988378D01*
X145598888Y-91992000D01*
X144425112Y-91992000D01*
X144388335Y-91988378D01*
X144314778Y-91981133D01*
X144173214Y-91938190D01*
X144042748Y-91868454D01*
X143928394Y-91774606D01*
X143834546Y-91660252D01*
X143764810Y-91529786D01*
X143721867Y-91388222D01*
X143707367Y-91241000D01*
X143721867Y-91093778D01*
X143764810Y-90952214D01*
X143834546Y-90821748D01*
X143928394Y-90707394D01*
X144042748Y-90613546D01*
X144173214Y-90543810D01*
X144314778Y-90500867D01*
X144388335Y-90493622D01*
X144425112Y-90490000D01*
X145598888Y-90490000D01*
X145635665Y-90493622D01*
X145635665Y-90493622D01*
G37*
G36*
X135074443Y-87964519D02*
X135140627Y-87971037D01*
X135253853Y-88005384D01*
X135310467Y-88022557D01*
X135449087Y-88096652D01*
X135466991Y-88106222D01*
X135502729Y-88135552D01*
X135604186Y-88218814D01*
X135687448Y-88320271D01*
X135716778Y-88356009D01*
X135716779Y-88356011D01*
X135800443Y-88512533D01*
X135800443Y-88512534D01*
X135851963Y-88682373D01*
X135869359Y-88859000D01*
X135851963Y-89035627D01*
X135817616Y-89148853D01*
X135800443Y-89205467D01*
X135726348Y-89344087D01*
X135716778Y-89361991D01*
X135687448Y-89397729D01*
X135604186Y-89499186D01*
X135502729Y-89582448D01*
X135466991Y-89611778D01*
X135466989Y-89611779D01*
X135310467Y-89695443D01*
X135253853Y-89712616D01*
X135140627Y-89746963D01*
X135074442Y-89753482D01*
X135008260Y-89760000D01*
X133679740Y-89760000D01*
X133613558Y-89753482D01*
X133547373Y-89746963D01*
X133434147Y-89712616D01*
X133377533Y-89695443D01*
X133221011Y-89611779D01*
X133221009Y-89611778D01*
X133185271Y-89582448D01*
X133083814Y-89499186D01*
X133000552Y-89397729D01*
X132971222Y-89361991D01*
X132961652Y-89344087D01*
X132887557Y-89205467D01*
X132870384Y-89148853D01*
X132836037Y-89035627D01*
X132818641Y-88859000D01*
X132836037Y-88682373D01*
X132887557Y-88512534D01*
X132887557Y-88512533D01*
X132971221Y-88356011D01*
X132971222Y-88356009D01*
X133000552Y-88320271D01*
X133083814Y-88218814D01*
X133185271Y-88135552D01*
X133221009Y-88106222D01*
X133238913Y-88096652D01*
X133377533Y-88022557D01*
X133434147Y-88005384D01*
X133547373Y-87971037D01*
X133613557Y-87964519D01*
X133679740Y-87958000D01*
X135008260Y-87958000D01*
X135074443Y-87964519D01*
X135074443Y-87964519D01*
G37*
G36*
X113416420Y-84127143D02*
X113548556Y-84167227D01*
X113548558Y-84167228D01*
X113670338Y-84232320D01*
X113670340Y-84232321D01*
X113670339Y-84232321D01*
X113777078Y-84319918D01*
X113777080Y-84319921D01*
X113864680Y-84426661D01*
X113906802Y-84505467D01*
X113929773Y-84548443D01*
X113969857Y-84680579D01*
X113980000Y-84783568D01*
X113980000Y-85552432D01*
X113969857Y-85655421D01*
X113929773Y-85787557D01*
X113929772Y-85787559D01*
X113864680Y-85909339D01*
X113777080Y-86016080D01*
X113670339Y-86103680D01*
X113548559Y-86168772D01*
X113548557Y-86168773D01*
X113416421Y-86208857D01*
X113279000Y-86222391D01*
X113141580Y-86208857D01*
X113009444Y-86168773D01*
X113009442Y-86168772D01*
X112887662Y-86103680D01*
X112780921Y-86016080D01*
X112693321Y-85909339D01*
X112628229Y-85787559D01*
X112628228Y-85787558D01*
X112588143Y-85655419D01*
X112578000Y-85552432D01*
X112578000Y-84783569D01*
X112588143Y-84680580D01*
X112628227Y-84548444D01*
X112628229Y-84548441D01*
X112693320Y-84426662D01*
X112704883Y-84412573D01*
X112780918Y-84319922D01*
X112810910Y-84295309D01*
X112887661Y-84232320D01*
X113009441Y-84167228D01*
X113009443Y-84167227D01*
X113141579Y-84127143D01*
X113279000Y-84113609D01*
X113416420Y-84127143D01*
X113416420Y-84127143D01*
G37*
G36*
X123716420Y-84127143D02*
X123848556Y-84167227D01*
X123848558Y-84167228D01*
X123970338Y-84232320D01*
X123970340Y-84232321D01*
X123970339Y-84232321D01*
X124077078Y-84319918D01*
X124077080Y-84319921D01*
X124164680Y-84426661D01*
X124206802Y-84505467D01*
X124229773Y-84548443D01*
X124269857Y-84680579D01*
X124280000Y-84783568D01*
X124280000Y-85552432D01*
X124269857Y-85655421D01*
X124229773Y-85787557D01*
X124229772Y-85787559D01*
X124164680Y-85909339D01*
X124077080Y-86016080D01*
X123970339Y-86103680D01*
X123848559Y-86168772D01*
X123848557Y-86168773D01*
X123716421Y-86208857D01*
X123579000Y-86222391D01*
X123441580Y-86208857D01*
X123309444Y-86168773D01*
X123309442Y-86168772D01*
X123187662Y-86103680D01*
X123080921Y-86016080D01*
X122993321Y-85909339D01*
X122928229Y-85787559D01*
X122928228Y-85787558D01*
X122888143Y-85655419D01*
X122878000Y-85552432D01*
X122878000Y-84783569D01*
X122888143Y-84680580D01*
X122928227Y-84548444D01*
X122928229Y-84548441D01*
X122993320Y-84426662D01*
X123004883Y-84412573D01*
X123080918Y-84319922D01*
X123110910Y-84295309D01*
X123187661Y-84232320D01*
X123309441Y-84167228D01*
X123309443Y-84167227D01*
X123441579Y-84127143D01*
X123579000Y-84113609D01*
X123716420Y-84127143D01*
X123716420Y-84127143D01*
G37*
G36*
X135074442Y-83264518D02*
X135140627Y-83271037D01*
X135253853Y-83305384D01*
X135310467Y-83322557D01*
X135433209Y-83388165D01*
X135466991Y-83406222D01*
X135502729Y-83435552D01*
X135604186Y-83518814D01*
X135679207Y-83610229D01*
X135716778Y-83656009D01*
X135716779Y-83656011D01*
X135800443Y-83812533D01*
X135800443Y-83812534D01*
X135851963Y-83982373D01*
X135869359Y-84159000D01*
X135851963Y-84335627D01*
X135817616Y-84448853D01*
X135800443Y-84505467D01*
X135777471Y-84548444D01*
X135716778Y-84661991D01*
X135701523Y-84680579D01*
X135604186Y-84799186D01*
X135502729Y-84882448D01*
X135466991Y-84911778D01*
X135466989Y-84911779D01*
X135310467Y-84995443D01*
X135253853Y-85012616D01*
X135140627Y-85046963D01*
X135074442Y-85053482D01*
X135008260Y-85060000D01*
X133679740Y-85060000D01*
X133613558Y-85053482D01*
X133547373Y-85046963D01*
X133434147Y-85012616D01*
X133377533Y-84995443D01*
X133221011Y-84911779D01*
X133221009Y-84911778D01*
X133185271Y-84882448D01*
X133083814Y-84799186D01*
X132986477Y-84680579D01*
X132971222Y-84661991D01*
X132910529Y-84548444D01*
X132887557Y-84505467D01*
X132870384Y-84448853D01*
X132836037Y-84335627D01*
X132818641Y-84159000D01*
X132836037Y-83982373D01*
X132887557Y-83812534D01*
X132887557Y-83812533D01*
X132971221Y-83656011D01*
X132971222Y-83656009D01*
X133008793Y-83610229D01*
X133083814Y-83518814D01*
X133185271Y-83435552D01*
X133221009Y-83406222D01*
X133254791Y-83388165D01*
X133377533Y-83322557D01*
X133434147Y-83305384D01*
X133547373Y-83271037D01*
X133613558Y-83264518D01*
X133679740Y-83258000D01*
X135008260Y-83258000D01*
X135074442Y-83264518D01*
X135074442Y-83264518D01*
G37*
G36*
X145619025Y-82151590D02*
X145770012Y-82197392D01*
X145909165Y-82271770D01*
X146031133Y-82371867D01*
X146131230Y-82493835D01*
X146205608Y-82632988D01*
X146251410Y-82783975D01*
X146266875Y-82941000D01*
X146251410Y-83098025D01*
X146205608Y-83249012D01*
X146131230Y-83388165D01*
X146031133Y-83510133D01*
X145909165Y-83610230D01*
X145770012Y-83684608D01*
X145619025Y-83730410D01*
X145501346Y-83742000D01*
X144522654Y-83742000D01*
X144404975Y-83730410D01*
X144253988Y-83684608D01*
X144114835Y-83610230D01*
X143992867Y-83510133D01*
X143892770Y-83388165D01*
X143818392Y-83249012D01*
X143772590Y-83098025D01*
X143757125Y-82941000D01*
X143772590Y-82783975D01*
X143818392Y-82632988D01*
X143892770Y-82493835D01*
X143992867Y-82371867D01*
X144114835Y-82271770D01*
X144253988Y-82197392D01*
X144404975Y-82151590D01*
X144522654Y-82140000D01*
X145501346Y-82140000D01*
X145619025Y-82151590D01*
X145619025Y-82151590D01*
G37*
G36*
X146163000Y-80642000D02*
X143861000Y-80642000D01*
X143861000Y-79040000D01*
X146163000Y-79040000D01*
X146163000Y-80642000D01*
X146163000Y-80642000D01*
G37*
G36*
X135074442Y-78564518D02*
X135140627Y-78571037D01*
X135253853Y-78605384D01*
X135310467Y-78622557D01*
X135449087Y-78696652D01*
X135466991Y-78706222D01*
X135502729Y-78735552D01*
X135604186Y-78818814D01*
X135687448Y-78920271D01*
X135716778Y-78956009D01*
X135716779Y-78956011D01*
X135800443Y-79112533D01*
X135800443Y-79112534D01*
X135851963Y-79282373D01*
X135869359Y-79459000D01*
X135851963Y-79635627D01*
X135817616Y-79748853D01*
X135800443Y-79805467D01*
X135726348Y-79944087D01*
X135716778Y-79961991D01*
X135687448Y-79997729D01*
X135604186Y-80099186D01*
X135502729Y-80182448D01*
X135466991Y-80211778D01*
X135466989Y-80211779D01*
X135310467Y-80295443D01*
X135253853Y-80312616D01*
X135140627Y-80346963D01*
X135074442Y-80353482D01*
X135008260Y-80360000D01*
X133679740Y-80360000D01*
X133613558Y-80353482D01*
X133547373Y-80346963D01*
X133434147Y-80312616D01*
X133377533Y-80295443D01*
X133221011Y-80211779D01*
X133221009Y-80211778D01*
X133185271Y-80182448D01*
X133083814Y-80099186D01*
X133000552Y-79997729D01*
X132971222Y-79961991D01*
X132961652Y-79944087D01*
X132887557Y-79805467D01*
X132870384Y-79748853D01*
X132836037Y-79635627D01*
X132818641Y-79459000D01*
X132836037Y-79282373D01*
X132887557Y-79112534D01*
X132887557Y-79112533D01*
X132971221Y-78956011D01*
X132971222Y-78956009D01*
X133000552Y-78920271D01*
X133083814Y-78818814D01*
X133185271Y-78735552D01*
X133221009Y-78706222D01*
X133238913Y-78696652D01*
X133377533Y-78622557D01*
X133434147Y-78605384D01*
X133547373Y-78571037D01*
X133613558Y-78564518D01*
X133679740Y-78558000D01*
X135008260Y-78558000D01*
X135074442Y-78564518D01*
X135074442Y-78564518D01*
G37*
G36*
X127665294Y-71573633D02*
X127837694Y-71625931D01*
X127837696Y-71625932D01*
X127996583Y-71710859D01*
X127996585Y-71710860D01*
X127996584Y-71710860D01*
X128135849Y-71825151D01*
X128250140Y-71964416D01*
X128335069Y-72123306D01*
X128387367Y-72295706D01*
X128405025Y-72475000D01*
X128387367Y-72654294D01*
X128335069Y-72826694D01*
X128335068Y-72826696D01*
X128250141Y-72985583D01*
X128135849Y-73124849D01*
X127996583Y-73239141D01*
X127908916Y-73286000D01*
X127837694Y-73324069D01*
X127665294Y-73376367D01*
X127530931Y-73389600D01*
X127441069Y-73389600D01*
X127306706Y-73376367D01*
X127134306Y-73324069D01*
X127063084Y-73286000D01*
X126975417Y-73239141D01*
X126836151Y-73124849D01*
X126721859Y-72985583D01*
X126636932Y-72826696D01*
X126636931Y-72826694D01*
X126584633Y-72654294D01*
X126566975Y-72475000D01*
X126584633Y-72295706D01*
X126636931Y-72123306D01*
X126721860Y-71964416D01*
X126836151Y-71825151D01*
X126975416Y-71710860D01*
X126975415Y-71710860D01*
X126975417Y-71710859D01*
X127134304Y-71625932D01*
X127134306Y-71625931D01*
X127306706Y-71573633D01*
X127441069Y-71560400D01*
X127530931Y-71560400D01*
X127665294Y-71573633D01*
X127665294Y-71573633D01*
G37*
G36*
X135285294Y-71573633D02*
X135457694Y-71625931D01*
X135457696Y-71625932D01*
X135616583Y-71710859D01*
X135616585Y-71710860D01*
X135616584Y-71710860D01*
X135755849Y-71825151D01*
X135870140Y-71964416D01*
X135955069Y-72123306D01*
X136007367Y-72295706D01*
X136025025Y-72475000D01*
X136007367Y-72654294D01*
X135955069Y-72826694D01*
X135955068Y-72826696D01*
X135870141Y-72985583D01*
X135755849Y-73124849D01*
X135616583Y-73239141D01*
X135528916Y-73286000D01*
X135457694Y-73324069D01*
X135285294Y-73376367D01*
X135150931Y-73389600D01*
X135061069Y-73389600D01*
X134926706Y-73376367D01*
X134754306Y-73324069D01*
X134683084Y-73286000D01*
X134595417Y-73239141D01*
X134456151Y-73124849D01*
X134341859Y-72985583D01*
X134256932Y-72826696D01*
X134256931Y-72826694D01*
X134204633Y-72654294D01*
X134186975Y-72475000D01*
X134204633Y-72295706D01*
X134256931Y-72123306D01*
X134341860Y-71964416D01*
X134456151Y-71825151D01*
X134595416Y-71710860D01*
X134595415Y-71710860D01*
X134595417Y-71710859D01*
X134754304Y-71625932D01*
X134754306Y-71625931D01*
X134926706Y-71573633D01*
X135061069Y-71560400D01*
X135150931Y-71560400D01*
X135285294Y-71573633D01*
X135285294Y-71573633D01*
G37*
G36*
X132745294Y-71573633D02*
X132917694Y-71625931D01*
X132917696Y-71625932D01*
X133076583Y-71710859D01*
X133076585Y-71710860D01*
X133076584Y-71710860D01*
X133215849Y-71825151D01*
X133330140Y-71964416D01*
X133415069Y-72123306D01*
X133467367Y-72295706D01*
X133485025Y-72475000D01*
X133467367Y-72654294D01*
X133415069Y-72826694D01*
X133415068Y-72826696D01*
X133330141Y-72985583D01*
X133215849Y-73124849D01*
X133076583Y-73239141D01*
X132988916Y-73286000D01*
X132917694Y-73324069D01*
X132745294Y-73376367D01*
X132610931Y-73389600D01*
X132521069Y-73389600D01*
X132386706Y-73376367D01*
X132214306Y-73324069D01*
X132143084Y-73286000D01*
X132055417Y-73239141D01*
X131916151Y-73124849D01*
X131801859Y-72985583D01*
X131716932Y-72826696D01*
X131716931Y-72826694D01*
X131664633Y-72654294D01*
X131646975Y-72475000D01*
X131664633Y-72295706D01*
X131716931Y-72123306D01*
X131801860Y-71964416D01*
X131916151Y-71825151D01*
X132055416Y-71710860D01*
X132055415Y-71710860D01*
X132055417Y-71710859D01*
X132214304Y-71625932D01*
X132214306Y-71625931D01*
X132386706Y-71573633D01*
X132521069Y-71560400D01*
X132610931Y-71560400D01*
X132745294Y-71573633D01*
X132745294Y-71573633D01*
G37*
G36*
X125860600Y-73389600D02*
X124031400Y-73389600D01*
X124031400Y-71560400D01*
X125860600Y-71560400D01*
X125860600Y-73389600D01*
X125860600Y-73389600D01*
G37*
G36*
X130205294Y-71573633D02*
X130377694Y-71625931D01*
X130377696Y-71625932D01*
X130536583Y-71710859D01*
X130536585Y-71710860D01*
X130536584Y-71710860D01*
X130675849Y-71825151D01*
X130790140Y-71964416D01*
X130875069Y-72123306D01*
X130927367Y-72295706D01*
X130945025Y-72475000D01*
X130927367Y-72654294D01*
X130875069Y-72826694D01*
X130875068Y-72826696D01*
X130790141Y-72985583D01*
X130675849Y-73124849D01*
X130536583Y-73239141D01*
X130448916Y-73286000D01*
X130377694Y-73324069D01*
X130205294Y-73376367D01*
X130070931Y-73389600D01*
X129981069Y-73389600D01*
X129846706Y-73376367D01*
X129674306Y-73324069D01*
X129603084Y-73286000D01*
X129515417Y-73239141D01*
X129376151Y-73124849D01*
X129261859Y-72985583D01*
X129176932Y-72826696D01*
X129176931Y-72826694D01*
X129124633Y-72654294D01*
X129106975Y-72475000D01*
X129124633Y-72295706D01*
X129176931Y-72123306D01*
X129261860Y-71964416D01*
X129376151Y-71825151D01*
X129515416Y-71710860D01*
X129515415Y-71710860D01*
X129515417Y-71710859D01*
X129674304Y-71625932D01*
X129674306Y-71625931D01*
X129846706Y-71573633D01*
X129981069Y-71560400D01*
X130070931Y-71560400D01*
X130205294Y-71573633D01*
X130205294Y-71573633D01*
G37*
G36*
X144466000Y-73326000D02*
X142764000Y-73326000D01*
X142764000Y-71624000D01*
X144466000Y-71624000D01*
X144466000Y-73326000D01*
X144466000Y-73326000D01*
G37*
G36*
X116558228Y-71616703D02*
X116713100Y-71680853D01*
X116852481Y-71773985D01*
X116971015Y-71892519D01*
X117064147Y-72031900D01*
X117128297Y-72186772D01*
X117161000Y-72351184D01*
X117161000Y-72518816D01*
X117128297Y-72683228D01*
X117064147Y-72838100D01*
X116971015Y-72977481D01*
X116852481Y-73096015D01*
X116713100Y-73189147D01*
X116558228Y-73253297D01*
X116393816Y-73286000D01*
X116226184Y-73286000D01*
X116061772Y-73253297D01*
X115906900Y-73189147D01*
X115767519Y-73096015D01*
X115648985Y-72977481D01*
X115555853Y-72838100D01*
X115491703Y-72683228D01*
X115459000Y-72518816D01*
X115459000Y-72351184D01*
X115491703Y-72186772D01*
X115555853Y-72031900D01*
X115648985Y-71892519D01*
X115767519Y-71773985D01*
X115906900Y-71680853D01*
X116061772Y-71616703D01*
X116226184Y-71584000D01*
X116393816Y-71584000D01*
X116558228Y-71616703D01*
X116558228Y-71616703D01*
G37*
G36*
X130205294Y-69033633D02*
X130377694Y-69085931D01*
X130377696Y-69085932D01*
X130536583Y-69170859D01*
X130675849Y-69285151D01*
X130790141Y-69424417D01*
X130868972Y-69571900D01*
X130875069Y-69583306D01*
X130927367Y-69755706D01*
X130945025Y-69935000D01*
X130927367Y-70114294D01*
X130875069Y-70286694D01*
X130875068Y-70286696D01*
X130790141Y-70445583D01*
X130675849Y-70584849D01*
X130536583Y-70699141D01*
X130377696Y-70784068D01*
X130377694Y-70784069D01*
X130205294Y-70836367D01*
X130070931Y-70849600D01*
X129981069Y-70849600D01*
X129846706Y-70836367D01*
X129674306Y-70784069D01*
X129674304Y-70784068D01*
X129515417Y-70699141D01*
X129376151Y-70584849D01*
X129261859Y-70445583D01*
X129176932Y-70286696D01*
X129176931Y-70286694D01*
X129124633Y-70114294D01*
X129106975Y-69935000D01*
X129124633Y-69755706D01*
X129176931Y-69583306D01*
X129183028Y-69571900D01*
X129261859Y-69424417D01*
X129376151Y-69285151D01*
X129515417Y-69170859D01*
X129674304Y-69085932D01*
X129674306Y-69085931D01*
X129846706Y-69033633D01*
X129981069Y-69020400D01*
X130070931Y-69020400D01*
X130205294Y-69033633D01*
X130205294Y-69033633D01*
G37*
G36*
X125125294Y-69033633D02*
X125297694Y-69085931D01*
X125297696Y-69085932D01*
X125456583Y-69170859D01*
X125595849Y-69285151D01*
X125710141Y-69424417D01*
X125788972Y-69571900D01*
X125795069Y-69583306D01*
X125847367Y-69755706D01*
X125865025Y-69935000D01*
X125847367Y-70114294D01*
X125795069Y-70286694D01*
X125795068Y-70286696D01*
X125710141Y-70445583D01*
X125595849Y-70584849D01*
X125456583Y-70699141D01*
X125297696Y-70784068D01*
X125297694Y-70784069D01*
X125125294Y-70836367D01*
X124990931Y-70849600D01*
X124901069Y-70849600D01*
X124766706Y-70836367D01*
X124594306Y-70784069D01*
X124594304Y-70784068D01*
X124435417Y-70699141D01*
X124296151Y-70584849D01*
X124181859Y-70445583D01*
X124096932Y-70286696D01*
X124096931Y-70286694D01*
X124044633Y-70114294D01*
X124026975Y-69935000D01*
X124044633Y-69755706D01*
X124096931Y-69583306D01*
X124103028Y-69571900D01*
X124181859Y-69424417D01*
X124296151Y-69285151D01*
X124435417Y-69170859D01*
X124594304Y-69085932D01*
X124594306Y-69085931D01*
X124766706Y-69033633D01*
X124901069Y-69020400D01*
X124990931Y-69020400D01*
X125125294Y-69033633D01*
X125125294Y-69033633D01*
G37*
G36*
X127665294Y-69033633D02*
X127837694Y-69085931D01*
X127837696Y-69085932D01*
X127996583Y-69170859D01*
X128135849Y-69285151D01*
X128250141Y-69424417D01*
X128328972Y-69571900D01*
X128335069Y-69583306D01*
X128387367Y-69755706D01*
X128405025Y-69935000D01*
X128387367Y-70114294D01*
X128335069Y-70286694D01*
X128335068Y-70286696D01*
X128250141Y-70445583D01*
X128135849Y-70584849D01*
X127996583Y-70699141D01*
X127837696Y-70784068D01*
X127837694Y-70784069D01*
X127665294Y-70836367D01*
X127530931Y-70849600D01*
X127441069Y-70849600D01*
X127306706Y-70836367D01*
X127134306Y-70784069D01*
X127134304Y-70784068D01*
X126975417Y-70699141D01*
X126836151Y-70584849D01*
X126721859Y-70445583D01*
X126636932Y-70286696D01*
X126636931Y-70286694D01*
X126584633Y-70114294D01*
X126566975Y-69935000D01*
X126584633Y-69755706D01*
X126636931Y-69583306D01*
X126643028Y-69571900D01*
X126721859Y-69424417D01*
X126836151Y-69285151D01*
X126975417Y-69170859D01*
X127134304Y-69085932D01*
X127134306Y-69085931D01*
X127306706Y-69033633D01*
X127441069Y-69020400D01*
X127530931Y-69020400D01*
X127665294Y-69033633D01*
X127665294Y-69033633D01*
G37*
G36*
X132745294Y-69033633D02*
X132917694Y-69085931D01*
X132917696Y-69085932D01*
X133076583Y-69170859D01*
X133215849Y-69285151D01*
X133330141Y-69424417D01*
X133408972Y-69571900D01*
X133415069Y-69583306D01*
X133467367Y-69755706D01*
X133485025Y-69935000D01*
X133467367Y-70114294D01*
X133415069Y-70286694D01*
X133415068Y-70286696D01*
X133330141Y-70445583D01*
X133215849Y-70584849D01*
X133076583Y-70699141D01*
X132917696Y-70784068D01*
X132917694Y-70784069D01*
X132745294Y-70836367D01*
X132610931Y-70849600D01*
X132521069Y-70849600D01*
X132386706Y-70836367D01*
X132214306Y-70784069D01*
X132214304Y-70784068D01*
X132055417Y-70699141D01*
X131916151Y-70584849D01*
X131801859Y-70445583D01*
X131716932Y-70286696D01*
X131716931Y-70286694D01*
X131664633Y-70114294D01*
X131646975Y-69935000D01*
X131664633Y-69755706D01*
X131716931Y-69583306D01*
X131723028Y-69571900D01*
X131801859Y-69424417D01*
X131916151Y-69285151D01*
X132055417Y-69170859D01*
X132214304Y-69085932D01*
X132214306Y-69085931D01*
X132386706Y-69033633D01*
X132521069Y-69020400D01*
X132610931Y-69020400D01*
X132745294Y-69033633D01*
X132745294Y-69033633D01*
G37*
G36*
X135285294Y-69033633D02*
X135457694Y-69085931D01*
X135457696Y-69085932D01*
X135616583Y-69170859D01*
X135755849Y-69285151D01*
X135870141Y-69424417D01*
X135948972Y-69571900D01*
X135955069Y-69583306D01*
X136007367Y-69755706D01*
X136025025Y-69935000D01*
X136007367Y-70114294D01*
X135955069Y-70286694D01*
X135955068Y-70286696D01*
X135870141Y-70445583D01*
X135755849Y-70584849D01*
X135616583Y-70699141D01*
X135457696Y-70784068D01*
X135457694Y-70784069D01*
X135285294Y-70836367D01*
X135150931Y-70849600D01*
X135061069Y-70849600D01*
X134926706Y-70836367D01*
X134754306Y-70784069D01*
X134754304Y-70784068D01*
X134595417Y-70699141D01*
X134456151Y-70584849D01*
X134341859Y-70445583D01*
X134256932Y-70286696D01*
X134256931Y-70286694D01*
X134204633Y-70114294D01*
X134186975Y-69935000D01*
X134204633Y-69755706D01*
X134256931Y-69583306D01*
X134263028Y-69571900D01*
X134341859Y-69424417D01*
X134456151Y-69285151D01*
X134595417Y-69170859D01*
X134754304Y-69085932D01*
X134754306Y-69085931D01*
X134926706Y-69033633D01*
X135061069Y-69020400D01*
X135150931Y-69020400D01*
X135285294Y-69033633D01*
X135285294Y-69033633D01*
G37*
G36*
X143863228Y-69156703D02*
X144018100Y-69220853D01*
X144157481Y-69313985D01*
X144276015Y-69432519D01*
X144369147Y-69571900D01*
X144433297Y-69726772D01*
X144466000Y-69891184D01*
X144466000Y-70058816D01*
X144433297Y-70223228D01*
X144369147Y-70378100D01*
X144276015Y-70517481D01*
X144157481Y-70636015D01*
X144018100Y-70729147D01*
X143863228Y-70793297D01*
X143698816Y-70826000D01*
X143531184Y-70826000D01*
X143366772Y-70793297D01*
X143211900Y-70729147D01*
X143072519Y-70636015D01*
X142953985Y-70517481D01*
X142860853Y-70378100D01*
X142796703Y-70223228D01*
X142764000Y-70058816D01*
X142764000Y-69891184D01*
X142796703Y-69726772D01*
X142860853Y-69571900D01*
X142953985Y-69432519D01*
X143072519Y-69313985D01*
X143211900Y-69220853D01*
X143366772Y-69156703D01*
X143531184Y-69124000D01*
X143698816Y-69124000D01*
X143863228Y-69156703D01*
X143863228Y-69156703D01*
G37*
G36*
X117161000Y-70786000D02*
X115459000Y-70786000D01*
X115459000Y-69084000D01*
X117161000Y-69084000D01*
X117161000Y-70786000D01*
X117161000Y-70786000D01*
G37*
G36*
X114642442Y-63452518D02*
X114708627Y-63459037D01*
X114821853Y-63493384D01*
X114878467Y-63510557D01*
X115017087Y-63584652D01*
X115034991Y-63594222D01*
X115070729Y-63623552D01*
X115172186Y-63706814D01*
X115255448Y-63808271D01*
X115284778Y-63844009D01*
X115284779Y-63844011D01*
X115368443Y-64000533D01*
X115368443Y-64000534D01*
X115419963Y-64170373D01*
X115437359Y-64347000D01*
X115419963Y-64523627D01*
X115385616Y-64636853D01*
X115368443Y-64693467D01*
X115294348Y-64832087D01*
X115284778Y-64849991D01*
X115255448Y-64885729D01*
X115172186Y-64987186D01*
X115070729Y-65070448D01*
X115034991Y-65099778D01*
X115034989Y-65099779D01*
X114878467Y-65183443D01*
X114821853Y-65200616D01*
X114708627Y-65234963D01*
X114642443Y-65241481D01*
X114576260Y-65248000D01*
X114487740Y-65248000D01*
X114421557Y-65241481D01*
X114355373Y-65234963D01*
X114242147Y-65200616D01*
X114185533Y-65183443D01*
X114029011Y-65099779D01*
X114029009Y-65099778D01*
X113993271Y-65070448D01*
X113891814Y-64987186D01*
X113808552Y-64885729D01*
X113779222Y-64849991D01*
X113769652Y-64832087D01*
X113695557Y-64693467D01*
X113678384Y-64636853D01*
X113644037Y-64523627D01*
X113626641Y-64347000D01*
X113644037Y-64170373D01*
X113695557Y-64000534D01*
X113695557Y-64000533D01*
X113779221Y-63844011D01*
X113779222Y-63844009D01*
X113808552Y-63808271D01*
X113891814Y-63706814D01*
X113993271Y-63623552D01*
X114029009Y-63594222D01*
X114046913Y-63584652D01*
X114185533Y-63510557D01*
X114242147Y-63493384D01*
X114355373Y-63459037D01*
X114421558Y-63452518D01*
X114487740Y-63446000D01*
X114576260Y-63446000D01*
X114642442Y-63452518D01*
X114642442Y-63452518D01*
G37*
G36*
X110353000Y-65248000D02*
X108551000Y-65248000D01*
X108551000Y-63446000D01*
X110353000Y-63446000D01*
X110353000Y-65248000D01*
X110353000Y-65248000D01*
G37*
G36*
X112102442Y-63452518D02*
X112168627Y-63459037D01*
X112281853Y-63493384D01*
X112338467Y-63510557D01*
X112477087Y-63584652D01*
X112494991Y-63594222D01*
X112530729Y-63623552D01*
X112632186Y-63706814D01*
X112715448Y-63808271D01*
X112744778Y-63844009D01*
X112744779Y-63844011D01*
X112828443Y-64000533D01*
X112828443Y-64000534D01*
X112879963Y-64170373D01*
X112897359Y-64347000D01*
X112879963Y-64523627D01*
X112845616Y-64636853D01*
X112828443Y-64693467D01*
X112754348Y-64832087D01*
X112744778Y-64849991D01*
X112715448Y-64885729D01*
X112632186Y-64987186D01*
X112530729Y-65070448D01*
X112494991Y-65099778D01*
X112494989Y-65099779D01*
X112338467Y-65183443D01*
X112281853Y-65200616D01*
X112168627Y-65234963D01*
X112102443Y-65241481D01*
X112036260Y-65248000D01*
X111947740Y-65248000D01*
X111881557Y-65241481D01*
X111815373Y-65234963D01*
X111702147Y-65200616D01*
X111645533Y-65183443D01*
X111489011Y-65099779D01*
X111489009Y-65099778D01*
X111453271Y-65070448D01*
X111351814Y-64987186D01*
X111268552Y-64885729D01*
X111239222Y-64849991D01*
X111229652Y-64832087D01*
X111155557Y-64693467D01*
X111138384Y-64636853D01*
X111104037Y-64523627D01*
X111086641Y-64347000D01*
X111104037Y-64170373D01*
X111155557Y-64000534D01*
X111155557Y-64000533D01*
X111239221Y-63844011D01*
X111239222Y-63844009D01*
X111268552Y-63808271D01*
X111351814Y-63706814D01*
X111453271Y-63623552D01*
X111489009Y-63594222D01*
X111506913Y-63584652D01*
X111645533Y-63510557D01*
X111702147Y-63493384D01*
X111815373Y-63459037D01*
X111881558Y-63452518D01*
X111947740Y-63446000D01*
X112036260Y-63446000D01*
X112102442Y-63452518D01*
X112102442Y-63452518D01*
G37*
G36*
X145503442Y-63452518D02*
X145569627Y-63459037D01*
X145682853Y-63493384D01*
X145739467Y-63510557D01*
X145878087Y-63584652D01*
X145895991Y-63594222D01*
X145931729Y-63623552D01*
X146033186Y-63706814D01*
X146116448Y-63808271D01*
X146145778Y-63844009D01*
X146145779Y-63844011D01*
X146229443Y-64000533D01*
X146229443Y-64000534D01*
X146280963Y-64170373D01*
X146298359Y-64347000D01*
X146280963Y-64523627D01*
X146246616Y-64636853D01*
X146229443Y-64693467D01*
X146155348Y-64832087D01*
X146145778Y-64849991D01*
X146116448Y-64885729D01*
X146033186Y-64987186D01*
X145931729Y-65070448D01*
X145895991Y-65099778D01*
X145895989Y-65099779D01*
X145739467Y-65183443D01*
X145682853Y-65200616D01*
X145569627Y-65234963D01*
X145503443Y-65241481D01*
X145437260Y-65248000D01*
X145348740Y-65248000D01*
X145282557Y-65241481D01*
X145216373Y-65234963D01*
X145103147Y-65200616D01*
X145046533Y-65183443D01*
X144890011Y-65099779D01*
X144890009Y-65099778D01*
X144854271Y-65070448D01*
X144752814Y-64987186D01*
X144669552Y-64885729D01*
X144640222Y-64849991D01*
X144630652Y-64832087D01*
X144556557Y-64693467D01*
X144539384Y-64636853D01*
X144505037Y-64523627D01*
X144487641Y-64347000D01*
X144505037Y-64170373D01*
X144556557Y-64000534D01*
X144556557Y-64000533D01*
X144640221Y-63844011D01*
X144640222Y-63844009D01*
X144669552Y-63808271D01*
X144752814Y-63706814D01*
X144854271Y-63623552D01*
X144890009Y-63594222D01*
X144907913Y-63584652D01*
X145046533Y-63510557D01*
X145103147Y-63493384D01*
X145216373Y-63459037D01*
X145282558Y-63452518D01*
X145348740Y-63446000D01*
X145437260Y-63446000D01*
X145503442Y-63452518D01*
X145503442Y-63452518D01*
G37*
G36*
X143754000Y-65248000D02*
X141952000Y-65248000D01*
X141952000Y-63446000D01*
X143754000Y-63446000D01*
X143754000Y-65248000D01*
X143754000Y-65248000D01*
G37*
G36*
X148043442Y-63452518D02*
X148109627Y-63459037D01*
X148222853Y-63493384D01*
X148279467Y-63510557D01*
X148418087Y-63584652D01*
X148435991Y-63594222D01*
X148471729Y-63623552D01*
X148573186Y-63706814D01*
X148656448Y-63808271D01*
X148685778Y-63844009D01*
X148685779Y-63844011D01*
X148769443Y-64000533D01*
X148769443Y-64000534D01*
X148820963Y-64170373D01*
X148838359Y-64347000D01*
X148820963Y-64523627D01*
X148786616Y-64636853D01*
X148769443Y-64693467D01*
X148695348Y-64832087D01*
X148685778Y-64849991D01*
X148656448Y-64885729D01*
X148573186Y-64987186D01*
X148471729Y-65070448D01*
X148435991Y-65099778D01*
X148435989Y-65099779D01*
X148279467Y-65183443D01*
X148222853Y-65200616D01*
X148109627Y-65234963D01*
X148043443Y-65241481D01*
X147977260Y-65248000D01*
X147888740Y-65248000D01*
X147822557Y-65241481D01*
X147756373Y-65234963D01*
X147643147Y-65200616D01*
X147586533Y-65183443D01*
X147430011Y-65099779D01*
X147430009Y-65099778D01*
X147394271Y-65070448D01*
X147292814Y-64987186D01*
X147209552Y-64885729D01*
X147180222Y-64849991D01*
X147170652Y-64832087D01*
X147096557Y-64693467D01*
X147079384Y-64636853D01*
X147045037Y-64523627D01*
X147027641Y-64347000D01*
X147045037Y-64170373D01*
X147096557Y-64000534D01*
X147096557Y-64000533D01*
X147180221Y-63844011D01*
X147180222Y-63844009D01*
X147209552Y-63808271D01*
X147292814Y-63706814D01*
X147394271Y-63623552D01*
X147430009Y-63594222D01*
X147447913Y-63584652D01*
X147586533Y-63510557D01*
X147643147Y-63493384D01*
X147756373Y-63459037D01*
X147822558Y-63452518D01*
X147888740Y-63446000D01*
X147977260Y-63446000D01*
X148043442Y-63452518D01*
X148043442Y-63452518D01*
G37*
G36*
X117182442Y-63452518D02*
X117248627Y-63459037D01*
X117361853Y-63493384D01*
X117418467Y-63510557D01*
X117557087Y-63584652D01*
X117574991Y-63594222D01*
X117610729Y-63623552D01*
X117712186Y-63706814D01*
X117795448Y-63808271D01*
X117824778Y-63844009D01*
X117824779Y-63844011D01*
X117908443Y-64000533D01*
X117908443Y-64000534D01*
X117959963Y-64170373D01*
X117977359Y-64347000D01*
X117959963Y-64523627D01*
X117925616Y-64636853D01*
X117908443Y-64693467D01*
X117834348Y-64832087D01*
X117824778Y-64849991D01*
X117795448Y-64885729D01*
X117712186Y-64987186D01*
X117610729Y-65070448D01*
X117574991Y-65099778D01*
X117574989Y-65099779D01*
X117418467Y-65183443D01*
X117361853Y-65200616D01*
X117248627Y-65234963D01*
X117182443Y-65241481D01*
X117116260Y-65248000D01*
X117027740Y-65248000D01*
X116961557Y-65241481D01*
X116895373Y-65234963D01*
X116782147Y-65200616D01*
X116725533Y-65183443D01*
X116569011Y-65099779D01*
X116569009Y-65099778D01*
X116533271Y-65070448D01*
X116431814Y-64987186D01*
X116348552Y-64885729D01*
X116319222Y-64849991D01*
X116309652Y-64832087D01*
X116235557Y-64693467D01*
X116218384Y-64636853D01*
X116184037Y-64523627D01*
X116166641Y-64347000D01*
X116184037Y-64170373D01*
X116235557Y-64000534D01*
X116235557Y-64000533D01*
X116319221Y-63844011D01*
X116319222Y-63844009D01*
X116348552Y-63808271D01*
X116431814Y-63706814D01*
X116533271Y-63623552D01*
X116569009Y-63594222D01*
X116586913Y-63584652D01*
X116725533Y-63510557D01*
X116782147Y-63493384D01*
X116895373Y-63459037D01*
X116961558Y-63452518D01*
X117027740Y-63446000D01*
X117116260Y-63446000D01*
X117182442Y-63452518D01*
X117182442Y-63452518D01*
G37*
G36*
X150583442Y-63452518D02*
X150649627Y-63459037D01*
X150762853Y-63493384D01*
X150819467Y-63510557D01*
X150958087Y-63584652D01*
X150975991Y-63594222D01*
X151011729Y-63623552D01*
X151113186Y-63706814D01*
X151196448Y-63808271D01*
X151225778Y-63844009D01*
X151225779Y-63844011D01*
X151309443Y-64000533D01*
X151309443Y-64000534D01*
X151360963Y-64170373D01*
X151378359Y-64347000D01*
X151360963Y-64523627D01*
X151326616Y-64636853D01*
X151309443Y-64693467D01*
X151235348Y-64832087D01*
X151225778Y-64849991D01*
X151196448Y-64885729D01*
X151113186Y-64987186D01*
X151011729Y-65070448D01*
X150975991Y-65099778D01*
X150975989Y-65099779D01*
X150819467Y-65183443D01*
X150762853Y-65200616D01*
X150649627Y-65234963D01*
X150583443Y-65241481D01*
X150517260Y-65248000D01*
X150428740Y-65248000D01*
X150362557Y-65241481D01*
X150296373Y-65234963D01*
X150183147Y-65200616D01*
X150126533Y-65183443D01*
X149970011Y-65099779D01*
X149970009Y-65099778D01*
X149934271Y-65070448D01*
X149832814Y-64987186D01*
X149749552Y-64885729D01*
X149720222Y-64849991D01*
X149710652Y-64832087D01*
X149636557Y-64693467D01*
X149619384Y-64636853D01*
X149585037Y-64523627D01*
X149567641Y-64347000D01*
X149585037Y-64170373D01*
X149636557Y-64000534D01*
X149636557Y-64000533D01*
X149720221Y-63844011D01*
X149720222Y-63844009D01*
X149749552Y-63808271D01*
X149832814Y-63706814D01*
X149934271Y-63623552D01*
X149970009Y-63594222D01*
X149987913Y-63584652D01*
X150126533Y-63510557D01*
X150183147Y-63493384D01*
X150296373Y-63459037D01*
X150362558Y-63452518D01*
X150428740Y-63446000D01*
X150517260Y-63446000D01*
X150583442Y-63452518D01*
X150583442Y-63452518D01*
G37*
G36*
X116191000Y-61465000D02*
X113889000Y-61465000D01*
X113889000Y-59863000D01*
X116191000Y-59863000D01*
X116191000Y-61465000D01*
X116191000Y-61465000D01*
G37*
G36*
X131177000Y-61465000D02*
X128875000Y-61465000D01*
X128875000Y-59863000D01*
X131177000Y-59863000D01*
X131177000Y-61465000D01*
X131177000Y-61465000D01*
G37*
G36*
X146163000Y-61465000D02*
X143861000Y-61465000D01*
X143861000Y-59863000D01*
X146163000Y-59863000D01*
X146163000Y-61465000D01*
X146163000Y-61465000D01*
G37*
G36*
X130633025Y-56774590D02*
X130784012Y-56820392D01*
X130923165Y-56894770D01*
X131045133Y-56994867D01*
X131145230Y-57116835D01*
X131219608Y-57255988D01*
X131265410Y-57406975D01*
X131280875Y-57564000D01*
X131265410Y-57721025D01*
X131219608Y-57872012D01*
X131145230Y-58011165D01*
X131045133Y-58133133D01*
X130923165Y-58233230D01*
X130784012Y-58307608D01*
X130633025Y-58353410D01*
X130515346Y-58365000D01*
X129536654Y-58365000D01*
X129418975Y-58353410D01*
X129267988Y-58307608D01*
X129128835Y-58233230D01*
X129006867Y-58133133D01*
X128906770Y-58011165D01*
X128832392Y-57872012D01*
X128786590Y-57721025D01*
X128771125Y-57564000D01*
X128786590Y-57406975D01*
X128832392Y-57255988D01*
X128906770Y-57116835D01*
X129006867Y-56994867D01*
X129128835Y-56894770D01*
X129267988Y-56820392D01*
X129418975Y-56774590D01*
X129536654Y-56763000D01*
X130515346Y-56763000D01*
X130633025Y-56774590D01*
X130633025Y-56774590D01*
G37*
G36*
X145619025Y-56774590D02*
X145770012Y-56820392D01*
X145909165Y-56894770D01*
X146031133Y-56994867D01*
X146131230Y-57116835D01*
X146205608Y-57255988D01*
X146251410Y-57406975D01*
X146266875Y-57564000D01*
X146251410Y-57721025D01*
X146205608Y-57872012D01*
X146131230Y-58011165D01*
X146031133Y-58133133D01*
X145909165Y-58233230D01*
X145770012Y-58307608D01*
X145619025Y-58353410D01*
X145501346Y-58365000D01*
X144522654Y-58365000D01*
X144404975Y-58353410D01*
X144253988Y-58307608D01*
X144114835Y-58233230D01*
X143992867Y-58133133D01*
X143892770Y-58011165D01*
X143818392Y-57872012D01*
X143772590Y-57721025D01*
X143757125Y-57564000D01*
X143772590Y-57406975D01*
X143818392Y-57255988D01*
X143892770Y-57116835D01*
X143992867Y-56994867D01*
X144114835Y-56894770D01*
X144253988Y-56820392D01*
X144404975Y-56774590D01*
X144522654Y-56763000D01*
X145501346Y-56763000D01*
X145619025Y-56774590D01*
X145619025Y-56774590D01*
G37*
G36*
X115647025Y-56774590D02*
X115798012Y-56820392D01*
X115937165Y-56894770D01*
X116059133Y-56994867D01*
X116159230Y-57116835D01*
X116233608Y-57255988D01*
X116279410Y-57406975D01*
X116294875Y-57564000D01*
X116279410Y-57721025D01*
X116233608Y-57872012D01*
X116159230Y-58011165D01*
X116059133Y-58133133D01*
X115937165Y-58233230D01*
X115798012Y-58307608D01*
X115647025Y-58353410D01*
X115529346Y-58365000D01*
X114550654Y-58365000D01*
X114432975Y-58353410D01*
X114281988Y-58307608D01*
X114142835Y-58233230D01*
X114020867Y-58133133D01*
X113920770Y-58011165D01*
X113846392Y-57872012D01*
X113800590Y-57721025D01*
X113785125Y-57564000D01*
X113800590Y-57406975D01*
X113846392Y-57255988D01*
X113920770Y-57116835D01*
X114020867Y-56994867D01*
X114142835Y-56894770D01*
X114281988Y-56820392D01*
X114432975Y-56774590D01*
X114550654Y-56763000D01*
X115529346Y-56763000D01*
X115647025Y-56774590D01*
X115647025Y-56774590D01*
G37*
G36*
X115663665Y-48516622D02*
X115737222Y-48523867D01*
X115878786Y-48566810D01*
X116009252Y-48636546D01*
X116123606Y-48730394D01*
X116217454Y-48844748D01*
X116287190Y-48975214D01*
X116330133Y-49116778D01*
X116344633Y-49264000D01*
X116330133Y-49411222D01*
X116287190Y-49552786D01*
X116217454Y-49683252D01*
X116123606Y-49797606D01*
X116009252Y-49891454D01*
X115878786Y-49961190D01*
X115737222Y-50004133D01*
X115663665Y-50011378D01*
X115626888Y-50015000D01*
X114453112Y-50015000D01*
X114416335Y-50011378D01*
X114342778Y-50004133D01*
X114201214Y-49961190D01*
X114070748Y-49891454D01*
X113956394Y-49797606D01*
X113862546Y-49683252D01*
X113792810Y-49552786D01*
X113749867Y-49411222D01*
X113735367Y-49264000D01*
X113749867Y-49116778D01*
X113792810Y-48975214D01*
X113862546Y-48844748D01*
X113956394Y-48730394D01*
X114070748Y-48636546D01*
X114201214Y-48566810D01*
X114342778Y-48523867D01*
X114416335Y-48516622D01*
X114453112Y-48513000D01*
X115626888Y-48513000D01*
X115663665Y-48516622D01*
X115663665Y-48516622D01*
G37*
G36*
X145635665Y-48516622D02*
X145709222Y-48523867D01*
X145850786Y-48566810D01*
X145981252Y-48636546D01*
X146095606Y-48730394D01*
X146189454Y-48844748D01*
X146259190Y-48975214D01*
X146302133Y-49116778D01*
X146316633Y-49264000D01*
X146302133Y-49411222D01*
X146259190Y-49552786D01*
X146189454Y-49683252D01*
X146095606Y-49797606D01*
X145981252Y-49891454D01*
X145850786Y-49961190D01*
X145709222Y-50004133D01*
X145635665Y-50011378D01*
X145598888Y-50015000D01*
X144425112Y-50015000D01*
X144388335Y-50011378D01*
X144314778Y-50004133D01*
X144173214Y-49961190D01*
X144042748Y-49891454D01*
X143928394Y-49797606D01*
X143834546Y-49683252D01*
X143764810Y-49552786D01*
X143721867Y-49411222D01*
X143707367Y-49264000D01*
X143721867Y-49116778D01*
X143764810Y-48975214D01*
X143834546Y-48844748D01*
X143928394Y-48730394D01*
X144042748Y-48636546D01*
X144173214Y-48566810D01*
X144314778Y-48523867D01*
X144388335Y-48516622D01*
X144425112Y-48513000D01*
X145598888Y-48513000D01*
X145635665Y-48516622D01*
X145635665Y-48516622D01*
G37*
G36*
X130649665Y-48516622D02*
X130723222Y-48523867D01*
X130864786Y-48566810D01*
X130995252Y-48636546D01*
X131109606Y-48730394D01*
X131203454Y-48844748D01*
X131273190Y-48975214D01*
X131316133Y-49116778D01*
X131330633Y-49264000D01*
X131316133Y-49411222D01*
X131273190Y-49552786D01*
X131203454Y-49683252D01*
X131109606Y-49797606D01*
X130995252Y-49891454D01*
X130864786Y-49961190D01*
X130723222Y-50004133D01*
X130649665Y-50011378D01*
X130612888Y-50015000D01*
X129439112Y-50015000D01*
X129402335Y-50011378D01*
X129328778Y-50004133D01*
X129187214Y-49961190D01*
X129056748Y-49891454D01*
X128942394Y-49797606D01*
X128848546Y-49683252D01*
X128778810Y-49552786D01*
X128735867Y-49411222D01*
X128721367Y-49264000D01*
X128735867Y-49116778D01*
X128778810Y-48975214D01*
X128848546Y-48844748D01*
X128942394Y-48730394D01*
X129056748Y-48636546D01*
X129187214Y-48566810D01*
X129328778Y-48523867D01*
X129402335Y-48516622D01*
X129439112Y-48513000D01*
X130612888Y-48513000D01*
X130649665Y-48516622D01*
X130649665Y-48516622D01*
G37*
G36*
X116206396Y-37524546D02*
X116379466Y-37596234D01*
X116535230Y-37700312D01*
X116667688Y-37832770D01*
X116771766Y-37988534D01*
X116843454Y-38161604D01*
X116880000Y-38345333D01*
X116880000Y-38532667D01*
X116843454Y-38716396D01*
X116771766Y-38889466D01*
X116667688Y-39045230D01*
X116535230Y-39177688D01*
X116379466Y-39281766D01*
X116206396Y-39353454D01*
X116022667Y-39390000D01*
X115835333Y-39390000D01*
X115651604Y-39353454D01*
X115478534Y-39281766D01*
X115322770Y-39177688D01*
X115190312Y-39045230D01*
X115086234Y-38889466D01*
X115014546Y-38716396D01*
X114978000Y-38532667D01*
X114978000Y-38345333D01*
X115014546Y-38161604D01*
X115086234Y-37988534D01*
X115190312Y-37832770D01*
X115322770Y-37700312D01*
X115478534Y-37596234D01*
X115651604Y-37524546D01*
X115835333Y-37488000D01*
X116022667Y-37488000D01*
X116206396Y-37524546D01*
X116206396Y-37524546D01*
G37*
G36*
X121206396Y-37524546D02*
X121379466Y-37596234D01*
X121535230Y-37700312D01*
X121667688Y-37832770D01*
X121771766Y-37988534D01*
X121843454Y-38161604D01*
X121880000Y-38345333D01*
X121880000Y-38532667D01*
X121843454Y-38716396D01*
X121771766Y-38889466D01*
X121667688Y-39045230D01*
X121535230Y-39177688D01*
X121379466Y-39281766D01*
X121206396Y-39353454D01*
X121022667Y-39390000D01*
X120835333Y-39390000D01*
X120651604Y-39353454D01*
X120478534Y-39281766D01*
X120322770Y-39177688D01*
X120190312Y-39045230D01*
X120086234Y-38889466D01*
X120014546Y-38716396D01*
X119978000Y-38532667D01*
X119978000Y-38345333D01*
X120014546Y-38161604D01*
X120086234Y-37988534D01*
X120190312Y-37832770D01*
X120322770Y-37700312D01*
X120478534Y-37596234D01*
X120651604Y-37524546D01*
X120835333Y-37488000D01*
X121022667Y-37488000D01*
X121206396Y-37524546D01*
X121206396Y-37524546D01*
G37*
G36*
X118706396Y-37524546D02*
X118879466Y-37596234D01*
X119035230Y-37700312D01*
X119167688Y-37832770D01*
X119271766Y-37988534D01*
X119343454Y-38161604D01*
X119380000Y-38345333D01*
X119380000Y-38532667D01*
X119343454Y-38716396D01*
X119271766Y-38889466D01*
X119167688Y-39045230D01*
X119035230Y-39177688D01*
X118879466Y-39281766D01*
X118706396Y-39353454D01*
X118522667Y-39390000D01*
X118335333Y-39390000D01*
X118151604Y-39353454D01*
X117978534Y-39281766D01*
X117822770Y-39177688D01*
X117690312Y-39045230D01*
X117586234Y-38889466D01*
X117514546Y-38716396D01*
X117478000Y-38532667D01*
X117478000Y-38345333D01*
X117514546Y-38161604D01*
X117586234Y-37988534D01*
X117690312Y-37832770D01*
X117822770Y-37700312D01*
X117978534Y-37596234D01*
X118151604Y-37524546D01*
X118335333Y-37488000D01*
X118522667Y-37488000D01*
X118706396Y-37524546D01*
X118706396Y-37524546D01*
G37*
G36*
X145635665Y-36010622D02*
X145709222Y-36017867D01*
X145850786Y-36060810D01*
X145981252Y-36130546D01*
X146095606Y-36224394D01*
X146189454Y-36338748D01*
X146259190Y-36469214D01*
X146302133Y-36610778D01*
X146316633Y-36758000D01*
X146302133Y-36905222D01*
X146259190Y-37046786D01*
X146189454Y-37177252D01*
X146095606Y-37291606D01*
X145981252Y-37385454D01*
X145850786Y-37455190D01*
X145709222Y-37498133D01*
X145635665Y-37505378D01*
X145598888Y-37509000D01*
X144425112Y-37509000D01*
X144388335Y-37505378D01*
X144314778Y-37498133D01*
X144173214Y-37455190D01*
X144042748Y-37385454D01*
X143928394Y-37291606D01*
X143834546Y-37177252D01*
X143764810Y-37046786D01*
X143721867Y-36905222D01*
X143707367Y-36758000D01*
X143721867Y-36610778D01*
X143764810Y-36469214D01*
X143834546Y-36338748D01*
X143928394Y-36224394D01*
X144042748Y-36130546D01*
X144173214Y-36060810D01*
X144314778Y-36017867D01*
X144388335Y-36010622D01*
X144425112Y-36007000D01*
X145598888Y-36007000D01*
X145635665Y-36010622D01*
X145635665Y-36010622D01*
G37*
G36*
X135074443Y-33608519D02*
X135140627Y-33615037D01*
X135253853Y-33649384D01*
X135310467Y-33666557D01*
X135449087Y-33740652D01*
X135466991Y-33750222D01*
X135502729Y-33779552D01*
X135604186Y-33862814D01*
X135687448Y-33964271D01*
X135716778Y-34000009D01*
X135716779Y-34000011D01*
X135800443Y-34156533D01*
X135800443Y-34156534D01*
X135851963Y-34326373D01*
X135869359Y-34503000D01*
X135851963Y-34679627D01*
X135817616Y-34792853D01*
X135800443Y-34849467D01*
X135726348Y-34988087D01*
X135716778Y-35005991D01*
X135687448Y-35041729D01*
X135604186Y-35143186D01*
X135502729Y-35226448D01*
X135466991Y-35255778D01*
X135466989Y-35255779D01*
X135310467Y-35339443D01*
X135253853Y-35356616D01*
X135140627Y-35390963D01*
X135074443Y-35397481D01*
X135008260Y-35404000D01*
X133679740Y-35404000D01*
X133613557Y-35397481D01*
X133547373Y-35390963D01*
X133434147Y-35356616D01*
X133377533Y-35339443D01*
X133221011Y-35255779D01*
X133221009Y-35255778D01*
X133185271Y-35226448D01*
X133083814Y-35143186D01*
X133000552Y-35041729D01*
X132971222Y-35005991D01*
X132961652Y-34988087D01*
X132887557Y-34849467D01*
X132870384Y-34792853D01*
X132836037Y-34679627D01*
X132818641Y-34503000D01*
X132836037Y-34326373D01*
X132887557Y-34156534D01*
X132887557Y-34156533D01*
X132971221Y-34000011D01*
X132971222Y-34000009D01*
X133000552Y-33964271D01*
X133083814Y-33862814D01*
X133185271Y-33779552D01*
X133221009Y-33750222D01*
X133238913Y-33740652D01*
X133377533Y-33666557D01*
X133434147Y-33649384D01*
X133547373Y-33615037D01*
X133613557Y-33608519D01*
X133679740Y-33602000D01*
X135008260Y-33602000D01*
X135074443Y-33608519D01*
X135074443Y-33608519D01*
G37*
G36*
X113416420Y-29898143D02*
X113548556Y-29938227D01*
X113548558Y-29938228D01*
X113670338Y-30003320D01*
X113670340Y-30003321D01*
X113670339Y-30003321D01*
X113777078Y-30090918D01*
X113777080Y-30090921D01*
X113864680Y-30197661D01*
X113922582Y-30305989D01*
X113929773Y-30319443D01*
X113969857Y-30451579D01*
X113980000Y-30554568D01*
X113980000Y-31323432D01*
X113969857Y-31426421D01*
X113929773Y-31558557D01*
X113929772Y-31558559D01*
X113864680Y-31680339D01*
X113777080Y-31787080D01*
X113670339Y-31874680D01*
X113548559Y-31939772D01*
X113548557Y-31939773D01*
X113416421Y-31979857D01*
X113279000Y-31993391D01*
X113141580Y-31979857D01*
X113009444Y-31939773D01*
X113009442Y-31939772D01*
X112887662Y-31874680D01*
X112780921Y-31787080D01*
X112693321Y-31680339D01*
X112628229Y-31558559D01*
X112628228Y-31558558D01*
X112588143Y-31426419D01*
X112578000Y-31323432D01*
X112578000Y-30554569D01*
X112588143Y-30451580D01*
X112628227Y-30319444D01*
X112635419Y-30305989D01*
X112693320Y-30197662D01*
X112704883Y-30183573D01*
X112780918Y-30090922D01*
X112810910Y-30066309D01*
X112887661Y-30003320D01*
X113009441Y-29938228D01*
X113009443Y-29938227D01*
X113141579Y-29898143D01*
X113279000Y-29884609D01*
X113416420Y-29898143D01*
X113416420Y-29898143D01*
G37*
G36*
X123716420Y-29898143D02*
X123848556Y-29938227D01*
X123848558Y-29938228D01*
X123970338Y-30003320D01*
X123970340Y-30003321D01*
X123970339Y-30003321D01*
X124077078Y-30090918D01*
X124077080Y-30090921D01*
X124164680Y-30197661D01*
X124222582Y-30305989D01*
X124229773Y-30319443D01*
X124269857Y-30451579D01*
X124280000Y-30554568D01*
X124280000Y-31323432D01*
X124269857Y-31426421D01*
X124229773Y-31558557D01*
X124229772Y-31558559D01*
X124164680Y-31680339D01*
X124077080Y-31787080D01*
X123970339Y-31874680D01*
X123848559Y-31939772D01*
X123848557Y-31939773D01*
X123716421Y-31979857D01*
X123579000Y-31993391D01*
X123441580Y-31979857D01*
X123309444Y-31939773D01*
X123309442Y-31939772D01*
X123187662Y-31874680D01*
X123080921Y-31787080D01*
X122993321Y-31680339D01*
X122928229Y-31558559D01*
X122928228Y-31558558D01*
X122888143Y-31426419D01*
X122878000Y-31323432D01*
X122878000Y-30554569D01*
X122888143Y-30451580D01*
X122928227Y-30319444D01*
X122935419Y-30305989D01*
X122993320Y-30197662D01*
X123004883Y-30183573D01*
X123080918Y-30090922D01*
X123110910Y-30066309D01*
X123187661Y-30003320D01*
X123309441Y-29938228D01*
X123309443Y-29938227D01*
X123441579Y-29898143D01*
X123579000Y-29884609D01*
X123716420Y-29898143D01*
X123716420Y-29898143D01*
G37*
G36*
X135074442Y-28908518D02*
X135140627Y-28915037D01*
X135253853Y-28949384D01*
X135310467Y-28966557D01*
X135423795Y-29027133D01*
X135466991Y-29050222D01*
X135502729Y-29079552D01*
X135604186Y-29162814D01*
X135673611Y-29247410D01*
X135716778Y-29300009D01*
X135716779Y-29300011D01*
X135800443Y-29456533D01*
X135800443Y-29456534D01*
X135851963Y-29626373D01*
X135869359Y-29803000D01*
X135851963Y-29979627D01*
X135818203Y-30090918D01*
X135800443Y-30149467D01*
X135774682Y-30197661D01*
X135716778Y-30305991D01*
X135705739Y-30319442D01*
X135604186Y-30443186D01*
X135502729Y-30526448D01*
X135466991Y-30555778D01*
X135466989Y-30555779D01*
X135310467Y-30639443D01*
X135253853Y-30656616D01*
X135140627Y-30690963D01*
X135074442Y-30697482D01*
X135008260Y-30704000D01*
X133679740Y-30704000D01*
X133613558Y-30697482D01*
X133547373Y-30690963D01*
X133434147Y-30656616D01*
X133377533Y-30639443D01*
X133221011Y-30555779D01*
X133221009Y-30555778D01*
X133185271Y-30526448D01*
X133083814Y-30443186D01*
X132982261Y-30319442D01*
X132971222Y-30305991D01*
X132913318Y-30197661D01*
X132887557Y-30149467D01*
X132869797Y-30090918D01*
X132836037Y-29979627D01*
X132818641Y-29803000D01*
X132836037Y-29626373D01*
X132887557Y-29456534D01*
X132887557Y-29456533D01*
X132971221Y-29300011D01*
X132971222Y-29300009D01*
X133014389Y-29247410D01*
X133083814Y-29162814D01*
X133185271Y-29079552D01*
X133221009Y-29050222D01*
X133264205Y-29027133D01*
X133377533Y-28966557D01*
X133434147Y-28949384D01*
X133547373Y-28915037D01*
X133613558Y-28908518D01*
X133679740Y-28902000D01*
X135008260Y-28902000D01*
X135074442Y-28908518D01*
X135074442Y-28908518D01*
G37*
G36*
X145619025Y-27668590D02*
X145770012Y-27714392D01*
X145909165Y-27788770D01*
X146031133Y-27888867D01*
X146131230Y-28010835D01*
X146205608Y-28149988D01*
X146251410Y-28300975D01*
X146266875Y-28458000D01*
X146251410Y-28615025D01*
X146205608Y-28766012D01*
X146131230Y-28905165D01*
X146031133Y-29027133D01*
X145909165Y-29127230D01*
X145770012Y-29201608D01*
X145619025Y-29247410D01*
X145501346Y-29259000D01*
X144522654Y-29259000D01*
X144404975Y-29247410D01*
X144253988Y-29201608D01*
X144114835Y-29127230D01*
X143992867Y-29027133D01*
X143892770Y-28905165D01*
X143818392Y-28766012D01*
X143772590Y-28615025D01*
X143757125Y-28458000D01*
X143772590Y-28300975D01*
X143818392Y-28149988D01*
X143892770Y-28010835D01*
X143992867Y-27888867D01*
X144114835Y-27788770D01*
X144253988Y-27714392D01*
X144404975Y-27668590D01*
X144522654Y-27657000D01*
X145501346Y-27657000D01*
X145619025Y-27668590D01*
X145619025Y-27668590D01*
G37*
G36*
X146163000Y-26159000D02*
X143861000Y-26159000D01*
X143861000Y-24557000D01*
X146163000Y-24557000D01*
X146163000Y-26159000D01*
X146163000Y-26159000D01*
G37*
G36*
X135074442Y-24208518D02*
X135140627Y-24215037D01*
X135253853Y-24249384D01*
X135310467Y-24266557D01*
X135449087Y-24340652D01*
X135466991Y-24350222D01*
X135502729Y-24379552D01*
X135604186Y-24462814D01*
X135681481Y-24557000D01*
X135716778Y-24600009D01*
X135716779Y-24600011D01*
X135800443Y-24756533D01*
X135800443Y-24756534D01*
X135851963Y-24926373D01*
X135869359Y-25103000D01*
X135851963Y-25279627D01*
X135817616Y-25392853D01*
X135800443Y-25449467D01*
X135726348Y-25588087D01*
X135716778Y-25605991D01*
X135687448Y-25641729D01*
X135604186Y-25743186D01*
X135502729Y-25826448D01*
X135466991Y-25855778D01*
X135466989Y-25855779D01*
X135310467Y-25939443D01*
X135253853Y-25956616D01*
X135140627Y-25990963D01*
X135074443Y-25997481D01*
X135008260Y-26004000D01*
X133679740Y-26004000D01*
X133613557Y-25997481D01*
X133547373Y-25990963D01*
X133434147Y-25956616D01*
X133377533Y-25939443D01*
X133221011Y-25855779D01*
X133221009Y-25855778D01*
X133185271Y-25826448D01*
X133083814Y-25743186D01*
X133000552Y-25641729D01*
X132971222Y-25605991D01*
X132961652Y-25588087D01*
X132887557Y-25449467D01*
X132870384Y-25392853D01*
X132836037Y-25279627D01*
X132818641Y-25103000D01*
X132836037Y-24926373D01*
X132887557Y-24756534D01*
X132887557Y-24756533D01*
X132971221Y-24600011D01*
X132971222Y-24600009D01*
X133006519Y-24557000D01*
X133083814Y-24462814D01*
X133185271Y-24379552D01*
X133221009Y-24350222D01*
X133238913Y-24340652D01*
X133377533Y-24266557D01*
X133434147Y-24249384D01*
X133547373Y-24215037D01*
X133613558Y-24208518D01*
X133679740Y-24202000D01*
X135008260Y-24202000D01*
X135074442Y-24208518D01*
X135074442Y-24208518D01*
G37*
G36*
X112102443Y-20907519D02*
X112168627Y-20914037D01*
X112281853Y-20948384D01*
X112338467Y-20965557D01*
X112477087Y-21039652D01*
X112494991Y-21049222D01*
X112530729Y-21078552D01*
X112632186Y-21161814D01*
X112715448Y-21263271D01*
X112744778Y-21299009D01*
X112744779Y-21299011D01*
X112828443Y-21455533D01*
X112828443Y-21455534D01*
X112879963Y-21625373D01*
X112897359Y-21802000D01*
X112879963Y-21978627D01*
X112872435Y-22003443D01*
X112828443Y-22148467D01*
X112754348Y-22287087D01*
X112744778Y-22304991D01*
X112715448Y-22340729D01*
X112632186Y-22442186D01*
X112530729Y-22525448D01*
X112494991Y-22554778D01*
X112494989Y-22554779D01*
X112338467Y-22638443D01*
X112281853Y-22655616D01*
X112168627Y-22689963D01*
X112102443Y-22696481D01*
X112036260Y-22703000D01*
X111947740Y-22703000D01*
X111881557Y-22696481D01*
X111815373Y-22689963D01*
X111702147Y-22655616D01*
X111645533Y-22638443D01*
X111489011Y-22554779D01*
X111489009Y-22554778D01*
X111453271Y-22525448D01*
X111351814Y-22442186D01*
X111268552Y-22340729D01*
X111239222Y-22304991D01*
X111229652Y-22287087D01*
X111155557Y-22148467D01*
X111111565Y-22003443D01*
X111104037Y-21978627D01*
X111086641Y-21802000D01*
X111104037Y-21625373D01*
X111155557Y-21455534D01*
X111155557Y-21455533D01*
X111239221Y-21299011D01*
X111239222Y-21299009D01*
X111268552Y-21263271D01*
X111351814Y-21161814D01*
X111453271Y-21078552D01*
X111489009Y-21049222D01*
X111506913Y-21039652D01*
X111645533Y-20965557D01*
X111702147Y-20948384D01*
X111815373Y-20914037D01*
X111881557Y-20907519D01*
X111947740Y-20901000D01*
X112036260Y-20901000D01*
X112102443Y-20907519D01*
X112102443Y-20907519D01*
G37*
G36*
X150583443Y-20907519D02*
X150649627Y-20914037D01*
X150762853Y-20948384D01*
X150819467Y-20965557D01*
X150958087Y-21039652D01*
X150975991Y-21049222D01*
X151011729Y-21078552D01*
X151113186Y-21161814D01*
X151196448Y-21263271D01*
X151225778Y-21299009D01*
X151225779Y-21299011D01*
X151309443Y-21455533D01*
X151309443Y-21455534D01*
X151360963Y-21625373D01*
X151378359Y-21802000D01*
X151360963Y-21978627D01*
X151353435Y-22003443D01*
X151309443Y-22148467D01*
X151235348Y-22287087D01*
X151225778Y-22304991D01*
X151196448Y-22340729D01*
X151113186Y-22442186D01*
X151011729Y-22525448D01*
X150975991Y-22554778D01*
X150975989Y-22554779D01*
X150819467Y-22638443D01*
X150762853Y-22655616D01*
X150649627Y-22689963D01*
X150583443Y-22696481D01*
X150517260Y-22703000D01*
X150428740Y-22703000D01*
X150362557Y-22696481D01*
X150296373Y-22689963D01*
X150183147Y-22655616D01*
X150126533Y-22638443D01*
X149970011Y-22554779D01*
X149970009Y-22554778D01*
X149934271Y-22525448D01*
X149832814Y-22442186D01*
X149749552Y-22340729D01*
X149720222Y-22304991D01*
X149710652Y-22287087D01*
X149636557Y-22148467D01*
X149592565Y-22003443D01*
X149585037Y-21978627D01*
X149567641Y-21802000D01*
X149585037Y-21625373D01*
X149636557Y-21455534D01*
X149636557Y-21455533D01*
X149720221Y-21299011D01*
X149720222Y-21299009D01*
X149749552Y-21263271D01*
X149832814Y-21161814D01*
X149934271Y-21078552D01*
X149970009Y-21049222D01*
X149987913Y-21039652D01*
X150126533Y-20965557D01*
X150183147Y-20948384D01*
X150296373Y-20914037D01*
X150362557Y-20907519D01*
X150428740Y-20901000D01*
X150517260Y-20901000D01*
X150583443Y-20907519D01*
X150583443Y-20907519D01*
G37*
G36*
X143754000Y-22703000D02*
X141952000Y-22703000D01*
X141952000Y-20901000D01*
X143754000Y-20901000D01*
X143754000Y-22703000D01*
X143754000Y-22703000D01*
G37*
G36*
X145503443Y-20907519D02*
X145569627Y-20914037D01*
X145682853Y-20948384D01*
X145739467Y-20965557D01*
X145878087Y-21039652D01*
X145895991Y-21049222D01*
X145931729Y-21078552D01*
X146033186Y-21161814D01*
X146116448Y-21263271D01*
X146145778Y-21299009D01*
X146145779Y-21299011D01*
X146229443Y-21455533D01*
X146229443Y-21455534D01*
X146280963Y-21625373D01*
X146298359Y-21802000D01*
X146280963Y-21978627D01*
X146273435Y-22003443D01*
X146229443Y-22148467D01*
X146155348Y-22287087D01*
X146145778Y-22304991D01*
X146116448Y-22340729D01*
X146033186Y-22442186D01*
X145931729Y-22525448D01*
X145895991Y-22554778D01*
X145895989Y-22554779D01*
X145739467Y-22638443D01*
X145682853Y-22655616D01*
X145569627Y-22689963D01*
X145503443Y-22696481D01*
X145437260Y-22703000D01*
X145348740Y-22703000D01*
X145282557Y-22696481D01*
X145216373Y-22689963D01*
X145103147Y-22655616D01*
X145046533Y-22638443D01*
X144890011Y-22554779D01*
X144890009Y-22554778D01*
X144854271Y-22525448D01*
X144752814Y-22442186D01*
X144669552Y-22340729D01*
X144640222Y-22304991D01*
X144630652Y-22287087D01*
X144556557Y-22148467D01*
X144512565Y-22003443D01*
X144505037Y-21978627D01*
X144487641Y-21802000D01*
X144505037Y-21625373D01*
X144556557Y-21455534D01*
X144556557Y-21455533D01*
X144640221Y-21299011D01*
X144640222Y-21299009D01*
X144669552Y-21263271D01*
X144752814Y-21161814D01*
X144854271Y-21078552D01*
X144890009Y-21049222D01*
X144907913Y-21039652D01*
X145046533Y-20965557D01*
X145103147Y-20948384D01*
X145216373Y-20914037D01*
X145282557Y-20907519D01*
X145348740Y-20901000D01*
X145437260Y-20901000D01*
X145503443Y-20907519D01*
X145503443Y-20907519D01*
G37*
G36*
X148043443Y-20907519D02*
X148109627Y-20914037D01*
X148222853Y-20948384D01*
X148279467Y-20965557D01*
X148418087Y-21039652D01*
X148435991Y-21049222D01*
X148471729Y-21078552D01*
X148573186Y-21161814D01*
X148656448Y-21263271D01*
X148685778Y-21299009D01*
X148685779Y-21299011D01*
X148769443Y-21455533D01*
X148769443Y-21455534D01*
X148820963Y-21625373D01*
X148838359Y-21802000D01*
X148820963Y-21978627D01*
X148813435Y-22003443D01*
X148769443Y-22148467D01*
X148695348Y-22287087D01*
X148685778Y-22304991D01*
X148656448Y-22340729D01*
X148573186Y-22442186D01*
X148471729Y-22525448D01*
X148435991Y-22554778D01*
X148435989Y-22554779D01*
X148279467Y-22638443D01*
X148222853Y-22655616D01*
X148109627Y-22689963D01*
X148043443Y-22696481D01*
X147977260Y-22703000D01*
X147888740Y-22703000D01*
X147822557Y-22696481D01*
X147756373Y-22689963D01*
X147643147Y-22655616D01*
X147586533Y-22638443D01*
X147430011Y-22554779D01*
X147430009Y-22554778D01*
X147394271Y-22525448D01*
X147292814Y-22442186D01*
X147209552Y-22340729D01*
X147180222Y-22304991D01*
X147170652Y-22287087D01*
X147096557Y-22148467D01*
X147052565Y-22003443D01*
X147045037Y-21978627D01*
X147027641Y-21802000D01*
X147045037Y-21625373D01*
X147096557Y-21455534D01*
X147096557Y-21455533D01*
X147180221Y-21299011D01*
X147180222Y-21299009D01*
X147209552Y-21263271D01*
X147292814Y-21161814D01*
X147394271Y-21078552D01*
X147430009Y-21049222D01*
X147447913Y-21039652D01*
X147586533Y-20965557D01*
X147643147Y-20948384D01*
X147756373Y-20914037D01*
X147822557Y-20907519D01*
X147888740Y-20901000D01*
X147977260Y-20901000D01*
X148043443Y-20907519D01*
X148043443Y-20907519D01*
G37*
G36*
X110353000Y-22703000D02*
X108551000Y-22703000D01*
X108551000Y-20901000D01*
X110353000Y-20901000D01*
X110353000Y-22703000D01*
X110353000Y-22703000D01*
G37*
G36*
X114642443Y-20907519D02*
X114708627Y-20914037D01*
X114821853Y-20948384D01*
X114878467Y-20965557D01*
X115017087Y-21039652D01*
X115034991Y-21049222D01*
X115070729Y-21078552D01*
X115172186Y-21161814D01*
X115255448Y-21263271D01*
X115284778Y-21299009D01*
X115284779Y-21299011D01*
X115368443Y-21455533D01*
X115368443Y-21455534D01*
X115419963Y-21625373D01*
X115437359Y-21802000D01*
X115419963Y-21978627D01*
X115412435Y-22003443D01*
X115368443Y-22148467D01*
X115294348Y-22287087D01*
X115284778Y-22304991D01*
X115255448Y-22340729D01*
X115172186Y-22442186D01*
X115070729Y-22525448D01*
X115034991Y-22554778D01*
X115034989Y-22554779D01*
X114878467Y-22638443D01*
X114821853Y-22655616D01*
X114708627Y-22689963D01*
X114642443Y-22696481D01*
X114576260Y-22703000D01*
X114487740Y-22703000D01*
X114421557Y-22696481D01*
X114355373Y-22689963D01*
X114242147Y-22655616D01*
X114185533Y-22638443D01*
X114029011Y-22554779D01*
X114029009Y-22554778D01*
X113993271Y-22525448D01*
X113891814Y-22442186D01*
X113808552Y-22340729D01*
X113779222Y-22304991D01*
X113769652Y-22287087D01*
X113695557Y-22148467D01*
X113651565Y-22003443D01*
X113644037Y-21978627D01*
X113626641Y-21802000D01*
X113644037Y-21625373D01*
X113695557Y-21455534D01*
X113695557Y-21455533D01*
X113779221Y-21299011D01*
X113779222Y-21299009D01*
X113808552Y-21263271D01*
X113891814Y-21161814D01*
X113993271Y-21078552D01*
X114029009Y-21049222D01*
X114046913Y-21039652D01*
X114185533Y-20965557D01*
X114242147Y-20948384D01*
X114355373Y-20914037D01*
X114421557Y-20907519D01*
X114487740Y-20901000D01*
X114576260Y-20901000D01*
X114642443Y-20907519D01*
X114642443Y-20907519D01*
G37*
G36*
X117182443Y-20907519D02*
X117248627Y-20914037D01*
X117361853Y-20948384D01*
X117418467Y-20965557D01*
X117557087Y-21039652D01*
X117574991Y-21049222D01*
X117610729Y-21078552D01*
X117712186Y-21161814D01*
X117795448Y-21263271D01*
X117824778Y-21299009D01*
X117824779Y-21299011D01*
X117908443Y-21455533D01*
X117908443Y-21455534D01*
X117959963Y-21625373D01*
X117977359Y-21802000D01*
X117959963Y-21978627D01*
X117952435Y-22003443D01*
X117908443Y-22148467D01*
X117834348Y-22287087D01*
X117824778Y-22304991D01*
X117795448Y-22340729D01*
X117712186Y-22442186D01*
X117610729Y-22525448D01*
X117574991Y-22554778D01*
X117574989Y-22554779D01*
X117418467Y-22638443D01*
X117361853Y-22655616D01*
X117248627Y-22689963D01*
X117182443Y-22696481D01*
X117116260Y-22703000D01*
X117027740Y-22703000D01*
X116961557Y-22696481D01*
X116895373Y-22689963D01*
X116782147Y-22655616D01*
X116725533Y-22638443D01*
X116569011Y-22554779D01*
X116569009Y-22554778D01*
X116533271Y-22525448D01*
X116431814Y-22442186D01*
X116348552Y-22340729D01*
X116319222Y-22304991D01*
X116309652Y-22287087D01*
X116235557Y-22148467D01*
X116191565Y-22003443D01*
X116184037Y-21978627D01*
X116166641Y-21802000D01*
X116184037Y-21625373D01*
X116235557Y-21455534D01*
X116235557Y-21455533D01*
X116319221Y-21299011D01*
X116319222Y-21299009D01*
X116348552Y-21263271D01*
X116431814Y-21161814D01*
X116533271Y-21078552D01*
X116569009Y-21049222D01*
X116586913Y-21039652D01*
X116725533Y-20965557D01*
X116782147Y-20948384D01*
X116895373Y-20914037D01*
X116961557Y-20907519D01*
X117027740Y-20901000D01*
X117116260Y-20901000D01*
X117182443Y-20907519D01*
X117182443Y-20907519D01*
G37*
G36*
X122008442Y-20272518D02*
X122074627Y-20279037D01*
X122187853Y-20313384D01*
X122244467Y-20330557D01*
X122383087Y-20404652D01*
X122400991Y-20414222D01*
X122436729Y-20443552D01*
X122538186Y-20526814D01*
X122621448Y-20628271D01*
X122650778Y-20664009D01*
X122650779Y-20664011D01*
X122734443Y-20820533D01*
X122734443Y-20820534D01*
X122785963Y-20990373D01*
X122803359Y-21167000D01*
X122785963Y-21343627D01*
X122752017Y-21455533D01*
X122734443Y-21513467D01*
X122674627Y-21625373D01*
X122650778Y-21669991D01*
X122621448Y-21705729D01*
X122538186Y-21807186D01*
X122436729Y-21890448D01*
X122400991Y-21919778D01*
X122400989Y-21919779D01*
X122244467Y-22003443D01*
X122187853Y-22020616D01*
X122074627Y-22054963D01*
X122008443Y-22061481D01*
X121942260Y-22068000D01*
X121853740Y-22068000D01*
X121787558Y-22061482D01*
X121721373Y-22054963D01*
X121608147Y-22020616D01*
X121551533Y-22003443D01*
X121395011Y-21919779D01*
X121395009Y-21919778D01*
X121359271Y-21890448D01*
X121257814Y-21807186D01*
X121174552Y-21705729D01*
X121145222Y-21669991D01*
X121121373Y-21625373D01*
X121061557Y-21513467D01*
X121043983Y-21455533D01*
X121010037Y-21343627D01*
X120992641Y-21167000D01*
X121010037Y-20990373D01*
X121061557Y-20820534D01*
X121061557Y-20820533D01*
X121145221Y-20664011D01*
X121145222Y-20664009D01*
X121174552Y-20628271D01*
X121257814Y-20526814D01*
X121359271Y-20443552D01*
X121395009Y-20414222D01*
X121412913Y-20404652D01*
X121551533Y-20330557D01*
X121608147Y-20313384D01*
X121721373Y-20279037D01*
X121787557Y-20272519D01*
X121853740Y-20266000D01*
X121942260Y-20266000D01*
X122008442Y-20272518D01*
X122008442Y-20272518D01*
G37*
G36*
X127879000Y-22068000D02*
X126077000Y-22068000D01*
X126077000Y-20266000D01*
X127879000Y-20266000D01*
X127879000Y-22068000D01*
X127879000Y-22068000D01*
G37*
G36*
X124548442Y-20272518D02*
X124614627Y-20279037D01*
X124727853Y-20313384D01*
X124784467Y-20330557D01*
X124923087Y-20404652D01*
X124940991Y-20414222D01*
X124976729Y-20443552D01*
X125078186Y-20526814D01*
X125161448Y-20628271D01*
X125190778Y-20664009D01*
X125190779Y-20664011D01*
X125274443Y-20820533D01*
X125274443Y-20820534D01*
X125325963Y-20990373D01*
X125343359Y-21167000D01*
X125325963Y-21343627D01*
X125292017Y-21455533D01*
X125274443Y-21513467D01*
X125214627Y-21625373D01*
X125190778Y-21669991D01*
X125161448Y-21705729D01*
X125078186Y-21807186D01*
X124976729Y-21890448D01*
X124940991Y-21919778D01*
X124940989Y-21919779D01*
X124784467Y-22003443D01*
X124727853Y-22020616D01*
X124614627Y-22054963D01*
X124548443Y-22061481D01*
X124482260Y-22068000D01*
X124393740Y-22068000D01*
X124327558Y-22061482D01*
X124261373Y-22054963D01*
X124148147Y-22020616D01*
X124091533Y-22003443D01*
X123935011Y-21919779D01*
X123935009Y-21919778D01*
X123899271Y-21890448D01*
X123797814Y-21807186D01*
X123714552Y-21705729D01*
X123685222Y-21669991D01*
X123661373Y-21625373D01*
X123601557Y-21513467D01*
X123583983Y-21455533D01*
X123550037Y-21343627D01*
X123532641Y-21167000D01*
X123550037Y-20990373D01*
X123601557Y-20820534D01*
X123601557Y-20820533D01*
X123685221Y-20664011D01*
X123685222Y-20664009D01*
X123714552Y-20628271D01*
X123797814Y-20526814D01*
X123899271Y-20443552D01*
X123935009Y-20414222D01*
X123952913Y-20404652D01*
X124091533Y-20330557D01*
X124148147Y-20313384D01*
X124261373Y-20279037D01*
X124327557Y-20272519D01*
X124393740Y-20266000D01*
X124482260Y-20266000D01*
X124548442Y-20272518D01*
X124548442Y-20272518D01*
G37*
M02*
