G04 #@! TF.GenerationSoftware,KiCad,Pcbnew,(5.0.1)-4*
G04 #@! TF.CreationDate,2019-03-05T01:40:27-06:00*
G04 #@! TF.ProjectId,mult,6D756C742E6B696361645F7063620000,rev?*
G04 #@! TF.SameCoordinates,Original*
G04 #@! TF.FileFunction,Other,Fab,Bot*
%FSLAX46Y46*%
G04 Gerber Fmt 4.6, Leading zero omitted, Abs format (unit mm)*
G04 Created by KiCad (PCBNEW (5.0.1)-4) date 3/5/2019 1:40:27*
%MOMM*%
%LPD*%
G01*
G04 APERTURE LIST*
%ADD10C,0.100000*%
%ADD11C,0.150000*%
%ADD12C,0.090000*%
G04 APERTURE END LIST*
D10*
G04 #@! TO.C,C1*
X-152064000Y123217000D02*
X-153664000Y123217000D01*
X-153664000Y123217000D02*
X-153664000Y126217000D01*
X-153664000Y126217000D02*
X-152064000Y126217000D01*
X-152064000Y126217000D02*
X-152064000Y123217000D01*
G04 #@! TO.C,C2*
X-152064000Y111485000D02*
X-152064000Y108485000D01*
X-153664000Y111485000D02*
X-152064000Y111485000D01*
X-153664000Y108485000D02*
X-153664000Y111485000D01*
X-152064000Y108485000D02*
X-153664000Y108485000D01*
G04 #@! TO.C,C3*
X-169414000Y46525000D02*
G75*
G03X-169414000Y46525000I-2500000J0D01*
G01*
X-173001500Y48658605D02*
X-173001500Y48158605D01*
X-173251500Y48408605D02*
X-172751500Y48408605D01*
G04 #@! TO.C,C4*
X-135151500Y48662605D02*
X-134651500Y48662605D01*
X-134901500Y48912605D02*
X-134901500Y48412605D01*
X-131314000Y46779000D02*
G75*
G03X-131314000Y46779000I-2500000J0D01*
G01*
G04 #@! TO.C,U1*
X-161754000Y119546000D02*
X-161754000Y114196000D01*
X-161754000Y114196000D02*
X-143974000Y114196000D01*
X-143974000Y114196000D02*
X-143974000Y120546000D01*
X-143974000Y120546000D02*
X-160754000Y120546000D01*
X-160754000Y120546000D02*
X-161754000Y119546000D01*
G04 #@! TO.C,JP1*
X-142684000Y52454000D02*
X-163044000Y52454000D01*
X-143224000Y51904000D02*
X-162484000Y51904000D01*
X-142684000Y43604000D02*
X-163044000Y43604000D01*
X-143224000Y44154000D02*
X-150614000Y44154000D01*
X-155114000Y44154000D02*
X-162484000Y44154000D01*
X-150614000Y44154000D02*
X-150614000Y43604000D01*
X-155114000Y44154000D02*
X-155114000Y43604000D01*
X-142684000Y52454000D02*
X-142684000Y43604000D01*
X-143224000Y51904000D02*
X-143224000Y44154000D01*
X-163044000Y52454000D02*
X-163044000Y43604000D01*
X-162484000Y51904000D02*
X-162484000Y44154000D01*
X-142684000Y52454000D02*
X-143224000Y51904000D01*
X-163044000Y52454000D02*
X-162484000Y51904000D01*
X-142684000Y43604000D02*
X-143224000Y44154000D01*
X-163044000Y43604000D02*
X-162484000Y44154000D01*
G04 #@! TD*
G04 #@! TO.C,C1*
D11*
X-155461619Y126359857D02*
X-155461619Y126264619D01*
X-155414000Y126169380D01*
X-155366380Y126121761D01*
X-155271142Y126074142D01*
X-155080666Y126026523D01*
X-154842571Y126026523D01*
X-154652095Y126074142D01*
X-154556857Y126121761D01*
X-154509238Y126169380D01*
X-154461619Y126264619D01*
X-154461619Y126359857D01*
X-154509238Y126455095D01*
X-154556857Y126502714D01*
X-154652095Y126550333D01*
X-154842571Y126597952D01*
X-155080666Y126597952D01*
X-155271142Y126550333D01*
X-155366380Y126502714D01*
X-155414000Y126455095D01*
X-155461619Y126359857D01*
X-154556857Y125597952D02*
X-154509238Y125550333D01*
X-154461619Y125597952D01*
X-154509238Y125645571D01*
X-154556857Y125597952D01*
X-154461619Y125597952D01*
X-154461619Y124597952D02*
X-154461619Y125169380D01*
X-154461619Y124883666D02*
X-155461619Y124883666D01*
X-155318761Y124978904D01*
X-155223523Y125074142D01*
X-155175904Y125169380D01*
X-155128285Y123740809D02*
X-154461619Y123740809D01*
X-155128285Y124169380D02*
X-154604476Y124169380D01*
X-154509238Y124121761D01*
X-154461619Y124026523D01*
X-154461619Y123883666D01*
X-154509238Y123788428D01*
X-154556857Y123740809D01*
X-154985428Y122931285D02*
X-154985428Y123264619D01*
X-154461619Y123264619D02*
X-155461619Y123264619D01*
X-155461619Y122788428D01*
D12*
X-152649714Y124817000D02*
X-152621142Y124845571D01*
X-152592571Y124931285D01*
X-152592571Y124988428D01*
X-152621142Y125074142D01*
X-152678285Y125131285D01*
X-152735428Y125159857D01*
X-152849714Y125188428D01*
X-152935428Y125188428D01*
X-153049714Y125159857D01*
X-153106857Y125131285D01*
X-153164000Y125074142D01*
X-153192571Y124988428D01*
X-153192571Y124931285D01*
X-153164000Y124845571D01*
X-153135428Y124817000D01*
X-152592571Y124245571D02*
X-152592571Y124588428D01*
X-152592571Y124417000D02*
X-153192571Y124417000D01*
X-153106857Y124474142D01*
X-153049714Y124531285D01*
X-153021142Y124588428D01*
G04 #@! TO.C,C2*
D11*
X-155461619Y111627857D02*
X-155461619Y111532619D01*
X-155414000Y111437380D01*
X-155366380Y111389761D01*
X-155271142Y111342142D01*
X-155080666Y111294523D01*
X-154842571Y111294523D01*
X-154652095Y111342142D01*
X-154556857Y111389761D01*
X-154509238Y111437380D01*
X-154461619Y111532619D01*
X-154461619Y111627857D01*
X-154509238Y111723095D01*
X-154556857Y111770714D01*
X-154652095Y111818333D01*
X-154842571Y111865952D01*
X-155080666Y111865952D01*
X-155271142Y111818333D01*
X-155366380Y111770714D01*
X-155414000Y111723095D01*
X-155461619Y111627857D01*
X-154556857Y110865952D02*
X-154509238Y110818333D01*
X-154461619Y110865952D01*
X-154509238Y110913571D01*
X-154556857Y110865952D01*
X-154461619Y110865952D01*
X-154461619Y109865952D02*
X-154461619Y110437380D01*
X-154461619Y110151666D02*
X-155461619Y110151666D01*
X-155318761Y110246904D01*
X-155223523Y110342142D01*
X-155175904Y110437380D01*
X-155128285Y109008809D02*
X-154461619Y109008809D01*
X-155128285Y109437380D02*
X-154604476Y109437380D01*
X-154509238Y109389761D01*
X-154461619Y109294523D01*
X-154461619Y109151666D01*
X-154509238Y109056428D01*
X-154556857Y109008809D01*
X-154985428Y108199285D02*
X-154985428Y108532619D01*
X-154461619Y108532619D02*
X-155461619Y108532619D01*
X-155461619Y108056428D01*
D12*
X-152649714Y110085000D02*
X-152621142Y110113571D01*
X-152592571Y110199285D01*
X-152592571Y110256428D01*
X-152621142Y110342142D01*
X-152678285Y110399285D01*
X-152735428Y110427857D01*
X-152849714Y110456428D01*
X-152935428Y110456428D01*
X-153049714Y110427857D01*
X-153106857Y110399285D01*
X-153164000Y110342142D01*
X-153192571Y110256428D01*
X-153192571Y110199285D01*
X-153164000Y110113571D01*
X-153135428Y110085000D01*
X-153135428Y109856428D02*
X-153164000Y109827857D01*
X-153192571Y109770714D01*
X-153192571Y109627857D01*
X-153164000Y109570714D01*
X-153135428Y109542142D01*
X-153078285Y109513571D01*
X-153021142Y109513571D01*
X-152935428Y109542142D01*
X-152592571Y109885000D01*
X-152592571Y109513571D01*
G04 #@! TO.C,C3*
D11*
X-167711619Y47596428D02*
X-167711619Y48167857D01*
X-167711619Y47882142D02*
X-168711619Y47882142D01*
X-168568761Y47977380D01*
X-168473523Y48072619D01*
X-168425904Y48167857D01*
X-168711619Y46977380D02*
X-168711619Y46882142D01*
X-168664000Y46786904D01*
X-168616380Y46739285D01*
X-168521142Y46691666D01*
X-168330666Y46644047D01*
X-168092571Y46644047D01*
X-167902095Y46691666D01*
X-167806857Y46739285D01*
X-167759238Y46786904D01*
X-167711619Y46882142D01*
X-167711619Y46977380D01*
X-167759238Y47072619D01*
X-167806857Y47120238D01*
X-167902095Y47167857D01*
X-168092571Y47215476D01*
X-168330666Y47215476D01*
X-168521142Y47167857D01*
X-168616380Y47120238D01*
X-168664000Y47072619D01*
X-168711619Y46977380D01*
X-168378285Y45786904D02*
X-167711619Y45786904D01*
X-168378285Y46215476D02*
X-167854476Y46215476D01*
X-167759238Y46167857D01*
X-167711619Y46072619D01*
X-167711619Y45929761D01*
X-167759238Y45834523D01*
X-167806857Y45786904D01*
X-168235428Y44977380D02*
X-168235428Y45310714D01*
X-167711619Y45310714D02*
X-168711619Y45310714D01*
X-168711619Y44834523D01*
X-171556857Y46691666D02*
X-171509238Y46739285D01*
X-171461619Y46882142D01*
X-171461619Y46977380D01*
X-171509238Y47120238D01*
X-171604476Y47215476D01*
X-171699714Y47263095D01*
X-171890190Y47310714D01*
X-172033047Y47310714D01*
X-172223523Y47263095D01*
X-172318761Y47215476D01*
X-172414000Y47120238D01*
X-172461619Y46977380D01*
X-172461619Y46882142D01*
X-172414000Y46739285D01*
X-172366380Y46691666D01*
X-172461619Y46358333D02*
X-172461619Y45739285D01*
X-172080666Y46072619D01*
X-172080666Y45929761D01*
X-172033047Y45834523D01*
X-171985428Y45786904D01*
X-171890190Y45739285D01*
X-171652095Y45739285D01*
X-171556857Y45786904D01*
X-171509238Y45834523D01*
X-171461619Y45929761D01*
X-171461619Y46215476D01*
X-171509238Y46310714D01*
X-171556857Y46358333D01*
G04 #@! TO.C,C4*
X-129611619Y47850428D02*
X-129611619Y48421857D01*
X-129611619Y48136142D02*
X-130611619Y48136142D01*
X-130468761Y48231380D01*
X-130373523Y48326619D01*
X-130325904Y48421857D01*
X-130611619Y47231380D02*
X-130611619Y47136142D01*
X-130564000Y47040904D01*
X-130516380Y46993285D01*
X-130421142Y46945666D01*
X-130230666Y46898047D01*
X-129992571Y46898047D01*
X-129802095Y46945666D01*
X-129706857Y46993285D01*
X-129659238Y47040904D01*
X-129611619Y47136142D01*
X-129611619Y47231380D01*
X-129659238Y47326619D01*
X-129706857Y47374238D01*
X-129802095Y47421857D01*
X-129992571Y47469476D01*
X-130230666Y47469476D01*
X-130421142Y47421857D01*
X-130516380Y47374238D01*
X-130564000Y47326619D01*
X-130611619Y47231380D01*
X-130278285Y46040904D02*
X-129611619Y46040904D01*
X-130278285Y46469476D02*
X-129754476Y46469476D01*
X-129659238Y46421857D01*
X-129611619Y46326619D01*
X-129611619Y46183761D01*
X-129659238Y46088523D01*
X-129706857Y46040904D01*
X-130135428Y45231380D02*
X-130135428Y45564714D01*
X-129611619Y45564714D02*
X-130611619Y45564714D01*
X-130611619Y45088523D01*
X-133456857Y46945666D02*
X-133409238Y46993285D01*
X-133361619Y47136142D01*
X-133361619Y47231380D01*
X-133409238Y47374238D01*
X-133504476Y47469476D01*
X-133599714Y47517095D01*
X-133790190Y47564714D01*
X-133933047Y47564714D01*
X-134123523Y47517095D01*
X-134218761Y47469476D01*
X-134314000Y47374238D01*
X-134361619Y47231380D01*
X-134361619Y47136142D01*
X-134314000Y46993285D01*
X-134266380Y46945666D01*
X-134028285Y46088523D02*
X-133361619Y46088523D01*
X-134409238Y46326619D02*
X-133694952Y46564714D01*
X-133694952Y45945666D01*
G04 #@! TO.C,U1*
X-143461619Y119490047D02*
X-143461619Y118918619D01*
X-142461619Y119204333D02*
X-143461619Y119204333D01*
X-142461619Y118109095D02*
X-142461619Y118585285D01*
X-143461619Y118585285D01*
X-143461619Y117585285D02*
X-143461619Y117490047D01*
X-143414000Y117394809D01*
X-143366380Y117347190D01*
X-143271142Y117299571D01*
X-143080666Y117251952D01*
X-142842571Y117251952D01*
X-142652095Y117299571D01*
X-142556857Y117347190D01*
X-142509238Y117394809D01*
X-142461619Y117490047D01*
X-142461619Y117585285D01*
X-142509238Y117680523D01*
X-142556857Y117728142D01*
X-142652095Y117775761D01*
X-142842571Y117823380D01*
X-143080666Y117823380D01*
X-143271142Y117775761D01*
X-143366380Y117728142D01*
X-143414000Y117680523D01*
X-143461619Y117585285D01*
X-143461619Y116918619D02*
X-143461619Y116251952D01*
X-142461619Y116680523D01*
X-143128285Y115442428D02*
X-142461619Y115442428D01*
X-143509238Y115680523D02*
X-142794952Y115918619D01*
X-142794952Y115299571D01*
X-153411619Y118132904D02*
X-152602095Y118132904D01*
X-152506857Y118085285D01*
X-152459238Y118037666D01*
X-152411619Y117942428D01*
X-152411619Y117751952D01*
X-152459238Y117656714D01*
X-152506857Y117609095D01*
X-152602095Y117561476D01*
X-153411619Y117561476D01*
X-152411619Y116561476D02*
X-152411619Y117132904D01*
X-152411619Y116847190D02*
X-153411619Y116847190D01*
X-153268761Y116942428D01*
X-153173523Y117037666D01*
X-153125904Y117132904D01*
G04 #@! TO.C,JP1*
X-164095619Y49362333D02*
X-165095619Y49362333D01*
X-165095619Y48981380D01*
X-165048000Y48886142D01*
X-165000380Y48838523D01*
X-164905142Y48790904D01*
X-164762285Y48790904D01*
X-164667047Y48838523D01*
X-164619428Y48886142D01*
X-164571809Y48981380D01*
X-164571809Y49362333D01*
X-165095619Y48457571D02*
X-164095619Y48219476D01*
X-164809904Y48029000D01*
X-164095619Y47838523D01*
X-165095619Y47600428D01*
X-164095619Y46648047D02*
X-164571809Y46981380D01*
X-164095619Y47219476D02*
X-165095619Y47219476D01*
X-165095619Y46838523D01*
X-165048000Y46743285D01*
X-165000380Y46695666D01*
X-164905142Y46648047D01*
X-164762285Y46648047D01*
X-164667047Y46695666D01*
X-164619428Y46743285D01*
X-164571809Y46838523D01*
X-164571809Y47219476D01*
X-153411619Y48862333D02*
X-152697333Y48862333D01*
X-152554476Y48909952D01*
X-152459238Y49005190D01*
X-152411619Y49148047D01*
X-152411619Y49243285D01*
X-152411619Y48386142D02*
X-153411619Y48386142D01*
X-153411619Y48005190D01*
X-153364000Y47909952D01*
X-153316380Y47862333D01*
X-153221142Y47814714D01*
X-153078285Y47814714D01*
X-152983047Y47862333D01*
X-152935428Y47909952D01*
X-152887809Y48005190D01*
X-152887809Y48386142D01*
X-152411619Y46862333D02*
X-152411619Y47433761D01*
X-152411619Y47148047D02*
X-153411619Y47148047D01*
X-153268761Y47243285D01*
X-153173523Y47338523D01*
X-153125904Y47433761D01*
G04 #@! TD*
M02*
