G04 #@! TF.GenerationSoftware,KiCad,Pcbnew,(5.0.1)-4*
G04 #@! TF.CreationDate,2019-03-05T01:40:27-06:00*
G04 #@! TF.ProjectId,mult,6D756C742E6B696361645F7063620000,rev?*
G04 #@! TF.SameCoordinates,Original*
G04 #@! TF.FileFunction,Other,Fab,Top*
%FSLAX46Y46*%
G04 Gerber Fmt 4.6, Leading zero omitted, Abs format (unit mm)*
G04 Created by KiCad (PCBNEW (5.0.1)-4) date 3/5/2019 1:40:27*
%MOMM*%
%LPD*%
G01*
G04 APERTURE LIST*
%ADD10C,0.100000*%
%ADD11C,0.150000*%
G04 APERTURE END LIST*
D10*
G04 #@! TO.C,J1*
X-173874000Y122798000D02*
X-173874000Y133198000D01*
X-164874000Y122798000D02*
X-164874000Y133198000D01*
X-164874000Y122798000D02*
X-173874000Y122798000D01*
X-164874000Y133248000D02*
X-173874000Y133248000D01*
X-167574000Y128798000D02*
G75*
G03X-167574000Y128798000I-1800000J0D01*
G01*
X-169374000Y135278000D02*
X-169374000Y133248000D01*
G04 #@! TO.C,J2*
X-162863100Y122810700D02*
X-162863100Y133210700D01*
X-153863100Y122810700D02*
X-153863100Y133210700D01*
X-153863100Y122810700D02*
X-162863100Y122810700D01*
X-153863100Y133260700D02*
X-162863100Y133260700D01*
X-156563100Y128810700D02*
G75*
G03X-156563100Y128810700I-1800000J0D01*
G01*
X-158363100Y135290700D02*
X-158363100Y133260700D01*
G04 #@! TO.C,J3*
X-151877600Y122785300D02*
X-151877600Y133185300D01*
X-142877600Y122785300D02*
X-142877600Y133185300D01*
X-142877600Y122785300D02*
X-151877600Y122785300D01*
X-142877600Y133235300D02*
X-151877600Y133235300D01*
X-145577600Y128785300D02*
G75*
G03X-145577600Y128785300I-1800000J0D01*
G01*
X-147377600Y135265300D02*
X-147377600Y133235300D01*
G04 #@! TO.C,J4*
X-136379400Y135278000D02*
X-136379400Y133248000D01*
X-134579400Y128798000D02*
G75*
G03X-134579400Y128798000I-1800000J0D01*
G01*
X-131879400Y133248000D02*
X-140879400Y133248000D01*
X-131879400Y122798000D02*
X-140879400Y122798000D01*
X-131879400Y122798000D02*
X-131879400Y133198000D01*
X-140879400Y122798000D02*
X-140879400Y133198000D01*
G04 #@! TO.C,J5*
X-169374000Y111275000D02*
X-169374000Y109245000D01*
X-167574000Y104795000D02*
G75*
G03X-167574000Y104795000I-1800000J0D01*
G01*
X-164874000Y109245000D02*
X-173874000Y109245000D01*
X-164874000Y98795000D02*
X-173874000Y98795000D01*
X-164874000Y98795000D02*
X-164874000Y109195000D01*
X-173874000Y98795000D02*
X-173874000Y109195000D01*
G04 #@! TO.C,J6*
X-169374000Y87272000D02*
X-169374000Y85242000D01*
X-167574000Y80792000D02*
G75*
G03X-167574000Y80792000I-1800000J0D01*
G01*
X-164874000Y85242000D02*
X-173874000Y85242000D01*
X-164874000Y74792000D02*
X-173874000Y74792000D01*
X-164874000Y74792000D02*
X-164874000Y85192000D01*
X-173874000Y74792000D02*
X-173874000Y85192000D01*
G04 #@! TO.C,J7*
X-169374000Y63269000D02*
X-169374000Y61239000D01*
X-167574000Y56789000D02*
G75*
G03X-167574000Y56789000I-1800000J0D01*
G01*
X-164874000Y61239000D02*
X-173874000Y61239000D01*
X-164874000Y50789000D02*
X-173874000Y50789000D01*
X-164874000Y50789000D02*
X-164874000Y61189000D01*
X-173874000Y50789000D02*
X-173874000Y61189000D01*
G04 #@! TO.C,J8*
X-162888500Y98795000D02*
X-162888500Y109195000D01*
X-153888500Y98795000D02*
X-153888500Y109195000D01*
X-153888500Y98795000D02*
X-162888500Y98795000D01*
X-153888500Y109245000D02*
X-162888500Y109245000D01*
X-156588500Y104795000D02*
G75*
G03X-156588500Y104795000I-1800000J0D01*
G01*
X-158388500Y111275000D02*
X-158388500Y109245000D01*
G04 #@! TO.C,J9*
X-158388500Y87272000D02*
X-158388500Y85242000D01*
X-156588500Y80792000D02*
G75*
G03X-156588500Y80792000I-1800000J0D01*
G01*
X-153888500Y85242000D02*
X-162888500Y85242000D01*
X-153888500Y74792000D02*
X-162888500Y74792000D01*
X-153888500Y74792000D02*
X-153888500Y85192000D01*
X-162888500Y74792000D02*
X-162888500Y85192000D01*
G04 #@! TO.C,J10*
X-162888500Y50789000D02*
X-162888500Y61189000D01*
X-153888500Y50789000D02*
X-153888500Y61189000D01*
X-153888500Y50789000D02*
X-162888500Y50789000D01*
X-153888500Y61239000D02*
X-162888500Y61239000D01*
X-156588500Y56789000D02*
G75*
G03X-156588500Y56789000I-1800000J0D01*
G01*
X-158388500Y63269000D02*
X-158388500Y61239000D01*
G04 #@! TO.C,J11*
X-151877600Y98807700D02*
X-151877600Y109207700D01*
X-142877600Y98807700D02*
X-142877600Y109207700D01*
X-142877600Y98807700D02*
X-151877600Y98807700D01*
X-142877600Y109257700D02*
X-151877600Y109257700D01*
X-145577600Y104807700D02*
G75*
G03X-145577600Y104807700I-1800000J0D01*
G01*
X-147377600Y111287700D02*
X-147377600Y109257700D01*
G04 #@! TO.C,J12*
X-147377600Y87284700D02*
X-147377600Y85254700D01*
X-145577600Y80804700D02*
G75*
G03X-145577600Y80804700I-1800000J0D01*
G01*
X-142877600Y85254700D02*
X-151877600Y85254700D01*
X-142877600Y74804700D02*
X-151877600Y74804700D01*
X-142877600Y74804700D02*
X-142877600Y85204700D01*
X-151877600Y74804700D02*
X-151877600Y85204700D01*
G04 #@! TO.C,J13*
X-151877600Y50789000D02*
X-151877600Y61189000D01*
X-142877600Y50789000D02*
X-142877600Y61189000D01*
X-142877600Y50789000D02*
X-151877600Y50789000D01*
X-142877600Y61239000D02*
X-151877600Y61239000D01*
X-145577600Y56789000D02*
G75*
G03X-145577600Y56789000I-1800000J0D01*
G01*
X-147377600Y63269000D02*
X-147377600Y61239000D01*
G04 #@! TO.C,J14*
X-136379400Y111287700D02*
X-136379400Y109257700D01*
X-134579400Y104807700D02*
G75*
G03X-134579400Y104807700I-1800000J0D01*
G01*
X-131879400Y109257700D02*
X-140879400Y109257700D01*
X-131879400Y98807700D02*
X-140879400Y98807700D01*
X-131879400Y98807700D02*
X-131879400Y109207700D01*
X-140879400Y98807700D02*
X-140879400Y109207700D01*
G04 #@! TO.C,J15*
X-136379400Y87272000D02*
X-136379400Y85242000D01*
X-134579400Y80792000D02*
G75*
G03X-134579400Y80792000I-1800000J0D01*
G01*
X-131879400Y85242000D02*
X-140879400Y85242000D01*
X-131879400Y74792000D02*
X-140879400Y74792000D01*
X-131879400Y74792000D02*
X-131879400Y85192000D01*
X-140879400Y74792000D02*
X-140879400Y85192000D01*
G04 #@! TO.C,J16*
X-140879400Y50801700D02*
X-140879400Y61201700D01*
X-131879400Y50801700D02*
X-131879400Y61201700D01*
X-131879400Y50801700D02*
X-140879400Y50801700D01*
X-131879400Y61251700D02*
X-140879400Y61251700D01*
X-134579400Y56801700D02*
G75*
G03X-134579400Y56801700I-1800000J0D01*
G01*
X-136379400Y63281700D02*
X-136379400Y61251700D01*
G04 #@! TO.C,R1*
X-165564000Y96289000D02*
X-166224000Y96289000D01*
X-173184000Y96289000D02*
X-172524000Y96289000D01*
X-166224000Y97539000D02*
X-172524000Y97539000D01*
X-166224000Y95039000D02*
X-166224000Y97539000D01*
X-172524000Y95039000D02*
X-166224000Y95039000D01*
X-172524000Y97539000D02*
X-172524000Y95039000D01*
G04 #@! TO.C,R2*
X-172524000Y73663000D02*
X-172524000Y71163000D01*
X-172524000Y71163000D02*
X-166224000Y71163000D01*
X-166224000Y71163000D02*
X-166224000Y73663000D01*
X-166224000Y73663000D02*
X-172524000Y73663000D01*
X-173184000Y72413000D02*
X-172524000Y72413000D01*
X-165564000Y72413000D02*
X-166224000Y72413000D01*
G04 #@! TO.C,R3*
X-165564000Y66317000D02*
X-166224000Y66317000D01*
X-173184000Y66317000D02*
X-172524000Y66317000D01*
X-166224000Y67567000D02*
X-172524000Y67567000D01*
X-166224000Y65067000D02*
X-166224000Y67567000D01*
X-172524000Y65067000D02*
X-166224000Y65067000D01*
X-172524000Y67567000D02*
X-172524000Y65067000D01*
G04 #@! TO.C,R4*
X-154642000Y96289000D02*
X-155302000Y96289000D01*
X-162262000Y96289000D02*
X-161602000Y96289000D01*
X-155302000Y97539000D02*
X-161602000Y97539000D01*
X-155302000Y95039000D02*
X-155302000Y97539000D01*
X-161602000Y95039000D02*
X-155302000Y95039000D01*
X-161602000Y97539000D02*
X-161602000Y95039000D01*
G04 #@! TO.C,R5*
X-161602000Y73663000D02*
X-161602000Y71163000D01*
X-161602000Y71163000D02*
X-155302000Y71163000D01*
X-155302000Y71163000D02*
X-155302000Y73663000D01*
X-155302000Y73663000D02*
X-161602000Y73663000D01*
X-162262000Y72413000D02*
X-161602000Y72413000D01*
X-154642000Y72413000D02*
X-155302000Y72413000D01*
G04 #@! TO.C,R6*
X-154642000Y66317000D02*
X-155302000Y66317000D01*
X-162262000Y66317000D02*
X-161602000Y66317000D01*
X-155302000Y67567000D02*
X-161602000Y67567000D01*
X-155302000Y65067000D02*
X-155302000Y67567000D01*
X-161602000Y65067000D02*
X-155302000Y65067000D01*
X-161602000Y67567000D02*
X-161602000Y65067000D01*
G04 #@! TO.C,R7*
X-144126000Y95039000D02*
X-144126000Y97539000D01*
X-144126000Y97539000D02*
X-150426000Y97539000D01*
X-150426000Y97539000D02*
X-150426000Y95039000D01*
X-150426000Y95039000D02*
X-144126000Y95039000D01*
X-143466000Y96289000D02*
X-144126000Y96289000D01*
X-151086000Y96289000D02*
X-150426000Y96289000D01*
G04 #@! TO.C,R8*
X-151086000Y72413000D02*
X-150426000Y72413000D01*
X-143466000Y72413000D02*
X-144126000Y72413000D01*
X-150426000Y71163000D02*
X-144126000Y71163000D01*
X-150426000Y73663000D02*
X-150426000Y71163000D01*
X-144126000Y73663000D02*
X-150426000Y73663000D01*
X-144126000Y71163000D02*
X-144126000Y73663000D01*
G04 #@! TO.C,R9*
X-144126000Y65067000D02*
X-144126000Y67567000D01*
X-144126000Y67567000D02*
X-150426000Y67567000D01*
X-150426000Y67567000D02*
X-150426000Y65067000D01*
X-150426000Y65067000D02*
X-144126000Y65067000D01*
X-143466000Y66317000D02*
X-144126000Y66317000D01*
X-151086000Y66317000D02*
X-150426000Y66317000D01*
G04 #@! TO.C,R10*
X-140672000Y96289000D02*
X-140012000Y96289000D01*
X-133052000Y96289000D02*
X-133712000Y96289000D01*
X-140012000Y95039000D02*
X-133712000Y95039000D01*
X-140012000Y97539000D02*
X-140012000Y95039000D01*
X-133712000Y97539000D02*
X-140012000Y97539000D01*
X-133712000Y95039000D02*
X-133712000Y97539000D01*
G04 #@! TO.C,R11*
X-133712000Y71163000D02*
X-133712000Y73663000D01*
X-133712000Y73663000D02*
X-140012000Y73663000D01*
X-140012000Y73663000D02*
X-140012000Y71163000D01*
X-140012000Y71163000D02*
X-133712000Y71163000D01*
X-133052000Y72413000D02*
X-133712000Y72413000D01*
X-140672000Y72413000D02*
X-140012000Y72413000D01*
G04 #@! TO.C,R12*
X-133712000Y65067000D02*
X-133712000Y67567000D01*
X-133712000Y67567000D02*
X-140012000Y67567000D01*
X-140012000Y67567000D02*
X-140012000Y65067000D01*
X-140012000Y65067000D02*
X-133712000Y65067000D01*
X-133052000Y66317000D02*
X-133712000Y66317000D01*
X-140672000Y66317000D02*
X-140012000Y66317000D01*
G04 #@! TO.C,R13*
X-144584000Y48009000D02*
X-144584000Y45509000D01*
X-144584000Y45509000D02*
X-138284000Y45509000D01*
X-138284000Y45509000D02*
X-138284000Y48009000D01*
X-138284000Y48009000D02*
X-144584000Y48009000D01*
X-145244000Y46759000D02*
X-144584000Y46759000D01*
X-137624000Y46759000D02*
X-138284000Y46759000D01*
G04 #@! TO.C,R14*
X-168104000Y46759000D02*
X-167444000Y46759000D01*
X-160484000Y46759000D02*
X-161144000Y46759000D01*
X-167444000Y45509000D02*
X-161144000Y45509000D01*
X-167444000Y48009000D02*
X-167444000Y45509000D01*
X-161144000Y48009000D02*
X-167444000Y48009000D01*
X-161144000Y45509000D02*
X-161144000Y48009000D01*
G04 #@! TD*
G04 #@! TO.C,J1*
D11*
X-170374000Y129825619D02*
X-170374000Y130825619D01*
X-169897809Y129825619D02*
X-169897809Y130825619D01*
X-169326380Y129825619D01*
X-169326380Y130825619D01*
X-168326380Y129825619D02*
X-168897809Y129825619D01*
X-168612095Y129825619D02*
X-168612095Y130825619D01*
X-168707333Y130682761D01*
X-168802571Y130587523D01*
X-168897809Y130539904D01*
X-169707333Y127825619D02*
X-169707333Y127111333D01*
X-169754952Y126968476D01*
X-169850190Y126873238D01*
X-169993047Y126825619D01*
X-170088285Y126825619D01*
X-168707333Y126825619D02*
X-169278761Y126825619D01*
X-168993047Y126825619D02*
X-168993047Y127825619D01*
X-169088285Y127682761D01*
X-169183523Y127587523D01*
X-169278761Y127539904D01*
G04 #@! TO.C,J2*
X-159363100Y129838319D02*
X-159363100Y130838319D01*
X-158886909Y129838319D02*
X-158886909Y130838319D01*
X-158315480Y129838319D01*
X-158315480Y130838319D01*
X-157886909Y130743080D02*
X-157839290Y130790700D01*
X-157744052Y130838319D01*
X-157505957Y130838319D01*
X-157410719Y130790700D01*
X-157363100Y130743080D01*
X-157315480Y130647842D01*
X-157315480Y130552604D01*
X-157363100Y130409747D01*
X-157934528Y129838319D01*
X-157315480Y129838319D01*
X-158696433Y127838319D02*
X-158696433Y127124033D01*
X-158744052Y126981176D01*
X-158839290Y126885938D01*
X-158982147Y126838319D01*
X-159077385Y126838319D01*
X-158267861Y127743080D02*
X-158220242Y127790700D01*
X-158125004Y127838319D01*
X-157886909Y127838319D01*
X-157791671Y127790700D01*
X-157744052Y127743080D01*
X-157696433Y127647842D01*
X-157696433Y127552604D01*
X-157744052Y127409747D01*
X-158315480Y126838319D01*
X-157696433Y126838319D01*
G04 #@! TO.C,J3*
X-148377600Y129812919D02*
X-148377600Y130812919D01*
X-147901409Y129812919D02*
X-147901409Y130812919D01*
X-147329980Y129812919D01*
X-147329980Y130812919D01*
X-146949028Y130812919D02*
X-146329980Y130812919D01*
X-146663314Y130431966D01*
X-146520457Y130431966D01*
X-146425219Y130384347D01*
X-146377600Y130336728D01*
X-146329980Y130241490D01*
X-146329980Y130003395D01*
X-146377600Y129908157D01*
X-146425219Y129860538D01*
X-146520457Y129812919D01*
X-146806171Y129812919D01*
X-146901409Y129860538D01*
X-146949028Y129908157D01*
X-147710933Y127812919D02*
X-147710933Y127098633D01*
X-147758552Y126955776D01*
X-147853790Y126860538D01*
X-147996647Y126812919D01*
X-148091885Y126812919D01*
X-147329980Y127812919D02*
X-146710933Y127812919D01*
X-147044266Y127431966D01*
X-146901409Y127431966D01*
X-146806171Y127384347D01*
X-146758552Y127336728D01*
X-146710933Y127241490D01*
X-146710933Y127003395D01*
X-146758552Y126908157D01*
X-146806171Y126860538D01*
X-146901409Y126812919D01*
X-147187123Y126812919D01*
X-147282361Y126860538D01*
X-147329980Y126908157D01*
G04 #@! TO.C,J4*
X-137379400Y129825619D02*
X-137379400Y130825619D01*
X-136903209Y129825619D02*
X-136903209Y130825619D01*
X-136331780Y129825619D01*
X-136331780Y130825619D01*
X-135427019Y130492285D02*
X-135427019Y129825619D01*
X-135665114Y130873238D02*
X-135903209Y130158952D01*
X-135284161Y130158952D01*
X-136712733Y127825619D02*
X-136712733Y127111333D01*
X-136760352Y126968476D01*
X-136855590Y126873238D01*
X-136998447Y126825619D01*
X-137093685Y126825619D01*
X-135807971Y127492285D02*
X-135807971Y126825619D01*
X-136046066Y127873238D02*
X-136284161Y127158952D01*
X-135665114Y127158952D01*
G04 #@! TO.C,J5*
X-170850190Y106822619D02*
X-170659714Y106822619D01*
X-170564476Y106775000D01*
X-170469238Y106679761D01*
X-170421619Y106489285D01*
X-170421619Y106155952D01*
X-170469238Y105965476D01*
X-170564476Y105870238D01*
X-170659714Y105822619D01*
X-170850190Y105822619D01*
X-170945428Y105870238D01*
X-171040666Y105965476D01*
X-171088285Y106155952D01*
X-171088285Y106489285D01*
X-171040666Y106679761D01*
X-170945428Y106775000D01*
X-170850190Y106822619D01*
X-169993047Y106822619D02*
X-169993047Y106013095D01*
X-169945428Y105917857D01*
X-169897809Y105870238D01*
X-169802571Y105822619D01*
X-169612095Y105822619D01*
X-169516857Y105870238D01*
X-169469238Y105917857D01*
X-169421619Y106013095D01*
X-169421619Y106822619D01*
X-169088285Y106822619D02*
X-168516857Y106822619D01*
X-168802571Y105822619D02*
X-168802571Y106822619D01*
X-167659714Y105822619D02*
X-168231142Y105822619D01*
X-167945428Y105822619D02*
X-167945428Y106822619D01*
X-168040666Y106679761D01*
X-168135904Y106584523D01*
X-168231142Y106536904D01*
X-169707333Y103822619D02*
X-169707333Y103108333D01*
X-169754952Y102965476D01*
X-169850190Y102870238D01*
X-169993047Y102822619D01*
X-170088285Y102822619D01*
X-168754952Y103822619D02*
X-169231142Y103822619D01*
X-169278761Y103346428D01*
X-169231142Y103394047D01*
X-169135904Y103441666D01*
X-168897809Y103441666D01*
X-168802571Y103394047D01*
X-168754952Y103346428D01*
X-168707333Y103251190D01*
X-168707333Y103013095D01*
X-168754952Y102917857D01*
X-168802571Y102870238D01*
X-168897809Y102822619D01*
X-169135904Y102822619D01*
X-169231142Y102870238D01*
X-169278761Y102917857D01*
G04 #@! TO.C,J6*
X-170850190Y82819619D02*
X-170659714Y82819619D01*
X-170564476Y82772000D01*
X-170469238Y82676761D01*
X-170421619Y82486285D01*
X-170421619Y82152952D01*
X-170469238Y81962476D01*
X-170564476Y81867238D01*
X-170659714Y81819619D01*
X-170850190Y81819619D01*
X-170945428Y81867238D01*
X-171040666Y81962476D01*
X-171088285Y82152952D01*
X-171088285Y82486285D01*
X-171040666Y82676761D01*
X-170945428Y82772000D01*
X-170850190Y82819619D01*
X-169993047Y82819619D02*
X-169993047Y82010095D01*
X-169945428Y81914857D01*
X-169897809Y81867238D01*
X-169802571Y81819619D01*
X-169612095Y81819619D01*
X-169516857Y81867238D01*
X-169469238Y81914857D01*
X-169421619Y82010095D01*
X-169421619Y82819619D01*
X-169088285Y82819619D02*
X-168516857Y82819619D01*
X-168802571Y81819619D02*
X-168802571Y82819619D01*
X-168231142Y82724380D02*
X-168183523Y82772000D01*
X-168088285Y82819619D01*
X-167850190Y82819619D01*
X-167754952Y82772000D01*
X-167707333Y82724380D01*
X-167659714Y82629142D01*
X-167659714Y82533904D01*
X-167707333Y82391047D01*
X-168278761Y81819619D01*
X-167659714Y81819619D01*
X-169707333Y79819619D02*
X-169707333Y79105333D01*
X-169754952Y78962476D01*
X-169850190Y78867238D01*
X-169993047Y78819619D01*
X-170088285Y78819619D01*
X-168802571Y79819619D02*
X-168993047Y79819619D01*
X-169088285Y79772000D01*
X-169135904Y79724380D01*
X-169231142Y79581523D01*
X-169278761Y79391047D01*
X-169278761Y79010095D01*
X-169231142Y78914857D01*
X-169183523Y78867238D01*
X-169088285Y78819619D01*
X-168897809Y78819619D01*
X-168802571Y78867238D01*
X-168754952Y78914857D01*
X-168707333Y79010095D01*
X-168707333Y79248190D01*
X-168754952Y79343428D01*
X-168802571Y79391047D01*
X-168897809Y79438666D01*
X-169088285Y79438666D01*
X-169183523Y79391047D01*
X-169231142Y79343428D01*
X-169278761Y79248190D01*
G04 #@! TO.C,J7*
X-170850190Y58816619D02*
X-170659714Y58816619D01*
X-170564476Y58769000D01*
X-170469238Y58673761D01*
X-170421619Y58483285D01*
X-170421619Y58149952D01*
X-170469238Y57959476D01*
X-170564476Y57864238D01*
X-170659714Y57816619D01*
X-170850190Y57816619D01*
X-170945428Y57864238D01*
X-171040666Y57959476D01*
X-171088285Y58149952D01*
X-171088285Y58483285D01*
X-171040666Y58673761D01*
X-170945428Y58769000D01*
X-170850190Y58816619D01*
X-169993047Y58816619D02*
X-169993047Y58007095D01*
X-169945428Y57911857D01*
X-169897809Y57864238D01*
X-169802571Y57816619D01*
X-169612095Y57816619D01*
X-169516857Y57864238D01*
X-169469238Y57911857D01*
X-169421619Y58007095D01*
X-169421619Y58816619D01*
X-169088285Y58816619D02*
X-168516857Y58816619D01*
X-168802571Y57816619D02*
X-168802571Y58816619D01*
X-168278761Y58816619D02*
X-167659714Y58816619D01*
X-167993047Y58435666D01*
X-167850190Y58435666D01*
X-167754952Y58388047D01*
X-167707333Y58340428D01*
X-167659714Y58245190D01*
X-167659714Y58007095D01*
X-167707333Y57911857D01*
X-167754952Y57864238D01*
X-167850190Y57816619D01*
X-168135904Y57816619D01*
X-168231142Y57864238D01*
X-168278761Y57911857D01*
X-169707333Y55816619D02*
X-169707333Y55102333D01*
X-169754952Y54959476D01*
X-169850190Y54864238D01*
X-169993047Y54816619D01*
X-170088285Y54816619D01*
X-169326380Y55816619D02*
X-168659714Y55816619D01*
X-169088285Y54816619D01*
G04 #@! TO.C,J8*
X-159864690Y106822619D02*
X-159674214Y106822619D01*
X-159578976Y106775000D01*
X-159483738Y106679761D01*
X-159436119Y106489285D01*
X-159436119Y106155952D01*
X-159483738Y105965476D01*
X-159578976Y105870238D01*
X-159674214Y105822619D01*
X-159864690Y105822619D01*
X-159959928Y105870238D01*
X-160055166Y105965476D01*
X-160102785Y106155952D01*
X-160102785Y106489285D01*
X-160055166Y106679761D01*
X-159959928Y106775000D01*
X-159864690Y106822619D01*
X-159007547Y106822619D02*
X-159007547Y106013095D01*
X-158959928Y105917857D01*
X-158912309Y105870238D01*
X-158817071Y105822619D01*
X-158626595Y105822619D01*
X-158531357Y105870238D01*
X-158483738Y105917857D01*
X-158436119Y106013095D01*
X-158436119Y106822619D01*
X-158102785Y106822619D02*
X-157531357Y106822619D01*
X-157817071Y105822619D02*
X-157817071Y106822619D01*
X-156674214Y105822619D02*
X-157245642Y105822619D01*
X-156959928Y105822619D02*
X-156959928Y106822619D01*
X-157055166Y106679761D01*
X-157150404Y106584523D01*
X-157245642Y106536904D01*
X-158721833Y103822619D02*
X-158721833Y103108333D01*
X-158769452Y102965476D01*
X-158864690Y102870238D01*
X-159007547Y102822619D01*
X-159102785Y102822619D01*
X-158102785Y103394047D02*
X-158198023Y103441666D01*
X-158245642Y103489285D01*
X-158293261Y103584523D01*
X-158293261Y103632142D01*
X-158245642Y103727380D01*
X-158198023Y103775000D01*
X-158102785Y103822619D01*
X-157912309Y103822619D01*
X-157817071Y103775000D01*
X-157769452Y103727380D01*
X-157721833Y103632142D01*
X-157721833Y103584523D01*
X-157769452Y103489285D01*
X-157817071Y103441666D01*
X-157912309Y103394047D01*
X-158102785Y103394047D01*
X-158198023Y103346428D01*
X-158245642Y103298809D01*
X-158293261Y103203571D01*
X-158293261Y103013095D01*
X-158245642Y102917857D01*
X-158198023Y102870238D01*
X-158102785Y102822619D01*
X-157912309Y102822619D01*
X-157817071Y102870238D01*
X-157769452Y102917857D01*
X-157721833Y103013095D01*
X-157721833Y103203571D01*
X-157769452Y103298809D01*
X-157817071Y103346428D01*
X-157912309Y103394047D01*
G04 #@! TO.C,J9*
X-159864690Y82819619D02*
X-159674214Y82819619D01*
X-159578976Y82772000D01*
X-159483738Y82676761D01*
X-159436119Y82486285D01*
X-159436119Y82152952D01*
X-159483738Y81962476D01*
X-159578976Y81867238D01*
X-159674214Y81819619D01*
X-159864690Y81819619D01*
X-159959928Y81867238D01*
X-160055166Y81962476D01*
X-160102785Y82152952D01*
X-160102785Y82486285D01*
X-160055166Y82676761D01*
X-159959928Y82772000D01*
X-159864690Y82819619D01*
X-159007547Y82819619D02*
X-159007547Y82010095D01*
X-158959928Y81914857D01*
X-158912309Y81867238D01*
X-158817071Y81819619D01*
X-158626595Y81819619D01*
X-158531357Y81867238D01*
X-158483738Y81914857D01*
X-158436119Y82010095D01*
X-158436119Y82819619D01*
X-158102785Y82819619D02*
X-157531357Y82819619D01*
X-157817071Y81819619D02*
X-157817071Y82819619D01*
X-157245642Y82724380D02*
X-157198023Y82772000D01*
X-157102785Y82819619D01*
X-156864690Y82819619D01*
X-156769452Y82772000D01*
X-156721833Y82724380D01*
X-156674214Y82629142D01*
X-156674214Y82533904D01*
X-156721833Y82391047D01*
X-157293261Y81819619D01*
X-156674214Y81819619D01*
X-158721833Y79819619D02*
X-158721833Y79105333D01*
X-158769452Y78962476D01*
X-158864690Y78867238D01*
X-159007547Y78819619D01*
X-159102785Y78819619D01*
X-158198023Y78819619D02*
X-158007547Y78819619D01*
X-157912309Y78867238D01*
X-157864690Y78914857D01*
X-157769452Y79057714D01*
X-157721833Y79248190D01*
X-157721833Y79629142D01*
X-157769452Y79724380D01*
X-157817071Y79772000D01*
X-157912309Y79819619D01*
X-158102785Y79819619D01*
X-158198023Y79772000D01*
X-158245642Y79724380D01*
X-158293261Y79629142D01*
X-158293261Y79391047D01*
X-158245642Y79295809D01*
X-158198023Y79248190D01*
X-158102785Y79200571D01*
X-157912309Y79200571D01*
X-157817071Y79248190D01*
X-157769452Y79295809D01*
X-157721833Y79391047D01*
G04 #@! TO.C,J10*
X-159864690Y58816619D02*
X-159674214Y58816619D01*
X-159578976Y58769000D01*
X-159483738Y58673761D01*
X-159436119Y58483285D01*
X-159436119Y58149952D01*
X-159483738Y57959476D01*
X-159578976Y57864238D01*
X-159674214Y57816619D01*
X-159864690Y57816619D01*
X-159959928Y57864238D01*
X-160055166Y57959476D01*
X-160102785Y58149952D01*
X-160102785Y58483285D01*
X-160055166Y58673761D01*
X-159959928Y58769000D01*
X-159864690Y58816619D01*
X-159007547Y58816619D02*
X-159007547Y58007095D01*
X-158959928Y57911857D01*
X-158912309Y57864238D01*
X-158817071Y57816619D01*
X-158626595Y57816619D01*
X-158531357Y57864238D01*
X-158483738Y57911857D01*
X-158436119Y58007095D01*
X-158436119Y58816619D01*
X-158102785Y58816619D02*
X-157531357Y58816619D01*
X-157817071Y57816619D02*
X-157817071Y58816619D01*
X-157293261Y58816619D02*
X-156674214Y58816619D01*
X-157007547Y58435666D01*
X-156864690Y58435666D01*
X-156769452Y58388047D01*
X-156721833Y58340428D01*
X-156674214Y58245190D01*
X-156674214Y58007095D01*
X-156721833Y57911857D01*
X-156769452Y57864238D01*
X-156864690Y57816619D01*
X-157150404Y57816619D01*
X-157245642Y57864238D01*
X-157293261Y57911857D01*
X-159198023Y55816619D02*
X-159198023Y55102333D01*
X-159245642Y54959476D01*
X-159340880Y54864238D01*
X-159483738Y54816619D01*
X-159578976Y54816619D01*
X-158198023Y54816619D02*
X-158769452Y54816619D01*
X-158483738Y54816619D02*
X-158483738Y55816619D01*
X-158578976Y55673761D01*
X-158674214Y55578523D01*
X-158769452Y55530904D01*
X-157578976Y55816619D02*
X-157483738Y55816619D01*
X-157388500Y55769000D01*
X-157340880Y55721380D01*
X-157293261Y55626142D01*
X-157245642Y55435666D01*
X-157245642Y55197571D01*
X-157293261Y55007095D01*
X-157340880Y54911857D01*
X-157388500Y54864238D01*
X-157483738Y54816619D01*
X-157578976Y54816619D01*
X-157674214Y54864238D01*
X-157721833Y54911857D01*
X-157769452Y55007095D01*
X-157817071Y55197571D01*
X-157817071Y55435666D01*
X-157769452Y55626142D01*
X-157721833Y55721380D01*
X-157674214Y55769000D01*
X-157578976Y55816619D01*
G04 #@! TO.C,J11*
X-148853790Y106835319D02*
X-148663314Y106835319D01*
X-148568076Y106787700D01*
X-148472838Y106692461D01*
X-148425219Y106501985D01*
X-148425219Y106168652D01*
X-148472838Y105978176D01*
X-148568076Y105882938D01*
X-148663314Y105835319D01*
X-148853790Y105835319D01*
X-148949028Y105882938D01*
X-149044266Y105978176D01*
X-149091885Y106168652D01*
X-149091885Y106501985D01*
X-149044266Y106692461D01*
X-148949028Y106787700D01*
X-148853790Y106835319D01*
X-147996647Y106835319D02*
X-147996647Y106025795D01*
X-147949028Y105930557D01*
X-147901409Y105882938D01*
X-147806171Y105835319D01*
X-147615695Y105835319D01*
X-147520457Y105882938D01*
X-147472838Y105930557D01*
X-147425219Y106025795D01*
X-147425219Y106835319D01*
X-147091885Y106835319D02*
X-146520457Y106835319D01*
X-146806171Y105835319D02*
X-146806171Y106835319D01*
X-145663314Y105835319D02*
X-146234742Y105835319D01*
X-145949028Y105835319D02*
X-145949028Y106835319D01*
X-146044266Y106692461D01*
X-146139504Y106597223D01*
X-146234742Y106549604D01*
X-148187123Y103835319D02*
X-148187123Y103121033D01*
X-148234742Y102978176D01*
X-148329980Y102882938D01*
X-148472838Y102835319D01*
X-148568076Y102835319D01*
X-147187123Y102835319D02*
X-147758552Y102835319D01*
X-147472838Y102835319D02*
X-147472838Y103835319D01*
X-147568076Y103692461D01*
X-147663314Y103597223D01*
X-147758552Y103549604D01*
X-146234742Y102835319D02*
X-146806171Y102835319D01*
X-146520457Y102835319D02*
X-146520457Y103835319D01*
X-146615695Y103692461D01*
X-146710933Y103597223D01*
X-146806171Y103549604D01*
G04 #@! TO.C,J12*
X-148853790Y82832319D02*
X-148663314Y82832319D01*
X-148568076Y82784700D01*
X-148472838Y82689461D01*
X-148425219Y82498985D01*
X-148425219Y82165652D01*
X-148472838Y81975176D01*
X-148568076Y81879938D01*
X-148663314Y81832319D01*
X-148853790Y81832319D01*
X-148949028Y81879938D01*
X-149044266Y81975176D01*
X-149091885Y82165652D01*
X-149091885Y82498985D01*
X-149044266Y82689461D01*
X-148949028Y82784700D01*
X-148853790Y82832319D01*
X-147996647Y82832319D02*
X-147996647Y82022795D01*
X-147949028Y81927557D01*
X-147901409Y81879938D01*
X-147806171Y81832319D01*
X-147615695Y81832319D01*
X-147520457Y81879938D01*
X-147472838Y81927557D01*
X-147425219Y82022795D01*
X-147425219Y82832319D01*
X-147091885Y82832319D02*
X-146520457Y82832319D01*
X-146806171Y81832319D02*
X-146806171Y82832319D01*
X-146234742Y82737080D02*
X-146187123Y82784700D01*
X-146091885Y82832319D01*
X-145853790Y82832319D01*
X-145758552Y82784700D01*
X-145710933Y82737080D01*
X-145663314Y82641842D01*
X-145663314Y82546604D01*
X-145710933Y82403747D01*
X-146282361Y81832319D01*
X-145663314Y81832319D01*
X-148187123Y79832319D02*
X-148187123Y79118033D01*
X-148234742Y78975176D01*
X-148329980Y78879938D01*
X-148472838Y78832319D01*
X-148568076Y78832319D01*
X-147187123Y78832319D02*
X-147758552Y78832319D01*
X-147472838Y78832319D02*
X-147472838Y79832319D01*
X-147568076Y79689461D01*
X-147663314Y79594223D01*
X-147758552Y79546604D01*
X-146806171Y79737080D02*
X-146758552Y79784700D01*
X-146663314Y79832319D01*
X-146425219Y79832319D01*
X-146329980Y79784700D01*
X-146282361Y79737080D01*
X-146234742Y79641842D01*
X-146234742Y79546604D01*
X-146282361Y79403747D01*
X-146853790Y78832319D01*
X-146234742Y78832319D01*
G04 #@! TO.C,J13*
X-148853790Y58816619D02*
X-148663314Y58816619D01*
X-148568076Y58769000D01*
X-148472838Y58673761D01*
X-148425219Y58483285D01*
X-148425219Y58149952D01*
X-148472838Y57959476D01*
X-148568076Y57864238D01*
X-148663314Y57816619D01*
X-148853790Y57816619D01*
X-148949028Y57864238D01*
X-149044266Y57959476D01*
X-149091885Y58149952D01*
X-149091885Y58483285D01*
X-149044266Y58673761D01*
X-148949028Y58769000D01*
X-148853790Y58816619D01*
X-147996647Y58816619D02*
X-147996647Y58007095D01*
X-147949028Y57911857D01*
X-147901409Y57864238D01*
X-147806171Y57816619D01*
X-147615695Y57816619D01*
X-147520457Y57864238D01*
X-147472838Y57911857D01*
X-147425219Y58007095D01*
X-147425219Y58816619D01*
X-147091885Y58816619D02*
X-146520457Y58816619D01*
X-146806171Y57816619D02*
X-146806171Y58816619D01*
X-146282361Y58816619D02*
X-145663314Y58816619D01*
X-145996647Y58435666D01*
X-145853790Y58435666D01*
X-145758552Y58388047D01*
X-145710933Y58340428D01*
X-145663314Y58245190D01*
X-145663314Y58007095D01*
X-145710933Y57911857D01*
X-145758552Y57864238D01*
X-145853790Y57816619D01*
X-146139504Y57816619D01*
X-146234742Y57864238D01*
X-146282361Y57911857D01*
X-148187123Y55816619D02*
X-148187123Y55102333D01*
X-148234742Y54959476D01*
X-148329980Y54864238D01*
X-148472838Y54816619D01*
X-148568076Y54816619D01*
X-147187123Y54816619D02*
X-147758552Y54816619D01*
X-147472838Y54816619D02*
X-147472838Y55816619D01*
X-147568076Y55673761D01*
X-147663314Y55578523D01*
X-147758552Y55530904D01*
X-146853790Y55816619D02*
X-146234742Y55816619D01*
X-146568076Y55435666D01*
X-146425219Y55435666D01*
X-146329980Y55388047D01*
X-146282361Y55340428D01*
X-146234742Y55245190D01*
X-146234742Y55007095D01*
X-146282361Y54911857D01*
X-146329980Y54864238D01*
X-146425219Y54816619D01*
X-146710933Y54816619D01*
X-146806171Y54864238D01*
X-146853790Y54911857D01*
G04 #@! TO.C,J14*
X-137855590Y106835319D02*
X-137665114Y106835319D01*
X-137569876Y106787700D01*
X-137474638Y106692461D01*
X-137427019Y106501985D01*
X-137427019Y106168652D01*
X-137474638Y105978176D01*
X-137569876Y105882938D01*
X-137665114Y105835319D01*
X-137855590Y105835319D01*
X-137950828Y105882938D01*
X-138046066Y105978176D01*
X-138093685Y106168652D01*
X-138093685Y106501985D01*
X-138046066Y106692461D01*
X-137950828Y106787700D01*
X-137855590Y106835319D01*
X-136998447Y106835319D02*
X-136998447Y106025795D01*
X-136950828Y105930557D01*
X-136903209Y105882938D01*
X-136807971Y105835319D01*
X-136617495Y105835319D01*
X-136522257Y105882938D01*
X-136474638Y105930557D01*
X-136427019Y106025795D01*
X-136427019Y106835319D01*
X-136093685Y106835319D02*
X-135522257Y106835319D01*
X-135807971Y105835319D02*
X-135807971Y106835319D01*
X-134665114Y105835319D02*
X-135236542Y105835319D01*
X-134950828Y105835319D02*
X-134950828Y106835319D01*
X-135046066Y106692461D01*
X-135141304Y106597223D01*
X-135236542Y106549604D01*
X-137188923Y103835319D02*
X-137188923Y103121033D01*
X-137236542Y102978176D01*
X-137331780Y102882938D01*
X-137474638Y102835319D01*
X-137569876Y102835319D01*
X-136188923Y102835319D02*
X-136760352Y102835319D01*
X-136474638Y102835319D02*
X-136474638Y103835319D01*
X-136569876Y103692461D01*
X-136665114Y103597223D01*
X-136760352Y103549604D01*
X-135331780Y103501985D02*
X-135331780Y102835319D01*
X-135569876Y103882938D02*
X-135807971Y103168652D01*
X-135188923Y103168652D01*
G04 #@! TO.C,J15*
X-137855590Y82819619D02*
X-137665114Y82819619D01*
X-137569876Y82772000D01*
X-137474638Y82676761D01*
X-137427019Y82486285D01*
X-137427019Y82152952D01*
X-137474638Y81962476D01*
X-137569876Y81867238D01*
X-137665114Y81819619D01*
X-137855590Y81819619D01*
X-137950828Y81867238D01*
X-138046066Y81962476D01*
X-138093685Y82152952D01*
X-138093685Y82486285D01*
X-138046066Y82676761D01*
X-137950828Y82772000D01*
X-137855590Y82819619D01*
X-136998447Y82819619D02*
X-136998447Y82010095D01*
X-136950828Y81914857D01*
X-136903209Y81867238D01*
X-136807971Y81819619D01*
X-136617495Y81819619D01*
X-136522257Y81867238D01*
X-136474638Y81914857D01*
X-136427019Y82010095D01*
X-136427019Y82819619D01*
X-136093685Y82819619D02*
X-135522257Y82819619D01*
X-135807971Y81819619D02*
X-135807971Y82819619D01*
X-135236542Y82724380D02*
X-135188923Y82772000D01*
X-135093685Y82819619D01*
X-134855590Y82819619D01*
X-134760352Y82772000D01*
X-134712733Y82724380D01*
X-134665114Y82629142D01*
X-134665114Y82533904D01*
X-134712733Y82391047D01*
X-135284161Y81819619D01*
X-134665114Y81819619D01*
X-137188923Y79819619D02*
X-137188923Y79105333D01*
X-137236542Y78962476D01*
X-137331780Y78867238D01*
X-137474638Y78819619D01*
X-137569876Y78819619D01*
X-136188923Y78819619D02*
X-136760352Y78819619D01*
X-136474638Y78819619D02*
X-136474638Y79819619D01*
X-136569876Y79676761D01*
X-136665114Y79581523D01*
X-136760352Y79533904D01*
X-135284161Y79819619D02*
X-135760352Y79819619D01*
X-135807971Y79343428D01*
X-135760352Y79391047D01*
X-135665114Y79438666D01*
X-135427019Y79438666D01*
X-135331780Y79391047D01*
X-135284161Y79343428D01*
X-135236542Y79248190D01*
X-135236542Y79010095D01*
X-135284161Y78914857D01*
X-135331780Y78867238D01*
X-135427019Y78819619D01*
X-135665114Y78819619D01*
X-135760352Y78867238D01*
X-135807971Y78914857D01*
G04 #@! TO.C,J16*
X-137855590Y58829319D02*
X-137665114Y58829319D01*
X-137569876Y58781700D01*
X-137474638Y58686461D01*
X-137427019Y58495985D01*
X-137427019Y58162652D01*
X-137474638Y57972176D01*
X-137569876Y57876938D01*
X-137665114Y57829319D01*
X-137855590Y57829319D01*
X-137950828Y57876938D01*
X-138046066Y57972176D01*
X-138093685Y58162652D01*
X-138093685Y58495985D01*
X-138046066Y58686461D01*
X-137950828Y58781700D01*
X-137855590Y58829319D01*
X-136998447Y58829319D02*
X-136998447Y58019795D01*
X-136950828Y57924557D01*
X-136903209Y57876938D01*
X-136807971Y57829319D01*
X-136617495Y57829319D01*
X-136522257Y57876938D01*
X-136474638Y57924557D01*
X-136427019Y58019795D01*
X-136427019Y58829319D01*
X-136093685Y58829319D02*
X-135522257Y58829319D01*
X-135807971Y57829319D02*
X-135807971Y58829319D01*
X-135284161Y58829319D02*
X-134665114Y58829319D01*
X-134998447Y58448366D01*
X-134855590Y58448366D01*
X-134760352Y58400747D01*
X-134712733Y58353128D01*
X-134665114Y58257890D01*
X-134665114Y58019795D01*
X-134712733Y57924557D01*
X-134760352Y57876938D01*
X-134855590Y57829319D01*
X-135141304Y57829319D01*
X-135236542Y57876938D01*
X-135284161Y57924557D01*
X-137188923Y55829319D02*
X-137188923Y55115033D01*
X-137236542Y54972176D01*
X-137331780Y54876938D01*
X-137474638Y54829319D01*
X-137569876Y54829319D01*
X-136188923Y54829319D02*
X-136760352Y54829319D01*
X-136474638Y54829319D02*
X-136474638Y55829319D01*
X-136569876Y55686461D01*
X-136665114Y55591223D01*
X-136760352Y55543604D01*
X-135331780Y55829319D02*
X-135522257Y55829319D01*
X-135617495Y55781700D01*
X-135665114Y55734080D01*
X-135760352Y55591223D01*
X-135807971Y55400747D01*
X-135807971Y55019795D01*
X-135760352Y54924557D01*
X-135712733Y54876938D01*
X-135617495Y54829319D01*
X-135427019Y54829319D01*
X-135331780Y54876938D01*
X-135284161Y54924557D01*
X-135236542Y55019795D01*
X-135236542Y55257890D01*
X-135284161Y55353128D01*
X-135331780Y55400747D01*
X-135427019Y55448366D01*
X-135617495Y55448366D01*
X-135712733Y55400747D01*
X-135760352Y55353128D01*
X-135807971Y55257890D01*
G04 #@! TO.C,R1*
X-169493047Y93466619D02*
X-170064476Y93466619D01*
X-169778761Y93466619D02*
X-169778761Y94466619D01*
X-169874000Y94323761D01*
X-169969238Y94228523D01*
X-170064476Y94180904D01*
X-169064476Y93466619D02*
X-169064476Y94466619D01*
X-168969238Y93847571D02*
X-168683523Y93466619D01*
X-168683523Y94133285D02*
X-169064476Y93752333D01*
X-169540666Y95836619D02*
X-169874000Y96312809D01*
X-170112095Y95836619D02*
X-170112095Y96836619D01*
X-169731142Y96836619D01*
X-169635904Y96789000D01*
X-169588285Y96741380D01*
X-169540666Y96646142D01*
X-169540666Y96503285D01*
X-169588285Y96408047D01*
X-169635904Y96360428D01*
X-169731142Y96312809D01*
X-170112095Y96312809D01*
X-168588285Y95836619D02*
X-169159714Y95836619D01*
X-168874000Y95836619D02*
X-168874000Y96836619D01*
X-168969238Y96693761D01*
X-169064476Y96598523D01*
X-169159714Y96550904D01*
G04 #@! TO.C,R2*
X-169493047Y69590619D02*
X-170064476Y69590619D01*
X-169778761Y69590619D02*
X-169778761Y70590619D01*
X-169874000Y70447761D01*
X-169969238Y70352523D01*
X-170064476Y70304904D01*
X-169064476Y69590619D02*
X-169064476Y70590619D01*
X-168969238Y69971571D02*
X-168683523Y69590619D01*
X-168683523Y70257285D02*
X-169064476Y69876333D01*
X-169540666Y71960619D02*
X-169874000Y72436809D01*
X-170112095Y71960619D02*
X-170112095Y72960619D01*
X-169731142Y72960619D01*
X-169635904Y72913000D01*
X-169588285Y72865380D01*
X-169540666Y72770142D01*
X-169540666Y72627285D01*
X-169588285Y72532047D01*
X-169635904Y72484428D01*
X-169731142Y72436809D01*
X-170112095Y72436809D01*
X-169159714Y72865380D02*
X-169112095Y72913000D01*
X-169016857Y72960619D01*
X-168778761Y72960619D01*
X-168683523Y72913000D01*
X-168635904Y72865380D01*
X-168588285Y72770142D01*
X-168588285Y72674904D01*
X-168635904Y72532047D01*
X-169207333Y71960619D01*
X-168588285Y71960619D01*
G04 #@! TO.C,R3*
X-169493047Y63494619D02*
X-170064476Y63494619D01*
X-169778761Y63494619D02*
X-169778761Y64494619D01*
X-169874000Y64351761D01*
X-169969238Y64256523D01*
X-170064476Y64208904D01*
X-169064476Y63494619D02*
X-169064476Y64494619D01*
X-168969238Y63875571D02*
X-168683523Y63494619D01*
X-168683523Y64161285D02*
X-169064476Y63780333D01*
X-169540666Y65864619D02*
X-169874000Y66340809D01*
X-170112095Y65864619D02*
X-170112095Y66864619D01*
X-169731142Y66864619D01*
X-169635904Y66817000D01*
X-169588285Y66769380D01*
X-169540666Y66674142D01*
X-169540666Y66531285D01*
X-169588285Y66436047D01*
X-169635904Y66388428D01*
X-169731142Y66340809D01*
X-170112095Y66340809D01*
X-169207333Y66864619D02*
X-168588285Y66864619D01*
X-168921619Y66483666D01*
X-168778761Y66483666D01*
X-168683523Y66436047D01*
X-168635904Y66388428D01*
X-168588285Y66293190D01*
X-168588285Y66055095D01*
X-168635904Y65959857D01*
X-168683523Y65912238D01*
X-168778761Y65864619D01*
X-169064476Y65864619D01*
X-169159714Y65912238D01*
X-169207333Y65959857D01*
G04 #@! TO.C,R4*
X-158571047Y93466619D02*
X-159142476Y93466619D01*
X-158856761Y93466619D02*
X-158856761Y94466619D01*
X-158952000Y94323761D01*
X-159047238Y94228523D01*
X-159142476Y94180904D01*
X-158142476Y93466619D02*
X-158142476Y94466619D01*
X-158047238Y93847571D02*
X-157761523Y93466619D01*
X-157761523Y94133285D02*
X-158142476Y93752333D01*
X-158618666Y95836619D02*
X-158952000Y96312809D01*
X-159190095Y95836619D02*
X-159190095Y96836619D01*
X-158809142Y96836619D01*
X-158713904Y96789000D01*
X-158666285Y96741380D01*
X-158618666Y96646142D01*
X-158618666Y96503285D01*
X-158666285Y96408047D01*
X-158713904Y96360428D01*
X-158809142Y96312809D01*
X-159190095Y96312809D01*
X-157761523Y96503285D02*
X-157761523Y95836619D01*
X-157999619Y96884238D02*
X-158237714Y96169952D01*
X-157618666Y96169952D01*
G04 #@! TO.C,R5*
X-158571047Y69590619D02*
X-159142476Y69590619D01*
X-158856761Y69590619D02*
X-158856761Y70590619D01*
X-158952000Y70447761D01*
X-159047238Y70352523D01*
X-159142476Y70304904D01*
X-158142476Y69590619D02*
X-158142476Y70590619D01*
X-158047238Y69971571D02*
X-157761523Y69590619D01*
X-157761523Y70257285D02*
X-158142476Y69876333D01*
X-158618666Y71960619D02*
X-158952000Y72436809D01*
X-159190095Y71960619D02*
X-159190095Y72960619D01*
X-158809142Y72960619D01*
X-158713904Y72913000D01*
X-158666285Y72865380D01*
X-158618666Y72770142D01*
X-158618666Y72627285D01*
X-158666285Y72532047D01*
X-158713904Y72484428D01*
X-158809142Y72436809D01*
X-159190095Y72436809D01*
X-157713904Y72960619D02*
X-158190095Y72960619D01*
X-158237714Y72484428D01*
X-158190095Y72532047D01*
X-158094857Y72579666D01*
X-157856761Y72579666D01*
X-157761523Y72532047D01*
X-157713904Y72484428D01*
X-157666285Y72389190D01*
X-157666285Y72151095D01*
X-157713904Y72055857D01*
X-157761523Y72008238D01*
X-157856761Y71960619D01*
X-158094857Y71960619D01*
X-158190095Y72008238D01*
X-158237714Y72055857D01*
G04 #@! TO.C,R6*
X-158571047Y63494619D02*
X-159142476Y63494619D01*
X-158856761Y63494619D02*
X-158856761Y64494619D01*
X-158952000Y64351761D01*
X-159047238Y64256523D01*
X-159142476Y64208904D01*
X-158142476Y63494619D02*
X-158142476Y64494619D01*
X-158047238Y63875571D02*
X-157761523Y63494619D01*
X-157761523Y64161285D02*
X-158142476Y63780333D01*
X-158618666Y65864619D02*
X-158952000Y66340809D01*
X-159190095Y65864619D02*
X-159190095Y66864619D01*
X-158809142Y66864619D01*
X-158713904Y66817000D01*
X-158666285Y66769380D01*
X-158618666Y66674142D01*
X-158618666Y66531285D01*
X-158666285Y66436047D01*
X-158713904Y66388428D01*
X-158809142Y66340809D01*
X-159190095Y66340809D01*
X-157761523Y66864619D02*
X-157952000Y66864619D01*
X-158047238Y66817000D01*
X-158094857Y66769380D01*
X-158190095Y66626523D01*
X-158237714Y66436047D01*
X-158237714Y66055095D01*
X-158190095Y65959857D01*
X-158142476Y65912238D01*
X-158047238Y65864619D01*
X-157856761Y65864619D01*
X-157761523Y65912238D01*
X-157713904Y65959857D01*
X-157666285Y66055095D01*
X-157666285Y66293190D01*
X-157713904Y66388428D01*
X-157761523Y66436047D01*
X-157856761Y66483666D01*
X-158047238Y66483666D01*
X-158142476Y66436047D01*
X-158190095Y66388428D01*
X-158237714Y66293190D01*
G04 #@! TO.C,R7*
X-147395047Y98206619D02*
X-147966476Y98206619D01*
X-147680761Y98206619D02*
X-147680761Y99206619D01*
X-147776000Y99063761D01*
X-147871238Y98968523D01*
X-147966476Y98920904D01*
X-146966476Y98206619D02*
X-146966476Y99206619D01*
X-146871238Y98587571D02*
X-146585523Y98206619D01*
X-146585523Y98873285D02*
X-146966476Y98492333D01*
X-147442666Y95836619D02*
X-147776000Y96312809D01*
X-148014095Y95836619D02*
X-148014095Y96836619D01*
X-147633142Y96836619D01*
X-147537904Y96789000D01*
X-147490285Y96741380D01*
X-147442666Y96646142D01*
X-147442666Y96503285D01*
X-147490285Y96408047D01*
X-147537904Y96360428D01*
X-147633142Y96312809D01*
X-148014095Y96312809D01*
X-147109333Y96836619D02*
X-146442666Y96836619D01*
X-146871238Y95836619D01*
G04 #@! TO.C,R8*
X-147395047Y74330619D02*
X-147966476Y74330619D01*
X-147680761Y74330619D02*
X-147680761Y75330619D01*
X-147776000Y75187761D01*
X-147871238Y75092523D01*
X-147966476Y75044904D01*
X-146966476Y74330619D02*
X-146966476Y75330619D01*
X-146871238Y74711571D02*
X-146585523Y74330619D01*
X-146585523Y74997285D02*
X-146966476Y74616333D01*
X-147442666Y71960619D02*
X-147776000Y72436809D01*
X-148014095Y71960619D02*
X-148014095Y72960619D01*
X-147633142Y72960619D01*
X-147537904Y72913000D01*
X-147490285Y72865380D01*
X-147442666Y72770142D01*
X-147442666Y72627285D01*
X-147490285Y72532047D01*
X-147537904Y72484428D01*
X-147633142Y72436809D01*
X-148014095Y72436809D01*
X-146871238Y72532047D02*
X-146966476Y72579666D01*
X-147014095Y72627285D01*
X-147061714Y72722523D01*
X-147061714Y72770142D01*
X-147014095Y72865380D01*
X-146966476Y72913000D01*
X-146871238Y72960619D01*
X-146680761Y72960619D01*
X-146585523Y72913000D01*
X-146537904Y72865380D01*
X-146490285Y72770142D01*
X-146490285Y72722523D01*
X-146537904Y72627285D01*
X-146585523Y72579666D01*
X-146680761Y72532047D01*
X-146871238Y72532047D01*
X-146966476Y72484428D01*
X-147014095Y72436809D01*
X-147061714Y72341571D01*
X-147061714Y72151095D01*
X-147014095Y72055857D01*
X-146966476Y72008238D01*
X-146871238Y71960619D01*
X-146680761Y71960619D01*
X-146585523Y72008238D01*
X-146537904Y72055857D01*
X-146490285Y72151095D01*
X-146490285Y72341571D01*
X-146537904Y72436809D01*
X-146585523Y72484428D01*
X-146680761Y72532047D01*
G04 #@! TO.C,R9*
X-147395047Y68234619D02*
X-147966476Y68234619D01*
X-147680761Y68234619D02*
X-147680761Y69234619D01*
X-147776000Y69091761D01*
X-147871238Y68996523D01*
X-147966476Y68948904D01*
X-146966476Y68234619D02*
X-146966476Y69234619D01*
X-146871238Y68615571D02*
X-146585523Y68234619D01*
X-146585523Y68901285D02*
X-146966476Y68520333D01*
X-147442666Y65864619D02*
X-147776000Y66340809D01*
X-148014095Y65864619D02*
X-148014095Y66864619D01*
X-147633142Y66864619D01*
X-147537904Y66817000D01*
X-147490285Y66769380D01*
X-147442666Y66674142D01*
X-147442666Y66531285D01*
X-147490285Y66436047D01*
X-147537904Y66388428D01*
X-147633142Y66340809D01*
X-148014095Y66340809D01*
X-146966476Y65864619D02*
X-146776000Y65864619D01*
X-146680761Y65912238D01*
X-146633142Y65959857D01*
X-146537904Y66102714D01*
X-146490285Y66293190D01*
X-146490285Y66674142D01*
X-146537904Y66769380D01*
X-146585523Y66817000D01*
X-146680761Y66864619D01*
X-146871238Y66864619D01*
X-146966476Y66817000D01*
X-147014095Y66769380D01*
X-147061714Y66674142D01*
X-147061714Y66436047D01*
X-147014095Y66340809D01*
X-146966476Y66293190D01*
X-146871238Y66245571D01*
X-146680761Y66245571D01*
X-146585523Y66293190D01*
X-146537904Y66340809D01*
X-146490285Y66436047D01*
G04 #@! TO.C,R10*
X-136981047Y98206619D02*
X-137552476Y98206619D01*
X-137266761Y98206619D02*
X-137266761Y99206619D01*
X-137362000Y99063761D01*
X-137457238Y98968523D01*
X-137552476Y98920904D01*
X-136552476Y98206619D02*
X-136552476Y99206619D01*
X-136457238Y98587571D02*
X-136171523Y98206619D01*
X-136171523Y98873285D02*
X-136552476Y98492333D01*
X-137504857Y95836619D02*
X-137838190Y96312809D01*
X-138076285Y95836619D02*
X-138076285Y96836619D01*
X-137695333Y96836619D01*
X-137600095Y96789000D01*
X-137552476Y96741380D01*
X-137504857Y96646142D01*
X-137504857Y96503285D01*
X-137552476Y96408047D01*
X-137600095Y96360428D01*
X-137695333Y96312809D01*
X-138076285Y96312809D01*
X-136552476Y95836619D02*
X-137123904Y95836619D01*
X-136838190Y95836619D02*
X-136838190Y96836619D01*
X-136933428Y96693761D01*
X-137028666Y96598523D01*
X-137123904Y96550904D01*
X-135933428Y96836619D02*
X-135838190Y96836619D01*
X-135742952Y96789000D01*
X-135695333Y96741380D01*
X-135647714Y96646142D01*
X-135600095Y96455666D01*
X-135600095Y96217571D01*
X-135647714Y96027095D01*
X-135695333Y95931857D01*
X-135742952Y95884238D01*
X-135838190Y95836619D01*
X-135933428Y95836619D01*
X-136028666Y95884238D01*
X-136076285Y95931857D01*
X-136123904Y96027095D01*
X-136171523Y96217571D01*
X-136171523Y96455666D01*
X-136123904Y96646142D01*
X-136076285Y96741380D01*
X-136028666Y96789000D01*
X-135933428Y96836619D01*
G04 #@! TO.C,R11*
X-136981047Y74330619D02*
X-137552476Y74330619D01*
X-137266761Y74330619D02*
X-137266761Y75330619D01*
X-137362000Y75187761D01*
X-137457238Y75092523D01*
X-137552476Y75044904D01*
X-136552476Y74330619D02*
X-136552476Y75330619D01*
X-136457238Y74711571D02*
X-136171523Y74330619D01*
X-136171523Y74997285D02*
X-136552476Y74616333D01*
X-137504857Y71960619D02*
X-137838190Y72436809D01*
X-138076285Y71960619D02*
X-138076285Y72960619D01*
X-137695333Y72960619D01*
X-137600095Y72913000D01*
X-137552476Y72865380D01*
X-137504857Y72770142D01*
X-137504857Y72627285D01*
X-137552476Y72532047D01*
X-137600095Y72484428D01*
X-137695333Y72436809D01*
X-138076285Y72436809D01*
X-136552476Y71960619D02*
X-137123904Y71960619D01*
X-136838190Y71960619D02*
X-136838190Y72960619D01*
X-136933428Y72817761D01*
X-137028666Y72722523D01*
X-137123904Y72674904D01*
X-135600095Y71960619D02*
X-136171523Y71960619D01*
X-135885809Y71960619D02*
X-135885809Y72960619D01*
X-135981047Y72817761D01*
X-136076285Y72722523D01*
X-136171523Y72674904D01*
G04 #@! TO.C,R12*
X-136981047Y68234619D02*
X-137552476Y68234619D01*
X-137266761Y68234619D02*
X-137266761Y69234619D01*
X-137362000Y69091761D01*
X-137457238Y68996523D01*
X-137552476Y68948904D01*
X-136552476Y68234619D02*
X-136552476Y69234619D01*
X-136457238Y68615571D02*
X-136171523Y68234619D01*
X-136171523Y68901285D02*
X-136552476Y68520333D01*
X-137504857Y65864619D02*
X-137838190Y66340809D01*
X-138076285Y65864619D02*
X-138076285Y66864619D01*
X-137695333Y66864619D01*
X-137600095Y66817000D01*
X-137552476Y66769380D01*
X-137504857Y66674142D01*
X-137504857Y66531285D01*
X-137552476Y66436047D01*
X-137600095Y66388428D01*
X-137695333Y66340809D01*
X-138076285Y66340809D01*
X-136552476Y65864619D02*
X-137123904Y65864619D01*
X-136838190Y65864619D02*
X-136838190Y66864619D01*
X-136933428Y66721761D01*
X-137028666Y66626523D01*
X-137123904Y66578904D01*
X-136171523Y66769380D02*
X-136123904Y66817000D01*
X-136028666Y66864619D01*
X-135790571Y66864619D01*
X-135695333Y66817000D01*
X-135647714Y66769380D01*
X-135600095Y66674142D01*
X-135600095Y66578904D01*
X-135647714Y66436047D01*
X-136219142Y65864619D01*
X-135600095Y65864619D01*
G04 #@! TO.C,R13*
X-141624476Y43936619D02*
X-142195904Y43936619D01*
X-141910190Y43936619D02*
X-141910190Y44936619D01*
X-142005428Y44793761D01*
X-142100666Y44698523D01*
X-142195904Y44650904D01*
X-141005428Y44936619D02*
X-140910190Y44936619D01*
X-140814952Y44889000D01*
X-140767333Y44841380D01*
X-140719714Y44746142D01*
X-140672095Y44555666D01*
X-140672095Y44317571D01*
X-140719714Y44127095D01*
X-140767333Y44031857D01*
X-140814952Y43984238D01*
X-140910190Y43936619D01*
X-141005428Y43936619D01*
X-141100666Y43984238D01*
X-141148285Y44031857D01*
X-141195904Y44127095D01*
X-141243523Y44317571D01*
X-141243523Y44555666D01*
X-141195904Y44746142D01*
X-141148285Y44841380D01*
X-141100666Y44889000D01*
X-141005428Y44936619D01*
X-142076857Y46306619D02*
X-142410190Y46782809D01*
X-142648285Y46306619D02*
X-142648285Y47306619D01*
X-142267333Y47306619D01*
X-142172095Y47259000D01*
X-142124476Y47211380D01*
X-142076857Y47116142D01*
X-142076857Y46973285D01*
X-142124476Y46878047D01*
X-142172095Y46830428D01*
X-142267333Y46782809D01*
X-142648285Y46782809D01*
X-141124476Y46306619D02*
X-141695904Y46306619D01*
X-141410190Y46306619D02*
X-141410190Y47306619D01*
X-141505428Y47163761D01*
X-141600666Y47068523D01*
X-141695904Y47020904D01*
X-140791142Y47306619D02*
X-140172095Y47306619D01*
X-140505428Y46925666D01*
X-140362571Y46925666D01*
X-140267333Y46878047D01*
X-140219714Y46830428D01*
X-140172095Y46735190D01*
X-140172095Y46497095D01*
X-140219714Y46401857D01*
X-140267333Y46354238D01*
X-140362571Y46306619D01*
X-140648285Y46306619D01*
X-140743523Y46354238D01*
X-140791142Y46401857D01*
G04 #@! TO.C,R14*
X-164484476Y48676619D02*
X-165055904Y48676619D01*
X-164770190Y48676619D02*
X-164770190Y49676619D01*
X-164865428Y49533761D01*
X-164960666Y49438523D01*
X-165055904Y49390904D01*
X-163865428Y49676619D02*
X-163770190Y49676619D01*
X-163674952Y49629000D01*
X-163627333Y49581380D01*
X-163579714Y49486142D01*
X-163532095Y49295666D01*
X-163532095Y49057571D01*
X-163579714Y48867095D01*
X-163627333Y48771857D01*
X-163674952Y48724238D01*
X-163770190Y48676619D01*
X-163865428Y48676619D01*
X-163960666Y48724238D01*
X-164008285Y48771857D01*
X-164055904Y48867095D01*
X-164103523Y49057571D01*
X-164103523Y49295666D01*
X-164055904Y49486142D01*
X-164008285Y49581380D01*
X-163960666Y49629000D01*
X-163865428Y49676619D01*
X-164936857Y46306619D02*
X-165270190Y46782809D01*
X-165508285Y46306619D02*
X-165508285Y47306619D01*
X-165127333Y47306619D01*
X-165032095Y47259000D01*
X-164984476Y47211380D01*
X-164936857Y47116142D01*
X-164936857Y46973285D01*
X-164984476Y46878047D01*
X-165032095Y46830428D01*
X-165127333Y46782809D01*
X-165508285Y46782809D01*
X-163984476Y46306619D02*
X-164555904Y46306619D01*
X-164270190Y46306619D02*
X-164270190Y47306619D01*
X-164365428Y47163761D01*
X-164460666Y47068523D01*
X-164555904Y47020904D01*
X-163127333Y46973285D02*
X-163127333Y46306619D01*
X-163365428Y47354238D02*
X-163603523Y46639952D01*
X-162984476Y46639952D01*
G04 #@! TD*
M02*
