G04 #@! TF.GenerationSoftware,KiCad,Pcbnew,(5.0.1)-4*
G04 #@! TF.CreationDate,2019-03-05T01:40:26-06:00*
G04 #@! TF.ProjectId,mult,6D756C742E6B696361645F7063620000,rev?*
G04 #@! TF.SameCoordinates,Original*
G04 #@! TF.FileFunction,Legend,Top*
G04 #@! TF.FilePolarity,Positive*
%FSLAX46Y46*%
G04 Gerber Fmt 4.6, Leading zero omitted, Abs format (unit mm)*
G04 Created by KiCad (PCBNEW (5.0.1)-4) date 3/5/2019 1:40:26*
%MOMM*%
%LPD*%
G01*
G04 APERTURE LIST*
%ADD10C,0.120000*%
%ADD11C,0.150000*%
G04 APERTURE END LIST*
D10*
G04 #@! TO.C,J1*
X-173874000Y133298000D02*
X-173874000Y122798000D01*
X-164874000Y133298000D02*
X-164874000Y122798000D01*
X-170670263Y131386577D02*
G75*
G03X-169374000Y125903000I1296263J-2588577D01*
G01*
X-168077737Y131386577D02*
G75*
G02X-169374000Y125903000I-1296263J-2588577D01*
G01*
X-164874000Y122798000D02*
X-168374000Y122798000D01*
X-170374000Y122798000D02*
X-173874000Y122798000D01*
X-164874000Y133298000D02*
X-168474000Y133298000D01*
X-170274000Y133298000D02*
X-173874000Y133298000D01*
X-167574000Y128798000D02*
G75*
G03X-167574000Y128798000I-1800000J0D01*
G01*
X-169794000Y134078000D02*
X-169794000Y133478000D01*
X-168954000Y134078000D02*
X-168954000Y133478000D01*
X-170774000Y136458000D02*
X-170774000Y135358000D01*
X-170774000Y136458000D02*
X-169454000Y136458000D01*
G04 #@! TO.C,J2*
X-162863100Y133310700D02*
X-162863100Y122810700D01*
X-153863100Y133310700D02*
X-153863100Y122810700D01*
X-159659363Y131399277D02*
G75*
G03X-158363100Y125915700I1296263J-2588577D01*
G01*
X-157066837Y131399277D02*
G75*
G02X-158363100Y125915700I-1296263J-2588577D01*
G01*
X-153863100Y122810700D02*
X-157363100Y122810700D01*
X-159363100Y122810700D02*
X-162863100Y122810700D01*
X-153863100Y133310700D02*
X-157463100Y133310700D01*
X-159263100Y133310700D02*
X-162863100Y133310700D01*
X-156563100Y128810700D02*
G75*
G03X-156563100Y128810700I-1800000J0D01*
G01*
X-158783100Y134090700D02*
X-158783100Y133490700D01*
X-157943100Y134090700D02*
X-157943100Y133490700D01*
X-159763100Y136470700D02*
X-159763100Y135370700D01*
X-159763100Y136470700D02*
X-158443100Y136470700D01*
G04 #@! TO.C,J3*
X-151877600Y133285300D02*
X-151877600Y122785300D01*
X-142877600Y133285300D02*
X-142877600Y122785300D01*
X-148673863Y131373877D02*
G75*
G03X-147377600Y125890300I1296263J-2588577D01*
G01*
X-146081337Y131373877D02*
G75*
G02X-147377600Y125890300I-1296263J-2588577D01*
G01*
X-142877600Y122785300D02*
X-146377600Y122785300D01*
X-148377600Y122785300D02*
X-151877600Y122785300D01*
X-142877600Y133285300D02*
X-146477600Y133285300D01*
X-148277600Y133285300D02*
X-151877600Y133285300D01*
X-145577600Y128785300D02*
G75*
G03X-145577600Y128785300I-1800000J0D01*
G01*
X-147797600Y134065300D02*
X-147797600Y133465300D01*
X-146957600Y134065300D02*
X-146957600Y133465300D01*
X-148777600Y136445300D02*
X-148777600Y135345300D01*
X-148777600Y136445300D02*
X-147457600Y136445300D01*
G04 #@! TO.C,J4*
X-137779400Y136458000D02*
X-136459400Y136458000D01*
X-137779400Y136458000D02*
X-137779400Y135358000D01*
X-135959400Y134078000D02*
X-135959400Y133478000D01*
X-136799400Y134078000D02*
X-136799400Y133478000D01*
X-134579400Y128798000D02*
G75*
G03X-134579400Y128798000I-1800000J0D01*
G01*
X-137279400Y133298000D02*
X-140879400Y133298000D01*
X-131879400Y133298000D02*
X-135479400Y133298000D01*
X-137379400Y122798000D02*
X-140879400Y122798000D01*
X-131879400Y122798000D02*
X-135379400Y122798000D01*
X-135083137Y131386577D02*
G75*
G02X-136379400Y125903000I-1296263J-2588577D01*
G01*
X-137675663Y131386577D02*
G75*
G03X-136379400Y125903000I1296263J-2588577D01*
G01*
X-131879400Y133298000D02*
X-131879400Y122798000D01*
X-140879400Y133298000D02*
X-140879400Y122798000D01*
G04 #@! TO.C,J5*
X-170774000Y112455000D02*
X-169454000Y112455000D01*
X-170774000Y112455000D02*
X-170774000Y111355000D01*
X-168954000Y110075000D02*
X-168954000Y109475000D01*
X-169794000Y110075000D02*
X-169794000Y109475000D01*
X-167574000Y104795000D02*
G75*
G03X-167574000Y104795000I-1800000J0D01*
G01*
X-170274000Y109295000D02*
X-173874000Y109295000D01*
X-164874000Y109295000D02*
X-168474000Y109295000D01*
X-170374000Y98795000D02*
X-173874000Y98795000D01*
X-164874000Y98795000D02*
X-168374000Y98795000D01*
X-168077737Y107383577D02*
G75*
G02X-169374000Y101900000I-1296263J-2588577D01*
G01*
X-170670263Y107383577D02*
G75*
G03X-169374000Y101900000I1296263J-2588577D01*
G01*
X-164874000Y109295000D02*
X-164874000Y98795000D01*
X-173874000Y109295000D02*
X-173874000Y98795000D01*
G04 #@! TO.C,J6*
X-170774000Y88452000D02*
X-169454000Y88452000D01*
X-170774000Y88452000D02*
X-170774000Y87352000D01*
X-168954000Y86072000D02*
X-168954000Y85472000D01*
X-169794000Y86072000D02*
X-169794000Y85472000D01*
X-167574000Y80792000D02*
G75*
G03X-167574000Y80792000I-1800000J0D01*
G01*
X-170274000Y85292000D02*
X-173874000Y85292000D01*
X-164874000Y85292000D02*
X-168474000Y85292000D01*
X-170374000Y74792000D02*
X-173874000Y74792000D01*
X-164874000Y74792000D02*
X-168374000Y74792000D01*
X-168077737Y83380577D02*
G75*
G02X-169374000Y77897000I-1296263J-2588577D01*
G01*
X-170670263Y83380577D02*
G75*
G03X-169374000Y77897000I1296263J-2588577D01*
G01*
X-164874000Y85292000D02*
X-164874000Y74792000D01*
X-173874000Y85292000D02*
X-173874000Y74792000D01*
G04 #@! TO.C,J7*
X-170774000Y64449000D02*
X-169454000Y64449000D01*
X-170774000Y64449000D02*
X-170774000Y63349000D01*
X-168954000Y62069000D02*
X-168954000Y61469000D01*
X-169794000Y62069000D02*
X-169794000Y61469000D01*
X-167574000Y56789000D02*
G75*
G03X-167574000Y56789000I-1800000J0D01*
G01*
X-170274000Y61289000D02*
X-173874000Y61289000D01*
X-164874000Y61289000D02*
X-168474000Y61289000D01*
X-170374000Y50789000D02*
X-173874000Y50789000D01*
X-164874000Y50789000D02*
X-168374000Y50789000D01*
X-168077737Y59377577D02*
G75*
G02X-169374000Y53894000I-1296263J-2588577D01*
G01*
X-170670263Y59377577D02*
G75*
G03X-169374000Y53894000I1296263J-2588577D01*
G01*
X-164874000Y61289000D02*
X-164874000Y50789000D01*
X-173874000Y61289000D02*
X-173874000Y50789000D01*
G04 #@! TO.C,J8*
X-162888500Y109295000D02*
X-162888500Y98795000D01*
X-153888500Y109295000D02*
X-153888500Y98795000D01*
X-159684763Y107383577D02*
G75*
G03X-158388500Y101900000I1296263J-2588577D01*
G01*
X-157092237Y107383577D02*
G75*
G02X-158388500Y101900000I-1296263J-2588577D01*
G01*
X-153888500Y98795000D02*
X-157388500Y98795000D01*
X-159388500Y98795000D02*
X-162888500Y98795000D01*
X-153888500Y109295000D02*
X-157488500Y109295000D01*
X-159288500Y109295000D02*
X-162888500Y109295000D01*
X-156588500Y104795000D02*
G75*
G03X-156588500Y104795000I-1800000J0D01*
G01*
X-158808500Y110075000D02*
X-158808500Y109475000D01*
X-157968500Y110075000D02*
X-157968500Y109475000D01*
X-159788500Y112455000D02*
X-159788500Y111355000D01*
X-159788500Y112455000D02*
X-158468500Y112455000D01*
G04 #@! TO.C,J9*
X-159788500Y88452000D02*
X-158468500Y88452000D01*
X-159788500Y88452000D02*
X-159788500Y87352000D01*
X-157968500Y86072000D02*
X-157968500Y85472000D01*
X-158808500Y86072000D02*
X-158808500Y85472000D01*
X-156588500Y80792000D02*
G75*
G03X-156588500Y80792000I-1800000J0D01*
G01*
X-159288500Y85292000D02*
X-162888500Y85292000D01*
X-153888500Y85292000D02*
X-157488500Y85292000D01*
X-159388500Y74792000D02*
X-162888500Y74792000D01*
X-153888500Y74792000D02*
X-157388500Y74792000D01*
X-157092237Y83380577D02*
G75*
G02X-158388500Y77897000I-1296263J-2588577D01*
G01*
X-159684763Y83380577D02*
G75*
G03X-158388500Y77897000I1296263J-2588577D01*
G01*
X-153888500Y85292000D02*
X-153888500Y74792000D01*
X-162888500Y85292000D02*
X-162888500Y74792000D01*
G04 #@! TO.C,J10*
X-162888500Y61289000D02*
X-162888500Y50789000D01*
X-153888500Y61289000D02*
X-153888500Y50789000D01*
X-159684763Y59377577D02*
G75*
G03X-158388500Y53894000I1296263J-2588577D01*
G01*
X-157092237Y59377577D02*
G75*
G02X-158388500Y53894000I-1296263J-2588577D01*
G01*
X-153888500Y50789000D02*
X-157388500Y50789000D01*
X-159388500Y50789000D02*
X-162888500Y50789000D01*
X-153888500Y61289000D02*
X-157488500Y61289000D01*
X-159288500Y61289000D02*
X-162888500Y61289000D01*
X-156588500Y56789000D02*
G75*
G03X-156588500Y56789000I-1800000J0D01*
G01*
X-158808500Y62069000D02*
X-158808500Y61469000D01*
X-157968500Y62069000D02*
X-157968500Y61469000D01*
X-159788500Y64449000D02*
X-159788500Y63349000D01*
X-159788500Y64449000D02*
X-158468500Y64449000D01*
G04 #@! TO.C,J11*
X-151877600Y109307700D02*
X-151877600Y98807700D01*
X-142877600Y109307700D02*
X-142877600Y98807700D01*
X-148673863Y107396277D02*
G75*
G03X-147377600Y101912700I1296263J-2588577D01*
G01*
X-146081337Y107396277D02*
G75*
G02X-147377600Y101912700I-1296263J-2588577D01*
G01*
X-142877600Y98807700D02*
X-146377600Y98807700D01*
X-148377600Y98807700D02*
X-151877600Y98807700D01*
X-142877600Y109307700D02*
X-146477600Y109307700D01*
X-148277600Y109307700D02*
X-151877600Y109307700D01*
X-145577600Y104807700D02*
G75*
G03X-145577600Y104807700I-1800000J0D01*
G01*
X-147797600Y110087700D02*
X-147797600Y109487700D01*
X-146957600Y110087700D02*
X-146957600Y109487700D01*
X-148777600Y112467700D02*
X-148777600Y111367700D01*
X-148777600Y112467700D02*
X-147457600Y112467700D01*
G04 #@! TO.C,J12*
X-148777600Y88464700D02*
X-147457600Y88464700D01*
X-148777600Y88464700D02*
X-148777600Y87364700D01*
X-146957600Y86084700D02*
X-146957600Y85484700D01*
X-147797600Y86084700D02*
X-147797600Y85484700D01*
X-145577600Y80804700D02*
G75*
G03X-145577600Y80804700I-1800000J0D01*
G01*
X-148277600Y85304700D02*
X-151877600Y85304700D01*
X-142877600Y85304700D02*
X-146477600Y85304700D01*
X-148377600Y74804700D02*
X-151877600Y74804700D01*
X-142877600Y74804700D02*
X-146377600Y74804700D01*
X-146081337Y83393277D02*
G75*
G02X-147377600Y77909700I-1296263J-2588577D01*
G01*
X-148673863Y83393277D02*
G75*
G03X-147377600Y77909700I1296263J-2588577D01*
G01*
X-142877600Y85304700D02*
X-142877600Y74804700D01*
X-151877600Y85304700D02*
X-151877600Y74804700D01*
G04 #@! TO.C,J13*
X-151877600Y61289000D02*
X-151877600Y50789000D01*
X-142877600Y61289000D02*
X-142877600Y50789000D01*
X-148673863Y59377577D02*
G75*
G03X-147377600Y53894000I1296263J-2588577D01*
G01*
X-146081337Y59377577D02*
G75*
G02X-147377600Y53894000I-1296263J-2588577D01*
G01*
X-142877600Y50789000D02*
X-146377600Y50789000D01*
X-148377600Y50789000D02*
X-151877600Y50789000D01*
X-142877600Y61289000D02*
X-146477600Y61289000D01*
X-148277600Y61289000D02*
X-151877600Y61289000D01*
X-145577600Y56789000D02*
G75*
G03X-145577600Y56789000I-1800000J0D01*
G01*
X-147797600Y62069000D02*
X-147797600Y61469000D01*
X-146957600Y62069000D02*
X-146957600Y61469000D01*
X-148777600Y64449000D02*
X-148777600Y63349000D01*
X-148777600Y64449000D02*
X-147457600Y64449000D01*
G04 #@! TO.C,J14*
X-137779400Y112467700D02*
X-136459400Y112467700D01*
X-137779400Y112467700D02*
X-137779400Y111367700D01*
X-135959400Y110087700D02*
X-135959400Y109487700D01*
X-136799400Y110087700D02*
X-136799400Y109487700D01*
X-134579400Y104807700D02*
G75*
G03X-134579400Y104807700I-1800000J0D01*
G01*
X-137279400Y109307700D02*
X-140879400Y109307700D01*
X-131879400Y109307700D02*
X-135479400Y109307700D01*
X-137379400Y98807700D02*
X-140879400Y98807700D01*
X-131879400Y98807700D02*
X-135379400Y98807700D01*
X-135083137Y107396277D02*
G75*
G02X-136379400Y101912700I-1296263J-2588577D01*
G01*
X-137675663Y107396277D02*
G75*
G03X-136379400Y101912700I1296263J-2588577D01*
G01*
X-131879400Y109307700D02*
X-131879400Y98807700D01*
X-140879400Y109307700D02*
X-140879400Y98807700D01*
G04 #@! TO.C,J15*
X-137779400Y88452000D02*
X-136459400Y88452000D01*
X-137779400Y88452000D02*
X-137779400Y87352000D01*
X-135959400Y86072000D02*
X-135959400Y85472000D01*
X-136799400Y86072000D02*
X-136799400Y85472000D01*
X-134579400Y80792000D02*
G75*
G03X-134579400Y80792000I-1800000J0D01*
G01*
X-137279400Y85292000D02*
X-140879400Y85292000D01*
X-131879400Y85292000D02*
X-135479400Y85292000D01*
X-137379400Y74792000D02*
X-140879400Y74792000D01*
X-131879400Y74792000D02*
X-135379400Y74792000D01*
X-135083137Y83380577D02*
G75*
G02X-136379400Y77897000I-1296263J-2588577D01*
G01*
X-137675663Y83380577D02*
G75*
G03X-136379400Y77897000I1296263J-2588577D01*
G01*
X-131879400Y85292000D02*
X-131879400Y74792000D01*
X-140879400Y85292000D02*
X-140879400Y74792000D01*
G04 #@! TO.C,J16*
X-140879400Y61301700D02*
X-140879400Y50801700D01*
X-131879400Y61301700D02*
X-131879400Y50801700D01*
X-137675663Y59390277D02*
G75*
G03X-136379400Y53906700I1296263J-2588577D01*
G01*
X-135083137Y59390277D02*
G75*
G02X-136379400Y53906700I-1296263J-2588577D01*
G01*
X-131879400Y50801700D02*
X-135379400Y50801700D01*
X-137379400Y50801700D02*
X-140879400Y50801700D01*
X-131879400Y61301700D02*
X-135479400Y61301700D01*
X-137279400Y61301700D02*
X-140879400Y61301700D01*
X-134579400Y56801700D02*
G75*
G03X-134579400Y56801700I-1800000J0D01*
G01*
X-136799400Y62081700D02*
X-136799400Y61481700D01*
X-135959400Y62081700D02*
X-135959400Y61481700D01*
X-137779400Y64461700D02*
X-137779400Y63361700D01*
X-137779400Y64461700D02*
X-136459400Y64461700D01*
G04 #@! TO.C,R1*
X-166104000Y94919000D02*
X-166104000Y95249000D01*
X-172644000Y94919000D02*
X-166104000Y94919000D01*
X-172644000Y95249000D02*
X-172644000Y94919000D01*
X-166104000Y97659000D02*
X-166104000Y97329000D01*
X-172644000Y97659000D02*
X-166104000Y97659000D01*
X-172644000Y97329000D02*
X-172644000Y97659000D01*
G04 #@! TO.C,R2*
X-172644000Y73453000D02*
X-172644000Y73783000D01*
X-172644000Y73783000D02*
X-166104000Y73783000D01*
X-166104000Y73783000D02*
X-166104000Y73453000D01*
X-172644000Y71373000D02*
X-172644000Y71043000D01*
X-172644000Y71043000D02*
X-166104000Y71043000D01*
X-166104000Y71043000D02*
X-166104000Y71373000D01*
G04 #@! TO.C,R3*
X-166104000Y64947000D02*
X-166104000Y65277000D01*
X-172644000Y64947000D02*
X-166104000Y64947000D01*
X-172644000Y65277000D02*
X-172644000Y64947000D01*
X-166104000Y67687000D02*
X-166104000Y67357000D01*
X-172644000Y67687000D02*
X-166104000Y67687000D01*
X-172644000Y67357000D02*
X-172644000Y67687000D01*
G04 #@! TO.C,R4*
X-155182000Y94919000D02*
X-155182000Y95249000D01*
X-161722000Y94919000D02*
X-155182000Y94919000D01*
X-161722000Y95249000D02*
X-161722000Y94919000D01*
X-155182000Y97659000D02*
X-155182000Y97329000D01*
X-161722000Y97659000D02*
X-155182000Y97659000D01*
X-161722000Y97329000D02*
X-161722000Y97659000D01*
G04 #@! TO.C,R5*
X-161722000Y73453000D02*
X-161722000Y73783000D01*
X-161722000Y73783000D02*
X-155182000Y73783000D01*
X-155182000Y73783000D02*
X-155182000Y73453000D01*
X-161722000Y71373000D02*
X-161722000Y71043000D01*
X-161722000Y71043000D02*
X-155182000Y71043000D01*
X-155182000Y71043000D02*
X-155182000Y71373000D01*
G04 #@! TO.C,R6*
X-155182000Y64947000D02*
X-155182000Y65277000D01*
X-161722000Y64947000D02*
X-155182000Y64947000D01*
X-161722000Y65277000D02*
X-161722000Y64947000D01*
X-155182000Y67687000D02*
X-155182000Y67357000D01*
X-161722000Y67687000D02*
X-155182000Y67687000D01*
X-161722000Y67357000D02*
X-161722000Y67687000D01*
G04 #@! TO.C,R7*
X-144006000Y95249000D02*
X-144006000Y94919000D01*
X-144006000Y94919000D02*
X-150546000Y94919000D01*
X-150546000Y94919000D02*
X-150546000Y95249000D01*
X-144006000Y97329000D02*
X-144006000Y97659000D01*
X-144006000Y97659000D02*
X-150546000Y97659000D01*
X-150546000Y97659000D02*
X-150546000Y97329000D01*
G04 #@! TO.C,R8*
X-150546000Y73783000D02*
X-150546000Y73453000D01*
X-144006000Y73783000D02*
X-150546000Y73783000D01*
X-144006000Y73453000D02*
X-144006000Y73783000D01*
X-150546000Y71043000D02*
X-150546000Y71373000D01*
X-144006000Y71043000D02*
X-150546000Y71043000D01*
X-144006000Y71373000D02*
X-144006000Y71043000D01*
G04 #@! TO.C,R9*
X-144006000Y65277000D02*
X-144006000Y64947000D01*
X-144006000Y64947000D02*
X-150546000Y64947000D01*
X-150546000Y64947000D02*
X-150546000Y65277000D01*
X-144006000Y67357000D02*
X-144006000Y67687000D01*
X-144006000Y67687000D02*
X-150546000Y67687000D01*
X-150546000Y67687000D02*
X-150546000Y67357000D01*
G04 #@! TO.C,R10*
X-140132000Y97659000D02*
X-140132000Y97329000D01*
X-133592000Y97659000D02*
X-140132000Y97659000D01*
X-133592000Y97329000D02*
X-133592000Y97659000D01*
X-140132000Y94919000D02*
X-140132000Y95249000D01*
X-133592000Y94919000D02*
X-140132000Y94919000D01*
X-133592000Y95249000D02*
X-133592000Y94919000D01*
G04 #@! TO.C,R11*
X-133592000Y71373000D02*
X-133592000Y71043000D01*
X-133592000Y71043000D02*
X-140132000Y71043000D01*
X-140132000Y71043000D02*
X-140132000Y71373000D01*
X-133592000Y73453000D02*
X-133592000Y73783000D01*
X-133592000Y73783000D02*
X-140132000Y73783000D01*
X-140132000Y73783000D02*
X-140132000Y73453000D01*
G04 #@! TO.C,R12*
X-133592000Y65277000D02*
X-133592000Y64947000D01*
X-133592000Y64947000D02*
X-140132000Y64947000D01*
X-140132000Y64947000D02*
X-140132000Y65277000D01*
X-133592000Y67357000D02*
X-133592000Y67687000D01*
X-133592000Y67687000D02*
X-140132000Y67687000D01*
X-140132000Y67687000D02*
X-140132000Y67357000D01*
G04 #@! TO.C,R13*
X-144704000Y47799000D02*
X-144704000Y48129000D01*
X-144704000Y48129000D02*
X-138164000Y48129000D01*
X-138164000Y48129000D02*
X-138164000Y47799000D01*
X-144704000Y45719000D02*
X-144704000Y45389000D01*
X-144704000Y45389000D02*
X-138164000Y45389000D01*
X-138164000Y45389000D02*
X-138164000Y45719000D01*
G04 #@! TO.C,R14*
X-167564000Y48129000D02*
X-167564000Y47799000D01*
X-161024000Y48129000D02*
X-167564000Y48129000D01*
X-161024000Y47799000D02*
X-161024000Y48129000D01*
X-167564000Y45389000D02*
X-167564000Y45719000D01*
X-161024000Y45389000D02*
X-167564000Y45389000D01*
X-161024000Y45719000D02*
X-161024000Y45389000D01*
G04 #@! TO.C,J1*
D11*
X-173737333Y134745619D02*
X-173737333Y134031333D01*
X-173784952Y133888476D01*
X-173880190Y133793238D01*
X-174023047Y133745619D01*
X-174118285Y133745619D01*
X-172737333Y133745619D02*
X-173308761Y133745619D01*
X-173023047Y133745619D02*
X-173023047Y134745619D01*
X-173118285Y134602761D01*
X-173213523Y134507523D01*
X-173308761Y134459904D01*
G04 #@! TO.C,J2*
X-162726433Y134758319D02*
X-162726433Y134044033D01*
X-162774052Y133901176D01*
X-162869290Y133805938D01*
X-163012147Y133758319D01*
X-163107385Y133758319D01*
X-162297861Y134663080D02*
X-162250242Y134710700D01*
X-162155004Y134758319D01*
X-161916909Y134758319D01*
X-161821671Y134710700D01*
X-161774052Y134663080D01*
X-161726433Y134567842D01*
X-161726433Y134472604D01*
X-161774052Y134329747D01*
X-162345480Y133758319D01*
X-161726433Y133758319D01*
G04 #@! TO.C,J3*
X-151740933Y134732919D02*
X-151740933Y134018633D01*
X-151788552Y133875776D01*
X-151883790Y133780538D01*
X-152026647Y133732919D01*
X-152121885Y133732919D01*
X-151359980Y134732919D02*
X-150740933Y134732919D01*
X-151074266Y134351966D01*
X-150931409Y134351966D01*
X-150836171Y134304347D01*
X-150788552Y134256728D01*
X-150740933Y134161490D01*
X-150740933Y133923395D01*
X-150788552Y133828157D01*
X-150836171Y133780538D01*
X-150931409Y133732919D01*
X-151217123Y133732919D01*
X-151312361Y133780538D01*
X-151359980Y133828157D01*
G04 #@! TO.C,J4*
X-140742733Y134745619D02*
X-140742733Y134031333D01*
X-140790352Y133888476D01*
X-140885590Y133793238D01*
X-141028447Y133745619D01*
X-141123685Y133745619D01*
X-139837971Y134412285D02*
X-139837971Y133745619D01*
X-140076066Y134793238D02*
X-140314161Y134078952D01*
X-139695114Y134078952D01*
G04 #@! TO.C,J5*
X-173737333Y110742619D02*
X-173737333Y110028333D01*
X-173784952Y109885476D01*
X-173880190Y109790238D01*
X-174023047Y109742619D01*
X-174118285Y109742619D01*
X-172784952Y110742619D02*
X-173261142Y110742619D01*
X-173308761Y110266428D01*
X-173261142Y110314047D01*
X-173165904Y110361666D01*
X-172927809Y110361666D01*
X-172832571Y110314047D01*
X-172784952Y110266428D01*
X-172737333Y110171190D01*
X-172737333Y109933095D01*
X-172784952Y109837857D01*
X-172832571Y109790238D01*
X-172927809Y109742619D01*
X-173165904Y109742619D01*
X-173261142Y109790238D01*
X-173308761Y109837857D01*
G04 #@! TO.C,J6*
X-173737333Y86739619D02*
X-173737333Y86025333D01*
X-173784952Y85882476D01*
X-173880190Y85787238D01*
X-174023047Y85739619D01*
X-174118285Y85739619D01*
X-172832571Y86739619D02*
X-173023047Y86739619D01*
X-173118285Y86692000D01*
X-173165904Y86644380D01*
X-173261142Y86501523D01*
X-173308761Y86311047D01*
X-173308761Y85930095D01*
X-173261142Y85834857D01*
X-173213523Y85787238D01*
X-173118285Y85739619D01*
X-172927809Y85739619D01*
X-172832571Y85787238D01*
X-172784952Y85834857D01*
X-172737333Y85930095D01*
X-172737333Y86168190D01*
X-172784952Y86263428D01*
X-172832571Y86311047D01*
X-172927809Y86358666D01*
X-173118285Y86358666D01*
X-173213523Y86311047D01*
X-173261142Y86263428D01*
X-173308761Y86168190D01*
G04 #@! TO.C,J7*
X-173737333Y62736619D02*
X-173737333Y62022333D01*
X-173784952Y61879476D01*
X-173880190Y61784238D01*
X-174023047Y61736619D01*
X-174118285Y61736619D01*
X-173356380Y62736619D02*
X-172689714Y62736619D01*
X-173118285Y61736619D01*
G04 #@! TO.C,J8*
X-162751833Y110742619D02*
X-162751833Y110028333D01*
X-162799452Y109885476D01*
X-162894690Y109790238D01*
X-163037547Y109742619D01*
X-163132785Y109742619D01*
X-162132785Y110314047D02*
X-162228023Y110361666D01*
X-162275642Y110409285D01*
X-162323261Y110504523D01*
X-162323261Y110552142D01*
X-162275642Y110647380D01*
X-162228023Y110695000D01*
X-162132785Y110742619D01*
X-161942309Y110742619D01*
X-161847071Y110695000D01*
X-161799452Y110647380D01*
X-161751833Y110552142D01*
X-161751833Y110504523D01*
X-161799452Y110409285D01*
X-161847071Y110361666D01*
X-161942309Y110314047D01*
X-162132785Y110314047D01*
X-162228023Y110266428D01*
X-162275642Y110218809D01*
X-162323261Y110123571D01*
X-162323261Y109933095D01*
X-162275642Y109837857D01*
X-162228023Y109790238D01*
X-162132785Y109742619D01*
X-161942309Y109742619D01*
X-161847071Y109790238D01*
X-161799452Y109837857D01*
X-161751833Y109933095D01*
X-161751833Y110123571D01*
X-161799452Y110218809D01*
X-161847071Y110266428D01*
X-161942309Y110314047D01*
G04 #@! TO.C,J9*
X-162751833Y86739619D02*
X-162751833Y86025333D01*
X-162799452Y85882476D01*
X-162894690Y85787238D01*
X-163037547Y85739619D01*
X-163132785Y85739619D01*
X-162228023Y85739619D02*
X-162037547Y85739619D01*
X-161942309Y85787238D01*
X-161894690Y85834857D01*
X-161799452Y85977714D01*
X-161751833Y86168190D01*
X-161751833Y86549142D01*
X-161799452Y86644380D01*
X-161847071Y86692000D01*
X-161942309Y86739619D01*
X-162132785Y86739619D01*
X-162228023Y86692000D01*
X-162275642Y86644380D01*
X-162323261Y86549142D01*
X-162323261Y86311047D01*
X-162275642Y86215809D01*
X-162228023Y86168190D01*
X-162132785Y86120571D01*
X-161942309Y86120571D01*
X-161847071Y86168190D01*
X-161799452Y86215809D01*
X-161751833Y86311047D01*
G04 #@! TO.C,J10*
X-163228023Y62736619D02*
X-163228023Y62022333D01*
X-163275642Y61879476D01*
X-163370880Y61784238D01*
X-163513738Y61736619D01*
X-163608976Y61736619D01*
X-162228023Y61736619D02*
X-162799452Y61736619D01*
X-162513738Y61736619D02*
X-162513738Y62736619D01*
X-162608976Y62593761D01*
X-162704214Y62498523D01*
X-162799452Y62450904D01*
X-161608976Y62736619D02*
X-161513738Y62736619D01*
X-161418500Y62689000D01*
X-161370880Y62641380D01*
X-161323261Y62546142D01*
X-161275642Y62355666D01*
X-161275642Y62117571D01*
X-161323261Y61927095D01*
X-161370880Y61831857D01*
X-161418500Y61784238D01*
X-161513738Y61736619D01*
X-161608976Y61736619D01*
X-161704214Y61784238D01*
X-161751833Y61831857D01*
X-161799452Y61927095D01*
X-161847071Y62117571D01*
X-161847071Y62355666D01*
X-161799452Y62546142D01*
X-161751833Y62641380D01*
X-161704214Y62689000D01*
X-161608976Y62736619D01*
G04 #@! TO.C,J11*
X-152217123Y110755319D02*
X-152217123Y110041033D01*
X-152264742Y109898176D01*
X-152359980Y109802938D01*
X-152502838Y109755319D01*
X-152598076Y109755319D01*
X-151217123Y109755319D02*
X-151788552Y109755319D01*
X-151502838Y109755319D02*
X-151502838Y110755319D01*
X-151598076Y110612461D01*
X-151693314Y110517223D01*
X-151788552Y110469604D01*
X-150264742Y109755319D02*
X-150836171Y109755319D01*
X-150550457Y109755319D02*
X-150550457Y110755319D01*
X-150645695Y110612461D01*
X-150740933Y110517223D01*
X-150836171Y110469604D01*
G04 #@! TO.C,J12*
X-152217123Y86752319D02*
X-152217123Y86038033D01*
X-152264742Y85895176D01*
X-152359980Y85799938D01*
X-152502838Y85752319D01*
X-152598076Y85752319D01*
X-151217123Y85752319D02*
X-151788552Y85752319D01*
X-151502838Y85752319D02*
X-151502838Y86752319D01*
X-151598076Y86609461D01*
X-151693314Y86514223D01*
X-151788552Y86466604D01*
X-150836171Y86657080D02*
X-150788552Y86704700D01*
X-150693314Y86752319D01*
X-150455219Y86752319D01*
X-150359980Y86704700D01*
X-150312361Y86657080D01*
X-150264742Y86561842D01*
X-150264742Y86466604D01*
X-150312361Y86323747D01*
X-150883790Y85752319D01*
X-150264742Y85752319D01*
G04 #@! TO.C,J13*
X-152217123Y62736619D02*
X-152217123Y62022333D01*
X-152264742Y61879476D01*
X-152359980Y61784238D01*
X-152502838Y61736619D01*
X-152598076Y61736619D01*
X-151217123Y61736619D02*
X-151788552Y61736619D01*
X-151502838Y61736619D02*
X-151502838Y62736619D01*
X-151598076Y62593761D01*
X-151693314Y62498523D01*
X-151788552Y62450904D01*
X-150883790Y62736619D02*
X-150264742Y62736619D01*
X-150598076Y62355666D01*
X-150455219Y62355666D01*
X-150359980Y62308047D01*
X-150312361Y62260428D01*
X-150264742Y62165190D01*
X-150264742Y61927095D01*
X-150312361Y61831857D01*
X-150359980Y61784238D01*
X-150455219Y61736619D01*
X-150740933Y61736619D01*
X-150836171Y61784238D01*
X-150883790Y61831857D01*
G04 #@! TO.C,J14*
X-141218923Y110755319D02*
X-141218923Y110041033D01*
X-141266542Y109898176D01*
X-141361780Y109802938D01*
X-141504638Y109755319D01*
X-141599876Y109755319D01*
X-140218923Y109755319D02*
X-140790352Y109755319D01*
X-140504638Y109755319D02*
X-140504638Y110755319D01*
X-140599876Y110612461D01*
X-140695114Y110517223D01*
X-140790352Y110469604D01*
X-139361780Y110421985D02*
X-139361780Y109755319D01*
X-139599876Y110802938D02*
X-139837971Y110088652D01*
X-139218923Y110088652D01*
G04 #@! TO.C,J15*
X-141218923Y86739619D02*
X-141218923Y86025333D01*
X-141266542Y85882476D01*
X-141361780Y85787238D01*
X-141504638Y85739619D01*
X-141599876Y85739619D01*
X-140218923Y85739619D02*
X-140790352Y85739619D01*
X-140504638Y85739619D02*
X-140504638Y86739619D01*
X-140599876Y86596761D01*
X-140695114Y86501523D01*
X-140790352Y86453904D01*
X-139314161Y86739619D02*
X-139790352Y86739619D01*
X-139837971Y86263428D01*
X-139790352Y86311047D01*
X-139695114Y86358666D01*
X-139457019Y86358666D01*
X-139361780Y86311047D01*
X-139314161Y86263428D01*
X-139266542Y86168190D01*
X-139266542Y85930095D01*
X-139314161Y85834857D01*
X-139361780Y85787238D01*
X-139457019Y85739619D01*
X-139695114Y85739619D01*
X-139790352Y85787238D01*
X-139837971Y85834857D01*
G04 #@! TO.C,J16*
X-141218923Y62749319D02*
X-141218923Y62035033D01*
X-141266542Y61892176D01*
X-141361780Y61796938D01*
X-141504638Y61749319D01*
X-141599876Y61749319D01*
X-140218923Y61749319D02*
X-140790352Y61749319D01*
X-140504638Y61749319D02*
X-140504638Y62749319D01*
X-140599876Y62606461D01*
X-140695114Y62511223D01*
X-140790352Y62463604D01*
X-139361780Y62749319D02*
X-139552257Y62749319D01*
X-139647495Y62701700D01*
X-139695114Y62654080D01*
X-139790352Y62511223D01*
X-139837971Y62320747D01*
X-139837971Y61939795D01*
X-139790352Y61844557D01*
X-139742733Y61796938D01*
X-139647495Y61749319D01*
X-139457019Y61749319D01*
X-139361780Y61796938D01*
X-139314161Y61844557D01*
X-139266542Y61939795D01*
X-139266542Y62177890D01*
X-139314161Y62273128D01*
X-139361780Y62320747D01*
X-139457019Y62368366D01*
X-139647495Y62368366D01*
X-139742733Y62320747D01*
X-139790352Y62273128D01*
X-139837971Y62177890D01*
G04 #@! TO.C,R1*
X-169540666Y93550619D02*
X-169874000Y94026809D01*
X-170112095Y93550619D02*
X-170112095Y94550619D01*
X-169731142Y94550619D01*
X-169635904Y94503000D01*
X-169588285Y94455380D01*
X-169540666Y94360142D01*
X-169540666Y94217285D01*
X-169588285Y94122047D01*
X-169635904Y94074428D01*
X-169731142Y94026809D01*
X-170112095Y94026809D01*
X-168588285Y93550619D02*
X-169159714Y93550619D01*
X-168874000Y93550619D02*
X-168874000Y94550619D01*
X-168969238Y94407761D01*
X-169064476Y94312523D01*
X-169159714Y94264904D01*
G04 #@! TO.C,R2*
X-169540666Y69674619D02*
X-169874000Y70150809D01*
X-170112095Y69674619D02*
X-170112095Y70674619D01*
X-169731142Y70674619D01*
X-169635904Y70627000D01*
X-169588285Y70579380D01*
X-169540666Y70484142D01*
X-169540666Y70341285D01*
X-169588285Y70246047D01*
X-169635904Y70198428D01*
X-169731142Y70150809D01*
X-170112095Y70150809D01*
X-169159714Y70579380D02*
X-169112095Y70627000D01*
X-169016857Y70674619D01*
X-168778761Y70674619D01*
X-168683523Y70627000D01*
X-168635904Y70579380D01*
X-168588285Y70484142D01*
X-168588285Y70388904D01*
X-168635904Y70246047D01*
X-169207333Y69674619D01*
X-168588285Y69674619D01*
G04 #@! TO.C,R3*
X-169540666Y68234619D02*
X-169874000Y68710809D01*
X-170112095Y68234619D02*
X-170112095Y69234619D01*
X-169731142Y69234619D01*
X-169635904Y69187000D01*
X-169588285Y69139380D01*
X-169540666Y69044142D01*
X-169540666Y68901285D01*
X-169588285Y68806047D01*
X-169635904Y68758428D01*
X-169731142Y68710809D01*
X-170112095Y68710809D01*
X-169207333Y69234619D02*
X-168588285Y69234619D01*
X-168921619Y68853666D01*
X-168778761Y68853666D01*
X-168683523Y68806047D01*
X-168635904Y68758428D01*
X-168588285Y68663190D01*
X-168588285Y68425095D01*
X-168635904Y68329857D01*
X-168683523Y68282238D01*
X-168778761Y68234619D01*
X-169064476Y68234619D01*
X-169159714Y68282238D01*
X-169207333Y68329857D01*
G04 #@! TO.C,R4*
X-158618666Y93550619D02*
X-158952000Y94026809D01*
X-159190095Y93550619D02*
X-159190095Y94550619D01*
X-158809142Y94550619D01*
X-158713904Y94503000D01*
X-158666285Y94455380D01*
X-158618666Y94360142D01*
X-158618666Y94217285D01*
X-158666285Y94122047D01*
X-158713904Y94074428D01*
X-158809142Y94026809D01*
X-159190095Y94026809D01*
X-157761523Y94217285D02*
X-157761523Y93550619D01*
X-157999619Y94598238D02*
X-158237714Y93883952D01*
X-157618666Y93883952D01*
G04 #@! TO.C,R5*
X-158618666Y69674619D02*
X-158952000Y70150809D01*
X-159190095Y69674619D02*
X-159190095Y70674619D01*
X-158809142Y70674619D01*
X-158713904Y70627000D01*
X-158666285Y70579380D01*
X-158618666Y70484142D01*
X-158618666Y70341285D01*
X-158666285Y70246047D01*
X-158713904Y70198428D01*
X-158809142Y70150809D01*
X-159190095Y70150809D01*
X-157713904Y70674619D02*
X-158190095Y70674619D01*
X-158237714Y70198428D01*
X-158190095Y70246047D01*
X-158094857Y70293666D01*
X-157856761Y70293666D01*
X-157761523Y70246047D01*
X-157713904Y70198428D01*
X-157666285Y70103190D01*
X-157666285Y69865095D01*
X-157713904Y69769857D01*
X-157761523Y69722238D01*
X-157856761Y69674619D01*
X-158094857Y69674619D01*
X-158190095Y69722238D01*
X-158237714Y69769857D01*
G04 #@! TO.C,R6*
X-158618666Y68234619D02*
X-158952000Y68710809D01*
X-159190095Y68234619D02*
X-159190095Y69234619D01*
X-158809142Y69234619D01*
X-158713904Y69187000D01*
X-158666285Y69139380D01*
X-158618666Y69044142D01*
X-158618666Y68901285D01*
X-158666285Y68806047D01*
X-158713904Y68758428D01*
X-158809142Y68710809D01*
X-159190095Y68710809D01*
X-157761523Y69234619D02*
X-157952000Y69234619D01*
X-158047238Y69187000D01*
X-158094857Y69139380D01*
X-158190095Y68996523D01*
X-158237714Y68806047D01*
X-158237714Y68425095D01*
X-158190095Y68329857D01*
X-158142476Y68282238D01*
X-158047238Y68234619D01*
X-157856761Y68234619D01*
X-157761523Y68282238D01*
X-157713904Y68329857D01*
X-157666285Y68425095D01*
X-157666285Y68663190D01*
X-157713904Y68758428D01*
X-157761523Y68806047D01*
X-157856761Y68853666D01*
X-158047238Y68853666D01*
X-158142476Y68806047D01*
X-158190095Y68758428D01*
X-158237714Y68663190D01*
G04 #@! TO.C,R7*
X-147442666Y93466619D02*
X-147776000Y93942809D01*
X-148014095Y93466619D02*
X-148014095Y94466619D01*
X-147633142Y94466619D01*
X-147537904Y94419000D01*
X-147490285Y94371380D01*
X-147442666Y94276142D01*
X-147442666Y94133285D01*
X-147490285Y94038047D01*
X-147537904Y93990428D01*
X-147633142Y93942809D01*
X-148014095Y93942809D01*
X-147109333Y94466619D02*
X-146442666Y94466619D01*
X-146871238Y93466619D01*
G04 #@! TO.C,R8*
X-147442666Y69590619D02*
X-147776000Y70066809D01*
X-148014095Y69590619D02*
X-148014095Y70590619D01*
X-147633142Y70590619D01*
X-147537904Y70543000D01*
X-147490285Y70495380D01*
X-147442666Y70400142D01*
X-147442666Y70257285D01*
X-147490285Y70162047D01*
X-147537904Y70114428D01*
X-147633142Y70066809D01*
X-148014095Y70066809D01*
X-146871238Y70162047D02*
X-146966476Y70209666D01*
X-147014095Y70257285D01*
X-147061714Y70352523D01*
X-147061714Y70400142D01*
X-147014095Y70495380D01*
X-146966476Y70543000D01*
X-146871238Y70590619D01*
X-146680761Y70590619D01*
X-146585523Y70543000D01*
X-146537904Y70495380D01*
X-146490285Y70400142D01*
X-146490285Y70352523D01*
X-146537904Y70257285D01*
X-146585523Y70209666D01*
X-146680761Y70162047D01*
X-146871238Y70162047D01*
X-146966476Y70114428D01*
X-147014095Y70066809D01*
X-147061714Y69971571D01*
X-147061714Y69781095D01*
X-147014095Y69685857D01*
X-146966476Y69638238D01*
X-146871238Y69590619D01*
X-146680761Y69590619D01*
X-146585523Y69638238D01*
X-146537904Y69685857D01*
X-146490285Y69781095D01*
X-146490285Y69971571D01*
X-146537904Y70066809D01*
X-146585523Y70114428D01*
X-146680761Y70162047D01*
G04 #@! TO.C,R9*
X-147442666Y68150619D02*
X-147776000Y68626809D01*
X-148014095Y68150619D02*
X-148014095Y69150619D01*
X-147633142Y69150619D01*
X-147537904Y69103000D01*
X-147490285Y69055380D01*
X-147442666Y68960142D01*
X-147442666Y68817285D01*
X-147490285Y68722047D01*
X-147537904Y68674428D01*
X-147633142Y68626809D01*
X-148014095Y68626809D01*
X-146966476Y68150619D02*
X-146776000Y68150619D01*
X-146680761Y68198238D01*
X-146633142Y68245857D01*
X-146537904Y68388714D01*
X-146490285Y68579190D01*
X-146490285Y68960142D01*
X-146537904Y69055380D01*
X-146585523Y69103000D01*
X-146680761Y69150619D01*
X-146871238Y69150619D01*
X-146966476Y69103000D01*
X-147014095Y69055380D01*
X-147061714Y68960142D01*
X-147061714Y68722047D01*
X-147014095Y68626809D01*
X-146966476Y68579190D01*
X-146871238Y68531571D01*
X-146680761Y68531571D01*
X-146585523Y68579190D01*
X-146537904Y68626809D01*
X-146490285Y68722047D01*
G04 #@! TO.C,R10*
X-137504857Y93466619D02*
X-137838190Y93942809D01*
X-138076285Y93466619D02*
X-138076285Y94466619D01*
X-137695333Y94466619D01*
X-137600095Y94419000D01*
X-137552476Y94371380D01*
X-137504857Y94276142D01*
X-137504857Y94133285D01*
X-137552476Y94038047D01*
X-137600095Y93990428D01*
X-137695333Y93942809D01*
X-138076285Y93942809D01*
X-136552476Y93466619D02*
X-137123904Y93466619D01*
X-136838190Y93466619D02*
X-136838190Y94466619D01*
X-136933428Y94323761D01*
X-137028666Y94228523D01*
X-137123904Y94180904D01*
X-135933428Y94466619D02*
X-135838190Y94466619D01*
X-135742952Y94419000D01*
X-135695333Y94371380D01*
X-135647714Y94276142D01*
X-135600095Y94085666D01*
X-135600095Y93847571D01*
X-135647714Y93657095D01*
X-135695333Y93561857D01*
X-135742952Y93514238D01*
X-135838190Y93466619D01*
X-135933428Y93466619D01*
X-136028666Y93514238D01*
X-136076285Y93561857D01*
X-136123904Y93657095D01*
X-136171523Y93847571D01*
X-136171523Y94085666D01*
X-136123904Y94276142D01*
X-136076285Y94371380D01*
X-136028666Y94419000D01*
X-135933428Y94466619D01*
G04 #@! TO.C,R11*
X-137504857Y69590619D02*
X-137838190Y70066809D01*
X-138076285Y69590619D02*
X-138076285Y70590619D01*
X-137695333Y70590619D01*
X-137600095Y70543000D01*
X-137552476Y70495380D01*
X-137504857Y70400142D01*
X-137504857Y70257285D01*
X-137552476Y70162047D01*
X-137600095Y70114428D01*
X-137695333Y70066809D01*
X-138076285Y70066809D01*
X-136552476Y69590619D02*
X-137123904Y69590619D01*
X-136838190Y69590619D02*
X-136838190Y70590619D01*
X-136933428Y70447761D01*
X-137028666Y70352523D01*
X-137123904Y70304904D01*
X-135600095Y69590619D02*
X-136171523Y69590619D01*
X-135885809Y69590619D02*
X-135885809Y70590619D01*
X-135981047Y70447761D01*
X-136076285Y70352523D01*
X-136171523Y70304904D01*
G04 #@! TO.C,R12*
X-137504857Y67896619D02*
X-137838190Y68372809D01*
X-138076285Y67896619D02*
X-138076285Y68896619D01*
X-137695333Y68896619D01*
X-137600095Y68849000D01*
X-137552476Y68801380D01*
X-137504857Y68706142D01*
X-137504857Y68563285D01*
X-137552476Y68468047D01*
X-137600095Y68420428D01*
X-137695333Y68372809D01*
X-138076285Y68372809D01*
X-136552476Y67896619D02*
X-137123904Y67896619D01*
X-136838190Y67896619D02*
X-136838190Y68896619D01*
X-136933428Y68753761D01*
X-137028666Y68658523D01*
X-137123904Y68610904D01*
X-136171523Y68801380D02*
X-136123904Y68849000D01*
X-136028666Y68896619D01*
X-135790571Y68896619D01*
X-135695333Y68849000D01*
X-135647714Y68801380D01*
X-135600095Y68706142D01*
X-135600095Y68610904D01*
X-135647714Y68468047D01*
X-136219142Y67896619D01*
X-135600095Y67896619D01*
G04 #@! TO.C,R13*
X-142076857Y48676619D02*
X-142410190Y49152809D01*
X-142648285Y48676619D02*
X-142648285Y49676619D01*
X-142267333Y49676619D01*
X-142172095Y49629000D01*
X-142124476Y49581380D01*
X-142076857Y49486142D01*
X-142076857Y49343285D01*
X-142124476Y49248047D01*
X-142172095Y49200428D01*
X-142267333Y49152809D01*
X-142648285Y49152809D01*
X-141124476Y48676619D02*
X-141695904Y48676619D01*
X-141410190Y48676619D02*
X-141410190Y49676619D01*
X-141505428Y49533761D01*
X-141600666Y49438523D01*
X-141695904Y49390904D01*
X-140791142Y49676619D02*
X-140172095Y49676619D01*
X-140505428Y49295666D01*
X-140362571Y49295666D01*
X-140267333Y49248047D01*
X-140219714Y49200428D01*
X-140172095Y49105190D01*
X-140172095Y48867095D01*
X-140219714Y48771857D01*
X-140267333Y48724238D01*
X-140362571Y48676619D01*
X-140648285Y48676619D01*
X-140743523Y48724238D01*
X-140791142Y48771857D01*
G04 #@! TO.C,R14*
X-165444857Y48592619D02*
X-165778190Y49068809D01*
X-166016285Y48592619D02*
X-166016285Y49592619D01*
X-165635333Y49592619D01*
X-165540095Y49545000D01*
X-165492476Y49497380D01*
X-165444857Y49402142D01*
X-165444857Y49259285D01*
X-165492476Y49164047D01*
X-165540095Y49116428D01*
X-165635333Y49068809D01*
X-166016285Y49068809D01*
X-164492476Y48592619D02*
X-165063904Y48592619D01*
X-164778190Y48592619D02*
X-164778190Y49592619D01*
X-164873428Y49449761D01*
X-164968666Y49354523D01*
X-165063904Y49306904D01*
X-163635333Y49259285D02*
X-163635333Y48592619D01*
X-163873428Y49640238D02*
X-164111523Y48925952D01*
X-163492476Y48925952D01*
G04 #@! TD*
M02*
