G04 #@! TF.GenerationSoftware,KiCad,Pcbnew,(5.0.1)-4*
G04 #@! TF.CreationDate,2019-03-05T01:40:26-06:00*
G04 #@! TF.ProjectId,mult,6D756C742E6B696361645F7063620000,rev?*
G04 #@! TF.SameCoordinates,Original*
G04 #@! TF.FileFunction,Copper,L1,Top,Signal*
G04 #@! TF.FilePolarity,Positive*
%FSLAX46Y46*%
G04 Gerber Fmt 4.6, Leading zero omitted, Abs format (unit mm)*
G04 Created by KiCad (PCBNEW (5.0.1)-4) date 3/5/2019 1:40:26*
%MOMM*%
%LPD*%
G01*
G04 APERTURE LIST*
G04 #@! TA.AperFunction,ComponentPad*
%ADD10O,2.400000X1.500000*%
G04 #@! TD*
G04 #@! TA.AperFunction,ComponentPad*
%ADD11R,2.200000X1.500000*%
G04 #@! TD*
G04 #@! TA.AperFunction,ComponentPad*
%ADD12O,2.500000X1.400000*%
G04 #@! TD*
G04 #@! TA.AperFunction,ComponentPad*
%ADD13C,1.600000*%
G04 #@! TD*
G04 #@! TA.AperFunction,ComponentPad*
%ADD14R,1.600000X1.600000*%
G04 #@! TD*
G04 #@! TA.AperFunction,ComponentPad*
%ADD15O,1.600000X1.600000*%
G04 #@! TD*
G04 #@! TA.AperFunction,ComponentPad*
%ADD16R,1.727200X1.727200*%
G04 #@! TD*
G04 #@! TA.AperFunction,ComponentPad*
%ADD17O,1.727200X1.727200*%
G04 #@! TD*
G04 #@! TA.AperFunction,Conductor*
%ADD18C,0.350000*%
G04 #@! TD*
G04 #@! TA.AperFunction,Conductor*
%ADD19C,0.500000*%
G04 #@! TD*
G04 #@! TA.AperFunction,Conductor*
%ADD20C,0.254000*%
G04 #@! TD*
G04 APERTURE END LIST*
D10*
G04 #@! TO.P,J1,TN*
G04 #@! TO.N,Net-(J1-PadTN)*
X-169374000Y132178000D03*
D11*
G04 #@! TO.P,J1,S*
G04 #@! TO.N,GND*
X-169374000Y135278000D03*
D12*
G04 #@! TO.P,J1,T*
G04 #@! TO.N,Net-(J1-PadT)*
X-169374000Y123878000D03*
G04 #@! TD*
D13*
G04 #@! TO.P,C1,1*
G04 #@! TO.N,+12V*
X-152864000Y123467000D03*
G04 #@! TO.P,C1,2*
G04 #@! TO.N,GND*
X-152864000Y125967000D03*
G04 #@! TD*
G04 #@! TO.P,C2,2*
G04 #@! TO.N,-12V*
X-152864000Y111235000D03*
G04 #@! TO.P,C2,1*
G04 #@! TO.N,GND*
X-152864000Y108735000D03*
G04 #@! TD*
D14*
G04 #@! TO.P,C3,1*
G04 #@! TO.N,+12V*
X-171914000Y47775000D03*
D13*
G04 #@! TO.P,C3,2*
G04 #@! TO.N,GND*
X-171914000Y45275000D03*
G04 #@! TD*
G04 #@! TO.P,C4,2*
G04 #@! TO.N,-12V*
X-133814000Y45529000D03*
D14*
G04 #@! TO.P,C4,1*
G04 #@! TO.N,GND*
X-133814000Y48029000D03*
G04 #@! TD*
D10*
G04 #@! TO.P,J2,TN*
G04 #@! TO.N,Net-(J1-PadT)*
X-158363100Y132190700D03*
D11*
G04 #@! TO.P,J2,S*
G04 #@! TO.N,GND*
X-158363100Y135290700D03*
D12*
G04 #@! TO.P,J2,T*
G04 #@! TO.N,Net-(J2-PadT)*
X-158363100Y123890700D03*
G04 #@! TD*
D10*
G04 #@! TO.P,J3,TN*
G04 #@! TO.N,Net-(J2-PadT)*
X-147377600Y132165300D03*
D11*
G04 #@! TO.P,J3,S*
G04 #@! TO.N,GND*
X-147377600Y135265300D03*
D12*
G04 #@! TO.P,J3,T*
G04 #@! TO.N,Net-(J3-PadT)*
X-147377600Y123865300D03*
G04 #@! TD*
G04 #@! TO.P,J4,T*
G04 #@! TO.N,Net-(J4-PadT)*
X-136379400Y123878000D03*
D11*
G04 #@! TO.P,J4,S*
G04 #@! TO.N,GND*
X-136379400Y135278000D03*
D10*
G04 #@! TO.P,J4,TN*
G04 #@! TO.N,Net-(J3-PadT)*
X-136379400Y132178000D03*
G04 #@! TD*
D12*
G04 #@! TO.P,J5,T*
G04 #@! TO.N,Net-(J5-PadT)*
X-169374000Y99875000D03*
D11*
G04 #@! TO.P,J5,S*
G04 #@! TO.N,GND*
X-169374000Y111275000D03*
D10*
G04 #@! TO.P,J5,TN*
G04 #@! TO.N,Net-(J5-PadTN)*
X-169374000Y108175000D03*
G04 #@! TD*
D12*
G04 #@! TO.P,J6,T*
G04 #@! TO.N,Net-(J6-PadT)*
X-169374000Y75872000D03*
D11*
G04 #@! TO.P,J6,S*
G04 #@! TO.N,GND*
X-169374000Y87272000D03*
D10*
G04 #@! TO.P,J6,TN*
G04 #@! TO.N,Net-(J6-PadTN)*
X-169374000Y84172000D03*
G04 #@! TD*
D12*
G04 #@! TO.P,J7,T*
G04 #@! TO.N,Net-(J7-PadT)*
X-169374000Y51869000D03*
D11*
G04 #@! TO.P,J7,S*
G04 #@! TO.N,GND*
X-169374000Y63269000D03*
D10*
G04 #@! TO.P,J7,TN*
G04 #@! TO.N,Net-(J7-PadTN)*
X-169374000Y60169000D03*
G04 #@! TD*
G04 #@! TO.P,J8,TN*
G04 #@! TO.N,Net-(J8-PadTN)*
X-158388500Y108175000D03*
D11*
G04 #@! TO.P,J8,S*
G04 #@! TO.N,GND*
X-158388500Y111275000D03*
D12*
G04 #@! TO.P,J8,T*
G04 #@! TO.N,Net-(J8-PadT)*
X-158388500Y99875000D03*
G04 #@! TD*
G04 #@! TO.P,J9,T*
G04 #@! TO.N,Net-(J9-PadT)*
X-158388500Y75872000D03*
D11*
G04 #@! TO.P,J9,S*
G04 #@! TO.N,GND*
X-158388500Y87272000D03*
D10*
G04 #@! TO.P,J9,TN*
G04 #@! TO.N,Net-(J9-PadTN)*
X-158388500Y84172000D03*
G04 #@! TD*
G04 #@! TO.P,J10,TN*
G04 #@! TO.N,Net-(J10-PadTN)*
X-158388500Y60169000D03*
D11*
G04 #@! TO.P,J10,S*
G04 #@! TO.N,GND*
X-158388500Y63269000D03*
D12*
G04 #@! TO.P,J10,T*
G04 #@! TO.N,Net-(J10-PadT)*
X-158388500Y51869000D03*
G04 #@! TD*
D10*
G04 #@! TO.P,J11,TN*
G04 #@! TO.N,Net-(J11-PadTN)*
X-147377600Y108187700D03*
D11*
G04 #@! TO.P,J11,S*
G04 #@! TO.N,GND*
X-147377600Y111287700D03*
D12*
G04 #@! TO.P,J11,T*
G04 #@! TO.N,Net-(J11-PadT)*
X-147377600Y99887700D03*
G04 #@! TD*
G04 #@! TO.P,J12,T*
G04 #@! TO.N,Net-(J12-PadT)*
X-147377600Y75884700D03*
D11*
G04 #@! TO.P,J12,S*
G04 #@! TO.N,GND*
X-147377600Y87284700D03*
D10*
G04 #@! TO.P,J12,TN*
G04 #@! TO.N,Net-(J12-PadTN)*
X-147377600Y84184700D03*
G04 #@! TD*
G04 #@! TO.P,J13,TN*
G04 #@! TO.N,Net-(J13-PadTN)*
X-147377600Y60169000D03*
D11*
G04 #@! TO.P,J13,S*
G04 #@! TO.N,GND*
X-147377600Y63269000D03*
D12*
G04 #@! TO.P,J13,T*
G04 #@! TO.N,Net-(J13-PadT)*
X-147377600Y51869000D03*
G04 #@! TD*
G04 #@! TO.P,J14,T*
G04 #@! TO.N,Net-(J14-PadT)*
X-136379400Y99887700D03*
D11*
G04 #@! TO.P,J14,S*
G04 #@! TO.N,GND*
X-136379400Y111287700D03*
D10*
G04 #@! TO.P,J14,TN*
G04 #@! TO.N,Net-(J14-PadTN)*
X-136379400Y108187700D03*
G04 #@! TD*
D12*
G04 #@! TO.P,J15,T*
G04 #@! TO.N,Net-(J15-PadT)*
X-136379400Y75872000D03*
D11*
G04 #@! TO.P,J15,S*
G04 #@! TO.N,GND*
X-136379400Y87272000D03*
D10*
G04 #@! TO.P,J15,TN*
G04 #@! TO.N,Net-(J15-PadTN)*
X-136379400Y84172000D03*
G04 #@! TD*
G04 #@! TO.P,J16,TN*
G04 #@! TO.N,Net-(J16-PadTN)*
X-136379400Y60181700D03*
D11*
G04 #@! TO.P,J16,S*
G04 #@! TO.N,GND*
X-136379400Y63281700D03*
D12*
G04 #@! TO.P,J16,T*
G04 #@! TO.N,Net-(J16-PadT)*
X-136379400Y51881700D03*
G04 #@! TD*
D14*
G04 #@! TO.P,U1,1*
G04 #@! TO.N,Net-(R1-Pad2)*
X-160484000Y121181000D03*
D15*
G04 #@! TO.P,U1,8*
G04 #@! TO.N,Net-(R7-Pad2)*
X-145244000Y113561000D03*
G04 #@! TO.P,U1,2*
G04 #@! TO.N,Net-(R1-Pad2)*
X-157944000Y121181000D03*
G04 #@! TO.P,U1,9*
G04 #@! TO.N,Net-(R7-Pad2)*
X-147784000Y113561000D03*
G04 #@! TO.P,U1,3*
G04 #@! TO.N,Net-(J1-PadT)*
X-155404000Y121181000D03*
G04 #@! TO.P,U1,10*
G04 #@! TO.N,Net-(J3-PadT)*
X-150324000Y113561000D03*
G04 #@! TO.P,U1,4*
G04 #@! TO.N,+12V*
X-152864000Y121181000D03*
G04 #@! TO.P,U1,11*
G04 #@! TO.N,-12V*
X-152864000Y113561000D03*
G04 #@! TO.P,U1,5*
G04 #@! TO.N,Net-(J4-PadT)*
X-150324000Y121181000D03*
G04 #@! TO.P,U1,12*
G04 #@! TO.N,Net-(J2-PadT)*
X-155404000Y113561000D03*
G04 #@! TO.P,U1,6*
G04 #@! TO.N,Net-(R10-Pad2)*
X-147784000Y121181000D03*
G04 #@! TO.P,U1,13*
G04 #@! TO.N,Net-(R4-Pad2)*
X-157944000Y113561000D03*
G04 #@! TO.P,U1,7*
G04 #@! TO.N,Net-(R10-Pad2)*
X-145244000Y121181000D03*
G04 #@! TO.P,U1,14*
G04 #@! TO.N,Net-(R4-Pad2)*
X-160484000Y113561000D03*
G04 #@! TD*
D16*
G04 #@! TO.P,JP1,1*
G04 #@! TO.N,Net-(JP1-Pad1)*
X-147784000Y46759000D03*
D17*
G04 #@! TO.P,JP1,2*
X-147784000Y49299000D03*
G04 #@! TO.P,JP1,3*
G04 #@! TO.N,GND*
X-150324000Y46759000D03*
G04 #@! TO.P,JP1,4*
X-150324000Y49299000D03*
G04 #@! TO.P,JP1,5*
X-152864000Y46759000D03*
G04 #@! TO.P,JP1,6*
X-152864000Y49299000D03*
G04 #@! TO.P,JP1,7*
X-155404000Y46759000D03*
G04 #@! TO.P,JP1,8*
X-155404000Y49299000D03*
G04 #@! TO.P,JP1,9*
G04 #@! TO.N,Net-(JP1-Pad10)*
X-157944000Y46759000D03*
G04 #@! TO.P,JP1,10*
X-157944000Y49299000D03*
G04 #@! TD*
D15*
G04 #@! TO.P,R1,2*
G04 #@! TO.N,Net-(R1-Pad2)*
X-165564000Y96289000D03*
D13*
G04 #@! TO.P,R1,1*
G04 #@! TO.N,Net-(J5-PadT)*
X-173184000Y96289000D03*
G04 #@! TD*
G04 #@! TO.P,R2,1*
G04 #@! TO.N,Net-(J6-PadT)*
X-173184000Y72413000D03*
D15*
G04 #@! TO.P,R2,2*
G04 #@! TO.N,Net-(R1-Pad2)*
X-165564000Y72413000D03*
G04 #@! TD*
G04 #@! TO.P,R3,2*
G04 #@! TO.N,Net-(R1-Pad2)*
X-165564000Y66317000D03*
D13*
G04 #@! TO.P,R3,1*
G04 #@! TO.N,Net-(J7-PadT)*
X-173184000Y66317000D03*
G04 #@! TD*
D15*
G04 #@! TO.P,R4,2*
G04 #@! TO.N,Net-(R4-Pad2)*
X-154642000Y96289000D03*
D13*
G04 #@! TO.P,R4,1*
G04 #@! TO.N,Net-(J8-PadT)*
X-162262000Y96289000D03*
G04 #@! TD*
G04 #@! TO.P,R5,1*
G04 #@! TO.N,Net-(J9-PadT)*
X-162262000Y72413000D03*
D15*
G04 #@! TO.P,R5,2*
G04 #@! TO.N,Net-(R4-Pad2)*
X-154642000Y72413000D03*
G04 #@! TD*
G04 #@! TO.P,R6,2*
G04 #@! TO.N,Net-(R4-Pad2)*
X-154642000Y66317000D03*
D13*
G04 #@! TO.P,R6,1*
G04 #@! TO.N,Net-(J10-PadT)*
X-162262000Y66317000D03*
G04 #@! TD*
G04 #@! TO.P,R7,1*
G04 #@! TO.N,Net-(J11-PadT)*
X-143466000Y96289000D03*
D15*
G04 #@! TO.P,R7,2*
G04 #@! TO.N,Net-(R7-Pad2)*
X-151086000Y96289000D03*
G04 #@! TD*
G04 #@! TO.P,R8,2*
G04 #@! TO.N,Net-(R7-Pad2)*
X-151086000Y72413000D03*
D13*
G04 #@! TO.P,R8,1*
G04 #@! TO.N,Net-(J12-PadT)*
X-143466000Y72413000D03*
G04 #@! TD*
G04 #@! TO.P,R9,1*
G04 #@! TO.N,Net-(J13-PadT)*
X-143466000Y66317000D03*
D15*
G04 #@! TO.P,R9,2*
G04 #@! TO.N,Net-(R7-Pad2)*
X-151086000Y66317000D03*
G04 #@! TD*
G04 #@! TO.P,R10,2*
G04 #@! TO.N,Net-(R10-Pad2)*
X-140672000Y96289000D03*
D13*
G04 #@! TO.P,R10,1*
G04 #@! TO.N,Net-(J14-PadT)*
X-133052000Y96289000D03*
G04 #@! TD*
G04 #@! TO.P,R11,1*
G04 #@! TO.N,Net-(J15-PadT)*
X-133052000Y72413000D03*
D15*
G04 #@! TO.P,R11,2*
G04 #@! TO.N,Net-(R10-Pad2)*
X-140672000Y72413000D03*
G04 #@! TD*
D13*
G04 #@! TO.P,R12,1*
G04 #@! TO.N,Net-(J16-PadT)*
X-133052000Y66317000D03*
D15*
G04 #@! TO.P,R12,2*
G04 #@! TO.N,Net-(R10-Pad2)*
X-140672000Y66317000D03*
G04 #@! TD*
D13*
G04 #@! TO.P,R13,1*
G04 #@! TO.N,Net-(JP1-Pad1)*
X-145244000Y46759000D03*
D15*
G04 #@! TO.P,R13,2*
G04 #@! TO.N,-12V*
X-137624000Y46759000D03*
G04 #@! TD*
G04 #@! TO.P,R14,2*
G04 #@! TO.N,+12V*
X-168104000Y46759000D03*
D13*
G04 #@! TO.P,R14,1*
G04 #@! TO.N,Net-(JP1-Pad10)*
X-160484000Y46759000D03*
G04 #@! TD*
D18*
G04 #@! TO.N,Net-(J1-PadT)*
X-168824000Y123878000D02*
X-169374000Y123878000D01*
X-160484000Y132190700D02*
X-168824000Y123878000D01*
X-158363100Y132190700D02*
X-160484000Y132190700D01*
G04 #@! TO.N,Net-(J2-PadT)*
X-149473100Y132203400D02*
X-157813100Y123890700D01*
X-147352200Y132203400D02*
X-149473100Y132203400D01*
X-156674000Y122705000D02*
X-156674000Y114784400D01*
X-158363100Y123890700D02*
X-157813100Y123890700D01*
X-157813100Y123890700D02*
X-156674000Y122705000D01*
X-156203999Y114360999D02*
X-155404000Y113561000D01*
X-156674000Y114784400D02*
X-156203999Y114360999D01*
G04 #@! TO.N,Net-(J3-PadT)*
X-138487600Y132178000D02*
X-146827600Y123865300D01*
X-136366700Y132178000D02*
X-138487600Y132178000D01*
G04 #@! TO.N,Net-(J4-PadT)*
X-149524001Y121980999D02*
X-150324000Y121181000D01*
X-139306400Y122451000D02*
X-149054000Y122451000D01*
X-149054000Y122451000D02*
X-149524001Y121980999D01*
X-137879400Y123878000D02*
X-139306400Y122451000D01*
X-136379400Y123878000D02*
X-137879400Y123878000D01*
G04 #@! TO.N,Net-(J5-PadT)*
X-169598000Y99875000D02*
X-169374000Y99875000D01*
X-173184000Y96289000D02*
X-169598000Y99875000D01*
G04 #@! TO.N,Net-(J6-PadT)*
X-169725000Y75872000D02*
X-169374000Y75872000D01*
X-173184000Y72413000D02*
X-169725000Y75872000D01*
G04 #@! TO.N,Net-(J7-PadT)*
X-169924000Y51869000D02*
X-169374000Y51869000D01*
X-173184000Y55129000D02*
X-169924000Y51869000D01*
X-173184000Y66317000D02*
X-173184000Y55129000D01*
G04 #@! TO.N,Net-(J8-PadT)*
X-158676000Y99875000D02*
X-158388500Y99875000D01*
X-162262000Y96289000D02*
X-158676000Y99875000D01*
G04 #@! TO.N,Net-(J9-PadT)*
X-158803000Y75872000D02*
X-158388500Y75872000D01*
X-162262000Y72413000D02*
X-158803000Y75872000D01*
G04 #@! TO.N,Net-(J10-PadT)*
X-158938500Y51869000D02*
X-158388500Y51869000D01*
X-162262000Y55192500D02*
X-158938500Y51869000D01*
X-162262000Y66317000D02*
X-162262000Y55192500D01*
G04 #@! TO.N,Net-(J11-PadT)*
X-147064700Y99887700D02*
X-147377600Y99887700D01*
X-143466000Y96289000D02*
X-147064700Y99887700D01*
G04 #@! TO.N,Net-(J12-PadT)*
X-146937700Y75884700D02*
X-147377600Y75884700D01*
X-143466000Y72413000D02*
X-146937700Y75884700D01*
G04 #@! TO.N,Net-(J13-PadT)*
X-146827600Y51869000D02*
X-147377600Y51869000D01*
X-143466000Y55230600D02*
X-146827600Y51869000D01*
X-143466000Y66317000D02*
X-143466000Y55230600D01*
G04 #@! TO.N,Net-(J14-PadT)*
X-136379400Y99616400D02*
X-136379400Y99887700D01*
X-133052000Y96289000D02*
X-136379400Y99616400D01*
G04 #@! TO.N,Net-(J15-PadT)*
X-136379400Y75740400D02*
X-136379400Y75872000D01*
X-133052000Y72413000D02*
X-136379400Y75740400D01*
G04 #@! TO.N,Net-(J16-PadT)*
X-135829400Y51881700D02*
X-136379400Y51881700D01*
X-133052000Y54659100D02*
X-135829400Y51881700D01*
X-133052000Y66317000D02*
X-133052000Y54659100D01*
G04 #@! TO.N,Net-(R1-Pad2)*
X-165564000Y72413000D02*
X-165564000Y66317000D01*
X-165564000Y95157630D02*
X-165564000Y72413000D01*
X-165564000Y96289000D02*
X-165564000Y95157630D01*
X-159434000Y121181000D02*
X-157944000Y121181000D01*
X-160484000Y121181000D02*
X-159434000Y121181000D01*
X-161534000Y121181000D02*
X-165564000Y117151000D01*
X-160484000Y121181000D02*
X-161534000Y121181000D01*
X-165564000Y117151000D02*
X-165564000Y97420370D01*
X-165564000Y97420370D02*
X-165564000Y96289000D01*
G04 #@! TO.N,Net-(R4-Pad2)*
X-154642000Y71281630D02*
X-154642000Y66317000D01*
X-154642000Y72413000D02*
X-154642000Y71281630D01*
X-154642000Y73544370D02*
X-154642000Y96289000D01*
X-154642000Y72413000D02*
X-154642000Y73544370D01*
X-159352630Y113561000D02*
X-157944000Y113561000D01*
X-160484000Y113561000D02*
X-159352630Y113561000D01*
X-157944000Y113561000D02*
X-154642000Y110259000D01*
X-154642000Y110259000D02*
X-154642000Y96289000D01*
G04 #@! TO.N,Net-(R7-Pad2)*
X-151086000Y72413000D02*
X-151086000Y66317000D01*
X-151086000Y95157630D02*
X-151086000Y72413000D01*
X-151086000Y96289000D02*
X-151086000Y95157630D01*
X-146652630Y113561000D02*
X-145244000Y113561000D01*
X-147784000Y113561000D02*
X-146652630Y113561000D01*
X-151086000Y110259000D02*
X-151086000Y96289000D01*
X-147784000Y113561000D02*
X-151086000Y110259000D01*
G04 #@! TO.N,Net-(R10-Pad2)*
X-146652630Y121181000D02*
X-145244000Y121181000D01*
X-147784000Y121181000D02*
X-146652630Y121181000D01*
X-140672000Y71281630D02*
X-140672000Y66317000D01*
X-140672000Y72413000D02*
X-140672000Y71281630D01*
X-140672000Y96289000D02*
X-140672000Y72413000D01*
X-140672000Y97420370D02*
X-140672000Y96289000D01*
X-140672000Y117740370D02*
X-140672000Y97420370D01*
X-144112630Y121181000D02*
X-140672000Y117740370D01*
X-145244000Y121181000D02*
X-144112630Y121181000D01*
D19*
G04 #@! TO.N,+12V*
X-169120000Y47775000D02*
X-168104000Y46759000D01*
X-171914000Y47775000D02*
X-169120000Y47775000D01*
X-152864000Y123467000D02*
X-152864000Y121181000D01*
G04 #@! TO.N,-12V*
X-136394000Y45529000D02*
X-133814000Y45529000D01*
X-137624000Y46759000D02*
X-136394000Y45529000D01*
X-152864000Y111235000D02*
X-152864000Y113561000D01*
G04 #@! TO.N,Net-(JP1-Pad1)*
X-145244000Y46759000D02*
X-147784000Y46759000D01*
X-147784000Y49299000D02*
X-147784000Y46759000D01*
G04 #@! TO.N,Net-(JP1-Pad10)*
X-157944000Y49299000D02*
X-157944000Y46759000D01*
X-160484000Y46759000D02*
X-157944000Y46759000D01*
G04 #@! TD*
D20*
G04 #@! TO.N,GND*
G36*
X-171012327Y136387699D02*
X-171109000Y136154310D01*
X-171109000Y135563750D01*
X-170950250Y135405000D01*
X-169501000Y135405000D01*
X-169501000Y135425000D01*
X-169247000Y135425000D01*
X-169247000Y135405000D01*
X-167797750Y135405000D01*
X-167639000Y135563750D01*
X-167639000Y136154310D01*
X-167735673Y136387699D01*
X-167820974Y136473000D01*
X-159928826Y136473000D01*
X-160001427Y136400399D01*
X-160098100Y136167010D01*
X-160098100Y135576450D01*
X-159939350Y135417700D01*
X-158490100Y135417700D01*
X-158490100Y135437700D01*
X-158236100Y135437700D01*
X-158236100Y135417700D01*
X-156786850Y135417700D01*
X-156628100Y135576450D01*
X-156628100Y136167010D01*
X-156724773Y136400399D01*
X-156797374Y136473000D01*
X-148917925Y136473000D01*
X-149015927Y136374999D01*
X-149112600Y136141610D01*
X-149112600Y135551050D01*
X-148953850Y135392300D01*
X-147504600Y135392300D01*
X-147504600Y135412300D01*
X-147250600Y135412300D01*
X-147250600Y135392300D01*
X-145801350Y135392300D01*
X-145642600Y135551050D01*
X-145642600Y136141610D01*
X-145739273Y136374999D01*
X-145837275Y136473000D01*
X-137932426Y136473000D01*
X-138017727Y136387699D01*
X-138114400Y136154310D01*
X-138114400Y135563750D01*
X-137955650Y135405000D01*
X-136506400Y135405000D01*
X-136506400Y135425000D01*
X-136252400Y135425000D01*
X-136252400Y135405000D01*
X-134803150Y135405000D01*
X-134644400Y135563750D01*
X-134644400Y136154310D01*
X-134741073Y136387699D01*
X-134826374Y136473000D01*
X-131730000Y136473000D01*
X-131730000Y96847244D01*
X-131835466Y97101862D01*
X-132239138Y97505534D01*
X-132766561Y97724000D01*
X-133337439Y97724000D01*
X-133340302Y97722814D01*
X-134737058Y99119570D01*
X-134571858Y99366809D01*
X-134468246Y99887700D01*
X-134571858Y100408591D01*
X-134866919Y100850181D01*
X-135308509Y101145242D01*
X-135697915Y101222700D01*
X-137060885Y101222700D01*
X-137450291Y101145242D01*
X-137891881Y100850181D01*
X-138186942Y100408591D01*
X-138290554Y99887700D01*
X-138186942Y99366809D01*
X-137891881Y98925219D01*
X-137450291Y98630158D01*
X-137060885Y98552700D01*
X-136461212Y98552700D01*
X-134485814Y96577302D01*
X-134487000Y96574439D01*
X-134487000Y96003561D01*
X-134268534Y95476138D01*
X-133864862Y95072466D01*
X-133337439Y94854000D01*
X-132766561Y94854000D01*
X-132239138Y95072466D01*
X-131835466Y95476138D01*
X-131730000Y95730756D01*
X-131729999Y72971243D01*
X-131835466Y73225862D01*
X-132239138Y73629534D01*
X-132766561Y73848000D01*
X-133337439Y73848000D01*
X-133340302Y73846814D01*
X-134681102Y75187614D01*
X-134571858Y75351109D01*
X-134468246Y75872000D01*
X-134571858Y76392891D01*
X-134866919Y76834481D01*
X-135308509Y77129542D01*
X-135697915Y77207000D01*
X-137060885Y77207000D01*
X-137450291Y77129542D01*
X-137891881Y76834481D01*
X-138186942Y76392891D01*
X-138290554Y75872000D01*
X-138186942Y75351109D01*
X-137891881Y74909519D01*
X-137450291Y74614458D01*
X-137060885Y74537000D01*
X-136321512Y74537000D01*
X-134485814Y72701302D01*
X-134487000Y72698439D01*
X-134487000Y72127561D01*
X-134268534Y71600138D01*
X-133864862Y71196466D01*
X-133337439Y70978000D01*
X-132766561Y70978000D01*
X-132239138Y71196466D01*
X-131835466Y71600138D01*
X-131729999Y71854757D01*
X-131729999Y66875243D01*
X-131835466Y67129862D01*
X-132239138Y67533534D01*
X-132766561Y67752000D01*
X-133337439Y67752000D01*
X-133864862Y67533534D01*
X-134268534Y67129862D01*
X-134487000Y66602439D01*
X-134487000Y66031561D01*
X-134268534Y65504138D01*
X-133864862Y65100466D01*
X-133862000Y65099280D01*
X-133861999Y54994614D01*
X-135649536Y53207077D01*
X-135697915Y53216700D01*
X-137060885Y53216700D01*
X-137450291Y53139242D01*
X-137891881Y52844181D01*
X-138186942Y52402591D01*
X-138290554Y51881700D01*
X-138186942Y51360809D01*
X-137891881Y50919219D01*
X-137450291Y50624158D01*
X-137060885Y50546700D01*
X-135697915Y50546700D01*
X-135308509Y50624158D01*
X-134866919Y50919219D01*
X-134571858Y51360809D01*
X-134468246Y51881700D01*
X-134504023Y52061564D01*
X-132535653Y54029934D01*
X-132468023Y54075123D01*
X-132315672Y54303132D01*
X-132288997Y54343053D01*
X-132226132Y54659100D01*
X-132242000Y54738874D01*
X-132242000Y65099281D01*
X-132239138Y65100466D01*
X-131835466Y65504138D01*
X-131729999Y65758757D01*
X-131729999Y43659000D01*
X-173998000Y43659000D01*
X-173998000Y44267255D01*
X-172742139Y44267255D01*
X-172668005Y44021136D01*
X-172130777Y43828035D01*
X-171560546Y43855222D01*
X-171159995Y44021136D01*
X-171085861Y44267255D01*
X-171914000Y45095395D01*
X-172742139Y44267255D01*
X-173998000Y44267255D01*
X-173998000Y45491777D01*
X-173360965Y45491777D01*
X-173333778Y44921546D01*
X-173167864Y44520995D01*
X-172921745Y44446861D01*
X-172093605Y45275000D01*
X-171734395Y45275000D01*
X-170906255Y44446861D01*
X-170660136Y44520995D01*
X-170467035Y45058223D01*
X-170494222Y45628454D01*
X-170660136Y46029005D01*
X-170906255Y46103139D01*
X-171734395Y45275000D01*
X-172093605Y45275000D01*
X-172921745Y46103139D01*
X-173167864Y46029005D01*
X-173360965Y45491777D01*
X-173998000Y45491777D01*
X-173998000Y48575000D01*
X-173361440Y48575000D01*
X-173361440Y46975000D01*
X-173312157Y46727235D01*
X-173171809Y46517191D01*
X-172961765Y46376843D01*
X-172727813Y46330307D01*
X-172742139Y46282745D01*
X-171914000Y45454605D01*
X-171085861Y46282745D01*
X-171100187Y46330307D01*
X-170866235Y46376843D01*
X-170656191Y46517191D01*
X-170515843Y46727235D01*
X-170483467Y46890000D01*
X-169541055Y46890000D01*
X-169567113Y46759000D01*
X-169455740Y46199091D01*
X-169138577Y45724423D01*
X-168663909Y45407260D01*
X-168245333Y45324000D01*
X-167962667Y45324000D01*
X-167544091Y45407260D01*
X-167069423Y45724423D01*
X-166752260Y46199091D01*
X-166640887Y46759000D01*
X-166752260Y47318909D01*
X-167069423Y47793577D01*
X-167544091Y48110740D01*
X-167962667Y48194000D01*
X-168245333Y48194000D01*
X-168280439Y48187017D01*
X-168432575Y48339153D01*
X-168481951Y48413049D01*
X-168774690Y48608652D01*
X-169032835Y48660000D01*
X-169032839Y48660000D01*
X-169120000Y48677337D01*
X-169207161Y48660000D01*
X-170483467Y48660000D01*
X-170515843Y48822765D01*
X-170656191Y49032809D01*
X-170866235Y49173157D01*
X-171114000Y49222440D01*
X-172714000Y49222440D01*
X-172961765Y49173157D01*
X-173171809Y49032809D01*
X-173312157Y48822765D01*
X-173361440Y48575000D01*
X-173998000Y48575000D01*
X-173998000Y55069336D01*
X-173967211Y54914553D01*
X-173947002Y54812954D01*
X-173767976Y54545023D01*
X-173700346Y54499834D01*
X-171249377Y52048864D01*
X-171285154Y51869000D01*
X-171181542Y51348109D01*
X-170886481Y50906519D01*
X-170444891Y50611458D01*
X-170055485Y50534000D01*
X-168692515Y50534000D01*
X-168303109Y50611458D01*
X-167861519Y50906519D01*
X-167566458Y51348109D01*
X-167462846Y51869000D01*
X-167566458Y52389891D01*
X-167861519Y52831481D01*
X-168303109Y53126542D01*
X-168692515Y53204000D01*
X-170055485Y53204000D01*
X-170103864Y53194377D01*
X-172374000Y55464512D01*
X-172374000Y60169000D01*
X-171236133Y60169000D01*
X-171128641Y59628600D01*
X-170822529Y59170471D01*
X-170364400Y58864359D01*
X-169960407Y58784000D01*
X-168787593Y58784000D01*
X-168383600Y58864359D01*
X-167925471Y59170471D01*
X-167619359Y59628600D01*
X-167511867Y60169000D01*
X-167619359Y60709400D01*
X-167925471Y61167529D01*
X-168383600Y61473641D01*
X-168787593Y61554000D01*
X-169960407Y61554000D01*
X-170364400Y61473641D01*
X-170822529Y61167529D01*
X-171128641Y60709400D01*
X-171236133Y60169000D01*
X-172374000Y60169000D01*
X-172374000Y62983250D01*
X-171109000Y62983250D01*
X-171109000Y62392690D01*
X-171012327Y62159301D01*
X-170833698Y61980673D01*
X-170600309Y61884000D01*
X-169659750Y61884000D01*
X-169501000Y62042750D01*
X-169501000Y63142000D01*
X-169247000Y63142000D01*
X-169247000Y62042750D01*
X-169088250Y61884000D01*
X-168147691Y61884000D01*
X-167914302Y61980673D01*
X-167735673Y62159301D01*
X-167639000Y62392690D01*
X-167639000Y62983250D01*
X-167797750Y63142000D01*
X-169247000Y63142000D01*
X-169501000Y63142000D01*
X-170950250Y63142000D01*
X-171109000Y62983250D01*
X-172374000Y62983250D01*
X-172374000Y64145310D01*
X-171109000Y64145310D01*
X-171109000Y63554750D01*
X-170950250Y63396000D01*
X-169501000Y63396000D01*
X-169501000Y64495250D01*
X-169247000Y64495250D01*
X-169247000Y63396000D01*
X-167797750Y63396000D01*
X-167639000Y63554750D01*
X-167639000Y64145310D01*
X-167735673Y64378699D01*
X-167914302Y64557327D01*
X-168147691Y64654000D01*
X-169088250Y64654000D01*
X-169247000Y64495250D01*
X-169501000Y64495250D01*
X-169659750Y64654000D01*
X-170600309Y64654000D01*
X-170833698Y64557327D01*
X-171012327Y64378699D01*
X-171109000Y64145310D01*
X-172374000Y64145310D01*
X-172374000Y65099281D01*
X-172371138Y65100466D01*
X-171967466Y65504138D01*
X-171749000Y66031561D01*
X-171749000Y66602439D01*
X-171967466Y67129862D01*
X-172371138Y67533534D01*
X-172898561Y67752000D01*
X-173469439Y67752000D01*
X-173996862Y67533534D01*
X-173998000Y67532396D01*
X-173998000Y71197604D01*
X-173996862Y71196466D01*
X-173469439Y70978000D01*
X-172898561Y70978000D01*
X-172371138Y71196466D01*
X-171967466Y71600138D01*
X-171749000Y72127561D01*
X-171749000Y72698439D01*
X-171750186Y72701302D01*
X-169914487Y74537000D01*
X-168692515Y74537000D01*
X-168303109Y74614458D01*
X-167861519Y74909519D01*
X-167566458Y75351109D01*
X-167462846Y75872000D01*
X-167566458Y76392891D01*
X-167861519Y76834481D01*
X-168303109Y77129542D01*
X-168692515Y77207000D01*
X-170055485Y77207000D01*
X-170444891Y77129542D01*
X-170886481Y76834481D01*
X-171181542Y76392891D01*
X-171285154Y75872000D01*
X-171216360Y75526152D01*
X-172895698Y73846814D01*
X-172898561Y73848000D01*
X-173469439Y73848000D01*
X-173996862Y73629534D01*
X-173998000Y73628396D01*
X-173998000Y84172000D01*
X-171236133Y84172000D01*
X-171128641Y83631600D01*
X-170822529Y83173471D01*
X-170364400Y82867359D01*
X-169960407Y82787000D01*
X-168787593Y82787000D01*
X-168383600Y82867359D01*
X-167925471Y83173471D01*
X-167619359Y83631600D01*
X-167511867Y84172000D01*
X-167619359Y84712400D01*
X-167925471Y85170529D01*
X-168383600Y85476641D01*
X-168787593Y85557000D01*
X-169960407Y85557000D01*
X-170364400Y85476641D01*
X-170822529Y85170529D01*
X-171128641Y84712400D01*
X-171236133Y84172000D01*
X-173998000Y84172000D01*
X-173998000Y86986250D01*
X-171109000Y86986250D01*
X-171109000Y86395690D01*
X-171012327Y86162301D01*
X-170833698Y85983673D01*
X-170600309Y85887000D01*
X-169659750Y85887000D01*
X-169501000Y86045750D01*
X-169501000Y87145000D01*
X-169247000Y87145000D01*
X-169247000Y86045750D01*
X-169088250Y85887000D01*
X-168147691Y85887000D01*
X-167914302Y85983673D01*
X-167735673Y86162301D01*
X-167639000Y86395690D01*
X-167639000Y86986250D01*
X-167797750Y87145000D01*
X-169247000Y87145000D01*
X-169501000Y87145000D01*
X-170950250Y87145000D01*
X-171109000Y86986250D01*
X-173998000Y86986250D01*
X-173998000Y88148310D01*
X-171109000Y88148310D01*
X-171109000Y87557750D01*
X-170950250Y87399000D01*
X-169501000Y87399000D01*
X-169501000Y88498250D01*
X-169247000Y88498250D01*
X-169247000Y87399000D01*
X-167797750Y87399000D01*
X-167639000Y87557750D01*
X-167639000Y88148310D01*
X-167735673Y88381699D01*
X-167914302Y88560327D01*
X-168147691Y88657000D01*
X-169088250Y88657000D01*
X-169247000Y88498250D01*
X-169501000Y88498250D01*
X-169659750Y88657000D01*
X-170600309Y88657000D01*
X-170833698Y88560327D01*
X-171012327Y88381699D01*
X-171109000Y88148310D01*
X-173998000Y88148310D01*
X-173998000Y95073604D01*
X-173996862Y95072466D01*
X-173469439Y94854000D01*
X-172898561Y94854000D01*
X-172371138Y95072466D01*
X-171967466Y95476138D01*
X-171749000Y96003561D01*
X-171749000Y96289000D01*
X-167027113Y96289000D01*
X-166915740Y95729091D01*
X-166598577Y95254423D01*
X-166374000Y95104365D01*
X-166373999Y73597635D01*
X-166598577Y73447577D01*
X-166915740Y72972909D01*
X-167027113Y72413000D01*
X-166915740Y71853091D01*
X-166598577Y71378423D01*
X-166374000Y71228365D01*
X-166373999Y67501635D01*
X-166598577Y67351577D01*
X-166915740Y66876909D01*
X-167027113Y66317000D01*
X-166915740Y65757091D01*
X-166598577Y65282423D01*
X-166123909Y64965260D01*
X-165705333Y64882000D01*
X-165422667Y64882000D01*
X-165004091Y64965260D01*
X-164529423Y65282423D01*
X-164212260Y65757091D01*
X-164100887Y66317000D01*
X-164157664Y66602439D01*
X-163697000Y66602439D01*
X-163697000Y66031561D01*
X-163478534Y65504138D01*
X-163074862Y65100466D01*
X-163072000Y65099280D01*
X-163071999Y55272278D01*
X-163087868Y55192500D01*
X-163032580Y54914553D01*
X-163025002Y54876454D01*
X-162845976Y54608523D01*
X-162778346Y54563334D01*
X-160263877Y52048864D01*
X-160299654Y51869000D01*
X-160196042Y51348109D01*
X-159900981Y50906519D01*
X-159459391Y50611458D01*
X-159069985Y50534000D01*
X-158793100Y50534000D01*
X-159024430Y50379430D01*
X-159355650Y49883725D01*
X-159471959Y49299000D01*
X-159355650Y48714275D01*
X-159024430Y48218570D01*
X-158829000Y48087987D01*
X-158828999Y47970013D01*
X-159024430Y47839430D01*
X-159155012Y47644000D01*
X-159339604Y47644000D01*
X-159671138Y47975534D01*
X-160198561Y48194000D01*
X-160769439Y48194000D01*
X-161296862Y47975534D01*
X-161700534Y47571862D01*
X-161919000Y47044439D01*
X-161919000Y46473561D01*
X-161700534Y45946138D01*
X-161296862Y45542466D01*
X-160769439Y45324000D01*
X-160198561Y45324000D01*
X-159671138Y45542466D01*
X-159339604Y45874000D01*
X-159155012Y45874000D01*
X-159024430Y45678570D01*
X-158528725Y45347350D01*
X-158091598Y45260400D01*
X-157796402Y45260400D01*
X-157359275Y45347350D01*
X-156863570Y45678570D01*
X-156662146Y45980021D01*
X-156610821Y45870510D01*
X-156178947Y45476312D01*
X-155763026Y45304042D01*
X-155531000Y45425183D01*
X-155531000Y46632000D01*
X-155277000Y46632000D01*
X-155277000Y45425183D01*
X-155044974Y45304042D01*
X-154629053Y45476312D01*
X-154197179Y45870510D01*
X-154134000Y46005313D01*
X-154070821Y45870510D01*
X-153638947Y45476312D01*
X-153223026Y45304042D01*
X-152991000Y45425183D01*
X-152991000Y46632000D01*
X-152737000Y46632000D01*
X-152737000Y45425183D01*
X-152504974Y45304042D01*
X-152089053Y45476312D01*
X-151657179Y45870510D01*
X-151594000Y46005313D01*
X-151530821Y45870510D01*
X-151098947Y45476312D01*
X-150683026Y45304042D01*
X-150451000Y45425183D01*
X-150451000Y46632000D01*
X-152737000Y46632000D01*
X-152991000Y46632000D01*
X-155277000Y46632000D01*
X-155531000Y46632000D01*
X-155551000Y46632000D01*
X-155551000Y46886000D01*
X-155531000Y46886000D01*
X-155531000Y49172000D01*
X-155277000Y49172000D01*
X-155277000Y46886000D01*
X-152991000Y46886000D01*
X-152991000Y49172000D01*
X-152737000Y49172000D01*
X-152737000Y46886000D01*
X-150451000Y46886000D01*
X-150451000Y49172000D01*
X-152737000Y49172000D01*
X-152991000Y49172000D01*
X-155277000Y49172000D01*
X-155531000Y49172000D01*
X-155551000Y49172000D01*
X-155551000Y49426000D01*
X-155531000Y49426000D01*
X-155531000Y50632817D01*
X-155277000Y50632817D01*
X-155277000Y49426000D01*
X-152991000Y49426000D01*
X-152991000Y50632817D01*
X-152737000Y50632817D01*
X-152737000Y49426000D01*
X-150451000Y49426000D01*
X-150451000Y50632817D01*
X-150683026Y50753958D01*
X-151098947Y50581688D01*
X-151530821Y50187490D01*
X-151594000Y50052687D01*
X-151657179Y50187490D01*
X-152089053Y50581688D01*
X-152504974Y50753958D01*
X-152737000Y50632817D01*
X-152991000Y50632817D01*
X-153223026Y50753958D01*
X-153638947Y50581688D01*
X-154070821Y50187490D01*
X-154134000Y50052687D01*
X-154197179Y50187490D01*
X-154629053Y50581688D01*
X-155044974Y50753958D01*
X-155277000Y50632817D01*
X-155531000Y50632817D01*
X-155763026Y50753958D01*
X-156178947Y50581688D01*
X-156610821Y50187490D01*
X-156662146Y50077979D01*
X-156863570Y50379430D01*
X-157264216Y50647134D01*
X-156876019Y50906519D01*
X-156580958Y51348109D01*
X-156477346Y51869000D01*
X-156580958Y52389891D01*
X-156876019Y52831481D01*
X-157317609Y53126542D01*
X-157707015Y53204000D01*
X-159069985Y53204000D01*
X-159118364Y53194377D01*
X-161452000Y55528012D01*
X-161452000Y60169000D01*
X-160250633Y60169000D01*
X-160143141Y59628600D01*
X-159837029Y59170471D01*
X-159378900Y58864359D01*
X-158974907Y58784000D01*
X-157802093Y58784000D01*
X-157398100Y58864359D01*
X-156939971Y59170471D01*
X-156633859Y59628600D01*
X-156526367Y60169000D01*
X-149239733Y60169000D01*
X-149132241Y59628600D01*
X-148826129Y59170471D01*
X-148368000Y58864359D01*
X-147964007Y58784000D01*
X-146791193Y58784000D01*
X-146387200Y58864359D01*
X-145929071Y59170471D01*
X-145622959Y59628600D01*
X-145515467Y60169000D01*
X-145622959Y60709400D01*
X-145929071Y61167529D01*
X-146387200Y61473641D01*
X-146791193Y61554000D01*
X-147964007Y61554000D01*
X-148368000Y61473641D01*
X-148826129Y61167529D01*
X-149132241Y60709400D01*
X-149239733Y60169000D01*
X-156526367Y60169000D01*
X-156633859Y60709400D01*
X-156939971Y61167529D01*
X-157398100Y61473641D01*
X-157802093Y61554000D01*
X-158974907Y61554000D01*
X-159378900Y61473641D01*
X-159837029Y61167529D01*
X-160143141Y60709400D01*
X-160250633Y60169000D01*
X-161452000Y60169000D01*
X-161452000Y62983250D01*
X-160123500Y62983250D01*
X-160123500Y62392690D01*
X-160026827Y62159301D01*
X-159848198Y61980673D01*
X-159614809Y61884000D01*
X-158674250Y61884000D01*
X-158515500Y62042750D01*
X-158515500Y63142000D01*
X-158261500Y63142000D01*
X-158261500Y62042750D01*
X-158102750Y61884000D01*
X-157162191Y61884000D01*
X-156928802Y61980673D01*
X-156750173Y62159301D01*
X-156653500Y62392690D01*
X-156653500Y62983250D01*
X-149112600Y62983250D01*
X-149112600Y62392690D01*
X-149015927Y62159301D01*
X-148837298Y61980673D01*
X-148603909Y61884000D01*
X-147663350Y61884000D01*
X-147504600Y62042750D01*
X-147504600Y63142000D01*
X-147250600Y63142000D01*
X-147250600Y62042750D01*
X-147091850Y61884000D01*
X-146151291Y61884000D01*
X-145917902Y61980673D01*
X-145739273Y62159301D01*
X-145642600Y62392690D01*
X-145642600Y62983250D01*
X-145801350Y63142000D01*
X-147250600Y63142000D01*
X-147504600Y63142000D01*
X-148953850Y63142000D01*
X-149112600Y62983250D01*
X-156653500Y62983250D01*
X-156812250Y63142000D01*
X-158261500Y63142000D01*
X-158515500Y63142000D01*
X-159964750Y63142000D01*
X-160123500Y62983250D01*
X-161452000Y62983250D01*
X-161452000Y64145310D01*
X-160123500Y64145310D01*
X-160123500Y63554750D01*
X-159964750Y63396000D01*
X-158515500Y63396000D01*
X-158515500Y64495250D01*
X-158261500Y64495250D01*
X-158261500Y63396000D01*
X-156812250Y63396000D01*
X-156653500Y63554750D01*
X-156653500Y64145310D01*
X-149112600Y64145310D01*
X-149112600Y63554750D01*
X-148953850Y63396000D01*
X-147504600Y63396000D01*
X-147504600Y64495250D01*
X-147250600Y64495250D01*
X-147250600Y63396000D01*
X-145801350Y63396000D01*
X-145642600Y63554750D01*
X-145642600Y64145310D01*
X-145739273Y64378699D01*
X-145917902Y64557327D01*
X-146151291Y64654000D01*
X-147091850Y64654000D01*
X-147250600Y64495250D01*
X-147504600Y64495250D01*
X-147663350Y64654000D01*
X-148603909Y64654000D01*
X-148837298Y64557327D01*
X-149015927Y64378699D01*
X-149112600Y64145310D01*
X-156653500Y64145310D01*
X-156750173Y64378699D01*
X-156928802Y64557327D01*
X-157162191Y64654000D01*
X-158102750Y64654000D01*
X-158261500Y64495250D01*
X-158515500Y64495250D01*
X-158674250Y64654000D01*
X-159614809Y64654000D01*
X-159848198Y64557327D01*
X-160026827Y64378699D01*
X-160123500Y64145310D01*
X-161452000Y64145310D01*
X-161452000Y65099281D01*
X-161449138Y65100466D01*
X-161045466Y65504138D01*
X-160827000Y66031561D01*
X-160827000Y66602439D01*
X-161045466Y67129862D01*
X-161449138Y67533534D01*
X-161976561Y67752000D01*
X-162547439Y67752000D01*
X-163074862Y67533534D01*
X-163478534Y67129862D01*
X-163697000Y66602439D01*
X-164157664Y66602439D01*
X-164212260Y66876909D01*
X-164529423Y67351577D01*
X-164754000Y67501635D01*
X-164754000Y71228365D01*
X-164529423Y71378423D01*
X-164212260Y71853091D01*
X-164100887Y72413000D01*
X-164157664Y72698439D01*
X-163697000Y72698439D01*
X-163697000Y72127561D01*
X-163478534Y71600138D01*
X-163074862Y71196466D01*
X-162547439Y70978000D01*
X-161976561Y70978000D01*
X-161449138Y71196466D01*
X-161045466Y71600138D01*
X-160827000Y72127561D01*
X-160827000Y72698439D01*
X-160828186Y72701302D01*
X-158992487Y74537000D01*
X-157707015Y74537000D01*
X-157317609Y74614458D01*
X-156876019Y74909519D01*
X-156580958Y75351109D01*
X-156477346Y75872000D01*
X-156580958Y76392891D01*
X-156876019Y76834481D01*
X-157317609Y77129542D01*
X-157707015Y77207000D01*
X-159069985Y77207000D01*
X-159459391Y77129542D01*
X-159900981Y76834481D01*
X-160196042Y76392891D01*
X-160299654Y75872000D01*
X-160241396Y75579117D01*
X-161973698Y73846814D01*
X-161976561Y73848000D01*
X-162547439Y73848000D01*
X-163074862Y73629534D01*
X-163478534Y73225862D01*
X-163697000Y72698439D01*
X-164157664Y72698439D01*
X-164212260Y72972909D01*
X-164529423Y73447577D01*
X-164754000Y73597635D01*
X-164754000Y84172000D01*
X-160250633Y84172000D01*
X-160143141Y83631600D01*
X-159837029Y83173471D01*
X-159378900Y82867359D01*
X-158974907Y82787000D01*
X-157802093Y82787000D01*
X-157398100Y82867359D01*
X-156939971Y83173471D01*
X-156633859Y83631600D01*
X-156526367Y84172000D01*
X-156633859Y84712400D01*
X-156939971Y85170529D01*
X-157398100Y85476641D01*
X-157802093Y85557000D01*
X-158974907Y85557000D01*
X-159378900Y85476641D01*
X-159837029Y85170529D01*
X-160143141Y84712400D01*
X-160250633Y84172000D01*
X-164754000Y84172000D01*
X-164754000Y86986250D01*
X-160123500Y86986250D01*
X-160123500Y86395690D01*
X-160026827Y86162301D01*
X-159848198Y85983673D01*
X-159614809Y85887000D01*
X-158674250Y85887000D01*
X-158515500Y86045750D01*
X-158515500Y87145000D01*
X-158261500Y87145000D01*
X-158261500Y86045750D01*
X-158102750Y85887000D01*
X-157162191Y85887000D01*
X-156928802Y85983673D01*
X-156750173Y86162301D01*
X-156653500Y86395690D01*
X-156653500Y86986250D01*
X-156812250Y87145000D01*
X-158261500Y87145000D01*
X-158515500Y87145000D01*
X-159964750Y87145000D01*
X-160123500Y86986250D01*
X-164754000Y86986250D01*
X-164754000Y88148310D01*
X-160123500Y88148310D01*
X-160123500Y87557750D01*
X-159964750Y87399000D01*
X-158515500Y87399000D01*
X-158515500Y88498250D01*
X-158261500Y88498250D01*
X-158261500Y87399000D01*
X-156812250Y87399000D01*
X-156653500Y87557750D01*
X-156653500Y88148310D01*
X-156750173Y88381699D01*
X-156928802Y88560327D01*
X-157162191Y88657000D01*
X-158102750Y88657000D01*
X-158261500Y88498250D01*
X-158515500Y88498250D01*
X-158674250Y88657000D01*
X-159614809Y88657000D01*
X-159848198Y88560327D01*
X-160026827Y88381699D01*
X-160123500Y88148310D01*
X-164754000Y88148310D01*
X-164754000Y95104365D01*
X-164529423Y95254423D01*
X-164212260Y95729091D01*
X-164100887Y96289000D01*
X-164157664Y96574439D01*
X-163697000Y96574439D01*
X-163697000Y96003561D01*
X-163478534Y95476138D01*
X-163074862Y95072466D01*
X-162547439Y94854000D01*
X-161976561Y94854000D01*
X-161449138Y95072466D01*
X-161045466Y95476138D01*
X-160827000Y96003561D01*
X-160827000Y96574439D01*
X-160828186Y96577302D01*
X-158865487Y98540000D01*
X-157707015Y98540000D01*
X-157317609Y98617458D01*
X-156876019Y98912519D01*
X-156580958Y99354109D01*
X-156477346Y99875000D01*
X-156580958Y100395891D01*
X-156876019Y100837481D01*
X-157317609Y101132542D01*
X-157707015Y101210000D01*
X-159069985Y101210000D01*
X-159459391Y101132542D01*
X-159900981Y100837481D01*
X-160196042Y100395891D01*
X-160299654Y99875000D01*
X-160220325Y99476188D01*
X-161973698Y97722814D01*
X-161976561Y97724000D01*
X-162547439Y97724000D01*
X-163074862Y97505534D01*
X-163478534Y97101862D01*
X-163697000Y96574439D01*
X-164157664Y96574439D01*
X-164212260Y96848909D01*
X-164529423Y97323577D01*
X-164754000Y97473635D01*
X-164754000Y108175000D01*
X-160250633Y108175000D01*
X-160143141Y107634600D01*
X-159837029Y107176471D01*
X-159378900Y106870359D01*
X-158974907Y106790000D01*
X-157802093Y106790000D01*
X-157398100Y106870359D01*
X-156939971Y107176471D01*
X-156633859Y107634600D01*
X-156526367Y108175000D01*
X-156633859Y108715400D01*
X-156939971Y109173529D01*
X-157398100Y109479641D01*
X-157802093Y109560000D01*
X-158974907Y109560000D01*
X-159378900Y109479641D01*
X-159837029Y109173529D01*
X-160143141Y108715400D01*
X-160250633Y108175000D01*
X-164754000Y108175000D01*
X-164754000Y110989250D01*
X-160123500Y110989250D01*
X-160123500Y110398690D01*
X-160026827Y110165301D01*
X-159848198Y109986673D01*
X-159614809Y109890000D01*
X-158674250Y109890000D01*
X-158515500Y110048750D01*
X-158515500Y111148000D01*
X-159964750Y111148000D01*
X-160123500Y110989250D01*
X-164754000Y110989250D01*
X-164754000Y116815488D01*
X-161684553Y119884934D01*
X-161531765Y119782843D01*
X-161284000Y119733560D01*
X-159684000Y119733560D01*
X-159436235Y119782843D01*
X-159226191Y119923191D01*
X-159085843Y120133235D01*
X-159059215Y120267106D01*
X-158978577Y120146423D01*
X-158503909Y119829260D01*
X-158085333Y119746000D01*
X-157802667Y119746000D01*
X-157484000Y119809387D01*
X-157483999Y114932613D01*
X-157802667Y114996000D01*
X-158085333Y114996000D01*
X-158503909Y114912740D01*
X-158978577Y114595577D01*
X-159128635Y114371000D01*
X-159299365Y114371000D01*
X-159449423Y114595577D01*
X-159924091Y114912740D01*
X-160342667Y114996000D01*
X-160625333Y114996000D01*
X-161043909Y114912740D01*
X-161518577Y114595577D01*
X-161835740Y114120909D01*
X-161947113Y113561000D01*
X-161835740Y113001091D01*
X-161518577Y112526423D01*
X-161043909Y112209260D01*
X-160625333Y112126000D01*
X-160342667Y112126000D01*
X-160115246Y112171237D01*
X-160123500Y112151310D01*
X-160123500Y111560750D01*
X-159964750Y111402000D01*
X-158515500Y111402000D01*
X-158515500Y111422000D01*
X-158261500Y111422000D01*
X-158261500Y111402000D01*
X-158241500Y111402000D01*
X-158241500Y111148000D01*
X-158261500Y111148000D01*
X-158261500Y110048750D01*
X-158102750Y109890000D01*
X-157162191Y109890000D01*
X-156928802Y109986673D01*
X-156750173Y110165301D01*
X-156653500Y110398690D01*
X-156653500Y110989250D01*
X-156812248Y111147998D01*
X-156676510Y111147998D01*
X-155452000Y109923487D01*
X-155451999Y97473635D01*
X-155676577Y97323577D01*
X-155993740Y96848909D01*
X-156105113Y96289000D01*
X-155993740Y95729091D01*
X-155676577Y95254423D01*
X-155451999Y95104365D01*
X-155452000Y73597635D01*
X-155676577Y73447577D01*
X-155993740Y72972909D01*
X-156105113Y72413000D01*
X-155993740Y71853091D01*
X-155676577Y71378423D01*
X-155452000Y71228365D01*
X-155451999Y67501635D01*
X-155676577Y67351577D01*
X-155993740Y66876909D01*
X-156105113Y66317000D01*
X-155993740Y65757091D01*
X-155676577Y65282423D01*
X-155201909Y64965260D01*
X-154783333Y64882000D01*
X-154500667Y64882000D01*
X-154082091Y64965260D01*
X-153607423Y65282423D01*
X-153290260Y65757091D01*
X-153178887Y66317000D01*
X-153290260Y66876909D01*
X-153607423Y67351577D01*
X-153832000Y67501635D01*
X-153832000Y71228365D01*
X-153607423Y71378423D01*
X-153290260Y71853091D01*
X-153178887Y72413000D01*
X-153290260Y72972909D01*
X-153607423Y73447577D01*
X-153832000Y73597635D01*
X-153832000Y95104365D01*
X-153607423Y95254423D01*
X-153290260Y95729091D01*
X-153178887Y96289000D01*
X-153290260Y96848909D01*
X-153607423Y97323577D01*
X-153832000Y97473635D01*
X-153832000Y107637364D01*
X-153807014Y107612378D01*
X-153692139Y107727253D01*
X-153618005Y107481136D01*
X-153080777Y107288035D01*
X-152510546Y107315222D01*
X-152109995Y107481136D01*
X-152035861Y107727253D01*
X-151920986Y107612378D01*
X-151896000Y107637364D01*
X-151895999Y97473635D01*
X-152120577Y97323577D01*
X-152437740Y96848909D01*
X-152549113Y96289000D01*
X-152437740Y95729091D01*
X-152120577Y95254423D01*
X-151896000Y95104365D01*
X-151895999Y73597635D01*
X-152120577Y73447577D01*
X-152437740Y72972909D01*
X-152549113Y72413000D01*
X-152437740Y71853091D01*
X-152120577Y71378423D01*
X-151896000Y71228365D01*
X-151895999Y67501635D01*
X-152120577Y67351577D01*
X-152437740Y66876909D01*
X-152549113Y66317000D01*
X-152437740Y65757091D01*
X-152120577Y65282423D01*
X-151645909Y64965260D01*
X-151227333Y64882000D01*
X-150944667Y64882000D01*
X-150526091Y64965260D01*
X-150051423Y65282423D01*
X-149734260Y65757091D01*
X-149622887Y66317000D01*
X-149734260Y66876909D01*
X-150051423Y67351577D01*
X-150276000Y67501635D01*
X-150276000Y71228365D01*
X-150051423Y71378423D01*
X-149734260Y71853091D01*
X-149622887Y72413000D01*
X-149734260Y72972909D01*
X-150051423Y73447577D01*
X-150276000Y73597635D01*
X-150276000Y84184700D01*
X-149239733Y84184700D01*
X-149132241Y83644300D01*
X-148826129Y83186171D01*
X-148368000Y82880059D01*
X-147964007Y82799700D01*
X-146791193Y82799700D01*
X-146387200Y82880059D01*
X-145929071Y83186171D01*
X-145622959Y83644300D01*
X-145515467Y84184700D01*
X-145622959Y84725100D01*
X-145929071Y85183229D01*
X-146387200Y85489341D01*
X-146791193Y85569700D01*
X-147964007Y85569700D01*
X-148368000Y85489341D01*
X-148826129Y85183229D01*
X-149132241Y84725100D01*
X-149239733Y84184700D01*
X-150276000Y84184700D01*
X-150276000Y86998950D01*
X-149112600Y86998950D01*
X-149112600Y86408390D01*
X-149015927Y86175001D01*
X-148837298Y85996373D01*
X-148603909Y85899700D01*
X-147663350Y85899700D01*
X-147504600Y86058450D01*
X-147504600Y87157700D01*
X-147250600Y87157700D01*
X-147250600Y86058450D01*
X-147091850Y85899700D01*
X-146151291Y85899700D01*
X-145917902Y85996373D01*
X-145739273Y86175001D01*
X-145642600Y86408390D01*
X-145642600Y86998950D01*
X-145801350Y87157700D01*
X-147250600Y87157700D01*
X-147504600Y87157700D01*
X-148953850Y87157700D01*
X-149112600Y86998950D01*
X-150276000Y86998950D01*
X-150276000Y88161010D01*
X-149112600Y88161010D01*
X-149112600Y87570450D01*
X-148953850Y87411700D01*
X-147504600Y87411700D01*
X-147504600Y88510950D01*
X-147250600Y88510950D01*
X-147250600Y87411700D01*
X-145801350Y87411700D01*
X-145642600Y87570450D01*
X-145642600Y88161010D01*
X-145739273Y88394399D01*
X-145917902Y88573027D01*
X-146151291Y88669700D01*
X-147091850Y88669700D01*
X-147250600Y88510950D01*
X-147504600Y88510950D01*
X-147663350Y88669700D01*
X-148603909Y88669700D01*
X-148837298Y88573027D01*
X-149015927Y88394399D01*
X-149112600Y88161010D01*
X-150276000Y88161010D01*
X-150276000Y95104365D01*
X-150051423Y95254423D01*
X-149734260Y95729091D01*
X-149622887Y96289000D01*
X-149734260Y96848909D01*
X-150051423Y97323577D01*
X-150276000Y97473635D01*
X-150276000Y108187700D01*
X-149239733Y108187700D01*
X-149132241Y107647300D01*
X-148826129Y107189171D01*
X-148368000Y106883059D01*
X-147964007Y106802700D01*
X-146791193Y106802700D01*
X-146387200Y106883059D01*
X-145929071Y107189171D01*
X-145622959Y107647300D01*
X-145515467Y108187700D01*
X-145622959Y108728100D01*
X-145929071Y109186229D01*
X-146387200Y109492341D01*
X-146791193Y109572700D01*
X-147964007Y109572700D01*
X-148368000Y109492341D01*
X-148826129Y109186229D01*
X-149132241Y108728100D01*
X-149239733Y108187700D01*
X-150276000Y108187700D01*
X-150276000Y109923488D01*
X-149038789Y111160698D01*
X-148953852Y111160698D01*
X-149112600Y111001950D01*
X-149112600Y110411390D01*
X-149015927Y110178001D01*
X-148837298Y109999373D01*
X-148603909Y109902700D01*
X-147663350Y109902700D01*
X-147504600Y110061450D01*
X-147504600Y111160700D01*
X-147250600Y111160700D01*
X-147250600Y110061450D01*
X-147091850Y109902700D01*
X-146151291Y109902700D01*
X-145917902Y109999373D01*
X-145739273Y110178001D01*
X-145642600Y110411390D01*
X-145642600Y111001950D01*
X-145801350Y111160700D01*
X-147250600Y111160700D01*
X-147504600Y111160700D01*
X-147524600Y111160700D01*
X-147524600Y111414700D01*
X-147504600Y111414700D01*
X-147504600Y111434700D01*
X-147250600Y111434700D01*
X-147250600Y111414700D01*
X-145801350Y111414700D01*
X-145642600Y111573450D01*
X-145642600Y112164010D01*
X-145648542Y112178356D01*
X-145385333Y112126000D01*
X-145102667Y112126000D01*
X-144684091Y112209260D01*
X-144209423Y112526423D01*
X-143892260Y113001091D01*
X-143780887Y113561000D01*
X-143892260Y114120909D01*
X-144209423Y114595577D01*
X-144684091Y114912740D01*
X-145102667Y114996000D01*
X-145385333Y114996000D01*
X-145803909Y114912740D01*
X-146278577Y114595577D01*
X-146428635Y114371000D01*
X-146599365Y114371000D01*
X-146749423Y114595577D01*
X-147224091Y114912740D01*
X-147642667Y114996000D01*
X-147925333Y114996000D01*
X-148343909Y114912740D01*
X-148818577Y114595577D01*
X-149054000Y114243242D01*
X-149289423Y114595577D01*
X-149764091Y114912740D01*
X-150182667Y114996000D01*
X-150465333Y114996000D01*
X-150883909Y114912740D01*
X-151358577Y114595577D01*
X-151594000Y114243242D01*
X-151829423Y114595577D01*
X-152304091Y114912740D01*
X-152722667Y114996000D01*
X-153005333Y114996000D01*
X-153423909Y114912740D01*
X-153898577Y114595577D01*
X-154134000Y114243242D01*
X-154369423Y114595577D01*
X-154844091Y114912740D01*
X-155262667Y114996000D01*
X-155545333Y114996000D01*
X-155668907Y114971419D01*
X-155687652Y114990164D01*
X-155705330Y115001976D01*
X-155864000Y115144914D01*
X-155864000Y119809387D01*
X-155545333Y119746000D01*
X-155262667Y119746000D01*
X-154844091Y119829260D01*
X-154369423Y120146423D01*
X-154134000Y120498758D01*
X-153898577Y120146423D01*
X-153423909Y119829260D01*
X-153005333Y119746000D01*
X-152722667Y119746000D01*
X-152304091Y119829260D01*
X-151829423Y120146423D01*
X-151594000Y120498758D01*
X-151358577Y120146423D01*
X-150883909Y119829260D01*
X-150465333Y119746000D01*
X-150182667Y119746000D01*
X-149764091Y119829260D01*
X-149289423Y120146423D01*
X-149054000Y120498758D01*
X-148818577Y120146423D01*
X-148343909Y119829260D01*
X-147925333Y119746000D01*
X-147642667Y119746000D01*
X-147224091Y119829260D01*
X-146749423Y120146423D01*
X-146599365Y120371000D01*
X-146428635Y120371000D01*
X-146278577Y120146423D01*
X-145803909Y119829260D01*
X-145385333Y119746000D01*
X-145102667Y119746000D01*
X-144684091Y119829260D01*
X-144217901Y120140758D01*
X-141482000Y117404857D01*
X-141481999Y97500148D01*
X-141482000Y97500143D01*
X-141482000Y97473635D01*
X-141706577Y97323577D01*
X-142023740Y96848909D01*
X-142062979Y96651643D01*
X-142249466Y97101862D01*
X-142653138Y97505534D01*
X-143180561Y97724000D01*
X-143751439Y97724000D01*
X-143754302Y97722814D01*
X-145541561Y99510073D01*
X-145466446Y99887700D01*
X-145570058Y100408591D01*
X-145865119Y100850181D01*
X-146306709Y101145242D01*
X-146696115Y101222700D01*
X-148059085Y101222700D01*
X-148448491Y101145242D01*
X-148890081Y100850181D01*
X-149185142Y100408591D01*
X-149288754Y99887700D01*
X-149185142Y99366809D01*
X-148890081Y98925219D01*
X-148448491Y98630158D01*
X-148059085Y98552700D01*
X-146875212Y98552700D01*
X-144899814Y96577302D01*
X-144901000Y96574439D01*
X-144901000Y96003561D01*
X-144682534Y95476138D01*
X-144278862Y95072466D01*
X-143751439Y94854000D01*
X-143180561Y94854000D01*
X-142653138Y95072466D01*
X-142249466Y95476138D01*
X-142062979Y95926357D01*
X-142023740Y95729091D01*
X-141706577Y95254423D01*
X-141482000Y95104365D01*
X-141481999Y73597635D01*
X-141706577Y73447577D01*
X-142023740Y72972909D01*
X-142062979Y72775643D01*
X-142249466Y73225862D01*
X-142653138Y73629534D01*
X-143180561Y73848000D01*
X-143751439Y73848000D01*
X-143754302Y73846814D01*
X-145520490Y75613002D01*
X-145466446Y75884700D01*
X-145570058Y76405591D01*
X-145865119Y76847181D01*
X-146306709Y77142242D01*
X-146696115Y77219700D01*
X-148059085Y77219700D01*
X-148448491Y77142242D01*
X-148890081Y76847181D01*
X-149185142Y76405591D01*
X-149288754Y75884700D01*
X-149185142Y75363809D01*
X-148890081Y74922219D01*
X-148448491Y74627158D01*
X-148059085Y74549700D01*
X-146748212Y74549700D01*
X-144899814Y72701302D01*
X-144901000Y72698439D01*
X-144901000Y72127561D01*
X-144682534Y71600138D01*
X-144278862Y71196466D01*
X-143751439Y70978000D01*
X-143180561Y70978000D01*
X-142653138Y71196466D01*
X-142249466Y71600138D01*
X-142062979Y72050357D01*
X-142023740Y71853091D01*
X-141706577Y71378423D01*
X-141482000Y71228365D01*
X-141481999Y67501635D01*
X-141706577Y67351577D01*
X-142023740Y66876909D01*
X-142062979Y66679643D01*
X-142249466Y67129862D01*
X-142653138Y67533534D01*
X-143180561Y67752000D01*
X-143751439Y67752000D01*
X-144278862Y67533534D01*
X-144682534Y67129862D01*
X-144901000Y66602439D01*
X-144901000Y66031561D01*
X-144682534Y65504138D01*
X-144278862Y65100466D01*
X-144276000Y65099280D01*
X-144275999Y55566114D01*
X-146647736Y53194377D01*
X-146696115Y53204000D01*
X-148059085Y53204000D01*
X-148448491Y53126542D01*
X-148890081Y52831481D01*
X-149185142Y52389891D01*
X-149288754Y51869000D01*
X-149185142Y51348109D01*
X-148890081Y50906519D01*
X-148482834Y50634405D01*
X-148864430Y50379430D01*
X-149065854Y50077979D01*
X-149117179Y50187490D01*
X-149549053Y50581688D01*
X-149964974Y50753958D01*
X-150197000Y50632817D01*
X-150197000Y49426000D01*
X-150177000Y49426000D01*
X-150177000Y49172000D01*
X-150197000Y49172000D01*
X-150197000Y46886000D01*
X-150177000Y46886000D01*
X-150177000Y46632000D01*
X-150197000Y46632000D01*
X-150197000Y45425183D01*
X-149964974Y45304042D01*
X-149549053Y45476312D01*
X-149263520Y45736936D01*
X-149245757Y45647635D01*
X-149105409Y45437591D01*
X-148895365Y45297243D01*
X-148647600Y45247960D01*
X-146920400Y45247960D01*
X-146672635Y45297243D01*
X-146462591Y45437591D01*
X-146322243Y45647635D01*
X-146295662Y45781266D01*
X-146056862Y45542466D01*
X-145529439Y45324000D01*
X-144958561Y45324000D01*
X-144431138Y45542466D01*
X-144027466Y45946138D01*
X-143809000Y46473561D01*
X-143809000Y46759000D01*
X-139087113Y46759000D01*
X-138975740Y46199091D01*
X-138658577Y45724423D01*
X-138183909Y45407260D01*
X-137765333Y45324000D01*
X-137482667Y45324000D01*
X-137447562Y45330983D01*
X-137081423Y44964844D01*
X-137032049Y44890951D01*
X-136958156Y44841577D01*
X-136958155Y44841576D01*
X-136770424Y44716138D01*
X-136739310Y44695348D01*
X-136481165Y44644000D01*
X-136481161Y44644000D01*
X-136394000Y44626663D01*
X-136306839Y44644000D01*
X-134958396Y44644000D01*
X-134626862Y44312466D01*
X-134099439Y44094000D01*
X-133528561Y44094000D01*
X-133001138Y44312466D01*
X-132597466Y44716138D01*
X-132379000Y45243561D01*
X-132379000Y45814439D01*
X-132597466Y46341862D01*
X-132860759Y46605155D01*
X-132654301Y46690673D01*
X-132475673Y46869302D01*
X-132379000Y47102691D01*
X-132379000Y47743250D01*
X-132537750Y47902000D01*
X-133687000Y47902000D01*
X-133687000Y47882000D01*
X-133941000Y47882000D01*
X-133941000Y47902000D01*
X-135090250Y47902000D01*
X-135249000Y47743250D01*
X-135249000Y47102691D01*
X-135152327Y46869302D01*
X-134973699Y46690673D01*
X-134767241Y46605155D01*
X-134958396Y46414000D01*
X-136027421Y46414000D01*
X-136195983Y46582561D01*
X-136160887Y46759000D01*
X-136272260Y47318909D01*
X-136589423Y47793577D01*
X-137064091Y48110740D01*
X-137482667Y48194000D01*
X-137765333Y48194000D01*
X-138183909Y48110740D01*
X-138658577Y47793577D01*
X-138975740Y47318909D01*
X-139087113Y46759000D01*
X-143809000Y46759000D01*
X-143809000Y47044439D01*
X-144027466Y47571862D01*
X-144431138Y47975534D01*
X-144958561Y48194000D01*
X-145529439Y48194000D01*
X-146056862Y47975534D01*
X-146295662Y47736734D01*
X-146322243Y47870365D01*
X-146462591Y48080409D01*
X-146672635Y48220757D01*
X-146698651Y48225932D01*
X-146372350Y48714275D01*
X-146324406Y48955309D01*
X-135249000Y48955309D01*
X-135249000Y48314750D01*
X-135090250Y48156000D01*
X-133941000Y48156000D01*
X-133941000Y49305250D01*
X-133687000Y49305250D01*
X-133687000Y48156000D01*
X-132537750Y48156000D01*
X-132379000Y48314750D01*
X-132379000Y48955309D01*
X-132475673Y49188698D01*
X-132654301Y49367327D01*
X-132887690Y49464000D01*
X-133528250Y49464000D01*
X-133687000Y49305250D01*
X-133941000Y49305250D01*
X-134099750Y49464000D01*
X-134740310Y49464000D01*
X-134973699Y49367327D01*
X-135152327Y49188698D01*
X-135249000Y48955309D01*
X-146324406Y48955309D01*
X-146256041Y49299000D01*
X-146372350Y49883725D01*
X-146703570Y50379430D01*
X-146934900Y50534000D01*
X-146696115Y50534000D01*
X-146306709Y50611458D01*
X-145865119Y50906519D01*
X-145570058Y51348109D01*
X-145466446Y51869000D01*
X-145502223Y52048864D01*
X-142949653Y54601434D01*
X-142882023Y54646623D01*
X-142702997Y54914554D01*
X-142656000Y55150826D01*
X-142656000Y55150830D01*
X-142640133Y55230599D01*
X-142656000Y55310369D01*
X-142656000Y60181700D01*
X-138241533Y60181700D01*
X-138134041Y59641300D01*
X-137827929Y59183171D01*
X-137369800Y58877059D01*
X-136965807Y58796700D01*
X-135792993Y58796700D01*
X-135389000Y58877059D01*
X-134930871Y59183171D01*
X-134624759Y59641300D01*
X-134517267Y60181700D01*
X-134624759Y60722100D01*
X-134930871Y61180229D01*
X-135389000Y61486341D01*
X-135792993Y61566700D01*
X-136965807Y61566700D01*
X-137369800Y61486341D01*
X-137827929Y61180229D01*
X-138134041Y60722100D01*
X-138241533Y60181700D01*
X-142656000Y60181700D01*
X-142656000Y62995950D01*
X-138114400Y62995950D01*
X-138114400Y62405390D01*
X-138017727Y62172001D01*
X-137839098Y61993373D01*
X-137605709Y61896700D01*
X-136665150Y61896700D01*
X-136506400Y62055450D01*
X-136506400Y63154700D01*
X-136252400Y63154700D01*
X-136252400Y62055450D01*
X-136093650Y61896700D01*
X-135153091Y61896700D01*
X-134919702Y61993373D01*
X-134741073Y62172001D01*
X-134644400Y62405390D01*
X-134644400Y62995950D01*
X-134803150Y63154700D01*
X-136252400Y63154700D01*
X-136506400Y63154700D01*
X-137955650Y63154700D01*
X-138114400Y62995950D01*
X-142656000Y62995950D01*
X-142656000Y64158010D01*
X-138114400Y64158010D01*
X-138114400Y63567450D01*
X-137955650Y63408700D01*
X-136506400Y63408700D01*
X-136506400Y64507950D01*
X-136252400Y64507950D01*
X-136252400Y63408700D01*
X-134803150Y63408700D01*
X-134644400Y63567450D01*
X-134644400Y64158010D01*
X-134741073Y64391399D01*
X-134919702Y64570027D01*
X-135153091Y64666700D01*
X-136093650Y64666700D01*
X-136252400Y64507950D01*
X-136506400Y64507950D01*
X-136665150Y64666700D01*
X-137605709Y64666700D01*
X-137839098Y64570027D01*
X-138017727Y64391399D01*
X-138114400Y64158010D01*
X-142656000Y64158010D01*
X-142656000Y65099281D01*
X-142653138Y65100466D01*
X-142249466Y65504138D01*
X-142062979Y65954357D01*
X-142023740Y65757091D01*
X-141706577Y65282423D01*
X-141231909Y64965260D01*
X-140813333Y64882000D01*
X-140530667Y64882000D01*
X-140112091Y64965260D01*
X-139637423Y65282423D01*
X-139320260Y65757091D01*
X-139208887Y66317000D01*
X-139320260Y66876909D01*
X-139637423Y67351577D01*
X-139862000Y67501635D01*
X-139862000Y71228365D01*
X-139637423Y71378423D01*
X-139320260Y71853091D01*
X-139208887Y72413000D01*
X-139320260Y72972909D01*
X-139637423Y73447577D01*
X-139862000Y73597635D01*
X-139862000Y84172000D01*
X-138241533Y84172000D01*
X-138134041Y83631600D01*
X-137827929Y83173471D01*
X-137369800Y82867359D01*
X-136965807Y82787000D01*
X-135792993Y82787000D01*
X-135389000Y82867359D01*
X-134930871Y83173471D01*
X-134624759Y83631600D01*
X-134517267Y84172000D01*
X-134624759Y84712400D01*
X-134930871Y85170529D01*
X-135389000Y85476641D01*
X-135792993Y85557000D01*
X-136965807Y85557000D01*
X-137369800Y85476641D01*
X-137827929Y85170529D01*
X-138134041Y84712400D01*
X-138241533Y84172000D01*
X-139862000Y84172000D01*
X-139862000Y86986250D01*
X-138114400Y86986250D01*
X-138114400Y86395690D01*
X-138017727Y86162301D01*
X-137839098Y85983673D01*
X-137605709Y85887000D01*
X-136665150Y85887000D01*
X-136506400Y86045750D01*
X-136506400Y87145000D01*
X-136252400Y87145000D01*
X-136252400Y86045750D01*
X-136093650Y85887000D01*
X-135153091Y85887000D01*
X-134919702Y85983673D01*
X-134741073Y86162301D01*
X-134644400Y86395690D01*
X-134644400Y86986250D01*
X-134803150Y87145000D01*
X-136252400Y87145000D01*
X-136506400Y87145000D01*
X-137955650Y87145000D01*
X-138114400Y86986250D01*
X-139862000Y86986250D01*
X-139862000Y88148310D01*
X-138114400Y88148310D01*
X-138114400Y87557750D01*
X-137955650Y87399000D01*
X-136506400Y87399000D01*
X-136506400Y88498250D01*
X-136252400Y88498250D01*
X-136252400Y87399000D01*
X-134803150Y87399000D01*
X-134644400Y87557750D01*
X-134644400Y88148310D01*
X-134741073Y88381699D01*
X-134919702Y88560327D01*
X-135153091Y88657000D01*
X-136093650Y88657000D01*
X-136252400Y88498250D01*
X-136506400Y88498250D01*
X-136665150Y88657000D01*
X-137605709Y88657000D01*
X-137839098Y88560327D01*
X-138017727Y88381699D01*
X-138114400Y88148310D01*
X-139862000Y88148310D01*
X-139862000Y95104365D01*
X-139637423Y95254423D01*
X-139320260Y95729091D01*
X-139208887Y96289000D01*
X-139320260Y96848909D01*
X-139637423Y97323577D01*
X-139862000Y97473635D01*
X-139862000Y108187700D01*
X-138241533Y108187700D01*
X-138134041Y107647300D01*
X-137827929Y107189171D01*
X-137369800Y106883059D01*
X-136965807Y106802700D01*
X-135792993Y106802700D01*
X-135389000Y106883059D01*
X-134930871Y107189171D01*
X-134624759Y107647300D01*
X-134517267Y108187700D01*
X-134624759Y108728100D01*
X-134930871Y109186229D01*
X-135389000Y109492341D01*
X-135792993Y109572700D01*
X-136965807Y109572700D01*
X-137369800Y109492341D01*
X-137827929Y109186229D01*
X-138134041Y108728100D01*
X-138241533Y108187700D01*
X-139862000Y108187700D01*
X-139862000Y111001950D01*
X-138114400Y111001950D01*
X-138114400Y110411390D01*
X-138017727Y110178001D01*
X-137839098Y109999373D01*
X-137605709Y109902700D01*
X-136665150Y109902700D01*
X-136506400Y110061450D01*
X-136506400Y111160700D01*
X-136252400Y111160700D01*
X-136252400Y110061450D01*
X-136093650Y109902700D01*
X-135153091Y109902700D01*
X-134919702Y109999373D01*
X-134741073Y110178001D01*
X-134644400Y110411390D01*
X-134644400Y111001950D01*
X-134803150Y111160700D01*
X-136252400Y111160700D01*
X-136506400Y111160700D01*
X-137955650Y111160700D01*
X-138114400Y111001950D01*
X-139862000Y111001950D01*
X-139862000Y112164010D01*
X-138114400Y112164010D01*
X-138114400Y111573450D01*
X-137955650Y111414700D01*
X-136506400Y111414700D01*
X-136506400Y112513950D01*
X-136252400Y112513950D01*
X-136252400Y111414700D01*
X-134803150Y111414700D01*
X-134644400Y111573450D01*
X-134644400Y112164010D01*
X-134741073Y112397399D01*
X-134919702Y112576027D01*
X-135153091Y112672700D01*
X-136093650Y112672700D01*
X-136252400Y112513950D01*
X-136506400Y112513950D01*
X-136665150Y112672700D01*
X-137605709Y112672700D01*
X-137839098Y112576027D01*
X-138017727Y112397399D01*
X-138114400Y112164010D01*
X-139862000Y112164010D01*
X-139862000Y117660596D01*
X-139846132Y117740370D01*
X-139908997Y118056417D01*
X-140042835Y118256718D01*
X-140088023Y118324347D01*
X-140155653Y118369535D01*
X-143427118Y121641000D01*
X-139386173Y121641000D01*
X-139306400Y121625132D01*
X-139226627Y121641000D01*
X-139226626Y121641000D01*
X-138990354Y121687997D01*
X-138722423Y121867023D01*
X-138677232Y121934656D01*
X-137774680Y122837208D01*
X-137450291Y122620458D01*
X-137060885Y122543000D01*
X-135697915Y122543000D01*
X-135308509Y122620458D01*
X-134866919Y122915519D01*
X-134571858Y123357109D01*
X-134468246Y123878000D01*
X-134571858Y124398891D01*
X-134866919Y124840481D01*
X-135308509Y125135542D01*
X-135697915Y125213000D01*
X-137060885Y125213000D01*
X-137450291Y125135542D01*
X-137891881Y124840481D01*
X-137999068Y124680065D01*
X-138195447Y124641003D01*
X-138332130Y124549673D01*
X-138463377Y124461977D01*
X-138508566Y124394347D01*
X-139641912Y123261000D01*
X-145625790Y123261000D01*
X-145570058Y123344409D01*
X-145466446Y123865300D01*
X-145501814Y124043108D01*
X-138152865Y131368000D01*
X-137953900Y131368000D01*
X-137827929Y131179471D01*
X-137369800Y130873359D01*
X-136965807Y130793000D01*
X-135792993Y130793000D01*
X-135389000Y130873359D01*
X-134930871Y131179471D01*
X-134624759Y131637600D01*
X-134517267Y132178000D01*
X-134624759Y132718400D01*
X-134930871Y133176529D01*
X-135389000Y133482641D01*
X-135792993Y133563000D01*
X-136965807Y133563000D01*
X-137369800Y133482641D01*
X-137827929Y133176529D01*
X-137953900Y132988000D01*
X-138407157Y132988000D01*
X-138486247Y133003867D01*
X-138566705Y132988000D01*
X-138567374Y132988000D01*
X-138644866Y132972586D01*
X-138802395Y132941520D01*
X-138802969Y132941138D01*
X-138803646Y132941003D01*
X-138937294Y132851702D01*
X-139002916Y132808010D01*
X-139003388Y132807539D01*
X-139071577Y132761977D01*
X-139116395Y132694903D01*
X-146645676Y125190267D01*
X-146696115Y125200300D01*
X-148059085Y125200300D01*
X-148448491Y125122842D01*
X-148890081Y124827781D01*
X-149185142Y124386191D01*
X-149288754Y123865300D01*
X-149185142Y123344409D01*
X-149129922Y123261766D01*
X-149370047Y123214003D01*
X-149418599Y123181561D01*
X-149637977Y123034977D01*
X-149683168Y122967344D01*
X-150040347Y122610165D01*
X-150040350Y122610163D01*
X-150059093Y122591420D01*
X-150182667Y122616000D01*
X-150465333Y122616000D01*
X-150883909Y122532740D01*
X-151358577Y122215577D01*
X-151594000Y121863242D01*
X-151829423Y122215577D01*
X-151979000Y122315521D01*
X-151979000Y122322604D01*
X-151647466Y122654138D01*
X-151429000Y123181561D01*
X-151429000Y123752439D01*
X-151647466Y124279862D01*
X-152051138Y124683534D01*
X-152116299Y124710525D01*
X-152109995Y124713136D01*
X-152035861Y124959255D01*
X-152864000Y125787395D01*
X-153692139Y124959255D01*
X-153618005Y124713136D01*
X-153611254Y124710710D01*
X-153676862Y124683534D01*
X-154080534Y124279862D01*
X-154299000Y123752439D01*
X-154299000Y123181561D01*
X-154080534Y122654138D01*
X-153748999Y122322603D01*
X-153748999Y122315521D01*
X-153898577Y122215577D01*
X-154134000Y121863242D01*
X-154369423Y122215577D01*
X-154844091Y122532740D01*
X-155262667Y122616000D01*
X-155545333Y122616000D01*
X-155864000Y122552613D01*
X-155864000Y122617024D01*
X-155848298Y122688450D01*
X-155864000Y122776586D01*
X-155864000Y122784774D01*
X-155877982Y122855068D01*
X-155904817Y123005692D01*
X-155909354Y123012786D01*
X-155910997Y123021046D01*
X-155996011Y123148278D01*
X-156034614Y123208636D01*
X-156040285Y123214539D01*
X-156090023Y123288977D01*
X-156150832Y123329608D01*
X-156492759Y123685522D01*
X-156451946Y123890700D01*
X-156487314Y124068508D01*
X-154280744Y126267854D01*
X-154310965Y126183777D01*
X-154283778Y125613546D01*
X-154117864Y125212995D01*
X-153871745Y125138861D01*
X-153043605Y125967000D01*
X-152684395Y125967000D01*
X-151856255Y125138861D01*
X-151610136Y125212995D01*
X-151417035Y125750223D01*
X-151444222Y126320454D01*
X-151610136Y126721005D01*
X-151856255Y126795139D01*
X-152684395Y125967000D01*
X-153043605Y125967000D01*
X-153057748Y125981142D01*
X-152878142Y126160748D01*
X-152864000Y126146605D01*
X-152035861Y126974745D01*
X-152109995Y127220864D01*
X-152647223Y127413965D01*
X-153155166Y127389748D01*
X-149138365Y131393400D01*
X-148977558Y131393400D01*
X-148826129Y131166771D01*
X-148368000Y130860659D01*
X-147964007Y130780300D01*
X-146791193Y130780300D01*
X-146387200Y130860659D01*
X-145929071Y131166771D01*
X-145622959Y131624900D01*
X-145515467Y132165300D01*
X-145622959Y132705700D01*
X-145929071Y133163829D01*
X-146387200Y133469941D01*
X-146791193Y133550300D01*
X-147964007Y133550300D01*
X-148368000Y133469941D01*
X-148826129Y133163829D01*
X-148926642Y133013400D01*
X-149392657Y133013400D01*
X-149471747Y133029267D01*
X-149552205Y133013400D01*
X-149552874Y133013400D01*
X-149630366Y132997986D01*
X-149787895Y132966920D01*
X-149788469Y132966538D01*
X-149789146Y132966403D01*
X-149922794Y132877102D01*
X-149988416Y132833410D01*
X-149988888Y132832939D01*
X-150057077Y132787377D01*
X-150101895Y132720303D01*
X-157631176Y125215667D01*
X-157681615Y125225700D01*
X-159044585Y125225700D01*
X-159433991Y125148242D01*
X-159875581Y124853181D01*
X-160170642Y124411591D01*
X-160274254Y123890700D01*
X-160170642Y123369809D01*
X-159875581Y122928219D01*
X-159433991Y122633158D01*
X-159044585Y122555700D01*
X-158388481Y122555700D01*
X-158503909Y122532740D01*
X-158978577Y122215577D01*
X-159059215Y122094894D01*
X-159085843Y122228765D01*
X-159226191Y122438809D01*
X-159436235Y122579157D01*
X-159684000Y122628440D01*
X-161284000Y122628440D01*
X-161531765Y122579157D01*
X-161741809Y122438809D01*
X-161882157Y122228765D01*
X-161931440Y121981000D01*
X-161931440Y121889617D01*
X-161946884Y121879298D01*
X-162117977Y121764977D01*
X-162163166Y121697347D01*
X-166080344Y117780168D01*
X-166147977Y117734977D01*
X-166327003Y117467045D01*
X-166372472Y117238456D01*
X-166389868Y117151000D01*
X-166374000Y117071227D01*
X-166373999Y97500148D01*
X-166374000Y97500143D01*
X-166374000Y97473635D01*
X-166598577Y97323577D01*
X-166915740Y96848909D01*
X-167027113Y96289000D01*
X-171749000Y96289000D01*
X-171749000Y96574439D01*
X-171750186Y96577302D01*
X-169787487Y98540000D01*
X-168692515Y98540000D01*
X-168303109Y98617458D01*
X-167861519Y98912519D01*
X-167566458Y99354109D01*
X-167462846Y99875000D01*
X-167566458Y100395891D01*
X-167861519Y100837481D01*
X-168303109Y101132542D01*
X-168692515Y101210000D01*
X-170055485Y101210000D01*
X-170444891Y101132542D01*
X-170886481Y100837481D01*
X-171181542Y100395891D01*
X-171285154Y99875000D01*
X-171195290Y99423223D01*
X-172895698Y97722814D01*
X-172898561Y97724000D01*
X-173469439Y97724000D01*
X-173996862Y97505534D01*
X-173998000Y97504396D01*
X-173998000Y108175000D01*
X-171236133Y108175000D01*
X-171128641Y107634600D01*
X-170822529Y107176471D01*
X-170364400Y106870359D01*
X-169960407Y106790000D01*
X-168787593Y106790000D01*
X-168383600Y106870359D01*
X-167925471Y107176471D01*
X-167619359Y107634600D01*
X-167511867Y108175000D01*
X-167619359Y108715400D01*
X-167925471Y109173529D01*
X-168383600Y109479641D01*
X-168787593Y109560000D01*
X-169960407Y109560000D01*
X-170364400Y109479641D01*
X-170822529Y109173529D01*
X-171128641Y108715400D01*
X-171236133Y108175000D01*
X-173998000Y108175000D01*
X-173998000Y110989250D01*
X-171109000Y110989250D01*
X-171109000Y110398690D01*
X-171012327Y110165301D01*
X-170833698Y109986673D01*
X-170600309Y109890000D01*
X-169659750Y109890000D01*
X-169501000Y110048750D01*
X-169501000Y111148000D01*
X-169247000Y111148000D01*
X-169247000Y110048750D01*
X-169088250Y109890000D01*
X-168147691Y109890000D01*
X-167914302Y109986673D01*
X-167735673Y110165301D01*
X-167639000Y110398690D01*
X-167639000Y110989250D01*
X-167797750Y111148000D01*
X-169247000Y111148000D01*
X-169501000Y111148000D01*
X-170950250Y111148000D01*
X-171109000Y110989250D01*
X-173998000Y110989250D01*
X-173998000Y112151310D01*
X-171109000Y112151310D01*
X-171109000Y111560750D01*
X-170950250Y111402000D01*
X-169501000Y111402000D01*
X-169501000Y112501250D01*
X-169247000Y112501250D01*
X-169247000Y111402000D01*
X-167797750Y111402000D01*
X-167639000Y111560750D01*
X-167639000Y112151310D01*
X-167735673Y112384699D01*
X-167914302Y112563327D01*
X-168147691Y112660000D01*
X-169088250Y112660000D01*
X-169247000Y112501250D01*
X-169501000Y112501250D01*
X-169659750Y112660000D01*
X-170600309Y112660000D01*
X-170833698Y112563327D01*
X-171012327Y112384699D01*
X-171109000Y112151310D01*
X-173998000Y112151310D01*
X-173998000Y123878000D01*
X-171285154Y123878000D01*
X-171181542Y123357109D01*
X-170886481Y122915519D01*
X-170444891Y122620458D01*
X-170055485Y122543000D01*
X-168692515Y122543000D01*
X-168303109Y122620458D01*
X-167861519Y122915519D01*
X-167566458Y123357109D01*
X-167462846Y123878000D01*
X-167498214Y124055808D01*
X-160149265Y131380700D01*
X-159937600Y131380700D01*
X-159811629Y131192171D01*
X-159353500Y130886059D01*
X-158949507Y130805700D01*
X-157776693Y130805700D01*
X-157372700Y130886059D01*
X-156914571Y131192171D01*
X-156608459Y131650300D01*
X-156500967Y132190700D01*
X-156608459Y132731100D01*
X-156914571Y133189229D01*
X-157372700Y133495341D01*
X-157776693Y133575700D01*
X-158949507Y133575700D01*
X-159353500Y133495341D01*
X-159811629Y133189229D01*
X-159937600Y133000700D01*
X-160403557Y133000700D01*
X-160482647Y133016567D01*
X-160563105Y133000700D01*
X-160563774Y133000700D01*
X-160641266Y132985286D01*
X-160798795Y132954220D01*
X-160799369Y132953838D01*
X-160800046Y132953703D01*
X-160933694Y132864402D01*
X-160999316Y132820710D01*
X-160999788Y132820239D01*
X-161067977Y132774677D01*
X-161112795Y132707603D01*
X-168642076Y125202967D01*
X-168692515Y125213000D01*
X-170055485Y125213000D01*
X-170444891Y125135542D01*
X-170886481Y124840481D01*
X-171181542Y124398891D01*
X-171285154Y123878000D01*
X-173998000Y123878000D01*
X-173998000Y132178000D01*
X-171236133Y132178000D01*
X-171128641Y131637600D01*
X-170822529Y131179471D01*
X-170364400Y130873359D01*
X-169960407Y130793000D01*
X-168787593Y130793000D01*
X-168383600Y130873359D01*
X-167925471Y131179471D01*
X-167619359Y131637600D01*
X-167511867Y132178000D01*
X-167619359Y132718400D01*
X-167925471Y133176529D01*
X-168383600Y133482641D01*
X-168787593Y133563000D01*
X-169960407Y133563000D01*
X-170364400Y133482641D01*
X-170822529Y133176529D01*
X-171128641Y132718400D01*
X-171236133Y132178000D01*
X-173998000Y132178000D01*
X-173998000Y134992250D01*
X-171109000Y134992250D01*
X-171109000Y134401690D01*
X-171012327Y134168301D01*
X-170833698Y133989673D01*
X-170600309Y133893000D01*
X-169659750Y133893000D01*
X-169501000Y134051750D01*
X-169501000Y135151000D01*
X-169247000Y135151000D01*
X-169247000Y134051750D01*
X-169088250Y133893000D01*
X-168147691Y133893000D01*
X-167914302Y133989673D01*
X-167735673Y134168301D01*
X-167639000Y134401690D01*
X-167639000Y134992250D01*
X-167651700Y135004950D01*
X-160098100Y135004950D01*
X-160098100Y134414390D01*
X-160001427Y134181001D01*
X-159822798Y134002373D01*
X-159589409Y133905700D01*
X-158648850Y133905700D01*
X-158490100Y134064450D01*
X-158490100Y135163700D01*
X-158236100Y135163700D01*
X-158236100Y134064450D01*
X-158077350Y133905700D01*
X-157136791Y133905700D01*
X-156903402Y134002373D01*
X-156724773Y134181001D01*
X-156628100Y134414390D01*
X-156628100Y134979550D01*
X-149112600Y134979550D01*
X-149112600Y134388990D01*
X-149015927Y134155601D01*
X-148837298Y133976973D01*
X-148603909Y133880300D01*
X-147663350Y133880300D01*
X-147504600Y134039050D01*
X-147504600Y135138300D01*
X-147250600Y135138300D01*
X-147250600Y134039050D01*
X-147091850Y133880300D01*
X-146151291Y133880300D01*
X-145917902Y133976973D01*
X-145739273Y134155601D01*
X-145642600Y134388990D01*
X-145642600Y134979550D01*
X-145655300Y134992250D01*
X-138114400Y134992250D01*
X-138114400Y134401690D01*
X-138017727Y134168301D01*
X-137839098Y133989673D01*
X-137605709Y133893000D01*
X-136665150Y133893000D01*
X-136506400Y134051750D01*
X-136506400Y135151000D01*
X-136252400Y135151000D01*
X-136252400Y134051750D01*
X-136093650Y133893000D01*
X-135153091Y133893000D01*
X-134919702Y133989673D01*
X-134741073Y134168301D01*
X-134644400Y134401690D01*
X-134644400Y134992250D01*
X-134803150Y135151000D01*
X-136252400Y135151000D01*
X-136506400Y135151000D01*
X-137955650Y135151000D01*
X-138114400Y134992250D01*
X-145655300Y134992250D01*
X-145801350Y135138300D01*
X-147250600Y135138300D01*
X-147504600Y135138300D01*
X-148953850Y135138300D01*
X-149112600Y134979550D01*
X-156628100Y134979550D01*
X-156628100Y135004950D01*
X-156786850Y135163700D01*
X-158236100Y135163700D01*
X-158490100Y135163700D01*
X-159939350Y135163700D01*
X-160098100Y135004950D01*
X-167651700Y135004950D01*
X-167797750Y135151000D01*
X-169247000Y135151000D01*
X-169501000Y135151000D01*
X-170950250Y135151000D01*
X-171109000Y134992250D01*
X-173998000Y134992250D01*
X-173998000Y136473000D01*
X-170927026Y136473000D01*
X-171012327Y136387699D01*
X-171012327Y136387699D01*
G37*
X-171012327Y136387699D02*
X-171109000Y136154310D01*
X-171109000Y135563750D01*
X-170950250Y135405000D01*
X-169501000Y135405000D01*
X-169501000Y135425000D01*
X-169247000Y135425000D01*
X-169247000Y135405000D01*
X-167797750Y135405000D01*
X-167639000Y135563750D01*
X-167639000Y136154310D01*
X-167735673Y136387699D01*
X-167820974Y136473000D01*
X-159928826Y136473000D01*
X-160001427Y136400399D01*
X-160098100Y136167010D01*
X-160098100Y135576450D01*
X-159939350Y135417700D01*
X-158490100Y135417700D01*
X-158490100Y135437700D01*
X-158236100Y135437700D01*
X-158236100Y135417700D01*
X-156786850Y135417700D01*
X-156628100Y135576450D01*
X-156628100Y136167010D01*
X-156724773Y136400399D01*
X-156797374Y136473000D01*
X-148917925Y136473000D01*
X-149015927Y136374999D01*
X-149112600Y136141610D01*
X-149112600Y135551050D01*
X-148953850Y135392300D01*
X-147504600Y135392300D01*
X-147504600Y135412300D01*
X-147250600Y135412300D01*
X-147250600Y135392300D01*
X-145801350Y135392300D01*
X-145642600Y135551050D01*
X-145642600Y136141610D01*
X-145739273Y136374999D01*
X-145837275Y136473000D01*
X-137932426Y136473000D01*
X-138017727Y136387699D01*
X-138114400Y136154310D01*
X-138114400Y135563750D01*
X-137955650Y135405000D01*
X-136506400Y135405000D01*
X-136506400Y135425000D01*
X-136252400Y135425000D01*
X-136252400Y135405000D01*
X-134803150Y135405000D01*
X-134644400Y135563750D01*
X-134644400Y136154310D01*
X-134741073Y136387699D01*
X-134826374Y136473000D01*
X-131730000Y136473000D01*
X-131730000Y96847244D01*
X-131835466Y97101862D01*
X-132239138Y97505534D01*
X-132766561Y97724000D01*
X-133337439Y97724000D01*
X-133340302Y97722814D01*
X-134737058Y99119570D01*
X-134571858Y99366809D01*
X-134468246Y99887700D01*
X-134571858Y100408591D01*
X-134866919Y100850181D01*
X-135308509Y101145242D01*
X-135697915Y101222700D01*
X-137060885Y101222700D01*
X-137450291Y101145242D01*
X-137891881Y100850181D01*
X-138186942Y100408591D01*
X-138290554Y99887700D01*
X-138186942Y99366809D01*
X-137891881Y98925219D01*
X-137450291Y98630158D01*
X-137060885Y98552700D01*
X-136461212Y98552700D01*
X-134485814Y96577302D01*
X-134487000Y96574439D01*
X-134487000Y96003561D01*
X-134268534Y95476138D01*
X-133864862Y95072466D01*
X-133337439Y94854000D01*
X-132766561Y94854000D01*
X-132239138Y95072466D01*
X-131835466Y95476138D01*
X-131730000Y95730756D01*
X-131729999Y72971243D01*
X-131835466Y73225862D01*
X-132239138Y73629534D01*
X-132766561Y73848000D01*
X-133337439Y73848000D01*
X-133340302Y73846814D01*
X-134681102Y75187614D01*
X-134571858Y75351109D01*
X-134468246Y75872000D01*
X-134571858Y76392891D01*
X-134866919Y76834481D01*
X-135308509Y77129542D01*
X-135697915Y77207000D01*
X-137060885Y77207000D01*
X-137450291Y77129542D01*
X-137891881Y76834481D01*
X-138186942Y76392891D01*
X-138290554Y75872000D01*
X-138186942Y75351109D01*
X-137891881Y74909519D01*
X-137450291Y74614458D01*
X-137060885Y74537000D01*
X-136321512Y74537000D01*
X-134485814Y72701302D01*
X-134487000Y72698439D01*
X-134487000Y72127561D01*
X-134268534Y71600138D01*
X-133864862Y71196466D01*
X-133337439Y70978000D01*
X-132766561Y70978000D01*
X-132239138Y71196466D01*
X-131835466Y71600138D01*
X-131729999Y71854757D01*
X-131729999Y66875243D01*
X-131835466Y67129862D01*
X-132239138Y67533534D01*
X-132766561Y67752000D01*
X-133337439Y67752000D01*
X-133864862Y67533534D01*
X-134268534Y67129862D01*
X-134487000Y66602439D01*
X-134487000Y66031561D01*
X-134268534Y65504138D01*
X-133864862Y65100466D01*
X-133862000Y65099280D01*
X-133861999Y54994614D01*
X-135649536Y53207077D01*
X-135697915Y53216700D01*
X-137060885Y53216700D01*
X-137450291Y53139242D01*
X-137891881Y52844181D01*
X-138186942Y52402591D01*
X-138290554Y51881700D01*
X-138186942Y51360809D01*
X-137891881Y50919219D01*
X-137450291Y50624158D01*
X-137060885Y50546700D01*
X-135697915Y50546700D01*
X-135308509Y50624158D01*
X-134866919Y50919219D01*
X-134571858Y51360809D01*
X-134468246Y51881700D01*
X-134504023Y52061564D01*
X-132535653Y54029934D01*
X-132468023Y54075123D01*
X-132315672Y54303132D01*
X-132288997Y54343053D01*
X-132226132Y54659100D01*
X-132242000Y54738874D01*
X-132242000Y65099281D01*
X-132239138Y65100466D01*
X-131835466Y65504138D01*
X-131729999Y65758757D01*
X-131729999Y43659000D01*
X-173998000Y43659000D01*
X-173998000Y44267255D01*
X-172742139Y44267255D01*
X-172668005Y44021136D01*
X-172130777Y43828035D01*
X-171560546Y43855222D01*
X-171159995Y44021136D01*
X-171085861Y44267255D01*
X-171914000Y45095395D01*
X-172742139Y44267255D01*
X-173998000Y44267255D01*
X-173998000Y45491777D01*
X-173360965Y45491777D01*
X-173333778Y44921546D01*
X-173167864Y44520995D01*
X-172921745Y44446861D01*
X-172093605Y45275000D01*
X-171734395Y45275000D01*
X-170906255Y44446861D01*
X-170660136Y44520995D01*
X-170467035Y45058223D01*
X-170494222Y45628454D01*
X-170660136Y46029005D01*
X-170906255Y46103139D01*
X-171734395Y45275000D01*
X-172093605Y45275000D01*
X-172921745Y46103139D01*
X-173167864Y46029005D01*
X-173360965Y45491777D01*
X-173998000Y45491777D01*
X-173998000Y48575000D01*
X-173361440Y48575000D01*
X-173361440Y46975000D01*
X-173312157Y46727235D01*
X-173171809Y46517191D01*
X-172961765Y46376843D01*
X-172727813Y46330307D01*
X-172742139Y46282745D01*
X-171914000Y45454605D01*
X-171085861Y46282745D01*
X-171100187Y46330307D01*
X-170866235Y46376843D01*
X-170656191Y46517191D01*
X-170515843Y46727235D01*
X-170483467Y46890000D01*
X-169541055Y46890000D01*
X-169567113Y46759000D01*
X-169455740Y46199091D01*
X-169138577Y45724423D01*
X-168663909Y45407260D01*
X-168245333Y45324000D01*
X-167962667Y45324000D01*
X-167544091Y45407260D01*
X-167069423Y45724423D01*
X-166752260Y46199091D01*
X-166640887Y46759000D01*
X-166752260Y47318909D01*
X-167069423Y47793577D01*
X-167544091Y48110740D01*
X-167962667Y48194000D01*
X-168245333Y48194000D01*
X-168280439Y48187017D01*
X-168432575Y48339153D01*
X-168481951Y48413049D01*
X-168774690Y48608652D01*
X-169032835Y48660000D01*
X-169032839Y48660000D01*
X-169120000Y48677337D01*
X-169207161Y48660000D01*
X-170483467Y48660000D01*
X-170515843Y48822765D01*
X-170656191Y49032809D01*
X-170866235Y49173157D01*
X-171114000Y49222440D01*
X-172714000Y49222440D01*
X-172961765Y49173157D01*
X-173171809Y49032809D01*
X-173312157Y48822765D01*
X-173361440Y48575000D01*
X-173998000Y48575000D01*
X-173998000Y55069336D01*
X-173967211Y54914553D01*
X-173947002Y54812954D01*
X-173767976Y54545023D01*
X-173700346Y54499834D01*
X-171249377Y52048864D01*
X-171285154Y51869000D01*
X-171181542Y51348109D01*
X-170886481Y50906519D01*
X-170444891Y50611458D01*
X-170055485Y50534000D01*
X-168692515Y50534000D01*
X-168303109Y50611458D01*
X-167861519Y50906519D01*
X-167566458Y51348109D01*
X-167462846Y51869000D01*
X-167566458Y52389891D01*
X-167861519Y52831481D01*
X-168303109Y53126542D01*
X-168692515Y53204000D01*
X-170055485Y53204000D01*
X-170103864Y53194377D01*
X-172374000Y55464512D01*
X-172374000Y60169000D01*
X-171236133Y60169000D01*
X-171128641Y59628600D01*
X-170822529Y59170471D01*
X-170364400Y58864359D01*
X-169960407Y58784000D01*
X-168787593Y58784000D01*
X-168383600Y58864359D01*
X-167925471Y59170471D01*
X-167619359Y59628600D01*
X-167511867Y60169000D01*
X-167619359Y60709400D01*
X-167925471Y61167529D01*
X-168383600Y61473641D01*
X-168787593Y61554000D01*
X-169960407Y61554000D01*
X-170364400Y61473641D01*
X-170822529Y61167529D01*
X-171128641Y60709400D01*
X-171236133Y60169000D01*
X-172374000Y60169000D01*
X-172374000Y62983250D01*
X-171109000Y62983250D01*
X-171109000Y62392690D01*
X-171012327Y62159301D01*
X-170833698Y61980673D01*
X-170600309Y61884000D01*
X-169659750Y61884000D01*
X-169501000Y62042750D01*
X-169501000Y63142000D01*
X-169247000Y63142000D01*
X-169247000Y62042750D01*
X-169088250Y61884000D01*
X-168147691Y61884000D01*
X-167914302Y61980673D01*
X-167735673Y62159301D01*
X-167639000Y62392690D01*
X-167639000Y62983250D01*
X-167797750Y63142000D01*
X-169247000Y63142000D01*
X-169501000Y63142000D01*
X-170950250Y63142000D01*
X-171109000Y62983250D01*
X-172374000Y62983250D01*
X-172374000Y64145310D01*
X-171109000Y64145310D01*
X-171109000Y63554750D01*
X-170950250Y63396000D01*
X-169501000Y63396000D01*
X-169501000Y64495250D01*
X-169247000Y64495250D01*
X-169247000Y63396000D01*
X-167797750Y63396000D01*
X-167639000Y63554750D01*
X-167639000Y64145310D01*
X-167735673Y64378699D01*
X-167914302Y64557327D01*
X-168147691Y64654000D01*
X-169088250Y64654000D01*
X-169247000Y64495250D01*
X-169501000Y64495250D01*
X-169659750Y64654000D01*
X-170600309Y64654000D01*
X-170833698Y64557327D01*
X-171012327Y64378699D01*
X-171109000Y64145310D01*
X-172374000Y64145310D01*
X-172374000Y65099281D01*
X-172371138Y65100466D01*
X-171967466Y65504138D01*
X-171749000Y66031561D01*
X-171749000Y66602439D01*
X-171967466Y67129862D01*
X-172371138Y67533534D01*
X-172898561Y67752000D01*
X-173469439Y67752000D01*
X-173996862Y67533534D01*
X-173998000Y67532396D01*
X-173998000Y71197604D01*
X-173996862Y71196466D01*
X-173469439Y70978000D01*
X-172898561Y70978000D01*
X-172371138Y71196466D01*
X-171967466Y71600138D01*
X-171749000Y72127561D01*
X-171749000Y72698439D01*
X-171750186Y72701302D01*
X-169914487Y74537000D01*
X-168692515Y74537000D01*
X-168303109Y74614458D01*
X-167861519Y74909519D01*
X-167566458Y75351109D01*
X-167462846Y75872000D01*
X-167566458Y76392891D01*
X-167861519Y76834481D01*
X-168303109Y77129542D01*
X-168692515Y77207000D01*
X-170055485Y77207000D01*
X-170444891Y77129542D01*
X-170886481Y76834481D01*
X-171181542Y76392891D01*
X-171285154Y75872000D01*
X-171216360Y75526152D01*
X-172895698Y73846814D01*
X-172898561Y73848000D01*
X-173469439Y73848000D01*
X-173996862Y73629534D01*
X-173998000Y73628396D01*
X-173998000Y84172000D01*
X-171236133Y84172000D01*
X-171128641Y83631600D01*
X-170822529Y83173471D01*
X-170364400Y82867359D01*
X-169960407Y82787000D01*
X-168787593Y82787000D01*
X-168383600Y82867359D01*
X-167925471Y83173471D01*
X-167619359Y83631600D01*
X-167511867Y84172000D01*
X-167619359Y84712400D01*
X-167925471Y85170529D01*
X-168383600Y85476641D01*
X-168787593Y85557000D01*
X-169960407Y85557000D01*
X-170364400Y85476641D01*
X-170822529Y85170529D01*
X-171128641Y84712400D01*
X-171236133Y84172000D01*
X-173998000Y84172000D01*
X-173998000Y86986250D01*
X-171109000Y86986250D01*
X-171109000Y86395690D01*
X-171012327Y86162301D01*
X-170833698Y85983673D01*
X-170600309Y85887000D01*
X-169659750Y85887000D01*
X-169501000Y86045750D01*
X-169501000Y87145000D01*
X-169247000Y87145000D01*
X-169247000Y86045750D01*
X-169088250Y85887000D01*
X-168147691Y85887000D01*
X-167914302Y85983673D01*
X-167735673Y86162301D01*
X-167639000Y86395690D01*
X-167639000Y86986250D01*
X-167797750Y87145000D01*
X-169247000Y87145000D01*
X-169501000Y87145000D01*
X-170950250Y87145000D01*
X-171109000Y86986250D01*
X-173998000Y86986250D01*
X-173998000Y88148310D01*
X-171109000Y88148310D01*
X-171109000Y87557750D01*
X-170950250Y87399000D01*
X-169501000Y87399000D01*
X-169501000Y88498250D01*
X-169247000Y88498250D01*
X-169247000Y87399000D01*
X-167797750Y87399000D01*
X-167639000Y87557750D01*
X-167639000Y88148310D01*
X-167735673Y88381699D01*
X-167914302Y88560327D01*
X-168147691Y88657000D01*
X-169088250Y88657000D01*
X-169247000Y88498250D01*
X-169501000Y88498250D01*
X-169659750Y88657000D01*
X-170600309Y88657000D01*
X-170833698Y88560327D01*
X-171012327Y88381699D01*
X-171109000Y88148310D01*
X-173998000Y88148310D01*
X-173998000Y95073604D01*
X-173996862Y95072466D01*
X-173469439Y94854000D01*
X-172898561Y94854000D01*
X-172371138Y95072466D01*
X-171967466Y95476138D01*
X-171749000Y96003561D01*
X-171749000Y96289000D01*
X-167027113Y96289000D01*
X-166915740Y95729091D01*
X-166598577Y95254423D01*
X-166374000Y95104365D01*
X-166373999Y73597635D01*
X-166598577Y73447577D01*
X-166915740Y72972909D01*
X-167027113Y72413000D01*
X-166915740Y71853091D01*
X-166598577Y71378423D01*
X-166374000Y71228365D01*
X-166373999Y67501635D01*
X-166598577Y67351577D01*
X-166915740Y66876909D01*
X-167027113Y66317000D01*
X-166915740Y65757091D01*
X-166598577Y65282423D01*
X-166123909Y64965260D01*
X-165705333Y64882000D01*
X-165422667Y64882000D01*
X-165004091Y64965260D01*
X-164529423Y65282423D01*
X-164212260Y65757091D01*
X-164100887Y66317000D01*
X-164157664Y66602439D01*
X-163697000Y66602439D01*
X-163697000Y66031561D01*
X-163478534Y65504138D01*
X-163074862Y65100466D01*
X-163072000Y65099280D01*
X-163071999Y55272278D01*
X-163087868Y55192500D01*
X-163032580Y54914553D01*
X-163025002Y54876454D01*
X-162845976Y54608523D01*
X-162778346Y54563334D01*
X-160263877Y52048864D01*
X-160299654Y51869000D01*
X-160196042Y51348109D01*
X-159900981Y50906519D01*
X-159459391Y50611458D01*
X-159069985Y50534000D01*
X-158793100Y50534000D01*
X-159024430Y50379430D01*
X-159355650Y49883725D01*
X-159471959Y49299000D01*
X-159355650Y48714275D01*
X-159024430Y48218570D01*
X-158829000Y48087987D01*
X-158828999Y47970013D01*
X-159024430Y47839430D01*
X-159155012Y47644000D01*
X-159339604Y47644000D01*
X-159671138Y47975534D01*
X-160198561Y48194000D01*
X-160769439Y48194000D01*
X-161296862Y47975534D01*
X-161700534Y47571862D01*
X-161919000Y47044439D01*
X-161919000Y46473561D01*
X-161700534Y45946138D01*
X-161296862Y45542466D01*
X-160769439Y45324000D01*
X-160198561Y45324000D01*
X-159671138Y45542466D01*
X-159339604Y45874000D01*
X-159155012Y45874000D01*
X-159024430Y45678570D01*
X-158528725Y45347350D01*
X-158091598Y45260400D01*
X-157796402Y45260400D01*
X-157359275Y45347350D01*
X-156863570Y45678570D01*
X-156662146Y45980021D01*
X-156610821Y45870510D01*
X-156178947Y45476312D01*
X-155763026Y45304042D01*
X-155531000Y45425183D01*
X-155531000Y46632000D01*
X-155277000Y46632000D01*
X-155277000Y45425183D01*
X-155044974Y45304042D01*
X-154629053Y45476312D01*
X-154197179Y45870510D01*
X-154134000Y46005313D01*
X-154070821Y45870510D01*
X-153638947Y45476312D01*
X-153223026Y45304042D01*
X-152991000Y45425183D01*
X-152991000Y46632000D01*
X-152737000Y46632000D01*
X-152737000Y45425183D01*
X-152504974Y45304042D01*
X-152089053Y45476312D01*
X-151657179Y45870510D01*
X-151594000Y46005313D01*
X-151530821Y45870510D01*
X-151098947Y45476312D01*
X-150683026Y45304042D01*
X-150451000Y45425183D01*
X-150451000Y46632000D01*
X-152737000Y46632000D01*
X-152991000Y46632000D01*
X-155277000Y46632000D01*
X-155531000Y46632000D01*
X-155551000Y46632000D01*
X-155551000Y46886000D01*
X-155531000Y46886000D01*
X-155531000Y49172000D01*
X-155277000Y49172000D01*
X-155277000Y46886000D01*
X-152991000Y46886000D01*
X-152991000Y49172000D01*
X-152737000Y49172000D01*
X-152737000Y46886000D01*
X-150451000Y46886000D01*
X-150451000Y49172000D01*
X-152737000Y49172000D01*
X-152991000Y49172000D01*
X-155277000Y49172000D01*
X-155531000Y49172000D01*
X-155551000Y49172000D01*
X-155551000Y49426000D01*
X-155531000Y49426000D01*
X-155531000Y50632817D01*
X-155277000Y50632817D01*
X-155277000Y49426000D01*
X-152991000Y49426000D01*
X-152991000Y50632817D01*
X-152737000Y50632817D01*
X-152737000Y49426000D01*
X-150451000Y49426000D01*
X-150451000Y50632817D01*
X-150683026Y50753958D01*
X-151098947Y50581688D01*
X-151530821Y50187490D01*
X-151594000Y50052687D01*
X-151657179Y50187490D01*
X-152089053Y50581688D01*
X-152504974Y50753958D01*
X-152737000Y50632817D01*
X-152991000Y50632817D01*
X-153223026Y50753958D01*
X-153638947Y50581688D01*
X-154070821Y50187490D01*
X-154134000Y50052687D01*
X-154197179Y50187490D01*
X-154629053Y50581688D01*
X-155044974Y50753958D01*
X-155277000Y50632817D01*
X-155531000Y50632817D01*
X-155763026Y50753958D01*
X-156178947Y50581688D01*
X-156610821Y50187490D01*
X-156662146Y50077979D01*
X-156863570Y50379430D01*
X-157264216Y50647134D01*
X-156876019Y50906519D01*
X-156580958Y51348109D01*
X-156477346Y51869000D01*
X-156580958Y52389891D01*
X-156876019Y52831481D01*
X-157317609Y53126542D01*
X-157707015Y53204000D01*
X-159069985Y53204000D01*
X-159118364Y53194377D01*
X-161452000Y55528012D01*
X-161452000Y60169000D01*
X-160250633Y60169000D01*
X-160143141Y59628600D01*
X-159837029Y59170471D01*
X-159378900Y58864359D01*
X-158974907Y58784000D01*
X-157802093Y58784000D01*
X-157398100Y58864359D01*
X-156939971Y59170471D01*
X-156633859Y59628600D01*
X-156526367Y60169000D01*
X-149239733Y60169000D01*
X-149132241Y59628600D01*
X-148826129Y59170471D01*
X-148368000Y58864359D01*
X-147964007Y58784000D01*
X-146791193Y58784000D01*
X-146387200Y58864359D01*
X-145929071Y59170471D01*
X-145622959Y59628600D01*
X-145515467Y60169000D01*
X-145622959Y60709400D01*
X-145929071Y61167529D01*
X-146387200Y61473641D01*
X-146791193Y61554000D01*
X-147964007Y61554000D01*
X-148368000Y61473641D01*
X-148826129Y61167529D01*
X-149132241Y60709400D01*
X-149239733Y60169000D01*
X-156526367Y60169000D01*
X-156633859Y60709400D01*
X-156939971Y61167529D01*
X-157398100Y61473641D01*
X-157802093Y61554000D01*
X-158974907Y61554000D01*
X-159378900Y61473641D01*
X-159837029Y61167529D01*
X-160143141Y60709400D01*
X-160250633Y60169000D01*
X-161452000Y60169000D01*
X-161452000Y62983250D01*
X-160123500Y62983250D01*
X-160123500Y62392690D01*
X-160026827Y62159301D01*
X-159848198Y61980673D01*
X-159614809Y61884000D01*
X-158674250Y61884000D01*
X-158515500Y62042750D01*
X-158515500Y63142000D01*
X-158261500Y63142000D01*
X-158261500Y62042750D01*
X-158102750Y61884000D01*
X-157162191Y61884000D01*
X-156928802Y61980673D01*
X-156750173Y62159301D01*
X-156653500Y62392690D01*
X-156653500Y62983250D01*
X-149112600Y62983250D01*
X-149112600Y62392690D01*
X-149015927Y62159301D01*
X-148837298Y61980673D01*
X-148603909Y61884000D01*
X-147663350Y61884000D01*
X-147504600Y62042750D01*
X-147504600Y63142000D01*
X-147250600Y63142000D01*
X-147250600Y62042750D01*
X-147091850Y61884000D01*
X-146151291Y61884000D01*
X-145917902Y61980673D01*
X-145739273Y62159301D01*
X-145642600Y62392690D01*
X-145642600Y62983250D01*
X-145801350Y63142000D01*
X-147250600Y63142000D01*
X-147504600Y63142000D01*
X-148953850Y63142000D01*
X-149112600Y62983250D01*
X-156653500Y62983250D01*
X-156812250Y63142000D01*
X-158261500Y63142000D01*
X-158515500Y63142000D01*
X-159964750Y63142000D01*
X-160123500Y62983250D01*
X-161452000Y62983250D01*
X-161452000Y64145310D01*
X-160123500Y64145310D01*
X-160123500Y63554750D01*
X-159964750Y63396000D01*
X-158515500Y63396000D01*
X-158515500Y64495250D01*
X-158261500Y64495250D01*
X-158261500Y63396000D01*
X-156812250Y63396000D01*
X-156653500Y63554750D01*
X-156653500Y64145310D01*
X-149112600Y64145310D01*
X-149112600Y63554750D01*
X-148953850Y63396000D01*
X-147504600Y63396000D01*
X-147504600Y64495250D01*
X-147250600Y64495250D01*
X-147250600Y63396000D01*
X-145801350Y63396000D01*
X-145642600Y63554750D01*
X-145642600Y64145310D01*
X-145739273Y64378699D01*
X-145917902Y64557327D01*
X-146151291Y64654000D01*
X-147091850Y64654000D01*
X-147250600Y64495250D01*
X-147504600Y64495250D01*
X-147663350Y64654000D01*
X-148603909Y64654000D01*
X-148837298Y64557327D01*
X-149015927Y64378699D01*
X-149112600Y64145310D01*
X-156653500Y64145310D01*
X-156750173Y64378699D01*
X-156928802Y64557327D01*
X-157162191Y64654000D01*
X-158102750Y64654000D01*
X-158261500Y64495250D01*
X-158515500Y64495250D01*
X-158674250Y64654000D01*
X-159614809Y64654000D01*
X-159848198Y64557327D01*
X-160026827Y64378699D01*
X-160123500Y64145310D01*
X-161452000Y64145310D01*
X-161452000Y65099281D01*
X-161449138Y65100466D01*
X-161045466Y65504138D01*
X-160827000Y66031561D01*
X-160827000Y66602439D01*
X-161045466Y67129862D01*
X-161449138Y67533534D01*
X-161976561Y67752000D01*
X-162547439Y67752000D01*
X-163074862Y67533534D01*
X-163478534Y67129862D01*
X-163697000Y66602439D01*
X-164157664Y66602439D01*
X-164212260Y66876909D01*
X-164529423Y67351577D01*
X-164754000Y67501635D01*
X-164754000Y71228365D01*
X-164529423Y71378423D01*
X-164212260Y71853091D01*
X-164100887Y72413000D01*
X-164157664Y72698439D01*
X-163697000Y72698439D01*
X-163697000Y72127561D01*
X-163478534Y71600138D01*
X-163074862Y71196466D01*
X-162547439Y70978000D01*
X-161976561Y70978000D01*
X-161449138Y71196466D01*
X-161045466Y71600138D01*
X-160827000Y72127561D01*
X-160827000Y72698439D01*
X-160828186Y72701302D01*
X-158992487Y74537000D01*
X-157707015Y74537000D01*
X-157317609Y74614458D01*
X-156876019Y74909519D01*
X-156580958Y75351109D01*
X-156477346Y75872000D01*
X-156580958Y76392891D01*
X-156876019Y76834481D01*
X-157317609Y77129542D01*
X-157707015Y77207000D01*
X-159069985Y77207000D01*
X-159459391Y77129542D01*
X-159900981Y76834481D01*
X-160196042Y76392891D01*
X-160299654Y75872000D01*
X-160241396Y75579117D01*
X-161973698Y73846814D01*
X-161976561Y73848000D01*
X-162547439Y73848000D01*
X-163074862Y73629534D01*
X-163478534Y73225862D01*
X-163697000Y72698439D01*
X-164157664Y72698439D01*
X-164212260Y72972909D01*
X-164529423Y73447577D01*
X-164754000Y73597635D01*
X-164754000Y84172000D01*
X-160250633Y84172000D01*
X-160143141Y83631600D01*
X-159837029Y83173471D01*
X-159378900Y82867359D01*
X-158974907Y82787000D01*
X-157802093Y82787000D01*
X-157398100Y82867359D01*
X-156939971Y83173471D01*
X-156633859Y83631600D01*
X-156526367Y84172000D01*
X-156633859Y84712400D01*
X-156939971Y85170529D01*
X-157398100Y85476641D01*
X-157802093Y85557000D01*
X-158974907Y85557000D01*
X-159378900Y85476641D01*
X-159837029Y85170529D01*
X-160143141Y84712400D01*
X-160250633Y84172000D01*
X-164754000Y84172000D01*
X-164754000Y86986250D01*
X-160123500Y86986250D01*
X-160123500Y86395690D01*
X-160026827Y86162301D01*
X-159848198Y85983673D01*
X-159614809Y85887000D01*
X-158674250Y85887000D01*
X-158515500Y86045750D01*
X-158515500Y87145000D01*
X-158261500Y87145000D01*
X-158261500Y86045750D01*
X-158102750Y85887000D01*
X-157162191Y85887000D01*
X-156928802Y85983673D01*
X-156750173Y86162301D01*
X-156653500Y86395690D01*
X-156653500Y86986250D01*
X-156812250Y87145000D01*
X-158261500Y87145000D01*
X-158515500Y87145000D01*
X-159964750Y87145000D01*
X-160123500Y86986250D01*
X-164754000Y86986250D01*
X-164754000Y88148310D01*
X-160123500Y88148310D01*
X-160123500Y87557750D01*
X-159964750Y87399000D01*
X-158515500Y87399000D01*
X-158515500Y88498250D01*
X-158261500Y88498250D01*
X-158261500Y87399000D01*
X-156812250Y87399000D01*
X-156653500Y87557750D01*
X-156653500Y88148310D01*
X-156750173Y88381699D01*
X-156928802Y88560327D01*
X-157162191Y88657000D01*
X-158102750Y88657000D01*
X-158261500Y88498250D01*
X-158515500Y88498250D01*
X-158674250Y88657000D01*
X-159614809Y88657000D01*
X-159848198Y88560327D01*
X-160026827Y88381699D01*
X-160123500Y88148310D01*
X-164754000Y88148310D01*
X-164754000Y95104365D01*
X-164529423Y95254423D01*
X-164212260Y95729091D01*
X-164100887Y96289000D01*
X-164157664Y96574439D01*
X-163697000Y96574439D01*
X-163697000Y96003561D01*
X-163478534Y95476138D01*
X-163074862Y95072466D01*
X-162547439Y94854000D01*
X-161976561Y94854000D01*
X-161449138Y95072466D01*
X-161045466Y95476138D01*
X-160827000Y96003561D01*
X-160827000Y96574439D01*
X-160828186Y96577302D01*
X-158865487Y98540000D01*
X-157707015Y98540000D01*
X-157317609Y98617458D01*
X-156876019Y98912519D01*
X-156580958Y99354109D01*
X-156477346Y99875000D01*
X-156580958Y100395891D01*
X-156876019Y100837481D01*
X-157317609Y101132542D01*
X-157707015Y101210000D01*
X-159069985Y101210000D01*
X-159459391Y101132542D01*
X-159900981Y100837481D01*
X-160196042Y100395891D01*
X-160299654Y99875000D01*
X-160220325Y99476188D01*
X-161973698Y97722814D01*
X-161976561Y97724000D01*
X-162547439Y97724000D01*
X-163074862Y97505534D01*
X-163478534Y97101862D01*
X-163697000Y96574439D01*
X-164157664Y96574439D01*
X-164212260Y96848909D01*
X-164529423Y97323577D01*
X-164754000Y97473635D01*
X-164754000Y108175000D01*
X-160250633Y108175000D01*
X-160143141Y107634600D01*
X-159837029Y107176471D01*
X-159378900Y106870359D01*
X-158974907Y106790000D01*
X-157802093Y106790000D01*
X-157398100Y106870359D01*
X-156939971Y107176471D01*
X-156633859Y107634600D01*
X-156526367Y108175000D01*
X-156633859Y108715400D01*
X-156939971Y109173529D01*
X-157398100Y109479641D01*
X-157802093Y109560000D01*
X-158974907Y109560000D01*
X-159378900Y109479641D01*
X-159837029Y109173529D01*
X-160143141Y108715400D01*
X-160250633Y108175000D01*
X-164754000Y108175000D01*
X-164754000Y110989250D01*
X-160123500Y110989250D01*
X-160123500Y110398690D01*
X-160026827Y110165301D01*
X-159848198Y109986673D01*
X-159614809Y109890000D01*
X-158674250Y109890000D01*
X-158515500Y110048750D01*
X-158515500Y111148000D01*
X-159964750Y111148000D01*
X-160123500Y110989250D01*
X-164754000Y110989250D01*
X-164754000Y116815488D01*
X-161684553Y119884934D01*
X-161531765Y119782843D01*
X-161284000Y119733560D01*
X-159684000Y119733560D01*
X-159436235Y119782843D01*
X-159226191Y119923191D01*
X-159085843Y120133235D01*
X-159059215Y120267106D01*
X-158978577Y120146423D01*
X-158503909Y119829260D01*
X-158085333Y119746000D01*
X-157802667Y119746000D01*
X-157484000Y119809387D01*
X-157483999Y114932613D01*
X-157802667Y114996000D01*
X-158085333Y114996000D01*
X-158503909Y114912740D01*
X-158978577Y114595577D01*
X-159128635Y114371000D01*
X-159299365Y114371000D01*
X-159449423Y114595577D01*
X-159924091Y114912740D01*
X-160342667Y114996000D01*
X-160625333Y114996000D01*
X-161043909Y114912740D01*
X-161518577Y114595577D01*
X-161835740Y114120909D01*
X-161947113Y113561000D01*
X-161835740Y113001091D01*
X-161518577Y112526423D01*
X-161043909Y112209260D01*
X-160625333Y112126000D01*
X-160342667Y112126000D01*
X-160115246Y112171237D01*
X-160123500Y112151310D01*
X-160123500Y111560750D01*
X-159964750Y111402000D01*
X-158515500Y111402000D01*
X-158515500Y111422000D01*
X-158261500Y111422000D01*
X-158261500Y111402000D01*
X-158241500Y111402000D01*
X-158241500Y111148000D01*
X-158261500Y111148000D01*
X-158261500Y110048750D01*
X-158102750Y109890000D01*
X-157162191Y109890000D01*
X-156928802Y109986673D01*
X-156750173Y110165301D01*
X-156653500Y110398690D01*
X-156653500Y110989250D01*
X-156812248Y111147998D01*
X-156676510Y111147998D01*
X-155452000Y109923487D01*
X-155451999Y97473635D01*
X-155676577Y97323577D01*
X-155993740Y96848909D01*
X-156105113Y96289000D01*
X-155993740Y95729091D01*
X-155676577Y95254423D01*
X-155451999Y95104365D01*
X-155452000Y73597635D01*
X-155676577Y73447577D01*
X-155993740Y72972909D01*
X-156105113Y72413000D01*
X-155993740Y71853091D01*
X-155676577Y71378423D01*
X-155452000Y71228365D01*
X-155451999Y67501635D01*
X-155676577Y67351577D01*
X-155993740Y66876909D01*
X-156105113Y66317000D01*
X-155993740Y65757091D01*
X-155676577Y65282423D01*
X-155201909Y64965260D01*
X-154783333Y64882000D01*
X-154500667Y64882000D01*
X-154082091Y64965260D01*
X-153607423Y65282423D01*
X-153290260Y65757091D01*
X-153178887Y66317000D01*
X-153290260Y66876909D01*
X-153607423Y67351577D01*
X-153832000Y67501635D01*
X-153832000Y71228365D01*
X-153607423Y71378423D01*
X-153290260Y71853091D01*
X-153178887Y72413000D01*
X-153290260Y72972909D01*
X-153607423Y73447577D01*
X-153832000Y73597635D01*
X-153832000Y95104365D01*
X-153607423Y95254423D01*
X-153290260Y95729091D01*
X-153178887Y96289000D01*
X-153290260Y96848909D01*
X-153607423Y97323577D01*
X-153832000Y97473635D01*
X-153832000Y107637364D01*
X-153807014Y107612378D01*
X-153692139Y107727253D01*
X-153618005Y107481136D01*
X-153080777Y107288035D01*
X-152510546Y107315222D01*
X-152109995Y107481136D01*
X-152035861Y107727253D01*
X-151920986Y107612378D01*
X-151896000Y107637364D01*
X-151895999Y97473635D01*
X-152120577Y97323577D01*
X-152437740Y96848909D01*
X-152549113Y96289000D01*
X-152437740Y95729091D01*
X-152120577Y95254423D01*
X-151896000Y95104365D01*
X-151895999Y73597635D01*
X-152120577Y73447577D01*
X-152437740Y72972909D01*
X-152549113Y72413000D01*
X-152437740Y71853091D01*
X-152120577Y71378423D01*
X-151896000Y71228365D01*
X-151895999Y67501635D01*
X-152120577Y67351577D01*
X-152437740Y66876909D01*
X-152549113Y66317000D01*
X-152437740Y65757091D01*
X-152120577Y65282423D01*
X-151645909Y64965260D01*
X-151227333Y64882000D01*
X-150944667Y64882000D01*
X-150526091Y64965260D01*
X-150051423Y65282423D01*
X-149734260Y65757091D01*
X-149622887Y66317000D01*
X-149734260Y66876909D01*
X-150051423Y67351577D01*
X-150276000Y67501635D01*
X-150276000Y71228365D01*
X-150051423Y71378423D01*
X-149734260Y71853091D01*
X-149622887Y72413000D01*
X-149734260Y72972909D01*
X-150051423Y73447577D01*
X-150276000Y73597635D01*
X-150276000Y84184700D01*
X-149239733Y84184700D01*
X-149132241Y83644300D01*
X-148826129Y83186171D01*
X-148368000Y82880059D01*
X-147964007Y82799700D01*
X-146791193Y82799700D01*
X-146387200Y82880059D01*
X-145929071Y83186171D01*
X-145622959Y83644300D01*
X-145515467Y84184700D01*
X-145622959Y84725100D01*
X-145929071Y85183229D01*
X-146387200Y85489341D01*
X-146791193Y85569700D01*
X-147964007Y85569700D01*
X-148368000Y85489341D01*
X-148826129Y85183229D01*
X-149132241Y84725100D01*
X-149239733Y84184700D01*
X-150276000Y84184700D01*
X-150276000Y86998950D01*
X-149112600Y86998950D01*
X-149112600Y86408390D01*
X-149015927Y86175001D01*
X-148837298Y85996373D01*
X-148603909Y85899700D01*
X-147663350Y85899700D01*
X-147504600Y86058450D01*
X-147504600Y87157700D01*
X-147250600Y87157700D01*
X-147250600Y86058450D01*
X-147091850Y85899700D01*
X-146151291Y85899700D01*
X-145917902Y85996373D01*
X-145739273Y86175001D01*
X-145642600Y86408390D01*
X-145642600Y86998950D01*
X-145801350Y87157700D01*
X-147250600Y87157700D01*
X-147504600Y87157700D01*
X-148953850Y87157700D01*
X-149112600Y86998950D01*
X-150276000Y86998950D01*
X-150276000Y88161010D01*
X-149112600Y88161010D01*
X-149112600Y87570450D01*
X-148953850Y87411700D01*
X-147504600Y87411700D01*
X-147504600Y88510950D01*
X-147250600Y88510950D01*
X-147250600Y87411700D01*
X-145801350Y87411700D01*
X-145642600Y87570450D01*
X-145642600Y88161010D01*
X-145739273Y88394399D01*
X-145917902Y88573027D01*
X-146151291Y88669700D01*
X-147091850Y88669700D01*
X-147250600Y88510950D01*
X-147504600Y88510950D01*
X-147663350Y88669700D01*
X-148603909Y88669700D01*
X-148837298Y88573027D01*
X-149015927Y88394399D01*
X-149112600Y88161010D01*
X-150276000Y88161010D01*
X-150276000Y95104365D01*
X-150051423Y95254423D01*
X-149734260Y95729091D01*
X-149622887Y96289000D01*
X-149734260Y96848909D01*
X-150051423Y97323577D01*
X-150276000Y97473635D01*
X-150276000Y108187700D01*
X-149239733Y108187700D01*
X-149132241Y107647300D01*
X-148826129Y107189171D01*
X-148368000Y106883059D01*
X-147964007Y106802700D01*
X-146791193Y106802700D01*
X-146387200Y106883059D01*
X-145929071Y107189171D01*
X-145622959Y107647300D01*
X-145515467Y108187700D01*
X-145622959Y108728100D01*
X-145929071Y109186229D01*
X-146387200Y109492341D01*
X-146791193Y109572700D01*
X-147964007Y109572700D01*
X-148368000Y109492341D01*
X-148826129Y109186229D01*
X-149132241Y108728100D01*
X-149239733Y108187700D01*
X-150276000Y108187700D01*
X-150276000Y109923488D01*
X-149038789Y111160698D01*
X-148953852Y111160698D01*
X-149112600Y111001950D01*
X-149112600Y110411390D01*
X-149015927Y110178001D01*
X-148837298Y109999373D01*
X-148603909Y109902700D01*
X-147663350Y109902700D01*
X-147504600Y110061450D01*
X-147504600Y111160700D01*
X-147250600Y111160700D01*
X-147250600Y110061450D01*
X-147091850Y109902700D01*
X-146151291Y109902700D01*
X-145917902Y109999373D01*
X-145739273Y110178001D01*
X-145642600Y110411390D01*
X-145642600Y111001950D01*
X-145801350Y111160700D01*
X-147250600Y111160700D01*
X-147504600Y111160700D01*
X-147524600Y111160700D01*
X-147524600Y111414700D01*
X-147504600Y111414700D01*
X-147504600Y111434700D01*
X-147250600Y111434700D01*
X-147250600Y111414700D01*
X-145801350Y111414700D01*
X-145642600Y111573450D01*
X-145642600Y112164010D01*
X-145648542Y112178356D01*
X-145385333Y112126000D01*
X-145102667Y112126000D01*
X-144684091Y112209260D01*
X-144209423Y112526423D01*
X-143892260Y113001091D01*
X-143780887Y113561000D01*
X-143892260Y114120909D01*
X-144209423Y114595577D01*
X-144684091Y114912740D01*
X-145102667Y114996000D01*
X-145385333Y114996000D01*
X-145803909Y114912740D01*
X-146278577Y114595577D01*
X-146428635Y114371000D01*
X-146599365Y114371000D01*
X-146749423Y114595577D01*
X-147224091Y114912740D01*
X-147642667Y114996000D01*
X-147925333Y114996000D01*
X-148343909Y114912740D01*
X-148818577Y114595577D01*
X-149054000Y114243242D01*
X-149289423Y114595577D01*
X-149764091Y114912740D01*
X-150182667Y114996000D01*
X-150465333Y114996000D01*
X-150883909Y114912740D01*
X-151358577Y114595577D01*
X-151594000Y114243242D01*
X-151829423Y114595577D01*
X-152304091Y114912740D01*
X-152722667Y114996000D01*
X-153005333Y114996000D01*
X-153423909Y114912740D01*
X-153898577Y114595577D01*
X-154134000Y114243242D01*
X-154369423Y114595577D01*
X-154844091Y114912740D01*
X-155262667Y114996000D01*
X-155545333Y114996000D01*
X-155668907Y114971419D01*
X-155687652Y114990164D01*
X-155705330Y115001976D01*
X-155864000Y115144914D01*
X-155864000Y119809387D01*
X-155545333Y119746000D01*
X-155262667Y119746000D01*
X-154844091Y119829260D01*
X-154369423Y120146423D01*
X-154134000Y120498758D01*
X-153898577Y120146423D01*
X-153423909Y119829260D01*
X-153005333Y119746000D01*
X-152722667Y119746000D01*
X-152304091Y119829260D01*
X-151829423Y120146423D01*
X-151594000Y120498758D01*
X-151358577Y120146423D01*
X-150883909Y119829260D01*
X-150465333Y119746000D01*
X-150182667Y119746000D01*
X-149764091Y119829260D01*
X-149289423Y120146423D01*
X-149054000Y120498758D01*
X-148818577Y120146423D01*
X-148343909Y119829260D01*
X-147925333Y119746000D01*
X-147642667Y119746000D01*
X-147224091Y119829260D01*
X-146749423Y120146423D01*
X-146599365Y120371000D01*
X-146428635Y120371000D01*
X-146278577Y120146423D01*
X-145803909Y119829260D01*
X-145385333Y119746000D01*
X-145102667Y119746000D01*
X-144684091Y119829260D01*
X-144217901Y120140758D01*
X-141482000Y117404857D01*
X-141481999Y97500148D01*
X-141482000Y97500143D01*
X-141482000Y97473635D01*
X-141706577Y97323577D01*
X-142023740Y96848909D01*
X-142062979Y96651643D01*
X-142249466Y97101862D01*
X-142653138Y97505534D01*
X-143180561Y97724000D01*
X-143751439Y97724000D01*
X-143754302Y97722814D01*
X-145541561Y99510073D01*
X-145466446Y99887700D01*
X-145570058Y100408591D01*
X-145865119Y100850181D01*
X-146306709Y101145242D01*
X-146696115Y101222700D01*
X-148059085Y101222700D01*
X-148448491Y101145242D01*
X-148890081Y100850181D01*
X-149185142Y100408591D01*
X-149288754Y99887700D01*
X-149185142Y99366809D01*
X-148890081Y98925219D01*
X-148448491Y98630158D01*
X-148059085Y98552700D01*
X-146875212Y98552700D01*
X-144899814Y96577302D01*
X-144901000Y96574439D01*
X-144901000Y96003561D01*
X-144682534Y95476138D01*
X-144278862Y95072466D01*
X-143751439Y94854000D01*
X-143180561Y94854000D01*
X-142653138Y95072466D01*
X-142249466Y95476138D01*
X-142062979Y95926357D01*
X-142023740Y95729091D01*
X-141706577Y95254423D01*
X-141482000Y95104365D01*
X-141481999Y73597635D01*
X-141706577Y73447577D01*
X-142023740Y72972909D01*
X-142062979Y72775643D01*
X-142249466Y73225862D01*
X-142653138Y73629534D01*
X-143180561Y73848000D01*
X-143751439Y73848000D01*
X-143754302Y73846814D01*
X-145520490Y75613002D01*
X-145466446Y75884700D01*
X-145570058Y76405591D01*
X-145865119Y76847181D01*
X-146306709Y77142242D01*
X-146696115Y77219700D01*
X-148059085Y77219700D01*
X-148448491Y77142242D01*
X-148890081Y76847181D01*
X-149185142Y76405591D01*
X-149288754Y75884700D01*
X-149185142Y75363809D01*
X-148890081Y74922219D01*
X-148448491Y74627158D01*
X-148059085Y74549700D01*
X-146748212Y74549700D01*
X-144899814Y72701302D01*
X-144901000Y72698439D01*
X-144901000Y72127561D01*
X-144682534Y71600138D01*
X-144278862Y71196466D01*
X-143751439Y70978000D01*
X-143180561Y70978000D01*
X-142653138Y71196466D01*
X-142249466Y71600138D01*
X-142062979Y72050357D01*
X-142023740Y71853091D01*
X-141706577Y71378423D01*
X-141482000Y71228365D01*
X-141481999Y67501635D01*
X-141706577Y67351577D01*
X-142023740Y66876909D01*
X-142062979Y66679643D01*
X-142249466Y67129862D01*
X-142653138Y67533534D01*
X-143180561Y67752000D01*
X-143751439Y67752000D01*
X-144278862Y67533534D01*
X-144682534Y67129862D01*
X-144901000Y66602439D01*
X-144901000Y66031561D01*
X-144682534Y65504138D01*
X-144278862Y65100466D01*
X-144276000Y65099280D01*
X-144275999Y55566114D01*
X-146647736Y53194377D01*
X-146696115Y53204000D01*
X-148059085Y53204000D01*
X-148448491Y53126542D01*
X-148890081Y52831481D01*
X-149185142Y52389891D01*
X-149288754Y51869000D01*
X-149185142Y51348109D01*
X-148890081Y50906519D01*
X-148482834Y50634405D01*
X-148864430Y50379430D01*
X-149065854Y50077979D01*
X-149117179Y50187490D01*
X-149549053Y50581688D01*
X-149964974Y50753958D01*
X-150197000Y50632817D01*
X-150197000Y49426000D01*
X-150177000Y49426000D01*
X-150177000Y49172000D01*
X-150197000Y49172000D01*
X-150197000Y46886000D01*
X-150177000Y46886000D01*
X-150177000Y46632000D01*
X-150197000Y46632000D01*
X-150197000Y45425183D01*
X-149964974Y45304042D01*
X-149549053Y45476312D01*
X-149263520Y45736936D01*
X-149245757Y45647635D01*
X-149105409Y45437591D01*
X-148895365Y45297243D01*
X-148647600Y45247960D01*
X-146920400Y45247960D01*
X-146672635Y45297243D01*
X-146462591Y45437591D01*
X-146322243Y45647635D01*
X-146295662Y45781266D01*
X-146056862Y45542466D01*
X-145529439Y45324000D01*
X-144958561Y45324000D01*
X-144431138Y45542466D01*
X-144027466Y45946138D01*
X-143809000Y46473561D01*
X-143809000Y46759000D01*
X-139087113Y46759000D01*
X-138975740Y46199091D01*
X-138658577Y45724423D01*
X-138183909Y45407260D01*
X-137765333Y45324000D01*
X-137482667Y45324000D01*
X-137447562Y45330983D01*
X-137081423Y44964844D01*
X-137032049Y44890951D01*
X-136958156Y44841577D01*
X-136958155Y44841576D01*
X-136770424Y44716138D01*
X-136739310Y44695348D01*
X-136481165Y44644000D01*
X-136481161Y44644000D01*
X-136394000Y44626663D01*
X-136306839Y44644000D01*
X-134958396Y44644000D01*
X-134626862Y44312466D01*
X-134099439Y44094000D01*
X-133528561Y44094000D01*
X-133001138Y44312466D01*
X-132597466Y44716138D01*
X-132379000Y45243561D01*
X-132379000Y45814439D01*
X-132597466Y46341862D01*
X-132860759Y46605155D01*
X-132654301Y46690673D01*
X-132475673Y46869302D01*
X-132379000Y47102691D01*
X-132379000Y47743250D01*
X-132537750Y47902000D01*
X-133687000Y47902000D01*
X-133687000Y47882000D01*
X-133941000Y47882000D01*
X-133941000Y47902000D01*
X-135090250Y47902000D01*
X-135249000Y47743250D01*
X-135249000Y47102691D01*
X-135152327Y46869302D01*
X-134973699Y46690673D01*
X-134767241Y46605155D01*
X-134958396Y46414000D01*
X-136027421Y46414000D01*
X-136195983Y46582561D01*
X-136160887Y46759000D01*
X-136272260Y47318909D01*
X-136589423Y47793577D01*
X-137064091Y48110740D01*
X-137482667Y48194000D01*
X-137765333Y48194000D01*
X-138183909Y48110740D01*
X-138658577Y47793577D01*
X-138975740Y47318909D01*
X-139087113Y46759000D01*
X-143809000Y46759000D01*
X-143809000Y47044439D01*
X-144027466Y47571862D01*
X-144431138Y47975534D01*
X-144958561Y48194000D01*
X-145529439Y48194000D01*
X-146056862Y47975534D01*
X-146295662Y47736734D01*
X-146322243Y47870365D01*
X-146462591Y48080409D01*
X-146672635Y48220757D01*
X-146698651Y48225932D01*
X-146372350Y48714275D01*
X-146324406Y48955309D01*
X-135249000Y48955309D01*
X-135249000Y48314750D01*
X-135090250Y48156000D01*
X-133941000Y48156000D01*
X-133941000Y49305250D01*
X-133687000Y49305250D01*
X-133687000Y48156000D01*
X-132537750Y48156000D01*
X-132379000Y48314750D01*
X-132379000Y48955309D01*
X-132475673Y49188698D01*
X-132654301Y49367327D01*
X-132887690Y49464000D01*
X-133528250Y49464000D01*
X-133687000Y49305250D01*
X-133941000Y49305250D01*
X-134099750Y49464000D01*
X-134740310Y49464000D01*
X-134973699Y49367327D01*
X-135152327Y49188698D01*
X-135249000Y48955309D01*
X-146324406Y48955309D01*
X-146256041Y49299000D01*
X-146372350Y49883725D01*
X-146703570Y50379430D01*
X-146934900Y50534000D01*
X-146696115Y50534000D01*
X-146306709Y50611458D01*
X-145865119Y50906519D01*
X-145570058Y51348109D01*
X-145466446Y51869000D01*
X-145502223Y52048864D01*
X-142949653Y54601434D01*
X-142882023Y54646623D01*
X-142702997Y54914554D01*
X-142656000Y55150826D01*
X-142656000Y55150830D01*
X-142640133Y55230599D01*
X-142656000Y55310369D01*
X-142656000Y60181700D01*
X-138241533Y60181700D01*
X-138134041Y59641300D01*
X-137827929Y59183171D01*
X-137369800Y58877059D01*
X-136965807Y58796700D01*
X-135792993Y58796700D01*
X-135389000Y58877059D01*
X-134930871Y59183171D01*
X-134624759Y59641300D01*
X-134517267Y60181700D01*
X-134624759Y60722100D01*
X-134930871Y61180229D01*
X-135389000Y61486341D01*
X-135792993Y61566700D01*
X-136965807Y61566700D01*
X-137369800Y61486341D01*
X-137827929Y61180229D01*
X-138134041Y60722100D01*
X-138241533Y60181700D01*
X-142656000Y60181700D01*
X-142656000Y62995950D01*
X-138114400Y62995950D01*
X-138114400Y62405390D01*
X-138017727Y62172001D01*
X-137839098Y61993373D01*
X-137605709Y61896700D01*
X-136665150Y61896700D01*
X-136506400Y62055450D01*
X-136506400Y63154700D01*
X-136252400Y63154700D01*
X-136252400Y62055450D01*
X-136093650Y61896700D01*
X-135153091Y61896700D01*
X-134919702Y61993373D01*
X-134741073Y62172001D01*
X-134644400Y62405390D01*
X-134644400Y62995950D01*
X-134803150Y63154700D01*
X-136252400Y63154700D01*
X-136506400Y63154700D01*
X-137955650Y63154700D01*
X-138114400Y62995950D01*
X-142656000Y62995950D01*
X-142656000Y64158010D01*
X-138114400Y64158010D01*
X-138114400Y63567450D01*
X-137955650Y63408700D01*
X-136506400Y63408700D01*
X-136506400Y64507950D01*
X-136252400Y64507950D01*
X-136252400Y63408700D01*
X-134803150Y63408700D01*
X-134644400Y63567450D01*
X-134644400Y64158010D01*
X-134741073Y64391399D01*
X-134919702Y64570027D01*
X-135153091Y64666700D01*
X-136093650Y64666700D01*
X-136252400Y64507950D01*
X-136506400Y64507950D01*
X-136665150Y64666700D01*
X-137605709Y64666700D01*
X-137839098Y64570027D01*
X-138017727Y64391399D01*
X-138114400Y64158010D01*
X-142656000Y64158010D01*
X-142656000Y65099281D01*
X-142653138Y65100466D01*
X-142249466Y65504138D01*
X-142062979Y65954357D01*
X-142023740Y65757091D01*
X-141706577Y65282423D01*
X-141231909Y64965260D01*
X-140813333Y64882000D01*
X-140530667Y64882000D01*
X-140112091Y64965260D01*
X-139637423Y65282423D01*
X-139320260Y65757091D01*
X-139208887Y66317000D01*
X-139320260Y66876909D01*
X-139637423Y67351577D01*
X-139862000Y67501635D01*
X-139862000Y71228365D01*
X-139637423Y71378423D01*
X-139320260Y71853091D01*
X-139208887Y72413000D01*
X-139320260Y72972909D01*
X-139637423Y73447577D01*
X-139862000Y73597635D01*
X-139862000Y84172000D01*
X-138241533Y84172000D01*
X-138134041Y83631600D01*
X-137827929Y83173471D01*
X-137369800Y82867359D01*
X-136965807Y82787000D01*
X-135792993Y82787000D01*
X-135389000Y82867359D01*
X-134930871Y83173471D01*
X-134624759Y83631600D01*
X-134517267Y84172000D01*
X-134624759Y84712400D01*
X-134930871Y85170529D01*
X-135389000Y85476641D01*
X-135792993Y85557000D01*
X-136965807Y85557000D01*
X-137369800Y85476641D01*
X-137827929Y85170529D01*
X-138134041Y84712400D01*
X-138241533Y84172000D01*
X-139862000Y84172000D01*
X-139862000Y86986250D01*
X-138114400Y86986250D01*
X-138114400Y86395690D01*
X-138017727Y86162301D01*
X-137839098Y85983673D01*
X-137605709Y85887000D01*
X-136665150Y85887000D01*
X-136506400Y86045750D01*
X-136506400Y87145000D01*
X-136252400Y87145000D01*
X-136252400Y86045750D01*
X-136093650Y85887000D01*
X-135153091Y85887000D01*
X-134919702Y85983673D01*
X-134741073Y86162301D01*
X-134644400Y86395690D01*
X-134644400Y86986250D01*
X-134803150Y87145000D01*
X-136252400Y87145000D01*
X-136506400Y87145000D01*
X-137955650Y87145000D01*
X-138114400Y86986250D01*
X-139862000Y86986250D01*
X-139862000Y88148310D01*
X-138114400Y88148310D01*
X-138114400Y87557750D01*
X-137955650Y87399000D01*
X-136506400Y87399000D01*
X-136506400Y88498250D01*
X-136252400Y88498250D01*
X-136252400Y87399000D01*
X-134803150Y87399000D01*
X-134644400Y87557750D01*
X-134644400Y88148310D01*
X-134741073Y88381699D01*
X-134919702Y88560327D01*
X-135153091Y88657000D01*
X-136093650Y88657000D01*
X-136252400Y88498250D01*
X-136506400Y88498250D01*
X-136665150Y88657000D01*
X-137605709Y88657000D01*
X-137839098Y88560327D01*
X-138017727Y88381699D01*
X-138114400Y88148310D01*
X-139862000Y88148310D01*
X-139862000Y95104365D01*
X-139637423Y95254423D01*
X-139320260Y95729091D01*
X-139208887Y96289000D01*
X-139320260Y96848909D01*
X-139637423Y97323577D01*
X-139862000Y97473635D01*
X-139862000Y108187700D01*
X-138241533Y108187700D01*
X-138134041Y107647300D01*
X-137827929Y107189171D01*
X-137369800Y106883059D01*
X-136965807Y106802700D01*
X-135792993Y106802700D01*
X-135389000Y106883059D01*
X-134930871Y107189171D01*
X-134624759Y107647300D01*
X-134517267Y108187700D01*
X-134624759Y108728100D01*
X-134930871Y109186229D01*
X-135389000Y109492341D01*
X-135792993Y109572700D01*
X-136965807Y109572700D01*
X-137369800Y109492341D01*
X-137827929Y109186229D01*
X-138134041Y108728100D01*
X-138241533Y108187700D01*
X-139862000Y108187700D01*
X-139862000Y111001950D01*
X-138114400Y111001950D01*
X-138114400Y110411390D01*
X-138017727Y110178001D01*
X-137839098Y109999373D01*
X-137605709Y109902700D01*
X-136665150Y109902700D01*
X-136506400Y110061450D01*
X-136506400Y111160700D01*
X-136252400Y111160700D01*
X-136252400Y110061450D01*
X-136093650Y109902700D01*
X-135153091Y109902700D01*
X-134919702Y109999373D01*
X-134741073Y110178001D01*
X-134644400Y110411390D01*
X-134644400Y111001950D01*
X-134803150Y111160700D01*
X-136252400Y111160700D01*
X-136506400Y111160700D01*
X-137955650Y111160700D01*
X-138114400Y111001950D01*
X-139862000Y111001950D01*
X-139862000Y112164010D01*
X-138114400Y112164010D01*
X-138114400Y111573450D01*
X-137955650Y111414700D01*
X-136506400Y111414700D01*
X-136506400Y112513950D01*
X-136252400Y112513950D01*
X-136252400Y111414700D01*
X-134803150Y111414700D01*
X-134644400Y111573450D01*
X-134644400Y112164010D01*
X-134741073Y112397399D01*
X-134919702Y112576027D01*
X-135153091Y112672700D01*
X-136093650Y112672700D01*
X-136252400Y112513950D01*
X-136506400Y112513950D01*
X-136665150Y112672700D01*
X-137605709Y112672700D01*
X-137839098Y112576027D01*
X-138017727Y112397399D01*
X-138114400Y112164010D01*
X-139862000Y112164010D01*
X-139862000Y117660596D01*
X-139846132Y117740370D01*
X-139908997Y118056417D01*
X-140042835Y118256718D01*
X-140088023Y118324347D01*
X-140155653Y118369535D01*
X-143427118Y121641000D01*
X-139386173Y121641000D01*
X-139306400Y121625132D01*
X-139226627Y121641000D01*
X-139226626Y121641000D01*
X-138990354Y121687997D01*
X-138722423Y121867023D01*
X-138677232Y121934656D01*
X-137774680Y122837208D01*
X-137450291Y122620458D01*
X-137060885Y122543000D01*
X-135697915Y122543000D01*
X-135308509Y122620458D01*
X-134866919Y122915519D01*
X-134571858Y123357109D01*
X-134468246Y123878000D01*
X-134571858Y124398891D01*
X-134866919Y124840481D01*
X-135308509Y125135542D01*
X-135697915Y125213000D01*
X-137060885Y125213000D01*
X-137450291Y125135542D01*
X-137891881Y124840481D01*
X-137999068Y124680065D01*
X-138195447Y124641003D01*
X-138332130Y124549673D01*
X-138463377Y124461977D01*
X-138508566Y124394347D01*
X-139641912Y123261000D01*
X-145625790Y123261000D01*
X-145570058Y123344409D01*
X-145466446Y123865300D01*
X-145501814Y124043108D01*
X-138152865Y131368000D01*
X-137953900Y131368000D01*
X-137827929Y131179471D01*
X-137369800Y130873359D01*
X-136965807Y130793000D01*
X-135792993Y130793000D01*
X-135389000Y130873359D01*
X-134930871Y131179471D01*
X-134624759Y131637600D01*
X-134517267Y132178000D01*
X-134624759Y132718400D01*
X-134930871Y133176529D01*
X-135389000Y133482641D01*
X-135792993Y133563000D01*
X-136965807Y133563000D01*
X-137369800Y133482641D01*
X-137827929Y133176529D01*
X-137953900Y132988000D01*
X-138407157Y132988000D01*
X-138486247Y133003867D01*
X-138566705Y132988000D01*
X-138567374Y132988000D01*
X-138644866Y132972586D01*
X-138802395Y132941520D01*
X-138802969Y132941138D01*
X-138803646Y132941003D01*
X-138937294Y132851702D01*
X-139002916Y132808010D01*
X-139003388Y132807539D01*
X-139071577Y132761977D01*
X-139116395Y132694903D01*
X-146645676Y125190267D01*
X-146696115Y125200300D01*
X-148059085Y125200300D01*
X-148448491Y125122842D01*
X-148890081Y124827781D01*
X-149185142Y124386191D01*
X-149288754Y123865300D01*
X-149185142Y123344409D01*
X-149129922Y123261766D01*
X-149370047Y123214003D01*
X-149418599Y123181561D01*
X-149637977Y123034977D01*
X-149683168Y122967344D01*
X-150040347Y122610165D01*
X-150040350Y122610163D01*
X-150059093Y122591420D01*
X-150182667Y122616000D01*
X-150465333Y122616000D01*
X-150883909Y122532740D01*
X-151358577Y122215577D01*
X-151594000Y121863242D01*
X-151829423Y122215577D01*
X-151979000Y122315521D01*
X-151979000Y122322604D01*
X-151647466Y122654138D01*
X-151429000Y123181561D01*
X-151429000Y123752439D01*
X-151647466Y124279862D01*
X-152051138Y124683534D01*
X-152116299Y124710525D01*
X-152109995Y124713136D01*
X-152035861Y124959255D01*
X-152864000Y125787395D01*
X-153692139Y124959255D01*
X-153618005Y124713136D01*
X-153611254Y124710710D01*
X-153676862Y124683534D01*
X-154080534Y124279862D01*
X-154299000Y123752439D01*
X-154299000Y123181561D01*
X-154080534Y122654138D01*
X-153748999Y122322603D01*
X-153748999Y122315521D01*
X-153898577Y122215577D01*
X-154134000Y121863242D01*
X-154369423Y122215577D01*
X-154844091Y122532740D01*
X-155262667Y122616000D01*
X-155545333Y122616000D01*
X-155864000Y122552613D01*
X-155864000Y122617024D01*
X-155848298Y122688450D01*
X-155864000Y122776586D01*
X-155864000Y122784774D01*
X-155877982Y122855068D01*
X-155904817Y123005692D01*
X-155909354Y123012786D01*
X-155910997Y123021046D01*
X-155996011Y123148278D01*
X-156034614Y123208636D01*
X-156040285Y123214539D01*
X-156090023Y123288977D01*
X-156150832Y123329608D01*
X-156492759Y123685522D01*
X-156451946Y123890700D01*
X-156487314Y124068508D01*
X-154280744Y126267854D01*
X-154310965Y126183777D01*
X-154283778Y125613546D01*
X-154117864Y125212995D01*
X-153871745Y125138861D01*
X-153043605Y125967000D01*
X-152684395Y125967000D01*
X-151856255Y125138861D01*
X-151610136Y125212995D01*
X-151417035Y125750223D01*
X-151444222Y126320454D01*
X-151610136Y126721005D01*
X-151856255Y126795139D01*
X-152684395Y125967000D01*
X-153043605Y125967000D01*
X-153057748Y125981142D01*
X-152878142Y126160748D01*
X-152864000Y126146605D01*
X-152035861Y126974745D01*
X-152109995Y127220864D01*
X-152647223Y127413965D01*
X-153155166Y127389748D01*
X-149138365Y131393400D01*
X-148977558Y131393400D01*
X-148826129Y131166771D01*
X-148368000Y130860659D01*
X-147964007Y130780300D01*
X-146791193Y130780300D01*
X-146387200Y130860659D01*
X-145929071Y131166771D01*
X-145622959Y131624900D01*
X-145515467Y132165300D01*
X-145622959Y132705700D01*
X-145929071Y133163829D01*
X-146387200Y133469941D01*
X-146791193Y133550300D01*
X-147964007Y133550300D01*
X-148368000Y133469941D01*
X-148826129Y133163829D01*
X-148926642Y133013400D01*
X-149392657Y133013400D01*
X-149471747Y133029267D01*
X-149552205Y133013400D01*
X-149552874Y133013400D01*
X-149630366Y132997986D01*
X-149787895Y132966920D01*
X-149788469Y132966538D01*
X-149789146Y132966403D01*
X-149922794Y132877102D01*
X-149988416Y132833410D01*
X-149988888Y132832939D01*
X-150057077Y132787377D01*
X-150101895Y132720303D01*
X-157631176Y125215667D01*
X-157681615Y125225700D01*
X-159044585Y125225700D01*
X-159433991Y125148242D01*
X-159875581Y124853181D01*
X-160170642Y124411591D01*
X-160274254Y123890700D01*
X-160170642Y123369809D01*
X-159875581Y122928219D01*
X-159433991Y122633158D01*
X-159044585Y122555700D01*
X-158388481Y122555700D01*
X-158503909Y122532740D01*
X-158978577Y122215577D01*
X-159059215Y122094894D01*
X-159085843Y122228765D01*
X-159226191Y122438809D01*
X-159436235Y122579157D01*
X-159684000Y122628440D01*
X-161284000Y122628440D01*
X-161531765Y122579157D01*
X-161741809Y122438809D01*
X-161882157Y122228765D01*
X-161931440Y121981000D01*
X-161931440Y121889617D01*
X-161946884Y121879298D01*
X-162117977Y121764977D01*
X-162163166Y121697347D01*
X-166080344Y117780168D01*
X-166147977Y117734977D01*
X-166327003Y117467045D01*
X-166372472Y117238456D01*
X-166389868Y117151000D01*
X-166374000Y117071227D01*
X-166373999Y97500148D01*
X-166374000Y97500143D01*
X-166374000Y97473635D01*
X-166598577Y97323577D01*
X-166915740Y96848909D01*
X-167027113Y96289000D01*
X-171749000Y96289000D01*
X-171749000Y96574439D01*
X-171750186Y96577302D01*
X-169787487Y98540000D01*
X-168692515Y98540000D01*
X-168303109Y98617458D01*
X-167861519Y98912519D01*
X-167566458Y99354109D01*
X-167462846Y99875000D01*
X-167566458Y100395891D01*
X-167861519Y100837481D01*
X-168303109Y101132542D01*
X-168692515Y101210000D01*
X-170055485Y101210000D01*
X-170444891Y101132542D01*
X-170886481Y100837481D01*
X-171181542Y100395891D01*
X-171285154Y99875000D01*
X-171195290Y99423223D01*
X-172895698Y97722814D01*
X-172898561Y97724000D01*
X-173469439Y97724000D01*
X-173996862Y97505534D01*
X-173998000Y97504396D01*
X-173998000Y108175000D01*
X-171236133Y108175000D01*
X-171128641Y107634600D01*
X-170822529Y107176471D01*
X-170364400Y106870359D01*
X-169960407Y106790000D01*
X-168787593Y106790000D01*
X-168383600Y106870359D01*
X-167925471Y107176471D01*
X-167619359Y107634600D01*
X-167511867Y108175000D01*
X-167619359Y108715400D01*
X-167925471Y109173529D01*
X-168383600Y109479641D01*
X-168787593Y109560000D01*
X-169960407Y109560000D01*
X-170364400Y109479641D01*
X-170822529Y109173529D01*
X-171128641Y108715400D01*
X-171236133Y108175000D01*
X-173998000Y108175000D01*
X-173998000Y110989250D01*
X-171109000Y110989250D01*
X-171109000Y110398690D01*
X-171012327Y110165301D01*
X-170833698Y109986673D01*
X-170600309Y109890000D01*
X-169659750Y109890000D01*
X-169501000Y110048750D01*
X-169501000Y111148000D01*
X-169247000Y111148000D01*
X-169247000Y110048750D01*
X-169088250Y109890000D01*
X-168147691Y109890000D01*
X-167914302Y109986673D01*
X-167735673Y110165301D01*
X-167639000Y110398690D01*
X-167639000Y110989250D01*
X-167797750Y111148000D01*
X-169247000Y111148000D01*
X-169501000Y111148000D01*
X-170950250Y111148000D01*
X-171109000Y110989250D01*
X-173998000Y110989250D01*
X-173998000Y112151310D01*
X-171109000Y112151310D01*
X-171109000Y111560750D01*
X-170950250Y111402000D01*
X-169501000Y111402000D01*
X-169501000Y112501250D01*
X-169247000Y112501250D01*
X-169247000Y111402000D01*
X-167797750Y111402000D01*
X-167639000Y111560750D01*
X-167639000Y112151310D01*
X-167735673Y112384699D01*
X-167914302Y112563327D01*
X-168147691Y112660000D01*
X-169088250Y112660000D01*
X-169247000Y112501250D01*
X-169501000Y112501250D01*
X-169659750Y112660000D01*
X-170600309Y112660000D01*
X-170833698Y112563327D01*
X-171012327Y112384699D01*
X-171109000Y112151310D01*
X-173998000Y112151310D01*
X-173998000Y123878000D01*
X-171285154Y123878000D01*
X-171181542Y123357109D01*
X-170886481Y122915519D01*
X-170444891Y122620458D01*
X-170055485Y122543000D01*
X-168692515Y122543000D01*
X-168303109Y122620458D01*
X-167861519Y122915519D01*
X-167566458Y123357109D01*
X-167462846Y123878000D01*
X-167498214Y124055808D01*
X-160149265Y131380700D01*
X-159937600Y131380700D01*
X-159811629Y131192171D01*
X-159353500Y130886059D01*
X-158949507Y130805700D01*
X-157776693Y130805700D01*
X-157372700Y130886059D01*
X-156914571Y131192171D01*
X-156608459Y131650300D01*
X-156500967Y132190700D01*
X-156608459Y132731100D01*
X-156914571Y133189229D01*
X-157372700Y133495341D01*
X-157776693Y133575700D01*
X-158949507Y133575700D01*
X-159353500Y133495341D01*
X-159811629Y133189229D01*
X-159937600Y133000700D01*
X-160403557Y133000700D01*
X-160482647Y133016567D01*
X-160563105Y133000700D01*
X-160563774Y133000700D01*
X-160641266Y132985286D01*
X-160798795Y132954220D01*
X-160799369Y132953838D01*
X-160800046Y132953703D01*
X-160933694Y132864402D01*
X-160999316Y132820710D01*
X-160999788Y132820239D01*
X-161067977Y132774677D01*
X-161112795Y132707603D01*
X-168642076Y125202967D01*
X-168692515Y125213000D01*
X-170055485Y125213000D01*
X-170444891Y125135542D01*
X-170886481Y124840481D01*
X-171181542Y124398891D01*
X-171285154Y123878000D01*
X-173998000Y123878000D01*
X-173998000Y132178000D01*
X-171236133Y132178000D01*
X-171128641Y131637600D01*
X-170822529Y131179471D01*
X-170364400Y130873359D01*
X-169960407Y130793000D01*
X-168787593Y130793000D01*
X-168383600Y130873359D01*
X-167925471Y131179471D01*
X-167619359Y131637600D01*
X-167511867Y132178000D01*
X-167619359Y132718400D01*
X-167925471Y133176529D01*
X-168383600Y133482641D01*
X-168787593Y133563000D01*
X-169960407Y133563000D01*
X-170364400Y133482641D01*
X-170822529Y133176529D01*
X-171128641Y132718400D01*
X-171236133Y132178000D01*
X-173998000Y132178000D01*
X-173998000Y134992250D01*
X-171109000Y134992250D01*
X-171109000Y134401690D01*
X-171012327Y134168301D01*
X-170833698Y133989673D01*
X-170600309Y133893000D01*
X-169659750Y133893000D01*
X-169501000Y134051750D01*
X-169501000Y135151000D01*
X-169247000Y135151000D01*
X-169247000Y134051750D01*
X-169088250Y133893000D01*
X-168147691Y133893000D01*
X-167914302Y133989673D01*
X-167735673Y134168301D01*
X-167639000Y134401690D01*
X-167639000Y134992250D01*
X-167651700Y135004950D01*
X-160098100Y135004950D01*
X-160098100Y134414390D01*
X-160001427Y134181001D01*
X-159822798Y134002373D01*
X-159589409Y133905700D01*
X-158648850Y133905700D01*
X-158490100Y134064450D01*
X-158490100Y135163700D01*
X-158236100Y135163700D01*
X-158236100Y134064450D01*
X-158077350Y133905700D01*
X-157136791Y133905700D01*
X-156903402Y134002373D01*
X-156724773Y134181001D01*
X-156628100Y134414390D01*
X-156628100Y134979550D01*
X-149112600Y134979550D01*
X-149112600Y134388990D01*
X-149015927Y134155601D01*
X-148837298Y133976973D01*
X-148603909Y133880300D01*
X-147663350Y133880300D01*
X-147504600Y134039050D01*
X-147504600Y135138300D01*
X-147250600Y135138300D01*
X-147250600Y134039050D01*
X-147091850Y133880300D01*
X-146151291Y133880300D01*
X-145917902Y133976973D01*
X-145739273Y134155601D01*
X-145642600Y134388990D01*
X-145642600Y134979550D01*
X-145655300Y134992250D01*
X-138114400Y134992250D01*
X-138114400Y134401690D01*
X-138017727Y134168301D01*
X-137839098Y133989673D01*
X-137605709Y133893000D01*
X-136665150Y133893000D01*
X-136506400Y134051750D01*
X-136506400Y135151000D01*
X-136252400Y135151000D01*
X-136252400Y134051750D01*
X-136093650Y133893000D01*
X-135153091Y133893000D01*
X-134919702Y133989673D01*
X-134741073Y134168301D01*
X-134644400Y134401690D01*
X-134644400Y134992250D01*
X-134803150Y135151000D01*
X-136252400Y135151000D01*
X-136506400Y135151000D01*
X-137955650Y135151000D01*
X-138114400Y134992250D01*
X-145655300Y134992250D01*
X-145801350Y135138300D01*
X-147250600Y135138300D01*
X-147504600Y135138300D01*
X-148953850Y135138300D01*
X-149112600Y134979550D01*
X-156628100Y134979550D01*
X-156628100Y135004950D01*
X-156786850Y135163700D01*
X-158236100Y135163700D01*
X-158490100Y135163700D01*
X-159939350Y135163700D01*
X-160098100Y135004950D01*
X-167651700Y135004950D01*
X-167797750Y135151000D01*
X-169247000Y135151000D01*
X-169501000Y135151000D01*
X-170950250Y135151000D01*
X-171109000Y134992250D01*
X-173998000Y134992250D01*
X-173998000Y136473000D01*
X-170927026Y136473000D01*
X-171012327Y136387699D01*
G36*
X-152670252Y108749142D02*
X-152684395Y108735000D01*
X-152670252Y108720858D01*
X-152849858Y108541252D01*
X-152864000Y108555395D01*
X-152878142Y108541252D01*
X-153057748Y108720858D01*
X-153043605Y108735000D01*
X-153057748Y108749142D01*
X-152878142Y108928748D01*
X-152864000Y108914605D01*
X-152849858Y108928748D01*
X-152670252Y108749142D01*
X-152670252Y108749142D01*
G37*
X-152670252Y108749142D02*
X-152684395Y108735000D01*
X-152670252Y108720858D01*
X-152849858Y108541252D01*
X-152864000Y108555395D01*
X-152878142Y108541252D01*
X-153057748Y108720858D01*
X-153043605Y108735000D01*
X-153057748Y108749142D01*
X-152878142Y108928748D01*
X-152864000Y108914605D01*
X-152849858Y108928748D01*
X-152670252Y108749142D01*
G04 #@! TD*
M02*
