G04 #@! TF.GenerationSoftware,KiCad,Pcbnew,(5.0.1)-4*
G04 #@! TF.CreationDate,2019-03-05T01:40:26-06:00*
G04 #@! TF.ProjectId,mult,6D756C742E6B696361645F7063620000,rev?*
G04 #@! TF.SameCoordinates,Original*
G04 #@! TF.FileFunction,Legend,Bot*
G04 #@! TF.FilePolarity,Positive*
%FSLAX46Y46*%
G04 Gerber Fmt 4.6, Leading zero omitted, Abs format (unit mm)*
G04 Created by KiCad (PCBNEW (5.0.1)-4) date 3/5/2019 1:40:26*
%MOMM*%
%LPD*%
G01*
G04 APERTURE LIST*
%ADD10C,0.150000*%
%ADD11C,0.120000*%
%ADD12C,0.010000*%
G04 APERTURE END LIST*
D10*
X-145111638Y82477828D02*
X-145254495Y82430209D01*
X-145302114Y82382590D01*
X-145349733Y82287352D01*
X-145349733Y82144495D01*
X-145302114Y82049257D01*
X-145254495Y82001638D01*
X-145159257Y81954019D01*
X-144778304Y81954019D01*
X-144778304Y82954019D01*
X-145111638Y82954019D01*
X-145206876Y82906400D01*
X-145254495Y82858780D01*
X-145302114Y82763542D01*
X-145302114Y82668304D01*
X-145254495Y82573066D01*
X-145206876Y82525447D01*
X-145111638Y82477828D01*
X-144778304Y82477828D01*
X-146206876Y82620685D02*
X-146206876Y81954019D01*
X-145778304Y82620685D02*
X-145778304Y82096876D01*
X-145825923Y82001638D01*
X-145921161Y81954019D01*
X-146064019Y81954019D01*
X-146159257Y82001638D01*
X-146206876Y82049257D01*
X-146540209Y82620685D02*
X-146921161Y82620685D01*
X-146683066Y81954019D02*
X-146683066Y82811161D01*
X-146730685Y82906400D01*
X-146825923Y82954019D01*
X-146921161Y82954019D01*
X-147111638Y82620685D02*
X-147492590Y82620685D01*
X-147254495Y81954019D02*
X-147254495Y82811161D01*
X-147302114Y82906400D01*
X-147397352Y82954019D01*
X-147492590Y82954019D01*
X-148206876Y82001638D02*
X-148111638Y81954019D01*
X-147921161Y81954019D01*
X-147825923Y82001638D01*
X-147778304Y82096876D01*
X-147778304Y82477828D01*
X-147825923Y82573066D01*
X-147921161Y82620685D01*
X-148111638Y82620685D01*
X-148206876Y82573066D01*
X-148254495Y82477828D01*
X-148254495Y82382590D01*
X-147778304Y82287352D01*
X-148683066Y81954019D02*
X-148683066Y82620685D01*
X-148683066Y82430209D02*
X-148730685Y82525447D01*
X-148778304Y82573066D01*
X-148873542Y82620685D01*
X-148968780Y82620685D01*
X-149683066Y82001638D02*
X-149587828Y81954019D01*
X-149397352Y81954019D01*
X-149302114Y82001638D01*
X-149254495Y82096876D01*
X-149254495Y82477828D01*
X-149302114Y82573066D01*
X-149397352Y82620685D01*
X-149587828Y82620685D01*
X-149683066Y82573066D01*
X-149730685Y82477828D01*
X-149730685Y82382590D01*
X-149254495Y82287352D01*
X-150587828Y81954019D02*
X-150587828Y82954019D01*
X-150587828Y82001638D02*
X-150492590Y81954019D01*
X-150302114Y81954019D01*
X-150206876Y82001638D01*
X-150159257Y82049257D01*
X-150111638Y82144495D01*
X-150111638Y82430209D01*
X-150159257Y82525447D01*
X-150206876Y82573066D01*
X-150302114Y82620685D01*
X-150492590Y82620685D01*
X-150587828Y82573066D01*
X-151825923Y81954019D02*
X-151825923Y82954019D01*
X-152159257Y82239733D01*
X-152492590Y82954019D01*
X-152492590Y81954019D01*
X-153397352Y82620685D02*
X-153397352Y81954019D01*
X-152968780Y82620685D02*
X-152968780Y82096876D01*
X-153016400Y82001638D01*
X-153111638Y81954019D01*
X-153254495Y81954019D01*
X-153349733Y82001638D01*
X-153397352Y82049257D01*
X-154016400Y81954019D02*
X-153921161Y82001638D01*
X-153873542Y82096876D01*
X-153873542Y82954019D01*
X-154254495Y82620685D02*
X-154635447Y82620685D01*
X-154397352Y82954019D02*
X-154397352Y82096876D01*
X-154444971Y82001638D01*
X-154540209Y81954019D01*
X-154635447Y81954019D01*
X-154968780Y81954019D02*
X-154968780Y82620685D01*
X-154968780Y82954019D02*
X-154921161Y82906400D01*
X-154968780Y82858780D01*
X-155016400Y82906400D01*
X-154968780Y82954019D01*
X-154968780Y82858780D01*
X-155444971Y82620685D02*
X-155444971Y81620685D01*
X-155444971Y82573066D02*
X-155540209Y82620685D01*
X-155730685Y82620685D01*
X-155825923Y82573066D01*
X-155873542Y82525447D01*
X-155921161Y82430209D01*
X-155921161Y82144495D01*
X-155873542Y82049257D01*
X-155825923Y82001638D01*
X-155730685Y81954019D01*
X-155540209Y81954019D01*
X-155444971Y82001638D01*
X-156492590Y81954019D02*
X-156397352Y82001638D01*
X-156349733Y82096876D01*
X-156349733Y82954019D01*
X-157254495Y82001638D02*
X-157159257Y81954019D01*
X-156968780Y81954019D01*
X-156873542Y82001638D01*
X-156825923Y82096876D01*
X-156825923Y82477828D01*
X-156873542Y82573066D01*
X-156968780Y82620685D01*
X-157159257Y82620685D01*
X-157254495Y82573066D01*
X-157302114Y82477828D01*
X-157302114Y82382590D01*
X-156825923Y82287352D01*
X-158349733Y82954019D02*
X-158683066Y81954019D01*
X-159016400Y82954019D01*
X-159873542Y81954019D02*
X-159302114Y81954019D01*
X-159587828Y81954019D02*
X-159587828Y82954019D01*
X-159492590Y82811161D01*
X-159397352Y82715923D01*
X-159302114Y82668304D01*
X-160302114Y82049257D02*
X-160349733Y82001638D01*
X-160302114Y81954019D01*
X-160254495Y82001638D01*
X-160302114Y82049257D01*
X-160302114Y81954019D01*
X-160968780Y82954019D02*
X-161064019Y82954019D01*
X-161159257Y82906400D01*
X-161206876Y82858780D01*
X-161254495Y82763542D01*
X-161302114Y82573066D01*
X-161302114Y82334971D01*
X-161254495Y82144495D01*
X-161206876Y82049257D01*
X-161159257Y82001638D01*
X-161064019Y81954019D01*
X-160968780Y81954019D01*
X-160873542Y82001638D01*
X-160825923Y82049257D01*
X-160778304Y82144495D01*
X-160730685Y82334971D01*
X-160730685Y82573066D01*
X-160778304Y82763542D01*
X-160825923Y82858780D01*
X-160873542Y82906400D01*
X-160968780Y82954019D01*
X-146373542Y80304019D02*
X-146373542Y81304019D01*
X-146944971Y80304019D01*
X-146944971Y81304019D01*
X-147421161Y80304019D02*
X-147421161Y80970685D01*
X-147421161Y81304019D02*
X-147373542Y81256400D01*
X-147421161Y81208780D01*
X-147468780Y81256400D01*
X-147421161Y81304019D01*
X-147421161Y81208780D01*
X-148325923Y80351638D02*
X-148230685Y80304019D01*
X-148040209Y80304019D01*
X-147944971Y80351638D01*
X-147897352Y80399257D01*
X-147849733Y80494495D01*
X-147849733Y80780209D01*
X-147897352Y80875447D01*
X-147944971Y80923066D01*
X-148040209Y80970685D01*
X-148230685Y80970685D01*
X-148325923Y80923066D01*
X-148754495Y80304019D02*
X-148754495Y81304019D01*
X-148849733Y80684971D02*
X-149135447Y80304019D01*
X-149135447Y80970685D02*
X-148754495Y80589733D01*
X-150325923Y80304019D02*
X-150325923Y81304019D01*
X-150659257Y80589733D01*
X-150992590Y81304019D01*
X-150992590Y80304019D01*
X-151897352Y80970685D02*
X-151897352Y80304019D01*
X-151468780Y80970685D02*
X-151468780Y80446876D01*
X-151516400Y80351638D01*
X-151611638Y80304019D01*
X-151754495Y80304019D01*
X-151849733Y80351638D01*
X-151897352Y80399257D01*
X-152373542Y80304019D02*
X-152373542Y80970685D01*
X-152373542Y80780209D02*
X-152421161Y80875447D01*
X-152468780Y80923066D01*
X-152564019Y80970685D01*
X-152659257Y80970685D01*
X-152992590Y80970685D02*
X-152992590Y79970685D01*
X-152992590Y80923066D02*
X-153087828Y80970685D01*
X-153278304Y80970685D01*
X-153373542Y80923066D01*
X-153421161Y80875447D01*
X-153468780Y80780209D01*
X-153468780Y80494495D01*
X-153421161Y80399257D01*
X-153373542Y80351638D01*
X-153278304Y80304019D01*
X-153087828Y80304019D01*
X-152992590Y80351638D01*
X-153897352Y80304019D02*
X-153897352Y81304019D01*
X-154325923Y80304019D02*
X-154325923Y80827828D01*
X-154278304Y80923066D01*
X-154183066Y80970685D01*
X-154040209Y80970685D01*
X-153944971Y80923066D01*
X-153897352Y80875447D01*
X-154706876Y80970685D02*
X-154944971Y80304019D01*
X-155183066Y80970685D02*
X-154944971Y80304019D01*
X-154849733Y80065923D01*
X-154802114Y80018304D01*
X-154706876Y79970685D01*
X-156278304Y81208780D02*
X-156325923Y81256400D01*
X-156421161Y81304019D01*
X-156659257Y81304019D01*
X-156754495Y81256400D01*
X-156802114Y81208780D01*
X-156849733Y81113542D01*
X-156849733Y81018304D01*
X-156802114Y80875447D01*
X-156230685Y80304019D01*
X-156849733Y80304019D01*
X-157468780Y81304019D02*
X-157564019Y81304019D01*
X-157659257Y81256400D01*
X-157706876Y81208780D01*
X-157754495Y81113542D01*
X-157802114Y80923066D01*
X-157802114Y80684971D01*
X-157754495Y80494495D01*
X-157706876Y80399257D01*
X-157659257Y80351638D01*
X-157564019Y80304019D01*
X-157468780Y80304019D01*
X-157373542Y80351638D01*
X-157325923Y80399257D01*
X-157278304Y80494495D01*
X-157230685Y80684971D01*
X-157230685Y80923066D01*
X-157278304Y81113542D01*
X-157325923Y81208780D01*
X-157373542Y81256400D01*
X-157468780Y81304019D01*
X-158754495Y80304019D02*
X-158183066Y80304019D01*
X-158468780Y80304019D02*
X-158468780Y81304019D01*
X-158373542Y81161161D01*
X-158278304Y81065923D01*
X-158183066Y81018304D01*
X-159230685Y80304019D02*
X-159421161Y80304019D01*
X-159516400Y80351638D01*
X-159564019Y80399257D01*
X-159659257Y80542114D01*
X-159706876Y80732590D01*
X-159706876Y81113542D01*
X-159659257Y81208780D01*
X-159611638Y81256400D01*
X-159516400Y81304019D01*
X-159325923Y81304019D01*
X-159230685Y81256400D01*
X-159183066Y81208780D01*
X-159135447Y81113542D01*
X-159135447Y80875447D01*
X-159183066Y80780209D01*
X-159230685Y80732590D01*
X-159325923Y80684971D01*
X-159516400Y80684971D01*
X-159611638Y80732590D01*
X-159659257Y80780209D01*
X-159706876Y80875447D01*
X-144635447Y78654019D02*
X-144635447Y79654019D01*
X-145206876Y78654019D01*
X-145206876Y79654019D01*
X-145683066Y78654019D02*
X-145683066Y79320685D01*
X-145683066Y79654019D02*
X-145635447Y79606400D01*
X-145683066Y79558780D01*
X-145730685Y79606400D01*
X-145683066Y79654019D01*
X-145683066Y79558780D01*
X-146587828Y78701638D02*
X-146492590Y78654019D01*
X-146302114Y78654019D01*
X-146206876Y78701638D01*
X-146159257Y78749257D01*
X-146111638Y78844495D01*
X-146111638Y79130209D01*
X-146159257Y79225447D01*
X-146206876Y79273066D01*
X-146302114Y79320685D01*
X-146492590Y79320685D01*
X-146587828Y79273066D01*
X-147016400Y78654019D02*
X-147016400Y79654019D01*
X-147111638Y79034971D02*
X-147397352Y78654019D01*
X-147397352Y79320685D02*
X-147016400Y78939733D01*
X-148254495Y78654019D02*
X-148254495Y79177828D01*
X-148206876Y79273066D01*
X-148111638Y79320685D01*
X-147921161Y79320685D01*
X-147825923Y79273066D01*
X-148254495Y78701638D02*
X-148159257Y78654019D01*
X-147921161Y78654019D01*
X-147825923Y78701638D01*
X-147778304Y78796876D01*
X-147778304Y78892114D01*
X-147825923Y78987352D01*
X-147921161Y79034971D01*
X-148159257Y79034971D01*
X-148254495Y79082590D01*
X-148730685Y79320685D02*
X-148730685Y78463542D01*
X-148683066Y78368304D01*
X-148587828Y78320685D01*
X-148540209Y78320685D01*
X-148730685Y79654019D02*
X-148683066Y79606400D01*
X-148730685Y79558780D01*
X-148778304Y79606400D01*
X-148730685Y79654019D01*
X-148730685Y79558780D01*
X-149587828Y78701638D02*
X-149492590Y78654019D01*
X-149302114Y78654019D01*
X-149206876Y78701638D01*
X-149159257Y78796876D01*
X-149159257Y79177828D01*
X-149206876Y79273066D01*
X-149302114Y79320685D01*
X-149492590Y79320685D01*
X-149587828Y79273066D01*
X-149635447Y79177828D01*
X-149635447Y79082590D01*
X-149159257Y78987352D01*
X-150492590Y79320685D02*
X-150492590Y78511161D01*
X-150444971Y78415923D01*
X-150397352Y78368304D01*
X-150302114Y78320685D01*
X-150159257Y78320685D01*
X-150064019Y78368304D01*
X-150492590Y78701638D02*
X-150397352Y78654019D01*
X-150206876Y78654019D01*
X-150111638Y78701638D01*
X-150064019Y78749257D01*
X-150016400Y78844495D01*
X-150016400Y79130209D01*
X-150064019Y79225447D01*
X-150111638Y79273066D01*
X-150206876Y79320685D01*
X-150397352Y79320685D01*
X-150492590Y79273066D01*
X-151111638Y78654019D02*
X-151016400Y78701638D01*
X-150968780Y78796876D01*
X-150968780Y79654019D01*
X-151492590Y78654019D02*
X-151492590Y79320685D01*
X-151492590Y79654019D02*
X-151444971Y79606400D01*
X-151492590Y79558780D01*
X-151540209Y79606400D01*
X-151492590Y79654019D01*
X-151492590Y79558780D01*
X-151968780Y79320685D02*
X-151968780Y78654019D01*
X-151968780Y79225447D02*
X-152016400Y79273066D01*
X-152111638Y79320685D01*
X-152254495Y79320685D01*
X-152349733Y79273066D01*
X-152397352Y79177828D01*
X-152397352Y78654019D01*
X-153492590Y79130209D02*
X-153444971Y79177828D01*
X-153349733Y79225447D01*
X-153254495Y79225447D01*
X-153159257Y79177828D01*
X-153111638Y79130209D01*
X-153064019Y79034971D01*
X-153064019Y78939733D01*
X-153111638Y78844495D01*
X-153159257Y78796876D01*
X-153254495Y78749257D01*
X-153349733Y78749257D01*
X-153444971Y78796876D01*
X-153492590Y78844495D01*
X-153492590Y79225447D02*
X-153492590Y78844495D01*
X-153540209Y78796876D01*
X-153587828Y78796876D01*
X-153683066Y78844495D01*
X-153730685Y78939733D01*
X-153730685Y79177828D01*
X-153635447Y79320685D01*
X-153492590Y79415923D01*
X-153302114Y79463542D01*
X-153111638Y79415923D01*
X-152968780Y79320685D01*
X-152873542Y79177828D01*
X-152825923Y78987352D01*
X-152873542Y78796876D01*
X-152968780Y78654019D01*
X-153111638Y78558780D01*
X-153302114Y78511161D01*
X-153492590Y78558780D01*
X-153635447Y78654019D01*
X-154587828Y79320685D02*
X-154587828Y78511161D01*
X-154540209Y78415923D01*
X-154492590Y78368304D01*
X-154397352Y78320685D01*
X-154254495Y78320685D01*
X-154159257Y78368304D01*
X-154587828Y78701638D02*
X-154492590Y78654019D01*
X-154302114Y78654019D01*
X-154206876Y78701638D01*
X-154159257Y78749257D01*
X-154111638Y78844495D01*
X-154111638Y79130209D01*
X-154159257Y79225447D01*
X-154206876Y79273066D01*
X-154302114Y79320685D01*
X-154492590Y79320685D01*
X-154587828Y79273066D01*
X-155064019Y78654019D02*
X-155064019Y79320685D01*
X-155064019Y79225447D02*
X-155111638Y79273066D01*
X-155206876Y79320685D01*
X-155349733Y79320685D01*
X-155444971Y79273066D01*
X-155492590Y79177828D01*
X-155492590Y78654019D01*
X-155492590Y79177828D02*
X-155540209Y79273066D01*
X-155635447Y79320685D01*
X-155778304Y79320685D01*
X-155873542Y79273066D01*
X-155921161Y79177828D01*
X-155921161Y78654019D01*
X-156825923Y78654019D02*
X-156825923Y79177828D01*
X-156778304Y79273066D01*
X-156683066Y79320685D01*
X-156492590Y79320685D01*
X-156397352Y79273066D01*
X-156825923Y78701638D02*
X-156730685Y78654019D01*
X-156492590Y78654019D01*
X-156397352Y78701638D01*
X-156349733Y78796876D01*
X-156349733Y78892114D01*
X-156397352Y78987352D01*
X-156492590Y79034971D01*
X-156730685Y79034971D01*
X-156825923Y79082590D01*
X-157302114Y78654019D02*
X-157302114Y79320685D01*
X-157302114Y79654019D02*
X-157254495Y79606400D01*
X-157302114Y79558780D01*
X-157349733Y79606400D01*
X-157302114Y79654019D01*
X-157302114Y79558780D01*
X-157921161Y78654019D02*
X-157825923Y78701638D01*
X-157778304Y78796876D01*
X-157778304Y79654019D01*
X-158302114Y78749257D02*
X-158349733Y78701638D01*
X-158302114Y78654019D01*
X-158254495Y78701638D01*
X-158302114Y78749257D01*
X-158302114Y78654019D01*
X-159206876Y78701638D02*
X-159111638Y78654019D01*
X-158921161Y78654019D01*
X-158825923Y78701638D01*
X-158778304Y78749257D01*
X-158730685Y78844495D01*
X-158730685Y79130209D01*
X-158778304Y79225447D01*
X-158825923Y79273066D01*
X-158921161Y79320685D01*
X-159111638Y79320685D01*
X-159206876Y79273066D01*
X-159778304Y78654019D02*
X-159683066Y78701638D01*
X-159635447Y78749257D01*
X-159587828Y78844495D01*
X-159587828Y79130209D01*
X-159635447Y79225447D01*
X-159683066Y79273066D01*
X-159778304Y79320685D01*
X-159921161Y79320685D01*
X-160016400Y79273066D01*
X-160064019Y79225447D01*
X-160111638Y79130209D01*
X-160111638Y78844495D01*
X-160064019Y78749257D01*
X-160016400Y78701638D01*
X-159921161Y78654019D01*
X-159778304Y78654019D01*
X-160540209Y78654019D02*
X-160540209Y79320685D01*
X-160540209Y79225447D02*
X-160587828Y79273066D01*
X-160683066Y79320685D01*
X-160825923Y79320685D01*
X-160921161Y79273066D01*
X-160968780Y79177828D01*
X-160968780Y78654019D01*
X-160968780Y79177828D02*
X-161016400Y79273066D01*
X-161111638Y79320685D01*
X-161254495Y79320685D01*
X-161349733Y79273066D01*
X-161397352Y79177828D01*
X-161397352Y78654019D01*
X-149754495Y77099257D02*
X-149706876Y77051638D01*
X-149564019Y77004019D01*
X-149468780Y77004019D01*
X-149325923Y77051638D01*
X-149230685Y77146876D01*
X-149183066Y77242114D01*
X-149135447Y77432590D01*
X-149135447Y77575447D01*
X-149183066Y77765923D01*
X-149230685Y77861161D01*
X-149325923Y77956400D01*
X-149468780Y78004019D01*
X-149564019Y78004019D01*
X-149706876Y77956400D01*
X-149754495Y77908780D01*
X-150754495Y77099257D02*
X-150706876Y77051638D01*
X-150564019Y77004019D01*
X-150468780Y77004019D01*
X-150325923Y77051638D01*
X-150230685Y77146876D01*
X-150183066Y77242114D01*
X-150135447Y77432590D01*
X-150135447Y77575447D01*
X-150183066Y77765923D01*
X-150230685Y77861161D01*
X-150325923Y77956400D01*
X-150468780Y78004019D01*
X-150564019Y78004019D01*
X-150706876Y77956400D01*
X-150754495Y77908780D01*
X-151183066Y77384971D02*
X-151944971Y77384971D01*
X-152754495Y77527828D02*
X-152897352Y77480209D01*
X-152944971Y77432590D01*
X-152992590Y77337352D01*
X-152992590Y77194495D01*
X-152944971Y77099257D01*
X-152897352Y77051638D01*
X-152802114Y77004019D01*
X-152421161Y77004019D01*
X-152421161Y78004019D01*
X-152754495Y78004019D01*
X-152849733Y77956400D01*
X-152897352Y77908780D01*
X-152944971Y77813542D01*
X-152944971Y77718304D01*
X-152897352Y77623066D01*
X-152849733Y77575447D01*
X-152754495Y77527828D01*
X-152421161Y77527828D01*
X-153611638Y77480209D02*
X-153611638Y77004019D01*
X-153278304Y78004019D02*
X-153611638Y77480209D01*
X-153944971Y78004019D01*
X-154278304Y77384971D02*
X-155040209Y77384971D01*
X-155468780Y77051638D02*
X-155611638Y77004019D01*
X-155849733Y77004019D01*
X-155944971Y77051638D01*
X-155992590Y77099257D01*
X-156040209Y77194495D01*
X-156040209Y77289733D01*
X-155992590Y77384971D01*
X-155944971Y77432590D01*
X-155849733Y77480209D01*
X-155659257Y77527828D01*
X-155564019Y77575447D01*
X-155516400Y77623066D01*
X-155468780Y77718304D01*
X-155468780Y77813542D01*
X-155516400Y77908780D01*
X-155564019Y77956400D01*
X-155659257Y78004019D01*
X-155897352Y78004019D01*
X-156040209Y77956400D01*
X-156421161Y77289733D02*
X-156897352Y77289733D01*
X-156325923Y77004019D02*
X-156659257Y78004019D01*
X-156992590Y77004019D01*
X-155150000Y44473000D02*
X-155150000Y43457000D01*
X-150578000Y44473000D02*
X-155150000Y44473000D01*
X-150578000Y43457000D02*
X-150578000Y44473000D01*
D11*
G04 #@! TO.C,C1*
X-151944000Y124088000D02*
X-151944000Y125346000D01*
X-153784000Y124088000D02*
X-153784000Y125346000D01*
G04 #@! TO.C,C2*
X-153784000Y109356000D02*
X-153784000Y110614000D01*
X-151944000Y109356000D02*
X-151944000Y110614000D01*
G04 #@! TO.C,C3*
X-169294000Y46525000D02*
G75*
G03X-169294000Y46525000I-2620000J0D01*
G01*
X-174494000Y46525000D02*
X-169334000Y46525000D01*
X-174494000Y46485000D02*
X-169334000Y46485000D01*
X-174493000Y46445000D02*
X-169335000Y46445000D01*
X-174492000Y46405000D02*
X-169336000Y46405000D01*
X-174490000Y46365000D02*
X-169338000Y46365000D01*
X-174487000Y46325000D02*
X-169341000Y46325000D01*
X-174483000Y46285000D02*
X-172954000Y46285000D01*
X-170874000Y46285000D02*
X-169345000Y46285000D01*
X-174479000Y46245000D02*
X-172954000Y46245000D01*
X-170874000Y46245000D02*
X-169349000Y46245000D01*
X-174475000Y46205000D02*
X-172954000Y46205000D01*
X-170874000Y46205000D02*
X-169353000Y46205000D01*
X-174470000Y46165000D02*
X-172954000Y46165000D01*
X-170874000Y46165000D02*
X-169358000Y46165000D01*
X-174464000Y46125000D02*
X-172954000Y46125000D01*
X-170874000Y46125000D02*
X-169364000Y46125000D01*
X-174457000Y46085000D02*
X-172954000Y46085000D01*
X-170874000Y46085000D02*
X-169371000Y46085000D01*
X-174450000Y46045000D02*
X-172954000Y46045000D01*
X-170874000Y46045000D02*
X-169378000Y46045000D01*
X-174442000Y46005000D02*
X-172954000Y46005000D01*
X-170874000Y46005000D02*
X-169386000Y46005000D01*
X-174434000Y45965000D02*
X-172954000Y45965000D01*
X-170874000Y45965000D02*
X-169394000Y45965000D01*
X-174425000Y45925000D02*
X-172954000Y45925000D01*
X-170874000Y45925000D02*
X-169403000Y45925000D01*
X-174415000Y45885000D02*
X-172954000Y45885000D01*
X-170874000Y45885000D02*
X-169413000Y45885000D01*
X-174405000Y45845000D02*
X-172954000Y45845000D01*
X-170874000Y45845000D02*
X-169423000Y45845000D01*
X-174394000Y45804000D02*
X-172954000Y45804000D01*
X-170874000Y45804000D02*
X-169434000Y45804000D01*
X-174382000Y45764000D02*
X-172954000Y45764000D01*
X-170874000Y45764000D02*
X-169446000Y45764000D01*
X-174369000Y45724000D02*
X-172954000Y45724000D01*
X-170874000Y45724000D02*
X-169459000Y45724000D01*
X-174356000Y45684000D02*
X-172954000Y45684000D01*
X-170874000Y45684000D02*
X-169472000Y45684000D01*
X-174342000Y45644000D02*
X-172954000Y45644000D01*
X-170874000Y45644000D02*
X-169486000Y45644000D01*
X-174328000Y45604000D02*
X-172954000Y45604000D01*
X-170874000Y45604000D02*
X-169500000Y45604000D01*
X-174312000Y45564000D02*
X-172954000Y45564000D01*
X-170874000Y45564000D02*
X-169516000Y45564000D01*
X-174296000Y45524000D02*
X-172954000Y45524000D01*
X-170874000Y45524000D02*
X-169532000Y45524000D01*
X-174279000Y45484000D02*
X-172954000Y45484000D01*
X-170874000Y45484000D02*
X-169549000Y45484000D01*
X-174262000Y45444000D02*
X-172954000Y45444000D01*
X-170874000Y45444000D02*
X-169566000Y45444000D01*
X-174243000Y45404000D02*
X-172954000Y45404000D01*
X-170874000Y45404000D02*
X-169585000Y45404000D01*
X-174224000Y45364000D02*
X-172954000Y45364000D01*
X-170874000Y45364000D02*
X-169604000Y45364000D01*
X-174204000Y45324000D02*
X-172954000Y45324000D01*
X-170874000Y45324000D02*
X-169624000Y45324000D01*
X-174182000Y45284000D02*
X-172954000Y45284000D01*
X-170874000Y45284000D02*
X-169646000Y45284000D01*
X-174161000Y45244000D02*
X-172954000Y45244000D01*
X-170874000Y45244000D02*
X-169667000Y45244000D01*
X-174138000Y45204000D02*
X-172954000Y45204000D01*
X-170874000Y45204000D02*
X-169690000Y45204000D01*
X-174114000Y45164000D02*
X-172954000Y45164000D01*
X-170874000Y45164000D02*
X-169714000Y45164000D01*
X-174089000Y45124000D02*
X-172954000Y45124000D01*
X-170874000Y45124000D02*
X-169739000Y45124000D01*
X-174063000Y45084000D02*
X-172954000Y45084000D01*
X-170874000Y45084000D02*
X-169765000Y45084000D01*
X-174036000Y45044000D02*
X-172954000Y45044000D01*
X-170874000Y45044000D02*
X-169792000Y45044000D01*
X-174009000Y45004000D02*
X-172954000Y45004000D01*
X-170874000Y45004000D02*
X-169819000Y45004000D01*
X-173979000Y44964000D02*
X-172954000Y44964000D01*
X-170874000Y44964000D02*
X-169849000Y44964000D01*
X-173949000Y44924000D02*
X-172954000Y44924000D01*
X-170874000Y44924000D02*
X-169879000Y44924000D01*
X-173918000Y44884000D02*
X-172954000Y44884000D01*
X-170874000Y44884000D02*
X-169910000Y44884000D01*
X-173885000Y44844000D02*
X-172954000Y44844000D01*
X-170874000Y44844000D02*
X-169943000Y44844000D01*
X-173851000Y44804000D02*
X-172954000Y44804000D01*
X-170874000Y44804000D02*
X-169977000Y44804000D01*
X-173815000Y44764000D02*
X-172954000Y44764000D01*
X-170874000Y44764000D02*
X-170013000Y44764000D01*
X-173778000Y44724000D02*
X-172954000Y44724000D01*
X-170874000Y44724000D02*
X-170050000Y44724000D01*
X-173740000Y44684000D02*
X-172954000Y44684000D01*
X-170874000Y44684000D02*
X-170088000Y44684000D01*
X-173699000Y44644000D02*
X-172954000Y44644000D01*
X-170874000Y44644000D02*
X-170129000Y44644000D01*
X-173657000Y44604000D02*
X-172954000Y44604000D01*
X-170874000Y44604000D02*
X-170171000Y44604000D01*
X-173613000Y44564000D02*
X-172954000Y44564000D01*
X-170874000Y44564000D02*
X-170215000Y44564000D01*
X-173567000Y44524000D02*
X-172954000Y44524000D01*
X-170874000Y44524000D02*
X-170261000Y44524000D01*
X-173519000Y44484000D02*
X-172954000Y44484000D01*
X-170874000Y44484000D02*
X-170309000Y44484000D01*
X-173468000Y44444000D02*
X-172954000Y44444000D01*
X-170874000Y44444000D02*
X-170360000Y44444000D01*
X-173414000Y44404000D02*
X-172954000Y44404000D01*
X-170874000Y44404000D02*
X-170414000Y44404000D01*
X-173357000Y44364000D02*
X-172954000Y44364000D01*
X-170874000Y44364000D02*
X-170471000Y44364000D01*
X-173297000Y44324000D02*
X-172954000Y44324000D01*
X-170874000Y44324000D02*
X-170531000Y44324000D01*
X-173233000Y44284000D02*
X-172954000Y44284000D01*
X-170874000Y44284000D02*
X-170595000Y44284000D01*
X-173165000Y44244000D02*
X-172954000Y44244000D01*
X-170874000Y44244000D02*
X-170663000Y44244000D01*
X-173092000Y44204000D02*
X-170736000Y44204000D01*
X-173012000Y44164000D02*
X-170816000Y44164000D01*
X-172925000Y44124000D02*
X-170903000Y44124000D01*
X-172829000Y44084000D02*
X-170999000Y44084000D01*
X-172719000Y44044000D02*
X-171109000Y44044000D01*
X-172591000Y44004000D02*
X-171237000Y44004000D01*
X-172432000Y43964000D02*
X-171396000Y43964000D01*
X-172198000Y43924000D02*
X-171630000Y43924000D01*
X-173389000Y49329775D02*
X-173389000Y48829775D01*
X-173639000Y49079775D02*
X-173139000Y49079775D01*
G04 #@! TO.C,C4*
X-135539000Y49333775D02*
X-135039000Y49333775D01*
X-135289000Y49583775D02*
X-135289000Y49083775D01*
X-134098000Y44178000D02*
X-133530000Y44178000D01*
X-134332000Y44218000D02*
X-133296000Y44218000D01*
X-134491000Y44258000D02*
X-133137000Y44258000D01*
X-134619000Y44298000D02*
X-133009000Y44298000D01*
X-134729000Y44338000D02*
X-132899000Y44338000D01*
X-134825000Y44378000D02*
X-132803000Y44378000D01*
X-134912000Y44418000D02*
X-132716000Y44418000D01*
X-134992000Y44458000D02*
X-132636000Y44458000D01*
X-132774000Y44498000D02*
X-132563000Y44498000D01*
X-135065000Y44498000D02*
X-134854000Y44498000D01*
X-132774000Y44538000D02*
X-132495000Y44538000D01*
X-135133000Y44538000D02*
X-134854000Y44538000D01*
X-132774000Y44578000D02*
X-132431000Y44578000D01*
X-135197000Y44578000D02*
X-134854000Y44578000D01*
X-132774000Y44618000D02*
X-132371000Y44618000D01*
X-135257000Y44618000D02*
X-134854000Y44618000D01*
X-132774000Y44658000D02*
X-132314000Y44658000D01*
X-135314000Y44658000D02*
X-134854000Y44658000D01*
X-132774000Y44698000D02*
X-132260000Y44698000D01*
X-135368000Y44698000D02*
X-134854000Y44698000D01*
X-132774000Y44738000D02*
X-132209000Y44738000D01*
X-135419000Y44738000D02*
X-134854000Y44738000D01*
X-132774000Y44778000D02*
X-132161000Y44778000D01*
X-135467000Y44778000D02*
X-134854000Y44778000D01*
X-132774000Y44818000D02*
X-132115000Y44818000D01*
X-135513000Y44818000D02*
X-134854000Y44818000D01*
X-132774000Y44858000D02*
X-132071000Y44858000D01*
X-135557000Y44858000D02*
X-134854000Y44858000D01*
X-132774000Y44898000D02*
X-132029000Y44898000D01*
X-135599000Y44898000D02*
X-134854000Y44898000D01*
X-132774000Y44938000D02*
X-131988000Y44938000D01*
X-135640000Y44938000D02*
X-134854000Y44938000D01*
X-132774000Y44978000D02*
X-131950000Y44978000D01*
X-135678000Y44978000D02*
X-134854000Y44978000D01*
X-132774000Y45018000D02*
X-131913000Y45018000D01*
X-135715000Y45018000D02*
X-134854000Y45018000D01*
X-132774000Y45058000D02*
X-131877000Y45058000D01*
X-135751000Y45058000D02*
X-134854000Y45058000D01*
X-132774000Y45098000D02*
X-131843000Y45098000D01*
X-135785000Y45098000D02*
X-134854000Y45098000D01*
X-132774000Y45138000D02*
X-131810000Y45138000D01*
X-135818000Y45138000D02*
X-134854000Y45138000D01*
X-132774000Y45178000D02*
X-131779000Y45178000D01*
X-135849000Y45178000D02*
X-134854000Y45178000D01*
X-132774000Y45218000D02*
X-131749000Y45218000D01*
X-135879000Y45218000D02*
X-134854000Y45218000D01*
X-132774000Y45258000D02*
X-131719000Y45258000D01*
X-135909000Y45258000D02*
X-134854000Y45258000D01*
X-132774000Y45298000D02*
X-131692000Y45298000D01*
X-135936000Y45298000D02*
X-134854000Y45298000D01*
X-132774000Y45338000D02*
X-131665000Y45338000D01*
X-135963000Y45338000D02*
X-134854000Y45338000D01*
X-132774000Y45378000D02*
X-131639000Y45378000D01*
X-135989000Y45378000D02*
X-134854000Y45378000D01*
X-132774000Y45418000D02*
X-131614000Y45418000D01*
X-136014000Y45418000D02*
X-134854000Y45418000D01*
X-132774000Y45458000D02*
X-131590000Y45458000D01*
X-136038000Y45458000D02*
X-134854000Y45458000D01*
X-132774000Y45498000D02*
X-131567000Y45498000D01*
X-136061000Y45498000D02*
X-134854000Y45498000D01*
X-132774000Y45538000D02*
X-131546000Y45538000D01*
X-136082000Y45538000D02*
X-134854000Y45538000D01*
X-132774000Y45578000D02*
X-131524000Y45578000D01*
X-136104000Y45578000D02*
X-134854000Y45578000D01*
X-132774000Y45618000D02*
X-131504000Y45618000D01*
X-136124000Y45618000D02*
X-134854000Y45618000D01*
X-132774000Y45658000D02*
X-131485000Y45658000D01*
X-136143000Y45658000D02*
X-134854000Y45658000D01*
X-132774000Y45698000D02*
X-131466000Y45698000D01*
X-136162000Y45698000D02*
X-134854000Y45698000D01*
X-132774000Y45738000D02*
X-131449000Y45738000D01*
X-136179000Y45738000D02*
X-134854000Y45738000D01*
X-132774000Y45778000D02*
X-131432000Y45778000D01*
X-136196000Y45778000D02*
X-134854000Y45778000D01*
X-132774000Y45818000D02*
X-131416000Y45818000D01*
X-136212000Y45818000D02*
X-134854000Y45818000D01*
X-132774000Y45858000D02*
X-131400000Y45858000D01*
X-136228000Y45858000D02*
X-134854000Y45858000D01*
X-132774000Y45898000D02*
X-131386000Y45898000D01*
X-136242000Y45898000D02*
X-134854000Y45898000D01*
X-132774000Y45938000D02*
X-131372000Y45938000D01*
X-136256000Y45938000D02*
X-134854000Y45938000D01*
X-132774000Y45978000D02*
X-131359000Y45978000D01*
X-136269000Y45978000D02*
X-134854000Y45978000D01*
X-132774000Y46018000D02*
X-131346000Y46018000D01*
X-136282000Y46018000D02*
X-134854000Y46018000D01*
X-132774000Y46058000D02*
X-131334000Y46058000D01*
X-136294000Y46058000D02*
X-134854000Y46058000D01*
X-132774000Y46099000D02*
X-131323000Y46099000D01*
X-136305000Y46099000D02*
X-134854000Y46099000D01*
X-132774000Y46139000D02*
X-131313000Y46139000D01*
X-136315000Y46139000D02*
X-134854000Y46139000D01*
X-132774000Y46179000D02*
X-131303000Y46179000D01*
X-136325000Y46179000D02*
X-134854000Y46179000D01*
X-132774000Y46219000D02*
X-131294000Y46219000D01*
X-136334000Y46219000D02*
X-134854000Y46219000D01*
X-132774000Y46259000D02*
X-131286000Y46259000D01*
X-136342000Y46259000D02*
X-134854000Y46259000D01*
X-132774000Y46299000D02*
X-131278000Y46299000D01*
X-136350000Y46299000D02*
X-134854000Y46299000D01*
X-132774000Y46339000D02*
X-131271000Y46339000D01*
X-136357000Y46339000D02*
X-134854000Y46339000D01*
X-132774000Y46379000D02*
X-131264000Y46379000D01*
X-136364000Y46379000D02*
X-134854000Y46379000D01*
X-132774000Y46419000D02*
X-131258000Y46419000D01*
X-136370000Y46419000D02*
X-134854000Y46419000D01*
X-132774000Y46459000D02*
X-131253000Y46459000D01*
X-136375000Y46459000D02*
X-134854000Y46459000D01*
X-132774000Y46499000D02*
X-131249000Y46499000D01*
X-136379000Y46499000D02*
X-134854000Y46499000D01*
X-132774000Y46539000D02*
X-131245000Y46539000D01*
X-136383000Y46539000D02*
X-134854000Y46539000D01*
X-136387000Y46579000D02*
X-131241000Y46579000D01*
X-136390000Y46619000D02*
X-131238000Y46619000D01*
X-136392000Y46659000D02*
X-131236000Y46659000D01*
X-136393000Y46699000D02*
X-131235000Y46699000D01*
X-136394000Y46739000D02*
X-131234000Y46739000D01*
X-136394000Y46779000D02*
X-131234000Y46779000D01*
X-131194000Y46779000D02*
G75*
G03X-131194000Y46779000I-2620000J0D01*
G01*
G04 #@! TO.C,U1*
X-161814000Y116371000D02*
G75*
G03X-161814000Y118371000I0J1000000D01*
G01*
X-161814000Y118371000D02*
X-161814000Y120021000D01*
X-161814000Y120021000D02*
X-143914000Y120021000D01*
X-143914000Y120021000D02*
X-143914000Y114721000D01*
X-143914000Y114721000D02*
X-161814000Y114721000D01*
X-161814000Y114721000D02*
X-161814000Y116371000D01*
G04 #@! TO.C,JP1*
X-142434000Y52704000D02*
X-163294000Y52704000D01*
X-163294000Y52704000D02*
X-163294000Y43354000D01*
X-163294000Y43354000D02*
X-142434000Y43354000D01*
X-142434000Y43354000D02*
X-142434000Y52704000D01*
X-142184000Y43104000D02*
X-144724000Y43104000D01*
X-142184000Y43104000D02*
X-142184000Y45644000D01*
D12*
G04 #@! TO.C,G\002A\002A\002A*
G36*
X-153147378Y94145883D02*
X-153275870Y94144021D01*
X-153384499Y94141210D01*
X-153467054Y94137639D01*
X-153517322Y94133496D01*
X-153529532Y94130734D01*
X-153543571Y94103074D01*
X-153563313Y94035754D01*
X-153588274Y93930993D01*
X-153617969Y93791010D01*
X-153651913Y93618023D01*
X-153689623Y93414251D01*
X-153706116Y93322006D01*
X-153725329Y93223618D01*
X-153745060Y93139589D01*
X-153762880Y93079350D01*
X-153775408Y93053134D01*
X-153804343Y93035811D01*
X-153864816Y93006808D01*
X-153948773Y92969427D01*
X-154048159Y92926971D01*
X-154154921Y92882743D01*
X-154261003Y92840046D01*
X-154358351Y92802182D01*
X-154438910Y92772454D01*
X-154494626Y92754164D01*
X-154514836Y92749933D01*
X-154541825Y92761502D01*
X-154598334Y92794022D01*
X-154679170Y92844214D01*
X-154779139Y92908797D01*
X-154893048Y92984493D01*
X-154984041Y93046266D01*
X-155103883Y93127866D01*
X-155212453Y93200868D01*
X-155304808Y93262023D01*
X-155376006Y93308083D01*
X-155421105Y93335801D01*
X-155434911Y93342600D01*
X-155456142Y93328059D01*
X-155501464Y93287806D01*
X-155565891Y93226897D01*
X-155644437Y93150389D01*
X-155732118Y93063337D01*
X-155823946Y92970798D01*
X-155914937Y92877829D01*
X-156000105Y92789484D01*
X-156074463Y92710820D01*
X-156133028Y92646894D01*
X-156170811Y92602761D01*
X-156182934Y92584007D01*
X-156171473Y92559586D01*
X-156139616Y92506141D01*
X-156091148Y92429393D01*
X-156029856Y92335064D01*
X-155959525Y92228876D01*
X-155883943Y92116551D01*
X-155806893Y92003812D01*
X-155732164Y91896378D01*
X-155670868Y91810132D01*
X-155635211Y91751821D01*
X-155614000Y91700164D01*
X-155611434Y91683934D01*
X-155619502Y91651112D01*
X-155641913Y91586591D01*
X-155675978Y91497427D01*
X-155719009Y91390674D01*
X-155764523Y91282246D01*
X-155829692Y91133854D01*
X-155882008Y91023807D01*
X-155922355Y90950409D01*
X-155951617Y90911962D01*
X-155960315Y90906032D01*
X-155993046Y90896943D01*
X-156060754Y90881676D01*
X-156156762Y90861612D01*
X-156274394Y90838130D01*
X-156406974Y90812612D01*
X-156464495Y90801808D01*
X-156600360Y90776210D01*
X-156723184Y90752569D01*
X-156826512Y90732169D01*
X-156903888Y90716293D01*
X-156948857Y90706222D01*
X-156956620Y90703998D01*
X-156966312Y90694315D01*
X-156973791Y90670518D01*
X-156979321Y90627950D01*
X-156983168Y90561952D01*
X-156985598Y90467867D01*
X-156986875Y90341037D01*
X-156987266Y90176805D01*
X-156987267Y90166080D01*
X-156987049Y90002395D01*
X-156986169Y89876012D01*
X-156984284Y89781903D01*
X-156981053Y89715038D01*
X-156976134Y89670389D01*
X-156969187Y89642924D01*
X-156959869Y89627617D01*
X-156950225Y89620611D01*
X-156918980Y89611282D01*
X-156852747Y89596208D01*
X-156758270Y89576760D01*
X-156642292Y89554311D01*
X-156511555Y89530234D01*
X-156468684Y89522583D01*
X-156334082Y89497818D01*
X-156211583Y89473532D01*
X-156108082Y89451232D01*
X-156030474Y89432424D01*
X-155985652Y89418616D01*
X-155979616Y89415665D01*
X-155952500Y89382333D01*
X-155913171Y89309238D01*
X-155861954Y89197052D01*
X-155799171Y89046449D01*
X-155783824Y89008190D01*
X-155736740Y88888604D01*
X-155695648Y88781374D01*
X-155662989Y88693111D01*
X-155641208Y88630424D01*
X-155632745Y88599925D01*
X-155632714Y88599216D01*
X-155644289Y88573893D01*
X-155676677Y88519173D01*
X-155726476Y88440381D01*
X-155790281Y88342845D01*
X-155864691Y88231890D01*
X-155907881Y88168566D01*
X-155986605Y88052484D01*
X-156056538Y87946825D01*
X-156114276Y87856946D01*
X-156156413Y87788199D01*
X-156179544Y87745940D01*
X-156182934Y87736059D01*
X-156168284Y87710495D01*
X-156127771Y87661249D01*
X-156066546Y87593450D01*
X-155989763Y87512226D01*
X-155902573Y87422708D01*
X-155810129Y87330024D01*
X-155717583Y87239304D01*
X-155630089Y87155676D01*
X-155552797Y87084271D01*
X-155490862Y87030216D01*
X-155449434Y86998641D01*
X-155436100Y86992600D01*
X-155407731Y87004217D01*
X-155350380Y87036728D01*
X-155269659Y87086626D01*
X-155171177Y87150403D01*
X-155060547Y87224552D01*
X-155012910Y87257183D01*
X-154898993Y87334557D01*
X-154795009Y87403004D01*
X-154706549Y87459021D01*
X-154639203Y87499101D01*
X-154598564Y87519739D01*
X-154590898Y87521766D01*
X-154556260Y87512084D01*
X-154495250Y87486130D01*
X-154418305Y87448540D01*
X-154376534Y87426516D01*
X-154298941Y87385268D01*
X-154235795Y87353019D01*
X-154195974Y87334238D01*
X-154187226Y87331266D01*
X-154178005Y87338509D01*
X-154163207Y87362721D01*
X-154141170Y87407627D01*
X-154110232Y87476951D01*
X-154068732Y87574420D01*
X-154015007Y87703758D01*
X-153947395Y87868691D01*
X-153946446Y87871016D01*
X-153892976Y88001564D01*
X-153828713Y88157780D01*
X-153759183Y88326272D01*
X-153689913Y88493647D01*
X-153630314Y88637174D01*
X-153578319Y88762890D01*
X-153532330Y88875538D01*
X-153494700Y88969238D01*
X-153467780Y89038104D01*
X-153453923Y89076256D01*
X-153452564Y89081674D01*
X-153468614Y89100667D01*
X-153511735Y89138116D01*
X-153574564Y89187854D01*
X-153621730Y89223299D01*
X-153765729Y89339601D01*
X-153877657Y89455661D01*
X-153966229Y89582580D01*
X-154040158Y89731457D01*
X-154061137Y89782960D01*
X-154086845Y89854641D01*
X-154103212Y89919933D01*
X-154112233Y89992346D01*
X-154115903Y90085392D01*
X-154116366Y90157016D01*
X-154114945Y90269134D01*
X-154109362Y90352451D01*
X-154097636Y90420445D01*
X-154077784Y90486593D01*
X-154061524Y90530045D01*
X-153990151Y90687826D01*
X-153907156Y90818934D01*
X-153802286Y90939005D01*
X-153777422Y90963420D01*
X-153612241Y91094430D01*
X-153430779Y91189117D01*
X-153238276Y91247619D01*
X-153039969Y91270070D01*
X-152841095Y91256604D01*
X-152646894Y91207358D01*
X-152462602Y91122467D01*
X-152293459Y91002065D01*
X-152210890Y90922994D01*
X-152071841Y90748434D01*
X-151973510Y90562423D01*
X-151915681Y90364293D01*
X-151898134Y90153371D01*
X-151909634Y89998266D01*
X-151956633Y89793431D01*
X-152040789Y89606799D01*
X-152163014Y89436901D01*
X-152324219Y89282270D01*
X-152382445Y89237060D01*
X-152456810Y89179683D01*
X-152516357Y89129352D01*
X-152553946Y89092381D01*
X-152563434Y89077085D01*
X-152555489Y89043300D01*
X-152535380Y88987596D01*
X-152523298Y88958499D01*
X-152503204Y88911143D01*
X-152470105Y88832032D01*
X-152427081Y88728571D01*
X-152377208Y88608165D01*
X-152323565Y88478220D01*
X-152308857Y88442516D01*
X-152208530Y88199047D01*
X-152123105Y87992203D01*
X-152051500Y87819410D01*
X-151992627Y87678096D01*
X-151945404Y87565687D01*
X-151908745Y87479610D01*
X-151881564Y87417292D01*
X-151862778Y87376159D01*
X-151851302Y87353638D01*
X-151847385Y87347897D01*
X-151823502Y87350542D01*
X-151771409Y87370012D01*
X-151699984Y87402719D01*
X-151652964Y87426463D01*
X-151570755Y87467382D01*
X-151499240Y87499425D01*
X-151448891Y87518064D01*
X-151434451Y87520958D01*
X-151404775Y87509707D01*
X-151347063Y87478034D01*
X-151267883Y87429900D01*
X-151173807Y87369263D01*
X-151095785Y87316842D01*
X-150989526Y87244221D01*
X-150888709Y87175353D01*
X-150801409Y87115752D01*
X-150735700Y87070931D01*
X-150708280Y87052258D01*
X-150650425Y87017364D01*
X-150602212Y86995883D01*
X-150586160Y86992600D01*
X-150562126Y87007040D01*
X-150513024Y87047597D01*
X-150443387Y87110128D01*
X-150357752Y87190490D01*
X-150260653Y87284539D01*
X-150190356Y87354231D01*
X-150059864Y87486488D01*
X-149960171Y87591367D01*
X-149890528Y87669715D01*
X-149850182Y87722379D01*
X-149838383Y87750206D01*
X-149838567Y87751106D01*
X-149853245Y87779268D01*
X-149888103Y87835876D01*
X-149939093Y87914665D01*
X-150002165Y88009368D01*
X-150066479Y88103850D01*
X-150140241Y88211146D01*
X-150209107Y88311331D01*
X-150268095Y88397156D01*
X-150312223Y88461371D01*
X-150334013Y88493095D01*
X-150365560Y88547870D01*
X-150382400Y88594297D01*
X-150383267Y88602613D01*
X-150375746Y88631627D01*
X-150355160Y88692155D01*
X-150324477Y88776531D01*
X-150286663Y88877087D01*
X-150244685Y88986158D01*
X-150201510Y89096076D01*
X-150160106Y89199176D01*
X-150123439Y89287790D01*
X-150094475Y89354252D01*
X-150083186Y89378027D01*
X-150073208Y89394761D01*
X-150058535Y89409017D01*
X-150034317Y89422057D01*
X-149995704Y89435145D01*
X-149937848Y89449545D01*
X-149855897Y89466521D01*
X-149745003Y89487337D01*
X-149600316Y89513255D01*
X-149488702Y89532936D01*
X-149366225Y89555135D01*
X-149255588Y89576420D01*
X-149164687Y89595176D01*
X-149101421Y89609786D01*
X-149076225Y89617313D01*
X-149061401Y89624470D01*
X-149050024Y89635191D01*
X-149041639Y89654621D01*
X-149035789Y89687900D01*
X-149032018Y89740171D01*
X-149029869Y89816577D01*
X-149028886Y89922259D01*
X-149028613Y90062360D01*
X-149028600Y90153971D01*
X-149029182Y90327434D01*
X-149031052Y90462348D01*
X-149034395Y90562484D01*
X-149039397Y90631610D01*
X-149046242Y90673498D01*
X-149055059Y90691869D01*
X-149082751Y90701807D01*
X-149145831Y90717874D01*
X-149238028Y90738684D01*
X-149353070Y90762852D01*
X-149484683Y90788992D01*
X-149557767Y90802937D01*
X-149696113Y90829457D01*
X-149821730Y90854458D01*
X-149928208Y90876591D01*
X-150009139Y90894506D01*
X-150058114Y90906853D01*
X-150068738Y90910579D01*
X-150087576Y90934982D01*
X-150119317Y90992168D01*
X-150160801Y91075752D01*
X-150208865Y91179350D01*
X-150260348Y91296580D01*
X-150263233Y91303334D01*
X-150319862Y91437701D01*
X-150360684Y91538931D01*
X-150387461Y91612402D01*
X-150401952Y91663494D01*
X-150405919Y91697586D01*
X-150401122Y91720057D01*
X-150400228Y91721873D01*
X-150381957Y91751550D01*
X-150343390Y91810418D01*
X-150288305Y91892845D01*
X-150220477Y91993197D01*
X-150143683Y92105841D01*
X-150105192Y92161973D01*
X-150026907Y92277078D01*
X-149957425Y92381453D01*
X-149900166Y92469779D01*
X-149858549Y92536734D01*
X-149835994Y92576999D01*
X-149832934Y92585533D01*
X-149847309Y92607083D01*
X-149887105Y92653004D01*
X-149947320Y92718251D01*
X-150022958Y92797776D01*
X-150109019Y92886535D01*
X-150200505Y92979480D01*
X-150292417Y93071566D01*
X-150379756Y93157747D01*
X-150457523Y93232975D01*
X-150520721Y93292206D01*
X-150564350Y93330392D01*
X-150582870Y93342600D01*
X-150590886Y93340840D01*
X-150605231Y93334030D01*
X-150629370Y93319880D01*
X-150666766Y93296095D01*
X-150720883Y93260384D01*
X-150795185Y93210453D01*
X-150893136Y93144010D01*
X-151018199Y93058763D01*
X-151173839Y92952418D01*
X-151217640Y92922467D01*
X-151310266Y92860734D01*
X-151392719Y92808773D01*
X-151457751Y92770930D01*
X-151498115Y92751553D01*
X-151505324Y92749933D01*
X-151538018Y92757987D01*
X-151601324Y92779930D01*
X-151687180Y92812434D01*
X-151787522Y92852170D01*
X-151894290Y92895810D01*
X-151999419Y92940025D01*
X-152094850Y92981487D01*
X-152172518Y93016867D01*
X-152224362Y93042837D01*
X-152240985Y93053649D01*
X-152250903Y93068728D01*
X-152261963Y93097488D01*
X-152275028Y93143864D01*
X-152290960Y93211790D01*
X-152310621Y93305199D01*
X-152334874Y93428026D01*
X-152364581Y93584206D01*
X-152400604Y93777671D01*
X-152405491Y93804114D01*
X-152426514Y93911069D01*
X-152447189Y94004175D01*
X-152465441Y94074874D01*
X-152479196Y94114610D01*
X-152481766Y94118797D01*
X-152498654Y94128159D01*
X-152534754Y94135318D01*
X-152594466Y94140509D01*
X-152682191Y94143965D01*
X-152802328Y94145920D01*
X-152959276Y94146608D01*
X-153005234Y94146609D01*
X-153147378Y94145883D01*
X-153147378Y94145883D01*
G37*
X-153147378Y94145883D02*
X-153275870Y94144021D01*
X-153384499Y94141210D01*
X-153467054Y94137639D01*
X-153517322Y94133496D01*
X-153529532Y94130734D01*
X-153543571Y94103074D01*
X-153563313Y94035754D01*
X-153588274Y93930993D01*
X-153617969Y93791010D01*
X-153651913Y93618023D01*
X-153689623Y93414251D01*
X-153706116Y93322006D01*
X-153725329Y93223618D01*
X-153745060Y93139589D01*
X-153762880Y93079350D01*
X-153775408Y93053134D01*
X-153804343Y93035811D01*
X-153864816Y93006808D01*
X-153948773Y92969427D01*
X-154048159Y92926971D01*
X-154154921Y92882743D01*
X-154261003Y92840046D01*
X-154358351Y92802182D01*
X-154438910Y92772454D01*
X-154494626Y92754164D01*
X-154514836Y92749933D01*
X-154541825Y92761502D01*
X-154598334Y92794022D01*
X-154679170Y92844214D01*
X-154779139Y92908797D01*
X-154893048Y92984493D01*
X-154984041Y93046266D01*
X-155103883Y93127866D01*
X-155212453Y93200868D01*
X-155304808Y93262023D01*
X-155376006Y93308083D01*
X-155421105Y93335801D01*
X-155434911Y93342600D01*
X-155456142Y93328059D01*
X-155501464Y93287806D01*
X-155565891Y93226897D01*
X-155644437Y93150389D01*
X-155732118Y93063337D01*
X-155823946Y92970798D01*
X-155914937Y92877829D01*
X-156000105Y92789484D01*
X-156074463Y92710820D01*
X-156133028Y92646894D01*
X-156170811Y92602761D01*
X-156182934Y92584007D01*
X-156171473Y92559586D01*
X-156139616Y92506141D01*
X-156091148Y92429393D01*
X-156029856Y92335064D01*
X-155959525Y92228876D01*
X-155883943Y92116551D01*
X-155806893Y92003812D01*
X-155732164Y91896378D01*
X-155670868Y91810132D01*
X-155635211Y91751821D01*
X-155614000Y91700164D01*
X-155611434Y91683934D01*
X-155619502Y91651112D01*
X-155641913Y91586591D01*
X-155675978Y91497427D01*
X-155719009Y91390674D01*
X-155764523Y91282246D01*
X-155829692Y91133854D01*
X-155882008Y91023807D01*
X-155922355Y90950409D01*
X-155951617Y90911962D01*
X-155960315Y90906032D01*
X-155993046Y90896943D01*
X-156060754Y90881676D01*
X-156156762Y90861612D01*
X-156274394Y90838130D01*
X-156406974Y90812612D01*
X-156464495Y90801808D01*
X-156600360Y90776210D01*
X-156723184Y90752569D01*
X-156826512Y90732169D01*
X-156903888Y90716293D01*
X-156948857Y90706222D01*
X-156956620Y90703998D01*
X-156966312Y90694315D01*
X-156973791Y90670518D01*
X-156979321Y90627950D01*
X-156983168Y90561952D01*
X-156985598Y90467867D01*
X-156986875Y90341037D01*
X-156987266Y90176805D01*
X-156987267Y90166080D01*
X-156987049Y90002395D01*
X-156986169Y89876012D01*
X-156984284Y89781903D01*
X-156981053Y89715038D01*
X-156976134Y89670389D01*
X-156969187Y89642924D01*
X-156959869Y89627617D01*
X-156950225Y89620611D01*
X-156918980Y89611282D01*
X-156852747Y89596208D01*
X-156758270Y89576760D01*
X-156642292Y89554311D01*
X-156511555Y89530234D01*
X-156468684Y89522583D01*
X-156334082Y89497818D01*
X-156211583Y89473532D01*
X-156108082Y89451232D01*
X-156030474Y89432424D01*
X-155985652Y89418616D01*
X-155979616Y89415665D01*
X-155952500Y89382333D01*
X-155913171Y89309238D01*
X-155861954Y89197052D01*
X-155799171Y89046449D01*
X-155783824Y89008190D01*
X-155736740Y88888604D01*
X-155695648Y88781374D01*
X-155662989Y88693111D01*
X-155641208Y88630424D01*
X-155632745Y88599925D01*
X-155632714Y88599216D01*
X-155644289Y88573893D01*
X-155676677Y88519173D01*
X-155726476Y88440381D01*
X-155790281Y88342845D01*
X-155864691Y88231890D01*
X-155907881Y88168566D01*
X-155986605Y88052484D01*
X-156056538Y87946825D01*
X-156114276Y87856946D01*
X-156156413Y87788199D01*
X-156179544Y87745940D01*
X-156182934Y87736059D01*
X-156168284Y87710495D01*
X-156127771Y87661249D01*
X-156066546Y87593450D01*
X-155989763Y87512226D01*
X-155902573Y87422708D01*
X-155810129Y87330024D01*
X-155717583Y87239304D01*
X-155630089Y87155676D01*
X-155552797Y87084271D01*
X-155490862Y87030216D01*
X-155449434Y86998641D01*
X-155436100Y86992600D01*
X-155407731Y87004217D01*
X-155350380Y87036728D01*
X-155269659Y87086626D01*
X-155171177Y87150403D01*
X-155060547Y87224552D01*
X-155012910Y87257183D01*
X-154898993Y87334557D01*
X-154795009Y87403004D01*
X-154706549Y87459021D01*
X-154639203Y87499101D01*
X-154598564Y87519739D01*
X-154590898Y87521766D01*
X-154556260Y87512084D01*
X-154495250Y87486130D01*
X-154418305Y87448540D01*
X-154376534Y87426516D01*
X-154298941Y87385268D01*
X-154235795Y87353019D01*
X-154195974Y87334238D01*
X-154187226Y87331266D01*
X-154178005Y87338509D01*
X-154163207Y87362721D01*
X-154141170Y87407627D01*
X-154110232Y87476951D01*
X-154068732Y87574420D01*
X-154015007Y87703758D01*
X-153947395Y87868691D01*
X-153946446Y87871016D01*
X-153892976Y88001564D01*
X-153828713Y88157780D01*
X-153759183Y88326272D01*
X-153689913Y88493647D01*
X-153630314Y88637174D01*
X-153578319Y88762890D01*
X-153532330Y88875538D01*
X-153494700Y88969238D01*
X-153467780Y89038104D01*
X-153453923Y89076256D01*
X-153452564Y89081674D01*
X-153468614Y89100667D01*
X-153511735Y89138116D01*
X-153574564Y89187854D01*
X-153621730Y89223299D01*
X-153765729Y89339601D01*
X-153877657Y89455661D01*
X-153966229Y89582580D01*
X-154040158Y89731457D01*
X-154061137Y89782960D01*
X-154086845Y89854641D01*
X-154103212Y89919933D01*
X-154112233Y89992346D01*
X-154115903Y90085392D01*
X-154116366Y90157016D01*
X-154114945Y90269134D01*
X-154109362Y90352451D01*
X-154097636Y90420445D01*
X-154077784Y90486593D01*
X-154061524Y90530045D01*
X-153990151Y90687826D01*
X-153907156Y90818934D01*
X-153802286Y90939005D01*
X-153777422Y90963420D01*
X-153612241Y91094430D01*
X-153430779Y91189117D01*
X-153238276Y91247619D01*
X-153039969Y91270070D01*
X-152841095Y91256604D01*
X-152646894Y91207358D01*
X-152462602Y91122467D01*
X-152293459Y91002065D01*
X-152210890Y90922994D01*
X-152071841Y90748434D01*
X-151973510Y90562423D01*
X-151915681Y90364293D01*
X-151898134Y90153371D01*
X-151909634Y89998266D01*
X-151956633Y89793431D01*
X-152040789Y89606799D01*
X-152163014Y89436901D01*
X-152324219Y89282270D01*
X-152382445Y89237060D01*
X-152456810Y89179683D01*
X-152516357Y89129352D01*
X-152553946Y89092381D01*
X-152563434Y89077085D01*
X-152555489Y89043300D01*
X-152535380Y88987596D01*
X-152523298Y88958499D01*
X-152503204Y88911143D01*
X-152470105Y88832032D01*
X-152427081Y88728571D01*
X-152377208Y88608165D01*
X-152323565Y88478220D01*
X-152308857Y88442516D01*
X-152208530Y88199047D01*
X-152123105Y87992203D01*
X-152051500Y87819410D01*
X-151992627Y87678096D01*
X-151945404Y87565687D01*
X-151908745Y87479610D01*
X-151881564Y87417292D01*
X-151862778Y87376159D01*
X-151851302Y87353638D01*
X-151847385Y87347897D01*
X-151823502Y87350542D01*
X-151771409Y87370012D01*
X-151699984Y87402719D01*
X-151652964Y87426463D01*
X-151570755Y87467382D01*
X-151499240Y87499425D01*
X-151448891Y87518064D01*
X-151434451Y87520958D01*
X-151404775Y87509707D01*
X-151347063Y87478034D01*
X-151267883Y87429900D01*
X-151173807Y87369263D01*
X-151095785Y87316842D01*
X-150989526Y87244221D01*
X-150888709Y87175353D01*
X-150801409Y87115752D01*
X-150735700Y87070931D01*
X-150708280Y87052258D01*
X-150650425Y87017364D01*
X-150602212Y86995883D01*
X-150586160Y86992600D01*
X-150562126Y87007040D01*
X-150513024Y87047597D01*
X-150443387Y87110128D01*
X-150357752Y87190490D01*
X-150260653Y87284539D01*
X-150190356Y87354231D01*
X-150059864Y87486488D01*
X-149960171Y87591367D01*
X-149890528Y87669715D01*
X-149850182Y87722379D01*
X-149838383Y87750206D01*
X-149838567Y87751106D01*
X-149853245Y87779268D01*
X-149888103Y87835876D01*
X-149939093Y87914665D01*
X-150002165Y88009368D01*
X-150066479Y88103850D01*
X-150140241Y88211146D01*
X-150209107Y88311331D01*
X-150268095Y88397156D01*
X-150312223Y88461371D01*
X-150334013Y88493095D01*
X-150365560Y88547870D01*
X-150382400Y88594297D01*
X-150383267Y88602613D01*
X-150375746Y88631627D01*
X-150355160Y88692155D01*
X-150324477Y88776531D01*
X-150286663Y88877087D01*
X-150244685Y88986158D01*
X-150201510Y89096076D01*
X-150160106Y89199176D01*
X-150123439Y89287790D01*
X-150094475Y89354252D01*
X-150083186Y89378027D01*
X-150073208Y89394761D01*
X-150058535Y89409017D01*
X-150034317Y89422057D01*
X-149995704Y89435145D01*
X-149937848Y89449545D01*
X-149855897Y89466521D01*
X-149745003Y89487337D01*
X-149600316Y89513255D01*
X-149488702Y89532936D01*
X-149366225Y89555135D01*
X-149255588Y89576420D01*
X-149164687Y89595176D01*
X-149101421Y89609786D01*
X-149076225Y89617313D01*
X-149061401Y89624470D01*
X-149050024Y89635191D01*
X-149041639Y89654621D01*
X-149035789Y89687900D01*
X-149032018Y89740171D01*
X-149029869Y89816577D01*
X-149028886Y89922259D01*
X-149028613Y90062360D01*
X-149028600Y90153971D01*
X-149029182Y90327434D01*
X-149031052Y90462348D01*
X-149034395Y90562484D01*
X-149039397Y90631610D01*
X-149046242Y90673498D01*
X-149055059Y90691869D01*
X-149082751Y90701807D01*
X-149145831Y90717874D01*
X-149238028Y90738684D01*
X-149353070Y90762852D01*
X-149484683Y90788992D01*
X-149557767Y90802937D01*
X-149696113Y90829457D01*
X-149821730Y90854458D01*
X-149928208Y90876591D01*
X-150009139Y90894506D01*
X-150058114Y90906853D01*
X-150068738Y90910579D01*
X-150087576Y90934982D01*
X-150119317Y90992168D01*
X-150160801Y91075752D01*
X-150208865Y91179350D01*
X-150260348Y91296580D01*
X-150263233Y91303334D01*
X-150319862Y91437701D01*
X-150360684Y91538931D01*
X-150387461Y91612402D01*
X-150401952Y91663494D01*
X-150405919Y91697586D01*
X-150401122Y91720057D01*
X-150400228Y91721873D01*
X-150381957Y91751550D01*
X-150343390Y91810418D01*
X-150288305Y91892845D01*
X-150220477Y91993197D01*
X-150143683Y92105841D01*
X-150105192Y92161973D01*
X-150026907Y92277078D01*
X-149957425Y92381453D01*
X-149900166Y92469779D01*
X-149858549Y92536734D01*
X-149835994Y92576999D01*
X-149832934Y92585533D01*
X-149847309Y92607083D01*
X-149887105Y92653004D01*
X-149947320Y92718251D01*
X-150022958Y92797776D01*
X-150109019Y92886535D01*
X-150200505Y92979480D01*
X-150292417Y93071566D01*
X-150379756Y93157747D01*
X-150457523Y93232975D01*
X-150520721Y93292206D01*
X-150564350Y93330392D01*
X-150582870Y93342600D01*
X-150590886Y93340840D01*
X-150605231Y93334030D01*
X-150629370Y93319880D01*
X-150666766Y93296095D01*
X-150720883Y93260384D01*
X-150795185Y93210453D01*
X-150893136Y93144010D01*
X-151018199Y93058763D01*
X-151173839Y92952418D01*
X-151217640Y92922467D01*
X-151310266Y92860734D01*
X-151392719Y92808773D01*
X-151457751Y92770930D01*
X-151498115Y92751553D01*
X-151505324Y92749933D01*
X-151538018Y92757987D01*
X-151601324Y92779930D01*
X-151687180Y92812434D01*
X-151787522Y92852170D01*
X-151894290Y92895810D01*
X-151999419Y92940025D01*
X-152094850Y92981487D01*
X-152172518Y93016867D01*
X-152224362Y93042837D01*
X-152240985Y93053649D01*
X-152250903Y93068728D01*
X-152261963Y93097488D01*
X-152275028Y93143864D01*
X-152290960Y93211790D01*
X-152310621Y93305199D01*
X-152334874Y93428026D01*
X-152364581Y93584206D01*
X-152400604Y93777671D01*
X-152405491Y93804114D01*
X-152426514Y93911069D01*
X-152447189Y94004175D01*
X-152465441Y94074874D01*
X-152479196Y94114610D01*
X-152481766Y94118797D01*
X-152498654Y94128159D01*
X-152534754Y94135318D01*
X-152594466Y94140509D01*
X-152682191Y94143965D01*
X-152802328Y94145920D01*
X-152959276Y94146608D01*
X-153005234Y94146609D01*
X-153147378Y94145883D01*
G04 #@! TO.C,C1*
D10*
X-154284857Y124883666D02*
X-154237238Y124931285D01*
X-154189619Y125074142D01*
X-154189619Y125169380D01*
X-154237238Y125312238D01*
X-154332476Y125407476D01*
X-154427714Y125455095D01*
X-154618190Y125502714D01*
X-154761047Y125502714D01*
X-154951523Y125455095D01*
X-155046761Y125407476D01*
X-155142000Y125312238D01*
X-155189619Y125169380D01*
X-155189619Y125074142D01*
X-155142000Y124931285D01*
X-155094380Y124883666D01*
X-154189619Y123931285D02*
X-154189619Y124502714D01*
X-154189619Y124217000D02*
X-155189619Y124217000D01*
X-155046761Y124312238D01*
X-154951523Y124407476D01*
X-154903904Y124502714D01*
G04 #@! TO.C,C2*
X-154284857Y110171666D02*
X-154237238Y110219285D01*
X-154189619Y110362142D01*
X-154189619Y110457380D01*
X-154237238Y110600238D01*
X-154332476Y110695476D01*
X-154427714Y110743095D01*
X-154618190Y110790714D01*
X-154761047Y110790714D01*
X-154951523Y110743095D01*
X-155046761Y110695476D01*
X-155142000Y110600238D01*
X-155189619Y110457380D01*
X-155189619Y110362142D01*
X-155142000Y110219285D01*
X-155094380Y110171666D01*
X-155094380Y109790714D02*
X-155142000Y109743095D01*
X-155189619Y109647857D01*
X-155189619Y109409761D01*
X-155142000Y109314523D01*
X-155094380Y109266904D01*
X-154999142Y109219285D01*
X-154903904Y109219285D01*
X-154761047Y109266904D01*
X-154189619Y109838333D01*
X-154189619Y109219285D01*
G04 #@! TO.C,C3*
X-171556857Y50481666D02*
X-171509238Y50529285D01*
X-171461619Y50672142D01*
X-171461619Y50767380D01*
X-171509238Y50910238D01*
X-171604476Y51005476D01*
X-171699714Y51053095D01*
X-171890190Y51100714D01*
X-172033047Y51100714D01*
X-172223523Y51053095D01*
X-172318761Y51005476D01*
X-172414000Y50910238D01*
X-172461619Y50767380D01*
X-172461619Y50672142D01*
X-172414000Y50529285D01*
X-172366380Y50481666D01*
X-172461619Y50148333D02*
X-172461619Y49529285D01*
X-172080666Y49862619D01*
X-172080666Y49719761D01*
X-172033047Y49624523D01*
X-171985428Y49576904D01*
X-171890190Y49529285D01*
X-171652095Y49529285D01*
X-171556857Y49576904D01*
X-171509238Y49624523D01*
X-171461619Y49719761D01*
X-171461619Y50005476D01*
X-171509238Y50100714D01*
X-171556857Y50148333D01*
G04 #@! TO.C,C4*
X-133456857Y50735666D02*
X-133409238Y50783285D01*
X-133361619Y50926142D01*
X-133361619Y51021380D01*
X-133409238Y51164238D01*
X-133504476Y51259476D01*
X-133599714Y51307095D01*
X-133790190Y51354714D01*
X-133933047Y51354714D01*
X-134123523Y51307095D01*
X-134218761Y51259476D01*
X-134314000Y51164238D01*
X-134361619Y51021380D01*
X-134361619Y50926142D01*
X-134314000Y50783285D01*
X-134266380Y50735666D01*
X-134028285Y49878523D02*
X-133361619Y49878523D01*
X-134409238Y50116619D02*
X-133694952Y50354714D01*
X-133694952Y49735666D01*
G04 #@! TO.C,U1*
X-163361619Y118132904D02*
X-162552095Y118132904D01*
X-162456857Y118085285D01*
X-162409238Y118037666D01*
X-162361619Y117942428D01*
X-162361619Y117751952D01*
X-162409238Y117656714D01*
X-162456857Y117609095D01*
X-162552095Y117561476D01*
X-163361619Y117561476D01*
X-162361619Y116561476D02*
X-162361619Y117132904D01*
X-162361619Y116847190D02*
X-163361619Y116847190D01*
X-163218761Y116942428D01*
X-163123523Y117037666D01*
X-163075904Y117132904D01*
G04 #@! TO.C,JP1*
X-142235619Y47592333D02*
X-141521333Y47592333D01*
X-141378476Y47639952D01*
X-141283238Y47735190D01*
X-141235619Y47878047D01*
X-141235619Y47973285D01*
X-141235619Y47116142D02*
X-142235619Y47116142D01*
X-142235619Y46735190D01*
X-142188000Y46639952D01*
X-142140380Y46592333D01*
X-142045142Y46544714D01*
X-141902285Y46544714D01*
X-141807047Y46592333D01*
X-141759428Y46639952D01*
X-141711809Y46735190D01*
X-141711809Y47116142D01*
X-141235619Y45592333D02*
X-141235619Y46163761D01*
X-141235619Y45878047D02*
X-142235619Y45878047D01*
X-142092761Y45973285D01*
X-141997523Y46068523D01*
X-141949904Y46163761D01*
G04 #@! TD*
M02*
