G04 #@! TF.GenerationSoftware,KiCad,Pcbnew,(5.0.1)-4*
G04 #@! TF.CreationDate,2019-03-05T01:40:27-06:00*
G04 #@! TF.ProjectId,mult,6D756C742E6B696361645F7063620000,rev?*
G04 #@! TF.SameCoordinates,Original*
G04 #@! TF.FileFunction,Other,User*
%FSLAX46Y46*%
G04 Gerber Fmt 4.6, Leading zero omitted, Abs format (unit mm)*
G04 Created by KiCad (PCBNEW (5.0.1)-4) date 3/5/2019 1:40:27*
%MOMM*%
%LPD*%
G01*
G04 APERTURE LIST*
%ADD10C,0.050000*%
G04 APERTURE END LIST*
D10*
G04 #@! TO.C,J1*
X-174374000Y122028000D02*
X-174374000Y136858000D01*
X-164374000Y122028000D02*
X-164374000Y136858000D01*
X-164374000Y122028000D02*
X-174374000Y122028000D01*
X-164374000Y136858000D02*
X-174374000Y136858000D01*
G04 #@! TO.C,J2*
X-163363100Y122040700D02*
X-163363100Y136870700D01*
X-153363100Y122040700D02*
X-153363100Y136870700D01*
X-153363100Y122040700D02*
X-163363100Y122040700D01*
X-153363100Y136870700D02*
X-163363100Y136870700D01*
G04 #@! TO.C,J3*
X-152377600Y122015300D02*
X-152377600Y136845300D01*
X-142377600Y122015300D02*
X-142377600Y136845300D01*
X-142377600Y122015300D02*
X-152377600Y122015300D01*
X-142377600Y136845300D02*
X-152377600Y136845300D01*
G04 #@! TO.C,J4*
X-131379400Y136858000D02*
X-141379400Y136858000D01*
X-131379400Y122028000D02*
X-141379400Y122028000D01*
X-131379400Y122028000D02*
X-131379400Y136858000D01*
X-141379400Y122028000D02*
X-141379400Y136858000D01*
G04 #@! TO.C,J5*
X-164374000Y112855000D02*
X-174374000Y112855000D01*
X-164374000Y98025000D02*
X-174374000Y98025000D01*
X-164374000Y98025000D02*
X-164374000Y112855000D01*
X-174374000Y98025000D02*
X-174374000Y112855000D01*
G04 #@! TO.C,J6*
X-164374000Y88852000D02*
X-174374000Y88852000D01*
X-164374000Y74022000D02*
X-174374000Y74022000D01*
X-164374000Y74022000D02*
X-164374000Y88852000D01*
X-174374000Y74022000D02*
X-174374000Y88852000D01*
G04 #@! TO.C,J7*
X-164374000Y64849000D02*
X-174374000Y64849000D01*
X-164374000Y50019000D02*
X-174374000Y50019000D01*
X-164374000Y50019000D02*
X-164374000Y64849000D01*
X-174374000Y50019000D02*
X-174374000Y64849000D01*
G04 #@! TO.C,J8*
X-163388500Y98025000D02*
X-163388500Y112855000D01*
X-153388500Y98025000D02*
X-153388500Y112855000D01*
X-153388500Y98025000D02*
X-163388500Y98025000D01*
X-153388500Y112855000D02*
X-163388500Y112855000D01*
G04 #@! TO.C,J9*
X-153388500Y88852000D02*
X-163388500Y88852000D01*
X-153388500Y74022000D02*
X-163388500Y74022000D01*
X-153388500Y74022000D02*
X-153388500Y88852000D01*
X-163388500Y74022000D02*
X-163388500Y88852000D01*
G04 #@! TO.C,J10*
X-163388500Y50019000D02*
X-163388500Y64849000D01*
X-153388500Y50019000D02*
X-153388500Y64849000D01*
X-153388500Y50019000D02*
X-163388500Y50019000D01*
X-153388500Y64849000D02*
X-163388500Y64849000D01*
G04 #@! TO.C,J11*
X-152377600Y98037700D02*
X-152377600Y112867700D01*
X-142377600Y98037700D02*
X-142377600Y112867700D01*
X-142377600Y98037700D02*
X-152377600Y98037700D01*
X-142377600Y112867700D02*
X-152377600Y112867700D01*
G04 #@! TO.C,J12*
X-142377600Y88864700D02*
X-152377600Y88864700D01*
X-142377600Y74034700D02*
X-152377600Y74034700D01*
X-142377600Y74034700D02*
X-142377600Y88864700D01*
X-152377600Y74034700D02*
X-152377600Y88864700D01*
G04 #@! TO.C,J13*
X-152377600Y50019000D02*
X-152377600Y64849000D01*
X-142377600Y50019000D02*
X-142377600Y64849000D01*
X-142377600Y50019000D02*
X-152377600Y50019000D01*
X-142377600Y64849000D02*
X-152377600Y64849000D01*
G04 #@! TO.C,J14*
X-131379400Y112867700D02*
X-141379400Y112867700D01*
X-131379400Y98037700D02*
X-141379400Y98037700D01*
X-131379400Y98037700D02*
X-131379400Y112867700D01*
X-141379400Y98037700D02*
X-141379400Y112867700D01*
G04 #@! TO.C,J15*
X-131379400Y88852000D02*
X-141379400Y88852000D01*
X-131379400Y74022000D02*
X-141379400Y74022000D01*
X-131379400Y74022000D02*
X-131379400Y88852000D01*
X-141379400Y74022000D02*
X-141379400Y88852000D01*
G04 #@! TO.C,J16*
X-141379400Y50031700D02*
X-141379400Y64861700D01*
X-131379400Y50031700D02*
X-131379400Y64861700D01*
X-131379400Y50031700D02*
X-141379400Y50031700D01*
X-131379400Y64861700D02*
X-141379400Y64861700D01*
G04 #@! TO.C,R1*
X-164514000Y97789000D02*
X-174234000Y97789000D01*
X-164514000Y94789000D02*
X-164514000Y97789000D01*
X-174234000Y94789000D02*
X-164514000Y94789000D01*
X-174234000Y97789000D02*
X-174234000Y94789000D01*
G04 #@! TO.C,R2*
X-174234000Y73913000D02*
X-174234000Y70913000D01*
X-174234000Y70913000D02*
X-164514000Y70913000D01*
X-164514000Y70913000D02*
X-164514000Y73913000D01*
X-164514000Y73913000D02*
X-174234000Y73913000D01*
G04 #@! TO.C,R3*
X-164514000Y67817000D02*
X-174234000Y67817000D01*
X-164514000Y64817000D02*
X-164514000Y67817000D01*
X-174234000Y64817000D02*
X-164514000Y64817000D01*
X-174234000Y67817000D02*
X-174234000Y64817000D01*
G04 #@! TO.C,R4*
X-153592000Y97789000D02*
X-163312000Y97789000D01*
X-153592000Y94789000D02*
X-153592000Y97789000D01*
X-163312000Y94789000D02*
X-153592000Y94789000D01*
X-163312000Y97789000D02*
X-163312000Y94789000D01*
G04 #@! TO.C,R5*
X-163312000Y73913000D02*
X-163312000Y70913000D01*
X-163312000Y70913000D02*
X-153592000Y70913000D01*
X-153592000Y70913000D02*
X-153592000Y73913000D01*
X-153592000Y73913000D02*
X-163312000Y73913000D01*
G04 #@! TO.C,R6*
X-153592000Y67817000D02*
X-163312000Y67817000D01*
X-153592000Y64817000D02*
X-153592000Y67817000D01*
X-163312000Y64817000D02*
X-153592000Y64817000D01*
X-163312000Y67817000D02*
X-163312000Y64817000D01*
G04 #@! TO.C,R7*
X-142416000Y94789000D02*
X-142416000Y97789000D01*
X-142416000Y97789000D02*
X-152136000Y97789000D01*
X-152136000Y97789000D02*
X-152136000Y94789000D01*
X-152136000Y94789000D02*
X-142416000Y94789000D01*
G04 #@! TO.C,R8*
X-152136000Y70913000D02*
X-142416000Y70913000D01*
X-152136000Y73913000D02*
X-152136000Y70913000D01*
X-142416000Y73913000D02*
X-152136000Y73913000D01*
X-142416000Y70913000D02*
X-142416000Y73913000D01*
G04 #@! TO.C,R9*
X-142416000Y64817000D02*
X-142416000Y67817000D01*
X-142416000Y67817000D02*
X-152136000Y67817000D01*
X-152136000Y67817000D02*
X-152136000Y64817000D01*
X-152136000Y64817000D02*
X-142416000Y64817000D01*
G04 #@! TO.C,R10*
X-141722000Y94789000D02*
X-132002000Y94789000D01*
X-141722000Y97789000D02*
X-141722000Y94789000D01*
X-132002000Y97789000D02*
X-141722000Y97789000D01*
X-132002000Y94789000D02*
X-132002000Y97789000D01*
G04 #@! TO.C,R11*
X-132002000Y70913000D02*
X-132002000Y73913000D01*
X-132002000Y73913000D02*
X-141722000Y73913000D01*
X-141722000Y73913000D02*
X-141722000Y70913000D01*
X-141722000Y70913000D02*
X-132002000Y70913000D01*
G04 #@! TO.C,R12*
X-132002000Y64817000D02*
X-132002000Y67817000D01*
X-132002000Y67817000D02*
X-141722000Y67817000D01*
X-141722000Y67817000D02*
X-141722000Y64817000D01*
X-141722000Y64817000D02*
X-132002000Y64817000D01*
G04 #@! TO.C,R13*
X-146294000Y48259000D02*
X-146294000Y45259000D01*
X-146294000Y45259000D02*
X-136574000Y45259000D01*
X-136574000Y45259000D02*
X-136574000Y48259000D01*
X-136574000Y48259000D02*
X-146294000Y48259000D01*
G04 #@! TO.C,R14*
X-169154000Y45259000D02*
X-159434000Y45259000D01*
X-169154000Y48259000D02*
X-169154000Y45259000D01*
X-159434000Y48259000D02*
X-169154000Y48259000D01*
X-159434000Y45259000D02*
X-159434000Y48259000D01*
G04 #@! TD*
M02*
