G04 #@! TF.GenerationSoftware,KiCad,Pcbnew,(5.0.1)-4*
G04 #@! TF.CreationDate,2019-03-05T01:40:27-06:00*
G04 #@! TF.ProjectId,mult,6D756C742E6B696361645F7063620000,rev?*
G04 #@! TF.SameCoordinates,Original*
G04 #@! TF.FileFunction,Other,Comment*
%FSLAX46Y46*%
G04 Gerber Fmt 4.6, Leading zero omitted, Abs format (unit mm)*
G04 Created by KiCad (PCBNEW (5.0.1)-4) date 3/5/2019 1:40:27*
%MOMM*%
%LPD*%
G01*
G04 APERTURE LIST*
%ADD10C,0.051000*%
G04 APERTURE END LIST*
G04 #@! TO.C,J1*
D10*
X-170612095Y128617047D02*
X-170612095Y129017047D01*
X-170383523Y128617047D02*
X-170554952Y128845619D01*
X-170383523Y129017047D02*
X-170612095Y128788476D01*
X-170212095Y128826571D02*
X-170078761Y128826571D01*
X-170021619Y128617047D02*
X-170212095Y128617047D01*
X-170212095Y129017047D01*
X-170021619Y129017047D01*
X-169850190Y128826571D02*
X-169716857Y128826571D01*
X-169659714Y128617047D02*
X-169850190Y128617047D01*
X-169850190Y129017047D01*
X-169659714Y129017047D01*
X-169488285Y128617047D02*
X-169488285Y129017047D01*
X-169335904Y129017047D01*
X-169297809Y128998000D01*
X-169278761Y128978952D01*
X-169259714Y128940857D01*
X-169259714Y128883714D01*
X-169278761Y128845619D01*
X-169297809Y128826571D01*
X-169335904Y128807523D01*
X-169488285Y128807523D01*
X-169012095Y129017047D02*
X-168935904Y129017047D01*
X-168897809Y128998000D01*
X-168859714Y128959904D01*
X-168840666Y128883714D01*
X-168840666Y128750380D01*
X-168859714Y128674190D01*
X-168897809Y128636095D01*
X-168935904Y128617047D01*
X-169012095Y128617047D01*
X-169050190Y128636095D01*
X-169088285Y128674190D01*
X-169107333Y128750380D01*
X-169107333Y128883714D01*
X-169088285Y128959904D01*
X-169050190Y128998000D01*
X-169012095Y129017047D01*
X-168669238Y129017047D02*
X-168669238Y128693238D01*
X-168650190Y128655142D01*
X-168631142Y128636095D01*
X-168593047Y128617047D01*
X-168516857Y128617047D01*
X-168478761Y128636095D01*
X-168459714Y128655142D01*
X-168440666Y128693238D01*
X-168440666Y129017047D01*
X-168307333Y129017047D02*
X-168078761Y129017047D01*
X-168193047Y128617047D02*
X-168193047Y129017047D01*
G04 #@! TO.C,J2*
X-159601195Y128629747D02*
X-159601195Y129029747D01*
X-159372623Y128629747D02*
X-159544052Y128858319D01*
X-159372623Y129029747D02*
X-159601195Y128801176D01*
X-159201195Y128839271D02*
X-159067861Y128839271D01*
X-159010719Y128629747D02*
X-159201195Y128629747D01*
X-159201195Y129029747D01*
X-159010719Y129029747D01*
X-158839290Y128839271D02*
X-158705957Y128839271D01*
X-158648814Y128629747D02*
X-158839290Y128629747D01*
X-158839290Y129029747D01*
X-158648814Y129029747D01*
X-158477385Y128629747D02*
X-158477385Y129029747D01*
X-158325004Y129029747D01*
X-158286909Y129010700D01*
X-158267861Y128991652D01*
X-158248814Y128953557D01*
X-158248814Y128896414D01*
X-158267861Y128858319D01*
X-158286909Y128839271D01*
X-158325004Y128820223D01*
X-158477385Y128820223D01*
X-158001195Y129029747D02*
X-157925004Y129029747D01*
X-157886909Y129010700D01*
X-157848814Y128972604D01*
X-157829766Y128896414D01*
X-157829766Y128763080D01*
X-157848814Y128686890D01*
X-157886909Y128648795D01*
X-157925004Y128629747D01*
X-158001195Y128629747D01*
X-158039290Y128648795D01*
X-158077385Y128686890D01*
X-158096433Y128763080D01*
X-158096433Y128896414D01*
X-158077385Y128972604D01*
X-158039290Y129010700D01*
X-158001195Y129029747D01*
X-157658338Y129029747D02*
X-157658338Y128705938D01*
X-157639290Y128667842D01*
X-157620242Y128648795D01*
X-157582147Y128629747D01*
X-157505957Y128629747D01*
X-157467861Y128648795D01*
X-157448814Y128667842D01*
X-157429766Y128705938D01*
X-157429766Y129029747D01*
X-157296433Y129029747D02*
X-157067861Y129029747D01*
X-157182147Y128629747D02*
X-157182147Y129029747D01*
G04 #@! TO.C,J3*
X-148615695Y128604347D02*
X-148615695Y129004347D01*
X-148387123Y128604347D02*
X-148558552Y128832919D01*
X-148387123Y129004347D02*
X-148615695Y128775776D01*
X-148215695Y128813871D02*
X-148082361Y128813871D01*
X-148025219Y128604347D02*
X-148215695Y128604347D01*
X-148215695Y129004347D01*
X-148025219Y129004347D01*
X-147853790Y128813871D02*
X-147720457Y128813871D01*
X-147663314Y128604347D02*
X-147853790Y128604347D01*
X-147853790Y129004347D01*
X-147663314Y129004347D01*
X-147491885Y128604347D02*
X-147491885Y129004347D01*
X-147339504Y129004347D01*
X-147301409Y128985300D01*
X-147282361Y128966252D01*
X-147263314Y128928157D01*
X-147263314Y128871014D01*
X-147282361Y128832919D01*
X-147301409Y128813871D01*
X-147339504Y128794823D01*
X-147491885Y128794823D01*
X-147015695Y129004347D02*
X-146939504Y129004347D01*
X-146901409Y128985300D01*
X-146863314Y128947204D01*
X-146844266Y128871014D01*
X-146844266Y128737680D01*
X-146863314Y128661490D01*
X-146901409Y128623395D01*
X-146939504Y128604347D01*
X-147015695Y128604347D01*
X-147053790Y128623395D01*
X-147091885Y128661490D01*
X-147110933Y128737680D01*
X-147110933Y128871014D01*
X-147091885Y128947204D01*
X-147053790Y128985300D01*
X-147015695Y129004347D01*
X-146672838Y129004347D02*
X-146672838Y128680538D01*
X-146653790Y128642442D01*
X-146634742Y128623395D01*
X-146596647Y128604347D01*
X-146520457Y128604347D01*
X-146482361Y128623395D01*
X-146463314Y128642442D01*
X-146444266Y128680538D01*
X-146444266Y129004347D01*
X-146310933Y129004347D02*
X-146082361Y129004347D01*
X-146196647Y128604347D02*
X-146196647Y129004347D01*
G04 #@! TO.C,J4*
X-137617495Y128617047D02*
X-137617495Y129017047D01*
X-137388923Y128617047D02*
X-137560352Y128845619D01*
X-137388923Y129017047D02*
X-137617495Y128788476D01*
X-137217495Y128826571D02*
X-137084161Y128826571D01*
X-137027019Y128617047D02*
X-137217495Y128617047D01*
X-137217495Y129017047D01*
X-137027019Y129017047D01*
X-136855590Y128826571D02*
X-136722257Y128826571D01*
X-136665114Y128617047D02*
X-136855590Y128617047D01*
X-136855590Y129017047D01*
X-136665114Y129017047D01*
X-136493685Y128617047D02*
X-136493685Y129017047D01*
X-136341304Y129017047D01*
X-136303209Y128998000D01*
X-136284161Y128978952D01*
X-136265114Y128940857D01*
X-136265114Y128883714D01*
X-136284161Y128845619D01*
X-136303209Y128826571D01*
X-136341304Y128807523D01*
X-136493685Y128807523D01*
X-136017495Y129017047D02*
X-135941304Y129017047D01*
X-135903209Y128998000D01*
X-135865114Y128959904D01*
X-135846066Y128883714D01*
X-135846066Y128750380D01*
X-135865114Y128674190D01*
X-135903209Y128636095D01*
X-135941304Y128617047D01*
X-136017495Y128617047D01*
X-136055590Y128636095D01*
X-136093685Y128674190D01*
X-136112733Y128750380D01*
X-136112733Y128883714D01*
X-136093685Y128959904D01*
X-136055590Y128998000D01*
X-136017495Y129017047D01*
X-135674638Y129017047D02*
X-135674638Y128693238D01*
X-135655590Y128655142D01*
X-135636542Y128636095D01*
X-135598447Y128617047D01*
X-135522257Y128617047D01*
X-135484161Y128636095D01*
X-135465114Y128655142D01*
X-135446066Y128693238D01*
X-135446066Y129017047D01*
X-135312733Y129017047D02*
X-135084161Y129017047D01*
X-135198447Y128617047D02*
X-135198447Y129017047D01*
G04 #@! TO.C,J5*
X-170612095Y104614047D02*
X-170612095Y105014047D01*
X-170383523Y104614047D02*
X-170554952Y104842619D01*
X-170383523Y105014047D02*
X-170612095Y104785476D01*
X-170212095Y104823571D02*
X-170078761Y104823571D01*
X-170021619Y104614047D02*
X-170212095Y104614047D01*
X-170212095Y105014047D01*
X-170021619Y105014047D01*
X-169850190Y104823571D02*
X-169716857Y104823571D01*
X-169659714Y104614047D02*
X-169850190Y104614047D01*
X-169850190Y105014047D01*
X-169659714Y105014047D01*
X-169488285Y104614047D02*
X-169488285Y105014047D01*
X-169335904Y105014047D01*
X-169297809Y104995000D01*
X-169278761Y104975952D01*
X-169259714Y104937857D01*
X-169259714Y104880714D01*
X-169278761Y104842619D01*
X-169297809Y104823571D01*
X-169335904Y104804523D01*
X-169488285Y104804523D01*
X-169012095Y105014047D02*
X-168935904Y105014047D01*
X-168897809Y104995000D01*
X-168859714Y104956904D01*
X-168840666Y104880714D01*
X-168840666Y104747380D01*
X-168859714Y104671190D01*
X-168897809Y104633095D01*
X-168935904Y104614047D01*
X-169012095Y104614047D01*
X-169050190Y104633095D01*
X-169088285Y104671190D01*
X-169107333Y104747380D01*
X-169107333Y104880714D01*
X-169088285Y104956904D01*
X-169050190Y104995000D01*
X-169012095Y105014047D01*
X-168669238Y105014047D02*
X-168669238Y104690238D01*
X-168650190Y104652142D01*
X-168631142Y104633095D01*
X-168593047Y104614047D01*
X-168516857Y104614047D01*
X-168478761Y104633095D01*
X-168459714Y104652142D01*
X-168440666Y104690238D01*
X-168440666Y105014047D01*
X-168307333Y105014047D02*
X-168078761Y105014047D01*
X-168193047Y104614047D02*
X-168193047Y105014047D01*
G04 #@! TO.C,J6*
X-170612095Y80611047D02*
X-170612095Y81011047D01*
X-170383523Y80611047D02*
X-170554952Y80839619D01*
X-170383523Y81011047D02*
X-170612095Y80782476D01*
X-170212095Y80820571D02*
X-170078761Y80820571D01*
X-170021619Y80611047D02*
X-170212095Y80611047D01*
X-170212095Y81011047D01*
X-170021619Y81011047D01*
X-169850190Y80820571D02*
X-169716857Y80820571D01*
X-169659714Y80611047D02*
X-169850190Y80611047D01*
X-169850190Y81011047D01*
X-169659714Y81011047D01*
X-169488285Y80611047D02*
X-169488285Y81011047D01*
X-169335904Y81011047D01*
X-169297809Y80992000D01*
X-169278761Y80972952D01*
X-169259714Y80934857D01*
X-169259714Y80877714D01*
X-169278761Y80839619D01*
X-169297809Y80820571D01*
X-169335904Y80801523D01*
X-169488285Y80801523D01*
X-169012095Y81011047D02*
X-168935904Y81011047D01*
X-168897809Y80992000D01*
X-168859714Y80953904D01*
X-168840666Y80877714D01*
X-168840666Y80744380D01*
X-168859714Y80668190D01*
X-168897809Y80630095D01*
X-168935904Y80611047D01*
X-169012095Y80611047D01*
X-169050190Y80630095D01*
X-169088285Y80668190D01*
X-169107333Y80744380D01*
X-169107333Y80877714D01*
X-169088285Y80953904D01*
X-169050190Y80992000D01*
X-169012095Y81011047D01*
X-168669238Y81011047D02*
X-168669238Y80687238D01*
X-168650190Y80649142D01*
X-168631142Y80630095D01*
X-168593047Y80611047D01*
X-168516857Y80611047D01*
X-168478761Y80630095D01*
X-168459714Y80649142D01*
X-168440666Y80687238D01*
X-168440666Y81011047D01*
X-168307333Y81011047D02*
X-168078761Y81011047D01*
X-168193047Y80611047D02*
X-168193047Y81011047D01*
G04 #@! TO.C,J7*
X-170612095Y56608047D02*
X-170612095Y57008047D01*
X-170383523Y56608047D02*
X-170554952Y56836619D01*
X-170383523Y57008047D02*
X-170612095Y56779476D01*
X-170212095Y56817571D02*
X-170078761Y56817571D01*
X-170021619Y56608047D02*
X-170212095Y56608047D01*
X-170212095Y57008047D01*
X-170021619Y57008047D01*
X-169850190Y56817571D02*
X-169716857Y56817571D01*
X-169659714Y56608047D02*
X-169850190Y56608047D01*
X-169850190Y57008047D01*
X-169659714Y57008047D01*
X-169488285Y56608047D02*
X-169488285Y57008047D01*
X-169335904Y57008047D01*
X-169297809Y56989000D01*
X-169278761Y56969952D01*
X-169259714Y56931857D01*
X-169259714Y56874714D01*
X-169278761Y56836619D01*
X-169297809Y56817571D01*
X-169335904Y56798523D01*
X-169488285Y56798523D01*
X-169012095Y57008047D02*
X-168935904Y57008047D01*
X-168897809Y56989000D01*
X-168859714Y56950904D01*
X-168840666Y56874714D01*
X-168840666Y56741380D01*
X-168859714Y56665190D01*
X-168897809Y56627095D01*
X-168935904Y56608047D01*
X-169012095Y56608047D01*
X-169050190Y56627095D01*
X-169088285Y56665190D01*
X-169107333Y56741380D01*
X-169107333Y56874714D01*
X-169088285Y56950904D01*
X-169050190Y56989000D01*
X-169012095Y57008047D01*
X-168669238Y57008047D02*
X-168669238Y56684238D01*
X-168650190Y56646142D01*
X-168631142Y56627095D01*
X-168593047Y56608047D01*
X-168516857Y56608047D01*
X-168478761Y56627095D01*
X-168459714Y56646142D01*
X-168440666Y56684238D01*
X-168440666Y57008047D01*
X-168307333Y57008047D02*
X-168078761Y57008047D01*
X-168193047Y56608047D02*
X-168193047Y57008047D01*
G04 #@! TO.C,J8*
X-159626595Y104614047D02*
X-159626595Y105014047D01*
X-159398023Y104614047D02*
X-159569452Y104842619D01*
X-159398023Y105014047D02*
X-159626595Y104785476D01*
X-159226595Y104823571D02*
X-159093261Y104823571D01*
X-159036119Y104614047D02*
X-159226595Y104614047D01*
X-159226595Y105014047D01*
X-159036119Y105014047D01*
X-158864690Y104823571D02*
X-158731357Y104823571D01*
X-158674214Y104614047D02*
X-158864690Y104614047D01*
X-158864690Y105014047D01*
X-158674214Y105014047D01*
X-158502785Y104614047D02*
X-158502785Y105014047D01*
X-158350404Y105014047D01*
X-158312309Y104995000D01*
X-158293261Y104975952D01*
X-158274214Y104937857D01*
X-158274214Y104880714D01*
X-158293261Y104842619D01*
X-158312309Y104823571D01*
X-158350404Y104804523D01*
X-158502785Y104804523D01*
X-158026595Y105014047D02*
X-157950404Y105014047D01*
X-157912309Y104995000D01*
X-157874214Y104956904D01*
X-157855166Y104880714D01*
X-157855166Y104747380D01*
X-157874214Y104671190D01*
X-157912309Y104633095D01*
X-157950404Y104614047D01*
X-158026595Y104614047D01*
X-158064690Y104633095D01*
X-158102785Y104671190D01*
X-158121833Y104747380D01*
X-158121833Y104880714D01*
X-158102785Y104956904D01*
X-158064690Y104995000D01*
X-158026595Y105014047D01*
X-157683738Y105014047D02*
X-157683738Y104690238D01*
X-157664690Y104652142D01*
X-157645642Y104633095D01*
X-157607547Y104614047D01*
X-157531357Y104614047D01*
X-157493261Y104633095D01*
X-157474214Y104652142D01*
X-157455166Y104690238D01*
X-157455166Y105014047D01*
X-157321833Y105014047D02*
X-157093261Y105014047D01*
X-157207547Y104614047D02*
X-157207547Y105014047D01*
G04 #@! TO.C,J9*
X-159626595Y80611047D02*
X-159626595Y81011047D01*
X-159398023Y80611047D02*
X-159569452Y80839619D01*
X-159398023Y81011047D02*
X-159626595Y80782476D01*
X-159226595Y80820571D02*
X-159093261Y80820571D01*
X-159036119Y80611047D02*
X-159226595Y80611047D01*
X-159226595Y81011047D01*
X-159036119Y81011047D01*
X-158864690Y80820571D02*
X-158731357Y80820571D01*
X-158674214Y80611047D02*
X-158864690Y80611047D01*
X-158864690Y81011047D01*
X-158674214Y81011047D01*
X-158502785Y80611047D02*
X-158502785Y81011047D01*
X-158350404Y81011047D01*
X-158312309Y80992000D01*
X-158293261Y80972952D01*
X-158274214Y80934857D01*
X-158274214Y80877714D01*
X-158293261Y80839619D01*
X-158312309Y80820571D01*
X-158350404Y80801523D01*
X-158502785Y80801523D01*
X-158026595Y81011047D02*
X-157950404Y81011047D01*
X-157912309Y80992000D01*
X-157874214Y80953904D01*
X-157855166Y80877714D01*
X-157855166Y80744380D01*
X-157874214Y80668190D01*
X-157912309Y80630095D01*
X-157950404Y80611047D01*
X-158026595Y80611047D01*
X-158064690Y80630095D01*
X-158102785Y80668190D01*
X-158121833Y80744380D01*
X-158121833Y80877714D01*
X-158102785Y80953904D01*
X-158064690Y80992000D01*
X-158026595Y81011047D01*
X-157683738Y81011047D02*
X-157683738Y80687238D01*
X-157664690Y80649142D01*
X-157645642Y80630095D01*
X-157607547Y80611047D01*
X-157531357Y80611047D01*
X-157493261Y80630095D01*
X-157474214Y80649142D01*
X-157455166Y80687238D01*
X-157455166Y81011047D01*
X-157321833Y81011047D02*
X-157093261Y81011047D01*
X-157207547Y80611047D02*
X-157207547Y81011047D01*
G04 #@! TO.C,J10*
X-159626595Y56608047D02*
X-159626595Y57008047D01*
X-159398023Y56608047D02*
X-159569452Y56836619D01*
X-159398023Y57008047D02*
X-159626595Y56779476D01*
X-159226595Y56817571D02*
X-159093261Y56817571D01*
X-159036119Y56608047D02*
X-159226595Y56608047D01*
X-159226595Y57008047D01*
X-159036119Y57008047D01*
X-158864690Y56817571D02*
X-158731357Y56817571D01*
X-158674214Y56608047D02*
X-158864690Y56608047D01*
X-158864690Y57008047D01*
X-158674214Y57008047D01*
X-158502785Y56608047D02*
X-158502785Y57008047D01*
X-158350404Y57008047D01*
X-158312309Y56989000D01*
X-158293261Y56969952D01*
X-158274214Y56931857D01*
X-158274214Y56874714D01*
X-158293261Y56836619D01*
X-158312309Y56817571D01*
X-158350404Y56798523D01*
X-158502785Y56798523D01*
X-158026595Y57008047D02*
X-157950404Y57008047D01*
X-157912309Y56989000D01*
X-157874214Y56950904D01*
X-157855166Y56874714D01*
X-157855166Y56741380D01*
X-157874214Y56665190D01*
X-157912309Y56627095D01*
X-157950404Y56608047D01*
X-158026595Y56608047D01*
X-158064690Y56627095D01*
X-158102785Y56665190D01*
X-158121833Y56741380D01*
X-158121833Y56874714D01*
X-158102785Y56950904D01*
X-158064690Y56989000D01*
X-158026595Y57008047D01*
X-157683738Y57008047D02*
X-157683738Y56684238D01*
X-157664690Y56646142D01*
X-157645642Y56627095D01*
X-157607547Y56608047D01*
X-157531357Y56608047D01*
X-157493261Y56627095D01*
X-157474214Y56646142D01*
X-157455166Y56684238D01*
X-157455166Y57008047D01*
X-157321833Y57008047D02*
X-157093261Y57008047D01*
X-157207547Y56608047D02*
X-157207547Y57008047D01*
G04 #@! TO.C,J11*
X-148615695Y104626747D02*
X-148615695Y105026747D01*
X-148387123Y104626747D02*
X-148558552Y104855319D01*
X-148387123Y105026747D02*
X-148615695Y104798176D01*
X-148215695Y104836271D02*
X-148082361Y104836271D01*
X-148025219Y104626747D02*
X-148215695Y104626747D01*
X-148215695Y105026747D01*
X-148025219Y105026747D01*
X-147853790Y104836271D02*
X-147720457Y104836271D01*
X-147663314Y104626747D02*
X-147853790Y104626747D01*
X-147853790Y105026747D01*
X-147663314Y105026747D01*
X-147491885Y104626747D02*
X-147491885Y105026747D01*
X-147339504Y105026747D01*
X-147301409Y105007700D01*
X-147282361Y104988652D01*
X-147263314Y104950557D01*
X-147263314Y104893414D01*
X-147282361Y104855319D01*
X-147301409Y104836271D01*
X-147339504Y104817223D01*
X-147491885Y104817223D01*
X-147015695Y105026747D02*
X-146939504Y105026747D01*
X-146901409Y105007700D01*
X-146863314Y104969604D01*
X-146844266Y104893414D01*
X-146844266Y104760080D01*
X-146863314Y104683890D01*
X-146901409Y104645795D01*
X-146939504Y104626747D01*
X-147015695Y104626747D01*
X-147053790Y104645795D01*
X-147091885Y104683890D01*
X-147110933Y104760080D01*
X-147110933Y104893414D01*
X-147091885Y104969604D01*
X-147053790Y105007700D01*
X-147015695Y105026747D01*
X-146672838Y105026747D02*
X-146672838Y104702938D01*
X-146653790Y104664842D01*
X-146634742Y104645795D01*
X-146596647Y104626747D01*
X-146520457Y104626747D01*
X-146482361Y104645795D01*
X-146463314Y104664842D01*
X-146444266Y104702938D01*
X-146444266Y105026747D01*
X-146310933Y105026747D02*
X-146082361Y105026747D01*
X-146196647Y104626747D02*
X-146196647Y105026747D01*
G04 #@! TO.C,J12*
X-148615695Y80623747D02*
X-148615695Y81023747D01*
X-148387123Y80623747D02*
X-148558552Y80852319D01*
X-148387123Y81023747D02*
X-148615695Y80795176D01*
X-148215695Y80833271D02*
X-148082361Y80833271D01*
X-148025219Y80623747D02*
X-148215695Y80623747D01*
X-148215695Y81023747D01*
X-148025219Y81023747D01*
X-147853790Y80833271D02*
X-147720457Y80833271D01*
X-147663314Y80623747D02*
X-147853790Y80623747D01*
X-147853790Y81023747D01*
X-147663314Y81023747D01*
X-147491885Y80623747D02*
X-147491885Y81023747D01*
X-147339504Y81023747D01*
X-147301409Y81004700D01*
X-147282361Y80985652D01*
X-147263314Y80947557D01*
X-147263314Y80890414D01*
X-147282361Y80852319D01*
X-147301409Y80833271D01*
X-147339504Y80814223D01*
X-147491885Y80814223D01*
X-147015695Y81023747D02*
X-146939504Y81023747D01*
X-146901409Y81004700D01*
X-146863314Y80966604D01*
X-146844266Y80890414D01*
X-146844266Y80757080D01*
X-146863314Y80680890D01*
X-146901409Y80642795D01*
X-146939504Y80623747D01*
X-147015695Y80623747D01*
X-147053790Y80642795D01*
X-147091885Y80680890D01*
X-147110933Y80757080D01*
X-147110933Y80890414D01*
X-147091885Y80966604D01*
X-147053790Y81004700D01*
X-147015695Y81023747D01*
X-146672838Y81023747D02*
X-146672838Y80699938D01*
X-146653790Y80661842D01*
X-146634742Y80642795D01*
X-146596647Y80623747D01*
X-146520457Y80623747D01*
X-146482361Y80642795D01*
X-146463314Y80661842D01*
X-146444266Y80699938D01*
X-146444266Y81023747D01*
X-146310933Y81023747D02*
X-146082361Y81023747D01*
X-146196647Y80623747D02*
X-146196647Y81023747D01*
G04 #@! TO.C,J13*
X-148615695Y56608047D02*
X-148615695Y57008047D01*
X-148387123Y56608047D02*
X-148558552Y56836619D01*
X-148387123Y57008047D02*
X-148615695Y56779476D01*
X-148215695Y56817571D02*
X-148082361Y56817571D01*
X-148025219Y56608047D02*
X-148215695Y56608047D01*
X-148215695Y57008047D01*
X-148025219Y57008047D01*
X-147853790Y56817571D02*
X-147720457Y56817571D01*
X-147663314Y56608047D02*
X-147853790Y56608047D01*
X-147853790Y57008047D01*
X-147663314Y57008047D01*
X-147491885Y56608047D02*
X-147491885Y57008047D01*
X-147339504Y57008047D01*
X-147301409Y56989000D01*
X-147282361Y56969952D01*
X-147263314Y56931857D01*
X-147263314Y56874714D01*
X-147282361Y56836619D01*
X-147301409Y56817571D01*
X-147339504Y56798523D01*
X-147491885Y56798523D01*
X-147015695Y57008047D02*
X-146939504Y57008047D01*
X-146901409Y56989000D01*
X-146863314Y56950904D01*
X-146844266Y56874714D01*
X-146844266Y56741380D01*
X-146863314Y56665190D01*
X-146901409Y56627095D01*
X-146939504Y56608047D01*
X-147015695Y56608047D01*
X-147053790Y56627095D01*
X-147091885Y56665190D01*
X-147110933Y56741380D01*
X-147110933Y56874714D01*
X-147091885Y56950904D01*
X-147053790Y56989000D01*
X-147015695Y57008047D01*
X-146672838Y57008047D02*
X-146672838Y56684238D01*
X-146653790Y56646142D01*
X-146634742Y56627095D01*
X-146596647Y56608047D01*
X-146520457Y56608047D01*
X-146482361Y56627095D01*
X-146463314Y56646142D01*
X-146444266Y56684238D01*
X-146444266Y57008047D01*
X-146310933Y57008047D02*
X-146082361Y57008047D01*
X-146196647Y56608047D02*
X-146196647Y57008047D01*
G04 #@! TO.C,J14*
X-137617495Y104626747D02*
X-137617495Y105026747D01*
X-137388923Y104626747D02*
X-137560352Y104855319D01*
X-137388923Y105026747D02*
X-137617495Y104798176D01*
X-137217495Y104836271D02*
X-137084161Y104836271D01*
X-137027019Y104626747D02*
X-137217495Y104626747D01*
X-137217495Y105026747D01*
X-137027019Y105026747D01*
X-136855590Y104836271D02*
X-136722257Y104836271D01*
X-136665114Y104626747D02*
X-136855590Y104626747D01*
X-136855590Y105026747D01*
X-136665114Y105026747D01*
X-136493685Y104626747D02*
X-136493685Y105026747D01*
X-136341304Y105026747D01*
X-136303209Y105007700D01*
X-136284161Y104988652D01*
X-136265114Y104950557D01*
X-136265114Y104893414D01*
X-136284161Y104855319D01*
X-136303209Y104836271D01*
X-136341304Y104817223D01*
X-136493685Y104817223D01*
X-136017495Y105026747D02*
X-135941304Y105026747D01*
X-135903209Y105007700D01*
X-135865114Y104969604D01*
X-135846066Y104893414D01*
X-135846066Y104760080D01*
X-135865114Y104683890D01*
X-135903209Y104645795D01*
X-135941304Y104626747D01*
X-136017495Y104626747D01*
X-136055590Y104645795D01*
X-136093685Y104683890D01*
X-136112733Y104760080D01*
X-136112733Y104893414D01*
X-136093685Y104969604D01*
X-136055590Y105007700D01*
X-136017495Y105026747D01*
X-135674638Y105026747D02*
X-135674638Y104702938D01*
X-135655590Y104664842D01*
X-135636542Y104645795D01*
X-135598447Y104626747D01*
X-135522257Y104626747D01*
X-135484161Y104645795D01*
X-135465114Y104664842D01*
X-135446066Y104702938D01*
X-135446066Y105026747D01*
X-135312733Y105026747D02*
X-135084161Y105026747D01*
X-135198447Y104626747D02*
X-135198447Y105026747D01*
G04 #@! TO.C,J15*
X-137617495Y80611047D02*
X-137617495Y81011047D01*
X-137388923Y80611047D02*
X-137560352Y80839619D01*
X-137388923Y81011047D02*
X-137617495Y80782476D01*
X-137217495Y80820571D02*
X-137084161Y80820571D01*
X-137027019Y80611047D02*
X-137217495Y80611047D01*
X-137217495Y81011047D01*
X-137027019Y81011047D01*
X-136855590Y80820571D02*
X-136722257Y80820571D01*
X-136665114Y80611047D02*
X-136855590Y80611047D01*
X-136855590Y81011047D01*
X-136665114Y81011047D01*
X-136493685Y80611047D02*
X-136493685Y81011047D01*
X-136341304Y81011047D01*
X-136303209Y80992000D01*
X-136284161Y80972952D01*
X-136265114Y80934857D01*
X-136265114Y80877714D01*
X-136284161Y80839619D01*
X-136303209Y80820571D01*
X-136341304Y80801523D01*
X-136493685Y80801523D01*
X-136017495Y81011047D02*
X-135941304Y81011047D01*
X-135903209Y80992000D01*
X-135865114Y80953904D01*
X-135846066Y80877714D01*
X-135846066Y80744380D01*
X-135865114Y80668190D01*
X-135903209Y80630095D01*
X-135941304Y80611047D01*
X-136017495Y80611047D01*
X-136055590Y80630095D01*
X-136093685Y80668190D01*
X-136112733Y80744380D01*
X-136112733Y80877714D01*
X-136093685Y80953904D01*
X-136055590Y80992000D01*
X-136017495Y81011047D01*
X-135674638Y81011047D02*
X-135674638Y80687238D01*
X-135655590Y80649142D01*
X-135636542Y80630095D01*
X-135598447Y80611047D01*
X-135522257Y80611047D01*
X-135484161Y80630095D01*
X-135465114Y80649142D01*
X-135446066Y80687238D01*
X-135446066Y81011047D01*
X-135312733Y81011047D02*
X-135084161Y81011047D01*
X-135198447Y80611047D02*
X-135198447Y81011047D01*
G04 #@! TO.C,J16*
X-137617495Y56620747D02*
X-137617495Y57020747D01*
X-137388923Y56620747D02*
X-137560352Y56849319D01*
X-137388923Y57020747D02*
X-137617495Y56792176D01*
X-137217495Y56830271D02*
X-137084161Y56830271D01*
X-137027019Y56620747D02*
X-137217495Y56620747D01*
X-137217495Y57020747D01*
X-137027019Y57020747D01*
X-136855590Y56830271D02*
X-136722257Y56830271D01*
X-136665114Y56620747D02*
X-136855590Y56620747D01*
X-136855590Y57020747D01*
X-136665114Y57020747D01*
X-136493685Y56620747D02*
X-136493685Y57020747D01*
X-136341304Y57020747D01*
X-136303209Y57001700D01*
X-136284161Y56982652D01*
X-136265114Y56944557D01*
X-136265114Y56887414D01*
X-136284161Y56849319D01*
X-136303209Y56830271D01*
X-136341304Y56811223D01*
X-136493685Y56811223D01*
X-136017495Y57020747D02*
X-135941304Y57020747D01*
X-135903209Y57001700D01*
X-135865114Y56963604D01*
X-135846066Y56887414D01*
X-135846066Y56754080D01*
X-135865114Y56677890D01*
X-135903209Y56639795D01*
X-135941304Y56620747D01*
X-136017495Y56620747D01*
X-136055590Y56639795D01*
X-136093685Y56677890D01*
X-136112733Y56754080D01*
X-136112733Y56887414D01*
X-136093685Y56963604D01*
X-136055590Y57001700D01*
X-136017495Y57020747D01*
X-135674638Y57020747D02*
X-135674638Y56696938D01*
X-135655590Y56658842D01*
X-135636542Y56639795D01*
X-135598447Y56620747D01*
X-135522257Y56620747D01*
X-135484161Y56639795D01*
X-135465114Y56658842D01*
X-135446066Y56696938D01*
X-135446066Y57020747D01*
X-135312733Y57020747D02*
X-135084161Y57020747D01*
X-135198447Y56620747D02*
X-135198447Y57020747D01*
G04 #@! TD*
M02*
