M48
;DRILL file {KiCad (5.0.1)-4} date 3/5/2019 1:40:21
;FORMAT={-:-/ absolute / inch / decimal}
FMAT,2
INCH,TZ
T1C0.0197
T2C0.0236
T3C0.0315
T4C0.0400
%
G90
G05
M72
T3
X-6.8183Y2.6109
X-6.5183Y2.6109
X-5.5383Y3.7909
X-5.2383Y3.7909
X-6.3883Y2.8509
X-6.0883Y2.8509
X-6.0183Y4.9593
X-6.0183Y4.8609
X-5.5383Y2.6109
X-5.2383Y2.6109
X-5.9483Y3.7909
X-5.6483Y3.7909
X-6.7683Y1.8809
X-6.7683Y1.7825
X-6.6183Y1.8409
X-6.3183Y1.8409
X-5.9483Y2.6109
X-5.6483Y2.6109
X-6.8183Y2.8509
X-6.5183Y2.8509
X-6.3883Y3.7909
X-6.0883Y3.7909
X-5.5383Y2.8509
X-5.2383Y2.8509
X-6.3883Y2.6109
X-6.0883Y2.6109
X-6.0183Y4.3793
X-6.0183Y4.2809
X-6.3183Y4.7709
X-6.3183Y4.4709
X-6.2183Y4.7709
X-6.2183Y4.4709
X-6.1183Y4.7709
X-6.1183Y4.4709
X-6.0183Y4.7709
X-6.0183Y4.4709
X-5.9183Y4.7709
X-5.9183Y4.4709
X-5.8183Y4.7709
X-5.8183Y4.4709
X-5.7183Y4.7709
X-5.7183Y4.4709
X-5.7183Y1.8409
X-5.4183Y1.8409
X-5.9483Y2.8509
X-5.6483Y2.8509
X-5.2683Y1.8909
X-5.2683Y1.7925
X-6.8183Y3.7909
X-6.5183Y3.7909
T4
X-6.2183Y1.9409
X-6.2183Y1.8409
X-6.1183Y1.9409
X-6.1183Y1.8409
X-6.0183Y1.9409
X-6.0183Y1.8409
X-5.9183Y1.9409
X-5.9183Y1.8409
X-5.8183Y1.9409
X-5.8183Y1.8409
T1
X-6.6486Y2.0421G85X-6.688Y2.0421
G05
X-6.2161Y2.9871G85X-6.2555Y2.9871
G05
X-6.6486Y2.9871G85X-6.688Y2.9871
G05
X-6.2161Y3.9321G85X-6.2555Y3.9321
G05
X-5.7826Y2.9876G85X-5.822Y2.9876
G05
X-6.2161Y2.0421G85X-6.2555Y2.0421
G05
X-5.7826Y4.8766G85X-5.822Y4.8766
G05
X-5.3496Y3.9326G85X-5.389Y3.9326
G05
X-6.6486Y3.9321G85X-6.688Y3.9321
G05
X-5.3496Y2.0426G85X-5.389Y2.0426
G05
X-5.7826Y3.9326G85X-5.822Y3.9326
G05
X-6.2151Y4.8776G85X-6.2545Y4.8776
G05
X-5.7826Y2.0421G85X-5.822Y2.0421
G05
X-5.3496Y4.8771G85X-5.389Y4.8771
G05
X-6.6486Y4.8771G85X-6.688Y4.8771
G05
X-5.3496Y2.9871G85X-5.389Y2.9871
G05
T2
X-6.6545Y4.3809G85X-6.682Y4.3809
G05
X-6.6506Y4.2589G85X-6.686Y4.2589
G05
X-5.3555Y2.4914G85X-5.383Y2.4914
G05
X-5.3516Y2.3694G85X-5.387Y2.3694
G05
X-6.6545Y2.4909G85X-6.682Y2.4909
G05
X-6.6506Y2.3689G85X-6.686Y2.3689
G05
X-5.7885Y4.3814G85X-5.816Y4.3814
G05
X-5.7846Y4.2594G85X-5.82Y4.2594
G05
X-6.222Y3.4359G85X-6.2495Y3.4359
G05
X-6.2181Y3.3139G85X-6.2535Y3.3139
G05
X-6.221Y5.3264G85X-6.2485Y5.3264
G05
X-6.2171Y5.2044G85X-6.2525Y5.2044
G05
X-5.7885Y2.4909G85X-5.816Y2.4909
G05
X-5.7846Y2.3689G85X-5.82Y2.3689
G05
X-5.3555Y5.3259G85X-5.383Y5.3259
G05
X-5.3516Y5.2039G85X-5.387Y5.2039
G05
X-6.6545Y5.3259G85X-6.682Y5.3259
G05
X-6.6506Y5.2039G85X-6.686Y5.2039
G05
X-5.3555Y3.4359G85X-5.383Y3.4359
G05
X-5.3516Y3.3139G85X-5.387Y3.3139
G05
X-6.6545Y3.4359G85X-6.682Y3.4359
G05
X-6.6506Y3.3139G85X-6.686Y3.3139
G05
X-6.222Y4.3809G85X-6.2495Y4.3809
G05
X-6.2181Y4.2589G85X-6.2535Y4.2589
G05
X-5.7885Y3.4364G85X-5.816Y3.4364
G05
X-5.7846Y3.3144G85X-5.82Y3.3144
G05
X-6.222Y2.4909G85X-6.2495Y2.4909
G05
X-6.2181Y2.3689G85X-6.2535Y2.3689
G05
X-5.7885Y5.3254G85X-5.816Y5.3254
G05
X-5.7846Y5.2034G85X-5.82Y5.2034
G05
X-5.3555Y4.3814G85X-5.383Y4.3814
G05
X-5.3516Y4.2594G85X-5.387Y4.2594
G05
T0
M30
