G04 #@! TF.GenerationSoftware,KiCad,Pcbnew,(5.0.1)-4*
G04 #@! TF.CreationDate,2019-03-05T01:40:26-06:00*
G04 #@! TF.ProjectId,mult,6D756C742E6B696361645F7063620000,rev?*
G04 #@! TF.SameCoordinates,Original*
G04 #@! TF.FileFunction,Soldermask,Top*
G04 #@! TF.FilePolarity,Negative*
%FSLAX46Y46*%
G04 Gerber Fmt 4.6, Leading zero omitted, Abs format (unit mm)*
G04 Created by KiCad (PCBNEW (5.0.1)-4) date 3/5/2019 1:40:26*
%MOMM*%
%LPD*%
G01*
G04 APERTURE LIST*
%ADD10C,0.100000*%
G04 APERTURE END LIST*
D10*
G36*
X-171665772Y46093297D02*
X-171510900Y46029147D01*
X-171371519Y45936015D01*
X-171252985Y45817481D01*
X-171159853Y45678100D01*
X-171095703Y45523228D01*
X-171063000Y45358816D01*
X-171063000Y45191184D01*
X-171095703Y45026772D01*
X-171159853Y44871900D01*
X-171252985Y44732519D01*
X-171371519Y44613985D01*
X-171510900Y44520853D01*
X-171665772Y44456703D01*
X-171830184Y44424000D01*
X-171997816Y44424000D01*
X-172162228Y44456703D01*
X-172317100Y44520853D01*
X-172456481Y44613985D01*
X-172575015Y44732519D01*
X-172668147Y44871900D01*
X-172732297Y45026772D01*
X-172765000Y45191184D01*
X-172765000Y45358816D01*
X-172732297Y45523228D01*
X-172668147Y45678100D01*
X-172575015Y45817481D01*
X-172456481Y45936015D01*
X-172317100Y46029147D01*
X-172162228Y46093297D01*
X-171997816Y46126000D01*
X-171830184Y46126000D01*
X-171665772Y46093297D01*
X-171665772Y46093297D01*
G37*
G36*
X-133565772Y46347297D02*
X-133410900Y46283147D01*
X-133271519Y46190015D01*
X-133152985Y46071481D01*
X-133059853Y45932100D01*
X-132995703Y45777228D01*
X-132963000Y45612816D01*
X-132963000Y45445184D01*
X-132995703Y45280772D01*
X-133059853Y45125900D01*
X-133152985Y44986519D01*
X-133271519Y44867985D01*
X-133410900Y44774853D01*
X-133565772Y44710703D01*
X-133730184Y44678000D01*
X-133897816Y44678000D01*
X-134062228Y44710703D01*
X-134217100Y44774853D01*
X-134356481Y44867985D01*
X-134475015Y44986519D01*
X-134568147Y45125900D01*
X-134632297Y45280772D01*
X-134665000Y45445184D01*
X-134665000Y45612816D01*
X-134632297Y45777228D01*
X-134568147Y45932100D01*
X-134475015Y46071481D01*
X-134356481Y46190015D01*
X-134217100Y46283147D01*
X-134062228Y46347297D01*
X-133897816Y46380000D01*
X-133730184Y46380000D01*
X-133565772Y46347297D01*
X-133565772Y46347297D01*
G37*
G36*
X-155224706Y47660367D02*
X-155052306Y47608069D01*
X-155052304Y47608068D01*
X-154893417Y47523141D01*
X-154754151Y47408849D01*
X-154639859Y47269583D01*
X-154590907Y47178000D01*
X-154554931Y47110694D01*
X-154502633Y46938294D01*
X-154484975Y46759000D01*
X-154502633Y46579706D01*
X-154554931Y46407306D01*
X-154554932Y46407304D01*
X-154639859Y46248417D01*
X-154754151Y46109151D01*
X-154893417Y45994859D01*
X-155003508Y45936014D01*
X-155052306Y45909931D01*
X-155224706Y45857633D01*
X-155359069Y45844400D01*
X-155448931Y45844400D01*
X-155583294Y45857633D01*
X-155755694Y45909931D01*
X-155804492Y45936014D01*
X-155914583Y45994859D01*
X-156053849Y46109151D01*
X-156168141Y46248417D01*
X-156253068Y46407304D01*
X-156253069Y46407306D01*
X-156305367Y46579706D01*
X-156323025Y46759000D01*
X-156305367Y46938294D01*
X-156253069Y47110694D01*
X-156217093Y47178000D01*
X-156168141Y47269583D01*
X-156053849Y47408849D01*
X-155914583Y47523141D01*
X-155755696Y47608068D01*
X-155755694Y47608069D01*
X-155583294Y47660367D01*
X-155448931Y47673600D01*
X-155359069Y47673600D01*
X-155224706Y47660367D01*
X-155224706Y47660367D01*
G37*
G36*
X-157764706Y47660367D02*
X-157592306Y47608069D01*
X-157592304Y47608068D01*
X-157433417Y47523141D01*
X-157294151Y47408849D01*
X-157179859Y47269583D01*
X-157130907Y47178000D01*
X-157094931Y47110694D01*
X-157042633Y46938294D01*
X-157024975Y46759000D01*
X-157042633Y46579706D01*
X-157094931Y46407306D01*
X-157094932Y46407304D01*
X-157179859Y46248417D01*
X-157294151Y46109151D01*
X-157433417Y45994859D01*
X-157543508Y45936014D01*
X-157592306Y45909931D01*
X-157764706Y45857633D01*
X-157899069Y45844400D01*
X-157988931Y45844400D01*
X-158123294Y45857633D01*
X-158295694Y45909931D01*
X-158344492Y45936014D01*
X-158454583Y45994859D01*
X-158593849Y46109151D01*
X-158708141Y46248417D01*
X-158793068Y46407304D01*
X-158793069Y46407306D01*
X-158845367Y46579706D01*
X-158863025Y46759000D01*
X-158845367Y46938294D01*
X-158793069Y47110694D01*
X-158757093Y47178000D01*
X-158708141Y47269583D01*
X-158593849Y47408849D01*
X-158454583Y47523141D01*
X-158295696Y47608068D01*
X-158295694Y47608069D01*
X-158123294Y47660367D01*
X-157988931Y47673600D01*
X-157899069Y47673600D01*
X-157764706Y47660367D01*
X-157764706Y47660367D01*
G37*
G36*
X-150144706Y47660367D02*
X-149972306Y47608069D01*
X-149972304Y47608068D01*
X-149813417Y47523141D01*
X-149674151Y47408849D01*
X-149559859Y47269583D01*
X-149510907Y47178000D01*
X-149474931Y47110694D01*
X-149422633Y46938294D01*
X-149404975Y46759000D01*
X-149422633Y46579706D01*
X-149474931Y46407306D01*
X-149474932Y46407304D01*
X-149559859Y46248417D01*
X-149674151Y46109151D01*
X-149813417Y45994859D01*
X-149923508Y45936014D01*
X-149972306Y45909931D01*
X-150144706Y45857633D01*
X-150279069Y45844400D01*
X-150368931Y45844400D01*
X-150503294Y45857633D01*
X-150675694Y45909931D01*
X-150724492Y45936014D01*
X-150834583Y45994859D01*
X-150973849Y46109151D01*
X-151088141Y46248417D01*
X-151173068Y46407304D01*
X-151173069Y46407306D01*
X-151225367Y46579706D01*
X-151243025Y46759000D01*
X-151225367Y46938294D01*
X-151173069Y47110694D01*
X-151137093Y47178000D01*
X-151088141Y47269583D01*
X-150973849Y47408849D01*
X-150834583Y47523141D01*
X-150675696Y47608068D01*
X-150675694Y47608069D01*
X-150503294Y47660367D01*
X-150368931Y47673600D01*
X-150279069Y47673600D01*
X-150144706Y47660367D01*
X-150144706Y47660367D01*
G37*
G36*
X-146869400Y45844400D02*
X-148698600Y45844400D01*
X-148698600Y47673600D01*
X-146869400Y47673600D01*
X-146869400Y45844400D01*
X-146869400Y45844400D01*
G37*
G36*
X-152684706Y47660367D02*
X-152512306Y47608069D01*
X-152512304Y47608068D01*
X-152353417Y47523141D01*
X-152214151Y47408849D01*
X-152099859Y47269583D01*
X-152050907Y47178000D01*
X-152014931Y47110694D01*
X-151962633Y46938294D01*
X-151944975Y46759000D01*
X-151962633Y46579706D01*
X-152014931Y46407306D01*
X-152014932Y46407304D01*
X-152099859Y46248417D01*
X-152214151Y46109151D01*
X-152353417Y45994859D01*
X-152463508Y45936014D01*
X-152512306Y45909931D01*
X-152684706Y45857633D01*
X-152819069Y45844400D01*
X-152908931Y45844400D01*
X-153043294Y45857633D01*
X-153215694Y45909931D01*
X-153264492Y45936014D01*
X-153374583Y45994859D01*
X-153513849Y46109151D01*
X-153628141Y46248417D01*
X-153713068Y46407304D01*
X-153713069Y46407306D01*
X-153765367Y46579706D01*
X-153783025Y46759000D01*
X-153765367Y46938294D01*
X-153713069Y47110694D01*
X-153677093Y47178000D01*
X-153628141Y47269583D01*
X-153513849Y47408849D01*
X-153374583Y47523141D01*
X-153215696Y47608068D01*
X-153215694Y47608069D01*
X-153043294Y47660367D01*
X-152908931Y47673600D01*
X-152819069Y47673600D01*
X-152684706Y47660367D01*
X-152684706Y47660367D01*
G37*
G36*
X-167937179Y47597687D02*
X-167937176Y47597686D01*
X-167937175Y47597686D01*
X-167776761Y47549025D01*
X-167776759Y47549024D01*
X-167776756Y47549023D01*
X-167628922Y47470005D01*
X-167499341Y47363659D01*
X-167392995Y47234078D01*
X-167313977Y47086244D01*
X-167313976Y47086241D01*
X-167313975Y47086239D01*
X-167269096Y46938293D01*
X-167265313Y46925821D01*
X-167248883Y46759000D01*
X-167265313Y46592179D01*
X-167265314Y46592176D01*
X-167265314Y46592175D01*
X-167290007Y46510772D01*
X-167313977Y46431756D01*
X-167392995Y46283922D01*
X-167499341Y46154341D01*
X-167628922Y46047995D01*
X-167776756Y45968977D01*
X-167776759Y45968976D01*
X-167776761Y45968975D01*
X-167937175Y45920314D01*
X-167937176Y45920314D01*
X-167937179Y45920313D01*
X-168062196Y45908000D01*
X-168145804Y45908000D01*
X-168270821Y45920313D01*
X-168270824Y45920314D01*
X-168270825Y45920314D01*
X-168431239Y45968975D01*
X-168431241Y45968976D01*
X-168431244Y45968977D01*
X-168579078Y46047995D01*
X-168708659Y46154341D01*
X-168815005Y46283922D01*
X-168894023Y46431756D01*
X-168917992Y46510772D01*
X-168942686Y46592175D01*
X-168942686Y46592176D01*
X-168942687Y46592179D01*
X-168959117Y46759000D01*
X-168942687Y46925821D01*
X-168938904Y46938293D01*
X-168894025Y47086239D01*
X-168894024Y47086241D01*
X-168894023Y47086244D01*
X-168815005Y47234078D01*
X-168708659Y47363659D01*
X-168579078Y47470005D01*
X-168431244Y47549023D01*
X-168431241Y47549024D01*
X-168431239Y47549025D01*
X-168270825Y47597686D01*
X-168270824Y47597686D01*
X-168270821Y47597687D01*
X-168145804Y47610000D01*
X-168062196Y47610000D01*
X-167937179Y47597687D01*
X-167937179Y47597687D01*
G37*
G36*
X-137457179Y47597687D02*
X-137457176Y47597686D01*
X-137457175Y47597686D01*
X-137296761Y47549025D01*
X-137296759Y47549024D01*
X-137296756Y47549023D01*
X-137148922Y47470005D01*
X-137019341Y47363659D01*
X-136912995Y47234078D01*
X-136833977Y47086244D01*
X-136833976Y47086241D01*
X-136833975Y47086239D01*
X-136789096Y46938293D01*
X-136785313Y46925821D01*
X-136768883Y46759000D01*
X-136785313Y46592179D01*
X-136785314Y46592176D01*
X-136785314Y46592175D01*
X-136810007Y46510772D01*
X-136833977Y46431756D01*
X-136912995Y46283922D01*
X-137019341Y46154341D01*
X-137148922Y46047995D01*
X-137296756Y45968977D01*
X-137296759Y45968976D01*
X-137296761Y45968975D01*
X-137457175Y45920314D01*
X-137457176Y45920314D01*
X-137457179Y45920313D01*
X-137582196Y45908000D01*
X-137665804Y45908000D01*
X-137790821Y45920313D01*
X-137790824Y45920314D01*
X-137790825Y45920314D01*
X-137951239Y45968975D01*
X-137951241Y45968976D01*
X-137951244Y45968977D01*
X-138099078Y46047995D01*
X-138228659Y46154341D01*
X-138335005Y46283922D01*
X-138414023Y46431756D01*
X-138437992Y46510772D01*
X-138462686Y46592175D01*
X-138462686Y46592176D01*
X-138462687Y46592179D01*
X-138479117Y46759000D01*
X-138462687Y46925821D01*
X-138458904Y46938293D01*
X-138414025Y47086239D01*
X-138414024Y47086241D01*
X-138414023Y47086244D01*
X-138335005Y47234078D01*
X-138228659Y47363659D01*
X-138099078Y47470005D01*
X-137951244Y47549023D01*
X-137951241Y47549024D01*
X-137951239Y47549025D01*
X-137790825Y47597686D01*
X-137790824Y47597686D01*
X-137790821Y47597687D01*
X-137665804Y47610000D01*
X-137582196Y47610000D01*
X-137457179Y47597687D01*
X-137457179Y47597687D01*
G37*
G36*
X-144995772Y47577297D02*
X-144840900Y47513147D01*
X-144701519Y47420015D01*
X-144582985Y47301481D01*
X-144489853Y47162100D01*
X-144425703Y47007228D01*
X-144393000Y46842816D01*
X-144393000Y46675184D01*
X-144425703Y46510772D01*
X-144489853Y46355900D01*
X-144582985Y46216519D01*
X-144701519Y46097985D01*
X-144840900Y46004853D01*
X-144995772Y45940703D01*
X-145160184Y45908000D01*
X-145327816Y45908000D01*
X-145492228Y45940703D01*
X-145647100Y46004853D01*
X-145786481Y46097985D01*
X-145905015Y46216519D01*
X-145998147Y46355900D01*
X-146062297Y46510772D01*
X-146095000Y46675184D01*
X-146095000Y46842816D01*
X-146062297Y47007228D01*
X-145998147Y47162100D01*
X-145905015Y47301481D01*
X-145786481Y47420015D01*
X-145647100Y47513147D01*
X-145492228Y47577297D01*
X-145327816Y47610000D01*
X-145160184Y47610000D01*
X-144995772Y47577297D01*
X-144995772Y47577297D01*
G37*
G36*
X-160235772Y47577297D02*
X-160080900Y47513147D01*
X-159941519Y47420015D01*
X-159822985Y47301481D01*
X-159729853Y47162100D01*
X-159665703Y47007228D01*
X-159633000Y46842816D01*
X-159633000Y46675184D01*
X-159665703Y46510772D01*
X-159729853Y46355900D01*
X-159822985Y46216519D01*
X-159941519Y46097985D01*
X-160080900Y46004853D01*
X-160235772Y45940703D01*
X-160400184Y45908000D01*
X-160567816Y45908000D01*
X-160732228Y45940703D01*
X-160887100Y46004853D01*
X-161026481Y46097985D01*
X-161145015Y46216519D01*
X-161238147Y46355900D01*
X-161302297Y46510772D01*
X-161335000Y46675184D01*
X-161335000Y46842816D01*
X-161302297Y47007228D01*
X-161238147Y47162100D01*
X-161145015Y47301481D01*
X-161026481Y47420015D01*
X-160887100Y47513147D01*
X-160732228Y47577297D01*
X-160567816Y47610000D01*
X-160400184Y47610000D01*
X-160235772Y47577297D01*
X-160235772Y47577297D01*
G37*
G36*
X-171063000Y46924000D02*
X-172765000Y46924000D01*
X-172765000Y48626000D01*
X-171063000Y48626000D01*
X-171063000Y46924000D01*
X-171063000Y46924000D01*
G37*
G36*
X-132963000Y47178000D02*
X-134665000Y47178000D01*
X-134665000Y48880000D01*
X-132963000Y48880000D01*
X-132963000Y47178000D01*
X-132963000Y47178000D01*
G37*
G36*
X-155224706Y50200367D02*
X-155052306Y50148069D01*
X-155052304Y50148068D01*
X-154893417Y50063141D01*
X-154893415Y50063140D01*
X-154893416Y50063140D01*
X-154754151Y49948849D01*
X-154639860Y49809584D01*
X-154554931Y49650694D01*
X-154502633Y49478294D01*
X-154484975Y49299000D01*
X-154502633Y49119706D01*
X-154554931Y48947306D01*
X-154554932Y48947304D01*
X-154639859Y48788417D01*
X-154754151Y48649151D01*
X-154893417Y48534859D01*
X-155052304Y48449932D01*
X-155052306Y48449931D01*
X-155224706Y48397633D01*
X-155359069Y48384400D01*
X-155448931Y48384400D01*
X-155583294Y48397633D01*
X-155755694Y48449931D01*
X-155755696Y48449932D01*
X-155914583Y48534859D01*
X-156053849Y48649151D01*
X-156168141Y48788417D01*
X-156253068Y48947304D01*
X-156253069Y48947306D01*
X-156305367Y49119706D01*
X-156323025Y49299000D01*
X-156305367Y49478294D01*
X-156253069Y49650694D01*
X-156168140Y49809584D01*
X-156053849Y49948849D01*
X-155914584Y50063140D01*
X-155914585Y50063140D01*
X-155914583Y50063141D01*
X-155755696Y50148068D01*
X-155755694Y50148069D01*
X-155583294Y50200367D01*
X-155448931Y50213600D01*
X-155359069Y50213600D01*
X-155224706Y50200367D01*
X-155224706Y50200367D01*
G37*
G36*
X-150144706Y50200367D02*
X-149972306Y50148069D01*
X-149972304Y50148068D01*
X-149813417Y50063141D01*
X-149813415Y50063140D01*
X-149813416Y50063140D01*
X-149674151Y49948849D01*
X-149559860Y49809584D01*
X-149474931Y49650694D01*
X-149422633Y49478294D01*
X-149404975Y49299000D01*
X-149422633Y49119706D01*
X-149474931Y48947306D01*
X-149474932Y48947304D01*
X-149559859Y48788417D01*
X-149674151Y48649151D01*
X-149813417Y48534859D01*
X-149972304Y48449932D01*
X-149972306Y48449931D01*
X-150144706Y48397633D01*
X-150279069Y48384400D01*
X-150368931Y48384400D01*
X-150503294Y48397633D01*
X-150675694Y48449931D01*
X-150675696Y48449932D01*
X-150834583Y48534859D01*
X-150973849Y48649151D01*
X-151088141Y48788417D01*
X-151173068Y48947304D01*
X-151173069Y48947306D01*
X-151225367Y49119706D01*
X-151243025Y49299000D01*
X-151225367Y49478294D01*
X-151173069Y49650694D01*
X-151088140Y49809584D01*
X-150973849Y49948849D01*
X-150834584Y50063140D01*
X-150834585Y50063140D01*
X-150834583Y50063141D01*
X-150675696Y50148068D01*
X-150675694Y50148069D01*
X-150503294Y50200367D01*
X-150368931Y50213600D01*
X-150279069Y50213600D01*
X-150144706Y50200367D01*
X-150144706Y50200367D01*
G37*
G36*
X-147604706Y50200367D02*
X-147432306Y50148069D01*
X-147432304Y50148068D01*
X-147273417Y50063141D01*
X-147273415Y50063140D01*
X-147273416Y50063140D01*
X-147134151Y49948849D01*
X-147019860Y49809584D01*
X-146934931Y49650694D01*
X-146882633Y49478294D01*
X-146864975Y49299000D01*
X-146882633Y49119706D01*
X-146934931Y48947306D01*
X-146934932Y48947304D01*
X-147019859Y48788417D01*
X-147134151Y48649151D01*
X-147273417Y48534859D01*
X-147432304Y48449932D01*
X-147432306Y48449931D01*
X-147604706Y48397633D01*
X-147739069Y48384400D01*
X-147828931Y48384400D01*
X-147963294Y48397633D01*
X-148135694Y48449931D01*
X-148135696Y48449932D01*
X-148294583Y48534859D01*
X-148433849Y48649151D01*
X-148548141Y48788417D01*
X-148633068Y48947304D01*
X-148633069Y48947306D01*
X-148685367Y49119706D01*
X-148703025Y49299000D01*
X-148685367Y49478294D01*
X-148633069Y49650694D01*
X-148548140Y49809584D01*
X-148433849Y49948849D01*
X-148294584Y50063140D01*
X-148294585Y50063140D01*
X-148294583Y50063141D01*
X-148135696Y50148068D01*
X-148135694Y50148069D01*
X-147963294Y50200367D01*
X-147828931Y50213600D01*
X-147739069Y50213600D01*
X-147604706Y50200367D01*
X-147604706Y50200367D01*
G37*
G36*
X-152684706Y50200367D02*
X-152512306Y50148069D01*
X-152512304Y50148068D01*
X-152353417Y50063141D01*
X-152353415Y50063140D01*
X-152353416Y50063140D01*
X-152214151Y49948849D01*
X-152099860Y49809584D01*
X-152014931Y49650694D01*
X-151962633Y49478294D01*
X-151944975Y49299000D01*
X-151962633Y49119706D01*
X-152014931Y48947306D01*
X-152014932Y48947304D01*
X-152099859Y48788417D01*
X-152214151Y48649151D01*
X-152353417Y48534859D01*
X-152512304Y48449932D01*
X-152512306Y48449931D01*
X-152684706Y48397633D01*
X-152819069Y48384400D01*
X-152908931Y48384400D01*
X-153043294Y48397633D01*
X-153215694Y48449931D01*
X-153215696Y48449932D01*
X-153374583Y48534859D01*
X-153513849Y48649151D01*
X-153628141Y48788417D01*
X-153713068Y48947304D01*
X-153713069Y48947306D01*
X-153765367Y49119706D01*
X-153783025Y49299000D01*
X-153765367Y49478294D01*
X-153713069Y49650694D01*
X-153628140Y49809584D01*
X-153513849Y49948849D01*
X-153374584Y50063140D01*
X-153374585Y50063140D01*
X-153374583Y50063141D01*
X-153215696Y50148068D01*
X-153215694Y50148069D01*
X-153043294Y50200367D01*
X-152908931Y50213600D01*
X-152819069Y50213600D01*
X-152684706Y50200367D01*
X-152684706Y50200367D01*
G37*
G36*
X-157764706Y50200367D02*
X-157592306Y50148069D01*
X-157592304Y50148068D01*
X-157433417Y50063141D01*
X-157433415Y50063140D01*
X-157433416Y50063140D01*
X-157294151Y49948849D01*
X-157179860Y49809584D01*
X-157094931Y49650694D01*
X-157042633Y49478294D01*
X-157024975Y49299000D01*
X-157042633Y49119706D01*
X-157094931Y48947306D01*
X-157094932Y48947304D01*
X-157179859Y48788417D01*
X-157294151Y48649151D01*
X-157433417Y48534859D01*
X-157592304Y48449932D01*
X-157592306Y48449931D01*
X-157764706Y48397633D01*
X-157899069Y48384400D01*
X-157988931Y48384400D01*
X-158123294Y48397633D01*
X-158295694Y48449931D01*
X-158295696Y48449932D01*
X-158454583Y48534859D01*
X-158593849Y48649151D01*
X-158708141Y48788417D01*
X-158793068Y48947304D01*
X-158793069Y48947306D01*
X-158845367Y49119706D01*
X-158863025Y49299000D01*
X-158845367Y49478294D01*
X-158793069Y49650694D01*
X-158708140Y49809584D01*
X-158593849Y49948849D01*
X-158454584Y50063140D01*
X-158454585Y50063140D01*
X-158454583Y50063141D01*
X-158295696Y50148068D01*
X-158295694Y50148069D01*
X-158123294Y50200367D01*
X-157988931Y50213600D01*
X-157899069Y50213600D01*
X-157764706Y50200367D01*
X-157764706Y50200367D01*
G37*
G36*
X-157764835Y52616378D02*
X-157691278Y52609133D01*
X-157549714Y52566190D01*
X-157419248Y52496454D01*
X-157304894Y52402606D01*
X-157211046Y52288252D01*
X-157141310Y52157786D01*
X-157098367Y52016222D01*
X-157083867Y51869000D01*
X-157098367Y51721778D01*
X-157141310Y51580214D01*
X-157211046Y51449748D01*
X-157304894Y51335394D01*
X-157419248Y51241546D01*
X-157549714Y51171810D01*
X-157691278Y51128867D01*
X-157764835Y51121622D01*
X-157801612Y51118000D01*
X-158975388Y51118000D01*
X-159012165Y51121622D01*
X-159085722Y51128867D01*
X-159227286Y51171810D01*
X-159357752Y51241546D01*
X-159472106Y51335394D01*
X-159565954Y51449748D01*
X-159635690Y51580214D01*
X-159678633Y51721778D01*
X-159693133Y51869000D01*
X-159678633Y52016222D01*
X-159635690Y52157786D01*
X-159565954Y52288252D01*
X-159472106Y52402606D01*
X-159357752Y52496454D01*
X-159227286Y52566190D01*
X-159085722Y52609133D01*
X-159012165Y52616378D01*
X-158975388Y52620000D01*
X-157801612Y52620000D01*
X-157764835Y52616378D01*
X-157764835Y52616378D01*
G37*
G36*
X-168750335Y52616378D02*
X-168676778Y52609133D01*
X-168535214Y52566190D01*
X-168404748Y52496454D01*
X-168290394Y52402606D01*
X-168196546Y52288252D01*
X-168126810Y52157786D01*
X-168083867Y52016222D01*
X-168069367Y51869000D01*
X-168083867Y51721778D01*
X-168126810Y51580214D01*
X-168196546Y51449748D01*
X-168290394Y51335394D01*
X-168404748Y51241546D01*
X-168535214Y51171810D01*
X-168676778Y51128867D01*
X-168750335Y51121622D01*
X-168787112Y51118000D01*
X-169960888Y51118000D01*
X-169997665Y51121622D01*
X-170071222Y51128867D01*
X-170212786Y51171810D01*
X-170343252Y51241546D01*
X-170457606Y51335394D01*
X-170551454Y51449748D01*
X-170621190Y51580214D01*
X-170664133Y51721778D01*
X-170678633Y51869000D01*
X-170664133Y52016222D01*
X-170621190Y52157786D01*
X-170551454Y52288252D01*
X-170457606Y52402606D01*
X-170343252Y52496454D01*
X-170212786Y52566190D01*
X-170071222Y52609133D01*
X-169997665Y52616378D01*
X-169960888Y52620000D01*
X-168787112Y52620000D01*
X-168750335Y52616378D01*
X-168750335Y52616378D01*
G37*
G36*
X-146753935Y52616378D02*
X-146680378Y52609133D01*
X-146538814Y52566190D01*
X-146408348Y52496454D01*
X-146293994Y52402606D01*
X-146200146Y52288252D01*
X-146130410Y52157786D01*
X-146087467Y52016222D01*
X-146072967Y51869000D01*
X-146087467Y51721778D01*
X-146130410Y51580214D01*
X-146200146Y51449748D01*
X-146293994Y51335394D01*
X-146408348Y51241546D01*
X-146538814Y51171810D01*
X-146680378Y51128867D01*
X-146753935Y51121622D01*
X-146790712Y51118000D01*
X-147964488Y51118000D01*
X-148001265Y51121622D01*
X-148074822Y51128867D01*
X-148216386Y51171810D01*
X-148346852Y51241546D01*
X-148461206Y51335394D01*
X-148555054Y51449748D01*
X-148624790Y51580214D01*
X-148667733Y51721778D01*
X-148682233Y51869000D01*
X-148667733Y52016222D01*
X-148624790Y52157786D01*
X-148555054Y52288252D01*
X-148461206Y52402606D01*
X-148346852Y52496454D01*
X-148216386Y52566190D01*
X-148074822Y52609133D01*
X-148001265Y52616378D01*
X-147964488Y52620000D01*
X-146790712Y52620000D01*
X-146753935Y52616378D01*
X-146753935Y52616378D01*
G37*
G36*
X-135755735Y52629078D02*
X-135682178Y52621833D01*
X-135540614Y52578890D01*
X-135410148Y52509154D01*
X-135295794Y52415306D01*
X-135201946Y52300952D01*
X-135132210Y52170486D01*
X-135089267Y52028922D01*
X-135074767Y51881700D01*
X-135089267Y51734478D01*
X-135132210Y51592914D01*
X-135201946Y51462448D01*
X-135295794Y51348094D01*
X-135410148Y51254246D01*
X-135540614Y51184510D01*
X-135682178Y51141567D01*
X-135755735Y51134322D01*
X-135792512Y51130700D01*
X-136966288Y51130700D01*
X-137003065Y51134322D01*
X-137076622Y51141567D01*
X-137218186Y51184510D01*
X-137348652Y51254246D01*
X-137463006Y51348094D01*
X-137556854Y51462448D01*
X-137626590Y51592914D01*
X-137669533Y51734478D01*
X-137684033Y51881700D01*
X-137669533Y52028922D01*
X-137626590Y52170486D01*
X-137556854Y52300952D01*
X-137463006Y52415306D01*
X-137348652Y52509154D01*
X-137218186Y52578890D01*
X-137076622Y52621833D01*
X-137003065Y52629078D01*
X-136966288Y52632700D01*
X-135792512Y52632700D01*
X-135755735Y52629078D01*
X-135755735Y52629078D01*
G37*
G36*
X-168766975Y60958410D02*
X-168615988Y60912608D01*
X-168476835Y60838230D01*
X-168354867Y60738133D01*
X-168254770Y60616165D01*
X-168180392Y60477012D01*
X-168134590Y60326025D01*
X-168119125Y60169000D01*
X-168134590Y60011975D01*
X-168180392Y59860988D01*
X-168254770Y59721835D01*
X-168354867Y59599867D01*
X-168476835Y59499770D01*
X-168615988Y59425392D01*
X-168766975Y59379590D01*
X-168884654Y59368000D01*
X-169863346Y59368000D01*
X-169981025Y59379590D01*
X-170132012Y59425392D01*
X-170271165Y59499770D01*
X-170393133Y59599867D01*
X-170493230Y59721835D01*
X-170567608Y59860988D01*
X-170613410Y60011975D01*
X-170628875Y60169000D01*
X-170613410Y60326025D01*
X-170567608Y60477012D01*
X-170493230Y60616165D01*
X-170393133Y60738133D01*
X-170271165Y60838230D01*
X-170132012Y60912608D01*
X-169981025Y60958410D01*
X-169863346Y60970000D01*
X-168884654Y60970000D01*
X-168766975Y60958410D01*
X-168766975Y60958410D01*
G37*
G36*
X-157781475Y60958410D02*
X-157630488Y60912608D01*
X-157491335Y60838230D01*
X-157369367Y60738133D01*
X-157269270Y60616165D01*
X-157194892Y60477012D01*
X-157149090Y60326025D01*
X-157133625Y60169000D01*
X-157149090Y60011975D01*
X-157194892Y59860988D01*
X-157269270Y59721835D01*
X-157369367Y59599867D01*
X-157491335Y59499770D01*
X-157630488Y59425392D01*
X-157781475Y59379590D01*
X-157899154Y59368000D01*
X-158877846Y59368000D01*
X-158995525Y59379590D01*
X-159146512Y59425392D01*
X-159285665Y59499770D01*
X-159407633Y59599867D01*
X-159507730Y59721835D01*
X-159582108Y59860988D01*
X-159627910Y60011975D01*
X-159643375Y60169000D01*
X-159627910Y60326025D01*
X-159582108Y60477012D01*
X-159507730Y60616165D01*
X-159407633Y60738133D01*
X-159285665Y60838230D01*
X-159146512Y60912608D01*
X-158995525Y60958410D01*
X-158877846Y60970000D01*
X-157899154Y60970000D01*
X-157781475Y60958410D01*
X-157781475Y60958410D01*
G37*
G36*
X-146770575Y60958410D02*
X-146619588Y60912608D01*
X-146480435Y60838230D01*
X-146358467Y60738133D01*
X-146258370Y60616165D01*
X-146183992Y60477012D01*
X-146138190Y60326025D01*
X-146122725Y60169000D01*
X-146138190Y60011975D01*
X-146183992Y59860988D01*
X-146258370Y59721835D01*
X-146358467Y59599867D01*
X-146480435Y59499770D01*
X-146619588Y59425392D01*
X-146770575Y59379590D01*
X-146888254Y59368000D01*
X-147866946Y59368000D01*
X-147984625Y59379590D01*
X-148135612Y59425392D01*
X-148274765Y59499770D01*
X-148396733Y59599867D01*
X-148496830Y59721835D01*
X-148571208Y59860988D01*
X-148617010Y60011975D01*
X-148632475Y60169000D01*
X-148617010Y60326025D01*
X-148571208Y60477012D01*
X-148496830Y60616165D01*
X-148396733Y60738133D01*
X-148274765Y60838230D01*
X-148135612Y60912608D01*
X-147984625Y60958410D01*
X-147866946Y60970000D01*
X-146888254Y60970000D01*
X-146770575Y60958410D01*
X-146770575Y60958410D01*
G37*
G36*
X-135772375Y60971110D02*
X-135621388Y60925308D01*
X-135482235Y60850930D01*
X-135360267Y60750833D01*
X-135260170Y60628865D01*
X-135185792Y60489712D01*
X-135139990Y60338725D01*
X-135124525Y60181700D01*
X-135139990Y60024675D01*
X-135185792Y59873688D01*
X-135260170Y59734535D01*
X-135360267Y59612567D01*
X-135482235Y59512470D01*
X-135621388Y59438092D01*
X-135772375Y59392290D01*
X-135890054Y59380700D01*
X-136868746Y59380700D01*
X-136986425Y59392290D01*
X-137137412Y59438092D01*
X-137276565Y59512470D01*
X-137398533Y59612567D01*
X-137498630Y59734535D01*
X-137573008Y59873688D01*
X-137618810Y60024675D01*
X-137634275Y60181700D01*
X-137618810Y60338725D01*
X-137573008Y60489712D01*
X-137498630Y60628865D01*
X-137398533Y60750833D01*
X-137276565Y60850930D01*
X-137137412Y60925308D01*
X-136986425Y60971110D01*
X-136868746Y60982700D01*
X-135890054Y60982700D01*
X-135772375Y60971110D01*
X-135772375Y60971110D01*
G37*
G36*
X-168223000Y62468000D02*
X-170525000Y62468000D01*
X-170525000Y64070000D01*
X-168223000Y64070000D01*
X-168223000Y62468000D01*
X-168223000Y62468000D01*
G37*
G36*
X-157237500Y62468000D02*
X-159539500Y62468000D01*
X-159539500Y64070000D01*
X-157237500Y64070000D01*
X-157237500Y62468000D01*
X-157237500Y62468000D01*
G37*
G36*
X-146226600Y62468000D02*
X-148528600Y62468000D01*
X-148528600Y64070000D01*
X-146226600Y64070000D01*
X-146226600Y62468000D01*
X-146226600Y62468000D01*
G37*
G36*
X-135228400Y62480700D02*
X-137530400Y62480700D01*
X-137530400Y64082700D01*
X-135228400Y64082700D01*
X-135228400Y62480700D01*
X-135228400Y62480700D01*
G37*
G36*
X-143217772Y67135297D02*
X-143062900Y67071147D01*
X-142923519Y66978015D01*
X-142804985Y66859481D01*
X-142711853Y66720100D01*
X-142647703Y66565228D01*
X-142615000Y66400816D01*
X-142615000Y66233184D01*
X-142647703Y66068772D01*
X-142711853Y65913900D01*
X-142804985Y65774519D01*
X-142923519Y65655985D01*
X-143062900Y65562853D01*
X-143217772Y65498703D01*
X-143382184Y65466000D01*
X-143549816Y65466000D01*
X-143714228Y65498703D01*
X-143869100Y65562853D01*
X-144008481Y65655985D01*
X-144127015Y65774519D01*
X-144220147Y65913900D01*
X-144284297Y66068772D01*
X-144317000Y66233184D01*
X-144317000Y66400816D01*
X-144284297Y66565228D01*
X-144220147Y66720100D01*
X-144127015Y66859481D01*
X-144008481Y66978015D01*
X-143869100Y67071147D01*
X-143714228Y67135297D01*
X-143549816Y67168000D01*
X-143382184Y67168000D01*
X-143217772Y67135297D01*
X-143217772Y67135297D01*
G37*
G36*
X-140505179Y67155687D02*
X-140505176Y67155686D01*
X-140505175Y67155686D01*
X-140344761Y67107025D01*
X-140344759Y67107024D01*
X-140344756Y67107023D01*
X-140196922Y67028005D01*
X-140067341Y66921659D01*
X-139960995Y66792078D01*
X-139881977Y66644244D01*
X-139881976Y66644241D01*
X-139881975Y66644239D01*
X-139833314Y66483825D01*
X-139833313Y66483821D01*
X-139816883Y66317000D01*
X-139833313Y66150179D01*
X-139833314Y66150176D01*
X-139833314Y66150175D01*
X-139858007Y66068772D01*
X-139881977Y65989756D01*
X-139960995Y65841922D01*
X-140067341Y65712341D01*
X-140196922Y65605995D01*
X-140344756Y65526977D01*
X-140344759Y65526976D01*
X-140344761Y65526975D01*
X-140505175Y65478314D01*
X-140505176Y65478314D01*
X-140505179Y65478313D01*
X-140630196Y65466000D01*
X-140713804Y65466000D01*
X-140838821Y65478313D01*
X-140838824Y65478314D01*
X-140838825Y65478314D01*
X-140999239Y65526975D01*
X-140999241Y65526976D01*
X-140999244Y65526977D01*
X-141147078Y65605995D01*
X-141276659Y65712341D01*
X-141383005Y65841922D01*
X-141462023Y65989756D01*
X-141485992Y66068772D01*
X-141510686Y66150175D01*
X-141510686Y66150176D01*
X-141510687Y66150179D01*
X-141527117Y66317000D01*
X-141510687Y66483821D01*
X-141510686Y66483825D01*
X-141462025Y66644239D01*
X-141462024Y66644241D01*
X-141462023Y66644244D01*
X-141383005Y66792078D01*
X-141276659Y66921659D01*
X-141147078Y67028005D01*
X-140999244Y67107023D01*
X-140999241Y67107024D01*
X-140999239Y67107025D01*
X-140838825Y67155686D01*
X-140838824Y67155686D01*
X-140838821Y67155687D01*
X-140713804Y67168000D01*
X-140630196Y67168000D01*
X-140505179Y67155687D01*
X-140505179Y67155687D01*
G37*
G36*
X-132803772Y67135297D02*
X-132648900Y67071147D01*
X-132509519Y66978015D01*
X-132390985Y66859481D01*
X-132297853Y66720100D01*
X-132233703Y66565228D01*
X-132201000Y66400816D01*
X-132201000Y66233184D01*
X-132233703Y66068772D01*
X-132297853Y65913900D01*
X-132390985Y65774519D01*
X-132509519Y65655985D01*
X-132648900Y65562853D01*
X-132803772Y65498703D01*
X-132968184Y65466000D01*
X-133135816Y65466000D01*
X-133300228Y65498703D01*
X-133455100Y65562853D01*
X-133594481Y65655985D01*
X-133713015Y65774519D01*
X-133806147Y65913900D01*
X-133870297Y66068772D01*
X-133903000Y66233184D01*
X-133903000Y66400816D01*
X-133870297Y66565228D01*
X-133806147Y66720100D01*
X-133713015Y66859481D01*
X-133594481Y66978015D01*
X-133455100Y67071147D01*
X-133300228Y67135297D01*
X-133135816Y67168000D01*
X-132968184Y67168000D01*
X-132803772Y67135297D01*
X-132803772Y67135297D01*
G37*
G36*
X-172935772Y67135297D02*
X-172780900Y67071147D01*
X-172641519Y66978015D01*
X-172522985Y66859481D01*
X-172429853Y66720100D01*
X-172365703Y66565228D01*
X-172333000Y66400816D01*
X-172333000Y66233184D01*
X-172365703Y66068772D01*
X-172429853Y65913900D01*
X-172522985Y65774519D01*
X-172641519Y65655985D01*
X-172780900Y65562853D01*
X-172935772Y65498703D01*
X-173100184Y65466000D01*
X-173267816Y65466000D01*
X-173432228Y65498703D01*
X-173587100Y65562853D01*
X-173726481Y65655985D01*
X-173845015Y65774519D01*
X-173938147Y65913900D01*
X-174002297Y66068772D01*
X-174035000Y66233184D01*
X-174035000Y66400816D01*
X-174002297Y66565228D01*
X-173938147Y66720100D01*
X-173845015Y66859481D01*
X-173726481Y66978015D01*
X-173587100Y67071147D01*
X-173432228Y67135297D01*
X-173267816Y67168000D01*
X-173100184Y67168000D01*
X-172935772Y67135297D01*
X-172935772Y67135297D01*
G37*
G36*
X-165397179Y67155687D02*
X-165397176Y67155686D01*
X-165397175Y67155686D01*
X-165236761Y67107025D01*
X-165236759Y67107024D01*
X-165236756Y67107023D01*
X-165088922Y67028005D01*
X-164959341Y66921659D01*
X-164852995Y66792078D01*
X-164773977Y66644244D01*
X-164773976Y66644241D01*
X-164773975Y66644239D01*
X-164725314Y66483825D01*
X-164725313Y66483821D01*
X-164708883Y66317000D01*
X-164725313Y66150179D01*
X-164725314Y66150176D01*
X-164725314Y66150175D01*
X-164750007Y66068772D01*
X-164773977Y65989756D01*
X-164852995Y65841922D01*
X-164959341Y65712341D01*
X-165088922Y65605995D01*
X-165236756Y65526977D01*
X-165236759Y65526976D01*
X-165236761Y65526975D01*
X-165397175Y65478314D01*
X-165397176Y65478314D01*
X-165397179Y65478313D01*
X-165522196Y65466000D01*
X-165605804Y65466000D01*
X-165730821Y65478313D01*
X-165730824Y65478314D01*
X-165730825Y65478314D01*
X-165891239Y65526975D01*
X-165891241Y65526976D01*
X-165891244Y65526977D01*
X-166039078Y65605995D01*
X-166168659Y65712341D01*
X-166275005Y65841922D01*
X-166354023Y65989756D01*
X-166377992Y66068772D01*
X-166402686Y66150175D01*
X-166402686Y66150176D01*
X-166402687Y66150179D01*
X-166419117Y66317000D01*
X-166402687Y66483821D01*
X-166402686Y66483825D01*
X-166354025Y66644239D01*
X-166354024Y66644241D01*
X-166354023Y66644244D01*
X-166275005Y66792078D01*
X-166168659Y66921659D01*
X-166039078Y67028005D01*
X-165891244Y67107023D01*
X-165891241Y67107024D01*
X-165891239Y67107025D01*
X-165730825Y67155686D01*
X-165730824Y67155686D01*
X-165730821Y67155687D01*
X-165605804Y67168000D01*
X-165522196Y67168000D01*
X-165397179Y67155687D01*
X-165397179Y67155687D01*
G37*
G36*
X-154475179Y67155687D02*
X-154475176Y67155686D01*
X-154475175Y67155686D01*
X-154314761Y67107025D01*
X-154314759Y67107024D01*
X-154314756Y67107023D01*
X-154166922Y67028005D01*
X-154037341Y66921659D01*
X-153930995Y66792078D01*
X-153851977Y66644244D01*
X-153851976Y66644241D01*
X-153851975Y66644239D01*
X-153803314Y66483825D01*
X-153803313Y66483821D01*
X-153786883Y66317000D01*
X-153803313Y66150179D01*
X-153803314Y66150176D01*
X-153803314Y66150175D01*
X-153828007Y66068772D01*
X-153851977Y65989756D01*
X-153930995Y65841922D01*
X-154037341Y65712341D01*
X-154166922Y65605995D01*
X-154314756Y65526977D01*
X-154314759Y65526976D01*
X-154314761Y65526975D01*
X-154475175Y65478314D01*
X-154475176Y65478314D01*
X-154475179Y65478313D01*
X-154600196Y65466000D01*
X-154683804Y65466000D01*
X-154808821Y65478313D01*
X-154808824Y65478314D01*
X-154808825Y65478314D01*
X-154969239Y65526975D01*
X-154969241Y65526976D01*
X-154969244Y65526977D01*
X-155117078Y65605995D01*
X-155246659Y65712341D01*
X-155353005Y65841922D01*
X-155432023Y65989756D01*
X-155455992Y66068772D01*
X-155480686Y66150175D01*
X-155480686Y66150176D01*
X-155480687Y66150179D01*
X-155497117Y66317000D01*
X-155480687Y66483821D01*
X-155480686Y66483825D01*
X-155432025Y66644239D01*
X-155432024Y66644241D01*
X-155432023Y66644244D01*
X-155353005Y66792078D01*
X-155246659Y66921659D01*
X-155117078Y67028005D01*
X-154969244Y67107023D01*
X-154969241Y67107024D01*
X-154969239Y67107025D01*
X-154808825Y67155686D01*
X-154808824Y67155686D01*
X-154808821Y67155687D01*
X-154683804Y67168000D01*
X-154600196Y67168000D01*
X-154475179Y67155687D01*
X-154475179Y67155687D01*
G37*
G36*
X-162013772Y67135297D02*
X-161858900Y67071147D01*
X-161719519Y66978015D01*
X-161600985Y66859481D01*
X-161507853Y66720100D01*
X-161443703Y66565228D01*
X-161411000Y66400816D01*
X-161411000Y66233184D01*
X-161443703Y66068772D01*
X-161507853Y65913900D01*
X-161600985Y65774519D01*
X-161719519Y65655985D01*
X-161858900Y65562853D01*
X-162013772Y65498703D01*
X-162178184Y65466000D01*
X-162345816Y65466000D01*
X-162510228Y65498703D01*
X-162665100Y65562853D01*
X-162804481Y65655985D01*
X-162923015Y65774519D01*
X-163016147Y65913900D01*
X-163080297Y66068772D01*
X-163113000Y66233184D01*
X-163113000Y66400816D01*
X-163080297Y66565228D01*
X-163016147Y66720100D01*
X-162923015Y66859481D01*
X-162804481Y66978015D01*
X-162665100Y67071147D01*
X-162510228Y67135297D01*
X-162345816Y67168000D01*
X-162178184Y67168000D01*
X-162013772Y67135297D01*
X-162013772Y67135297D01*
G37*
G36*
X-150919179Y67155687D02*
X-150919176Y67155686D01*
X-150919175Y67155686D01*
X-150758761Y67107025D01*
X-150758759Y67107024D01*
X-150758756Y67107023D01*
X-150610922Y67028005D01*
X-150481341Y66921659D01*
X-150374995Y66792078D01*
X-150295977Y66644244D01*
X-150295976Y66644241D01*
X-150295975Y66644239D01*
X-150247314Y66483825D01*
X-150247313Y66483821D01*
X-150230883Y66317000D01*
X-150247313Y66150179D01*
X-150247314Y66150176D01*
X-150247314Y66150175D01*
X-150272007Y66068772D01*
X-150295977Y65989756D01*
X-150374995Y65841922D01*
X-150481341Y65712341D01*
X-150610922Y65605995D01*
X-150758756Y65526977D01*
X-150758759Y65526976D01*
X-150758761Y65526975D01*
X-150919175Y65478314D01*
X-150919176Y65478314D01*
X-150919179Y65478313D01*
X-151044196Y65466000D01*
X-151127804Y65466000D01*
X-151252821Y65478313D01*
X-151252824Y65478314D01*
X-151252825Y65478314D01*
X-151413239Y65526975D01*
X-151413241Y65526976D01*
X-151413244Y65526977D01*
X-151561078Y65605995D01*
X-151690659Y65712341D01*
X-151797005Y65841922D01*
X-151876023Y65989756D01*
X-151899992Y66068772D01*
X-151924686Y66150175D01*
X-151924686Y66150176D01*
X-151924687Y66150179D01*
X-151941117Y66317000D01*
X-151924687Y66483821D01*
X-151924686Y66483825D01*
X-151876025Y66644239D01*
X-151876024Y66644241D01*
X-151876023Y66644244D01*
X-151797005Y66792078D01*
X-151690659Y66921659D01*
X-151561078Y67028005D01*
X-151413244Y67107023D01*
X-151413241Y67107024D01*
X-151413239Y67107025D01*
X-151252825Y67155686D01*
X-151252824Y67155686D01*
X-151252821Y67155687D01*
X-151127804Y67168000D01*
X-151044196Y67168000D01*
X-150919179Y67155687D01*
X-150919179Y67155687D01*
G37*
G36*
X-150919179Y73251687D02*
X-150919176Y73251686D01*
X-150919175Y73251686D01*
X-150758761Y73203025D01*
X-150758759Y73203024D01*
X-150758756Y73203023D01*
X-150610922Y73124005D01*
X-150481341Y73017659D01*
X-150374995Y72888078D01*
X-150295977Y72740244D01*
X-150295976Y72740241D01*
X-150295975Y72740239D01*
X-150247314Y72579825D01*
X-150247313Y72579821D01*
X-150230883Y72413000D01*
X-150247313Y72246179D01*
X-150247314Y72246176D01*
X-150247314Y72246175D01*
X-150272007Y72164772D01*
X-150295977Y72085756D01*
X-150374995Y71937922D01*
X-150481341Y71808341D01*
X-150610922Y71701995D01*
X-150758756Y71622977D01*
X-150758759Y71622976D01*
X-150758761Y71622975D01*
X-150919175Y71574314D01*
X-150919176Y71574314D01*
X-150919179Y71574313D01*
X-151044196Y71562000D01*
X-151127804Y71562000D01*
X-151252821Y71574313D01*
X-151252824Y71574314D01*
X-151252825Y71574314D01*
X-151413239Y71622975D01*
X-151413241Y71622976D01*
X-151413244Y71622977D01*
X-151561078Y71701995D01*
X-151690659Y71808341D01*
X-151797005Y71937922D01*
X-151876023Y72085756D01*
X-151899992Y72164772D01*
X-151924686Y72246175D01*
X-151924686Y72246176D01*
X-151924687Y72246179D01*
X-151941117Y72413000D01*
X-151924687Y72579821D01*
X-151924686Y72579825D01*
X-151876025Y72740239D01*
X-151876024Y72740241D01*
X-151876023Y72740244D01*
X-151797005Y72888078D01*
X-151690659Y73017659D01*
X-151561078Y73124005D01*
X-151413244Y73203023D01*
X-151413241Y73203024D01*
X-151413239Y73203025D01*
X-151252825Y73251686D01*
X-151252824Y73251686D01*
X-151252821Y73251687D01*
X-151127804Y73264000D01*
X-151044196Y73264000D01*
X-150919179Y73251687D01*
X-150919179Y73251687D01*
G37*
G36*
X-140505179Y73251687D02*
X-140505176Y73251686D01*
X-140505175Y73251686D01*
X-140344761Y73203025D01*
X-140344759Y73203024D01*
X-140344756Y73203023D01*
X-140196922Y73124005D01*
X-140067341Y73017659D01*
X-139960995Y72888078D01*
X-139881977Y72740244D01*
X-139881976Y72740241D01*
X-139881975Y72740239D01*
X-139833314Y72579825D01*
X-139833313Y72579821D01*
X-139816883Y72413000D01*
X-139833313Y72246179D01*
X-139833314Y72246176D01*
X-139833314Y72246175D01*
X-139858007Y72164772D01*
X-139881977Y72085756D01*
X-139960995Y71937922D01*
X-140067341Y71808341D01*
X-140196922Y71701995D01*
X-140344756Y71622977D01*
X-140344759Y71622976D01*
X-140344761Y71622975D01*
X-140505175Y71574314D01*
X-140505176Y71574314D01*
X-140505179Y71574313D01*
X-140630196Y71562000D01*
X-140713804Y71562000D01*
X-140838821Y71574313D01*
X-140838824Y71574314D01*
X-140838825Y71574314D01*
X-140999239Y71622975D01*
X-140999241Y71622976D01*
X-140999244Y71622977D01*
X-141147078Y71701995D01*
X-141276659Y71808341D01*
X-141383005Y71937922D01*
X-141462023Y72085756D01*
X-141485992Y72164772D01*
X-141510686Y72246175D01*
X-141510686Y72246176D01*
X-141510687Y72246179D01*
X-141527117Y72413000D01*
X-141510687Y72579821D01*
X-141510686Y72579825D01*
X-141462025Y72740239D01*
X-141462024Y72740241D01*
X-141462023Y72740244D01*
X-141383005Y72888078D01*
X-141276659Y73017659D01*
X-141147078Y73124005D01*
X-140999244Y73203023D01*
X-140999241Y73203024D01*
X-140999239Y73203025D01*
X-140838825Y73251686D01*
X-140838824Y73251686D01*
X-140838821Y73251687D01*
X-140713804Y73264000D01*
X-140630196Y73264000D01*
X-140505179Y73251687D01*
X-140505179Y73251687D01*
G37*
G36*
X-132803772Y73231297D02*
X-132648900Y73167147D01*
X-132509519Y73074015D01*
X-132390985Y72955481D01*
X-132297853Y72816100D01*
X-132233703Y72661228D01*
X-132201000Y72496816D01*
X-132201000Y72329184D01*
X-132233703Y72164772D01*
X-132297853Y72009900D01*
X-132390985Y71870519D01*
X-132509519Y71751985D01*
X-132648900Y71658853D01*
X-132803772Y71594703D01*
X-132968184Y71562000D01*
X-133135816Y71562000D01*
X-133300228Y71594703D01*
X-133455100Y71658853D01*
X-133594481Y71751985D01*
X-133713015Y71870519D01*
X-133806147Y72009900D01*
X-133870297Y72164772D01*
X-133903000Y72329184D01*
X-133903000Y72496816D01*
X-133870297Y72661228D01*
X-133806147Y72816100D01*
X-133713015Y72955481D01*
X-133594481Y73074015D01*
X-133455100Y73167147D01*
X-133300228Y73231297D01*
X-133135816Y73264000D01*
X-132968184Y73264000D01*
X-132803772Y73231297D01*
X-132803772Y73231297D01*
G37*
G36*
X-143217772Y73231297D02*
X-143062900Y73167147D01*
X-142923519Y73074015D01*
X-142804985Y72955481D01*
X-142711853Y72816100D01*
X-142647703Y72661228D01*
X-142615000Y72496816D01*
X-142615000Y72329184D01*
X-142647703Y72164772D01*
X-142711853Y72009900D01*
X-142804985Y71870519D01*
X-142923519Y71751985D01*
X-143062900Y71658853D01*
X-143217772Y71594703D01*
X-143382184Y71562000D01*
X-143549816Y71562000D01*
X-143714228Y71594703D01*
X-143869100Y71658853D01*
X-144008481Y71751985D01*
X-144127015Y71870519D01*
X-144220147Y72009900D01*
X-144284297Y72164772D01*
X-144317000Y72329184D01*
X-144317000Y72496816D01*
X-144284297Y72661228D01*
X-144220147Y72816100D01*
X-144127015Y72955481D01*
X-144008481Y73074015D01*
X-143869100Y73167147D01*
X-143714228Y73231297D01*
X-143549816Y73264000D01*
X-143382184Y73264000D01*
X-143217772Y73231297D01*
X-143217772Y73231297D01*
G37*
G36*
X-165397179Y73251687D02*
X-165397176Y73251686D01*
X-165397175Y73251686D01*
X-165236761Y73203025D01*
X-165236759Y73203024D01*
X-165236756Y73203023D01*
X-165088922Y73124005D01*
X-164959341Y73017659D01*
X-164852995Y72888078D01*
X-164773977Y72740244D01*
X-164773976Y72740241D01*
X-164773975Y72740239D01*
X-164725314Y72579825D01*
X-164725313Y72579821D01*
X-164708883Y72413000D01*
X-164725313Y72246179D01*
X-164725314Y72246176D01*
X-164725314Y72246175D01*
X-164750007Y72164772D01*
X-164773977Y72085756D01*
X-164852995Y71937922D01*
X-164959341Y71808341D01*
X-165088922Y71701995D01*
X-165236756Y71622977D01*
X-165236759Y71622976D01*
X-165236761Y71622975D01*
X-165397175Y71574314D01*
X-165397176Y71574314D01*
X-165397179Y71574313D01*
X-165522196Y71562000D01*
X-165605804Y71562000D01*
X-165730821Y71574313D01*
X-165730824Y71574314D01*
X-165730825Y71574314D01*
X-165891239Y71622975D01*
X-165891241Y71622976D01*
X-165891244Y71622977D01*
X-166039078Y71701995D01*
X-166168659Y71808341D01*
X-166275005Y71937922D01*
X-166354023Y72085756D01*
X-166377992Y72164772D01*
X-166402686Y72246175D01*
X-166402686Y72246176D01*
X-166402687Y72246179D01*
X-166419117Y72413000D01*
X-166402687Y72579821D01*
X-166402686Y72579825D01*
X-166354025Y72740239D01*
X-166354024Y72740241D01*
X-166354023Y72740244D01*
X-166275005Y72888078D01*
X-166168659Y73017659D01*
X-166039078Y73124005D01*
X-165891244Y73203023D01*
X-165891241Y73203024D01*
X-165891239Y73203025D01*
X-165730825Y73251686D01*
X-165730824Y73251686D01*
X-165730821Y73251687D01*
X-165605804Y73264000D01*
X-165522196Y73264000D01*
X-165397179Y73251687D01*
X-165397179Y73251687D01*
G37*
G36*
X-172935772Y73231297D02*
X-172780900Y73167147D01*
X-172641519Y73074015D01*
X-172522985Y72955481D01*
X-172429853Y72816100D01*
X-172365703Y72661228D01*
X-172333000Y72496816D01*
X-172333000Y72329184D01*
X-172365703Y72164772D01*
X-172429853Y72009900D01*
X-172522985Y71870519D01*
X-172641519Y71751985D01*
X-172780900Y71658853D01*
X-172935772Y71594703D01*
X-173100184Y71562000D01*
X-173267816Y71562000D01*
X-173432228Y71594703D01*
X-173587100Y71658853D01*
X-173726481Y71751985D01*
X-173845015Y71870519D01*
X-173938147Y72009900D01*
X-174002297Y72164772D01*
X-174035000Y72329184D01*
X-174035000Y72496816D01*
X-174002297Y72661228D01*
X-173938147Y72816100D01*
X-173845015Y72955481D01*
X-173726481Y73074015D01*
X-173587100Y73167147D01*
X-173432228Y73231297D01*
X-173267816Y73264000D01*
X-173100184Y73264000D01*
X-172935772Y73231297D01*
X-172935772Y73231297D01*
G37*
G36*
X-154475179Y73251687D02*
X-154475176Y73251686D01*
X-154475175Y73251686D01*
X-154314761Y73203025D01*
X-154314759Y73203024D01*
X-154314756Y73203023D01*
X-154166922Y73124005D01*
X-154037341Y73017659D01*
X-153930995Y72888078D01*
X-153851977Y72740244D01*
X-153851976Y72740241D01*
X-153851975Y72740239D01*
X-153803314Y72579825D01*
X-153803313Y72579821D01*
X-153786883Y72413000D01*
X-153803313Y72246179D01*
X-153803314Y72246176D01*
X-153803314Y72246175D01*
X-153828007Y72164772D01*
X-153851977Y72085756D01*
X-153930995Y71937922D01*
X-154037341Y71808341D01*
X-154166922Y71701995D01*
X-154314756Y71622977D01*
X-154314759Y71622976D01*
X-154314761Y71622975D01*
X-154475175Y71574314D01*
X-154475176Y71574314D01*
X-154475179Y71574313D01*
X-154600196Y71562000D01*
X-154683804Y71562000D01*
X-154808821Y71574313D01*
X-154808824Y71574314D01*
X-154808825Y71574314D01*
X-154969239Y71622975D01*
X-154969241Y71622976D01*
X-154969244Y71622977D01*
X-155117078Y71701995D01*
X-155246659Y71808341D01*
X-155353005Y71937922D01*
X-155432023Y72085756D01*
X-155455992Y72164772D01*
X-155480686Y72246175D01*
X-155480686Y72246176D01*
X-155480687Y72246179D01*
X-155497117Y72413000D01*
X-155480687Y72579821D01*
X-155480686Y72579825D01*
X-155432025Y72740239D01*
X-155432024Y72740241D01*
X-155432023Y72740244D01*
X-155353005Y72888078D01*
X-155246659Y73017659D01*
X-155117078Y73124005D01*
X-154969244Y73203023D01*
X-154969241Y73203024D01*
X-154969239Y73203025D01*
X-154808825Y73251686D01*
X-154808824Y73251686D01*
X-154808821Y73251687D01*
X-154683804Y73264000D01*
X-154600196Y73264000D01*
X-154475179Y73251687D01*
X-154475179Y73251687D01*
G37*
G36*
X-162013772Y73231297D02*
X-161858900Y73167147D01*
X-161719519Y73074015D01*
X-161600985Y72955481D01*
X-161507853Y72816100D01*
X-161443703Y72661228D01*
X-161411000Y72496816D01*
X-161411000Y72329184D01*
X-161443703Y72164772D01*
X-161507853Y72009900D01*
X-161600985Y71870519D01*
X-161719519Y71751985D01*
X-161858900Y71658853D01*
X-162013772Y71594703D01*
X-162178184Y71562000D01*
X-162345816Y71562000D01*
X-162510228Y71594703D01*
X-162665100Y71658853D01*
X-162804481Y71751985D01*
X-162923015Y71870519D01*
X-163016147Y72009900D01*
X-163080297Y72164772D01*
X-163113000Y72329184D01*
X-163113000Y72496816D01*
X-163080297Y72661228D01*
X-163016147Y72816100D01*
X-162923015Y72955481D01*
X-162804481Y73074015D01*
X-162665100Y73167147D01*
X-162510228Y73231297D01*
X-162345816Y73264000D01*
X-162178184Y73264000D01*
X-162013772Y73231297D01*
X-162013772Y73231297D01*
G37*
G36*
X-135755735Y76619378D02*
X-135682178Y76612133D01*
X-135540614Y76569190D01*
X-135410148Y76499454D01*
X-135295794Y76405606D01*
X-135201946Y76291252D01*
X-135132210Y76160786D01*
X-135089267Y76019222D01*
X-135074767Y75872000D01*
X-135089267Y75724778D01*
X-135132210Y75583214D01*
X-135201946Y75452748D01*
X-135295794Y75338394D01*
X-135410148Y75244546D01*
X-135540614Y75174810D01*
X-135682178Y75131867D01*
X-135755735Y75124622D01*
X-135792512Y75121000D01*
X-136966288Y75121000D01*
X-137003065Y75124622D01*
X-137076622Y75131867D01*
X-137218186Y75174810D01*
X-137348652Y75244546D01*
X-137463006Y75338394D01*
X-137556854Y75452748D01*
X-137626590Y75583214D01*
X-137669533Y75724778D01*
X-137684033Y75872000D01*
X-137669533Y76019222D01*
X-137626590Y76160786D01*
X-137556854Y76291252D01*
X-137463006Y76405606D01*
X-137348652Y76499454D01*
X-137218186Y76569190D01*
X-137076622Y76612133D01*
X-137003065Y76619378D01*
X-136966288Y76623000D01*
X-135792512Y76623000D01*
X-135755735Y76619378D01*
X-135755735Y76619378D01*
G37*
G36*
X-168750335Y76619378D02*
X-168676778Y76612133D01*
X-168535214Y76569190D01*
X-168404748Y76499454D01*
X-168290394Y76405606D01*
X-168196546Y76291252D01*
X-168126810Y76160786D01*
X-168083867Y76019222D01*
X-168069367Y75872000D01*
X-168083867Y75724778D01*
X-168126810Y75583214D01*
X-168196546Y75452748D01*
X-168290394Y75338394D01*
X-168404748Y75244546D01*
X-168535214Y75174810D01*
X-168676778Y75131867D01*
X-168750335Y75124622D01*
X-168787112Y75121000D01*
X-169960888Y75121000D01*
X-169997665Y75124622D01*
X-170071222Y75131867D01*
X-170212786Y75174810D01*
X-170343252Y75244546D01*
X-170457606Y75338394D01*
X-170551454Y75452748D01*
X-170621190Y75583214D01*
X-170664133Y75724778D01*
X-170678633Y75872000D01*
X-170664133Y76019222D01*
X-170621190Y76160786D01*
X-170551454Y76291252D01*
X-170457606Y76405606D01*
X-170343252Y76499454D01*
X-170212786Y76569190D01*
X-170071222Y76612133D01*
X-169997665Y76619378D01*
X-169960888Y76623000D01*
X-168787112Y76623000D01*
X-168750335Y76619378D01*
X-168750335Y76619378D01*
G37*
G36*
X-157764835Y76619378D02*
X-157691278Y76612133D01*
X-157549714Y76569190D01*
X-157419248Y76499454D01*
X-157304894Y76405606D01*
X-157211046Y76291252D01*
X-157141310Y76160786D01*
X-157098367Y76019222D01*
X-157083867Y75872000D01*
X-157098367Y75724778D01*
X-157141310Y75583214D01*
X-157211046Y75452748D01*
X-157304894Y75338394D01*
X-157419248Y75244546D01*
X-157549714Y75174810D01*
X-157691278Y75131867D01*
X-157764835Y75124622D01*
X-157801612Y75121000D01*
X-158975388Y75121000D01*
X-159012165Y75124622D01*
X-159085722Y75131867D01*
X-159227286Y75174810D01*
X-159357752Y75244546D01*
X-159472106Y75338394D01*
X-159565954Y75452748D01*
X-159635690Y75583214D01*
X-159678633Y75724778D01*
X-159693133Y75872000D01*
X-159678633Y76019222D01*
X-159635690Y76160786D01*
X-159565954Y76291252D01*
X-159472106Y76405606D01*
X-159357752Y76499454D01*
X-159227286Y76569190D01*
X-159085722Y76612133D01*
X-159012165Y76619378D01*
X-158975388Y76623000D01*
X-157801612Y76623000D01*
X-157764835Y76619378D01*
X-157764835Y76619378D01*
G37*
G36*
X-146753935Y76632078D02*
X-146680378Y76624833D01*
X-146538814Y76581890D01*
X-146408348Y76512154D01*
X-146293994Y76418306D01*
X-146200146Y76303952D01*
X-146130410Y76173486D01*
X-146087467Y76031922D01*
X-146072967Y75884700D01*
X-146087467Y75737478D01*
X-146130410Y75595914D01*
X-146200146Y75465448D01*
X-146293994Y75351094D01*
X-146408348Y75257246D01*
X-146538814Y75187510D01*
X-146680378Y75144567D01*
X-146753935Y75137322D01*
X-146790712Y75133700D01*
X-147964488Y75133700D01*
X-148001265Y75137322D01*
X-148074822Y75144567D01*
X-148216386Y75187510D01*
X-148346852Y75257246D01*
X-148461206Y75351094D01*
X-148555054Y75465448D01*
X-148624790Y75595914D01*
X-148667733Y75737478D01*
X-148682233Y75884700D01*
X-148667733Y76031922D01*
X-148624790Y76173486D01*
X-148555054Y76303952D01*
X-148461206Y76418306D01*
X-148346852Y76512154D01*
X-148216386Y76581890D01*
X-148074822Y76624833D01*
X-148001265Y76632078D01*
X-147964488Y76635700D01*
X-146790712Y76635700D01*
X-146753935Y76632078D01*
X-146753935Y76632078D01*
G37*
G36*
X-135772375Y84961410D02*
X-135621388Y84915608D01*
X-135482235Y84841230D01*
X-135360267Y84741133D01*
X-135260170Y84619165D01*
X-135185792Y84480012D01*
X-135139990Y84329025D01*
X-135124525Y84172000D01*
X-135139990Y84014975D01*
X-135185792Y83863988D01*
X-135260170Y83724835D01*
X-135360267Y83602867D01*
X-135482235Y83502770D01*
X-135621388Y83428392D01*
X-135772375Y83382590D01*
X-135890054Y83371000D01*
X-136868746Y83371000D01*
X-136986425Y83382590D01*
X-137137412Y83428392D01*
X-137276565Y83502770D01*
X-137398533Y83602867D01*
X-137498630Y83724835D01*
X-137573008Y83863988D01*
X-137618810Y84014975D01*
X-137634275Y84172000D01*
X-137618810Y84329025D01*
X-137573008Y84480012D01*
X-137498630Y84619165D01*
X-137398533Y84741133D01*
X-137276565Y84841230D01*
X-137137412Y84915608D01*
X-136986425Y84961410D01*
X-136868746Y84973000D01*
X-135890054Y84973000D01*
X-135772375Y84961410D01*
X-135772375Y84961410D01*
G37*
G36*
X-168766975Y84961410D02*
X-168615988Y84915608D01*
X-168476835Y84841230D01*
X-168354867Y84741133D01*
X-168254770Y84619165D01*
X-168180392Y84480012D01*
X-168134590Y84329025D01*
X-168119125Y84172000D01*
X-168134590Y84014975D01*
X-168180392Y83863988D01*
X-168254770Y83724835D01*
X-168354867Y83602867D01*
X-168476835Y83502770D01*
X-168615988Y83428392D01*
X-168766975Y83382590D01*
X-168884654Y83371000D01*
X-169863346Y83371000D01*
X-169981025Y83382590D01*
X-170132012Y83428392D01*
X-170271165Y83502770D01*
X-170393133Y83602867D01*
X-170493230Y83724835D01*
X-170567608Y83863988D01*
X-170613410Y84014975D01*
X-170628875Y84172000D01*
X-170613410Y84329025D01*
X-170567608Y84480012D01*
X-170493230Y84619165D01*
X-170393133Y84741133D01*
X-170271165Y84841230D01*
X-170132012Y84915608D01*
X-169981025Y84961410D01*
X-169863346Y84973000D01*
X-168884654Y84973000D01*
X-168766975Y84961410D01*
X-168766975Y84961410D01*
G37*
G36*
X-157781475Y84961410D02*
X-157630488Y84915608D01*
X-157491335Y84841230D01*
X-157369367Y84741133D01*
X-157269270Y84619165D01*
X-157194892Y84480012D01*
X-157149090Y84329025D01*
X-157133625Y84172000D01*
X-157149090Y84014975D01*
X-157194892Y83863988D01*
X-157269270Y83724835D01*
X-157369367Y83602867D01*
X-157491335Y83502770D01*
X-157630488Y83428392D01*
X-157781475Y83382590D01*
X-157899154Y83371000D01*
X-158877846Y83371000D01*
X-158995525Y83382590D01*
X-159146512Y83428392D01*
X-159285665Y83502770D01*
X-159407633Y83602867D01*
X-159507730Y83724835D01*
X-159582108Y83863988D01*
X-159627910Y84014975D01*
X-159643375Y84172000D01*
X-159627910Y84329025D01*
X-159582108Y84480012D01*
X-159507730Y84619165D01*
X-159407633Y84741133D01*
X-159285665Y84841230D01*
X-159146512Y84915608D01*
X-158995525Y84961410D01*
X-158877846Y84973000D01*
X-157899154Y84973000D01*
X-157781475Y84961410D01*
X-157781475Y84961410D01*
G37*
G36*
X-146770575Y84974110D02*
X-146619588Y84928308D01*
X-146480435Y84853930D01*
X-146358467Y84753833D01*
X-146258370Y84631865D01*
X-146183992Y84492712D01*
X-146138190Y84341725D01*
X-146122725Y84184700D01*
X-146138190Y84027675D01*
X-146183992Y83876688D01*
X-146258370Y83737535D01*
X-146358467Y83615567D01*
X-146480435Y83515470D01*
X-146619588Y83441092D01*
X-146770575Y83395290D01*
X-146888254Y83383700D01*
X-147866946Y83383700D01*
X-147984625Y83395290D01*
X-148135612Y83441092D01*
X-148274765Y83515470D01*
X-148396733Y83615567D01*
X-148496830Y83737535D01*
X-148571208Y83876688D01*
X-148617010Y84027675D01*
X-148632475Y84184700D01*
X-148617010Y84341725D01*
X-148571208Y84492712D01*
X-148496830Y84631865D01*
X-148396733Y84753833D01*
X-148274765Y84853930D01*
X-148135612Y84928308D01*
X-147984625Y84974110D01*
X-147866946Y84985700D01*
X-146888254Y84985700D01*
X-146770575Y84974110D01*
X-146770575Y84974110D01*
G37*
G36*
X-157237500Y86471000D02*
X-159539500Y86471000D01*
X-159539500Y88073000D01*
X-157237500Y88073000D01*
X-157237500Y86471000D01*
X-157237500Y86471000D01*
G37*
G36*
X-135228400Y86471000D02*
X-137530400Y86471000D01*
X-137530400Y88073000D01*
X-135228400Y88073000D01*
X-135228400Y86471000D01*
X-135228400Y86471000D01*
G37*
G36*
X-168223000Y86471000D02*
X-170525000Y86471000D01*
X-170525000Y88073000D01*
X-168223000Y88073000D01*
X-168223000Y86471000D01*
X-168223000Y86471000D01*
G37*
G36*
X-146226600Y86483700D02*
X-148528600Y86483700D01*
X-148528600Y88085700D01*
X-146226600Y88085700D01*
X-146226600Y86483700D01*
X-146226600Y86483700D01*
G37*
G36*
X-165397179Y97127687D02*
X-165397176Y97127686D01*
X-165397175Y97127686D01*
X-165236761Y97079025D01*
X-165236759Y97079024D01*
X-165236756Y97079023D01*
X-165088922Y97000005D01*
X-164959341Y96893659D01*
X-164852995Y96764078D01*
X-164773977Y96616244D01*
X-164773976Y96616241D01*
X-164773975Y96616239D01*
X-164725314Y96455825D01*
X-164725313Y96455821D01*
X-164708883Y96289000D01*
X-164725313Y96122179D01*
X-164725314Y96122176D01*
X-164725314Y96122175D01*
X-164750007Y96040772D01*
X-164773977Y95961756D01*
X-164852995Y95813922D01*
X-164959341Y95684341D01*
X-165088922Y95577995D01*
X-165236756Y95498977D01*
X-165236759Y95498976D01*
X-165236761Y95498975D01*
X-165397175Y95450314D01*
X-165397176Y95450314D01*
X-165397179Y95450313D01*
X-165522196Y95438000D01*
X-165605804Y95438000D01*
X-165730821Y95450313D01*
X-165730824Y95450314D01*
X-165730825Y95450314D01*
X-165891239Y95498975D01*
X-165891241Y95498976D01*
X-165891244Y95498977D01*
X-166039078Y95577995D01*
X-166168659Y95684341D01*
X-166275005Y95813922D01*
X-166354023Y95961756D01*
X-166377992Y96040772D01*
X-166402686Y96122175D01*
X-166402686Y96122176D01*
X-166402687Y96122179D01*
X-166419117Y96289000D01*
X-166402687Y96455821D01*
X-166402686Y96455825D01*
X-166354025Y96616239D01*
X-166354024Y96616241D01*
X-166354023Y96616244D01*
X-166275005Y96764078D01*
X-166168659Y96893659D01*
X-166039078Y97000005D01*
X-165891244Y97079023D01*
X-165891241Y97079024D01*
X-165891239Y97079025D01*
X-165730825Y97127686D01*
X-165730824Y97127686D01*
X-165730821Y97127687D01*
X-165605804Y97140000D01*
X-165522196Y97140000D01*
X-165397179Y97127687D01*
X-165397179Y97127687D01*
G37*
G36*
X-140505179Y97127687D02*
X-140505176Y97127686D01*
X-140505175Y97127686D01*
X-140344761Y97079025D01*
X-140344759Y97079024D01*
X-140344756Y97079023D01*
X-140196922Y97000005D01*
X-140067341Y96893659D01*
X-139960995Y96764078D01*
X-139881977Y96616244D01*
X-139881976Y96616241D01*
X-139881975Y96616239D01*
X-139833314Y96455825D01*
X-139833313Y96455821D01*
X-139816883Y96289000D01*
X-139833313Y96122179D01*
X-139833314Y96122176D01*
X-139833314Y96122175D01*
X-139858007Y96040772D01*
X-139881977Y95961756D01*
X-139960995Y95813922D01*
X-140067341Y95684341D01*
X-140196922Y95577995D01*
X-140344756Y95498977D01*
X-140344759Y95498976D01*
X-140344761Y95498975D01*
X-140505175Y95450314D01*
X-140505176Y95450314D01*
X-140505179Y95450313D01*
X-140630196Y95438000D01*
X-140713804Y95438000D01*
X-140838821Y95450313D01*
X-140838824Y95450314D01*
X-140838825Y95450314D01*
X-140999239Y95498975D01*
X-140999241Y95498976D01*
X-140999244Y95498977D01*
X-141147078Y95577995D01*
X-141276659Y95684341D01*
X-141383005Y95813922D01*
X-141462023Y95961756D01*
X-141485992Y96040772D01*
X-141510686Y96122175D01*
X-141510686Y96122176D01*
X-141510687Y96122179D01*
X-141527117Y96289000D01*
X-141510687Y96455821D01*
X-141510686Y96455825D01*
X-141462025Y96616239D01*
X-141462024Y96616241D01*
X-141462023Y96616244D01*
X-141383005Y96764078D01*
X-141276659Y96893659D01*
X-141147078Y97000005D01*
X-140999244Y97079023D01*
X-140999241Y97079024D01*
X-140999239Y97079025D01*
X-140838825Y97127686D01*
X-140838824Y97127686D01*
X-140838821Y97127687D01*
X-140713804Y97140000D01*
X-140630196Y97140000D01*
X-140505179Y97127687D01*
X-140505179Y97127687D01*
G37*
G36*
X-162013772Y97107297D02*
X-161858900Y97043147D01*
X-161719519Y96950015D01*
X-161600985Y96831481D01*
X-161507853Y96692100D01*
X-161443703Y96537228D01*
X-161411000Y96372816D01*
X-161411000Y96205184D01*
X-161443703Y96040772D01*
X-161507853Y95885900D01*
X-161600985Y95746519D01*
X-161719519Y95627985D01*
X-161858900Y95534853D01*
X-162013772Y95470703D01*
X-162178184Y95438000D01*
X-162345816Y95438000D01*
X-162510228Y95470703D01*
X-162665100Y95534853D01*
X-162804481Y95627985D01*
X-162923015Y95746519D01*
X-163016147Y95885900D01*
X-163080297Y96040772D01*
X-163113000Y96205184D01*
X-163113000Y96372816D01*
X-163080297Y96537228D01*
X-163016147Y96692100D01*
X-162923015Y96831481D01*
X-162804481Y96950015D01*
X-162665100Y97043147D01*
X-162510228Y97107297D01*
X-162345816Y97140000D01*
X-162178184Y97140000D01*
X-162013772Y97107297D01*
X-162013772Y97107297D01*
G37*
G36*
X-132803772Y97107297D02*
X-132648900Y97043147D01*
X-132509519Y96950015D01*
X-132390985Y96831481D01*
X-132297853Y96692100D01*
X-132233703Y96537228D01*
X-132201000Y96372816D01*
X-132201000Y96205184D01*
X-132233703Y96040772D01*
X-132297853Y95885900D01*
X-132390985Y95746519D01*
X-132509519Y95627985D01*
X-132648900Y95534853D01*
X-132803772Y95470703D01*
X-132968184Y95438000D01*
X-133135816Y95438000D01*
X-133300228Y95470703D01*
X-133455100Y95534853D01*
X-133594481Y95627985D01*
X-133713015Y95746519D01*
X-133806147Y95885900D01*
X-133870297Y96040772D01*
X-133903000Y96205184D01*
X-133903000Y96372816D01*
X-133870297Y96537228D01*
X-133806147Y96692100D01*
X-133713015Y96831481D01*
X-133594481Y96950015D01*
X-133455100Y97043147D01*
X-133300228Y97107297D01*
X-133135816Y97140000D01*
X-132968184Y97140000D01*
X-132803772Y97107297D01*
X-132803772Y97107297D01*
G37*
G36*
X-172935772Y97107297D02*
X-172780900Y97043147D01*
X-172641519Y96950015D01*
X-172522985Y96831481D01*
X-172429853Y96692100D01*
X-172365703Y96537228D01*
X-172333000Y96372816D01*
X-172333000Y96205184D01*
X-172365703Y96040772D01*
X-172429853Y95885900D01*
X-172522985Y95746519D01*
X-172641519Y95627985D01*
X-172780900Y95534853D01*
X-172935772Y95470703D01*
X-173100184Y95438000D01*
X-173267816Y95438000D01*
X-173432228Y95470703D01*
X-173587100Y95534853D01*
X-173726481Y95627985D01*
X-173845015Y95746519D01*
X-173938147Y95885900D01*
X-174002297Y96040772D01*
X-174035000Y96205184D01*
X-174035000Y96372816D01*
X-174002297Y96537228D01*
X-173938147Y96692100D01*
X-173845015Y96831481D01*
X-173726481Y96950015D01*
X-173587100Y97043147D01*
X-173432228Y97107297D01*
X-173267816Y97140000D01*
X-173100184Y97140000D01*
X-172935772Y97107297D01*
X-172935772Y97107297D01*
G37*
G36*
X-154475179Y97127687D02*
X-154475176Y97127686D01*
X-154475175Y97127686D01*
X-154314761Y97079025D01*
X-154314759Y97079024D01*
X-154314756Y97079023D01*
X-154166922Y97000005D01*
X-154037341Y96893659D01*
X-153930995Y96764078D01*
X-153851977Y96616244D01*
X-153851976Y96616241D01*
X-153851975Y96616239D01*
X-153803314Y96455825D01*
X-153803313Y96455821D01*
X-153786883Y96289000D01*
X-153803313Y96122179D01*
X-153803314Y96122176D01*
X-153803314Y96122175D01*
X-153828007Y96040772D01*
X-153851977Y95961756D01*
X-153930995Y95813922D01*
X-154037341Y95684341D01*
X-154166922Y95577995D01*
X-154314756Y95498977D01*
X-154314759Y95498976D01*
X-154314761Y95498975D01*
X-154475175Y95450314D01*
X-154475176Y95450314D01*
X-154475179Y95450313D01*
X-154600196Y95438000D01*
X-154683804Y95438000D01*
X-154808821Y95450313D01*
X-154808824Y95450314D01*
X-154808825Y95450314D01*
X-154969239Y95498975D01*
X-154969241Y95498976D01*
X-154969244Y95498977D01*
X-155117078Y95577995D01*
X-155246659Y95684341D01*
X-155353005Y95813922D01*
X-155432023Y95961756D01*
X-155455992Y96040772D01*
X-155480686Y96122175D01*
X-155480686Y96122176D01*
X-155480687Y96122179D01*
X-155497117Y96289000D01*
X-155480687Y96455821D01*
X-155480686Y96455825D01*
X-155432025Y96616239D01*
X-155432024Y96616241D01*
X-155432023Y96616244D01*
X-155353005Y96764078D01*
X-155246659Y96893659D01*
X-155117078Y97000005D01*
X-154969244Y97079023D01*
X-154969241Y97079024D01*
X-154969239Y97079025D01*
X-154808825Y97127686D01*
X-154808824Y97127686D01*
X-154808821Y97127687D01*
X-154683804Y97140000D01*
X-154600196Y97140000D01*
X-154475179Y97127687D01*
X-154475179Y97127687D01*
G37*
G36*
X-150919179Y97127687D02*
X-150919176Y97127686D01*
X-150919175Y97127686D01*
X-150758761Y97079025D01*
X-150758759Y97079024D01*
X-150758756Y97079023D01*
X-150610922Y97000005D01*
X-150481341Y96893659D01*
X-150374995Y96764078D01*
X-150295977Y96616244D01*
X-150295976Y96616241D01*
X-150295975Y96616239D01*
X-150247314Y96455825D01*
X-150247313Y96455821D01*
X-150230883Y96289000D01*
X-150247313Y96122179D01*
X-150247314Y96122176D01*
X-150247314Y96122175D01*
X-150272007Y96040772D01*
X-150295977Y95961756D01*
X-150374995Y95813922D01*
X-150481341Y95684341D01*
X-150610922Y95577995D01*
X-150758756Y95498977D01*
X-150758759Y95498976D01*
X-150758761Y95498975D01*
X-150919175Y95450314D01*
X-150919176Y95450314D01*
X-150919179Y95450313D01*
X-151044196Y95438000D01*
X-151127804Y95438000D01*
X-151252821Y95450313D01*
X-151252824Y95450314D01*
X-151252825Y95450314D01*
X-151413239Y95498975D01*
X-151413241Y95498976D01*
X-151413244Y95498977D01*
X-151561078Y95577995D01*
X-151690659Y95684341D01*
X-151797005Y95813922D01*
X-151876023Y95961756D01*
X-151899992Y96040772D01*
X-151924686Y96122175D01*
X-151924686Y96122176D01*
X-151924687Y96122179D01*
X-151941117Y96289000D01*
X-151924687Y96455821D01*
X-151924686Y96455825D01*
X-151876025Y96616239D01*
X-151876024Y96616241D01*
X-151876023Y96616244D01*
X-151797005Y96764078D01*
X-151690659Y96893659D01*
X-151561078Y97000005D01*
X-151413244Y97079023D01*
X-151413241Y97079024D01*
X-151413239Y97079025D01*
X-151252825Y97127686D01*
X-151252824Y97127686D01*
X-151252821Y97127687D01*
X-151127804Y97140000D01*
X-151044196Y97140000D01*
X-150919179Y97127687D01*
X-150919179Y97127687D01*
G37*
G36*
X-143217772Y97107297D02*
X-143062900Y97043147D01*
X-142923519Y96950015D01*
X-142804985Y96831481D01*
X-142711853Y96692100D01*
X-142647703Y96537228D01*
X-142615000Y96372816D01*
X-142615000Y96205184D01*
X-142647703Y96040772D01*
X-142711853Y95885900D01*
X-142804985Y95746519D01*
X-142923519Y95627985D01*
X-143062900Y95534853D01*
X-143217772Y95470703D01*
X-143382184Y95438000D01*
X-143549816Y95438000D01*
X-143714228Y95470703D01*
X-143869100Y95534853D01*
X-144008481Y95627985D01*
X-144127015Y95746519D01*
X-144220147Y95885900D01*
X-144284297Y96040772D01*
X-144317000Y96205184D01*
X-144317000Y96372816D01*
X-144284297Y96537228D01*
X-144220147Y96692100D01*
X-144127015Y96831481D01*
X-144008481Y96950015D01*
X-143869100Y97043147D01*
X-143714228Y97107297D01*
X-143549816Y97140000D01*
X-143382184Y97140000D01*
X-143217772Y97107297D01*
X-143217772Y97107297D01*
G37*
G36*
X-157764835Y100622378D02*
X-157691278Y100615133D01*
X-157549714Y100572190D01*
X-157419248Y100502454D01*
X-157304894Y100408606D01*
X-157211046Y100294252D01*
X-157141310Y100163786D01*
X-157098367Y100022222D01*
X-157083867Y99875000D01*
X-157098367Y99727778D01*
X-157141310Y99586214D01*
X-157211046Y99455748D01*
X-157304894Y99341394D01*
X-157419248Y99247546D01*
X-157549714Y99177810D01*
X-157691278Y99134867D01*
X-157764835Y99127622D01*
X-157801612Y99124000D01*
X-158975388Y99124000D01*
X-159012165Y99127622D01*
X-159085722Y99134867D01*
X-159227286Y99177810D01*
X-159357752Y99247546D01*
X-159472106Y99341394D01*
X-159565954Y99455748D01*
X-159635690Y99586214D01*
X-159678633Y99727778D01*
X-159693133Y99875000D01*
X-159678633Y100022222D01*
X-159635690Y100163786D01*
X-159565954Y100294252D01*
X-159472106Y100408606D01*
X-159357752Y100502454D01*
X-159227286Y100572190D01*
X-159085722Y100615133D01*
X-159012165Y100622378D01*
X-158975388Y100626000D01*
X-157801612Y100626000D01*
X-157764835Y100622378D01*
X-157764835Y100622378D01*
G37*
G36*
X-168750335Y100622378D02*
X-168676778Y100615133D01*
X-168535214Y100572190D01*
X-168404748Y100502454D01*
X-168290394Y100408606D01*
X-168196546Y100294252D01*
X-168126810Y100163786D01*
X-168083867Y100022222D01*
X-168069367Y99875000D01*
X-168083867Y99727778D01*
X-168126810Y99586214D01*
X-168196546Y99455748D01*
X-168290394Y99341394D01*
X-168404748Y99247546D01*
X-168535214Y99177810D01*
X-168676778Y99134867D01*
X-168750335Y99127622D01*
X-168787112Y99124000D01*
X-169960888Y99124000D01*
X-169997665Y99127622D01*
X-170071222Y99134867D01*
X-170212786Y99177810D01*
X-170343252Y99247546D01*
X-170457606Y99341394D01*
X-170551454Y99455748D01*
X-170621190Y99586214D01*
X-170664133Y99727778D01*
X-170678633Y99875000D01*
X-170664133Y100022222D01*
X-170621190Y100163786D01*
X-170551454Y100294252D01*
X-170457606Y100408606D01*
X-170343252Y100502454D01*
X-170212786Y100572190D01*
X-170071222Y100615133D01*
X-169997665Y100622378D01*
X-169960888Y100626000D01*
X-168787112Y100626000D01*
X-168750335Y100622378D01*
X-168750335Y100622378D01*
G37*
G36*
X-135755735Y100635078D02*
X-135682178Y100627833D01*
X-135540614Y100584890D01*
X-135410148Y100515154D01*
X-135295794Y100421306D01*
X-135201946Y100306952D01*
X-135132210Y100176486D01*
X-135089267Y100034922D01*
X-135074767Y99887700D01*
X-135089267Y99740478D01*
X-135132210Y99598914D01*
X-135201946Y99468448D01*
X-135295794Y99354094D01*
X-135410148Y99260246D01*
X-135540614Y99190510D01*
X-135682178Y99147567D01*
X-135755735Y99140322D01*
X-135792512Y99136700D01*
X-136966288Y99136700D01*
X-137003065Y99140322D01*
X-137076622Y99147567D01*
X-137218186Y99190510D01*
X-137348652Y99260246D01*
X-137463006Y99354094D01*
X-137556854Y99468448D01*
X-137626590Y99598914D01*
X-137669533Y99740478D01*
X-137684033Y99887700D01*
X-137669533Y100034922D01*
X-137626590Y100176486D01*
X-137556854Y100306952D01*
X-137463006Y100421306D01*
X-137348652Y100515154D01*
X-137218186Y100584890D01*
X-137076622Y100627833D01*
X-137003065Y100635078D01*
X-136966288Y100638700D01*
X-135792512Y100638700D01*
X-135755735Y100635078D01*
X-135755735Y100635078D01*
G37*
G36*
X-146753935Y100635078D02*
X-146680378Y100627833D01*
X-146538814Y100584890D01*
X-146408348Y100515154D01*
X-146293994Y100421306D01*
X-146200146Y100306952D01*
X-146130410Y100176486D01*
X-146087467Y100034922D01*
X-146072967Y99887700D01*
X-146087467Y99740478D01*
X-146130410Y99598914D01*
X-146200146Y99468448D01*
X-146293994Y99354094D01*
X-146408348Y99260246D01*
X-146538814Y99190510D01*
X-146680378Y99147567D01*
X-146753935Y99140322D01*
X-146790712Y99136700D01*
X-147964488Y99136700D01*
X-148001265Y99140322D01*
X-148074822Y99147567D01*
X-148216386Y99190510D01*
X-148346852Y99260246D01*
X-148461206Y99354094D01*
X-148555054Y99468448D01*
X-148624790Y99598914D01*
X-148667733Y99740478D01*
X-148682233Y99887700D01*
X-148667733Y100034922D01*
X-148624790Y100176486D01*
X-148555054Y100306952D01*
X-148461206Y100421306D01*
X-148346852Y100515154D01*
X-148216386Y100584890D01*
X-148074822Y100627833D01*
X-148001265Y100635078D01*
X-147964488Y100638700D01*
X-146790712Y100638700D01*
X-146753935Y100635078D01*
X-146753935Y100635078D01*
G37*
G36*
X-157781475Y108964410D02*
X-157630488Y108918608D01*
X-157491335Y108844230D01*
X-157369367Y108744133D01*
X-157269270Y108622165D01*
X-157194892Y108483012D01*
X-157149090Y108332025D01*
X-157133625Y108175000D01*
X-157149090Y108017975D01*
X-157194892Y107866988D01*
X-157269270Y107727835D01*
X-157369367Y107605867D01*
X-157491335Y107505770D01*
X-157630488Y107431392D01*
X-157781475Y107385590D01*
X-157899154Y107374000D01*
X-158877846Y107374000D01*
X-158995525Y107385590D01*
X-159146512Y107431392D01*
X-159285665Y107505770D01*
X-159407633Y107605867D01*
X-159507730Y107727835D01*
X-159582108Y107866988D01*
X-159627910Y108017975D01*
X-159643375Y108175000D01*
X-159627910Y108332025D01*
X-159582108Y108483012D01*
X-159507730Y108622165D01*
X-159407633Y108744133D01*
X-159285665Y108844230D01*
X-159146512Y108918608D01*
X-158995525Y108964410D01*
X-158877846Y108976000D01*
X-157899154Y108976000D01*
X-157781475Y108964410D01*
X-157781475Y108964410D01*
G37*
G36*
X-168766975Y108964410D02*
X-168615988Y108918608D01*
X-168476835Y108844230D01*
X-168354867Y108744133D01*
X-168254770Y108622165D01*
X-168180392Y108483012D01*
X-168134590Y108332025D01*
X-168119125Y108175000D01*
X-168134590Y108017975D01*
X-168180392Y107866988D01*
X-168254770Y107727835D01*
X-168354867Y107605867D01*
X-168476835Y107505770D01*
X-168615988Y107431392D01*
X-168766975Y107385590D01*
X-168884654Y107374000D01*
X-169863346Y107374000D01*
X-169981025Y107385590D01*
X-170132012Y107431392D01*
X-170271165Y107505770D01*
X-170393133Y107605867D01*
X-170493230Y107727835D01*
X-170567608Y107866988D01*
X-170613410Y108017975D01*
X-170628875Y108175000D01*
X-170613410Y108332025D01*
X-170567608Y108483012D01*
X-170493230Y108622165D01*
X-170393133Y108744133D01*
X-170271165Y108844230D01*
X-170132012Y108918608D01*
X-169981025Y108964410D01*
X-169863346Y108976000D01*
X-168884654Y108976000D01*
X-168766975Y108964410D01*
X-168766975Y108964410D01*
G37*
G36*
X-146770575Y108977110D02*
X-146619588Y108931308D01*
X-146480435Y108856930D01*
X-146358467Y108756833D01*
X-146258370Y108634865D01*
X-146183992Y108495712D01*
X-146138190Y108344725D01*
X-146122725Y108187700D01*
X-146138190Y108030675D01*
X-146183992Y107879688D01*
X-146258370Y107740535D01*
X-146358467Y107618567D01*
X-146480435Y107518470D01*
X-146619588Y107444092D01*
X-146770575Y107398290D01*
X-146888254Y107386700D01*
X-147866946Y107386700D01*
X-147984625Y107398290D01*
X-148135612Y107444092D01*
X-148274765Y107518470D01*
X-148396733Y107618567D01*
X-148496830Y107740535D01*
X-148571208Y107879688D01*
X-148617010Y108030675D01*
X-148632475Y108187700D01*
X-148617010Y108344725D01*
X-148571208Y108495712D01*
X-148496830Y108634865D01*
X-148396733Y108756833D01*
X-148274765Y108856930D01*
X-148135612Y108931308D01*
X-147984625Y108977110D01*
X-147866946Y108988700D01*
X-146888254Y108988700D01*
X-146770575Y108977110D01*
X-146770575Y108977110D01*
G37*
G36*
X-135772375Y108977110D02*
X-135621388Y108931308D01*
X-135482235Y108856930D01*
X-135360267Y108756833D01*
X-135260170Y108634865D01*
X-135185792Y108495712D01*
X-135139990Y108344725D01*
X-135124525Y108187700D01*
X-135139990Y108030675D01*
X-135185792Y107879688D01*
X-135260170Y107740535D01*
X-135360267Y107618567D01*
X-135482235Y107518470D01*
X-135621388Y107444092D01*
X-135772375Y107398290D01*
X-135890054Y107386700D01*
X-136868746Y107386700D01*
X-136986425Y107398290D01*
X-137137412Y107444092D01*
X-137276565Y107518470D01*
X-137398533Y107618567D01*
X-137498630Y107740535D01*
X-137573008Y107879688D01*
X-137618810Y108030675D01*
X-137634275Y108187700D01*
X-137618810Y108344725D01*
X-137573008Y108495712D01*
X-137498630Y108634865D01*
X-137398533Y108756833D01*
X-137276565Y108856930D01*
X-137137412Y108931308D01*
X-136986425Y108977110D01*
X-136868746Y108988700D01*
X-135890054Y108988700D01*
X-135772375Y108977110D01*
X-135772375Y108977110D01*
G37*
G36*
X-152615772Y109553297D02*
X-152460900Y109489147D01*
X-152321519Y109396015D01*
X-152202985Y109277481D01*
X-152109853Y109138100D01*
X-152045703Y108983228D01*
X-152013000Y108818816D01*
X-152013000Y108651184D01*
X-152045703Y108486772D01*
X-152109853Y108331900D01*
X-152202985Y108192519D01*
X-152321519Y108073985D01*
X-152460900Y107980853D01*
X-152615772Y107916703D01*
X-152780184Y107884000D01*
X-152947816Y107884000D01*
X-153112228Y107916703D01*
X-153267100Y107980853D01*
X-153406481Y108073985D01*
X-153525015Y108192519D01*
X-153618147Y108331900D01*
X-153682297Y108486772D01*
X-153715000Y108651184D01*
X-153715000Y108818816D01*
X-153682297Y108983228D01*
X-153618147Y109138100D01*
X-153525015Y109277481D01*
X-153406481Y109396015D01*
X-153267100Y109489147D01*
X-153112228Y109553297D01*
X-152947816Y109586000D01*
X-152780184Y109586000D01*
X-152615772Y109553297D01*
X-152615772Y109553297D01*
G37*
G36*
X-152615772Y112053297D02*
X-152460900Y111989147D01*
X-152321519Y111896015D01*
X-152202985Y111777481D01*
X-152109853Y111638100D01*
X-152045703Y111483228D01*
X-152013000Y111318816D01*
X-152013000Y111151184D01*
X-152045703Y110986772D01*
X-152109853Y110831900D01*
X-152202985Y110692519D01*
X-152321519Y110573985D01*
X-152460900Y110480853D01*
X-152615772Y110416703D01*
X-152780184Y110384000D01*
X-152947816Y110384000D01*
X-153112228Y110416703D01*
X-153267100Y110480853D01*
X-153406481Y110573985D01*
X-153525015Y110692519D01*
X-153618147Y110831900D01*
X-153682297Y110986772D01*
X-153715000Y111151184D01*
X-153715000Y111318816D01*
X-153682297Y111483228D01*
X-153618147Y111638100D01*
X-153525015Y111777481D01*
X-153406481Y111896015D01*
X-153267100Y111989147D01*
X-153112228Y112053297D01*
X-152947816Y112086000D01*
X-152780184Y112086000D01*
X-152615772Y112053297D01*
X-152615772Y112053297D01*
G37*
G36*
X-157237500Y110474000D02*
X-159539500Y110474000D01*
X-159539500Y112076000D01*
X-157237500Y112076000D01*
X-157237500Y110474000D01*
X-157237500Y110474000D01*
G37*
G36*
X-168223000Y110474000D02*
X-170525000Y110474000D01*
X-170525000Y112076000D01*
X-168223000Y112076000D01*
X-168223000Y110474000D01*
X-168223000Y110474000D01*
G37*
G36*
X-135228400Y110486700D02*
X-137530400Y110486700D01*
X-137530400Y112088700D01*
X-135228400Y112088700D01*
X-135228400Y110486700D01*
X-135228400Y110486700D01*
G37*
G36*
X-146226600Y110486700D02*
X-148528600Y110486700D01*
X-148528600Y112088700D01*
X-146226600Y112088700D01*
X-146226600Y110486700D01*
X-146226600Y110486700D01*
G37*
G36*
X-150157179Y114399687D02*
X-150157176Y114399686D01*
X-150157175Y114399686D01*
X-149996761Y114351025D01*
X-149996759Y114351024D01*
X-149996756Y114351023D01*
X-149848922Y114272005D01*
X-149719341Y114165659D01*
X-149612995Y114036078D01*
X-149533977Y113888244D01*
X-149485313Y113727821D01*
X-149468883Y113561000D01*
X-149485313Y113394179D01*
X-149533977Y113233756D01*
X-149612995Y113085922D01*
X-149719341Y112956341D01*
X-149848922Y112849995D01*
X-149996756Y112770977D01*
X-149996759Y112770976D01*
X-149996761Y112770975D01*
X-150157175Y112722314D01*
X-150157176Y112722314D01*
X-150157179Y112722313D01*
X-150282196Y112710000D01*
X-150365804Y112710000D01*
X-150490821Y112722313D01*
X-150490824Y112722314D01*
X-150490825Y112722314D01*
X-150651239Y112770975D01*
X-150651241Y112770976D01*
X-150651244Y112770977D01*
X-150799078Y112849995D01*
X-150928659Y112956341D01*
X-151035005Y113085922D01*
X-151114023Y113233756D01*
X-151162687Y113394179D01*
X-151179117Y113561000D01*
X-151162687Y113727821D01*
X-151114023Y113888244D01*
X-151035005Y114036078D01*
X-150928659Y114165659D01*
X-150799078Y114272005D01*
X-150651244Y114351023D01*
X-150651241Y114351024D01*
X-150651239Y114351025D01*
X-150490825Y114399686D01*
X-150490824Y114399686D01*
X-150490821Y114399687D01*
X-150365804Y114412000D01*
X-150282196Y114412000D01*
X-150157179Y114399687D01*
X-150157179Y114399687D01*
G37*
G36*
X-147617179Y114399687D02*
X-147617176Y114399686D01*
X-147617175Y114399686D01*
X-147456761Y114351025D01*
X-147456759Y114351024D01*
X-147456756Y114351023D01*
X-147308922Y114272005D01*
X-147179341Y114165659D01*
X-147072995Y114036078D01*
X-146993977Y113888244D01*
X-146945313Y113727821D01*
X-146928883Y113561000D01*
X-146945313Y113394179D01*
X-146993977Y113233756D01*
X-147072995Y113085922D01*
X-147179341Y112956341D01*
X-147308922Y112849995D01*
X-147456756Y112770977D01*
X-147456759Y112770976D01*
X-147456761Y112770975D01*
X-147617175Y112722314D01*
X-147617176Y112722314D01*
X-147617179Y112722313D01*
X-147742196Y112710000D01*
X-147825804Y112710000D01*
X-147950821Y112722313D01*
X-147950824Y112722314D01*
X-147950825Y112722314D01*
X-148111239Y112770975D01*
X-148111241Y112770976D01*
X-148111244Y112770977D01*
X-148259078Y112849995D01*
X-148388659Y112956341D01*
X-148495005Y113085922D01*
X-148574023Y113233756D01*
X-148622687Y113394179D01*
X-148639117Y113561000D01*
X-148622687Y113727821D01*
X-148574023Y113888244D01*
X-148495005Y114036078D01*
X-148388659Y114165659D01*
X-148259078Y114272005D01*
X-148111244Y114351023D01*
X-148111241Y114351024D01*
X-148111239Y114351025D01*
X-147950825Y114399686D01*
X-147950824Y114399686D01*
X-147950821Y114399687D01*
X-147825804Y114412000D01*
X-147742196Y114412000D01*
X-147617179Y114399687D01*
X-147617179Y114399687D01*
G37*
G36*
X-157777179Y114399687D02*
X-157777176Y114399686D01*
X-157777175Y114399686D01*
X-157616761Y114351025D01*
X-157616759Y114351024D01*
X-157616756Y114351023D01*
X-157468922Y114272005D01*
X-157339341Y114165659D01*
X-157232995Y114036078D01*
X-157153977Y113888244D01*
X-157105313Y113727821D01*
X-157088883Y113561000D01*
X-157105313Y113394179D01*
X-157153977Y113233756D01*
X-157232995Y113085922D01*
X-157339341Y112956341D01*
X-157468922Y112849995D01*
X-157616756Y112770977D01*
X-157616759Y112770976D01*
X-157616761Y112770975D01*
X-157777175Y112722314D01*
X-157777176Y112722314D01*
X-157777179Y112722313D01*
X-157902196Y112710000D01*
X-157985804Y112710000D01*
X-158110821Y112722313D01*
X-158110824Y112722314D01*
X-158110825Y112722314D01*
X-158271239Y112770975D01*
X-158271241Y112770976D01*
X-158271244Y112770977D01*
X-158419078Y112849995D01*
X-158548659Y112956341D01*
X-158655005Y113085922D01*
X-158734023Y113233756D01*
X-158782687Y113394179D01*
X-158799117Y113561000D01*
X-158782687Y113727821D01*
X-158734023Y113888244D01*
X-158655005Y114036078D01*
X-158548659Y114165659D01*
X-158419078Y114272005D01*
X-158271244Y114351023D01*
X-158271241Y114351024D01*
X-158271239Y114351025D01*
X-158110825Y114399686D01*
X-158110824Y114399686D01*
X-158110821Y114399687D01*
X-157985804Y114412000D01*
X-157902196Y114412000D01*
X-157777179Y114399687D01*
X-157777179Y114399687D01*
G37*
G36*
X-152697179Y114399687D02*
X-152697176Y114399686D01*
X-152697175Y114399686D01*
X-152536761Y114351025D01*
X-152536759Y114351024D01*
X-152536756Y114351023D01*
X-152388922Y114272005D01*
X-152259341Y114165659D01*
X-152152995Y114036078D01*
X-152073977Y113888244D01*
X-152025313Y113727821D01*
X-152008883Y113561000D01*
X-152025313Y113394179D01*
X-152073977Y113233756D01*
X-152152995Y113085922D01*
X-152259341Y112956341D01*
X-152388922Y112849995D01*
X-152536756Y112770977D01*
X-152536759Y112770976D01*
X-152536761Y112770975D01*
X-152697175Y112722314D01*
X-152697176Y112722314D01*
X-152697179Y112722313D01*
X-152822196Y112710000D01*
X-152905804Y112710000D01*
X-153030821Y112722313D01*
X-153030824Y112722314D01*
X-153030825Y112722314D01*
X-153191239Y112770975D01*
X-153191241Y112770976D01*
X-153191244Y112770977D01*
X-153339078Y112849995D01*
X-153468659Y112956341D01*
X-153575005Y113085922D01*
X-153654023Y113233756D01*
X-153702687Y113394179D01*
X-153719117Y113561000D01*
X-153702687Y113727821D01*
X-153654023Y113888244D01*
X-153575005Y114036078D01*
X-153468659Y114165659D01*
X-153339078Y114272005D01*
X-153191244Y114351023D01*
X-153191241Y114351024D01*
X-153191239Y114351025D01*
X-153030825Y114399686D01*
X-153030824Y114399686D01*
X-153030821Y114399687D01*
X-152905804Y114412000D01*
X-152822196Y114412000D01*
X-152697179Y114399687D01*
X-152697179Y114399687D01*
G37*
G36*
X-160317179Y114399687D02*
X-160317176Y114399686D01*
X-160317175Y114399686D01*
X-160156761Y114351025D01*
X-160156759Y114351024D01*
X-160156756Y114351023D01*
X-160008922Y114272005D01*
X-159879341Y114165659D01*
X-159772995Y114036078D01*
X-159693977Y113888244D01*
X-159645313Y113727821D01*
X-159628883Y113561000D01*
X-159645313Y113394179D01*
X-159693977Y113233756D01*
X-159772995Y113085922D01*
X-159879341Y112956341D01*
X-160008922Y112849995D01*
X-160156756Y112770977D01*
X-160156759Y112770976D01*
X-160156761Y112770975D01*
X-160317175Y112722314D01*
X-160317176Y112722314D01*
X-160317179Y112722313D01*
X-160442196Y112710000D01*
X-160525804Y112710000D01*
X-160650821Y112722313D01*
X-160650824Y112722314D01*
X-160650825Y112722314D01*
X-160811239Y112770975D01*
X-160811241Y112770976D01*
X-160811244Y112770977D01*
X-160959078Y112849995D01*
X-161088659Y112956341D01*
X-161195005Y113085922D01*
X-161274023Y113233756D01*
X-161322687Y113394179D01*
X-161339117Y113561000D01*
X-161322687Y113727821D01*
X-161274023Y113888244D01*
X-161195005Y114036078D01*
X-161088659Y114165659D01*
X-160959078Y114272005D01*
X-160811244Y114351023D01*
X-160811241Y114351024D01*
X-160811239Y114351025D01*
X-160650825Y114399686D01*
X-160650824Y114399686D01*
X-160650821Y114399687D01*
X-160525804Y114412000D01*
X-160442196Y114412000D01*
X-160317179Y114399687D01*
X-160317179Y114399687D01*
G37*
G36*
X-155237179Y114399687D02*
X-155237176Y114399686D01*
X-155237175Y114399686D01*
X-155076761Y114351025D01*
X-155076759Y114351024D01*
X-155076756Y114351023D01*
X-154928922Y114272005D01*
X-154799341Y114165659D01*
X-154692995Y114036078D01*
X-154613977Y113888244D01*
X-154565313Y113727821D01*
X-154548883Y113561000D01*
X-154565313Y113394179D01*
X-154613977Y113233756D01*
X-154692995Y113085922D01*
X-154799341Y112956341D01*
X-154928922Y112849995D01*
X-155076756Y112770977D01*
X-155076759Y112770976D01*
X-155076761Y112770975D01*
X-155237175Y112722314D01*
X-155237176Y112722314D01*
X-155237179Y112722313D01*
X-155362196Y112710000D01*
X-155445804Y112710000D01*
X-155570821Y112722313D01*
X-155570824Y112722314D01*
X-155570825Y112722314D01*
X-155731239Y112770975D01*
X-155731241Y112770976D01*
X-155731244Y112770977D01*
X-155879078Y112849995D01*
X-156008659Y112956341D01*
X-156115005Y113085922D01*
X-156194023Y113233756D01*
X-156242687Y113394179D01*
X-156259117Y113561000D01*
X-156242687Y113727821D01*
X-156194023Y113888244D01*
X-156115005Y114036078D01*
X-156008659Y114165659D01*
X-155879078Y114272005D01*
X-155731244Y114351023D01*
X-155731241Y114351024D01*
X-155731239Y114351025D01*
X-155570825Y114399686D01*
X-155570824Y114399686D01*
X-155570821Y114399687D01*
X-155445804Y114412000D01*
X-155362196Y114412000D01*
X-155237179Y114399687D01*
X-155237179Y114399687D01*
G37*
G36*
X-145077179Y114399687D02*
X-145077176Y114399686D01*
X-145077175Y114399686D01*
X-144916761Y114351025D01*
X-144916759Y114351024D01*
X-144916756Y114351023D01*
X-144768922Y114272005D01*
X-144639341Y114165659D01*
X-144532995Y114036078D01*
X-144453977Y113888244D01*
X-144405313Y113727821D01*
X-144388883Y113561000D01*
X-144405313Y113394179D01*
X-144453977Y113233756D01*
X-144532995Y113085922D01*
X-144639341Y112956341D01*
X-144768922Y112849995D01*
X-144916756Y112770977D01*
X-144916759Y112770976D01*
X-144916761Y112770975D01*
X-145077175Y112722314D01*
X-145077176Y112722314D01*
X-145077179Y112722313D01*
X-145202196Y112710000D01*
X-145285804Y112710000D01*
X-145410821Y112722313D01*
X-145410824Y112722314D01*
X-145410825Y112722314D01*
X-145571239Y112770975D01*
X-145571241Y112770976D01*
X-145571244Y112770977D01*
X-145719078Y112849995D01*
X-145848659Y112956341D01*
X-145955005Y113085922D01*
X-146034023Y113233756D01*
X-146082687Y113394179D01*
X-146099117Y113561000D01*
X-146082687Y113727821D01*
X-146034023Y113888244D01*
X-145955005Y114036078D01*
X-145848659Y114165659D01*
X-145719078Y114272005D01*
X-145571244Y114351023D01*
X-145571241Y114351024D01*
X-145571239Y114351025D01*
X-145410825Y114399686D01*
X-145410824Y114399686D01*
X-145410821Y114399687D01*
X-145285804Y114412000D01*
X-145202196Y114412000D01*
X-145077179Y114399687D01*
X-145077179Y114399687D01*
G37*
G36*
X-159633000Y120330000D02*
X-161335000Y120330000D01*
X-161335000Y122032000D01*
X-159633000Y122032000D01*
X-159633000Y120330000D01*
X-159633000Y120330000D01*
G37*
G36*
X-157777179Y122019687D02*
X-157777176Y122019686D01*
X-157777175Y122019686D01*
X-157616761Y121971025D01*
X-157616759Y121971024D01*
X-157616756Y121971023D01*
X-157468922Y121892005D01*
X-157339341Y121785659D01*
X-157232995Y121656078D01*
X-157153977Y121508244D01*
X-157105313Y121347821D01*
X-157088883Y121181000D01*
X-157105313Y121014179D01*
X-157153977Y120853756D01*
X-157232995Y120705922D01*
X-157339341Y120576341D01*
X-157468922Y120469995D01*
X-157616756Y120390977D01*
X-157616759Y120390976D01*
X-157616761Y120390975D01*
X-157777175Y120342314D01*
X-157777176Y120342314D01*
X-157777179Y120342313D01*
X-157902196Y120330000D01*
X-157985804Y120330000D01*
X-158110821Y120342313D01*
X-158110824Y120342314D01*
X-158110825Y120342314D01*
X-158271239Y120390975D01*
X-158271241Y120390976D01*
X-158271244Y120390977D01*
X-158419078Y120469995D01*
X-158548659Y120576341D01*
X-158655005Y120705922D01*
X-158734023Y120853756D01*
X-158782687Y121014179D01*
X-158799117Y121181000D01*
X-158782687Y121347821D01*
X-158734023Y121508244D01*
X-158655005Y121656078D01*
X-158548659Y121785659D01*
X-158419078Y121892005D01*
X-158271244Y121971023D01*
X-158271241Y121971024D01*
X-158271239Y121971025D01*
X-158110825Y122019686D01*
X-158110824Y122019686D01*
X-158110821Y122019687D01*
X-157985804Y122032000D01*
X-157902196Y122032000D01*
X-157777179Y122019687D01*
X-157777179Y122019687D01*
G37*
G36*
X-155237179Y122019687D02*
X-155237176Y122019686D01*
X-155237175Y122019686D01*
X-155076761Y121971025D01*
X-155076759Y121971024D01*
X-155076756Y121971023D01*
X-154928922Y121892005D01*
X-154799341Y121785659D01*
X-154692995Y121656078D01*
X-154613977Y121508244D01*
X-154565313Y121347821D01*
X-154548883Y121181000D01*
X-154565313Y121014179D01*
X-154613977Y120853756D01*
X-154692995Y120705922D01*
X-154799341Y120576341D01*
X-154928922Y120469995D01*
X-155076756Y120390977D01*
X-155076759Y120390976D01*
X-155076761Y120390975D01*
X-155237175Y120342314D01*
X-155237176Y120342314D01*
X-155237179Y120342313D01*
X-155362196Y120330000D01*
X-155445804Y120330000D01*
X-155570821Y120342313D01*
X-155570824Y120342314D01*
X-155570825Y120342314D01*
X-155731239Y120390975D01*
X-155731241Y120390976D01*
X-155731244Y120390977D01*
X-155879078Y120469995D01*
X-156008659Y120576341D01*
X-156115005Y120705922D01*
X-156194023Y120853756D01*
X-156242687Y121014179D01*
X-156259117Y121181000D01*
X-156242687Y121347821D01*
X-156194023Y121508244D01*
X-156115005Y121656078D01*
X-156008659Y121785659D01*
X-155879078Y121892005D01*
X-155731244Y121971023D01*
X-155731241Y121971024D01*
X-155731239Y121971025D01*
X-155570825Y122019686D01*
X-155570824Y122019686D01*
X-155570821Y122019687D01*
X-155445804Y122032000D01*
X-155362196Y122032000D01*
X-155237179Y122019687D01*
X-155237179Y122019687D01*
G37*
G36*
X-145077179Y122019687D02*
X-145077176Y122019686D01*
X-145077175Y122019686D01*
X-144916761Y121971025D01*
X-144916759Y121971024D01*
X-144916756Y121971023D01*
X-144768922Y121892005D01*
X-144639341Y121785659D01*
X-144532995Y121656078D01*
X-144453977Y121508244D01*
X-144405313Y121347821D01*
X-144388883Y121181000D01*
X-144405313Y121014179D01*
X-144453977Y120853756D01*
X-144532995Y120705922D01*
X-144639341Y120576341D01*
X-144768922Y120469995D01*
X-144916756Y120390977D01*
X-144916759Y120390976D01*
X-144916761Y120390975D01*
X-145077175Y120342314D01*
X-145077176Y120342314D01*
X-145077179Y120342313D01*
X-145202196Y120330000D01*
X-145285804Y120330000D01*
X-145410821Y120342313D01*
X-145410824Y120342314D01*
X-145410825Y120342314D01*
X-145571239Y120390975D01*
X-145571241Y120390976D01*
X-145571244Y120390977D01*
X-145719078Y120469995D01*
X-145848659Y120576341D01*
X-145955005Y120705922D01*
X-146034023Y120853756D01*
X-146082687Y121014179D01*
X-146099117Y121181000D01*
X-146082687Y121347821D01*
X-146034023Y121508244D01*
X-145955005Y121656078D01*
X-145848659Y121785659D01*
X-145719078Y121892005D01*
X-145571244Y121971023D01*
X-145571241Y121971024D01*
X-145571239Y121971025D01*
X-145410825Y122019686D01*
X-145410824Y122019686D01*
X-145410821Y122019687D01*
X-145285804Y122032000D01*
X-145202196Y122032000D01*
X-145077179Y122019687D01*
X-145077179Y122019687D01*
G37*
G36*
X-152697179Y122019687D02*
X-152697176Y122019686D01*
X-152697175Y122019686D01*
X-152536761Y121971025D01*
X-152536759Y121971024D01*
X-152536756Y121971023D01*
X-152388922Y121892005D01*
X-152259341Y121785659D01*
X-152152995Y121656078D01*
X-152073977Y121508244D01*
X-152025313Y121347821D01*
X-152008883Y121181000D01*
X-152025313Y121014179D01*
X-152073977Y120853756D01*
X-152152995Y120705922D01*
X-152259341Y120576341D01*
X-152388922Y120469995D01*
X-152536756Y120390977D01*
X-152536759Y120390976D01*
X-152536761Y120390975D01*
X-152697175Y120342314D01*
X-152697176Y120342314D01*
X-152697179Y120342313D01*
X-152822196Y120330000D01*
X-152905804Y120330000D01*
X-153030821Y120342313D01*
X-153030824Y120342314D01*
X-153030825Y120342314D01*
X-153191239Y120390975D01*
X-153191241Y120390976D01*
X-153191244Y120390977D01*
X-153339078Y120469995D01*
X-153468659Y120576341D01*
X-153575005Y120705922D01*
X-153654023Y120853756D01*
X-153702687Y121014179D01*
X-153719117Y121181000D01*
X-153702687Y121347821D01*
X-153654023Y121508244D01*
X-153575005Y121656078D01*
X-153468659Y121785659D01*
X-153339078Y121892005D01*
X-153191244Y121971023D01*
X-153191241Y121971024D01*
X-153191239Y121971025D01*
X-153030825Y122019686D01*
X-153030824Y122019686D01*
X-153030821Y122019687D01*
X-152905804Y122032000D01*
X-152822196Y122032000D01*
X-152697179Y122019687D01*
X-152697179Y122019687D01*
G37*
G36*
X-150157179Y122019687D02*
X-150157176Y122019686D01*
X-150157175Y122019686D01*
X-149996761Y121971025D01*
X-149996759Y121971024D01*
X-149996756Y121971023D01*
X-149848922Y121892005D01*
X-149719341Y121785659D01*
X-149612995Y121656078D01*
X-149533977Y121508244D01*
X-149485313Y121347821D01*
X-149468883Y121181000D01*
X-149485313Y121014179D01*
X-149533977Y120853756D01*
X-149612995Y120705922D01*
X-149719341Y120576341D01*
X-149848922Y120469995D01*
X-149996756Y120390977D01*
X-149996759Y120390976D01*
X-149996761Y120390975D01*
X-150157175Y120342314D01*
X-150157176Y120342314D01*
X-150157179Y120342313D01*
X-150282196Y120330000D01*
X-150365804Y120330000D01*
X-150490821Y120342313D01*
X-150490824Y120342314D01*
X-150490825Y120342314D01*
X-150651239Y120390975D01*
X-150651241Y120390976D01*
X-150651244Y120390977D01*
X-150799078Y120469995D01*
X-150928659Y120576341D01*
X-151035005Y120705922D01*
X-151114023Y120853756D01*
X-151162687Y121014179D01*
X-151179117Y121181000D01*
X-151162687Y121347821D01*
X-151114023Y121508244D01*
X-151035005Y121656078D01*
X-150928659Y121785659D01*
X-150799078Y121892005D01*
X-150651244Y121971023D01*
X-150651241Y121971024D01*
X-150651239Y121971025D01*
X-150490825Y122019686D01*
X-150490824Y122019686D01*
X-150490821Y122019687D01*
X-150365804Y122032000D01*
X-150282196Y122032000D01*
X-150157179Y122019687D01*
X-150157179Y122019687D01*
G37*
G36*
X-147617179Y122019687D02*
X-147617176Y122019686D01*
X-147617175Y122019686D01*
X-147456761Y121971025D01*
X-147456759Y121971024D01*
X-147456756Y121971023D01*
X-147308922Y121892005D01*
X-147179341Y121785659D01*
X-147072995Y121656078D01*
X-146993977Y121508244D01*
X-146945313Y121347821D01*
X-146928883Y121181000D01*
X-146945313Y121014179D01*
X-146993977Y120853756D01*
X-147072995Y120705922D01*
X-147179341Y120576341D01*
X-147308922Y120469995D01*
X-147456756Y120390977D01*
X-147456759Y120390976D01*
X-147456761Y120390975D01*
X-147617175Y120342314D01*
X-147617176Y120342314D01*
X-147617179Y120342313D01*
X-147742196Y120330000D01*
X-147825804Y120330000D01*
X-147950821Y120342313D01*
X-147950824Y120342314D01*
X-147950825Y120342314D01*
X-148111239Y120390975D01*
X-148111241Y120390976D01*
X-148111244Y120390977D01*
X-148259078Y120469995D01*
X-148388659Y120576341D01*
X-148495005Y120705922D01*
X-148574023Y120853756D01*
X-148622687Y121014179D01*
X-148639117Y121181000D01*
X-148622687Y121347821D01*
X-148574023Y121508244D01*
X-148495005Y121656078D01*
X-148388659Y121785659D01*
X-148259078Y121892005D01*
X-148111244Y121971023D01*
X-148111241Y121971024D01*
X-148111239Y121971025D01*
X-147950825Y122019686D01*
X-147950824Y122019686D01*
X-147950821Y122019687D01*
X-147825804Y122032000D01*
X-147742196Y122032000D01*
X-147617179Y122019687D01*
X-147617179Y122019687D01*
G37*
G36*
X-152615772Y124285297D02*
X-152460900Y124221147D01*
X-152321519Y124128015D01*
X-152202985Y124009481D01*
X-152109853Y123870100D01*
X-152045703Y123715228D01*
X-152013000Y123550816D01*
X-152013000Y123383184D01*
X-152045703Y123218772D01*
X-152109853Y123063900D01*
X-152202985Y122924519D01*
X-152321519Y122805985D01*
X-152460900Y122712853D01*
X-152615772Y122648703D01*
X-152780184Y122616000D01*
X-152947816Y122616000D01*
X-153112228Y122648703D01*
X-153267100Y122712853D01*
X-153406481Y122805985D01*
X-153525015Y122924519D01*
X-153618147Y123063900D01*
X-153682297Y123218772D01*
X-153715000Y123383184D01*
X-153715000Y123550816D01*
X-153682297Y123715228D01*
X-153618147Y123870100D01*
X-153525015Y124009481D01*
X-153406481Y124128015D01*
X-153267100Y124221147D01*
X-153112228Y124285297D01*
X-152947816Y124318000D01*
X-152780184Y124318000D01*
X-152615772Y124285297D01*
X-152615772Y124285297D01*
G37*
G36*
X-146753935Y124612678D02*
X-146680378Y124605433D01*
X-146538814Y124562490D01*
X-146408348Y124492754D01*
X-146293994Y124398906D01*
X-146200146Y124284552D01*
X-146130410Y124154086D01*
X-146087467Y124012522D01*
X-146072967Y123865300D01*
X-146087467Y123718078D01*
X-146130410Y123576514D01*
X-146200146Y123446048D01*
X-146293994Y123331694D01*
X-146408348Y123237846D01*
X-146538814Y123168110D01*
X-146680378Y123125167D01*
X-146753935Y123117922D01*
X-146790712Y123114300D01*
X-147964488Y123114300D01*
X-148001265Y123117922D01*
X-148074822Y123125167D01*
X-148216386Y123168110D01*
X-148346852Y123237846D01*
X-148461206Y123331694D01*
X-148555054Y123446048D01*
X-148624790Y123576514D01*
X-148667733Y123718078D01*
X-148682233Y123865300D01*
X-148667733Y124012522D01*
X-148624790Y124154086D01*
X-148555054Y124284552D01*
X-148461206Y124398906D01*
X-148346852Y124492754D01*
X-148216386Y124562490D01*
X-148074822Y124605433D01*
X-148001265Y124612678D01*
X-147964488Y124616300D01*
X-146790712Y124616300D01*
X-146753935Y124612678D01*
X-146753935Y124612678D01*
G37*
G36*
X-168750335Y124625378D02*
X-168676778Y124618133D01*
X-168535214Y124575190D01*
X-168404748Y124505454D01*
X-168290394Y124411606D01*
X-168196546Y124297252D01*
X-168126810Y124166786D01*
X-168083867Y124025222D01*
X-168069367Y123878000D01*
X-168083867Y123730778D01*
X-168126810Y123589214D01*
X-168196546Y123458748D01*
X-168290394Y123344394D01*
X-168404748Y123250546D01*
X-168535214Y123180810D01*
X-168676778Y123137867D01*
X-168750335Y123130622D01*
X-168787112Y123127000D01*
X-169960888Y123127000D01*
X-169997665Y123130622D01*
X-170071222Y123137867D01*
X-170212786Y123180810D01*
X-170343252Y123250546D01*
X-170457606Y123344394D01*
X-170551454Y123458748D01*
X-170621190Y123589214D01*
X-170664133Y123730778D01*
X-170678633Y123878000D01*
X-170664133Y124025222D01*
X-170621190Y124166786D01*
X-170551454Y124297252D01*
X-170457606Y124411606D01*
X-170343252Y124505454D01*
X-170212786Y124575190D01*
X-170071222Y124618133D01*
X-169997665Y124625378D01*
X-169960888Y124629000D01*
X-168787112Y124629000D01*
X-168750335Y124625378D01*
X-168750335Y124625378D01*
G37*
G36*
X-135755735Y124625378D02*
X-135682178Y124618133D01*
X-135540614Y124575190D01*
X-135410148Y124505454D01*
X-135295794Y124411606D01*
X-135201946Y124297252D01*
X-135132210Y124166786D01*
X-135089267Y124025222D01*
X-135074767Y123878000D01*
X-135089267Y123730778D01*
X-135132210Y123589214D01*
X-135201946Y123458748D01*
X-135295794Y123344394D01*
X-135410148Y123250546D01*
X-135540614Y123180810D01*
X-135682178Y123137867D01*
X-135755735Y123130622D01*
X-135792512Y123127000D01*
X-136966288Y123127000D01*
X-137003065Y123130622D01*
X-137076622Y123137867D01*
X-137218186Y123180810D01*
X-137348652Y123250546D01*
X-137463006Y123344394D01*
X-137556854Y123458748D01*
X-137626590Y123589214D01*
X-137669533Y123730778D01*
X-137684033Y123878000D01*
X-137669533Y124025222D01*
X-137626590Y124166786D01*
X-137556854Y124297252D01*
X-137463006Y124411606D01*
X-137348652Y124505454D01*
X-137218186Y124575190D01*
X-137076622Y124618133D01*
X-137003065Y124625378D01*
X-136966288Y124629000D01*
X-135792512Y124629000D01*
X-135755735Y124625378D01*
X-135755735Y124625378D01*
G37*
G36*
X-157739435Y124638078D02*
X-157665878Y124630833D01*
X-157524314Y124587890D01*
X-157393848Y124518154D01*
X-157279494Y124424306D01*
X-157185646Y124309952D01*
X-157115910Y124179486D01*
X-157072967Y124037922D01*
X-157058467Y123890700D01*
X-157072967Y123743478D01*
X-157115910Y123601914D01*
X-157185646Y123471448D01*
X-157279494Y123357094D01*
X-157393848Y123263246D01*
X-157524314Y123193510D01*
X-157665878Y123150567D01*
X-157739435Y123143322D01*
X-157776212Y123139700D01*
X-158949988Y123139700D01*
X-158986765Y123143322D01*
X-159060322Y123150567D01*
X-159201886Y123193510D01*
X-159332352Y123263246D01*
X-159446706Y123357094D01*
X-159540554Y123471448D01*
X-159610290Y123601914D01*
X-159653233Y123743478D01*
X-159667733Y123890700D01*
X-159653233Y124037922D01*
X-159610290Y124179486D01*
X-159540554Y124309952D01*
X-159446706Y124424306D01*
X-159332352Y124518154D01*
X-159201886Y124587890D01*
X-159060322Y124630833D01*
X-158986765Y124638078D01*
X-158949988Y124641700D01*
X-157776212Y124641700D01*
X-157739435Y124638078D01*
X-157739435Y124638078D01*
G37*
G36*
X-152615772Y126785297D02*
X-152460900Y126721147D01*
X-152321519Y126628015D01*
X-152202985Y126509481D01*
X-152109853Y126370100D01*
X-152045703Y126215228D01*
X-152013000Y126050816D01*
X-152013000Y125883184D01*
X-152045703Y125718772D01*
X-152109853Y125563900D01*
X-152202985Y125424519D01*
X-152321519Y125305985D01*
X-152460900Y125212853D01*
X-152615772Y125148703D01*
X-152780184Y125116000D01*
X-152947816Y125116000D01*
X-153112228Y125148703D01*
X-153267100Y125212853D01*
X-153406481Y125305985D01*
X-153525015Y125424519D01*
X-153618147Y125563900D01*
X-153682297Y125718772D01*
X-153715000Y125883184D01*
X-153715000Y126050816D01*
X-153682297Y126215228D01*
X-153618147Y126370100D01*
X-153525015Y126509481D01*
X-153406481Y126628015D01*
X-153267100Y126721147D01*
X-153112228Y126785297D01*
X-152947816Y126818000D01*
X-152780184Y126818000D01*
X-152615772Y126785297D01*
X-152615772Y126785297D01*
G37*
G36*
X-146770575Y132954710D02*
X-146619588Y132908908D01*
X-146480435Y132834530D01*
X-146358467Y132734433D01*
X-146258370Y132612465D01*
X-146183992Y132473312D01*
X-146138190Y132322325D01*
X-146122725Y132165300D01*
X-146138190Y132008275D01*
X-146183992Y131857288D01*
X-146258370Y131718135D01*
X-146358467Y131596167D01*
X-146480435Y131496070D01*
X-146619588Y131421692D01*
X-146770575Y131375890D01*
X-146888254Y131364300D01*
X-147866946Y131364300D01*
X-147984625Y131375890D01*
X-148135612Y131421692D01*
X-148274765Y131496070D01*
X-148396733Y131596167D01*
X-148496830Y131718135D01*
X-148571208Y131857288D01*
X-148617010Y132008275D01*
X-148632475Y132165300D01*
X-148617010Y132322325D01*
X-148571208Y132473312D01*
X-148496830Y132612465D01*
X-148396733Y132734433D01*
X-148274765Y132834530D01*
X-148135612Y132908908D01*
X-147984625Y132954710D01*
X-147866946Y132966300D01*
X-146888254Y132966300D01*
X-146770575Y132954710D01*
X-146770575Y132954710D01*
G37*
G36*
X-135772375Y132967410D02*
X-135621388Y132921608D01*
X-135482235Y132847230D01*
X-135360267Y132747133D01*
X-135260170Y132625165D01*
X-135185792Y132486012D01*
X-135139990Y132335025D01*
X-135124525Y132178000D01*
X-135139990Y132020975D01*
X-135185792Y131869988D01*
X-135260170Y131730835D01*
X-135360267Y131608867D01*
X-135482235Y131508770D01*
X-135621388Y131434392D01*
X-135772375Y131388590D01*
X-135890054Y131377000D01*
X-136868746Y131377000D01*
X-136986425Y131388590D01*
X-137137412Y131434392D01*
X-137276565Y131508770D01*
X-137398533Y131608867D01*
X-137498630Y131730835D01*
X-137573008Y131869988D01*
X-137618810Y132020975D01*
X-137634275Y132178000D01*
X-137618810Y132335025D01*
X-137573008Y132486012D01*
X-137498630Y132625165D01*
X-137398533Y132747133D01*
X-137276565Y132847230D01*
X-137137412Y132921608D01*
X-136986425Y132967410D01*
X-136868746Y132979000D01*
X-135890054Y132979000D01*
X-135772375Y132967410D01*
X-135772375Y132967410D01*
G37*
G36*
X-168766975Y132967410D02*
X-168615988Y132921608D01*
X-168476835Y132847230D01*
X-168354867Y132747133D01*
X-168254770Y132625165D01*
X-168180392Y132486012D01*
X-168134590Y132335025D01*
X-168119125Y132178000D01*
X-168134590Y132020975D01*
X-168180392Y131869988D01*
X-168254770Y131730835D01*
X-168354867Y131608867D01*
X-168476835Y131508770D01*
X-168615988Y131434392D01*
X-168766975Y131388590D01*
X-168884654Y131377000D01*
X-169863346Y131377000D01*
X-169981025Y131388590D01*
X-170132012Y131434392D01*
X-170271165Y131508770D01*
X-170393133Y131608867D01*
X-170493230Y131730835D01*
X-170567608Y131869988D01*
X-170613410Y132020975D01*
X-170628875Y132178000D01*
X-170613410Y132335025D01*
X-170567608Y132486012D01*
X-170493230Y132625165D01*
X-170393133Y132747133D01*
X-170271165Y132847230D01*
X-170132012Y132921608D01*
X-169981025Y132967410D01*
X-169863346Y132979000D01*
X-168884654Y132979000D01*
X-168766975Y132967410D01*
X-168766975Y132967410D01*
G37*
G36*
X-157756075Y132980110D02*
X-157605088Y132934308D01*
X-157465935Y132859930D01*
X-157343967Y132759833D01*
X-157243870Y132637865D01*
X-157169492Y132498712D01*
X-157123690Y132347725D01*
X-157108225Y132190700D01*
X-157123690Y132033675D01*
X-157169492Y131882688D01*
X-157243870Y131743535D01*
X-157343967Y131621567D01*
X-157465935Y131521470D01*
X-157605088Y131447092D01*
X-157756075Y131401290D01*
X-157873754Y131389700D01*
X-158852446Y131389700D01*
X-158970125Y131401290D01*
X-159121112Y131447092D01*
X-159260265Y131521470D01*
X-159382233Y131621567D01*
X-159482330Y131743535D01*
X-159556708Y131882688D01*
X-159602510Y132033675D01*
X-159617975Y132190700D01*
X-159602510Y132347725D01*
X-159556708Y132498712D01*
X-159482330Y132637865D01*
X-159382233Y132759833D01*
X-159260265Y132859930D01*
X-159121112Y132934308D01*
X-158970125Y132980110D01*
X-158852446Y132991700D01*
X-157873754Y132991700D01*
X-157756075Y132980110D01*
X-157756075Y132980110D01*
G37*
G36*
X-146226600Y134464300D02*
X-148528600Y134464300D01*
X-148528600Y136066300D01*
X-146226600Y136066300D01*
X-146226600Y134464300D01*
X-146226600Y134464300D01*
G37*
G36*
X-135228400Y134477000D02*
X-137530400Y134477000D01*
X-137530400Y136079000D01*
X-135228400Y136079000D01*
X-135228400Y134477000D01*
X-135228400Y134477000D01*
G37*
G36*
X-168223000Y134477000D02*
X-170525000Y134477000D01*
X-170525000Y136079000D01*
X-168223000Y136079000D01*
X-168223000Y134477000D01*
X-168223000Y134477000D01*
G37*
G36*
X-157212100Y134489700D02*
X-159514100Y134489700D01*
X-159514100Y136091700D01*
X-157212100Y136091700D01*
X-157212100Y134489700D01*
X-157212100Y134489700D01*
G37*
M02*
